<svg width="1080" height="1080" viewBox="0 0 1080 1080" fill="none" xmlns="http://www.w3.org/2000/svg">
<g clip-path="url(#clip0_3_1549)">
<path d="M212.073 529.943C202.412 529.943 192.752 528.366 182.697 525.409C172.643 522.452 164.165 518.509 157.265 513.58L180.923 479.867C180.726 479.867 181.711 480.656 183.88 482.233C185.852 483.81 188.809 485.585 192.555 487.556C196.301 489.528 200.441 491.302 205.172 492.879C209.904 494.456 214.833 495.245 219.959 495.245C222.916 495.245 225.282 494.851 226.662 494.062C228.042 493.471 229.028 492.485 229.619 491.302C230.013 490.316 230.21 489.133 230.21 487.95C230.21 485.585 229.028 483.613 226.465 482.036C223.902 480.656 220.747 479.276 217.001 477.896C213.058 476.713 208.918 475.333 204.581 473.558C198.864 471.193 193.935 468.63 190.189 465.672C186.443 462.912 183.486 459.561 181.711 455.815C179.74 452.069 178.754 447.535 178.754 442.606C178.754 433.734 180.529 425.848 184.077 418.948C187.429 412.245 192.16 406.33 198.075 401.599C203.989 396.867 210.495 393.318 217.79 390.755C225.085 388.192 232.379 387.009 239.871 387.009C246.377 387.009 252.686 387.798 258.403 389.375C264.12 391.15 269.443 393.121 274.372 395.487C279.301 397.853 283.441 400.021 286.99 402.19L263.726 433.931C263.923 433.931 263.135 433.34 261.36 431.96C259.586 430.58 257.023 429.2 253.868 427.425C250.714 425.848 247.165 424.468 243.222 423.088C239.279 421.708 235.336 421.116 231.393 421.116C229.619 421.116 227.845 421.314 226.267 421.905C224.493 422.496 223.31 423.482 222.324 424.665C221.339 425.848 220.944 427.425 220.944 429.397C220.944 431.368 221.93 432.945 223.704 434.326C225.479 435.706 227.845 436.888 230.999 437.874C234.153 439.057 237.702 440.437 241.842 442.014C248.151 444.38 253.671 446.943 258.6 449.703C263.332 452.661 267.078 456.209 269.641 460.349C272.203 464.49 273.584 470.01 273.584 476.516C273.584 486.57 271.809 494.851 268.063 501.751C264.317 508.651 259.586 513.974 253.474 518.114C247.363 522.452 240.857 525.409 233.562 527.183C226.267 528.958 219.17 529.943 212.073 529.943Z" fill="#232323" stroke="#232323" stroke-width="7.88602" stroke-miterlimit="2" stroke-linejoin="round"/>
<path d="M339.845 529.352C331.17 529.352 323.481 527.775 316.778 524.423C309.878 521.269 304.16 516.932 299.626 511.411C295.092 505.891 291.543 499.582 289.177 492.485C286.811 485.585 285.628 478.29 285.628 470.601C285.628 462.124 287.205 453.844 290.163 445.76C293.12 437.677 297.26 429.988 302.583 422.891C307.709 415.991 314.018 409.879 321.313 404.359C328.41 399.036 336.099 394.896 344.576 391.938C353.054 388.981 361.728 387.404 370.797 387.404C379.472 387.404 387.161 388.981 393.864 392.135C400.567 395.487 406.284 399.824 410.819 405.344C415.353 410.865 418.902 417.174 421.268 424.074C423.436 431.171 424.619 438.466 424.619 446.155C424.619 454.632 423.042 462.912 420.282 470.798C417.325 479.079 413.185 486.57 407.862 493.471C402.539 500.568 396.427 506.877 389.329 512.2C382.232 517.523 374.543 521.86 366.066 524.818C357.588 527.775 348.914 529.352 339.845 529.352ZM347.336 495.245C353.645 495.245 359.165 493.865 363.897 490.908C368.629 487.951 372.572 484.205 375.923 479.473C379.078 474.939 381.443 469.813 383.021 464.49C384.598 459.167 385.386 453.844 385.386 448.718C385.386 443.789 384.598 439.254 383.218 435.114C381.641 430.974 379.275 427.82 375.923 425.257C372.572 422.694 368.234 421.511 362.911 421.511C356.8 421.511 351.279 422.891 346.548 425.651C341.816 428.608 337.873 432.354 334.719 436.889C331.564 441.423 329.199 446.549 327.621 451.872C325.847 457.195 325.058 462.518 325.058 467.644C325.058 472.573 325.847 477.107 327.424 481.247C328.804 485.388 331.17 488.739 334.522 491.302C337.873 494.062 342.013 495.245 347.336 495.245Z" fill="#232323" stroke="#232323" stroke-width="7.88602" stroke-miterlimit="2" stroke-linejoin="round"/>
<path d="M484.521 529.352C476.044 529.352 468.552 527.775 462.046 524.423C455.343 521.072 449.626 516.734 445.091 510.82C440.557 505.103 437.008 498.794 434.642 491.499C432.276 484.402 431.093 477.107 431.093 469.418C431.093 461.73 432.473 453.844 435.234 445.957C437.994 438.269 441.937 430.777 447.063 423.679C451.991 416.779 458.103 410.47 465.003 404.95C471.904 399.627 479.79 395.29 488.464 392.135C496.942 388.981 506.208 387.404 515.868 387.404C528.683 387.404 539.329 390.164 547.806 395.684C556.284 401.401 561.804 408.696 564.367 417.962L530.654 438.86C530.063 434.326 528.486 430.777 526.12 428.214C523.557 425.651 520.797 423.877 517.642 422.891C514.291 421.905 511.136 421.511 507.785 421.511C501.673 421.511 496.35 422.891 491.816 425.651C487.084 428.608 483.141 432.354 479.987 436.889C476.832 441.423 474.466 446.352 472.889 451.675C471.115 456.998 470.326 461.927 470.326 466.855C470.326 471.981 471.115 476.713 472.889 480.853C474.466 485.19 476.832 488.739 480.184 491.302C483.535 493.865 487.676 495.245 492.604 495.245C495.759 495.245 499.11 494.654 502.856 493.471C506.405 492.485 509.756 490.711 513.108 488.148C516.46 485.585 519.22 482.233 521.388 478.093L548.792 496.822C544.652 503.723 539.132 509.44 532.034 514.369C524.74 519.297 517.051 522.846 508.574 525.409C500.096 528.169 492.21 529.352 484.521 529.352Z" fill="#232323" stroke="#232323" stroke-width="7.88602" stroke-miterlimit="2" stroke-linejoin="round"/>
<path d="M585.664 388.193H624.108L594.339 528.169H555.894L585.664 388.193Z" fill="#232323" stroke="#232323" stroke-width="7.88602" stroke-miterlimit="2" stroke-linejoin="round"/>
<path d="M682.091 388.193H717.381L732.956 528.169H693.92L692.54 500.765H659.025L646.21 528.169H606.977L682.091 388.193ZM691.949 475.136L690.371 431.763L670.065 475.136H691.949Z" fill="#232323" stroke="#232323" stroke-width="7.88602" stroke-miterlimit="2" stroke-linejoin="round"/>
<path d="M773.551 388.193H811.996L789.323 494.654H848.271L841.174 528.169H743.781L773.551 388.193Z" fill="#232323" stroke="#232323" stroke-width="7.88602" stroke-miterlimit="2" stroke-linejoin="round"/>
<path d="M279.224 551.757H336.792C344.284 551.757 350.79 553.729 356.113 557.475C361.436 561.418 365.576 566.543 368.533 572.655C371.293 578.767 372.673 585.273 372.673 592.173C372.673 599.073 371.293 605.776 368.336 612.48C365.379 619.183 361.436 625.294 356.31 630.617C351.184 636.138 345.27 640.475 338.566 643.826C331.863 647.178 324.766 648.755 317.077 648.755H296.968L287.899 691.734H249.454L279.224 551.757ZM321.612 615.24C322.794 615.24 323.977 614.845 325.357 614.057C326.737 613.268 327.92 612.085 329.3 610.311C330.483 608.734 331.469 606.762 332.258 604.199C332.849 601.636 333.243 598.679 333.243 595.327C333.243 592.764 332.849 590.596 332.258 589.216C331.666 587.836 330.878 586.653 329.892 586.061C328.906 585.47 327.92 585.273 326.935 585.273H310.571L304.262 615.24H321.612Z" fill="#232323" stroke="#232323" stroke-width="7.88602" stroke-miterlimit="2" stroke-linejoin="round"/>
<path d="M397.886 551.757H436.331L413.658 658.218H472.606L465.509 691.734H368.117L397.886 551.757Z" fill="#232323" stroke="#232323" stroke-width="7.88602" stroke-miterlimit="2" stroke-linejoin="round"/>
<path d="M533.536 692.917C522.101 692.917 512.835 690.748 505.935 686.608C498.837 682.468 493.712 676.553 490.557 669.259C487.206 661.964 485.628 653.881 485.628 644.812C485.628 641.461 485.826 637.912 486.22 634.363C486.614 631.012 487.206 627.463 487.994 623.717L503.372 551.757H541.816L526.439 623.717C525.847 626.28 525.453 628.646 525.256 630.815C525.059 633.18 524.861 635.546 524.861 637.715C524.861 641.855 525.453 645.404 526.439 648.558C527.424 651.712 529.199 654.275 531.564 656.05C533.93 657.824 537.085 658.81 540.831 658.81C544.774 658.81 548.322 657.824 551.477 655.853C554.631 654.078 557.391 651.318 559.954 647.967C562.517 644.615 564.489 640.869 566.263 636.729C568.037 632.589 569.22 628.252 570.206 623.717L585.584 551.757H624.028L608.65 623.717C606.482 633.377 603.327 642.446 599.187 650.924C595.047 659.401 589.724 666.696 583.415 673.005C577.106 679.314 569.812 684.242 561.531 687.594C553.054 691.143 543.788 692.917 533.536 692.917Z" fill="#232323" stroke="#232323" stroke-width="7.88602" stroke-miterlimit="2" stroke-linejoin="round"/>
<path d="M673.923 692.72C666.628 692.72 659.728 691.34 653.616 688.777C647.307 686.214 641.787 682.665 637.253 677.736C632.521 672.808 628.775 666.893 626.212 659.796C623.649 652.895 622.269 645.009 622.269 636.138C622.269 624.111 624.635 613.071 629.367 602.622C634.098 592.173 640.604 583.104 648.687 575.415C656.77 567.726 666.037 561.615 676.288 557.277C686.343 552.94 696.989 550.771 708.03 550.771C720.056 550.771 730.308 553.532 738.982 558.855C747.657 564.375 753.374 571.867 756.134 581.33L723.013 603.214C721.633 597.693 718.873 593.159 714.536 589.807C710.001 586.456 705.072 584.879 699.355 584.879C694.426 584.879 689.892 586.061 685.357 588.427C680.823 590.793 676.683 594.145 673.331 598.285C669.782 602.622 667.022 607.551 665.051 613.071C662.882 618.788 661.896 624.703 661.896 631.209C661.896 636.532 662.882 641.264 664.657 645.404C666.431 649.544 668.994 652.895 672.345 655.064C675.697 657.43 679.837 658.613 684.569 658.613C690.286 658.613 696.201 657.036 702.115 653.881C707.832 650.924 713.55 646.587 718.873 640.869L710.79 678.328C704.678 683.257 698.764 686.805 692.849 689.171C686.737 691.537 680.429 692.72 673.923 692.72ZM716.113 644.812H692.06L697.778 617.211H753.769L737.799 691.734H706.255L716.113 644.812Z" fill="#232323" stroke="#232323" stroke-width="7.88602" stroke-miterlimit="2" stroke-linejoin="round"/>
<path d="M810.581 665.73C799.626 680.906 771.447 694.86 732.656 692.076" stroke="#232323" stroke-width="5.98577" stroke-miterlimit="1.5" stroke-linecap="round" stroke-linejoin="round"/>
<path fill-rule="evenodd" clip-rule="evenodd" d="M831.702 666.05L810.101 645.517C810.101 645.517 809.36 646.297 808.305 647.407C806.416 649.394 805.395 652.05 805.458 654.784C805.53 657.526 806.686 660.128 808.671 662.015C810.812 664.05 813.149 666.271 815.298 668.314C817.283 670.201 819.941 671.224 822.683 671.156C825.417 671.081 828.017 669.927 829.906 667.939C830.961 666.83 831.702 666.05 831.702 666.05Z" fill="#434343" stroke="#232323" stroke-width="3.82604" stroke-miterlimit="1.5" stroke-linecap="round" stroke-linejoin="round"/>
<path fill-rule="evenodd" clip-rule="evenodd" d="M862.954 566.714C854.47 558.57 842.425 555.305 830.989 558.049C819.554 560.792 810.301 569.168 806.436 580.274C802.731 590.92 799.083 601.4 796.218 609.633C792.751 619.593 795.406 630.66 803.015 637.963C813.658 648.179 828.879 662.789 839.522 673.005C847.131 680.308 858.297 682.507 868.107 678.636C876.215 675.436 886.537 671.363 897.023 667.225C907.962 662.908 915.951 653.32 918.224 641.782C920.497 630.244 916.742 618.342 908.258 610.199" fill="#434343"/>
<path d="M862.954 566.714C854.47 558.57 842.425 555.305 830.989 558.049C819.554 560.792 810.301 569.168 806.436 580.274C802.731 590.92 799.083 601.4 796.218 609.633C792.751 619.593 795.406 630.66 803.015 637.963C813.658 648.179 828.879 662.789 839.522 673.005C847.131 680.308 858.297 682.507 868.107 678.636C876.215 675.436 886.537 671.363 897.023 667.225C907.962 662.908 915.951 653.32 918.224 641.782C920.497 630.244 916.742 618.342 908.258 610.199" stroke="#232323" stroke-width="4.79817" stroke-miterlimit="1.5" stroke-linecap="round" stroke-linejoin="round"/>
<path fill-rule="evenodd" clip-rule="evenodd" d="M888.915 591.638L880.64 583.695L888.915 591.638Z" fill="#434343"/>
<path d="M888.915 591.638L880.64 583.695" stroke="#232323" stroke-width="4.79817" stroke-miterlimit="1.5" stroke-linecap="round" stroke-linejoin="round"/>
<path fill-rule="evenodd" clip-rule="evenodd" d="M908.216 610.199L906.182 608.246L908.216 610.199Z" fill="#434343"/>
<path d="M908.216 610.199L906.182 608.246" stroke="#232323" stroke-width="4.79817" stroke-miterlimit="1.5" stroke-linecap="round" stroke-linejoin="round"/>
<path fill-rule="evenodd" clip-rule="evenodd" d="M858.27 574.728L855.879 572.354C852.328 568.829 847.523 566.859 842.52 566.878C837.517 566.896 832.726 568.901 829.201 572.451C825.676 576.002 823.706 580.807 823.725 585.81C823.743 590.813 825.748 595.604 829.298 599.129C841.487 611.229 859.39 629.003 871.579 641.103C875.13 644.628 879.935 646.598 884.939 646.579C889.941 646.561 894.732 644.556 898.257 641.005C901.782 637.455 903.751 632.65 903.734 627.647C903.715 622.643 901.71 617.852 898.16 614.328" fill="#5A5A5A"/>
<path d="M858.27 574.728L855.879 572.354C852.328 568.829 847.523 566.859 842.52 566.878C837.517 566.896 832.726 568.901 829.201 572.451C825.676 576.002 823.706 580.807 823.725 585.81C823.743 590.813 825.748 595.604 829.298 599.129C841.487 611.229 859.39 629.003 871.579 641.103C875.13 644.628 879.935 646.598 884.939 646.579C889.941 646.561 894.732 644.556 898.257 641.005C901.782 637.455 903.751 632.65 903.734 627.647C903.715 622.643 901.71 617.852 898.16 614.328" stroke="#232323" stroke-width="2.37562" stroke-miterlimit="1.5" stroke-linecap="round" stroke-linejoin="round"/>
<path fill-rule="evenodd" clip-rule="evenodd" d="M883.454 599.725L872.474 588.826L883.454 599.725Z" fill="#434343"/>
<path d="M883.454 599.725L872.474 588.826" stroke="#232323" stroke-width="2.37562" stroke-miterlimit="1.5" stroke-linecap="round" stroke-linejoin="round"/>
<path fill-rule="evenodd" clip-rule="evenodd" d="M891.054 571.006C892.962 569.202 894.075 566.714 894.148 564.089C894.222 561.464 893.249 558.918 891.445 557.01C889.641 555.102 887.152 553.989 884.528 553.915C881.903 553.842 879.356 554.814 877.448 556.618C868.931 564.672 854.831 578.005 846.314 586.059C844.406 587.863 843.293 590.351 843.22 592.976C843.146 595.601 844.119 598.148 845.923 600.056C847.727 601.964 850.215 603.077 852.84 603.15C855.465 603.224 858.012 602.251 859.92 600.447C868.437 592.393 882.537 579.06 891.054 571.006Z" fill="#FFC940" stroke="#232323" stroke-width="2.1593" stroke-miterlimit="1.5" stroke-linecap="round" stroke-linejoin="round"/>
<path fill-rule="evenodd" clip-rule="evenodd" d="M915.444 596.849C917.352 595.045 918.465 592.557 918.539 589.932C918.612 587.307 917.64 584.76 915.836 582.852C914.031 580.944 911.543 579.831 908.918 579.758C906.293 579.684 903.747 580.657 901.839 582.461C893.322 590.515 879.222 603.848 870.705 611.902C868.797 613.706 867.684 616.194 867.611 618.819C867.537 621.444 868.51 623.99 870.314 625.898C872.118 627.806 874.606 628.919 877.231 628.993C879.856 629.066 882.402 628.094 884.31 626.29C892.827 618.236 906.927 604.903 915.444 596.849Z" fill="#FFC940" stroke="#232323" stroke-width="2.39915" stroke-miterlimit="1.5" stroke-linecap="round" stroke-linejoin="round"/>
</g>
<defs>
<clipPath id="clip0_3_1549">
<rect width="898" height="898" fill="white" transform="translate(91 91)"/>
</clipPath>
</defs>
</svg>
