<svg width="1080" height="1080" viewBox="0 0 1080 1080" fill="none" xmlns="http://www.w3.org/2000/svg">
<g clip-path="url(#clip0_3_1403)">
<path d="M592.078 409.672H699.277C713.227 409.672 725.342 413.343 735.254 420.318C745.166 427.66 752.876 437.206 758.383 448.586C763.522 459.967 766.092 472.082 766.092 484.931C766.092 497.78 763.522 510.262 758.016 522.744C752.509 535.226 745.166 546.607 735.621 556.519C726.076 566.798 715.063 574.875 702.581 581.116C690.099 587.357 676.882 590.294 662.565 590.294H625.119L608.231 670.326H536.643L592.078 409.672ZM671.008 527.884C673.211 527.884 675.414 527.15 677.984 525.681C680.554 524.213 682.756 522.01 685.326 518.706C687.529 515.769 689.364 512.098 690.833 507.325C691.934 502.553 692.668 497.046 692.668 490.805C692.668 486.032 691.934 481.994 690.833 479.424C689.732 476.854 688.263 474.652 686.427 473.55C684.592 472.449 682.756 472.082 680.921 472.082H650.45L638.702 527.884H671.008Z" fill="#232323" stroke="#232323" stroke-width="14.7031" stroke-miterlimit="2" stroke-linejoin="round"/>
<path fill-rule="evenodd" clip-rule="evenodd" d="M632.822 539.006C631.302 541.554 626.852 543.921 620.644 546.155C604.7 551.923 577.487 555.729 551.99 552.855C536.749 551.123 522.118 547.03 510.94 539.413C509.793 538.634 508.225 538.925 507.448 540.086C506.669 541.233 506.96 542.801 508.106 543.58C519.898 551.613 535.333 556.045 551.431 557.853C577.772 560.834 605.881 556.858 622.353 550.892C630.031 548.117 635.273 544.739 637.149 541.583C637.862 540.381 637.467 538.837 636.266 538.124C635.079 537.41 633.536 537.804 632.822 539.006Z" fill="#232323" stroke="#707070" stroke-width="1.38066" stroke-miterlimit="2" stroke-linejoin="round"/>
<path fill-rule="evenodd" clip-rule="evenodd" d="M652.732 538.998L633.093 523.383C633.093 523.383 632.673 523.911 632.042 524.704C628.877 528.685 629.537 534.477 633.516 537.641C635.221 538.996 637.04 540.443 638.745 541.799C642.724 544.962 648.516 544.301 651.681 540.32C652.312 539.526 652.732 538.998 652.732 538.998Z" fill="#2E2D2D" stroke="#707070" stroke-width="3.22521" stroke-miterlimit="1.5" stroke-linecap="round" stroke-linejoin="round"/>
<path fill-rule="evenodd" clip-rule="evenodd" d="M671.545 453.369C663.826 447.17 653.482 445.325 644.096 448.475C634.709 451.625 627.571 459.336 625.154 468.937C622.837 478.141 620.556 487.2 618.765 494.317C616.597 502.927 619.645 512.011 626.568 517.571C636.252 525.348 650.102 536.47 659.786 544.248C666.708 549.807 676.236 550.823 684.175 546.848C690.738 543.563 699.091 539.38 707.578 535.131C716.431 530.699 722.419 522.065 723.469 512.22C724.519 502.375 720.486 492.673 712.766 486.474" fill="#2E2D2D"/>
<path d="M671.545 453.369C663.826 447.17 653.482 445.325 644.096 448.475C634.709 451.625 627.571 459.336 625.154 468.937C622.837 478.141 620.556 487.2 618.765 494.317C616.597 502.927 619.645 512.011 626.568 517.571C636.252 525.348 650.102 536.47 659.786 544.248C666.708 549.807 676.236 550.823 684.175 546.848C690.738 543.563 699.091 539.38 707.578 535.131C716.431 530.699 722.419 522.065 723.469 512.22C724.519 502.375 720.486 492.673 712.766 486.474" stroke="#707070" stroke-width="4.04467" stroke-miterlimit="1.5" stroke-linecap="round" stroke-linejoin="round"/>
<path fill-rule="evenodd" clip-rule="evenodd" d="M712.776 486.479L710.925 484.992L712.776 486.479Z" fill="#232323"/>
<path d="M712.776 486.479L710.925 484.992" stroke="#707070" stroke-width="4.04467" stroke-miterlimit="1.5" stroke-linecap="round" stroke-linejoin="round"/>
<path fill-rule="evenodd" clip-rule="evenodd" d="M695.175 472.343L687.646 466.297L695.175 472.343Z" fill="#232323"/>
<path d="M695.175 472.343L687.646 466.297" stroke="#707070" stroke-width="4.04467" stroke-miterlimit="1.5" stroke-linecap="round" stroke-linejoin="round"/>
<path fill-rule="evenodd" clip-rule="evenodd" d="M668.243 460.438L666.062 458.625C662.822 455.932 658.646 454.637 654.452 455.024C650.257 455.411 646.388 457.447 643.696 460.687C641.004 463.926 639.708 468.102 640.095 472.296C640.482 476.491 642.519 480.36 645.758 483.052C656.878 492.295 673.212 505.871 684.332 515.114C687.571 517.806 691.748 519.102 695.942 518.715C700.136 518.328 704.005 516.291 706.697 513.052C709.39 509.812 710.685 505.636 710.299 501.442C709.912 497.247 707.875 493.378 704.636 490.686" fill="#434343"/>
<path d="M668.243 460.438L666.062 458.625C662.822 455.932 658.646 454.637 654.452 455.024C650.257 455.411 646.388 457.447 643.696 460.687C641.004 463.926 639.708 468.102 640.095 472.296C640.482 476.491 642.519 480.36 645.758 483.052C656.878 492.295 673.212 505.871 684.332 515.114C687.571 517.806 691.748 519.102 695.942 518.715C700.136 518.328 704.005 516.291 706.697 513.051C709.39 509.812 710.685 505.636 710.299 501.442C709.912 497.247 707.875 493.378 704.636 490.686" stroke="#707070" stroke-width="2.00256" stroke-miterlimit="1.5" stroke-linecap="round" stroke-linejoin="round"/>
<path fill-rule="evenodd" clip-rule="evenodd" d="M691.217 479.529L681.2 471.204L691.217 479.529Z" fill="#232323"/>
<path d="M691.217 479.529L681.2 471.204" stroke="#707070" stroke-width="2.00256" stroke-miterlimit="1.5" stroke-linecap="round" stroke-linejoin="round"/>
<path fill-rule="evenodd" clip-rule="evenodd" d="M695.438 454.887C698.491 451.441 698.173 446.173 694.727 443.12C691.281 440.067 686.013 440.385 682.96 443.831L659.036 470.832C655.983 474.278 656.301 479.546 659.747 482.599C663.192 485.652 668.461 485.334 671.514 481.888C678.059 474.502 688.893 462.273 695.438 454.887Z" fill="#FFC940" stroke="#707070" stroke-width="1.82021" stroke-miterlimit="1.5" stroke-linecap="round" stroke-linejoin="round"/>
<path fill-rule="evenodd" clip-rule="evenodd" d="M717.838 474.742C720.891 471.296 720.573 466.028 717.127 462.975C713.681 459.922 708.413 460.24 705.36 463.685C698.815 471.072 687.98 483.3 681.436 490.687C678.383 494.132 678.701 499.401 682.147 502.454C685.592 505.507 690.861 505.189 693.914 501.743L717.838 474.742Z" fill="#FFC940" stroke="#707070" stroke-width="2.02239" stroke-miterlimit="1.5" stroke-linecap="round" stroke-linejoin="round"/>
<path d="M415.96 673.08C397.972 673.08 379.983 670.143 361.26 664.636C342.537 659.129 326.751 651.787 313.901 642.609L357.956 579.832C357.588 579.832 359.424 581.3 363.462 584.237C367.134 587.174 372.64 590.478 379.616 594.149C386.591 597.821 394.3 601.125 403.111 604.062C411.922 606.999 421.1 608.467 430.645 608.467C436.152 608.467 440.557 607.733 443.127 606.264C445.697 605.163 447.533 603.327 448.634 601.125C449.368 599.289 449.735 597.086 449.735 594.884C449.735 590.478 447.533 586.807 442.76 583.87C437.987 581.3 432.114 578.73 425.138 576.161C417.796 573.958 410.086 571.388 402.01 568.084C391.363 563.679 382.185 558.906 375.21 553.399C368.235 548.26 362.728 542.019 359.424 535.043C355.753 528.068 353.917 519.624 353.917 510.446C353.917 493.926 357.221 479.241 363.829 466.392C370.071 453.91 378.881 442.897 389.895 434.086C400.908 425.275 413.023 418.667 426.607 413.894C440.19 409.122 453.774 406.919 467.724 406.919C479.839 406.919 491.587 408.387 502.233 411.324C512.88 414.628 522.792 418.3 531.97 422.705C541.148 427.11 548.857 431.149 555.465 435.187L512.145 494.293C512.512 494.293 511.044 493.192 507.74 490.622C504.436 488.052 499.663 485.482 493.789 482.178C487.916 479.241 481.307 476.671 473.965 474.102C466.623 471.532 459.28 470.43 451.938 470.43C448.634 470.43 445.33 470.798 442.393 471.899C439.089 473 436.886 474.836 435.05 477.039C433.215 479.241 432.481 482.178 432.481 485.849C432.481 489.521 434.316 492.458 437.62 495.027C440.924 497.597 445.33 499.8 451.204 501.636C457.078 503.838 463.686 506.408 471.395 509.345C483.143 513.75 493.422 518.523 502.6 523.663C511.411 529.169 518.386 535.778 523.159 543.487C527.931 551.197 530.501 561.476 530.501 573.591C530.501 592.314 527.197 607.733 520.222 620.582C513.247 633.431 504.436 643.343 493.055 651.053C481.675 659.129 469.56 664.636 455.976 667.94C442.393 671.244 429.177 673.08 415.96 673.08Z" fill="#232323" stroke="#232323" stroke-width="14.7031" stroke-miterlimit="2" stroke-linejoin="round"/>
</g>
<defs>
<clipPath id="clip0_3_1403">
<rect width="800" height="800" fill="white" transform="translate(140 140)"/>
</clipPath>
</defs>
</svg>
