<svg width="595" height="842" viewBox="0 0 595 842" fill="none" xmlns="http://www.w3.org/2000/svg">
<rect width="595" height="842" fill="white"/>
<g clip-path="url(#clip0_3_23)">
<path d="M246.741 67.9434C245.245 67.9434 243.75 67.6992 242.194 67.2415C240.637 66.7837 239.325 66.1734 238.257 65.4105L241.919 60.1921C241.888 60.1921 242.041 60.3142 242.377 60.5583C242.682 60.8025 243.14 61.0771 243.719 61.3823C244.299 61.6875 244.94 61.9621 245.673 62.2062C246.405 62.4504 247.168 62.5724 247.961 62.5724C248.419 62.5724 248.785 62.5114 248.999 62.3893C249.212 62.2978 249.365 62.1452 249.457 61.9621C249.518 61.8095 249.548 61.6264 249.548 61.4433C249.548 61.0771 249.365 60.772 248.968 60.5278C248.572 60.3142 248.083 60.1006 247.504 59.887C246.893 59.7039 246.252 59.4903 245.581 59.2156C244.696 58.8494 243.933 58.4527 243.353 57.995C242.773 57.5677 242.316 57.0489 242.041 56.4691C241.736 55.8893 241.583 55.1874 241.583 54.4245C241.583 53.0513 241.858 51.8306 242.407 50.7625C242.926 49.725 243.658 48.8095 244.574 48.0771C245.489 47.3447 246.497 46.7954 247.626 46.3986C248.755 46.0019 249.884 45.8188 251.043 45.8188C252.051 45.8188 253.027 45.9409 253.912 46.185C254.797 46.4597 255.621 46.7648 256.384 47.131C257.147 47.4972 257.788 47.8329 258.337 48.1686L254.736 53.0818C254.767 53.0818 254.644 52.9902 254.37 52.7766C254.095 52.563 253.698 52.3494 253.21 52.0747C252.722 51.8306 252.173 51.617 251.562 51.4034C250.952 51.1897 250.342 51.0982 249.731 51.0982C249.457 51.0982 249.182 51.1287 248.938 51.2203C248.663 51.3118 248.48 51.4644 248.327 51.6475C248.175 51.8306 248.114 52.0747 248.114 52.3799C248.114 52.6851 248.266 52.9292 248.541 53.1428C248.816 53.3564 249.182 53.5395 249.67 53.6921C250.158 53.8752 250.708 54.0888 251.349 54.333C252.325 54.6992 253.18 55.0959 253.943 55.5231C254.675 55.9809 255.255 56.5302 255.651 57.171C256.048 57.8119 256.262 58.6663 256.262 59.6734C256.262 61.2297 255.987 62.5114 255.407 63.5795C254.828 64.6476 254.095 65.4715 253.149 66.1124C252.203 66.7837 251.196 67.2415 250.067 67.5161C248.938 67.7908 247.839 67.9434 246.741 67.9434Z" fill="#232323" stroke="#232323" stroke-width="1.22066" stroke-miterlimit="2" stroke-linejoin="round"/>
<path d="M266.518 67.8518C265.176 67.8518 263.985 67.6077 262.948 67.0889C261.88 66.6007 260.995 65.9293 260.293 65.0748C259.591 64.2204 259.042 63.2438 258.676 62.1452C258.309 61.0771 258.126 59.948 258.126 58.7579C258.126 57.4457 258.37 56.164 258.828 54.9128C259.286 53.6616 259.927 52.4715 260.751 51.3729C261.544 50.3048 262.521 49.3588 263.65 48.5043C264.748 47.6804 265.939 47.0395 267.251 46.5818C268.563 46.124 269.906 45.8799 271.309 45.8799C272.652 45.8799 273.842 46.124 274.88 46.6123C275.917 47.1311 276.802 47.8024 277.504 48.6569C278.206 49.5114 278.756 50.4879 279.122 51.556C279.457 52.6546 279.64 53.7837 279.64 54.9738C279.64 56.286 279.396 57.5677 278.969 58.7884C278.511 60.0701 277.871 61.2297 277.047 62.2978C276.223 63.3964 275.277 64.3729 274.178 65.1969C273.079 66.0208 271.889 66.6922 270.577 67.15C269.265 67.6077 267.922 67.8518 266.518 67.8518ZM267.678 62.5725C268.655 62.5725 269.509 62.3588 270.241 61.9011C270.974 61.4433 271.584 60.8635 272.103 60.1311C272.591 59.4292 272.957 58.6358 273.201 57.8119C273.446 56.9879 273.568 56.164 273.568 55.3705C273.568 54.6076 273.446 53.9057 273.232 53.2649C272.988 52.624 272.622 52.1358 272.103 51.7391C271.584 51.3423 270.913 51.1592 270.089 51.1592C269.143 51.1592 268.288 51.3729 267.556 51.8001C266.824 52.2578 266.213 52.8377 265.725 53.5395C265.237 54.2414 264.87 55.0349 264.626 55.8588C264.352 56.6828 264.23 57.5067 264.23 58.3001C264.23 59.063 264.352 59.7649 264.596 60.4058C264.809 61.0466 265.176 61.5654 265.694 61.9621C266.213 62.3894 266.854 62.5725 267.678 62.5725Z" fill="#232323" stroke="#232323" stroke-width="1.22066" stroke-miterlimit="2" stroke-linejoin="round"/>
<path d="M288.913 67.8518C287.6 67.8518 286.441 67.6077 285.434 67.0889C284.396 66.5701 283.511 65.8988 282.809 64.9833C282.107 64.0983 281.558 63.1218 281.192 61.9926C280.826 60.894 280.643 59.7649 280.643 58.5748C280.643 57.3846 280.856 56.164 281.283 54.9433C281.711 53.7532 282.321 52.5935 283.114 51.4949C283.877 50.4269 284.823 49.4503 285.891 48.5959C286.959 47.7719 288.18 47.1005 289.523 46.6123C290.835 46.124 292.269 45.8799 293.765 45.8799C295.748 45.8799 297.396 46.3071 298.708 47.1616C300.021 48.0466 300.875 49.1757 301.272 50.6099L296.053 53.8447C295.962 53.1428 295.718 52.5935 295.352 52.1968C294.955 51.8001 294.528 51.5254 294.039 51.3729C293.521 51.2203 293.032 51.1592 292.513 51.1592C291.567 51.1592 290.744 51.3729 290.042 51.8001C289.309 52.2578 288.699 52.8377 288.211 53.5395C287.722 54.2414 287.356 55.0043 287.112 55.8283C286.837 56.6522 286.715 57.4152 286.715 58.1781C286.715 58.9715 286.837 59.7039 287.112 60.3447C287.356 61.0161 287.722 61.5654 288.241 61.9621C288.76 62.3588 289.401 62.5725 290.164 62.5725C290.652 62.5725 291.171 62.4809 291.751 62.2978C292.3 62.1452 292.819 61.8706 293.337 61.4739C293.856 61.0771 294.283 60.5584 294.619 59.9175L298.861 62.8166C298.22 63.8847 297.366 64.7697 296.267 65.5326C295.138 66.2955 293.948 66.8448 292.636 67.2415C291.323 67.6687 290.103 67.8518 288.913 67.8518Z" fill="#232323" stroke="#232323" stroke-width="1.22066" stroke-miterlimit="2" stroke-linejoin="round"/>
<path d="M304.568 46.002H310.519L305.911 67.6688H299.96L304.568 46.002Z" fill="#232323" stroke="#232323" stroke-width="1.22066" stroke-miterlimit="2" stroke-linejoin="round"/>
<path d="M319.494 46.002H324.957L327.367 67.6688H321.325L321.112 63.427H315.924L313.94 67.6688H307.867L319.494 46.002ZM321.02 59.4598L320.776 52.7461L317.633 59.4598H321.02Z" fill="#232323" stroke="#232323" stroke-width="1.22066" stroke-miterlimit="2" stroke-linejoin="round"/>
<path d="M333.651 46.002H339.602L336.092 62.4809H345.217L344.118 67.6688H329.043L333.651 46.002Z" fill="#232323" stroke="#232323" stroke-width="1.22066" stroke-miterlimit="2" stroke-linejoin="round"/>
<path d="M257.135 71.3199H266.046C267.205 71.3199 268.212 71.625 269.036 72.2049C269.86 72.8152 270.501 73.6086 270.959 74.5546C271.386 75.5006 271.6 76.5077 271.6 77.5758C271.6 78.6439 271.386 79.6814 270.928 80.719C270.471 81.7565 269.86 82.7026 269.067 83.5265C268.273 84.381 267.358 85.0523 266.32 85.5711C265.283 86.0899 264.184 86.334 262.994 86.334H259.881L258.478 92.9867H252.527L257.135 71.3199ZM263.696 81.1462C263.879 81.1462 264.062 81.0852 264.276 80.9631C264.489 80.8411 264.673 80.658 264.886 80.3833C265.069 80.1392 265.222 79.834 265.344 79.4373C265.435 79.0406 265.496 78.5828 265.496 78.064C265.496 77.6673 265.435 77.3316 265.344 77.118C265.252 76.9044 265.13 76.7213 264.978 76.6298C264.825 76.5382 264.673 76.5077 264.52 76.5077H261.987L261.011 81.1462H263.696Z" fill="#232323" stroke="#232323" stroke-width="1.22066" stroke-miterlimit="2" stroke-linejoin="round"/>
<path d="M275.503 71.3199H281.453L277.944 87.7988H287.068L285.97 92.9867H270.895L275.503 71.3199Z" fill="#232323" stroke="#232323" stroke-width="1.22066" stroke-miterlimit="2" stroke-linejoin="round"/>
<path d="M296.5 93.1698C294.73 93.1698 293.295 92.8341 292.227 92.1932C291.129 91.5524 290.335 90.6369 289.847 89.5078C289.328 88.3786 289.084 87.1275 289.084 85.7237C289.084 85.2049 289.115 84.6556 289.176 84.1063C289.237 83.5875 289.328 83.0382 289.45 82.4584L291.83 71.3199H297.781L295.401 82.4584C295.309 82.8551 295.248 83.2213 295.218 83.557C295.187 83.9232 295.157 84.2894 295.157 84.6251C295.157 85.266 295.248 85.8153 295.401 86.3035C295.554 86.7918 295.828 87.1885 296.194 87.4632C296.561 87.7378 297.049 87.8904 297.629 87.8904C298.239 87.8904 298.788 87.7378 299.277 87.4326C299.765 87.158 300.192 86.7308 300.589 86.212C300.985 85.6932 301.291 85.1134 301.565 84.4725C301.84 83.8317 302.023 83.1603 302.176 82.4584L304.556 71.3199H310.507L308.126 82.4584C307.791 83.9537 307.302 85.3575 306.662 86.6697C306.021 87.9819 305.197 89.111 304.22 90.0876C303.244 91.0641 302.115 91.827 300.833 92.3458C299.521 92.8951 298.086 93.1698 296.5 93.1698Z" fill="#232323" stroke="#232323" stroke-width="1.22066" stroke-miterlimit="2" stroke-linejoin="round"/>
<path d="M318.23 93.1392C317.101 93.1392 316.032 92.9256 315.086 92.5289C314.11 92.1322 313.255 91.5829 312.554 90.82C311.821 90.0571 311.241 89.1416 310.845 88.043C310.448 86.9749 310.234 85.7542 310.234 84.381C310.234 82.5195 310.601 80.8105 311.333 79.1931C312.065 77.5758 313.072 76.172 314.324 74.9819C315.575 73.7917 317.009 72.8457 318.596 72.1743C320.152 71.503 321.8 71.1673 323.509 71.1673C325.371 71.1673 326.957 71.5945 328.3 72.4185C329.643 73.2729 330.528 74.4326 330.955 75.8974L325.828 79.2847C325.615 78.4302 325.187 77.7284 324.516 77.2096C323.814 76.6908 323.051 76.4467 322.166 76.4467C321.403 76.4467 320.702 76.6298 320 76.996C319.298 77.3622 318.657 77.8809 318.138 78.5218C317.589 79.1931 317.162 79.9561 316.856 80.8105C316.521 81.6955 316.368 82.611 316.368 83.6181C316.368 84.442 316.521 85.1744 316.795 85.8153C317.07 86.4561 317.467 86.9749 317.986 87.3106C318.504 87.6768 319.145 87.8599 319.878 87.8599C320.763 87.8599 321.678 87.6157 322.594 87.1275C323.479 86.6697 324.364 85.9984 325.187 85.1134L323.936 90.9115C322.99 91.6744 322.075 92.2237 321.159 92.5899C320.213 92.9561 319.237 93.1392 318.23 93.1392ZM324.76 85.7237H321.037L321.922 81.4514H330.589L328.117 92.9867H323.234L324.76 85.7237Z" fill="#232323" stroke="#232323" stroke-width="1.22066" stroke-miterlimit="2" stroke-linejoin="round"/>
<path fill-rule="evenodd" clip-rule="evenodd" d="M342.652 89.0111L339.309 85.8329C339.309 85.8329 339.194 85.9536 339.031 86.1254C338.738 86.433 338.58 86.844 338.59 87.2672C338.601 87.6916 338.78 88.0944 339.087 88.3865C339.419 88.7016 339.78 89.0454 340.113 89.3616C340.42 89.6536 340.832 89.812 341.256 89.8015C341.679 89.7899 342.082 89.6111 342.374 89.3035C342.537 89.1318 342.652 89.0111 342.652 89.0111Z" stroke="#232323" stroke-width="0.592227" stroke-miterlimit="1.5" stroke-linecap="round" stroke-linejoin="round"/>
<path d="M347.49 73.635C346.176 72.3745 344.312 71.869 342.542 72.2937C340.772 72.7183 339.34 74.0148 338.741 75.7339C338.168 77.3819 337.603 79.004 337.16 80.2784C336.623 81.82 337.034 83.5331 338.212 84.6635C339.859 86.2448 342.215 88.5063 343.863 90.0876C345.04 91.218 346.769 91.5585 348.287 90.9593C349.542 90.4639 351.14 89.8334 352.763 89.1929C354.456 88.5247 355.693 87.0405 356.045 85.2546C356.397 83.4686 355.815 81.6264 354.502 80.3659" stroke="#232323" stroke-width="0.742701" stroke-miterlimit="1.5" stroke-linecap="round" stroke-linejoin="round"/>
<path d="M354.496 80.366L354.181 80.0636" stroke="#232323" stroke-width="0.742701" stroke-miterlimit="1.5" stroke-linecap="round" stroke-linejoin="round"/>
<path d="M351.508 77.493L350.227 76.2635" stroke="#232323" stroke-width="0.742701" stroke-miterlimit="1.5" stroke-linecap="round" stroke-linejoin="round"/>
<path d="M346.765 74.8754L346.394 74.508C345.845 73.9624 345.101 73.6575 344.327 73.6603C343.552 73.6632 342.811 73.9735 342.265 74.5231C341.719 75.0727 341.415 75.8165 341.417 76.5909C341.42 77.3653 341.731 78.1069 342.28 78.6525C344.167 80.5254 346.938 83.2765 348.825 85.1496C349.374 85.6951 350.118 86 350.893 85.9972C351.667 85.9944 352.408 85.684 352.954 85.1344C353.5 84.5848 353.805 83.8411 353.802 83.0667C353.799 82.2922 353.489 81.5506 352.939 81.0051" stroke="#232323" stroke-width="0.367719" stroke-miterlimit="1.5" stroke-linecap="round" stroke-linejoin="round"/>
<path d="M350.663 78.7448L348.963 77.0576" stroke="#232323" stroke-width="0.367719" stroke-miterlimit="1.5" stroke-linecap="round" stroke-linejoin="round"/>
<path fill-rule="evenodd" clip-rule="evenodd" d="M351.839 74.2994C352.134 74.0201 352.307 73.635 352.318 73.2287C352.329 72.8224 352.179 72.4282 351.9 72.1329C351.62 71.8376 351.235 71.6652 350.829 71.6539C350.423 71.6425 350.028 71.793 349.733 72.0723C348.415 73.3189 346.232 75.3827 344.914 76.6294C344.619 76.9086 344.446 77.2938 344.435 77.7001C344.424 78.1064 344.574 78.5005 344.853 78.7959C345.133 79.0912 345.518 79.2635 345.924 79.2749C346.33 79.2863 346.725 79.1358 347.02 78.8565C348.338 77.6098 350.521 75.546 351.839 74.2994Z" stroke="#232323" stroke-width="0.334235" stroke-miterlimit="1.5" stroke-linecap="round" stroke-linejoin="round"/>
<path fill-rule="evenodd" clip-rule="evenodd" d="M355.614 78.2996C355.91 78.0203 356.082 77.6351 356.093 77.2288C356.105 76.8226 355.954 76.4284 355.675 76.133C355.396 75.8377 355.011 75.6654 354.604 75.6541C354.198 75.6427 353.804 75.7932 353.508 76.0724C352.19 77.3191 350.008 79.3829 348.689 80.6295C348.394 80.9088 348.222 81.2939 348.21 81.7003C348.199 82.1065 348.349 82.5007 348.629 82.796C348.908 83.0914 349.293 83.2637 349.699 83.275C350.106 83.2864 350.5 83.1359 350.795 82.8566C352.114 81.61 354.296 79.5462 355.614 78.2996Z" stroke="#232323" stroke-width="0.371361" stroke-miterlimit="1.5" stroke-linecap="round" stroke-linejoin="round"/>
<path d="M339.383 88.9616C337.687 91.3106 333.325 93.4705 327.321 93.0396" stroke="#232323" stroke-width="0.926528" stroke-miterlimit="1.5" stroke-linecap="round" stroke-linejoin="round"/>
</g>
<path d="M233.028 143.288C231.7 143.288 230.412 143.112 229.164 142.76C227.932 142.392 226.94 141.92 226.188 141.344L227.508 138.416C228.228 138.944 229.084 139.368 230.076 139.688C231.068 140.008 232.06 140.168 233.052 140.168C234.156 140.168 234.972 140.008 235.5 139.688C236.028 139.352 236.292 138.912 236.292 138.368C236.292 137.968 236.132 137.64 235.812 137.384C235.508 137.112 235.108 136.896 234.612 136.736C234.132 136.576 233.476 136.4 232.644 136.208C231.364 135.904 230.316 135.6 229.5 135.296C228.684 134.992 227.98 134.504 227.388 133.832C226.812 133.16 226.524 132.264 226.524 131.144C226.524 130.168 226.788 129.288 227.316 128.504C227.844 127.704 228.636 127.072 229.692 126.608C230.764 126.144 232.068 125.912 233.604 125.912C234.676 125.912 235.724 126.04 236.748 126.296C237.772 126.552 238.668 126.92 239.436 127.4L238.236 130.352C236.684 129.472 235.132 129.032 233.58 129.032C232.492 129.032 231.684 129.208 231.156 129.56C230.644 129.912 230.388 130.376 230.388 130.952C230.388 131.528 230.684 131.96 231.276 132.248C231.884 132.52 232.804 132.792 234.036 133.064C235.316 133.368 236.364 133.672 237.18 133.976C237.996 134.28 238.692 134.76 239.268 135.416C239.86 136.072 240.156 136.96 240.156 138.08C240.156 139.04 239.884 139.92 239.34 140.72C238.812 141.504 238.012 142.128 236.94 142.592C235.868 143.056 234.564 143.288 233.028 143.288ZM250.876 142.376C250.508 142.648 250.052 142.856 249.508 143C248.98 143.128 248.42 143.192 247.828 143.192C246.292 143.192 245.1 142.8 244.252 142.016C243.42 141.232 243.004 140.08 243.004 138.56V133.256H241.012V130.376H243.004V127.232H246.748V130.376H249.964V133.256H246.748V138.512C246.748 139.056 246.884 139.48 247.156 139.784C247.444 140.072 247.844 140.216 248.356 140.216C248.948 140.216 249.452 140.056 249.868 139.736L250.876 142.376ZM265.56 130.088L259.728 143.792C259.136 145.28 258.4 146.328 257.52 146.936C256.656 147.544 255.608 147.848 254.376 147.848C253.704 147.848 253.04 147.744 252.384 147.536C251.728 147.328 251.192 147.04 250.776 146.672L252.144 144.008C252.432 144.264 252.76 144.464 253.128 144.608C253.512 144.752 253.888 144.824 254.256 144.824C254.768 144.824 255.184 144.696 255.504 144.44C255.824 144.2 256.112 143.792 256.368 143.216L256.416 143.096L250.824 130.088H254.688L258.312 138.848L261.96 130.088H265.56ZM267.087 125.192H270.831V143H267.087V125.192ZM286.954 136.592C286.954 136.64 286.93 136.976 286.882 137.6H277.114C277.29 138.4 277.706 139.032 278.362 139.496C279.018 139.96 279.834 140.192 280.81 140.192C281.482 140.192 282.074 140.096 282.586 139.904C283.114 139.696 283.602 139.376 284.05 138.944L286.042 141.104C284.826 142.496 283.05 143.192 280.714 143.192C279.258 143.192 277.97 142.912 276.85 142.352C275.73 141.776 274.866 140.984 274.258 139.976C273.65 138.968 273.346 137.824 273.346 136.544C273.346 135.28 273.642 134.144 274.234 133.136C274.842 132.112 275.666 131.32 276.706 130.76C277.762 130.184 278.938 129.896 280.234 129.896C281.498 129.896 282.642 130.168 283.666 130.712C284.69 131.256 285.49 132.04 286.066 133.064C286.658 134.072 286.954 135.248 286.954 136.592ZM280.258 132.728C279.41 132.728 278.698 132.968 278.122 133.448C277.546 133.928 277.194 134.584 277.066 135.416H283.426C283.298 134.6 282.946 133.952 282.37 133.472C281.794 132.976 281.09 132.728 280.258 132.728ZM307.86 134.336H311.412V141.152C310.5 141.84 309.444 142.368 308.244 142.736C307.044 143.104 305.836 143.288 304.62 143.288C302.876 143.288 301.308 142.92 299.916 142.184C298.524 141.432 297.428 140.4 296.628 139.088C295.844 137.76 295.452 136.264 295.452 134.6C295.452 132.936 295.844 131.448 296.628 130.136C297.428 128.808 298.532 127.776 299.94 127.04C301.348 126.288 302.932 125.912 304.692 125.912C306.164 125.912 307.5 126.16 308.7 126.656C309.9 127.152 310.908 127.872 311.724 128.816L309.228 131.12C308.028 129.856 306.58 129.224 304.884 129.224C303.812 129.224 302.86 129.448 302.028 129.896C301.196 130.344 300.548 130.976 300.084 131.792C299.62 132.608 299.388 133.544 299.388 134.6C299.388 135.64 299.62 136.568 300.084 137.384C300.548 138.2 301.188 138.84 302.004 139.304C302.836 139.752 303.78 139.976 304.836 139.976C305.956 139.976 306.964 139.736 307.86 139.256V134.336ZM327.767 130.088V143H324.215V141.464C323.719 142.024 323.127 142.456 322.439 142.76C321.751 143.048 321.007 143.192 320.207 143.192C318.511 143.192 317.167 142.704 316.175 141.728C315.183 140.752 314.687 139.304 314.687 137.384V130.088H318.431V136.832C318.431 138.912 319.303 139.952 321.047 139.952C321.943 139.952 322.663 139.664 323.207 139.088C323.751 138.496 324.023 137.624 324.023 136.472V130.088H327.767ZM331.236 130.088H334.98V143H331.236V130.088ZM333.108 128.288C332.42 128.288 331.86 128.088 331.428 127.688C330.996 127.288 330.78 126.792 330.78 126.2C330.78 125.608 330.996 125.112 331.428 124.712C331.86 124.312 332.42 124.112 333.108 124.112C333.796 124.112 334.356 124.304 334.788 124.688C335.22 125.072 335.436 125.552 335.436 126.128C335.436 126.752 335.22 127.272 334.788 127.688C334.356 128.088 333.796 128.288 333.108 128.288ZM351.607 125.192V143H348.031V141.512C347.103 142.632 345.759 143.192 343.999 143.192C342.783 143.192 341.679 142.92 340.687 142.376C339.711 141.832 338.943 141.056 338.383 140.048C337.823 139.04 337.543 137.872 337.543 136.544C337.543 135.216 337.823 134.048 338.383 133.04C338.943 132.032 339.711 131.256 340.687 130.712C341.679 130.168 342.783 129.896 343.999 129.896C345.647 129.896 346.935 130.416 347.863 131.456V125.192H351.607ZM344.647 140.12C345.591 140.12 346.375 139.8 346.999 139.16C347.623 138.504 347.935 137.632 347.935 136.544C347.935 135.456 347.623 134.592 346.999 133.952C346.375 133.296 345.591 132.968 344.647 132.968C343.687 132.968 342.895 133.296 342.271 133.952C341.647 134.592 341.335 135.456 341.335 136.544C341.335 137.632 341.647 138.504 342.271 139.16C342.895 139.8 343.687 140.12 344.647 140.12ZM367.72 136.592C367.72 136.64 367.696 136.976 367.648 137.6H357.88C358.056 138.4 358.472 139.032 359.128 139.496C359.784 139.96 360.6 140.192 361.576 140.192C362.248 140.192 362.84 140.096 363.352 139.904C363.88 139.696 364.368 139.376 364.816 138.944L366.808 141.104C365.592 142.496 363.816 143.192 361.48 143.192C360.024 143.192 358.736 142.912 357.616 142.352C356.496 141.776 355.632 140.984 355.024 139.976C354.416 138.968 354.112 137.824 354.112 136.544C354.112 135.28 354.408 134.144 355 133.136C355.608 132.112 356.432 131.32 357.472 130.76C358.528 130.184 359.704 129.896 361 129.896C362.264 129.896 363.408 130.168 364.432 130.712C365.456 131.256 366.256 132.04 366.832 133.064C367.424 134.072 367.72 135.248 367.72 136.592ZM361.024 132.728C360.176 132.728 359.464 132.968 358.888 133.448C358.312 133.928 357.96 134.584 357.832 135.416H364.192C364.064 134.6 363.712 133.952 363.136 133.472C362.56 132.976 361.856 132.728 361.024 132.728Z" fill="#232323"/>
<path d="M237.84 204.216C236.556 204.216 235.392 203.94 234.348 203.388C233.316 202.824 232.5 202.05 231.9 201.066C231.312 200.07 231.018 198.948 231.018 197.7C231.018 196.452 231.312 195.336 231.9 194.352C232.5 193.356 233.316 192.582 234.348 192.03C235.392 191.466 236.562 191.184 237.858 191.184C238.95 191.184 239.934 191.376 240.81 191.76C241.698 192.144 242.442 192.696 243.042 193.416L241.17 195.144C240.318 194.16 239.262 193.668 238.002 193.668C237.222 193.668 236.526 193.842 235.914 194.19C235.302 194.526 234.822 195 234.474 195.612C234.138 196.224 233.97 196.92 233.97 197.7C233.97 198.48 234.138 199.176 234.474 199.788C234.822 200.4 235.302 200.88 235.914 201.228C236.526 201.564 237.222 201.732 238.002 201.732C239.262 201.732 240.318 201.234 241.17 200.238L243.042 201.966C242.442 202.698 241.698 203.256 240.81 203.64C239.922 204.024 238.932 204.216 237.84 204.216ZM249.088 204.144C248.068 204.144 247.15 203.934 246.334 203.514C245.53 203.082 244.9 202.488 244.444 201.732C243.988 200.976 243.76 200.118 243.76 199.158C243.76 198.198 243.988 197.34 244.444 196.584C244.9 195.828 245.53 195.24 246.334 194.82C247.15 194.388 248.068 194.172 249.088 194.172C250.108 194.172 251.02 194.388 251.824 194.82C252.628 195.24 253.258 195.828 253.714 196.584C254.17 197.34 254.398 198.198 254.398 199.158C254.398 200.118 254.17 200.976 253.714 201.732C253.258 202.488 252.628 203.082 251.824 203.514C251.02 203.934 250.108 204.144 249.088 204.144ZM249.088 201.84C249.808 201.84 250.396 201.6 250.852 201.12C251.32 200.628 251.554 199.974 251.554 199.158C251.554 198.342 251.32 197.694 250.852 197.214C250.396 196.722 249.808 196.476 249.088 196.476C248.368 196.476 247.774 196.722 247.306 197.214C246.838 197.694 246.604 198.342 246.604 199.158C246.604 199.974 246.838 200.628 247.306 201.12C247.774 201.6 248.368 201.84 249.088 201.84ZM256.275 190.644H259.083V204H256.275V190.644ZM266.297 204.144C265.277 204.144 264.359 203.934 263.543 203.514C262.739 203.082 262.109 202.488 261.653 201.732C261.197 200.976 260.969 200.118 260.969 199.158C260.969 198.198 261.197 197.34 261.653 196.584C262.109 195.828 262.739 195.24 263.543 194.82C264.359 194.388 265.277 194.172 266.297 194.172C267.317 194.172 268.229 194.388 269.033 194.82C269.837 195.24 270.467 195.828 270.923 196.584C271.379 197.34 271.607 198.198 271.607 199.158C271.607 200.118 271.379 200.976 270.923 201.732C270.467 202.488 269.837 203.082 269.033 203.514C268.229 203.934 267.317 204.144 266.297 204.144ZM266.297 201.84C267.017 201.84 267.605 201.6 268.061 201.12C268.529 200.628 268.763 199.974 268.763 199.158C268.763 198.342 268.529 197.694 268.061 197.214C267.605 196.722 267.017 196.476 266.297 196.476C265.577 196.476 264.983 196.722 264.515 197.214C264.047 197.694 263.813 198.342 263.813 199.158C263.813 199.974 264.047 200.628 264.515 201.12C264.983 201.6 265.577 201.84 266.297 201.84ZM283.24 194.316V204H280.576V202.848C280.204 203.268 279.76 203.592 279.244 203.82C278.728 204.036 278.17 204.144 277.57 204.144C276.298 204.144 275.29 203.778 274.546 203.046C273.802 202.314 273.43 201.228 273.43 199.788V194.316H276.238V199.374C276.238 200.934 276.892 201.714 278.2 201.714C278.872 201.714 279.412 201.498 279.82 201.066C280.228 200.622 280.432 199.968 280.432 199.104V194.316H283.24ZM288.523 195.594C288.859 195.126 289.309 194.772 289.873 194.532C290.449 194.292 291.109 194.172 291.853 194.172V196.764C291.541 196.74 291.331 196.728 291.223 196.728C290.419 196.728 289.789 196.956 289.333 197.412C288.877 197.856 288.649 198.528 288.649 199.428V204H285.841V194.316H288.523V195.594ZM304.343 191.4C305.459 191.4 306.425 191.586 307.241 191.958C308.069 192.33 308.705 192.858 309.149 193.542C309.593 194.226 309.815 195.036 309.815 195.972C309.815 196.896 309.593 197.706 309.149 198.402C308.705 199.086 308.069 199.614 307.241 199.986C306.425 200.346 305.459 200.526 304.343 200.526H301.805V204H298.889V191.4H304.343ZM304.181 198.15C305.057 198.15 305.723 197.964 306.179 197.592C306.635 197.208 306.863 196.668 306.863 195.972C306.863 195.264 306.635 194.724 306.179 194.352C305.723 193.968 305.057 193.776 304.181 193.776H301.805V198.15H304.181ZM315.516 194.172C317.016 194.172 318.168 194.532 318.972 195.252C319.776 195.96 320.178 197.034 320.178 198.474V204H317.55V202.794C317.022 203.694 316.038 204.144 314.598 204.144C313.854 204.144 313.206 204.018 312.654 203.766C312.114 203.514 311.7 203.166 311.412 202.722C311.124 202.278 310.98 201.774 310.98 201.21C310.98 200.31 311.316 199.602 311.988 199.086C312.672 198.57 313.722 198.312 315.138 198.312H317.37C317.37 197.7 317.184 197.232 316.812 196.908C316.44 196.572 315.882 196.404 315.138 196.404C314.622 196.404 314.112 196.488 313.608 196.656C313.116 196.812 312.696 197.028 312.348 197.304L311.34 195.342C311.868 194.97 312.498 194.682 313.23 194.478C313.974 194.274 314.736 194.172 315.516 194.172ZM315.3 202.254C315.78 202.254 316.206 202.146 316.578 201.93C316.95 201.702 317.214 201.372 317.37 200.94V199.95H315.444C314.292 199.95 313.716 200.328 313.716 201.084C313.716 201.444 313.854 201.732 314.13 201.948C314.418 202.152 314.808 202.254 315.3 202.254ZM322.72 190.644H325.528V204H322.72V190.644ZM337.62 199.194C337.62 199.23 337.602 199.482 337.566 199.95H330.24C330.372 200.55 330.684 201.024 331.176 201.372C331.668 201.72 332.28 201.894 333.012 201.894C333.516 201.894 333.96 201.822 334.344 201.678C334.74 201.522 335.106 201.282 335.442 200.958L336.936 202.578C336.024 203.622 334.692 204.144 332.94 204.144C331.848 204.144 330.882 203.934 330.042 203.514C329.202 203.082 328.554 202.488 328.098 201.732C327.642 200.976 327.414 200.118 327.414 199.158C327.414 198.21 327.636 197.358 328.08 196.602C328.536 195.834 329.154 195.24 329.934 194.82C330.726 194.388 331.608 194.172 332.58 194.172C333.528 194.172 334.386 194.376 335.154 194.784C335.922 195.192 336.522 195.78 336.954 196.548C337.398 197.304 337.62 198.186 337.62 199.194ZM332.598 196.296C331.962 196.296 331.428 196.476 330.996 196.836C330.564 197.196 330.3 197.688 330.204 198.312H334.974C334.878 197.7 334.614 197.214 334.182 196.854C333.75 196.482 333.222 196.296 332.598 196.296ZM345.735 203.532C345.459 203.736 345.117 203.892 344.709 204C344.313 204.096 343.893 204.144 343.449 204.144C342.297 204.144 341.403 203.85 340.767 203.262C340.143 202.674 339.831 201.81 339.831 200.67V196.692H338.337V194.532H339.831V192.174H342.639V194.532H345.051V196.692H342.639V200.634C342.639 201.042 342.741 201.36 342.945 201.588C343.161 201.804 343.461 201.912 343.845 201.912C344.289 201.912 344.667 201.792 344.979 201.552L345.735 203.532ZM353.347 203.532C353.071 203.736 352.729 203.892 352.321 204C351.925 204.096 351.505 204.144 351.061 204.144C349.909 204.144 349.015 203.85 348.379 203.262C347.755 202.674 347.443 201.81 347.443 200.67V196.692H345.949V194.532H347.443V192.174H350.251V194.532H352.663V196.692H350.251V200.634C350.251 201.042 350.353 201.36 350.557 201.588C350.773 201.804 351.073 201.912 351.457 201.912C351.901 201.912 352.279 201.792 352.591 201.552L353.347 203.532ZM364.11 199.194C364.11 199.23 364.092 199.482 364.056 199.95H356.73C356.862 200.55 357.174 201.024 357.666 201.372C358.158 201.72 358.77 201.894 359.502 201.894C360.006 201.894 360.45 201.822 360.834 201.678C361.23 201.522 361.596 201.282 361.932 200.958L363.426 202.578C362.514 203.622 361.182 204.144 359.43 204.144C358.338 204.144 357.372 203.934 356.532 203.514C355.692 203.082 355.044 202.488 354.588 201.732C354.132 200.976 353.904 200.118 353.904 199.158C353.904 198.21 354.126 197.358 354.57 196.602C355.026 195.834 355.644 195.24 356.424 194.82C357.216 194.388 358.098 194.172 359.07 194.172C360.018 194.172 360.876 194.376 361.644 194.784C362.412 195.192 363.012 195.78 363.444 196.548C363.888 197.304 364.11 198.186 364.11 199.194ZM359.088 196.296C358.452 196.296 357.918 196.476 357.486 196.836C357.054 197.196 356.79 197.688 356.694 198.312H361.464C361.368 197.7 361.104 197.214 360.672 196.854C360.24 196.482 359.712 196.296 359.088 196.296Z" fill="#232323"/>
<path d="M267.015 237.4C268.131 237.4 269.097 237.586 269.913 237.958C270.741 238.33 271.377 238.858 271.821 239.542C272.265 240.226 272.487 241.036 272.487 241.972C272.487 242.896 272.265 243.706 271.821 244.402C271.377 245.086 270.741 245.614 269.913 245.986C269.097 246.346 268.131 246.526 267.015 246.526H264.477V250H261.561V237.4H267.015ZM266.853 244.15C267.729 244.15 268.395 243.964 268.851 243.592C269.307 243.208 269.535 242.668 269.535 241.972C269.535 241.264 269.307 240.724 268.851 240.352C268.395 239.968 267.729 239.776 266.853 239.776H264.477V244.15H266.853ZM277.053 241.594C277.389 241.126 277.839 240.772 278.403 240.532C278.979 240.292 279.639 240.172 280.383 240.172V242.764C280.071 242.74 279.861 242.728 279.753 242.728C278.949 242.728 278.319 242.956 277.863 243.412C277.407 243.856 277.179 244.528 277.179 245.428V250H274.371V240.316H277.053V241.594ZM282.053 240.316H284.861V250H282.053V240.316ZM283.457 238.966C282.941 238.966 282.521 238.816 282.197 238.516C281.873 238.216 281.711 237.844 281.711 237.4C281.711 236.956 281.873 236.584 282.197 236.284C282.521 235.984 282.941 235.834 283.457 235.834C283.973 235.834 284.393 235.978 284.717 236.266C285.041 236.554 285.203 236.914 285.203 237.346C285.203 237.814 285.041 238.204 284.717 238.516C284.393 238.816 283.973 238.966 283.457 238.966ZM299.869 240.172C301.081 240.172 302.041 240.532 302.749 241.252C303.469 241.96 303.829 243.028 303.829 244.456V250H301.021V244.888C301.021 244.12 300.859 243.55 300.535 243.178C300.223 242.794 299.773 242.602 299.185 242.602C298.525 242.602 298.003 242.818 297.619 243.25C297.235 243.67 297.043 244.3 297.043 245.14V250H294.235V244.888C294.235 243.364 293.623 242.602 292.399 242.602C291.751 242.602 291.235 242.818 290.851 243.25C290.467 243.67 290.275 244.3 290.275 245.14V250H287.467V240.316H290.149V241.432C290.509 241.024 290.947 240.712 291.463 240.496C291.991 240.28 292.567 240.172 293.191 240.172C293.875 240.172 294.493 240.31 295.045 240.586C295.597 240.85 296.041 241.24 296.377 241.756C296.773 241.252 297.271 240.862 297.871 240.586C298.483 240.31 299.149 240.172 299.869 240.172ZM310.252 240.172C311.752 240.172 312.904 240.532 313.708 241.252C314.512 241.96 314.914 243.034 314.914 244.474V250H312.286V248.794C311.758 249.694 310.774 250.144 309.334 250.144C308.59 250.144 307.942 250.018 307.39 249.766C306.85 249.514 306.436 249.166 306.148 248.722C305.86 248.278 305.716 247.774 305.716 247.21C305.716 246.31 306.052 245.602 306.724 245.086C307.408 244.57 308.458 244.312 309.874 244.312H312.106C312.106 243.7 311.92 243.232 311.548 242.908C311.176 242.572 310.618 242.404 309.874 242.404C309.358 242.404 308.848 242.488 308.344 242.656C307.852 242.812 307.432 243.028 307.084 243.304L306.076 241.342C306.604 240.97 307.234 240.682 307.966 240.478C308.71 240.274 309.472 240.172 310.252 240.172ZM310.036 248.254C310.516 248.254 310.942 248.146 311.314 247.93C311.686 247.702 311.95 247.372 312.106 246.94V245.95H310.18C309.028 245.95 308.452 246.328 308.452 247.084C308.452 247.444 308.59 247.732 308.866 247.948C309.154 248.152 309.544 248.254 310.036 248.254ZM320.137 241.594C320.473 241.126 320.923 240.772 321.487 240.532C322.063 240.292 322.723 240.172 323.467 240.172V242.764C323.155 242.74 322.945 242.728 322.837 242.728C322.033 242.728 321.403 242.956 320.947 243.412C320.491 243.856 320.263 244.528 320.263 245.428V250H317.455V240.316H320.137V241.594ZM335.083 240.316L330.709 250.594C330.265 251.71 329.713 252.496 329.053 252.952C328.405 253.408 327.619 253.636 326.695 253.636C326.191 253.636 325.693 253.558 325.201 253.402C324.709 253.246 324.307 253.03 323.995 252.754L325.021 250.756C325.237 250.948 325.483 251.098 325.759 251.206C326.047 251.314 326.329 251.368 326.605 251.368C326.989 251.368 327.301 251.272 327.541 251.08C327.781 250.9 327.997 250.594 328.189 250.162L328.225 250.072L324.031 240.316H326.929L329.647 246.886L332.383 240.316H335.083Z" fill="#232323"/>
<path d="M253.115 460.216C252.119 460.216 251.153 460.084 250.217 459.82C249.293 459.544 248.549 459.19 247.985 458.758L248.975 456.562C249.515 456.958 250.157 457.276 250.901 457.516C251.645 457.756 252.389 457.876 253.133 457.876C253.961 457.876 254.573 457.756 254.969 457.516C255.365 457.264 255.563 456.934 255.563 456.526C255.563 456.226 255.443 455.98 255.203 455.788C254.975 455.584 254.675 455.422 254.303 455.302C253.943 455.182 253.451 455.05 252.827 454.906C251.867 454.678 251.081 454.45 250.469 454.222C249.857 453.994 249.329 453.628 248.885 453.124C248.453 452.62 248.237 451.948 248.237 451.108C248.237 450.376 248.435 449.716 248.831 449.128C249.227 448.528 249.821 448.054 250.613 447.706C251.417 447.358 252.395 447.184 253.547 447.184C254.351 447.184 255.137 447.28 255.905 447.472C256.673 447.664 257.345 447.94 257.921 448.3L257.021 450.514C255.857 449.854 254.693 449.524 253.529 449.524C252.713 449.524 252.107 449.656 251.711 449.92C251.327 450.184 251.135 450.532 251.135 450.964C251.135 451.396 251.357 451.72 251.801 451.936C252.257 452.14 252.947 452.344 253.871 452.548C254.831 452.776 255.617 453.004 256.229 453.232C256.841 453.46 257.363 453.82 257.795 454.312C258.239 454.804 258.461 455.47 258.461 456.31C258.461 457.03 258.257 457.69 257.849 458.29C257.453 458.878 256.853 459.346 256.049 459.694C255.245 460.042 254.267 460.216 253.115 460.216ZM269.742 455.194C269.742 455.23 269.724 455.482 269.688 455.95H262.362C262.494 456.55 262.806 457.024 263.298 457.372C263.79 457.72 264.402 457.894 265.134 457.894C265.638 457.894 266.082 457.822 266.466 457.678C266.862 457.522 267.228 457.282 267.564 456.958L269.058 458.578C268.146 459.622 266.814 460.144 265.062 460.144C263.97 460.144 263.004 459.934 262.164 459.514C261.324 459.082 260.676 458.488 260.22 457.732C259.764 456.976 259.536 456.118 259.536 455.158C259.536 454.21 259.758 453.358 260.202 452.602C260.658 451.834 261.276 451.24 262.056 450.82C262.848 450.388 263.73 450.172 264.702 450.172C265.65 450.172 266.508 450.376 267.276 450.784C268.044 451.192 268.644 451.78 269.076 452.548C269.52 453.304 269.742 454.186 269.742 455.194ZM264.72 452.296C264.084 452.296 263.55 452.476 263.118 452.836C262.686 453.196 262.422 453.688 262.326 454.312H267.096C267 453.7 266.736 453.214 266.304 452.854C265.872 452.482 265.344 452.296 264.72 452.296ZM276.291 460.144C275.259 460.144 274.329 459.934 273.501 459.514C272.685 459.082 272.043 458.488 271.575 457.732C271.119 456.976 270.891 456.118 270.891 455.158C270.891 454.198 271.119 453.34 271.575 452.584C272.043 451.828 272.685 451.24 273.501 450.82C274.329 450.388 275.259 450.172 276.291 450.172C277.311 450.172 278.199 450.388 278.955 450.82C279.723 451.24 280.281 451.846 280.629 452.638L278.451 453.808C277.947 452.92 277.221 452.476 276.273 452.476C275.541 452.476 274.935 452.716 274.455 453.196C273.975 453.676 273.735 454.33 273.735 455.158C273.735 455.986 273.975 456.64 274.455 457.12C274.935 457.6 275.541 457.84 276.273 457.84C277.233 457.84 277.959 457.396 278.451 456.508L280.629 457.696C280.281 458.464 279.723 459.064 278.955 459.496C278.199 459.928 277.311 460.144 276.291 460.144ZM286.731 460.144C285.711 460.144 284.793 459.934 283.977 459.514C283.173 459.082 282.543 458.488 282.087 457.732C281.631 456.976 281.403 456.118 281.403 455.158C281.403 454.198 281.631 453.34 282.087 452.584C282.543 451.828 283.173 451.24 283.977 450.82C284.793 450.388 285.711 450.172 286.731 450.172C287.751 450.172 288.663 450.388 289.467 450.82C290.271 451.24 290.901 451.828 291.357 452.584C291.813 453.34 292.041 454.198 292.041 455.158C292.041 456.118 291.813 456.976 291.357 457.732C290.901 458.488 290.271 459.082 289.467 459.514C288.663 459.934 287.751 460.144 286.731 460.144ZM286.731 457.84C287.451 457.84 288.039 457.6 288.495 457.12C288.963 456.628 289.197 455.974 289.197 455.158C289.197 454.342 288.963 453.694 288.495 453.214C288.039 452.722 287.451 452.476 286.731 452.476C286.011 452.476 285.417 452.722 284.949 453.214C284.481 453.694 284.247 454.342 284.247 455.158C284.247 455.974 284.481 456.628 284.949 457.12C285.417 457.6 286.011 457.84 286.731 457.84ZM299.804 450.172C301.004 450.172 301.97 450.532 302.702 451.252C303.446 451.972 303.818 453.04 303.818 454.456V460H301.01V454.888C301.01 454.12 300.842 453.55 300.506 453.178C300.17 452.794 299.684 452.602 299.048 452.602C298.34 452.602 297.776 452.824 297.356 453.268C296.936 453.7 296.726 454.348 296.726 455.212V460H293.918V450.316H296.6V451.45C296.972 451.042 297.434 450.73 297.986 450.514C298.538 450.286 299.144 450.172 299.804 450.172ZM316.333 446.644V460H313.651V458.884C312.955 459.724 311.947 460.144 310.627 460.144C309.715 460.144 308.887 459.94 308.143 459.532C307.411 459.124 306.835 458.542 306.415 457.786C305.995 457.03 305.785 456.154 305.785 455.158C305.785 454.162 305.995 453.286 306.415 452.53C306.835 451.774 307.411 451.192 308.143 450.784C308.887 450.376 309.715 450.172 310.627 450.172C311.863 450.172 312.829 450.562 313.525 451.342V446.644H316.333ZM311.113 457.84C311.821 457.84 312.409 457.6 312.877 457.12C313.345 456.628 313.579 455.974 313.579 455.158C313.579 454.342 313.345 453.694 312.877 453.214C312.409 452.722 311.821 452.476 311.113 452.476C310.393 452.476 309.799 452.722 309.331 453.214C308.863 453.694 308.629 454.342 308.629 455.158C308.629 455.974 308.863 456.628 309.331 457.12C309.799 457.6 310.393 457.84 311.113 457.84ZM322.838 450.172C324.338 450.172 325.49 450.532 326.294 451.252C327.098 451.96 327.5 453.034 327.5 454.474V460H324.872V458.794C324.344 459.694 323.36 460.144 321.92 460.144C321.176 460.144 320.528 460.018 319.976 459.766C319.436 459.514 319.022 459.166 318.734 458.722C318.446 458.278 318.302 457.774 318.302 457.21C318.302 456.31 318.638 455.602 319.31 455.086C319.994 454.57 321.044 454.312 322.46 454.312H324.692C324.692 453.7 324.506 453.232 324.134 452.908C323.762 452.572 323.204 452.404 322.46 452.404C321.944 452.404 321.434 452.488 320.93 452.656C320.438 452.812 320.018 453.028 319.67 453.304L318.662 451.342C319.19 450.97 319.82 450.682 320.552 450.478C321.296 450.274 322.058 450.172 322.838 450.172ZM322.622 458.254C323.102 458.254 323.528 458.146 323.9 457.93C324.272 457.702 324.536 457.372 324.692 456.94V455.95H322.766C321.614 455.95 321.038 456.328 321.038 457.084C321.038 457.444 321.176 457.732 321.452 457.948C321.74 458.152 322.13 458.254 322.622 458.254ZM332.723 451.594C333.059 451.126 333.509 450.772 334.073 450.532C334.649 450.292 335.309 450.172 336.053 450.172V452.764C335.741 452.74 335.531 452.728 335.423 452.728C334.619 452.728 333.989 452.956 333.533 453.412C333.077 453.856 332.849 454.528 332.849 455.428V460H330.041V450.316H332.723V451.594ZM347.669 450.316L343.295 460.594C342.851 461.71 342.299 462.496 341.639 462.952C340.991 463.408 340.205 463.636 339.281 463.636C338.777 463.636 338.279 463.558 337.787 463.402C337.295 463.246 336.893 463.03 336.581 462.754L337.607 460.756C337.823 460.948 338.069 461.098 338.345 461.206C338.633 461.314 338.915 461.368 339.191 461.368C339.575 461.368 339.887 461.272 340.127 461.08C340.367 460.9 340.583 460.594 340.775 460.162L340.811 460.072L336.617 450.316H339.515L342.233 456.886L344.969 450.316H347.669Z" fill="#232323"/>
<path d="M269.341 654.3H263.491L262.375 657H259.387L265.003 644.4H267.883L273.517 657H270.457L269.341 654.3ZM268.423 652.086L266.425 647.262L264.427 652.086H268.423ZM279.218 657.144C278.186 657.144 277.256 656.934 276.428 656.514C275.612 656.082 274.97 655.488 274.502 654.732C274.046 653.976 273.818 653.118 273.818 652.158C273.818 651.198 274.046 650.34 274.502 649.584C274.97 648.828 275.612 648.24 276.428 647.82C277.256 647.388 278.186 647.172 279.218 647.172C280.238 647.172 281.126 647.388 281.882 647.82C282.65 648.24 283.208 648.846 283.556 649.638L281.378 650.808C280.874 649.92 280.148 649.476 279.2 649.476C278.468 649.476 277.862 649.716 277.382 650.196C276.902 650.676 276.662 651.33 276.662 652.158C276.662 652.986 276.902 653.64 277.382 654.12C277.862 654.6 278.468 654.84 279.2 654.84C280.16 654.84 280.886 654.396 281.378 653.508L283.556 654.696C283.208 655.464 282.65 656.064 281.882 656.496C281.126 656.928 280.238 657.144 279.218 657.144ZM289.73 657.144C288.698 657.144 287.768 656.934 286.94 656.514C286.124 656.082 285.482 655.488 285.014 654.732C284.558 653.976 284.33 653.118 284.33 652.158C284.33 651.198 284.558 650.34 285.014 649.584C285.482 648.828 286.124 648.24 286.94 647.82C287.768 647.388 288.698 647.172 289.73 647.172C290.75 647.172 291.638 647.388 292.394 647.82C293.162 648.24 293.72 648.846 294.068 649.638L291.89 650.808C291.386 649.92 290.66 649.476 289.712 649.476C288.98 649.476 288.374 649.716 287.894 650.196C287.414 650.676 287.174 651.33 287.174 652.158C287.174 652.986 287.414 653.64 287.894 654.12C288.374 654.6 288.98 654.84 289.712 654.84C290.672 654.84 291.398 654.396 291.89 653.508L294.068 654.696C293.72 655.464 293.162 656.064 292.394 656.496C291.638 656.928 290.75 657.144 289.73 657.144ZM305.048 652.194C305.048 652.23 305.03 652.482 304.994 652.95H297.668C297.8 653.55 298.112 654.024 298.604 654.372C299.096 654.72 299.708 654.894 300.44 654.894C300.944 654.894 301.388 654.822 301.772 654.678C302.168 654.522 302.534 654.282 302.87 653.958L304.364 655.578C303.452 656.622 302.12 657.144 300.368 657.144C299.276 657.144 298.31 656.934 297.47 656.514C296.63 656.082 295.982 655.488 295.526 654.732C295.07 653.976 294.842 653.118 294.842 652.158C294.842 651.21 295.064 650.358 295.508 649.602C295.964 648.834 296.582 648.24 297.362 647.82C298.154 647.388 299.036 647.172 300.008 647.172C300.956 647.172 301.814 647.376 302.582 647.784C303.35 648.192 303.95 648.78 304.382 649.548C304.826 650.304 305.048 651.186 305.048 652.194ZM300.026 649.296C299.39 649.296 298.856 649.476 298.424 649.836C297.992 650.196 297.728 650.688 297.632 651.312H302.402C302.306 650.7 302.042 650.214 301.61 649.854C301.178 649.482 300.65 649.296 300.026 649.296ZM312.803 647.172C314.003 647.172 314.969 647.532 315.701 648.252C316.445 648.972 316.817 650.04 316.817 651.456V657H314.009V651.888C314.009 651.12 313.841 650.55 313.505 650.178C313.169 649.794 312.683 649.602 312.047 649.602C311.339 649.602 310.775 649.824 310.355 650.268C309.935 650.7 309.725 651.348 309.725 652.212V657H306.917V647.316H309.599V648.45C309.971 648.042 310.433 647.73 310.985 647.514C311.537 647.286 312.143 647.172 312.803 647.172ZM325.608 656.532C325.332 656.736 324.99 656.892 324.582 657C324.186 657.096 323.766 657.144 323.322 657.144C322.17 657.144 321.276 656.85 320.64 656.262C320.016 655.674 319.704 654.81 319.704 653.67V649.692H318.21V647.532H319.704V645.174H322.512V647.532H324.924V649.692H322.512V653.634C322.512 654.042 322.614 654.36 322.818 654.588C323.034 654.804 323.334 654.912 323.718 654.912C324.162 654.912 324.54 654.792 324.852 654.552L325.608 656.532ZM330.443 657.144C329.639 657.144 328.853 657.048 328.085 656.856C327.317 656.652 326.705 656.4 326.249 656.1L327.185 654.084C327.617 654.36 328.139 654.588 328.751 654.768C329.363 654.936 329.963 655.02 330.551 655.02C331.739 655.02 332.333 654.726 332.333 654.138C332.333 653.862 332.171 653.664 331.847 653.544C331.523 653.424 331.025 653.322 330.353 653.238C329.561 653.118 328.907 652.98 328.391 652.824C327.875 652.668 327.425 652.392 327.041 651.996C326.669 651.6 326.483 651.036 326.483 650.304C326.483 649.692 326.657 649.152 327.005 648.684C327.365 648.204 327.881 647.832 328.553 647.568C329.237 647.304 330.041 647.172 330.965 647.172C331.649 647.172 332.327 647.25 332.999 647.406C333.683 647.55 334.247 647.754 334.691 648.018L333.755 650.016C332.903 649.536 331.973 649.296 330.965 649.296C330.365 649.296 329.915 649.38 329.615 649.548C329.315 649.716 329.165 649.932 329.165 650.196C329.165 650.496 329.327 650.706 329.651 650.826C329.975 650.946 330.491 651.06 331.199 651.168C331.991 651.3 332.639 651.444 333.143 651.6C333.647 651.744 334.085 652.014 334.457 652.41C334.829 652.806 335.015 653.358 335.015 654.066C335.015 654.666 334.835 655.2 334.475 655.668C334.115 656.136 333.587 656.502 332.891 656.766C332.207 657.018 331.391 657.144 330.443 657.144Z" fill="#232323"/>
<circle cx="92.5" cy="333.5" r="57.5" transform="rotate(-90 92.5 333.5)" fill="#FFFBF0"/>
<circle cx="227.5" cy="333.5" r="57.5" transform="rotate(-90 227.5 333.5)" fill="#FFC940"/>
<circle cx="362.5" cy="333.5" r="57.5" transform="rotate(-90 362.5 333.5)" fill="#232323"/>
<circle cx="497.5" cy="333.5" r="57.5" transform="rotate(-90 497.5 333.5)" fill="#FFDC84"/>
<path d="M68.9186 408.672L68.3266 411.44H70.4386V413.04H67.9906L67.3506 416H65.6066L66.2466 413.04H63.1106L62.4706 416H60.7266L61.3666 413.04H58.8866V411.44H61.7026L62.2946 408.672H59.8306V407.072H62.6306L63.2546 404.16H64.9986L64.3746 407.072H67.5106L68.1346 404.16H69.8786L69.2546 407.072H71.3826V408.672H68.9186ZM67.1746 408.672H64.0386L63.4466 411.44H66.5826L67.1746 408.672ZM80.0878 404.88V406.368H75.3678V409.648H79.0478V411.136H75.3678V416H73.5438V404.88H80.0878ZM88.3221 404.88V406.368H83.6021V409.648H87.2821V411.136H83.6021V416H81.7781V404.88H88.3221ZM96.5565 404.88V406.368H91.8365V409.648H95.5165V411.136H91.8365V416H90.0125V404.88H96.5565ZM104.199 410.288C104.796 410.395 105.303 410.709 105.719 411.232C106.135 411.755 106.343 412.347 106.343 413.008C106.343 413.573 106.194 414.085 105.895 414.544C105.607 414.992 105.186 415.349 104.631 415.616C104.076 415.872 103.431 416 102.695 416H98.2469V404.88H102.487C103.244 404.88 103.895 405.008 104.439 405.264C104.983 405.52 105.394 405.867 105.671 406.304C105.948 406.731 106.087 407.211 106.087 407.744C106.087 408.384 105.916 408.917 105.575 409.344C105.234 409.771 104.775 410.085 104.199 410.288ZM100.071 409.552H102.327C102.924 409.552 103.388 409.419 103.719 409.152C104.06 408.875 104.231 408.48 104.231 407.968C104.231 407.467 104.06 407.077 103.719 406.8C103.388 406.512 102.924 406.368 102.327 406.368H100.071V409.552ZM102.535 414.512C103.154 414.512 103.639 414.363 103.991 414.064C104.343 413.765 104.519 413.349 104.519 412.816C104.519 412.272 104.332 411.84 103.959 411.52C103.586 411.2 103.09 411.04 102.471 411.04H100.071V414.512H102.535ZM114.869 404.88V406.368H110.149V409.648H113.829V411.136H110.149V416H108.325V404.88H114.869ZM116.319 410.016C116.319 408.171 116.629 406.731 117.247 405.696C117.877 404.651 118.954 404.128 120.479 404.128C122.005 404.128 123.077 404.651 123.695 405.696C124.325 406.731 124.639 408.171 124.639 410.016C124.639 411.883 124.325 413.344 123.695 414.4C123.077 415.445 122.005 415.968 120.479 415.968C118.954 415.968 117.877 415.445 117.247 414.4C116.629 413.344 116.319 411.883 116.319 410.016ZM122.847 410.016C122.847 409.152 122.789 408.421 122.671 407.824C122.565 407.227 122.341 406.741 121.999 406.368C121.658 405.984 121.151 405.792 120.479 405.792C119.807 405.792 119.301 405.984 118.959 406.368C118.618 406.741 118.389 407.227 118.271 407.824C118.165 408.421 118.111 409.152 118.111 410.016C118.111 410.912 118.165 411.664 118.271 412.272C118.378 412.88 118.602 413.371 118.943 413.744C119.295 414.117 119.807 414.304 120.479 414.304C121.151 414.304 121.658 414.117 121.999 413.744C122.351 413.371 122.581 412.88 122.687 412.272C122.794 411.664 122.847 410.912 122.847 410.016Z" fill="black"/>
<path d="M201.747 408.672L201.155 411.44H203.267V413.04H200.819L200.179 416H198.435L199.075 413.04H195.939L195.299 416H193.555L194.195 413.04H191.715V411.44H194.531L195.123 408.672H192.659V407.072H195.459L196.083 404.16H197.827L197.203 407.072H200.339L200.963 404.16H202.707L202.083 407.072H204.211V408.672H201.747ZM200.003 408.672H196.867L196.275 411.44H199.411L200.003 408.672ZM212.916 404.88V406.368H208.196V409.648H211.876V411.136H208.196V416H206.372V404.88H212.916ZM221.15 404.88V406.368H216.43V409.648H220.11V411.136H216.43V416H214.606V404.88H221.15ZM222.233 410.416C222.233 409.328 222.483 408.352 222.985 407.488C223.497 406.624 224.185 405.952 225.049 405.472C225.923 404.981 226.878 404.736 227.913 404.736C229.097 404.736 230.147 405.029 231.065 405.616C231.993 406.192 232.665 407.013 233.081 408.08H230.889C230.601 407.493 230.201 407.056 229.689 406.768C229.177 406.48 228.585 406.336 227.913 406.336C227.177 406.336 226.521 406.501 225.945 406.832C225.369 407.163 224.915 407.637 224.585 408.256C224.265 408.875 224.105 409.595 224.105 410.416C224.105 411.237 224.265 411.957 224.585 412.576C224.915 413.195 225.369 413.675 225.945 414.016C226.521 414.347 227.177 414.512 227.913 414.512C228.585 414.512 229.177 414.368 229.689 414.08C230.201 413.792 230.601 413.355 230.889 412.768H233.081C232.665 413.835 231.993 414.656 231.065 415.232C230.147 415.808 229.097 416.096 227.913 416.096C226.867 416.096 225.913 415.856 225.049 415.376C224.185 414.885 223.497 414.208 222.985 413.344C222.483 412.48 222.233 411.504 222.233 410.416ZM237.248 412.832C237.354 413.365 237.584 413.771 237.936 414.048C238.288 414.325 238.762 414.464 239.36 414.464C240.117 414.464 240.672 414.165 241.024 413.568C241.376 412.971 241.552 411.952 241.552 410.512C241.296 410.875 240.933 411.157 240.464 411.36C240.005 411.552 239.504 411.648 238.96 411.648C238.266 411.648 237.637 411.509 237.072 411.232C236.506 410.944 236.058 410.523 235.728 409.968C235.408 409.403 235.248 408.72 235.248 407.92C235.248 406.747 235.589 405.813 236.272 405.12C236.965 404.416 237.914 404.064 239.12 404.064C240.57 404.064 241.6 404.549 242.208 405.52C242.826 406.48 243.136 407.957 243.136 409.952C243.136 411.328 243.018 412.453 242.784 413.328C242.56 414.203 242.165 414.864 241.6 415.312C241.034 415.76 240.25 415.984 239.248 415.984C238.106 415.984 237.226 415.685 236.608 415.088C235.989 414.491 235.642 413.739 235.568 412.832H237.248ZM239.28 410.112C239.92 410.112 240.421 409.915 240.784 409.52C241.157 409.115 241.344 408.581 241.344 407.92C241.344 407.184 241.146 406.613 240.752 406.208C240.368 405.792 239.84 405.584 239.168 405.584C238.496 405.584 237.962 405.797 237.568 406.224C237.184 406.64 236.992 407.189 236.992 407.872C236.992 408.523 237.178 409.061 237.552 409.488C237.936 409.904 238.512 410.112 239.28 410.112ZM244.908 413.568V412.192L250.284 404.48H252.492V411.984H253.98V413.568H252.492V416H250.7V413.568H244.908ZM250.78 406.336L247.004 411.984H250.78V406.336ZM255.491 410.016C255.491 408.171 255.801 406.731 256.419 405.696C257.049 404.651 258.126 404.128 259.651 404.128C261.177 404.128 262.249 404.651 262.867 405.696C263.497 406.731 263.811 408.171 263.811 410.016C263.811 411.883 263.497 413.344 262.867 414.4C262.249 415.445 261.177 415.968 259.651 415.968C258.126 415.968 257.049 415.445 256.419 414.4C255.801 413.344 255.491 411.883 255.491 410.016ZM262.019 410.016C262.019 409.152 261.961 408.421 261.843 407.824C261.737 407.227 261.513 406.741 261.171 406.368C260.83 405.984 260.323 405.792 259.651 405.792C258.979 405.792 258.473 405.984 258.131 406.368C257.79 406.741 257.561 407.227 257.443 407.824C257.337 408.421 257.283 409.152 257.283 410.016C257.283 410.912 257.337 411.664 257.443 412.272C257.55 412.88 257.774 413.371 258.115 413.744C258.467 414.117 258.979 414.304 259.651 414.304C260.323 414.304 260.83 414.117 261.171 413.744C261.523 413.371 261.753 412.88 261.859 412.272C261.966 411.664 262.019 410.912 262.019 410.016Z" fill="black"/>
<path d="M337.95 408.672L337.358 411.44H339.47V413.04H337.022L336.382 416H334.638L335.278 413.04H332.142L331.502 416H329.758L330.398 413.04H327.918V411.44H330.734L331.326 408.672H328.862V407.072H331.662L332.286 404.16H334.03L333.406 407.072H336.542L337.166 404.16H338.91L338.286 407.072H340.414V408.672H337.95ZM336.206 408.672H333.07L332.478 411.44H335.614L336.206 408.672ZM343.343 413.52C344.367 412.635 345.172 411.909 345.759 411.344C346.356 410.768 346.852 410.171 347.247 409.552C347.642 408.933 347.839 408.315 347.839 407.696C347.839 407.056 347.684 406.555 347.375 406.192C347.076 405.829 346.602 405.648 345.951 405.648C345.322 405.648 344.831 405.851 344.479 406.256C344.138 406.651 343.956 407.184 343.935 407.856H342.175C342.207 406.64 342.57 405.712 343.263 405.072C343.967 404.421 344.858 404.096 345.935 404.096C347.098 404.096 348.004 404.416 348.655 405.056C349.316 405.696 349.647 406.549 349.647 407.616C349.647 408.384 349.45 409.125 349.055 409.84C348.671 410.544 348.207 411.179 347.663 411.744C347.13 412.299 346.447 412.944 345.615 413.68L344.895 414.32H349.967V415.84H342.191V414.512L343.343 413.52ZM351.537 407.216C351.601 406.224 351.98 405.451 352.673 404.896C353.377 404.341 354.273 404.064 355.361 404.064C356.108 404.064 356.753 404.197 357.297 404.464C357.841 404.731 358.252 405.093 358.529 405.552C358.807 406.011 358.945 406.528 358.945 407.104C358.945 407.765 358.769 408.331 358.417 408.8C358.065 409.269 357.644 409.584 357.153 409.744V409.808C357.783 410 358.273 410.352 358.625 410.864C358.977 411.365 359.153 412.011 359.153 412.8C359.153 413.429 359.009 413.989 358.721 414.48C358.433 414.971 358.007 415.36 357.441 415.648C356.876 415.925 356.199 416.064 355.409 416.064C354.257 416.064 353.308 415.771 352.561 415.184C351.825 414.587 351.431 413.733 351.377 412.624H353.137C353.18 413.189 353.399 413.653 353.793 414.016C354.188 414.368 354.721 414.544 355.393 414.544C356.044 414.544 356.545 414.368 356.897 414.016C357.249 413.653 357.425 413.189 357.425 412.624C357.425 411.877 357.185 411.349 356.705 411.04C356.236 410.72 355.511 410.56 354.529 410.56H354.113V409.056H354.545C355.409 409.045 356.065 408.901 356.513 408.624C356.972 408.347 357.201 407.909 357.201 407.312C357.201 406.8 357.036 406.395 356.705 406.096C356.375 405.787 355.905 405.632 355.297 405.632C354.7 405.632 354.236 405.787 353.905 406.096C353.575 406.395 353.377 406.768 353.313 407.216H351.537ZM362.077 413.52C363.101 412.635 363.907 411.909 364.493 411.344C365.091 410.768 365.587 410.171 365.981 409.552C366.376 408.933 366.573 408.315 366.573 407.696C366.573 407.056 366.419 406.555 366.109 406.192C365.811 405.829 365.336 405.648 364.685 405.648C364.056 405.648 363.565 405.851 363.213 406.256C362.872 406.651 362.691 407.184 362.669 407.856H360.909C360.941 406.64 361.304 405.712 361.997 405.072C362.701 404.421 363.592 404.096 364.669 404.096C365.832 404.096 366.739 404.416 367.389 405.056C368.051 405.696 368.381 406.549 368.381 407.616C368.381 408.384 368.184 409.125 367.789 409.84C367.405 410.544 366.941 411.179 366.397 411.744C365.864 412.299 365.181 412.944 364.349 413.68L363.629 414.32H368.701V415.84H360.925V414.512L362.077 413.52ZM370.272 407.216C370.336 406.224 370.714 405.451 371.408 404.896C372.112 404.341 373.008 404.064 374.096 404.064C374.842 404.064 375.488 404.197 376.032 404.464C376.576 404.731 376.986 405.093 377.264 405.552C377.541 406.011 377.68 406.528 377.68 407.104C377.68 407.765 377.504 408.331 377.152 408.8C376.8 409.269 376.378 409.584 375.888 409.744V409.808C376.517 410 377.008 410.352 377.36 410.864C377.712 411.365 377.888 412.011 377.888 412.8C377.888 413.429 377.744 413.989 377.456 414.48C377.168 414.971 376.741 415.36 376.176 415.648C375.61 415.925 374.933 416.064 374.144 416.064C372.992 416.064 372.042 415.771 371.296 415.184C370.56 414.587 370.165 413.733 370.112 412.624H371.872C371.914 413.189 372.133 413.653 372.528 414.016C372.922 414.368 373.456 414.544 374.128 414.544C374.778 414.544 375.28 414.368 375.632 414.016C375.984 413.653 376.16 413.189 376.16 412.624C376.16 411.877 375.92 411.349 375.44 411.04C374.97 410.72 374.245 410.56 373.264 410.56H372.848V409.056H373.28C374.144 409.045 374.8 408.901 375.248 408.624C375.706 408.347 375.936 407.909 375.936 407.312C375.936 406.8 375.77 406.395 375.44 406.096C375.109 405.787 374.64 405.632 374.032 405.632C373.434 405.632 372.97 405.787 372.64 406.096C372.309 406.395 372.112 406.768 372.048 407.216H370.272ZM380.812 413.52C381.836 412.635 382.641 411.909 383.228 411.344C383.825 410.768 384.321 410.171 384.716 409.552C385.11 408.933 385.308 408.315 385.308 407.696C385.308 407.056 385.153 406.555 384.844 406.192C384.545 405.829 384.07 405.648 383.42 405.648C382.79 405.648 382.3 405.851 381.948 406.256C381.606 406.651 381.425 407.184 381.404 407.856H379.644C379.676 406.64 380.038 405.712 380.732 405.072C381.436 404.421 382.326 404.096 383.404 404.096C384.566 404.096 385.473 404.416 386.124 405.056C386.785 405.696 387.116 406.549 387.116 407.616C387.116 408.384 386.918 409.125 386.524 409.84C386.14 410.544 385.676 411.179 385.132 411.744C384.598 412.299 383.916 412.944 383.084 413.68L382.364 414.32H387.436V415.84H379.66V414.512L380.812 413.52ZM389.006 407.216C389.07 406.224 389.449 405.451 390.142 404.896C390.846 404.341 391.742 404.064 392.83 404.064C393.577 404.064 394.222 404.197 394.766 404.464C395.31 404.731 395.721 405.093 395.998 405.552C396.275 406.011 396.414 406.528 396.414 407.104C396.414 407.765 396.238 408.331 395.886 408.8C395.534 409.269 395.113 409.584 394.622 409.744V409.808C395.251 410 395.742 410.352 396.094 410.864C396.446 411.365 396.622 412.011 396.622 412.8C396.622 413.429 396.478 413.989 396.19 414.48C395.902 414.971 395.475 415.36 394.91 415.648C394.345 415.925 393.667 416.064 392.878 416.064C391.726 416.064 390.777 415.771 390.03 415.184C389.294 414.587 388.899 413.733 388.846 412.624H390.606C390.649 413.189 390.867 413.653 391.262 414.016C391.657 414.368 392.19 414.544 392.862 414.544C393.513 414.544 394.014 414.368 394.366 414.016C394.718 413.653 394.894 413.189 394.894 412.624C394.894 411.877 394.654 411.349 394.174 411.04C393.705 410.72 392.979 410.56 391.998 410.56H391.582V409.056H392.014C392.878 409.045 393.534 408.901 393.982 408.624C394.441 408.347 394.67 407.909 394.67 407.312C394.67 406.8 394.505 406.395 394.174 406.096C393.843 405.787 393.374 405.632 392.766 405.632C392.169 405.632 391.705 405.787 391.374 406.096C391.043 406.395 390.846 406.768 390.782 407.216H389.006Z" fill="black"/>
<path d="M470.676 408.672L470.084 411.44H472.196V413.04H469.748L469.108 416H467.364L468.004 413.04H464.868L464.228 416H462.484L463.124 413.04H460.644V411.44H463.46L464.052 408.672H461.588V407.072H464.388L465.012 404.16H466.756L466.132 407.072H469.268L469.892 404.16H471.636L471.012 407.072H473.14V408.672H470.676ZM468.932 408.672H465.796L465.204 411.44H468.34L468.932 408.672ZM481.846 404.88V406.368H477.126V409.648H480.806V411.136H477.126V416H475.302V404.88H481.846ZM490.08 404.88V406.368H485.36V409.648H489.04V411.136H485.36V416H483.536V404.88H490.08ZM495.402 404.88C496.586 404.88 497.621 405.109 498.506 405.568C499.402 406.016 500.09 406.667 500.57 407.52C501.061 408.363 501.306 409.349 501.306 410.48C501.306 411.611 501.061 412.592 500.57 413.424C500.09 414.256 499.402 414.896 498.506 415.344C497.621 415.781 496.586 416 495.402 416H491.77V404.88H495.402ZM495.402 414.512C496.704 414.512 497.701 414.16 498.394 413.456C499.088 412.752 499.434 411.76 499.434 410.48C499.434 409.189 499.088 408.181 498.394 407.456C497.701 406.731 496.704 406.368 495.402 406.368H493.594V414.512H495.402ZM502.506 410.416C502.506 409.328 502.757 408.352 503.258 407.488C503.77 406.624 504.458 405.952 505.322 405.472C506.197 404.981 507.151 404.736 508.186 404.736C509.37 404.736 510.421 405.029 511.338 405.616C512.266 406.192 512.938 407.013 513.354 408.08H511.162C510.874 407.493 510.474 407.056 509.962 406.768C509.45 406.48 508.858 406.336 508.186 406.336C507.45 406.336 506.794 406.501 506.218 406.832C505.642 407.163 505.189 407.637 504.858 408.256C504.538 408.875 504.378 409.595 504.378 410.416C504.378 411.237 504.538 411.957 504.858 412.576C505.189 413.195 505.642 413.675 506.218 414.016C506.794 414.347 507.45 414.512 508.186 414.512C508.858 414.512 509.45 414.368 509.962 414.08C510.474 413.792 510.874 413.355 511.162 412.768H513.354C512.938 413.835 512.266 414.656 511.338 415.232C510.421 415.808 509.37 416.096 508.186 416.096C507.141 416.096 506.186 415.856 505.322 415.376C504.458 414.885 503.77 414.208 503.258 413.344C502.757 412.48 502.506 411.504 502.506 410.416ZM517.217 409.904C516.108 409.349 515.553 408.475 515.553 407.28C515.553 406.704 515.697 406.176 515.985 405.696C516.273 405.216 516.705 404.837 517.281 404.56C517.857 404.272 518.561 404.128 519.393 404.128C520.214 404.128 520.913 404.272 521.489 404.56C522.076 404.837 522.513 405.216 522.801 405.696C523.089 406.176 523.233 406.704 523.233 407.28C523.233 407.877 523.078 408.405 522.769 408.864C522.47 409.312 522.07 409.659 521.569 409.904C522.177 410.128 522.657 410.496 523.009 411.008C523.361 411.509 523.537 412.101 523.537 412.784C523.537 413.477 523.361 414.091 523.009 414.624C522.657 415.157 522.166 415.568 521.537 415.856C520.908 416.144 520.193 416.288 519.393 416.288C518.593 416.288 517.878 416.144 517.249 415.856C516.63 415.568 516.145 415.157 515.793 414.624C515.441 414.091 515.265 413.477 515.265 412.784C515.265 412.091 515.441 411.493 515.793 410.992C516.145 410.491 516.62 410.128 517.217 409.904ZM521.489 407.504C521.489 406.907 521.302 406.448 520.929 406.128C520.556 405.808 520.044 405.648 519.393 405.648C518.753 405.648 518.246 405.808 517.873 406.128C517.5 406.448 517.313 406.912 517.313 407.52C517.313 408.053 517.505 408.491 517.889 408.832C518.284 409.163 518.785 409.328 519.393 409.328C520.001 409.328 520.502 409.157 520.897 408.816C521.292 408.475 521.489 408.037 521.489 407.504ZM519.393 410.704C518.689 410.704 518.113 410.88 517.665 411.232C517.228 411.573 517.009 412.069 517.009 412.72C517.009 413.328 517.222 413.824 517.649 414.208C518.076 414.581 518.657 414.768 519.393 414.768C520.118 414.768 520.689 414.576 521.105 414.192C521.532 413.808 521.745 413.317 521.745 412.72C521.745 412.08 521.526 411.584 521.089 411.232C520.662 410.88 520.097 410.704 519.393 410.704ZM525.228 413.568V412.192L530.604 404.48H532.812V411.984H534.3V413.568H532.812V416H531.02V413.568H525.228ZM531.1 406.336L527.324 411.984H531.1V406.336Z" fill="black"/>
<circle cx="297.534" cy="730.534" r="42.5342" transform="rotate(-90 297.534 730.534)" fill="#F87227"/>
<path d="M277.669 785.826L277.231 787.873H278.793V789.057H276.983L276.509 791.247H275.219L275.692 789.057H273.373L272.899 791.247H271.609L272.083 789.057H270.248V787.873H272.331L272.769 785.826H270.946V784.642H273.018L273.479 782.488H274.769L274.308 784.642H276.627L277.089 782.488H278.379L277.918 784.642H279.492V785.826H277.669ZM276.379 785.826H274.059L273.621 787.873H275.941L276.379 785.826ZM285.931 783.021V784.122H282.44V786.548H285.162V787.649H282.44V791.247H281.09V783.021H285.931ZM288.46 786.737C287.639 786.327 287.229 785.68 287.229 784.796C287.229 784.37 287.335 783.98 287.548 783.624C287.761 783.269 288.081 782.989 288.507 782.784C288.933 782.571 289.454 782.465 290.069 782.465C290.677 782.465 291.194 782.571 291.62 782.784C292.054 782.989 292.377 783.269 292.59 783.624C292.803 783.98 292.91 784.37 292.91 784.796C292.91 785.238 292.796 785.629 292.567 785.968C292.346 786.299 292.05 786.556 291.679 786.737C292.129 786.903 292.484 787.175 292.744 787.554C293.005 787.925 293.135 788.363 293.135 788.868C293.135 789.38 293.005 789.834 292.744 790.229C292.484 790.623 292.121 790.927 291.655 791.14C291.19 791.353 290.661 791.46 290.069 791.46C289.478 791.46 288.949 791.353 288.483 791.14C288.026 790.927 287.667 790.623 287.406 790.229C287.146 789.834 287.016 789.38 287.016 788.868C287.016 788.355 287.146 787.913 287.406 787.542C287.667 787.171 288.018 786.903 288.46 786.737ZM291.62 784.962C291.62 784.52 291.482 784.181 291.206 783.944C290.929 783.707 290.551 783.589 290.069 783.589C289.596 783.589 289.221 783.707 288.945 783.944C288.669 784.181 288.531 784.524 288.531 784.974C288.531 785.368 288.673 785.692 288.957 785.944C289.249 786.189 289.62 786.311 290.069 786.311C290.519 786.311 290.89 786.185 291.182 785.932C291.474 785.68 291.62 785.356 291.62 784.962ZM290.069 787.329C289.549 787.329 289.123 787.459 288.791 787.72C288.468 787.972 288.306 788.339 288.306 788.82C288.306 789.27 288.464 789.637 288.779 789.921C289.095 790.197 289.525 790.335 290.069 790.335C290.606 790.335 291.028 790.193 291.336 789.909C291.651 789.625 291.809 789.262 291.809 788.82C291.809 788.347 291.647 787.98 291.324 787.72C291.008 787.459 290.59 787.329 290.069 787.329ZM300.02 783.66L296.729 791.247H295.368L298.694 783.802H294.315V782.654H300.02V783.66ZM301.92 789.412C302.677 788.757 303.273 788.221 303.707 787.802C304.149 787.376 304.516 786.934 304.808 786.477C305.1 786.019 305.246 785.562 305.246 785.104C305.246 784.63 305.131 784.26 304.903 783.991C304.682 783.723 304.331 783.589 303.849 783.589C303.384 783.589 303.021 783.739 302.76 784.039C302.508 784.331 302.374 784.725 302.358 785.222H301.056C301.08 784.323 301.348 783.636 301.861 783.163C302.382 782.682 303.04 782.441 303.837 782.441C304.697 782.441 305.368 782.678 305.849 783.151C306.339 783.624 306.583 784.256 306.583 785.045C306.583 785.613 306.437 786.161 306.145 786.69C305.861 787.211 305.518 787.68 305.116 788.098C304.721 788.509 304.216 788.986 303.601 789.53L303.068 790.004H306.82V791.128H301.068V790.146L301.92 789.412ZM308.751 789.412C309.508 788.757 310.104 788.221 310.538 787.802C310.98 787.376 311.347 786.934 311.639 786.477C311.931 786.019 312.077 785.562 312.077 785.104C312.077 784.63 311.962 784.26 311.733 783.991C311.513 783.723 311.161 783.589 310.68 783.589C310.215 783.589 309.852 783.739 309.591 784.039C309.339 784.331 309.205 784.725 309.189 785.222H307.887C307.911 784.323 308.179 783.636 308.692 783.163C309.213 782.682 309.871 782.441 310.668 782.441C311.528 782.441 312.199 782.678 312.68 783.151C313.17 783.624 313.414 784.256 313.414 785.045C313.414 785.613 313.268 786.161 312.976 786.69C312.692 787.211 312.349 787.68 311.947 788.098C311.552 788.509 311.047 788.986 310.432 789.53L309.899 790.004H313.651V791.128H307.899V790.146L308.751 789.412ZM320.304 783.66L317.014 791.247H315.653L318.979 783.802H314.599V782.654H320.304V783.66Z" fill="black"/>
<circle cx="235.986" cy="533.986" r="51.9863" transform="rotate(-90 235.986 533.986)" fill="#41DF3D"/>
<circle cx="358.041" cy="533.986" r="51.9863" transform="rotate(-90 358.041 533.986)" fill="#F83427"/>
<path d="M214.617 601.676L214.082 604.179H215.991V605.625H213.778L213.199 608.301H211.622L212.201 605.625H209.366L208.787 608.301H207.21L207.789 605.625H205.547V604.179H208.093L208.628 601.676H206.4V600.23H208.932L209.496 597.597H211.073L210.508 600.23H213.344L213.908 597.597H215.485L214.921 600.23H216.844V601.676H214.617ZM213.04 601.676H210.205L209.669 604.179H212.505L213.04 601.676ZM218.379 606.103V604.859L223.239 597.886H225.236V604.67H226.581V606.103H225.236V608.301H223.615V606.103H218.379ZM223.688 599.564L220.274 604.67H223.688V599.564ZM227.73 599.26V597.756H230.739V608.301H229.076V599.26H227.73ZM236.505 598.248C237.576 598.248 238.511 598.455 239.312 598.87C240.122 599.275 240.744 599.863 241.178 600.635C241.622 601.396 241.843 602.288 241.843 603.311C241.843 604.333 241.622 605.22 241.178 605.972C240.744 606.725 240.122 607.303 239.312 607.708C238.511 608.104 237.576 608.301 236.505 608.301H233.222V598.248H236.505ZM236.505 606.956C237.682 606.956 238.584 606.638 239.211 606.001C239.837 605.365 240.151 604.468 240.151 603.311C240.151 602.144 239.837 601.232 239.211 600.577C238.584 599.921 237.682 599.593 236.505 599.593H234.871V606.956H236.505ZM249.394 598.248V599.593H245.127V602.558H248.454V603.904H245.127V608.301H243.478V598.248H249.394ZM250.677 600.36C250.734 599.463 251.077 598.764 251.704 598.262C252.34 597.761 253.15 597.51 254.134 597.51C254.809 597.51 255.392 597.63 255.884 597.872C256.376 598.113 256.747 598.441 256.998 598.855C257.249 599.27 257.374 599.738 257.374 600.258C257.374 600.856 257.215 601.367 256.897 601.792C256.579 602.216 256.198 602.501 255.754 602.645V602.703C256.323 602.877 256.767 603.195 257.085 603.658C257.403 604.111 257.562 604.695 257.562 605.408C257.562 605.977 257.432 606.484 257.172 606.927C256.911 607.371 256.526 607.723 256.014 607.983C255.503 608.234 254.891 608.359 254.177 608.359C253.136 608.359 252.277 608.094 251.602 607.564C250.937 607.024 250.58 606.252 250.532 605.249H252.123C252.162 605.76 252.359 606.18 252.716 606.508C253.073 606.826 253.555 606.985 254.163 606.985C254.751 606.985 255.204 606.826 255.523 606.508C255.841 606.18 256 605.76 256 605.249C256 604.574 255.783 604.097 255.349 603.817C254.925 603.528 254.269 603.383 253.382 603.383H253.006V602.023H253.396C254.177 602.014 254.77 601.883 255.175 601.633C255.59 601.382 255.797 600.987 255.797 600.446C255.797 599.984 255.648 599.617 255.349 599.347C255.05 599.067 254.626 598.928 254.076 598.928C253.536 598.928 253.116 599.067 252.818 599.347C252.519 599.617 252.34 599.955 252.282 600.36H250.677ZM262.795 598.248C263.866 598.248 264.801 598.455 265.602 598.87C266.412 599.275 267.034 599.863 267.468 600.635C267.911 601.396 268.133 602.288 268.133 603.311C268.133 604.333 267.911 605.22 267.468 605.972C267.034 606.725 266.412 607.303 265.602 607.708C264.801 608.104 263.866 608.301 262.795 608.301H259.512V598.248H262.795ZM262.795 606.956C263.972 606.956 264.874 606.638 265.5 606.001C266.127 605.365 266.441 604.468 266.441 603.311C266.441 602.144 266.127 601.232 265.5 600.577C264.874 599.921 263.972 599.593 262.795 599.593H261.161V606.956H262.795Z" fill="black"/>
<path d="M335.718 601.676L335.183 604.179H337.092V605.625H334.879L334.3 608.301H332.724L333.302 605.625H330.467L329.888 608.301H328.311L328.89 605.625H326.648V604.179H329.194L329.729 601.676H327.501V600.23H330.033L330.597 597.597H332.174L331.61 600.23H334.445L335.009 597.597H336.586L336.022 600.23H337.946V601.676H335.718ZM334.141 601.676H331.306L330.771 604.179H333.606L334.141 601.676ZM345.816 598.248V599.593H341.549V602.558H344.876V603.904H341.549V608.301H339.9V598.248H345.816ZM348.907 602.79C347.904 602.288 347.402 601.498 347.402 600.418C347.402 599.897 347.532 599.419 347.793 598.985C348.053 598.551 348.444 598.209 348.964 597.958C349.485 597.698 350.122 597.568 350.874 597.568C351.617 597.568 352.248 597.698 352.769 597.958C353.299 598.209 353.695 598.551 353.955 598.985C354.216 599.419 354.346 599.897 354.346 600.418C354.346 600.958 354.206 601.435 353.926 601.85C353.656 602.255 353.295 602.568 352.841 602.79C353.391 602.992 353.825 603.325 354.143 603.788C354.461 604.241 354.621 604.777 354.621 605.394C354.621 606.021 354.461 606.575 354.143 607.057C353.825 607.54 353.381 607.911 352.812 608.171C352.243 608.432 351.597 608.562 350.874 608.562C350.151 608.562 349.505 608.432 348.936 608.171C348.376 607.911 347.937 607.54 347.619 607.057C347.301 606.575 347.142 606.021 347.142 605.394C347.142 604.767 347.301 604.227 347.619 603.774C347.937 603.32 348.367 602.992 348.907 602.79ZM352.769 600.62C352.769 600.08 352.6 599.665 352.263 599.376C351.925 599.087 351.462 598.942 350.874 598.942C350.295 598.942 349.837 599.087 349.5 599.376C349.162 599.665 348.993 600.085 348.993 600.635C348.993 601.117 349.167 601.512 349.514 601.821C349.871 602.12 350.324 602.269 350.874 602.269C351.424 602.269 351.877 602.115 352.234 601.806C352.591 601.498 352.769 601.102 352.769 600.62ZM350.874 603.513C350.237 603.513 349.717 603.672 349.312 603.991C348.916 604.299 348.719 604.748 348.719 605.336C348.719 605.886 348.911 606.334 349.297 606.681C349.683 607.019 350.209 607.188 350.874 607.188C351.53 607.188 352.046 607.014 352.422 606.667C352.808 606.32 353 605.876 353 605.336C353 604.757 352.803 604.309 352.407 603.991C352.022 603.672 351.51 603.513 350.874 603.513ZM356.323 600.36C356.381 599.463 356.723 598.764 357.35 598.262C357.987 597.761 358.797 597.51 359.78 597.51C360.456 597.51 361.039 597.63 361.531 597.872C362.023 598.113 362.394 598.441 362.645 598.855C362.895 599.27 363.021 599.738 363.021 600.258C363.021 600.856 362.862 601.367 362.543 601.792C362.225 602.216 361.844 602.501 361.401 602.645V602.703C361.97 602.877 362.413 603.195 362.731 603.658C363.05 604.111 363.209 604.695 363.209 605.408C363.209 605.977 363.079 606.484 362.818 606.927C362.558 607.371 362.172 607.723 361.661 607.983C361.15 608.234 360.538 608.359 359.824 608.359C358.782 608.359 357.924 608.094 357.249 607.564C356.584 607.024 356.227 606.252 356.179 605.249H357.77C357.808 605.76 358.006 606.18 358.363 606.508C358.72 606.826 359.202 606.985 359.809 606.985C360.398 606.985 360.851 606.826 361.169 606.508C361.487 606.18 361.647 605.76 361.647 605.249C361.647 604.574 361.43 604.097 360.996 603.817C360.571 603.528 359.915 603.383 359.028 603.383H358.652V602.023H359.043C359.824 602.014 360.417 601.883 360.822 601.633C361.237 601.382 361.444 600.987 361.444 600.446C361.444 599.984 361.295 599.617 360.996 599.347C360.697 599.067 360.272 598.928 359.723 598.928C359.183 598.928 358.763 599.067 358.464 599.347C358.165 599.617 357.987 599.955 357.929 600.36H356.323ZM364.739 606.103V604.859L369.599 597.886H371.595V604.67H372.941V606.103H371.595V608.301H369.975V606.103H364.739ZM370.048 599.564L366.634 604.67H370.048V599.564ZM375.218 606.059C376.144 605.259 376.872 604.603 377.403 604.092C377.943 603.571 378.391 603.031 378.748 602.472C379.105 601.912 379.283 601.353 379.283 600.794C379.283 600.215 379.144 599.762 378.864 599.434C378.594 599.106 378.165 598.942 377.576 598.942C377.007 598.942 376.564 599.125 376.246 599.492C375.937 599.849 375.773 600.331 375.754 600.938H374.162C374.191 599.839 374.519 599 375.146 598.421C375.783 597.833 376.588 597.539 377.562 597.539C378.613 597.539 379.433 597.828 380.021 598.407C380.619 598.985 380.918 599.757 380.918 600.721C380.918 601.416 380.74 602.086 380.383 602.732C380.036 603.369 379.616 603.942 379.124 604.454C378.642 604.955 378.025 605.538 377.273 606.204L376.622 606.782H381.207V608.157H374.177V606.956L375.218 606.059ZM389.339 599.029L385.318 608.301H383.654L387.719 599.202H382.367V597.799H389.339V599.029Z" fill="black"/>
<defs>
<clipPath id="clip0_3_23">
<rect width="139" height="139" fill="white" transform="translate(228)"/>
</clipPath>
</defs>
</svg>
