<svg width="595" height="842" viewBox="0 0 595 842" fill="none" xmlns="http://www.w3.org/2000/svg">
<rect width="595" height="842" fill="white"/>
<g clip-path="url(#clip0_3_901)">
<path d="M246.741 67.9434C245.245 67.9434 243.75 67.6992 242.194 67.2415C240.637 66.7837 239.325 66.1734 238.257 65.4105L241.919 60.1921C241.889 60.1921 242.041 60.3142 242.377 60.5583C242.682 60.8025 243.14 61.0771 243.72 61.3823C244.299 61.6875 244.94 61.9621 245.673 62.2062C246.405 62.4504 247.168 62.5724 247.961 62.5724C248.419 62.5724 248.785 62.5114 248.999 62.3893C249.213 62.2978 249.365 62.1452 249.457 61.9621C249.518 61.8095 249.548 61.6264 249.548 61.4433C249.548 61.0771 249.365 60.772 248.968 60.5278C248.572 60.3142 248.083 60.1006 247.504 59.887C246.893 59.7039 246.252 59.4903 245.581 59.2156C244.696 58.8494 243.933 58.4527 243.353 57.995C242.774 57.5677 242.316 57.0489 242.041 56.4691C241.736 55.8893 241.583 55.1874 241.583 54.4245C241.583 53.0513 241.858 51.8306 242.407 50.7625C242.926 49.725 243.659 48.8095 244.574 48.0771C245.49 47.3447 246.497 46.7954 247.626 46.3986C248.755 46.0019 249.884 45.8188 251.044 45.8188C252.051 45.8188 253.027 45.9409 253.912 46.185C254.797 46.4597 255.621 46.7648 256.384 47.131C257.147 47.4972 257.788 47.8329 258.337 48.1686L254.736 53.0818C254.767 53.0818 254.644 52.9902 254.37 52.7766C254.095 52.563 253.698 52.3494 253.21 52.0747C252.722 51.8306 252.173 51.617 251.562 51.4034C250.952 51.1897 250.342 51.0982 249.731 51.0982C249.457 51.0982 249.182 51.1287 248.938 51.2203C248.663 51.3118 248.48 51.4644 248.328 51.6475C248.175 51.8306 248.114 52.0747 248.114 52.3799C248.114 52.6851 248.267 52.9292 248.541 53.1428C248.816 53.3564 249.182 53.5395 249.67 53.6921C250.159 53.8752 250.708 54.0888 251.349 54.333C252.325 54.6992 253.18 55.0959 253.943 55.5231C254.675 55.9809 255.255 56.5302 255.652 57.171C256.048 57.8119 256.262 58.6663 256.262 59.6734C256.262 61.2297 255.987 62.5114 255.407 63.5795C254.828 64.6476 254.095 65.4715 253.149 66.1124C252.203 66.7837 251.196 67.2415 250.067 67.5161C248.938 67.7908 247.839 67.9434 246.741 67.9434Z" fill="#232323" stroke="#232323" stroke-width="1.22066" stroke-miterlimit="2" stroke-linejoin="round"/>
<path d="M266.518 67.8518C265.176 67.8518 263.986 67.6077 262.948 67.0889C261.88 66.6007 260.995 65.9293 260.293 65.0748C259.591 64.2204 259.042 63.2438 258.676 62.1452C258.309 61.0771 258.126 59.948 258.126 58.7579C258.126 57.4457 258.37 56.164 258.828 54.9128C259.286 53.6616 259.927 52.4715 260.751 51.3729C261.544 50.3048 262.521 49.3588 263.65 48.5043C264.748 47.6804 265.939 47.0395 267.251 46.5818C268.563 46.124 269.906 45.8799 271.31 45.8799C272.652 45.8799 273.842 46.124 274.88 46.6123C275.918 47.1311 276.803 47.8024 277.504 48.6569C278.206 49.5114 278.756 50.4879 279.122 51.556C279.457 52.6546 279.641 53.7837 279.641 54.9738C279.641 56.286 279.396 57.5677 278.969 58.7884C278.511 60.0701 277.871 61.2297 277.047 62.2978C276.223 63.3964 275.277 64.3729 274.178 65.1969C273.079 66.0208 271.889 66.6922 270.577 67.15C269.265 67.6077 267.922 67.8518 266.518 67.8518ZM267.678 62.5725C268.655 62.5725 269.509 62.3588 270.241 61.9011C270.974 61.4433 271.584 60.8635 272.103 60.1311C272.591 59.4292 272.957 58.6358 273.202 57.8119C273.446 56.9879 273.568 56.164 273.568 55.3705C273.568 54.6076 273.446 53.9057 273.232 53.2649C272.988 52.624 272.622 52.1358 272.103 51.7391C271.584 51.3423 270.913 51.1592 270.089 51.1592C269.143 51.1592 268.288 51.3729 267.556 51.8001C266.824 52.2578 266.213 52.8377 265.725 53.5395C265.237 54.2414 264.871 55.0349 264.626 55.8588C264.352 56.6828 264.23 57.5067 264.23 58.3001C264.23 59.063 264.352 59.7649 264.596 60.4058C264.809 61.0466 265.176 61.5654 265.694 61.9621C266.213 62.3894 266.854 62.5725 267.678 62.5725Z" fill="#232323" stroke="#232323" stroke-width="1.22066" stroke-miterlimit="2" stroke-linejoin="round"/>
<path d="M288.913 67.8518C287.6 67.8518 286.441 67.6077 285.434 67.0889C284.396 66.5701 283.511 65.8988 282.809 64.9833C282.107 64.0983 281.558 63.1218 281.192 61.9926C280.826 60.894 280.643 59.7649 280.643 58.5748C280.643 57.3846 280.856 56.164 281.283 54.9433C281.711 53.7532 282.321 52.5935 283.114 51.4949C283.877 50.4269 284.823 49.4503 285.891 48.5959C286.96 47.7719 288.18 47.1005 289.523 46.6123C290.835 46.124 292.269 45.8799 293.765 45.8799C295.748 45.8799 297.396 46.3071 298.708 47.1616C300.021 48.0466 300.875 49.1757 301.272 50.6099L296.053 53.8447C295.962 53.1428 295.718 52.5935 295.352 52.1968C294.955 51.8001 294.528 51.5254 294.039 51.3729C293.521 51.2203 293.032 51.1592 292.514 51.1592C291.568 51.1592 290.744 51.3729 290.042 51.8001C289.309 52.2578 288.699 52.8377 288.211 53.5395C287.722 54.2414 287.356 55.0043 287.112 55.8283C286.837 56.6522 286.715 57.4152 286.715 58.1781C286.715 58.9715 286.837 59.7039 287.112 60.3447C287.356 61.0161 287.722 61.5654 288.241 61.9621C288.76 62.3588 289.401 62.5725 290.164 62.5725C290.652 62.5725 291.171 62.4809 291.751 62.2978C292.3 62.1452 292.819 61.8706 293.337 61.4739C293.856 61.0771 294.284 60.5584 294.619 59.9175L298.861 62.8166C298.22 63.8847 297.366 64.7697 296.267 65.5326C295.138 66.2955 293.948 66.8448 292.636 67.2415C291.323 67.6687 290.103 67.8518 288.913 67.8518Z" fill="#232323" stroke="#232323" stroke-width="1.22066" stroke-miterlimit="2" stroke-linejoin="round"/>
<path d="M304.568 46.002H310.519L305.911 67.6688H299.96L304.568 46.002Z" fill="#232323" stroke="#232323" stroke-width="1.22066" stroke-miterlimit="2" stroke-linejoin="round"/>
<path d="M319.494 46.002H324.957L327.367 67.6688H321.325L321.112 63.427H315.924L313.94 67.6688H307.867L319.494 46.002ZM321.02 59.4598L320.776 52.7461L317.633 59.4598H321.02Z" fill="#232323" stroke="#232323" stroke-width="1.22066" stroke-miterlimit="2" stroke-linejoin="round"/>
<path d="M333.651 46.002H339.602L336.092 62.4809H345.217L344.118 67.6688H329.043L333.651 46.002Z" fill="#232323" stroke="#232323" stroke-width="1.22066" stroke-miterlimit="2" stroke-linejoin="round"/>
<path d="M257.135 71.3199H266.046C267.205 71.3199 268.213 71.625 269.036 72.2049C269.86 72.8152 270.501 73.6086 270.959 74.5546C271.386 75.5006 271.6 76.5077 271.6 77.5758C271.6 78.6439 271.386 79.6814 270.928 80.719C270.471 81.7565 269.86 82.7026 269.067 83.5265C268.274 84.381 267.358 85.0523 266.32 85.5711C265.283 86.0899 264.184 86.334 262.994 86.334H259.881L258.478 92.9867H252.527L257.135 71.3199ZM263.696 81.1462C263.879 81.1462 264.062 81.0852 264.276 80.9631C264.489 80.8411 264.673 80.658 264.886 80.3833C265.069 80.1392 265.222 79.834 265.344 79.4373C265.435 79.0406 265.497 78.5828 265.497 78.064C265.497 77.6673 265.435 77.3316 265.344 77.118C265.252 76.9044 265.13 76.7213 264.978 76.6298C264.825 76.5382 264.673 76.5077 264.52 76.5077H261.987L261.011 81.1462H263.696Z" fill="#232323" stroke="#232323" stroke-width="1.22066" stroke-miterlimit="2" stroke-linejoin="round"/>
<path d="M275.503 71.3199H281.453L277.944 87.7988H287.068L285.97 92.9867H270.895L275.503 71.3199Z" fill="#232323" stroke="#232323" stroke-width="1.22066" stroke-miterlimit="2" stroke-linejoin="round"/>
<path d="M296.5 93.1698C294.73 93.1698 293.295 92.8341 292.227 92.1932C291.129 91.5524 290.335 90.6369 289.847 89.5078C289.328 88.3786 289.084 87.1275 289.084 85.7237C289.084 85.2049 289.115 84.6556 289.176 84.1063C289.237 83.5875 289.328 83.0382 289.45 82.4584L291.831 71.3199H297.781L295.401 82.4584C295.309 82.8551 295.248 83.2213 295.218 83.557C295.187 83.9232 295.157 84.2894 295.157 84.6251C295.157 85.266 295.248 85.8153 295.401 86.3035C295.554 86.7918 295.828 87.1885 296.194 87.4632C296.561 87.7378 297.049 87.8904 297.629 87.8904C298.239 87.8904 298.788 87.7378 299.277 87.4326C299.765 87.158 300.192 86.7308 300.589 86.212C300.986 85.6932 301.291 85.1134 301.565 84.4725C301.84 83.8317 302.023 83.1603 302.176 82.4584L304.556 71.3199H310.507L308.126 82.4584C307.791 83.9537 307.303 85.3575 306.662 86.6697C306.021 87.9819 305.197 89.111 304.22 90.0876C303.244 91.0641 302.115 91.827 300.833 92.3458C299.521 92.8951 298.087 93.1698 296.5 93.1698Z" fill="#232323" stroke="#232323" stroke-width="1.22066" stroke-miterlimit="2" stroke-linejoin="round"/>
<path d="M318.23 93.1392C317.101 93.1392 316.033 92.9256 315.087 92.5289C314.11 92.1322 313.256 91.5829 312.554 90.82C311.821 90.0571 311.241 89.1416 310.845 88.043C310.448 86.9749 310.234 85.7542 310.234 84.381C310.234 82.5195 310.601 80.8105 311.333 79.1931C312.065 77.5758 313.072 76.172 314.324 74.9819C315.575 73.7917 317.009 72.8457 318.596 72.1743C320.152 71.503 321.8 71.1673 323.509 71.1673C325.371 71.1673 326.957 71.5945 328.3 72.4185C329.643 73.2729 330.528 74.4326 330.955 75.8974L325.828 79.2847C325.615 78.4302 325.188 77.7284 324.516 77.2096C323.814 76.6908 323.051 76.4467 322.166 76.4467C321.403 76.4467 320.702 76.6298 320 76.996C319.298 77.3622 318.657 77.8809 318.138 78.5218C317.589 79.1931 317.162 79.9561 316.856 80.8105C316.521 81.6955 316.368 82.611 316.368 83.6181C316.368 84.442 316.521 85.1744 316.795 85.8153C317.07 86.4561 317.467 86.9749 317.986 87.3106C318.504 87.6768 319.145 87.8599 319.878 87.8599C320.763 87.8599 321.678 87.6157 322.594 87.1275C323.479 86.6697 324.364 85.9984 325.188 85.1134L323.936 90.9115C322.99 91.6744 322.075 92.2237 321.159 92.5899C320.213 92.9561 319.237 93.1392 318.23 93.1392ZM324.76 85.7237H321.037L321.922 81.4514H330.589L328.117 92.9867H323.234L324.76 85.7237Z" fill="#232323" stroke="#232323" stroke-width="1.22066" stroke-miterlimit="2" stroke-linejoin="round"/>
<path fill-rule="evenodd" clip-rule="evenodd" d="M342.652 89.0111L339.309 85.8329C339.309 85.8329 339.194 85.9536 339.031 86.1254C338.738 86.433 338.58 86.844 338.59 87.2672C338.601 87.6916 338.78 88.0944 339.087 88.3865C339.419 88.7016 339.78 89.0454 340.113 89.3616C340.42 89.6536 340.832 89.812 341.256 89.8015C341.679 89.7899 342.082 89.6111 342.374 89.3035C342.538 89.1318 342.652 89.0111 342.652 89.0111Z" stroke="#232323" stroke-width="0.592227" stroke-miterlimit="1.5" stroke-linecap="round" stroke-linejoin="round"/>
<path d="M347.49 73.635C346.177 72.3745 344.312 71.869 342.542 72.2937C340.772 72.7183 339.34 74.0148 338.741 75.7339C338.168 77.3819 337.603 79.004 337.16 80.2784C336.623 81.82 337.034 83.5331 338.212 84.6635C339.859 86.2448 342.215 88.5063 343.863 90.0876C345.04 91.218 346.769 91.5585 348.287 90.9593C349.542 90.4639 351.14 89.8334 352.763 89.1929C354.456 88.5247 355.693 87.0405 356.045 85.2546C356.397 83.4686 355.815 81.6264 354.502 80.3659" stroke="#232323" stroke-width="0.742701" stroke-miterlimit="1.5" stroke-linecap="round" stroke-linejoin="round"/>
<path d="M354.496 80.366L354.181 80.0636" stroke="#232323" stroke-width="0.742701" stroke-miterlimit="1.5" stroke-linecap="round" stroke-linejoin="round"/>
<path d="M351.508 77.493L350.227 76.2635" stroke="#232323" stroke-width="0.742701" stroke-miterlimit="1.5" stroke-linecap="round" stroke-linejoin="round"/>
<path d="M346.765 74.8754L346.395 74.508C345.845 73.9624 345.101 73.6575 344.327 73.6603C343.552 73.6632 342.811 73.9735 342.265 74.5231C341.72 75.0727 341.415 75.8165 341.418 76.5909C341.42 77.3653 341.731 78.1069 342.28 78.6525C344.167 80.5254 346.938 83.2765 348.825 85.1496C349.374 85.6951 350.118 86 350.893 85.9972C351.667 85.9944 352.409 85.684 352.954 85.1344C353.5 84.5848 353.805 83.8411 353.802 83.0667C353.799 82.2922 353.489 81.5506 352.939 81.0051" stroke="#232323" stroke-width="0.367719" stroke-miterlimit="1.5" stroke-linecap="round" stroke-linejoin="round"/>
<path d="M350.663 78.7448L348.963 77.0576" stroke="#232323" stroke-width="0.367719" stroke-miterlimit="1.5" stroke-linecap="round" stroke-linejoin="round"/>
<path fill-rule="evenodd" clip-rule="evenodd" d="M351.839 74.2994C352.135 74.0201 352.307 73.635 352.318 73.2287C352.33 72.8224 352.179 72.4282 351.9 72.1329C351.621 71.8376 351.235 71.6652 350.829 71.6539C350.423 71.6425 350.029 71.793 349.733 72.0723C348.415 73.3189 346.232 75.3827 344.914 76.6294C344.619 76.9086 344.446 77.2938 344.435 77.7001C344.424 78.1064 344.574 78.5005 344.854 78.7959C345.133 79.0912 345.518 79.2635 345.924 79.2749C346.331 79.2863 346.725 79.1358 347.02 78.8565C348.338 77.6098 350.521 75.546 351.839 74.2994Z" stroke="#232323" stroke-width="0.334235" stroke-miterlimit="1.5" stroke-linecap="round" stroke-linejoin="round"/>
<path fill-rule="evenodd" clip-rule="evenodd" d="M355.615 78.2996C355.91 78.0203 356.082 77.6351 356.093 77.2288C356.105 76.8226 355.954 76.4284 355.675 76.133C355.396 75.8377 355.011 75.6654 354.604 75.6541C354.198 75.6427 353.804 75.7932 353.509 76.0724C352.19 77.3191 350.008 79.3829 348.689 80.6295C348.394 80.9088 348.222 81.2939 348.21 81.7003C348.199 82.1065 348.35 82.5007 348.629 82.796C348.908 83.0914 349.293 83.2637 349.699 83.275C350.106 83.2864 350.5 83.1359 350.795 82.8566C352.114 81.61 354.296 79.5462 355.615 78.2996Z" stroke="#232323" stroke-width="0.371361" stroke-miterlimit="1.5" stroke-linecap="round" stroke-linejoin="round"/>
<path d="M339.383 88.9616C337.687 91.3106 333.325 93.4705 327.321 93.0396" stroke="#232323" stroke-width="0.926528" stroke-miterlimit="1.5" stroke-linecap="round" stroke-linejoin="round"/>
</g>
<path d="M233.028 143.288C231.7 143.288 230.412 143.112 229.164 142.76C227.932 142.392 226.94 141.92 226.188 141.344L227.508 138.416C228.228 138.944 229.084 139.368 230.076 139.688C231.068 140.008 232.06 140.168 233.052 140.168C234.156 140.168 234.972 140.008 235.5 139.688C236.028 139.352 236.292 138.912 236.292 138.368C236.292 137.968 236.132 137.64 235.812 137.384C235.508 137.112 235.108 136.896 234.612 136.736C234.132 136.576 233.476 136.4 232.644 136.208C231.364 135.904 230.316 135.6 229.5 135.296C228.684 134.992 227.98 134.504 227.388 133.832C226.812 133.16 226.524 132.264 226.524 131.144C226.524 130.168 226.788 129.288 227.316 128.504C227.844 127.704 228.636 127.072 229.692 126.608C230.764 126.144 232.068 125.912 233.604 125.912C234.676 125.912 235.724 126.04 236.748 126.296C237.772 126.552 238.668 126.92 239.436 127.4L238.236 130.352C236.684 129.472 235.132 129.032 233.58 129.032C232.492 129.032 231.684 129.208 231.156 129.56C230.644 129.912 230.388 130.376 230.388 130.952C230.388 131.528 230.684 131.96 231.276 132.248C231.884 132.52 232.804 132.792 234.036 133.064C235.316 133.368 236.364 133.672 237.18 133.976C237.996 134.28 238.692 134.76 239.268 135.416C239.86 136.072 240.156 136.96 240.156 138.08C240.156 139.04 239.884 139.92 239.34 140.72C238.812 141.504 238.012 142.128 236.94 142.592C235.868 143.056 234.564 143.288 233.028 143.288ZM250.876 142.376C250.508 142.648 250.052 142.856 249.508 143C248.98 143.128 248.42 143.192 247.828 143.192C246.292 143.192 245.1 142.8 244.252 142.016C243.42 141.232 243.004 140.08 243.004 138.56V133.256H241.012V130.376H243.004V127.232H246.748V130.376H249.964V133.256H246.748V138.512C246.748 139.056 246.884 139.48 247.156 139.784C247.444 140.072 247.844 140.216 248.356 140.216C248.948 140.216 249.452 140.056 249.868 139.736L250.876 142.376ZM265.56 130.088L259.728 143.792C259.136 145.28 258.4 146.328 257.52 146.936C256.656 147.544 255.608 147.848 254.376 147.848C253.704 147.848 253.04 147.744 252.384 147.536C251.728 147.328 251.192 147.04 250.776 146.672L252.144 144.008C252.432 144.264 252.76 144.464 253.128 144.608C253.512 144.752 253.888 144.824 254.256 144.824C254.768 144.824 255.184 144.696 255.504 144.44C255.824 144.2 256.112 143.792 256.368 143.216L256.416 143.096L250.824 130.088H254.688L258.312 138.848L261.96 130.088H265.56ZM267.087 125.192H270.831V143H267.087V125.192ZM286.954 136.592C286.954 136.64 286.93 136.976 286.882 137.6H277.114C277.29 138.4 277.706 139.032 278.362 139.496C279.018 139.96 279.834 140.192 280.81 140.192C281.482 140.192 282.074 140.096 282.586 139.904C283.114 139.696 283.602 139.376 284.05 138.944L286.042 141.104C284.826 142.496 283.05 143.192 280.714 143.192C279.258 143.192 277.97 142.912 276.85 142.352C275.73 141.776 274.866 140.984 274.258 139.976C273.65 138.968 273.346 137.824 273.346 136.544C273.346 135.28 273.642 134.144 274.234 133.136C274.842 132.112 275.666 131.32 276.706 130.76C277.762 130.184 278.938 129.896 280.234 129.896C281.498 129.896 282.642 130.168 283.666 130.712C284.69 131.256 285.49 132.04 286.066 133.064C286.658 134.072 286.954 135.248 286.954 136.592ZM280.258 132.728C279.41 132.728 278.698 132.968 278.122 133.448C277.546 133.928 277.194 134.584 277.066 135.416H283.426C283.298 134.6 282.946 133.952 282.37 133.472C281.794 132.976 281.09 132.728 280.258 132.728ZM307.86 134.336H311.412V141.152C310.5 141.84 309.444 142.368 308.244 142.736C307.044 143.104 305.836 143.288 304.62 143.288C302.876 143.288 301.308 142.92 299.916 142.184C298.524 141.432 297.428 140.4 296.628 139.088C295.844 137.76 295.452 136.264 295.452 134.6C295.452 132.936 295.844 131.448 296.628 130.136C297.428 128.808 298.532 127.776 299.94 127.04C301.348 126.288 302.932 125.912 304.692 125.912C306.164 125.912 307.5 126.16 308.7 126.656C309.9 127.152 310.908 127.872 311.724 128.816L309.228 131.12C308.028 129.856 306.58 129.224 304.884 129.224C303.812 129.224 302.86 129.448 302.028 129.896C301.196 130.344 300.548 130.976 300.084 131.792C299.62 132.608 299.388 133.544 299.388 134.6C299.388 135.64 299.62 136.568 300.084 137.384C300.548 138.2 301.188 138.84 302.004 139.304C302.836 139.752 303.78 139.976 304.836 139.976C305.956 139.976 306.964 139.736 307.86 139.256V134.336ZM327.767 130.088V143H324.215V141.464C323.719 142.024 323.127 142.456 322.439 142.76C321.751 143.048 321.007 143.192 320.207 143.192C318.511 143.192 317.167 142.704 316.175 141.728C315.183 140.752 314.687 139.304 314.687 137.384V130.088H318.431V136.832C318.431 138.912 319.303 139.952 321.047 139.952C321.943 139.952 322.663 139.664 323.207 139.088C323.751 138.496 324.023 137.624 324.023 136.472V130.088H327.767ZM331.236 130.088H334.98V143H331.236V130.088ZM333.108 128.288C332.42 128.288 331.86 128.088 331.428 127.688C330.996 127.288 330.78 126.792 330.78 126.2C330.78 125.608 330.996 125.112 331.428 124.712C331.86 124.312 332.42 124.112 333.108 124.112C333.796 124.112 334.356 124.304 334.788 124.688C335.22 125.072 335.436 125.552 335.436 126.128C335.436 126.752 335.22 127.272 334.788 127.688C334.356 128.088 333.796 128.288 333.108 128.288ZM351.607 125.192V143H348.031V141.512C347.103 142.632 345.759 143.192 343.999 143.192C342.783 143.192 341.679 142.92 340.687 142.376C339.711 141.832 338.943 141.056 338.383 140.048C337.823 139.04 337.543 137.872 337.543 136.544C337.543 135.216 337.823 134.048 338.383 133.04C338.943 132.032 339.711 131.256 340.687 130.712C341.679 130.168 342.783 129.896 343.999 129.896C345.647 129.896 346.935 130.416 347.863 131.456V125.192H351.607ZM344.647 140.12C345.591 140.12 346.375 139.8 346.999 139.16C347.623 138.504 347.935 137.632 347.935 136.544C347.935 135.456 347.623 134.592 346.999 133.952C346.375 133.296 345.591 132.968 344.647 132.968C343.687 132.968 342.895 133.296 342.271 133.952C341.647 134.592 341.335 135.456 341.335 136.544C341.335 137.632 341.647 138.504 342.271 139.16C342.895 139.8 343.687 140.12 344.647 140.12ZM367.72 136.592C367.72 136.64 367.696 136.976 367.648 137.6H357.88C358.056 138.4 358.472 139.032 359.128 139.496C359.784 139.96 360.6 140.192 361.576 140.192C362.248 140.192 362.84 140.096 363.352 139.904C363.88 139.696 364.368 139.376 364.816 138.944L366.808 141.104C365.592 142.496 363.816 143.192 361.48 143.192C360.024 143.192 358.736 142.912 357.616 142.352C356.496 141.776 355.632 140.984 355.024 139.976C354.416 138.968 354.112 137.824 354.112 136.544C354.112 135.28 354.408 134.144 355 133.136C355.608 132.112 356.432 131.32 357.472 130.76C358.528 130.184 359.704 129.896 361 129.896C362.264 129.896 363.408 130.168 364.432 130.712C365.456 131.256 366.256 132.04 366.832 133.064C367.424 134.072 367.72 135.248 367.72 136.592ZM361.024 132.728C360.176 132.728 359.464 132.968 358.888 133.448C358.312 133.928 357.96 134.584 357.832 135.416H364.192C364.064 134.6 363.712 133.952 363.136 133.472C362.56 132.976 361.856 132.728 361.024 132.728Z" fill="#232323"/>
<path d="M242.867 188.4H245.783V201H242.867V188.4ZM248.575 187.644H251.383V201H248.575V187.644ZM253.989 187.644H256.797V201H253.989V187.644ZM269.159 191.316V201H266.495V199.848C266.123 200.268 265.679 200.592 265.163 200.82C264.647 201.036 264.089 201.144 263.489 201.144C262.217 201.144 261.209 200.778 260.465 200.046C259.721 199.314 259.349 198.228 259.349 196.788V191.316H262.157V196.374C262.157 197.934 262.811 198.714 264.119 198.714C264.791 198.714 265.331 198.498 265.739 198.066C266.147 197.622 266.351 196.968 266.351 196.104V191.316H269.159ZM275.019 201.144C274.215 201.144 273.429 201.048 272.661 200.856C271.893 200.652 271.281 200.4 270.825 200.1L271.761 198.084C272.193 198.36 272.715 198.588 273.327 198.768C273.939 198.936 274.539 199.02 275.127 199.02C276.315 199.02 276.909 198.726 276.909 198.138C276.909 197.862 276.747 197.664 276.423 197.544C276.099 197.424 275.601 197.322 274.929 197.238C274.137 197.118 273.483 196.98 272.967 196.824C272.451 196.668 272.001 196.392 271.617 195.996C271.245 195.6 271.059 195.036 271.059 194.304C271.059 193.692 271.233 193.152 271.581 192.684C271.941 192.204 272.457 191.832 273.129 191.568C273.813 191.304 274.617 191.172 275.541 191.172C276.225 191.172 276.903 191.25 277.575 191.406C278.259 191.55 278.823 191.754 279.267 192.018L278.331 194.016C277.479 193.536 276.549 193.296 275.541 193.296C274.941 193.296 274.491 193.38 274.191 193.548C273.891 193.716 273.741 193.932 273.741 194.196C273.741 194.496 273.903 194.706 274.227 194.826C274.551 194.946 275.067 195.06 275.775 195.168C276.567 195.3 277.215 195.444 277.719 195.6C278.223 195.744 278.661 196.014 279.033 196.41C279.405 196.806 279.591 197.358 279.591 198.066C279.591 198.666 279.411 199.2 279.051 199.668C278.691 200.136 278.163 200.502 277.467 200.766C276.783 201.018 275.967 201.144 275.019 201.144ZM287.569 200.532C287.293 200.736 286.951 200.892 286.543 201C286.147 201.096 285.727 201.144 285.283 201.144C284.131 201.144 283.237 200.85 282.601 200.262C281.977 199.674 281.665 198.81 281.665 197.67V193.692H280.171V191.532H281.665V189.174H284.473V191.532H286.885V193.692H284.473V197.634C284.473 198.042 284.575 198.36 284.779 198.588C284.995 198.804 285.295 198.912 285.679 198.912C286.123 198.912 286.501 198.792 286.813 198.552L287.569 200.532ZM291.828 192.594C292.164 192.126 292.614 191.772 293.178 191.532C293.754 191.292 294.414 191.172 295.158 191.172V193.764C294.846 193.74 294.636 193.728 294.528 193.728C293.724 193.728 293.094 193.956 292.638 194.412C292.182 194.856 291.954 195.528 291.954 196.428V201H289.146V191.316H291.828V192.594ZM300.681 191.172C302.181 191.172 303.333 191.532 304.137 192.252C304.941 192.96 305.343 194.034 305.343 195.474V201H302.715V199.794C302.187 200.694 301.203 201.144 299.763 201.144C299.019 201.144 298.371 201.018 297.819 200.766C297.279 200.514 296.865 200.166 296.577 199.722C296.289 199.278 296.145 198.774 296.145 198.21C296.145 197.31 296.481 196.602 297.153 196.086C297.837 195.57 298.887 195.312 300.303 195.312H302.535C302.535 194.7 302.349 194.232 301.977 193.908C301.605 193.572 301.047 193.404 300.303 193.404C299.787 193.404 299.277 193.488 298.773 193.656C298.281 193.812 297.861 194.028 297.513 194.304L296.505 192.342C297.033 191.97 297.663 191.682 298.395 191.478C299.139 191.274 299.901 191.172 300.681 191.172ZM300.465 199.254C300.945 199.254 301.371 199.146 301.743 198.93C302.115 198.702 302.379 198.372 302.535 197.94V196.95H300.609C299.457 196.95 298.881 197.328 298.881 198.084C298.881 198.444 299.019 198.732 299.295 198.948C299.583 199.152 299.973 199.254 300.465 199.254ZM314.13 200.532C313.854 200.736 313.512 200.892 313.104 201C312.708 201.096 312.288 201.144 311.844 201.144C310.692 201.144 309.798 200.85 309.162 200.262C308.538 199.674 308.226 198.81 308.226 197.67V193.692H306.732V191.532H308.226V189.174H311.034V191.532H313.446V193.692H311.034V197.634C311.034 198.042 311.136 198.36 311.34 198.588C311.556 198.804 311.856 198.912 312.24 198.912C312.684 198.912 313.062 198.792 313.374 198.552L314.13 200.532ZM315.706 191.316H318.514V201H315.706V191.316ZM317.11 189.966C316.594 189.966 316.174 189.816 315.85 189.516C315.526 189.216 315.364 188.844 315.364 188.4C315.364 187.956 315.526 187.584 315.85 187.284C316.174 186.984 316.594 186.834 317.11 186.834C317.626 186.834 318.046 186.978 318.37 187.266C318.694 187.554 318.856 187.914 318.856 188.346C318.856 188.814 318.694 189.204 318.37 189.516C318.046 189.816 317.626 189.966 317.11 189.966ZM325.728 201.144C324.708 201.144 323.79 200.934 322.974 200.514C322.17 200.082 321.54 199.488 321.084 198.732C320.628 197.976 320.4 197.118 320.4 196.158C320.4 195.198 320.628 194.34 321.084 193.584C321.54 192.828 322.17 192.24 322.974 191.82C323.79 191.388 324.708 191.172 325.728 191.172C326.748 191.172 327.66 191.388 328.464 191.82C329.268 192.24 329.898 192.828 330.354 193.584C330.81 194.34 331.038 195.198 331.038 196.158C331.038 197.118 330.81 197.976 330.354 198.732C329.898 199.488 329.268 200.082 328.464 200.514C327.66 200.934 326.748 201.144 325.728 201.144ZM325.728 198.84C326.448 198.84 327.036 198.6 327.492 198.12C327.96 197.628 328.194 196.974 328.194 196.158C328.194 195.342 327.96 194.694 327.492 194.214C327.036 193.722 326.448 193.476 325.728 193.476C325.008 193.476 324.414 193.722 323.946 194.214C323.478 194.694 323.244 195.342 323.244 196.158C323.244 196.974 323.478 197.628 323.946 198.12C324.414 198.6 325.008 198.84 325.728 198.84ZM338.801 191.172C340.001 191.172 340.967 191.532 341.699 192.252C342.443 192.972 342.815 194.04 342.815 195.456V201H340.007V195.888C340.007 195.12 339.839 194.55 339.503 194.178C339.167 193.794 338.681 193.602 338.045 193.602C337.337 193.602 336.773 193.824 336.353 194.268C335.933 194.7 335.723 195.348 335.723 196.212V201H332.915V191.316H335.597V192.45C335.969 192.042 336.431 191.73 336.983 191.514C337.535 191.286 338.141 191.172 338.801 191.172ZM348.618 201.144C347.814 201.144 347.028 201.048 346.26 200.856C345.492 200.652 344.88 200.4 344.424 200.1L345.36 198.084C345.792 198.36 346.314 198.588 346.926 198.768C347.538 198.936 348.138 199.02 348.726 199.02C349.914 199.02 350.508 198.726 350.508 198.138C350.508 197.862 350.346 197.664 350.022 197.544C349.698 197.424 349.2 197.322 348.528 197.238C347.736 197.118 347.082 196.98 346.566 196.824C346.05 196.668 345.6 196.392 345.216 195.996C344.844 195.6 344.658 195.036 344.658 194.304C344.658 193.692 344.832 193.152 345.18 192.684C345.54 192.204 346.056 191.832 346.728 191.568C347.412 191.304 348.216 191.172 349.14 191.172C349.824 191.172 350.502 191.25 351.174 191.406C351.858 191.55 352.422 191.754 352.866 192.018L351.93 194.016C351.078 193.536 350.148 193.296 349.14 193.296C348.54 193.296 348.09 193.38 347.79 193.548C347.49 193.716 347.34 193.932 347.34 194.196C347.34 194.496 347.502 194.706 347.826 194.826C348.15 194.946 348.666 195.06 349.374 195.168C350.166 195.3 350.814 195.444 351.318 195.6C351.822 195.744 352.26 196.014 352.632 196.41C353.004 196.806 353.19 197.358 353.19 198.066C353.19 198.666 353.01 199.2 352.65 199.668C352.29 200.136 351.762 200.502 351.066 200.766C350.382 201.018 349.566 201.144 348.618 201.144Z" fill="#232323"/>
<g clip-path="url(#clip1_3_901)">
<path d="M430.871 398.601C429.737 398.013 428.648 397.344 427.61 396.6C425.537 395.114 423.685 393.342 422.11 391.336C421.328 390.341 420.621 389.29 419.992 388.192C419.468 387.264 419.003 386.305 418.599 385.319C418.205 384.356 417.873 383.37 417.607 382.365C417.346 381.383 417.152 380.385 417.026 379.378C416.902 378.391 416.848 377.396 416.863 376.401C416.865 376.345 416.866 376.29 416.867 376.234C416.868 376.179 416.869 376.123 416.871 376.067C416.872 376.011 416.875 375.956 416.877 375.901L416.886 375.736C416.838 375.773 416.791 375.811 416.743 375.849L416.601 375.965L416.46 376.081L416.32 376.197L416.229 376.272L416.139 376.348L416.048 376.424L415.959 376.5L416.082 376.355L416.208 376.206C416.25 376.158 416.292 376.11 416.334 376.062C416.376 376.015 416.418 375.968 416.462 375.921L416.563 375.865L416.665 375.81L416.763 375.755L416.864 375.7L416.87 375.698L416.877 375.695L416.883 375.692L416.889 375.69L416.93 375.667L416.97 375.645L417.009 375.623L417.048 375.6L417.223 375.506L417.398 375.414L417.572 375.322L417.747 375.229L417.61 375.161L417.278 374.996L417.281 374.994C417.309 375.007 417.337 375.02 417.365 375.033C417.393 375.047 417.422 375.06 417.45 375.072C417.479 375.086 417.507 375.099 417.534 375.112C417.562 375.125 417.59 375.139 417.618 375.153L417.65 375.166L417.683 375.18L417.716 375.194C417.727 375.199 417.737 375.204 417.747 375.21L417.744 375.262L417.74 375.312L417.738 375.361L417.735 375.411C417.612 377.086 417.7 378.77 417.995 380.424C418.298 382.126 418.796 383.788 419.479 385.377C420.184 387.021 421.066 388.584 422.108 390.038C423.186 391.542 424.42 392.927 425.791 394.17C427.17 395.404 428.675 396.49 430.281 397.41C431.074 397.865 431.89 398.277 432.727 398.645C433.556 399.009 434.405 399.328 435.269 399.6C435.231 399.656 435.192 399.712 435.153 399.767C435.113 399.823 435.073 399.878 435.032 399.932C434.991 399.987 434.95 400.041 434.908 400.095C434.867 400.149 434.824 400.202 434.782 400.255C434.448 400.145 434.117 400.027 433.787 399.903C433.457 399.779 433.129 399.647 432.803 399.509C432.477 399.371 432.153 399.226 431.831 399.074C431.509 398.923 431.189 398.765 430.871 398.601Z" fill="white"/>
<path d="M408.437 411.122C408.065 410.568 407.715 410.004 407.386 409.429C407.056 408.855 406.748 408.272 406.462 407.681C406.176 407.09 405.912 406.492 405.669 405.887C405.426 405.281 405.207 404.67 405.01 404.054C404.909 403.727 404.817 403.399 404.732 403.07C404.647 402.741 404.57 402.411 404.501 402.081C404.432 401.751 404.371 401.42 404.317 401.088C404.264 400.756 404.219 400.425 404.182 400.094C404.163 399.939 404.147 399.785 404.132 399.63C404.117 399.475 404.104 399.32 404.092 399.166C404.081 399.011 404.071 398.856 404.063 398.702C404.055 398.547 404.048 398.393 404.043 398.239C404.117 398.003 404.193 397.769 404.269 397.535C404.346 397.302 404.424 397.069 404.503 396.838C404.582 396.606 404.663 396.376 404.744 396.146C404.826 395.916 404.91 395.688 404.994 395.46C404.976 395.651 404.96 395.842 404.947 396.034C404.934 396.226 404.923 396.418 404.916 396.611C404.908 396.804 404.903 396.998 404.901 397.192C404.898 397.386 404.899 397.58 404.902 397.775C404.901 397.881 404.902 397.987 404.905 398.093C404.907 398.199 404.91 398.305 404.913 398.411C404.917 398.517 404.921 398.623 404.927 398.729C404.933 398.836 404.939 398.942 404.946 399.048C405.028 400.238 405.214 401.42 405.504 402.577C405.798 403.749 406.18 404.896 406.649 406.01C407.127 407.144 407.678 408.247 408.299 409.31C408.93 410.391 409.62 411.438 410.366 412.444C411.17 413.53 412.018 414.587 412.913 415.616C413.808 416.645 414.736 417.645 415.699 418.618C416.662 419.589 417.654 420.531 418.674 421.442C419.694 422.354 420.731 423.234 421.785 424.082C422.865 424.953 423.966 425.791 425.089 426.596C426.212 427.401 427.353 428.171 428.513 428.905C429.672 429.639 430.849 430.337 432.043 431C433.237 431.663 434.444 432.287 435.665 432.874C435.721 432.901 435.772 432.939 435.815 432.984C435.856 433.029 435.89 433.08 435.915 433.136C435.939 433.192 435.953 433.251 435.957 433.311C435.96 433.372 435.953 433.433 435.933 433.49C435.927 433.515 435.918 433.539 435.907 433.562C435.896 433.585 435.883 433.606 435.868 433.626C435.853 433.646 435.836 433.664 435.817 433.68C435.799 433.696 435.778 433.71 435.756 433.722C435.734 433.732 435.709 433.74 435.685 433.744C435.66 433.748 435.635 433.75 435.609 433.748C435.584 433.746 435.558 433.742 435.534 433.734C435.508 433.726 435.484 433.716 435.461 433.703C435.31 433.63 435.159 433.558 435.008 433.485C434.857 433.412 434.707 433.338 434.557 433.264C434.406 433.191 434.256 433.116 434.107 433.041C433.957 432.966 433.807 432.889 433.658 432.812C432.413 432.172 431.185 431.495 429.974 430.779C428.763 430.063 427.57 429.31 426.395 428.519C425.22 427.729 424.067 426.903 422.935 426.041C421.803 425.18 420.695 424.284 419.61 423.354C418.563 422.459 417.529 421.533 416.52 420.576C415.51 419.619 414.526 418.632 413.579 417.612C412.632 416.593 411.722 415.543 410.861 414.461C409.999 413.379 409.188 412.267 408.437 411.122Z" fill="white"/>
<path d="M431.882 322.188L430.99 322.304L436.968 299.87C437.408 298.372 437.48 296.79 437.177 295.258C436.914 294.007 436.263 292.87 435.318 292.009C434.327 291.148 433.114 290.585 431.817 290.384C430.237 290.139 428.625 290.212 427.073 290.596L386.45 299.848C385.033 300.192 383.675 300.75 382.426 301.503C381.067 302.311 379.803 303.269 378.658 304.36C377.48 305.472 376.423 306.705 375.504 308.038C374.606 309.329 373.874 310.728 373.325 312.202L330.822 429.107C330.115 431.029 329.656 433.034 329.455 435.072C329.269 436.881 329.357 438.709 329.716 440.492C330.015 442.041 330.641 443.509 331.55 444.799C332.385 445.971 333.56 446.858 334.917 447.338L377.838 462.114C379.744 462.763 381.791 462.885 383.761 462.467C385.867 462.008 387.848 461.096 389.566 459.794C391.495 458.344 393.154 456.566 394.466 454.542C395.92 452.318 397.006 449.874 397.684 447.304L426.459 339.307L427.362 339.235L431.882 322.188Z" fill="#2F2E41"/>
<path d="M428.777 320.946L427.885 321.062L433.863 298.628C434.303 297.13 434.375 295.548 434.072 294.016C433.809 292.765 433.158 291.628 432.212 290.767C431.222 289.906 430.008 289.343 428.712 289.142C427.132 288.897 425.52 288.969 423.968 289.354L383.345 298.606C381.927 298.95 380.57 299.508 379.321 300.261C377.962 301.069 376.698 302.027 375.553 303.118C374.375 304.23 373.318 305.463 372.399 306.796C371.501 308.087 370.769 309.486 370.22 310.96L327.716 427.865C327.01 429.787 326.551 431.792 326.35 433.83C326.164 435.639 326.252 437.467 326.611 439.25C326.91 440.799 327.535 442.267 328.445 443.557C329.28 444.729 330.455 445.616 331.812 446.096L374.732 460.872C376.639 461.521 378.686 461.643 380.656 461.225C382.762 460.766 384.743 459.854 386.461 458.552C388.39 457.102 390.049 455.324 391.361 453.3C392.815 451.076 393.901 448.632 394.578 446.062L423.354 338.065L424.257 337.993L428.777 320.946Z" fill="#3F3D56"/>
<path d="M423.609 292.281L417.637 293.59C417.703 294.106 417.651 294.631 417.487 295.125C417.301 295.703 417.031 296.251 416.686 296.75C415.91 297.885 414.873 298.817 413.664 299.47C413.519 299.547 413.374 299.618 413.23 299.683C413.087 299.748 412.943 299.808 412.799 299.861C412.656 299.914 412.513 299.961 412.372 300.002C412.231 300.043 412.091 300.077 411.953 300.105L388.606 304.832C388.173 304.933 387.722 304.928 387.291 304.817C386.944 304.724 386.638 304.518 386.421 304.232C386.203 303.924 386.08 303.559 386.067 303.182C386.049 302.701 386.125 302.222 386.291 301.77C386.332 301.648 386.379 301.525 386.432 301.402C386.485 301.278 386.543 301.154 386.605 301.031C386.668 300.907 386.735 300.783 386.809 300.66C386.882 300.537 386.96 300.414 387.041 300.292L382.621 301.26C381.556 301.51 380.536 301.922 379.598 302.483C378.572 303.088 377.618 303.806 376.755 304.626C375.865 305.463 375.066 306.393 374.373 307.399C373.697 308.372 373.148 309.426 372.738 310.538L330.314 428.459C329.787 429.908 329.448 431.419 329.306 432.955C329.176 434.31 329.253 435.678 329.535 437.01C329.77 438.161 330.251 439.248 330.944 440.197C331.579 441.058 332.465 441.702 333.48 442.04L376.716 456.087C378.143 456.544 379.666 456.613 381.127 456.285C382.684 455.928 384.146 455.242 385.416 454.273C386.835 453.198 388.057 451.885 389.027 450.392C390.101 448.752 390.907 446.951 391.414 445.058L430.919 299.281C431.25 298.168 431.312 296.992 431.098 295.851C430.912 294.915 430.439 294.061 429.745 293.408C429.017 292.755 428.119 292.322 427.155 292.159C425.976 291.962 424.771 292.003 423.609 292.281Z" fill="white"/>
<path d="M400.422 348.13H314.413V318.985H400.422V348.13Z" fill="white"/>
<path d="M375.276 358.417H290.982V399.279H375.276V358.417Z" fill="white"/>
<path d="M304.676 378.039C308.043 378.039 310.773 375.309 310.773 371.942C310.773 368.574 308.043 365.844 304.676 365.844C301.308 365.844 298.579 368.574 298.579 371.942C298.579 375.309 301.308 378.039 304.676 378.039Z" fill="#FFC940"/>
<path d="M318.758 367.877C318.489 367.877 318.23 367.984 318.04 368.174C317.849 368.365 317.742 368.623 317.742 368.893C317.742 369.162 317.849 369.421 318.04 369.611C318.23 369.802 318.489 369.909 318.758 369.909H366.666C366.935 369.908 367.193 369.801 367.383 369.611C367.573 369.42 367.68 369.162 367.68 368.893C367.68 368.624 367.573 368.366 367.383 368.175C367.193 367.985 366.935 367.877 366.666 367.877H318.758Z" fill="#E6E6E6"/>
<path d="M318.758 373.974C318.624 373.974 318.492 373.999 318.368 374.05C318.245 374.101 318.133 374.175 318.038 374.27C317.943 374.364 317.868 374.476 317.817 374.599C317.765 374.722 317.739 374.855 317.738 374.988C317.738 375.122 317.764 375.254 317.815 375.377C317.866 375.501 317.941 375.613 318.035 375.708C318.129 375.802 318.241 375.877 318.365 375.929C318.488 375.98 318.62 376.006 318.754 376.006H339.373C339.506 376.006 339.638 375.98 339.762 375.929C339.885 375.878 339.997 375.803 340.091 375.709C340.186 375.614 340.261 375.502 340.312 375.379C340.363 375.256 340.389 375.124 340.389 374.99C340.389 374.857 340.363 374.725 340.312 374.601C340.261 374.478 340.186 374.366 340.091 374.272C339.997 374.177 339.885 374.102 339.762 374.051C339.638 374 339.506 373.974 339.373 373.974H318.758Z" fill="#E6E6E6"/>
<path d="M299.999 383.722C299.226 383.722 298.597 384.178 298.597 384.738C298.597 385.298 299.226 385.754 299.999 385.754H366.097C366.87 385.754 367.499 385.298 367.499 384.738C367.499 384.178 366.87 383.722 366.097 383.722H299.999Z" fill="#E6E6E6"/>
<path d="M299.999 389.819C299.226 389.819 298.597 390.275 298.597 390.835C298.597 391.396 299.226 391.852 299.999 391.852H350.882C351.655 391.852 352.284 391.396 352.284 390.835C352.284 390.275 351.655 389.819 350.882 389.819H299.999Z" fill="#E6E6E6"/>
<path d="M376.134 400.136H290.125V357.56H376.134V400.136ZM291.839 398.421H374.419V359.274H291.839V398.421Z" fill="#E6E6E6"/>
<path d="M328.964 339.463C332.332 339.463 335.062 336.734 335.062 333.366C335.062 329.999 332.332 327.269 328.964 327.269C325.597 327.269 322.867 329.999 322.867 333.366C322.867 336.734 325.597 339.463 328.964 339.463Z" fill="#FFC940"/>
<path d="M343.046 329.301C342.777 329.301 342.518 329.408 342.328 329.599C342.137 329.789 342.03 330.048 342.03 330.317C342.03 330.587 342.137 330.845 342.328 331.036C342.518 331.227 342.777 331.334 343.046 331.334H390.954C391.223 331.333 391.481 331.226 391.671 331.035C391.861 330.845 391.968 330.586 391.968 330.317C391.968 330.048 391.861 329.79 391.671 329.6C391.481 329.409 391.223 329.302 390.954 329.301H343.046Z" fill="#E6E6E6"/>
<path d="M343.046 335.399C342.913 335.398 342.78 335.424 342.657 335.475C342.533 335.525 342.421 335.6 342.326 335.694C342.232 335.788 342.156 335.9 342.105 336.024C342.053 336.147 342.027 336.279 342.027 336.413C342.026 336.546 342.052 336.678 342.103 336.802C342.154 336.925 342.229 337.038 342.323 337.132C342.418 337.227 342.53 337.302 342.653 337.353C342.776 337.404 342.908 337.431 343.042 337.431H380.739C381.009 337.431 381.267 337.324 381.458 337.133C381.648 336.943 381.755 336.684 381.755 336.415C381.755 336.145 381.648 335.887 381.458 335.696C381.267 335.506 381.009 335.399 380.739 335.399H343.046Z" fill="#E6E6E6"/>
<path d="M400.422 348.13H314.413V318.985H400.422V348.13ZM316.128 346.416H398.708V320.699H316.128V346.416Z" fill="#E6E6E6"/>
<path d="M231.424 459.154H235.759L237.822 442.43L231.423 442.431L231.424 459.154Z" fill="#FFB6B6"/>
<path d="M244.121 463.179L230.495 463.18L230.495 457.915L239.499 457.915C240.725 457.915 241.9 458.402 242.767 459.269C243.634 460.135 244.121 461.311 244.121 462.537L244.121 463.179Z" fill="#2F2E41"/>
<path d="M188.069 453.535L191.869 455.624L201.733 441.963L196.126 438.88L188.069 453.535Z" fill="#FFB6B6"/>
<path d="M197.256 463.18L185.316 456.615L187.852 452.002L195.742 456.34C196.817 456.93 197.612 457.923 197.954 459.101C198.296 460.278 198.157 461.543 197.566 462.617L197.256 463.18Z" fill="#2F2E41"/>
<path d="M231.221 449.872C230.835 449.871 230.462 449.73 230.172 449.475C229.882 449.22 229.694 448.868 229.645 448.485L224.222 406.702C224.198 406.517 224.117 406.344 223.989 406.209C223.861 406.073 223.693 405.982 223.51 405.947C223.327 405.912 223.138 405.936 222.969 406.015C222.801 406.095 222.661 406.225 222.571 406.389L199.974 447.387C199.787 447.722 199.487 447.979 199.127 448.111C198.767 448.243 198.372 448.242 198.013 448.107L193.088 446.23C192.89 446.155 192.709 446.04 192.555 445.894C192.402 445.748 192.279 445.572 192.195 445.378C192.11 445.183 192.065 444.974 192.063 444.762C192.06 444.55 192.1 444.339 192.18 444.143L207.834 405.688C207.874 405.59 207.901 405.488 207.914 405.384C210.035 388.973 215.429 380.628 217.032 378.461C217.149 378.302 217.226 378.116 217.257 377.921C217.287 377.726 217.27 377.526 217.207 377.339L216.987 376.678C216.899 376.415 216.881 376.135 216.935 375.863C216.988 375.592 217.112 375.339 217.293 375.13C223.069 368.551 233.135 372.141 233.236 372.178L233.287 372.197L233.318 372.24C244.606 387.72 240.433 437.999 239.481 447.921C239.446 448.294 239.28 448.642 239.012 448.904C238.745 449.166 238.393 449.325 238.019 449.353L231.345 449.867C231.303 449.87 231.262 449.872 231.221 449.872Z" fill="#2F2E41"/>
<path d="M228.161 333.771C233.49 333.771 237.81 329.451 237.81 324.122C237.81 318.793 233.49 314.473 228.161 314.473C222.832 314.473 218.512 318.793 218.512 324.122C218.512 329.451 222.832 333.771 228.161 333.771Z" fill="#FFB8B8"/>
<path d="M213.243 385.521L241.636 388.105C239.161 379.498 236.893 370.92 238.741 362.374C241.089 354.745 241.307 350.518 235.114 346.925L230.933 337.597L223.366 337.322L219.676 336.311C216.695 341.104 215.476 346.785 216.227 352.38C217.831 364.545 217.398 375.833 213.243 385.521Z" fill="#FFC940"/>
<path d="M217.553 342.463L214.697 329.355C214.101 326.253 214.251 323.053 215.133 320.019C215.23 319.708 215.345 319.404 215.48 319.107C216.271 317.385 217.514 315.908 219.077 314.836C220.64 313.763 222.464 313.135 224.356 313.017C230.847 312.569 231.8 313.253 232.034 313.59C235.702 313.442 238.546 314.859 239.843 317.481C239.971 317.742 240.039 318.027 240.044 318.316C240.049 318.606 239.991 318.893 239.873 319.158C239.755 319.422 239.58 319.658 239.361 319.847C239.143 320.037 238.885 320.177 238.606 320.256C236.794 320.779 234.246 321.359 232.335 321.189C228.505 325.783 230.071 334.199 233.957 339.214L234.109 339.411L230.259 340.2L225.786 333.97C225.697 333.847 225.569 333.758 225.423 333.718C225.276 333.677 225.12 333.689 224.981 333.75C224.842 333.811 224.729 333.917 224.659 334.052C224.589 334.187 224.568 334.342 224.598 334.49L225.957 341.089L217.553 342.463Z" fill="#2F2E41"/>
<path d="M426.234 463.282H157V462.605H426.357L426.234 463.282Z" fill="#CACACA"/>
<path d="M272.705 377.759L202.48 427.419L185.652 403.622L255.876 353.962L272.705 377.759Z" fill="white"/>
<path d="M209.357 411.941C212.106 409.997 212.759 406.192 210.815 403.442C208.87 400.693 205.065 400.04 202.316 401.984C199.566 403.929 198.914 407.734 200.858 410.483C202.802 413.233 206.607 413.885 209.357 411.941Z" fill="#FFC940"/>
<path d="M214.987 395.513C214.767 395.669 214.618 395.905 214.572 396.171C214.527 396.437 214.588 396.71 214.744 396.93C214.9 397.15 215.136 397.299 215.402 397.345C215.668 397.39 215.94 397.328 216.16 397.173L255.276 369.512C255.495 369.356 255.644 369.119 255.689 368.854C255.734 368.589 255.672 368.316 255.517 368.097C255.362 367.877 255.125 367.728 254.86 367.682C254.595 367.636 254.323 367.698 254.103 367.852L214.987 395.513Z" fill="#E6E6E6"/>
<path d="M218.508 400.492C218.287 400.647 218.138 400.883 218.092 401.148C218.046 401.414 218.107 401.687 218.262 401.907C218.417 402.127 218.654 402.277 218.919 402.323C219.184 402.369 219.457 402.308 219.677 402.153L219.681 402.151L250.456 380.388C250.676 380.232 250.825 379.996 250.871 379.73C250.917 379.464 250.855 379.192 250.699 378.972C250.622 378.863 250.524 378.77 250.411 378.699C250.299 378.628 250.173 378.579 250.041 378.557C249.776 378.511 249.503 378.573 249.283 378.729L218.508 400.492Z" fill="#E6E6E6"/>
<path d="M272.705 377.759L202.48 427.419L185.652 403.622L255.876 353.962L272.705 377.759ZM202.89 425.029L270.315 377.349L255.467 356.352L188.042 404.032L202.89 425.029Z" fill="#E6E6E6"/>
<path d="M433.055 368.943C433.304 368.933 433.552 368.975 433.784 369.067C434.004 369.155 434.203 369.288 434.37 369.456C434.537 369.626 434.667 369.829 434.753 370.051C434.843 370.287 434.885 370.538 434.874 370.791C434.864 371.049 434.804 371.304 434.697 371.54C434.592 371.771 434.447 371.981 434.267 372.161C434.089 372.339 433.879 372.483 433.649 372.587C433.415 372.692 433.163 372.749 432.907 372.756C432.658 372.764 432.41 372.719 432.179 372.625C431.96 372.536 431.762 372.402 431.597 372.233C431.431 372.062 431.302 371.86 431.218 371.638C431.129 371.403 431.089 371.152 431.1 370.902C431.11 370.644 431.17 370.391 431.277 370.156C431.38 369.927 431.525 369.719 431.703 369.541C431.88 369.363 432.087 369.218 432.316 369.115C432.549 369.009 432.8 368.951 433.055 368.943Z" fill="#F2F2F2"/>
<path d="M235.622 393.15L231.056 368.186L231.377 352.748L221.085 352.426L223.015 369.794L229.67 393.878C229.117 394.549 228.779 395.371 228.698 396.237C228.617 397.102 228.797 397.972 229.216 398.734C229.634 399.496 230.271 400.116 231.045 400.512C231.819 400.909 232.693 401.064 233.556 400.959C234.419 400.853 235.231 400.491 235.886 399.92C236.542 399.349 237.011 398.594 237.233 397.754C237.455 396.913 237.421 396.025 237.134 395.205C236.847 394.384 236.32 393.668 235.622 393.15H235.622Z" fill="#FFB8B8"/>
<path d="M220.442 354.034C224.17 352.614 228.291 352.614 232.02 354.034L231.377 341.169C231.377 340.493 231.244 339.824 230.985 339.2C230.727 338.575 230.348 338.008 229.87 337.53C229.392 337.052 228.825 336.673 228.2 336.414C227.576 336.156 226.907 336.023 226.231 336.023C225.555 336.023 224.886 336.156 224.262 336.414C223.637 336.673 223.07 337.052 222.592 337.53C222.114 338.008 221.735 338.575 221.477 339.2C221.218 339.824 221.085 340.493 221.085 341.169L220.442 354.034Z" fill="#FFC940"/>
</g>
<g clip-path="url(#clip2_3_901)">
<path d="M339.769 768.219H198.618C195.273 768.215 192.066 766.884 189.7 764.519C187.334 762.153 186.004 758.946 186 755.6V550.9C186.004 547.555 187.334 544.347 189.7 541.982C192.066 539.616 195.273 538.285 198.618 538.282H339.769C343.114 538.285 346.322 539.616 348.687 541.982C351.053 544.347 352.384 547.555 352.388 550.9V755.6C352.384 758.946 351.053 762.153 348.687 764.519C346.322 766.884 343.114 768.215 339.769 768.219Z" fill="#3F3D56"/>
<path d="M340.017 760.168H198.37C197.339 760.167 196.35 759.757 195.621 759.027C194.892 758.298 194.482 757.309 194.48 756.278V550.223C194.482 549.191 194.892 548.203 195.621 547.473C196.35 546.744 197.339 546.334 198.37 546.333H340.017C341.049 546.334 342.037 546.744 342.767 547.473C343.496 548.203 343.906 549.191 343.907 550.223V756.278C343.906 757.309 343.496 758.298 342.767 759.027C342.037 759.757 341.049 760.167 340.017 760.168Z" fill="white"/>
<path d="M268.657 543.22C269.25 543.22 269.731 542.739 269.731 542.146C269.731 541.553 269.25 541.073 268.657 541.073C268.064 541.073 267.584 541.553 267.584 542.146C267.584 542.739 268.064 543.22 268.657 543.22Z" fill="white"/>
<path d="M203.857 641.035H324.588V620.342C324.569 618.16 324.115 616.004 323.252 614C322.389 611.996 321.135 610.184 319.562 608.671L319.529 608.639C317.373 606.476 310.167 600.985 302.711 601.45C298.772 601.695 295.4 603.594 292.688 607.092C284.248 617.986 273.161 614.309 267.303 611.147C262.14 608.36 256.868 607.052 251.632 607.261C244.298 607.547 233.976 610.249 226.448 621.492C223.573 625.782 217.32 631.606 203.857 635.029L203.857 641.035Z" fill="#FFFBF0"/>
<path d="M331.419 641.516H204.09C203.984 641.516 203.883 641.474 203.808 641.4C203.733 641.325 203.691 641.223 203.691 641.118L203.885 640.674L331.419 640.719C331.524 640.719 331.626 640.761 331.7 640.836C331.775 640.911 331.817 641.012 331.817 641.118C331.817 641.223 331.775 641.325 331.7 641.4C331.626 641.474 331.524 641.516 331.419 641.516H331.419Z" fill="#3F3D56"/>
<path d="M228.31 618.047H227.528V640.955H228.31V618.047Z" fill="#3F3D56"/>
<path d="M251.708 607.349H250.927V640.955H251.708V607.349Z" fill="#3F3D56"/>
<path d="M275.155 614.383H274.373V640.955H275.155V614.383Z" fill="#3F3D56"/>
<path d="M298.601 601.487H297.82V640.955H298.601V601.487Z" fill="#3F3D56"/>
<path d="M322.048 610.475H321.266V640.955H322.048V610.475Z" fill="#3F3D56"/>
<path d="M251.365 610.278C252.686 610.278 253.756 609.208 253.756 607.887C253.756 606.567 252.686 605.496 251.365 605.496C250.045 605.496 248.975 606.567 248.975 607.887C248.975 609.208 250.045 610.278 251.365 610.278Z" fill="#FFC940"/>
<path d="M298.259 604.026C299.579 604.026 300.65 602.955 300.65 601.635C300.65 600.315 299.579 599.244 298.259 599.244C296.938 599.244 295.868 600.315 295.868 601.635C295.868 602.955 296.938 604.026 298.259 604.026Z" fill="#FFC940"/>
<path d="M274.812 616.921C276.133 616.921 277.203 615.851 277.203 614.531C277.203 613.21 276.133 612.14 274.812 612.14C273.492 612.14 272.421 613.21 272.421 614.531C272.421 615.851 273.492 616.921 274.812 616.921Z" fill="#FFC940"/>
<path d="M227.919 620.438C229.239 620.438 230.31 619.368 230.31 618.048C230.31 616.727 229.239 615.657 227.919 615.657C226.599 615.657 225.528 616.727 225.528 618.048C225.528 619.368 226.599 620.438 227.919 620.438Z" fill="#FFC940"/>
<path d="M321.705 612.623C323.026 612.623 324.096 611.552 324.096 610.232C324.096 608.912 323.026 607.841 321.705 607.841C320.385 607.841 319.314 608.912 319.314 610.232C319.314 611.552 320.385 612.623 321.705 612.623Z" fill="#FFC940"/>
<path d="M250.693 724.405V683.931C250.693 683.681 250.792 683.442 250.969 683.266C251.145 683.09 251.384 682.991 251.633 682.991H255.828C256.077 682.991 256.316 683.09 256.492 683.266C256.669 683.442 256.768 683.681 256.768 683.931V724.51L250.693 724.405Z" fill="#3F3D56"/>
<path d="M264.547 724.532V692.349C264.547 692.1 264.646 691.861 264.822 691.685C264.998 691.508 265.237 691.409 265.487 691.409H269.681C269.93 691.409 270.169 691.508 270.346 691.685C270.522 691.861 270.621 692.1 270.621 692.349V724.462L264.547 724.532Z" fill="#3F3D56"/>
<path d="M292.253 724.388V677.739C292.236 677.471 292.325 677.207 292.501 677.004C292.676 676.801 292.925 676.676 293.193 676.656H297.388C297.655 676.676 297.904 676.801 298.08 677.004C298.256 677.207 298.345 677.471 298.327 677.739V724.51L292.253 724.388Z" fill="#3F3D56"/>
<path d="M236.84 724.452V701.93C236.84 701.641 237.261 701.407 237.78 701.407H241.974C242.493 701.407 242.914 701.642 242.914 701.93V724.51L236.84 724.452Z" fill="#3F3D56"/>
<path d="M278.4 724.372V671.434C278.4 670.755 278.821 670.205 279.34 670.205H283.534C284.053 670.205 284.474 670.755 284.474 671.434V724.51L278.4 724.372Z" fill="#FFC940"/>
<path d="M316.404 724.998H221.54C221.441 724.998 221.345 724.958 221.274 724.887C221.204 724.817 221.164 724.721 221.164 724.621C221.164 724.521 221.204 724.426 221.274 724.355C221.345 724.284 221.441 724.245 221.54 724.245H316.404C316.504 724.245 316.6 724.284 316.67 724.355C316.741 724.426 316.781 724.521 316.781 724.621C316.781 724.721 316.741 724.817 316.67 724.887C316.6 724.958 316.504 724.998 316.404 724.998Z" fill="#3F3D56"/>
<path d="M429.437 763.94L424.995 763.94L422.882 746.804H429.439L429.437 763.94Z" fill="#FFB6B6"/>
<path d="M430.571 768.246L416.246 768.246V768.064C416.246 766.586 416.834 765.168 417.879 764.122C418.925 763.076 420.343 762.489 421.822 762.489H421.822L430.571 762.489L430.571 768.246Z" fill="#2F2E41"/>
<path d="M395.688 763.793L391.396 762.646L393.781 745.546L400.115 747.239L395.688 763.793Z" fill="#FFB6B6"/>
<path d="M395.67 768.246L381.832 764.546L381.879 764.371C382.261 762.942 383.195 761.724 384.475 760.984C385.755 760.244 387.277 760.043 388.705 760.424L388.706 760.425L397.158 762.685L395.67 768.246Z" fill="#2F2E41"/>
<path d="M431.993 667.908L435.715 672.232L430.902 760.084H420.622L415.439 692.485L399.37 761.898L388.683 759.277L398.4 671.113L431.993 667.908Z" fill="#2F2E41"/>
<path d="M400.885 611.19L411.12 606.056L426.86 606.332L440.405 613.264L432.699 651.752L436.028 671.819H436.028C423.161 675.101 409.69 675.211 396.771 672.142L396.668 672.118C396.668 672.118 404.319 644.971 401.062 636.686L400.885 611.19Z" fill="#FFDC84"/>
<path d="M430.495 590.677C430.484 587.605 429.254 584.663 427.076 582.497C424.898 580.331 421.949 579.118 418.878 579.123C415.806 579.129 412.862 580.353 410.691 582.527C408.521 584.701 407.302 587.648 407.302 590.72C407.302 593.792 408.521 596.738 410.691 598.912C412.862 601.086 415.806 602.311 418.878 602.316C421.949 602.322 424.898 601.109 427.076 598.942C429.254 596.776 430.484 593.834 430.495 590.763C430.496 590.734 430.496 590.705 430.495 590.677Z" fill="#FFB6B6"/>
<path d="M413.706 584.051C414.307 583.485 415.098 583.166 415.923 583.156C417.162 583.116 419.018 583.556 419.808 584.563C420.443 585.373 420.473 586.487 420.476 587.515L420.483 590.355C420.485 591.195 420.495 592.071 420.876 592.819C421.258 593.567 422.134 594.136 422.934 593.881C423.884 593.578 424.301 592.316 425.272 592.089C426 591.919 426.749 592.451 427.068 593.129C427.337 593.831 427.426 594.589 427.327 595.334C427.235 596.821 425.103 597.41 424.801 598.869C424.626 599.713 424.015 601.396 424.801 601.043C428.424 600.681 430.015 598.564 431.673 596.572L435.414 592.078C435.841 591.632 436.169 591.101 436.377 590.519C436.47 590.112 436.503 589.693 436.476 589.276C436.456 588.159 436.426 587.043 436.385 585.926C436.35 584.951 436.105 583.72 435.149 583.52C434.653 583.416 433.995 583.598 433.733 583.163C433.634 582.945 433.618 582.699 433.688 582.471C433.898 581.356 434.254 580.19 433.887 579.116C433.334 577.497 431.429 576.833 429.745 576.527C428.062 576.222 426.172 575.959 425.115 574.613C424.832 574.167 424.525 573.735 424.196 573.322C423.711 572.881 423.116 572.58 422.473 572.453C420.383 571.924 418.176 572.12 416.211 573.008C415.397 573.38 414.579 573.88 413.686 573.824C412.758 573.765 411.965 573.112 411.049 572.953C409.569 572.696 408.154 573.805 407.425 575.118C406.522 576.745 406.439 578.973 407.715 580.327C408.352 581.003 409.302 581.467 409.567 582.357C409.674 582.719 409.649 583.109 409.744 583.475C409.855 583.839 410.067 584.164 410.355 584.413C410.642 584.662 410.995 584.825 411.371 584.882C412.276 585.029 413.041 584.615 413.706 584.051Z" fill="#2F2E41"/>
<path d="M399.472 639.251C399.692 639.817 400.034 640.328 400.473 640.747C400.912 641.167 401.438 641.485 402.013 641.679C402.588 641.874 403.199 641.94 403.803 641.873C404.406 641.805 404.987 641.607 405.506 641.29L426.289 652.277L426.962 647.214L406.767 635.306C406.178 634.47 405.303 633.879 404.308 633.646C403.313 633.412 402.266 633.552 401.367 634.038C400.468 634.525 399.778 635.324 399.429 636.285C399.08 637.246 399.095 638.301 399.472 639.251Z" fill="#FFB6B6"/>
<path d="M427.167 640.127C426.829 640.631 426.384 641.054 425.863 641.367C425.343 641.681 424.761 641.876 424.157 641.94C423.553 642.004 422.943 641.935 422.368 641.737C421.794 641.539 421.27 641.218 420.834 640.796L398.151 646.969L398.348 640.541L420.913 634.68C421.67 633.994 422.653 633.609 423.675 633.599C424.698 633.589 425.688 633.954 426.459 634.625C427.23 635.297 427.728 636.228 427.858 637.241C427.989 638.255 427.743 639.282 427.167 640.127V640.127Z" fill="#FFB6B6"/>
<path d="M435.983 613.541L440.405 613.264C440.405 613.264 445.583 620.096 442.711 627.51C442.711 627.51 443.209 654.144 431.74 653.05C420.271 651.956 416.648 651.956 416.648 651.956L420.09 642.353L427.791 639.975C427.791 639.975 425.418 629.505 429.911 625.149L435.983 613.541Z" fill="#FFC940"/>
<path d="M404.046 613.307L403.421 610.102C403.421 610.102 394.203 609.886 392.38 623.855C392.38 623.855 384.09 644.76 392.216 647.452C400.341 650.144 409.279 647.452 409.279 647.452L408.606 638.233L399.665 636.408C399.665 636.408 404.284 630.433 401.769 625.25L404.046 613.307Z" fill="#FFC940"/>
<path d="M460.624 768.665H135.376C135.277 768.665 135.181 768.625 135.11 768.555C135.04 768.484 135 768.388 135 768.289C135 768.189 135.04 768.093 135.11 768.022C135.181 767.952 135.277 767.912 135.376 767.912H460.624C460.723 767.912 460.819 767.952 460.89 768.022C460.96 768.093 461 768.189 461 768.289C461 768.388 460.96 768.484 460.89 768.555C460.819 768.625 460.723 768.665 460.624 768.665Z" fill="#CACACA"/>
</g>
<defs>
<clipPath id="clip0_3_901">
<rect width="139" height="139" fill="white" transform="translate(228)"/>
</clipPath>
<clipPath id="clip1_3_901">
<rect width="281.232" height="174.282" fill="white" transform="translate(157 289)"/>
</clipPath>
<clipPath id="clip2_3_901">
<rect width="326" height="230.383" fill="white" transform="translate(135 538.282)"/>
</clipPath>
</defs>
</svg>
