<svg width="124" height="124" viewBox="0 0 124 124" fill="none" xmlns="http://www.w3.org/2000/svg">
<path d="M15.5 38.75V27.125C15.5 26.0973 15.9083 25.1117 16.635 24.385C17.3617 23.6583 18.3473 23.25 19.375 23.25H44.9016C45.4047 23.2483 45.9033 23.3458 46.3688 23.5369C46.8342 23.7281 47.2574 24.0092 47.6141 24.3641L62 38.75" fill="#F6BE4F"/>
<path d="M15.5 38.75V27.125C15.5 26.0973 15.9083 25.1117 16.635 24.385C17.3617 23.6583 18.3473 23.25 19.375 23.25H44.9016C45.4047 23.2483 45.9033 23.3458 46.3688 23.5369C46.8342 23.7281 47.2574 24.0092 47.6141 24.3641L62 38.75" stroke="#F69F4F" stroke-width="7.75" stroke-linecap="round" stroke-linejoin="round"/>
<path d="M105.061 100.75H19.0844C18.6137 100.75 18.1476 100.657 17.7127 100.477C17.2778 100.297 16.8827 100.033 16.5498 99.7002C16.217 99.3673 15.953 98.9722 15.7728 98.5373C15.5927 98.1024 15.5 97.6363 15.5 97.1656V38.75H104.625C105.653 38.75 106.638 39.1583 107.365 39.885C108.092 40.6117 108.5 41.5973 108.5 42.625V97.3109C108.5 98.223 108.138 99.0978 107.493 99.7427C106.848 100.388 105.973 100.75 105.061 100.75Z" fill="#F6BE4F" stroke="#F69F4F" stroke-width="7.75" stroke-linecap="round" stroke-linejoin="round"/>
</svg>
