<svg width="80" height="80" viewBox="0 0 80 80" fill="none" xmlns="http://www.w3.org/2000/svg">
<path d="M26.25 75C27.2361 75.0041 28.2132 74.813 29.125 74.4375C30.0368 74.0621 30.8653 73.5098 31.5625 72.8125C32.2598 72.1153 32.8121 71.2868 33.1875 70.375C33.563 69.4632 33.7541 68.4861 33.75 67.5V52.5" stroke="#2F3556" stroke-width="5" stroke-linecap="round" stroke-linejoin="round"/>
<path d="M53.7501 75C52.764 75.0041 51.7869 74.813 50.8751 74.4375C49.9632 74.0621 49.1348 73.5098 48.4375 72.8125C47.7403 72.1153 47.188 71.2868 46.8125 70.375C46.4371 69.4632 46.2459 68.4861 46.2501 67.5V52.5" stroke="#2F3556" stroke-width="5" stroke-linecap="round" stroke-linejoin="round"/>
<path d="M47.5 52.5001H52.5C53.4861 52.4959 54.4632 52.6871 55.375 53.0625C56.2868 53.438 57.1153 53.9903 57.8125 54.6875C58.5098 55.3848 59.0621 56.2132 59.4375 57.1251C59.813 58.0369 60.0041 59.014 60 60.0001V62.5001C59.9959 63.4861 60.187 64.4633 60.5625 65.3751C60.9379 66.2869 61.4902 67.1153 62.1875 67.8126C62.8847 68.5098 63.7132 69.0621 64.625 69.4376C65.5368 69.813 66.5139 70.0042 67.5 70.0001" stroke="#2F3556" stroke-width="5" stroke-linecap="round" stroke-linejoin="round"/>
<path d="M32.5 52.5001H27.5C26.5139 52.4959 25.5368 52.6871 24.625 53.0625C23.7132 53.438 22.8847 53.9903 22.1875 54.6875C21.4902 55.3848 20.9379 56.2132 20.5625 57.1251C20.187 58.0369 19.9959 59.014 20 60.0001V62.5001C20.0041 63.4861 19.813 64.4633 19.4375 65.3751C19.0621 66.2869 18.5098 67.1153 17.8125 67.8126C17.1153 68.5098 16.2868 69.0621 15.375 69.4376C14.4632 69.813 13.4861 70.0042 12.5 70.0001" stroke="#2F3556" stroke-width="5" stroke-linecap="round" stroke-linejoin="round"/>
<path d="M34.9375 20C33.4688 17.7016 31.4452 15.8098 29.0531 14.4991C26.6611 13.1884 23.9776 12.5009 21.25 12.5C20.0372 14.5993 19.3095 16.9434 19.1202 19.3604C18.931 21.7775 19.285 24.2063 20.1562 26.4687C18.4475 28.9877 17.5232 31.9563 17.5 35V37.5C17.5 41.4782 19.0804 45.2936 21.8934 48.1066C24.7064 50.9197 28.5218 52.5 32.5 52.5H47.5C51.4782 52.5 55.2936 50.9197 58.1066 48.1066C60.9197 45.2936 62.5 41.4782 62.5 37.5V35C62.4768 31.9563 61.5525 28.9877 59.8438 26.4687C60.715 24.2063 61.069 21.7775 60.8798 19.3604C60.6905 16.9434 59.9628 14.5993 58.75 12.5C56.0224 12.5009 53.3389 13.1884 50.9469 14.4991C48.5548 15.8098 46.5312 17.7016 45.0625 20H34.9375Z" fill="#2F3556" stroke="#2F3556" stroke-width="5" stroke-linecap="round" stroke-linejoin="round"/>
</svg>
