<svg width="2504" height="2504" viewBox="0 0 2504 2504" fill="none" xmlns="http://www.w3.org/2000/svg">
<rect x="12" y="12" width="2480" height="2480" rx="181.957" fill="#FFFBF0" stroke="#DCD5C1" stroke-width="23"/>
<path d="M377.889 1215.25C352.527 1215.25 327.165 1211.11 300.769 1203.35C274.372 1195.58 252.115 1185.23 234 1172.29L296.11 1083.78C295.593 1083.78 298.181 1085.85 303.874 1089.99C309.05 1094.13 316.814 1098.79 326.648 1103.97C336.482 1109.14 347.351 1113.8 359.773 1117.94C372.195 1122.08 385.135 1124.15 398.592 1124.15C406.356 1124.15 412.567 1123.12 416.19 1121.05C419.813 1119.5 422.401 1116.91 423.954 1113.8C424.989 1111.21 425.507 1108.11 425.507 1105C425.507 1098.79 422.401 1093.62 415.673 1089.48C408.944 1085.85 400.663 1082.23 390.828 1078.61C380.477 1075.5 369.607 1071.88 358.221 1067.22C343.211 1061.01 330.271 1054.28 320.437 1046.52C310.603 1039.27 302.839 1030.47 298.181 1020.64C293.005 1010.8 290.417 998.899 290.417 985.959C290.417 962.668 295.075 941.964 304.392 923.849C313.191 906.251 325.613 890.723 341.14 878.301C356.668 865.879 373.748 856.563 392.899 849.834C412.049 843.106 431.2 840 450.868 840C467.949 840 484.511 842.07 499.521 846.211C514.531 850.869 528.506 856.045 541.446 862.256C554.385 868.467 565.255 874.161 574.571 879.854L513.496 963.185C514.014 963.185 511.943 961.633 507.285 958.01C502.627 954.386 495.898 950.763 487.617 946.105C479.336 941.964 470.019 938.341 459.667 934.718C449.316 931.095 438.964 929.542 428.612 929.542C423.954 929.542 419.296 930.06 415.155 931.613C410.497 933.165 407.391 935.753 404.803 938.859C402.215 941.964 401.18 946.105 401.18 951.281C401.18 956.457 403.768 960.597 408.426 964.221C413.085 967.844 419.296 970.949 427.577 973.537C435.858 976.643 445.175 980.266 456.044 984.406C472.607 990.617 487.099 997.346 500.039 1004.59C512.461 1012.36 522.295 1021.67 529.024 1032.54C535.752 1043.41 539.375 1057.9 539.375 1074.98C539.375 1101.38 534.717 1123.12 524.883 1141.23C515.049 1159.35 502.627 1173.33 486.582 1184.19C470.537 1195.58 453.456 1203.35 434.306 1208C415.155 1212.66 396.522 1215.25 377.889 1215.25Z" fill="#232323" stroke="#232323" stroke-width="20.7034" stroke-miterlimit="2" stroke-linejoin="round"/>
<path d="M713.333 1213.7C690.559 1213.7 670.373 1209.56 652.776 1200.76C634.66 1192.48 619.65 1181.09 607.746 1166.6C595.841 1152.11 586.525 1135.54 580.314 1116.91C574.103 1098.8 570.997 1079.65 570.997 1059.46C570.997 1037.2 575.138 1015.46 582.902 994.243C590.665 973.022 601.535 952.837 615.509 934.203C628.967 916.088 645.529 900.043 664.68 885.55C683.313 871.576 703.499 860.706 725.755 852.943C748.011 845.179 770.785 841.038 794.594 841.038C817.368 841.038 837.554 845.179 855.152 853.46C872.749 862.259 887.759 873.646 899.664 888.138C911.568 902.631 920.885 919.193 927.096 937.309C932.789 955.942 935.895 975.093 935.895 995.279C935.895 1017.53 931.754 1039.27 924.508 1059.98C916.744 1081.72 905.875 1101.38 891.9 1119.5C877.925 1138.13 861.88 1154.69 843.247 1168.67C824.614 1182.64 804.428 1194.03 782.172 1201.8C759.916 1209.56 737.142 1213.7 713.333 1213.7ZM733.001 1124.16C749.564 1124.16 764.056 1120.53 776.479 1112.77C788.901 1105.01 799.252 1095.17 808.051 1082.75C816.333 1070.85 822.544 1057.39 826.684 1043.41C830.825 1029.44 832.895 1015.46 832.895 1002.01C832.895 989.068 830.825 977.163 827.202 966.294C823.061 955.424 816.85 947.143 808.051 940.414C799.252 933.686 787.865 930.58 773.891 930.58C757.845 930.58 743.353 934.203 730.931 941.45C718.509 949.213 708.157 959.048 699.876 970.952C691.595 982.857 685.383 996.314 681.243 1010.29C676.585 1024.26 674.514 1038.24 674.514 1051.7C674.514 1064.64 676.585 1076.54 680.725 1087.41C684.348 1098.28 690.559 1107.08 699.358 1113.81C708.157 1121.05 719.027 1124.16 733.001 1124.16Z" fill="#232323" stroke="#232323" stroke-width="20.7034" stroke-miterlimit="2" stroke-linejoin="round"/>
<path d="M1093.16 1213.7C1070.9 1213.7 1051.23 1209.56 1034.15 1200.76C1016.55 1191.96 1001.54 1180.57 989.64 1165.05C977.735 1150.04 968.419 1133.47 962.208 1114.32C955.997 1095.69 952.891 1076.54 952.891 1056.35C952.891 1036.17 956.514 1015.46 963.761 994.761C971.007 974.575 981.359 954.907 994.816 936.274C1007.76 918.158 1023.8 901.596 1041.92 887.103C1060.03 873.128 1080.73 861.742 1103.51 853.46C1125.76 845.179 1150.09 841.038 1175.45 841.038C1209.1 841.038 1237.05 848.284 1259.3 862.777C1281.56 877.787 1296.05 896.937 1302.78 921.264L1214.27 976.128C1212.72 964.223 1208.58 954.907 1202.37 948.178C1195.64 941.45 1188.39 936.791 1180.11 934.203C1171.31 931.616 1163.03 930.58 1154.23 930.58C1138.19 930.58 1124.21 934.203 1112.31 941.45C1099.89 949.213 1089.53 959.048 1081.25 970.952C1072.97 982.857 1066.76 995.796 1062.62 1009.77C1057.96 1023.75 1055.89 1036.69 1055.89 1049.63C1055.89 1063.08 1057.96 1075.5 1062.62 1086.37C1066.76 1097.76 1072.97 1107.08 1081.77 1113.81C1090.57 1120.53 1101.44 1124.16 1114.38 1124.16C1122.66 1124.16 1131.46 1122.6 1141.29 1119.5C1150.61 1116.91 1159.41 1112.25 1168.21 1105.52C1177.01 1098.8 1184.25 1090 1189.95 1079.13L1261.89 1128.3C1251.02 1146.41 1236.53 1161.42 1217.9 1174.36C1198.74 1187.3 1178.56 1196.62 1156.3 1203.35C1134.05 1210.59 1113.34 1213.7 1093.16 1213.7Z" fill="#232323" stroke="#232323" stroke-width="20.7034" stroke-miterlimit="2" stroke-linejoin="round"/>
<path d="M1358.69 843.107H1459.62L1381.46 1210.59H1280.53L1358.69 843.107Z" fill="#232323" stroke="#232323" stroke-width="20.7034" stroke-miterlimit="2" stroke-linejoin="round"/>
<path d="M1611.84 843.107H1704.49L1745.38 1210.59H1642.9L1639.28 1138.65H1551.29L1517.64 1210.59H1414.64L1611.84 843.107ZM1637.72 1071.36L1633.58 957.494L1580.27 1071.36H1637.72Z" fill="#232323" stroke="#232323" stroke-width="20.7034" stroke-miterlimit="2" stroke-linejoin="round"/>
<path d="M1851.96 843.107H1952.89L1893.36 1122.6H2048.12L2029.49 1210.59H1773.8L1851.96 843.107Z" fill="#232323" stroke="#232323" stroke-width="20.7034" stroke-miterlimit="2" stroke-linejoin="round"/>
<path d="M554.183 1272.52H705.318C724.987 1272.52 742.067 1277.69 756.042 1287.53C770.017 1297.88 780.886 1311.34 788.65 1327.38C795.896 1343.43 799.519 1360.51 799.519 1378.62C799.519 1396.74 795.896 1414.34 788.132 1431.93C780.368 1449.53 770.017 1465.58 756.559 1479.55C743.102 1494.04 727.575 1505.43 709.977 1514.23C692.379 1523.03 673.746 1527.17 653.56 1527.17H600.766L576.957 1640H476.028L554.183 1272.52ZM665.464 1439.18C668.57 1439.18 671.675 1438.14 675.298 1436.07C678.922 1434 682.027 1430.9 685.65 1426.24C688.756 1422.1 691.344 1416.92 693.414 1410.19C694.967 1403.47 696.002 1395.7 696.002 1386.9C696.002 1380.17 694.967 1374.48 693.414 1370.86C691.861 1367.23 689.791 1364.13 687.203 1362.58C684.615 1361.02 682.027 1360.51 679.439 1360.51H636.48L619.917 1439.18H665.464Z" fill="#232323" stroke="#232323" stroke-width="20.7034" stroke-miterlimit="2" stroke-linejoin="round"/>
<path d="M865.711 1272.52H966.64L907.118 1552.01H1061.88L1043.24 1640H787.556L865.711 1272.52Z" fill="#232323" stroke="#232323" stroke-width="20.7034" stroke-miterlimit="2" stroke-linejoin="round"/>
<path d="M1221.84 1643.11C1191.82 1643.11 1167.49 1637.41 1149.37 1626.55C1130.74 1615.68 1117.28 1600.15 1109 1581C1100.2 1561.85 1096.06 1540.63 1096.06 1516.82C1096.06 1508.02 1096.58 1498.7 1097.62 1489.38C1098.65 1480.59 1100.2 1471.27 1102.27 1461.44L1142.65 1272.52H1243.58L1203.2 1461.44C1201.65 1468.16 1200.62 1474.37 1200.1 1480.07C1199.58 1486.28 1199.06 1492.49 1199.06 1498.18C1199.06 1509.05 1200.62 1518.37 1203.2 1526.65C1205.79 1534.93 1210.45 1541.66 1216.66 1546.32C1222.87 1550.98 1231.15 1553.57 1240.99 1553.57C1251.34 1553.57 1260.66 1550.98 1268.94 1545.8C1277.22 1541.14 1284.46 1533.9 1291.19 1525.1C1297.92 1516.3 1303.1 1506.47 1307.76 1495.6C1312.41 1484.73 1315.52 1473.34 1318.11 1461.44L1358.48 1272.52H1459.41L1419.04 1461.44C1413.34 1486.8 1405.06 1510.61 1394.19 1532.86C1383.32 1555.12 1369.35 1574.27 1352.79 1590.83C1336.22 1607.39 1317.07 1620.33 1295.33 1629.13C1273.08 1638.45 1248.75 1643.11 1221.84 1643.11Z" fill="#232323" stroke="#232323" stroke-width="20.7034" stroke-miterlimit="2" stroke-linejoin="round"/>
<path d="M1590.4 1642.59C1571.25 1642.59 1553.13 1638.97 1537.09 1632.24C1520.52 1625.51 1506.03 1616.19 1494.13 1603.25C1481.71 1590.31 1471.87 1574.79 1465.14 1556.15C1458.41 1538.04 1454.79 1517.33 1454.79 1494.04C1454.79 1462.47 1461 1433.49 1473.42 1406.05C1485.85 1378.62 1502.93 1354.81 1524.15 1334.63C1545.37 1314.44 1569.7 1298.4 1596.61 1287.01C1623.01 1275.62 1650.96 1269.93 1679.94 1269.93C1711.51 1269.93 1738.43 1277.17 1761.2 1291.15C1783.98 1305.64 1798.99 1325.31 1806.23 1350.15L1719.28 1407.61C1715.65 1393.11 1708.41 1381.21 1697.02 1372.41C1685.12 1363.61 1672.18 1359.47 1657.17 1359.47C1644.23 1359.47 1632.32 1362.58 1620.42 1368.79C1608.51 1375 1597.64 1383.8 1588.85 1394.67C1579.53 1406.05 1572.28 1418.99 1567.11 1433.49C1561.41 1448.5 1558.83 1464.02 1558.83 1481.1C1558.83 1495.08 1561.41 1507.5 1566.07 1518.37C1570.73 1529.24 1577.46 1538.04 1586.26 1543.73C1595.06 1549.94 1605.93 1553.05 1618.35 1553.05C1633.36 1553.05 1648.89 1548.91 1664.41 1540.63C1679.42 1532.86 1694.43 1521.48 1708.41 1506.47L1687.19 1604.81C1671.14 1617.75 1655.61 1627.06 1640.09 1633.27C1624.04 1639.48 1607.48 1642.59 1590.4 1642.59ZM1701.16 1516.82H1638.02L1653.03 1444.36H1800.02L1758.1 1640H1675.28L1701.16 1516.82Z" fill="#232323" stroke="#232323" stroke-width="20.7034" stroke-miterlimit="2" stroke-linejoin="round"/>
<path d="M1949.17 1571.73C1920.41 1611.57 1846.43 1648.21 1744.59 1640.9" stroke="#232323" stroke-width="15.7146" stroke-miterlimit="1.5" stroke-linecap="round" stroke-linejoin="round"/>
<path fill-rule="evenodd" clip-rule="evenodd" d="M2004.62 1572.58L1947.91 1518.67C1947.91 1518.67 1945.97 1520.72 1943.2 1523.63C1938.24 1528.85 1935.56 1535.82 1935.72 1543C1935.91 1550.2 1938.95 1557.03 1944.16 1561.98C1949.78 1567.33 1955.91 1573.16 1961.56 1578.52C1966.77 1583.47 1973.74 1586.16 1980.94 1585.98C1988.12 1585.78 1994.95 1582.75 1999.91 1577.54C2002.68 1574.62 2004.62 1572.58 2004.62 1572.58Z" fill="#434343" stroke="#232323" stroke-width="10.0446" stroke-miterlimit="1.5" stroke-linecap="round" stroke-linejoin="round"/>
<path fill-rule="evenodd" clip-rule="evenodd" d="M2086.67 1311.78C2064.4 1290.4 2032.77 1281.83 2002.75 1289.03C1972.73 1296.24 1948.44 1318.23 1938.29 1347.38C1928.56 1375.33 1918.99 1402.85 1911.46 1424.46C1902.36 1450.61 1909.33 1479.66 1929.31 1498.84C1957.25 1525.66 1997.21 1564.01 2025.15 1590.83C2045.13 1610.01 2074.44 1615.78 2100.2 1605.62C2121.48 1597.22 2148.58 1586.52 2176.11 1575.66C2204.83 1564.32 2225.8 1539.15 2231.77 1508.86C2237.74 1478.57 2227.88 1447.32 2205.6 1425.95" fill="#434343"/>
<path d="M2086.67 1311.78C2064.4 1290.4 2032.77 1281.83 2002.75 1289.03C1972.73 1296.24 1948.44 1318.23 1938.29 1347.38C1928.56 1375.33 1918.99 1402.85 1911.46 1424.46C1902.36 1450.61 1909.33 1479.66 1929.31 1498.84C1957.25 1525.66 1997.21 1564.01 2025.15 1590.83C2045.13 1610.01 2074.44 1615.78 2100.2 1605.62C2121.48 1597.22 2148.58 1586.52 2176.11 1575.66C2204.83 1564.32 2225.8 1539.15 2231.77 1508.86C2237.74 1478.57 2227.88 1447.32 2205.6 1425.95" stroke="#232323" stroke-width="12.5968" stroke-miterlimit="1.5" stroke-linecap="round" stroke-linejoin="round"/>
<path fill-rule="evenodd" clip-rule="evenodd" d="M2154.83 1377.22L2133.1 1356.37Z" fill="#434343"/>
<path d="M2154.83 1377.22L2133.1 1356.37" stroke="#232323" stroke-width="12.5968" stroke-miterlimit="1.5" stroke-linecap="round" stroke-linejoin="round"/>
<path fill-rule="evenodd" clip-rule="evenodd" d="M2205.5 1425.94L2200.16 1420.81Z" fill="#434343"/>
<path d="M2205.5 1425.94L2200.16 1420.81" stroke="#232323" stroke-width="12.5968" stroke-miterlimit="1.5" stroke-linecap="round" stroke-linejoin="round"/>
<path fill-rule="evenodd" clip-rule="evenodd" d="M2074.37 1332.82L2068.09 1326.59C2058.77 1317.33 2046.16 1312.16 2033.02 1312.21C2019.89 1312.26 2007.31 1317.52 1998.06 1326.84C1988.8 1336.16 1983.63 1348.78 1983.68 1361.91C1983.73 1375.05 1988.99 1387.63 1998.31 1396.88C2030.31 1428.65 2077.31 1475.31 2109.31 1507.08C2118.63 1516.33 2131.25 1521.5 2144.39 1521.45C2157.52 1521.41 2170.1 1516.14 2179.35 1506.82C2188.6 1497.5 2193.78 1484.88 2193.73 1471.75C2193.68 1458.61 2188.42 1446.04 2179.1 1436.78" fill="#5A5A5A"/>
<path d="M2074.37 1332.82L2068.09 1326.59C2058.77 1317.33 2046.16 1312.16 2033.02 1312.21C2019.89 1312.26 2007.31 1317.52 1998.06 1326.84C1988.8 1336.16 1983.63 1348.78 1983.68 1361.91C1983.73 1375.05 1988.99 1387.63 1998.31 1396.88C2030.31 1428.65 2077.31 1475.31 2109.31 1507.08C2118.63 1516.33 2131.25 1521.5 2144.39 1521.45C2157.52 1521.41 2170.1 1516.14 2179.35 1506.82C2188.6 1497.5 2193.78 1484.88 2193.73 1471.75C2193.68 1458.61 2188.42 1446.04 2179.1 1436.78" stroke="#232323" stroke-width="6.23679" stroke-miterlimit="1.5" stroke-linecap="round" stroke-linejoin="round"/>
<path fill-rule="evenodd" clip-rule="evenodd" d="M2140.49 1398.45L2111.66 1369.83Z" fill="#434343"/>
<path d="M2140.49 1398.45L2111.66 1369.83" stroke="#232323" stroke-width="6.23679" stroke-miterlimit="1.5" stroke-linecap="round" stroke-linejoin="round"/>
<path fill-rule="evenodd" clip-rule="evenodd" d="M2160.44 1323.05C2165.45 1318.32 2168.37 1311.79 2168.56 1304.89C2168.76 1298 2166.2 1291.32 2161.47 1286.31C2156.73 1281.3 2150.2 1278.38 2143.31 1278.18C2136.42 1277.99 2129.73 1280.54 2124.72 1285.28C2102.36 1306.42 2065.34 1341.43 2042.98 1362.57C2037.97 1367.31 2035.05 1373.84 2034.86 1380.73C2034.67 1387.62 2037.22 1394.31 2041.96 1399.32C2046.69 1404.33 2053.23 1407.25 2060.12 1407.44C2067.01 1407.64 2073.69 1405.08 2078.7 1400.35C2101.06 1379.2 2138.08 1344.2 2160.44 1323.05Z" fill="#FFC940" stroke="#232323" stroke-width="5.66888" stroke-miterlimit="1.5" stroke-linecap="round" stroke-linejoin="round"/>
<path fill-rule="evenodd" clip-rule="evenodd" d="M2224.47 1390.9C2229.48 1386.17 2232.41 1379.63 2232.6 1372.74C2232.79 1365.85 2230.24 1359.17 2225.5 1354.16C2220.76 1349.15 2214.23 1346.22 2207.34 1346.03C2200.45 1345.84 2193.76 1348.39 2188.76 1353.13C2166.39 1374.27 2129.38 1409.28 2107.02 1430.42C2102.01 1435.16 2099.09 1441.69 2098.89 1448.58C2098.7 1455.47 2101.25 1462.16 2105.99 1467.17C2110.73 1472.17 2117.26 1475.1 2124.15 1475.29C2131.04 1475.48 2137.73 1472.93 2142.74 1468.19C2165.1 1447.05 2202.11 1412.05 2224.47 1390.9Z" fill="#FFC940" stroke="#232323" stroke-width="6.29857" stroke-miterlimit="1.5" stroke-linecap="round" stroke-linejoin="round"/>
</svg>
