<svg width="2504" height="2504" viewBox="0 0 2504 2504" fill="none" xmlns="http://www.w3.org/2000/svg">
<rect x="12" y="12" width="2480" height="2480" rx="181.957" fill="#121212" stroke="#555555" stroke-width="23"/>
<g clip-path="url(#clip0_158_1410)">
<path d="M703.659 1258.78C699.383 1251.48 692.466 1245.22 682.908 1239.96C673.323 1234.7 660.551 1230.02 644.648 1225.99C629.071 1222.04 617.362 1218.69 609.492 1216C601.649 1213.27 596.448 1210.58 593.833 1207.85C591.219 1205.13 589.94 1201.86 589.94 1198.02C589.94 1191.22 593.126 1185.93 599.579 1182.17C606.006 1178.42 614.448 1176.81 624.987 1177.46C635.988 1178.09 644.784 1180.84 651.402 1185.8C658.018 1190.75 661.885 1197.48 663.002 1206L708.588 1197.86C706.844 1185.88 702.296 1175.45 694.863 1166.54C687.456 1157.67 677.706 1150.78 665.671 1145.98C653.634 1141.19 639.827 1138.77 624.252 1138.77C608.675 1138.77 594.459 1141.27 582.75 1146.28C570.986 1151.29 561.863 1158.4 555.301 1167.71C548.766 1176.97 545.47 1187.87 545.47 1200.34C545.47 1210.33 547.621 1218.86 551.952 1225.94C556.254 1232.96 563.361 1239.06 573.274 1244.21C583.158 1249.33 596.529 1254.15 613.331 1258.56C628.39 1262.51 639.582 1265.78 646.881 1268.39C654.179 1271 658.889 1273.67 661.041 1276.45C663.192 1279.23 664.281 1282.93 664.281 1287.51C664.281 1294.91 661.34 1300.74 655.458 1305.02C649.577 1309.29 641.298 1311.42 630.542 1311.42C618.314 1311.42 608.185 1308.58 600.152 1302.89C592.118 1297.2 586.917 1289.44 584.575 1279.53L538.989 1286.55C542.338 1306.7 551.707 1322.34 567.173 1333.45C582.614 1344.56 602.684 1350.14 627.41 1350.14C652.137 1350.14 673.486 1344.42 688.109 1332.93C702.76 1321.44 710.085 1305.64 710.085 1285.46C710.085 1275.09 707.962 1266.24 703.686 1258.94V1258.83L703.659 1258.78Z" fill="#ECEDED"/>
<path d="M874.923 1144.23V1247.08C874.923 1259.2 873.533 1269.22 870.838 1277.09C868.114 1285.02 864.52 1291.23 859.972 1295.72C855.479 1300.21 850.415 1303.43 844.885 1305.28C839.303 1307.13 833.693 1308.06 828.002 1308.06C817.355 1308.06 808.913 1305.8 802.704 1301.22C796.469 1296.65 791.757 1290.82 788.599 1283.71C785.439 1276.6 783.425 1269.2 782.58 1261.46C781.736 1253.73 781.273 1246.78 781.273 1240.6V1144.23H736.041V1255.99C736.041 1260.84 736.45 1267.07 737.24 1274.81C738.057 1282.54 739.8 1290.74 742.523 1299.34C745.246 1308 749.439 1316.14 755.13 1323.82C760.822 1331.48 768.474 1337.77 778.115 1342.72C787.754 1347.68 799.981 1350.13 814.822 1350.13C833.612 1350.13 849.406 1346.04 862.287 1337.82C869.204 1333.38 875.168 1328.15 880.26 1322.13L887.694 1344.41H919.745V1144.23H874.923Z" fill="#ECEDED"/>
<path d="M1101.73 1144.23L1094.29 1158.58C1091.93 1156.42 1089.42 1154.33 1086.78 1152.48C1073.87 1143.3 1057.89 1138.67 1038.88 1138.67C1019.87 1138.67 1003.56 1143.27 989.563 1152.48C975.592 1161.71 964.836 1174.23 957.212 1190.11C949.614 1205.99 945.801 1224.07 945.801 1244.33C945.801 1264.59 949.559 1282.34 957.103 1298.25C964.645 1314.2 975.238 1326.81 988.963 1336.07C1002.69 1345.33 1018.75 1349.99 1037.16 1349.99C1056.69 1349.99 1073.05 1345.33 1086.29 1336.07C1087.11 1335.47 1087.9 1334.85 1088.71 1334.25V1346.75C1088.98 1356.28 1087.08 1364.17 1083.05 1370.55C1079.05 1376.92 1073.38 1381.74 1066.08 1385.01C1058.78 1388.27 1050.51 1389.91 1041.25 1389.91C1033.32 1389.91 1025.89 1388.17 1018.89 1384.63C1011.89 1381.09 1006.5 1375.69 1002.69 1368.42L961.568 1388.79C966.769 1397.94 973.442 1405.76 981.584 1412.21C989.726 1418.69 998.903 1423.68 1009.11 1427.13C1019.3 1430.59 1029.97 1432.34 1041.08 1432.34C1056.14 1432.34 1069.9 1430.29 1082.31 1426.24C1094.73 1422.15 1105.16 1415.94 1113.55 1407.61C1121.96 1399.28 1127.65 1388.6 1130.62 1375.64C1131.63 1371.17 1132.34 1366.62 1132.75 1362.02C1133.18 1357.37 1133.37 1352.55 1133.37 1347.48V1144.23H1101.73ZM1073.05 1301.68C1065.7 1307.18 1056.03 1309.93 1044.05 1309.93C1032.07 1309.93 1022.87 1307.02 1015.3 1301.22C1007.75 1295.41 1002.17 1287.52 998.522 1277.55C994.873 1267.61 993.048 1256.5 993.048 1244.27C993.048 1232.05 994.9 1221.15 998.631 1211.19C1002.36 1201.25 1008.08 1193.35 1015.89 1187.47C1023.66 1181.59 1033.57 1178.65 1045.52 1178.65C1057.48 1178.65 1066.16 1181.4 1073.35 1186.9C1080.54 1192.4 1085.8 1200.05 1089.2 1209.88C1092.58 1219.71 1094.29 1231.15 1094.29 1244.27C1094.29 1257.4 1092.58 1268.67 1089.2 1278.56C1085.83 1288.44 1080.43 1296.15 1073.05 1301.65V1301.68Z" fill="#ECEDED"/>
<path d="M1334.81 1197.53C1334.07 1190.17 1331.89 1182.99 1328.32 1175.93C1321.79 1162.7 1311.74 1153.22 1298.21 1147.37C1284.67 1141.57 1269.01 1138.65 1251.23 1138.65C1227.62 1138.65 1208.89 1143.77 1194.97 1154.04C1181.06 1164.3 1171.66 1177.87 1166.71 1194.83L1207.5 1207.63C1210.85 1197.36 1216.73 1190.15 1225.12 1185.95C1233.53 1181.76 1242.22 1179.64 1251.26 1179.64C1266.21 1179.64 1276.86 1182.9 1283.12 1189.47C1288.38 1194.89 1291.34 1202.92 1292.16 1213.38C1284.1 1214.57 1276.2 1215.72 1268.58 1216.81C1255.89 1218.6 1244.18 1220.54 1233.37 1222.64C1222.56 1224.76 1213.13 1227.1 1205.1 1229.66C1194.45 1233.23 1185.85 1237.83 1179.15 1243.47C1172.51 1249.08 1167.55 1255.78 1164.31 1263.48C1161.12 1271.22 1159.46 1279.88 1159.46 1289.51C1159.46 1300.52 1162.02 1310.59 1167.17 1319.74C1172.29 1328.89 1179.86 1336.22 1189.88 1341.72C1199.93 1347.22 1212.13 1349.97 1226.59 1349.97C1244.62 1349.97 1259.67 1346.59 1271.74 1339.87C1281 1334.69 1289.36 1327.18 1296.84 1317.43L1304.27 1344.39H1335.97V1221.46C1335.97 1212.8 1335.6 1204.8 1334.86 1197.47H1334.78L1334.81 1197.53ZM1287.18 1281.24C1285.68 1285.81 1282.82 1290.69 1278.54 1295.89C1274.27 1301.09 1268.58 1305.47 1261.39 1309.04C1254.2 1312.61 1245.59 1314.43 1235.44 1314.43C1228.41 1314.43 1222.5 1313.32 1217.74 1311.08C1212.97 1308.85 1209.38 1305.88 1206.87 1302.1C1204.39 1298.34 1203.14 1293.98 1203.14 1289.05C1203.14 1284.75 1204.09 1280.94 1206 1277.75C1207.91 1274.57 1210.66 1271.68 1214.25 1269.23C1217.82 1266.78 1222.2 1264.57 1227.4 1262.75C1232.71 1261.03 1238.81 1259.42 1245.73 1258.04C1252.65 1256.62 1260.95 1255.1 1270.57 1253.49C1276.69 1252.45 1283.72 1251.34 1291.43 1250.11C1291.34 1253.49 1291.24 1257.35 1291.04 1261.74C1290.75 1269.09 1289.41 1275.6 1287.07 1281.29V1281.21L1287.18 1281.24Z" fill="#ECEDED"/>
<path d="M1463.69 1143.36C1457.4 1143.79 1451.25 1144.96 1445.25 1146.9C1439.26 1148.83 1433.8 1151.44 1428.86 1154.79C1423.07 1158.36 1418.08 1162.93 1413.94 1168.41C1412.03 1170.89 1410.38 1173.53 1408.85 1176.31L1401.42 1144.25H1369.36V1344.41H1414.21V1242.67C1414.21 1235.02 1415.14 1227.85 1416.99 1221.24C1418.84 1214.62 1421.71 1208.74 1425.62 1203.54C1429.52 1198.34 1434.56 1194.09 1440.72 1190.74C1446.9 1187.01 1453.84 1184.86 1461.57 1184.23C1469.31 1183.6 1476.11 1184.15 1482.04 1185.89V1144.2C1476.14 1143.19 1470.01 1142.95 1463.72 1143.38H1463.69V1143.36Z" fill="#ECEDED"/>
<path d="M1619.37 1299.89C1612.54 1305.31 1603.14 1308.03 1591.3 1308.03C1574.5 1308.03 1561.87 1302.15 1553.28 1290.44C1544.76 1278.68 1540.49 1263.32 1540.49 1244.28C1540.49 1232.06 1542.28 1221.11 1545.88 1211.47C1549.45 1201.83 1555.03 1194.26 1562.57 1188.76C1570.14 1183.26 1579.67 1180.51 1591.32 1180.51C1601.6 1180.51 1610.74 1183.53 1618.78 1189.52C1626.81 1195.51 1632.53 1203.87 1636.04 1214.63L1680.51 1202.59C1675.69 1182.79 1665.43 1167.22 1649.65 1155.81C1633.89 1144.4 1614.66 1138.65 1591.9 1138.65C1571.63 1138.65 1554.16 1143.2 1539.42 1152.27C1524.69 1161.34 1513.39 1173.84 1505.39 1189.71C1497.44 1205.59 1493.37 1223.78 1493.26 1244.31C1493.37 1264.46 1497.32 1282.52 1505.06 1298.42C1512.79 1314.38 1523.95 1326.93 1538.53 1336.14C1553.09 1345.31 1570.74 1349.94 1591.38 1349.94C1613.73 1349.94 1632.66 1344.47 1648.08 1333.55C1663.51 1322.6 1674.33 1306.97 1680.51 1286.57L1634.92 1276.39C1631.46 1286.66 1626.29 1294.5 1619.46 1299.92H1619.37V1299.89Z" fill="#ECEDED"/>
<path d="M1803.76 1138.69C1744.15 1137.14 1702.27 1186.92 1704.17 1245.41C1704.17 1265.45 1708.45 1283.15 1716.92 1298.56C1725.44 1313.95 1737.23 1326.01 1752.4 1334.67C1767.57 1343.33 1783.72 1347.69 1803.76 1347.69C1823.8 1347.69 1839.95 1343.33 1855.12 1334.67C1870.28 1326.01 1882.08 1313.95 1890.61 1298.56C1899.12 1283.18 1903.32 1265.48 1903.32 1245.41C1905.25 1186.92 1863.37 1137.16 1803.76 1138.69ZM1843.36 1289.8C1834.53 1300.8 1820.59 1306.27 1803.76 1306.27C1786.93 1306.27 1772.96 1300.8 1764.17 1289.8C1745.24 1264.69 1744.85 1214.75 1768.74 1192.03C1777.1 1183.51 1787.77 1177.27 1803.81 1177.38C1819.8 1177.27 1830.47 1183.51 1838.89 1192.03C1862.77 1214.75 1862.39 1264.74 1843.46 1289.8H1843.38H1843.36Z" fill="#ECEDED"/>
<path d="M2069.24 1071.88V1153.93C2068.56 1153.44 2067.99 1152.92 2067.31 1152.43C2054.4 1143.25 2038.41 1138.63 2019.4 1138.63C2000.4 1138.63 1984.09 1143.23 1970.09 1152.43C1956.09 1161.66 1945.37 1174.19 1937.74 1190.07C1930.14 1205.94 1926.33 1224.02 1926.33 1244.28C1926.33 1264.54 1930.09 1282.3 1937.63 1298.2C1945.21 1314.16 1955.8 1326.77 1969.52 1336.03C1983.25 1345.29 1999.31 1349.94 2017.71 1349.94C2037.24 1349.94 2053.61 1345.29 2066.85 1336.03C2069.68 1334.07 2072.31 1331.89 2074.8 1329.63L2082.23 1344.39H2114.28V1071.88H2069.24ZM2069.7 1278.6C2066.32 1288.48 2060.94 1296.19 2053.55 1301.69C2046.2 1307.19 2036.54 1309.94 2024.55 1309.94C2012.58 1309.94 2003.37 1307.03 1995.8 1301.22C1988.26 1295.42 1982.67 1287.53 1979.03 1277.56C1975.38 1267.62 1973.55 1256.51 1973.55 1244.28C1973.55 1232.06 1975.4 1221.16 1979.13 1211.2C1982.86 1201.26 1988.58 1193.36 1996.39 1187.48C2004.16 1181.6 2014.07 1178.66 2026.03 1178.66C2037.98 1178.66 2046.67 1181.41 2053.83 1186.91C2061.02 1192.41 2066.3 1200.06 2069.68 1209.89C2073.05 1219.72 2074.77 1231.16 2074.77 1244.28C2074.77 1257.41 2073.05 1268.68 2069.68 1278.57L2069.7 1278.6Z" fill="#ECEDED"/>
<path d="M2333.17 1256.72C2339.9 1195.1 2305.47 1136.63 2239.93 1138.64C2179.69 1137.09 2138.41 1187.39 2140.37 1246.54C2140.37 1266.8 2144.65 1284.74 2153.25 1300.32C2161.83 1315.89 2173.79 1328.07 2189.11 1336.84C2204.44 1345.6 2222.2 1349.99 2242.48 1349.99C2262.77 1349.99 2279.41 1344.98 2295.4 1334.96C2311.38 1324.96 2323.2 1310.94 2330.88 1292.88L2286.76 1279.54C2282.44 1288.8 2276.28 1295.91 2268.33 1300.78C2260.38 1305.66 2250.88 1308.11 2239.87 1308.11C2222.79 1308.11 2209.86 1302.52 2200.93 1291.41C2193.93 1282.67 2189.74 1271.1 2188.25 1256.75H2333.17V1256.72ZM2241.8 1177.72C2259.26 1177.72 2270.08 1185.26 2277.18 1195.75C2282.25 1203.21 2285.94 1211.49 2287.8 1222.93H2189.38C2192.25 1209.77 2197.93 1200.32 2205.61 1192.51C2214.06 1183.93 2225.57 1177.59 2241.8 1177.69V1177.72Z" fill="#ECEDED"/>
<path d="M244.209 1121.02C285.247 1099.42 334.917 1099.67 375.629 1121.94C332.139 1131.07 279.419 1169.27 244.209 1121.02ZM403.622 1141.96C330.669 1132.27 277.486 1224.91 225.964 1132.59C213.137 1142.1 201.401 1154.46 192.795 1167.78C260.657 1252.55 341.616 1151.95 426.742 1169.63C420.587 1159.66 412.554 1150.1 403.622 1141.99V1141.96ZM181.876 1187.6C155.706 1244.76 173.652 1318.34 227.189 1356.6C302.402 1323.87 358.336 1238.17 448.091 1245.3C448.255 1227.55 445.068 1209.71 438.37 1193.05C306.188 1159.58 311.335 1329.56 181.876 1187.6ZM446.24 1266.41C362.449 1266.14 384.941 1308.18 335.761 1338.11C300.987 1359.27 271.141 1352.57 248.893 1369.51C290.775 1389.6 340.772 1387.45 380.993 1363.08C415.44 1342.74 440.739 1304.61 446.24 1266.41Z" fill="url(#paint0_linear_158_1410)"/>
</g>
<defs>
<linearGradient id="paint0_linear_158_1410" x1="430.257" y1="1105.14" x2="183.116" y2="1361.2" gradientUnits="userSpaceOnUse">
<stop stop-color="#ECECEC"/>
<stop offset="0.40625" stop-color="#FF5E1F"/>
<stop offset="0.5455" stop-color="#F70186"/>
<stop offset="0.796875" stop-color="#0000F5"/>
<stop offset="0.875" stop-color="#0062F5"/>
</linearGradient>
<clipPath id="clip0_158_1410">
<rect width="2164" height="361.801" fill="white" transform="translate(170 1071)"/>
</clipPath>
</defs>
</svg>
