<svg width="985" height="844" viewBox="0 0 985 844" fill="none" xmlns="http://www.w3.org/2000/svg">
<path fill-rule="evenodd" clip-rule="evenodd" d="M492.334 703.331C647.708 703.331 773.669 577.377 773.669 422C773.669 266.624 647.708 140.667 492.334 140.667C336.959 140.667 211.001 266.624 211.001 422C211.001 577.377 336.959 703.331 492.334 703.331ZM492.334 844C725.399 844 914.338 655.062 914.338 422C914.338 188.936 725.399 0 492.334 0C259.27 0 70.3345 188.936 70.3345 422C70.3345 655.062 259.27 844 492.334 844Z" fill="#E22311"/>
<path d="M984.669 339.945H0V527.5H984.669V339.945Z" fill="#25358A"/>
<path d="M117.739 416.732V399.09H187.193V416.732H162.576V483.842H142.532V416.732H117.739ZM266.02 483.842H245.506L232.436 452.895H217.9V483.842H197.914V399.09H235.014C242.087 399.09 247.811 400.243 252.187 402.549C256.564 404.814 259.768 407.94 261.799 411.926C263.831 415.872 264.848 420.366 264.848 425.406C264.848 429.822 264.222 433.573 262.972 436.66C261.721 439.708 260.022 442.287 257.873 444.397C255.763 446.468 253.379 448.226 250.722 449.672L266.02 483.842ZM232.26 437.832C236.011 437.832 239.019 436.64 241.286 434.257C243.591 431.873 244.744 429.04 244.744 425.758C244.744 422.32 243.572 419.506 241.227 417.318C238.883 415.13 236.089 414.036 232.846 414.036H217.9V437.832H232.26ZM275.326 483.842L305.452 399.09H326.142L356.327 483.842H336.516L330.245 465.79H301.642L295.254 483.842H275.326ZM305.98 448.616H325.673L315.885 418.256L305.98 448.616ZM423.307 399.09H443.235V483.842H425.241L387.437 429.451V483.842H367.451V399.09H387.437L423.307 450.785V399.09ZM493.925 485.014C489.627 485.014 485.387 484.487 481.206 483.431C477.064 482.338 473.274 480.716 469.836 478.567C466.397 476.379 463.544 473.644 461.278 470.361C459.051 467.079 457.742 463.23 457.351 458.815H477.748C478.256 461.12 479.233 463.074 480.678 464.676C482.124 466.239 483.961 467.451 486.188 468.31C488.454 469.131 490.994 469.541 493.808 469.541C496.542 469.541 499.082 469.228 501.427 468.603C503.771 467.978 505.647 467.001 507.053 465.672C508.5 464.344 509.222 462.566 509.222 460.339C509.222 458.424 508.558 456.9 507.229 455.767C505.94 454.595 504.221 453.677 502.072 453.012C499.923 452.309 497.597 451.723 495.097 451.254L481.265 448.616C474.817 447.483 469.659 444.904 465.791 440.88C461.923 436.855 459.93 431.404 459.813 424.527C459.735 419.018 461.2 414.29 464.209 410.344C467.257 406.358 471.339 403.31 476.459 401.2C481.577 399.09 487.263 398.035 493.514 398.035C501.016 398.035 507.346 399.168 512.504 401.435C517.701 403.701 521.648 406.827 524.344 410.812C527.04 414.759 528.427 419.233 528.505 424.234H508.636C508.363 421.655 507.581 419.584 506.291 418.022C505.002 416.459 503.302 415.345 501.192 414.681C499.121 413.977 496.699 413.626 493.925 413.626C491.658 413.626 489.705 413.86 488.063 414.329C486.423 414.759 485.055 415.365 483.961 416.146C482.867 416.927 482.046 417.846 481.499 418.901C480.991 419.916 480.737 420.991 480.737 422.124C480.737 424.312 481.44 426.091 482.847 427.458C484.293 428.787 487.048 429.88 491.111 430.74L504.885 433.319C510.512 434.335 514.946 435.898 518.19 438.008C521.433 440.118 523.855 442.502 525.457 445.159C527.059 447.776 528.075 450.414 528.505 453.071C528.974 455.728 529.208 458.15 529.208 460.339C529.208 464.989 527.684 469.189 524.637 472.94C521.628 476.691 517.467 479.642 512.152 481.791C506.878 483.94 500.801 485.014 493.925 485.014ZM542.941 483.842V399.09H575.353C581.526 399.09 587.094 400.184 592.057 402.372C597.02 404.561 600.927 407.765 603.779 411.984C606.671 416.165 608.116 421.284 608.116 427.341C608.116 432.928 606.866 437.734 604.365 441.759C601.904 445.744 598.407 448.812 593.874 450.961C589.38 453.071 584.067 454.126 577.932 454.126H562.986V483.842H542.941ZM562.81 439.004H577.345C580.901 439.004 583.832 437.754 586.137 435.253C588.481 432.713 589.654 429.724 589.654 426.286C589.654 422.73 588.403 419.819 585.903 417.552C583.441 415.247 580.53 414.095 577.17 414.095H562.81V439.004ZM657.078 485.014C648.868 485.014 641.761 483.256 635.739 479.739C629.762 476.183 625.132 471.162 621.85 464.676C618.568 458.19 616.926 450.512 616.926 441.642C616.926 432.694 618.587 424.957 621.908 418.432C625.229 411.906 629.899 406.866 635.916 403.31C641.97 399.715 649.026 397.918 657.078 397.918C665.122 397.918 672.121 399.715 678.055 403.31C684.033 406.866 688.668 411.906 691.952 418.432C695.267 424.957 696.928 432.694 696.928 441.642C696.928 450.512 695.311 458.19 692.066 464.676C688.82 471.162 684.211 476.183 678.233 479.739C672.254 483.256 665.205 485.014 657.078 485.014ZM657.078 468.838C660.71 468.838 663.893 467.958 666.631 466.2C669.364 464.402 671.475 461.531 672.958 457.584C674.48 453.638 675.247 448.421 675.247 441.935C675.247 435.253 674.48 429.88 672.958 425.817C671.437 421.714 669.307 418.744 666.568 416.908C663.835 415.032 660.672 414.095 657.078 414.095C653.439 414.095 650.256 415.032 647.524 416.908C644.785 418.784 642.636 421.773 641.076 425.876C639.549 429.939 638.788 435.292 638.788 441.935C638.788 448.421 639.549 453.638 641.076 457.584C642.636 461.531 644.785 464.402 647.524 466.2C650.256 467.958 653.439 468.838 657.078 468.838ZM779.095 483.842H758.58L745.515 452.895H730.978V483.842H710.989V399.09H748.088C755.163 399.09 760.888 400.243 765.262 402.549C769.643 404.814 772.844 407.94 774.873 411.926C776.908 415.872 777.922 420.366 777.922 425.406C777.922 429.822 777.301 433.573 776.046 436.66C774.797 439.708 773.098 442.287 770.949 444.397C768.838 446.468 766.454 448.226 763.798 449.672L779.095 483.842ZM745.337 437.832C749.09 437.832 752.095 436.64 754.365 434.257C756.666 431.873 757.82 429.04 757.82 425.758C757.82 422.32 756.647 419.506 754.301 417.318C751.962 415.13 749.166 414.036 745.92 414.036H730.978V437.832H745.337ZM785.701 416.732V399.09H855.151V416.732H830.535V483.842H810.495V416.732H785.701Z" fill="white"/>
</svg>
