<svg width="428" height="926" viewBox="0 0 428 926" fill="none" xmlns="http://www.w3.org/2000/svg">
<rect width="428" height="926" fill="#F8F2E9"/>
<g clip-path="url(#clip0_562_1827)">
<path d="M240.646 92.0176C240.549 91.6316 240.501 91.2208 240.501 90.7849C240.501 89.1541 241.237 87.7352 242.71 86.5279C244.183 85.3207 247.195 83.8385 251.746 82.0813V80.735C251.746 79.3191 251.565 78.3046 251.205 77.6915C250.845 77.0784 250.254 76.7719 249.432 76.7719C248.762 76.7719 248.206 76.9709 247.764 77.3692C247.321 77.7674 247.1 78.2635 247.1 78.8578C247.1 79.1737 247.113 79.5435 247.138 79.967C247.163 80.3905 247.176 80.6592 247.176 80.7729C247.176 81.6957 246.92 82.4384 246.408 83.001C245.896 83.5635 245.216 83.8447 244.369 83.8447C243.598 83.8447 242.979 83.6014 242.511 83.1147C242.043 82.628 241.809 81.9864 241.809 81.1901C241.809 79.4708 242.625 78.0455 244.256 76.9141C245.886 75.7826 247.985 75.217 250.551 75.217C251.992 75.217 253.297 75.4003 254.467 75.7669C255.636 76.1336 256.594 76.6644 257.339 77.3597C257.946 77.9286 258.376 78.5923 258.629 79.3507C258.882 80.1092 259.008 81.2532 259.008 82.7829V88.1871C259.008 89.6914 259.125 90.7597 259.359 91.3916C259.593 92.0237 259.969 92.3398 260.487 92.3398C260.601 92.3398 260.715 92.3146 260.828 92.264C260.942 92.2133 261.062 92.1376 261.189 92.0363V93.2689C260.683 93.9136 260.029 94.413 259.226 94.7669C258.423 95.1209 257.535 95.2979 256.562 95.2979C255.45 95.2979 254.517 95.0388 253.765 94.5205C253.013 94.0021 252.46 93.2374 252.106 92.2261C251.145 93.3259 250.137 94.1444 249.081 94.6816C248.026 95.2188 246.91 95.4875 245.735 95.4875C244.18 95.4875 242.919 95.0482 241.952 94.1697C241.629 93.8765 241.36 93.5555 241.145 93.2066C240.384 93.8039 239.157 94.494 238.538 94.7669C237.736 95.1209 236.848 95.2979 235.874 95.2979C234.762 95.2979 233.829 95.0388 233.077 94.5205C232.325 94.0021 231.772 93.2374 231.418 92.2261C230.457 93.3259 229.449 94.1444 228.394 94.6816C227.338 95.2188 226.223 95.4875 225.047 95.4875C223.492 95.4875 222.231 95.0482 221.264 94.1697C220.297 93.2911 219.813 92.1628 219.813 90.7849C219.813 89.1541 220.55 87.7352 222.022 86.5279C223.495 85.3207 226.507 83.8385 231.058 82.0813V80.735C231.058 79.3191 230.878 78.3046 230.517 77.6915C230.157 77.0784 229.566 76.7719 228.744 76.7719C228.075 76.7719 227.518 76.9709 227.076 77.3692C226.633 77.7674 226.412 78.2635 226.412 78.8578C226.412 79.1737 226.425 79.5435 226.45 79.967C226.475 80.3905 226.488 80.6592 226.488 80.7729C226.488 81.6957 226.232 82.4384 225.72 83.001C225.208 83.5635 224.529 83.8447 223.682 83.8447C222.91 83.8447 222.291 83.6014 221.823 83.1147C221.356 82.628 221.122 81.9864 221.122 81.1901C221.122 79.4708 221.937 78.0455 223.568 76.9141C225.199 75.7826 227.297 75.217 229.863 75.217C231.304 75.217 232.61 75.4003 233.779 75.7669C234.948 76.1336 235.906 76.6644 236.652 77.3597C237.258 77.9286 237.688 78.5923 237.941 79.3507C238.194 80.1092 238.32 81.2532 238.32 82.7829V88.1871C238.32 89.6914 238.437 90.7597 238.671 91.3916C238.905 92.0237 239.281 92.3398 239.799 92.3398C239.913 92.3398 240.027 92.3146 240.141 92.264C240.194 92.2403 240.414 92.1343 240.646 92.0176ZM182.778 94.6722L178.246 85.6651V90.8228C178.246 91.8215 178.423 92.5326 178.777 92.9561C179.131 93.3796 179.731 93.5913 180.578 93.5913H180.692V94.6722H168.499V93.5913H168.613C169.448 93.5913 170.045 93.3796 170.405 92.9561C170.765 92.5326 170.946 91.8215 170.946 90.8228V75.2548C170.946 74.6734 170.879 74.2531 170.746 73.994C170.614 73.7348 170.313 73.4156 169.846 73.0364L167.798 71.3677C168.683 71.1022 169.915 70.6788 171.495 70.0972C173.076 69.5157 175.326 68.6561 178.246 67.5183V84.6222C179.902 83.3454 181.15 82.1919 181.991 81.1616C182.832 80.1314 183.252 79.237 183.252 78.4785C183.252 78.0739 183.097 77.7516 182.787 77.5115C182.478 77.2712 182.051 77.1511 181.507 77.1511H181.394V76.0703H191.254V77.1511H190.932C189.63 77.1511 188.403 77.4925 187.253 78.175C186.103 78.8578 184.921 79.9448 183.707 81.4366L189.149 90.7469C189.743 91.7836 190.319 92.5042 190.875 92.9087C191.429 93.3119 192.122 93.5393 192.953 93.5909C193.752 93.5796 194.326 93.368 194.677 92.9561C195.037 92.5326 195.217 91.8215 195.217 90.8228V82.7829C195.217 82.2014 195.154 81.781 195.027 81.5219C194.901 81.2628 194.604 80.9499 194.136 80.5833L192.069 78.9146C193.574 78.4343 195.198 77.8717 196.943 77.227C198.687 76.5823 200.545 75.8617 202.518 75.0652V90.8228C202.518 91.7962 202.691 92.4946 203.039 92.9181C203.387 93.3416 203.965 93.566 204.774 93.5913H204.811C205.645 93.5913 206.243 93.3796 206.603 92.9561C206.963 92.5326 207.143 91.8215 207.143 90.8228V83.6741C207.143 83.0673 207.067 82.6185 206.916 82.3278C206.764 82.0371 206.48 81.7526 206.063 81.4745L203.692 79.8058C204.931 79.376 206.36 78.7851 207.978 78.0329C209.596 77.2807 211.58 76.2915 213.932 75.0652V78.4027C214.564 77.3407 215.25 76.5444 215.989 76.0134C216.729 75.4825 217.522 75.217 218.369 75.217C219.304 75.217 220.057 75.4951 220.625 76.0513C221.194 76.6075 221.479 77.3407 221.479 78.2509C221.479 79.0474 221.242 79.6857 220.768 80.1661C220.294 80.6465 219.665 80.8866 218.881 80.8866C218.173 80.8866 217.494 80.6023 216.842 80.0333C216.191 79.4645 215.777 79.1801 215.6 79.1801C215.183 79.1801 214.886 79.4582 214.709 80.0144C214.532 80.5707 214.444 81.563 214.444 82.9915V90.8228C214.444 91.8089 214.643 92.5168 215.041 92.9465C215.439 93.3764 216.093 93.5913 217.004 93.5913H217.117V94.6722H182.778ZM251.746 83.4845C250.608 83.9396 249.742 84.657 249.148 85.6367C248.554 86.6164 248.257 87.8142 248.257 89.23C248.257 90.0391 248.418 90.6838 248.74 91.1642C249.062 91.6445 249.483 91.8847 250.001 91.8847C250.671 91.8847 251.129 91.6192 251.376 91.0883C251.622 90.5573 251.746 89.23 251.746 87.1063V83.4845ZM231.058 83.4845C229.92 83.9396 229.054 84.657 228.46 85.6367C227.866 86.6164 227.569 87.8142 227.569 89.23C227.569 90.0391 227.73 90.6838 228.052 91.1642C228.375 91.6445 228.795 91.8847 229.313 91.8847C229.983 91.8847 230.442 91.6192 230.688 91.0883C230.935 90.5573 231.058 89.23 231.058 87.1063V83.4845ZM194.705 71.3297C194.705 70.2679 195.075 69.3671 195.814 68.6277C196.554 67.8881 197.455 67.5183 198.517 67.5183C199.591 67.5183 200.495 67.8881 201.228 68.6277C201.961 69.3671 202.328 70.2679 202.328 71.3297C202.328 72.3917 201.958 73.2923 201.219 74.0319C200.479 74.7713 199.578 75.1411 198.517 75.1411C197.455 75.1411 196.554 74.7745 195.814 74.0413C195.075 73.3081 194.705 72.4043 194.705 71.3297Z" fill="#3E3E3E"/>
</g>
<path d="M381 116H359C358.448 116 358 116.448 358 117V135C358 135.552 358.448 136 359 136H381C381.552 136 382 135.552 382 135V117C382 116.448 381.552 116 381 116Z" stroke="#3E3E3E" stroke-width="2" stroke-linecap="round" stroke-linejoin="round"/>
<path d="M375 121C375 122.326 374.473 123.598 373.536 124.536C372.598 125.473 371.326 126 370 126C368.674 126 367.402 125.473 366.464 124.536C365.527 123.598 365 122.326 365 121" stroke="#3E3E3E" stroke-width="2" stroke-linecap="round" stroke-linejoin="round"/>
<g filter="url(#filter0_d_562_1827)">
<rect x="82" y="824" width="264" height="56" rx="28" fill="#F8F2E9" shape-rendering="crispEdges"/>
<path d="M121 862V856C121 855.735 120.895 855.48 120.707 855.293C120.52 855.105 120.265 855 120 855H116C115.735 855 115.48 855.105 115.293 855.293C115.105 855.48 115 855.735 115 856V862C115 862.265 114.895 862.52 114.707 862.707C114.52 862.895 114.265 863 114 863H108C107.735 863 107.48 862.895 107.293 862.707C107.105 862.52 107 862.265 107 862V850.438C107.002 850.299 107.032 850.163 107.088 850.036C107.144 849.909 107.224 849.795 107.325 849.7L117.325 840.613C117.509 840.444 117.75 840.35 118 840.35C118.25 840.35 118.491 840.444 118.675 840.613L128.675 849.7C128.776 849.795 128.856 849.909 128.912 850.036C128.968 850.163 128.998 850.299 129 850.438V862C129 862.265 128.895 862.52 128.707 862.707C128.52 862.895 128.265 863 128 863H122C121.735 863 121.48 862.895 121.293 862.707C121.105 862.52 121 862.265 121 862Z" stroke="#4A4A4A" stroke-width="2" stroke-linecap="round" stroke-linejoin="round"/>
<path d="M178 845C178 843.939 178.421 842.922 179.172 842.172C179.922 841.421 180.939 841 182 841C183.061 841 184.078 841.421 184.828 842.172C185.579 842.922 186 843.939 186 845L168.4 858.2C168.232 858.326 168.108 858.501 168.045 858.702C167.983 858.902 167.985 859.117 168.051 859.316C168.118 859.515 168.245 859.689 168.415 859.811C168.586 859.934 168.79 860 169 860H195C195.21 860 195.414 859.934 195.585 859.811C195.755 859.689 195.882 859.515 195.949 859.316C196.015 859.117 196.017 858.902 195.955 858.702C195.892 858.501 195.768 858.326 195.6 858.2L182 848" stroke="#4A4A4A" stroke-width="2.5" stroke-linecap="round" stroke-linejoin="round"/>
<path d="M246 856C250.418 856 254 852.418 254 848C254 843.582 250.418 840 246 840C241.582 840 238 843.582 238 848C238 852.418 241.582 856 246 856Z" stroke="#4A4A4A" stroke-width="2" stroke-miterlimit="10"/>
<path d="M233.875 863C235.104 860.871 236.871 859.104 238.999 857.875C241.128 856.646 243.542 855.999 246 855.999C248.458 855.999 250.872 856.646 253.001 857.875C255.129 859.104 256.896 860.871 258.125 863" stroke="#4A4A4A" stroke-width="2" stroke-linecap="round" stroke-linejoin="round"/>
<path d="M305.954 841.143L306.937 838.606C307.103 838.176 307.394 837.807 307.774 837.546C308.153 837.285 308.602 837.144 309.063 837.143H310.937C311.397 837.144 311.847 837.285 312.226 837.546C312.605 837.807 312.897 838.176 313.063 838.606L314.046 841.143L317.383 843.063L320.08 842.651C320.529 842.59 320.986 842.664 321.393 842.864C321.8 843.063 322.139 843.379 322.366 843.771L323.28 845.371C323.514 845.77 323.622 846.23 323.589 846.691C323.557 847.152 323.385 847.593 323.097 847.954L321.428 850.08V853.92L323.143 856.046C323.431 856.407 323.603 856.848 323.635 857.309C323.668 857.77 323.56 858.23 323.326 858.629L322.411 860.229C322.184 860.621 321.846 860.937 321.439 861.136C321.032 861.336 320.575 861.409 320.126 861.349L317.428 860.937L314.091 862.857L313.108 865.394C312.943 865.824 312.651 866.193 312.272 866.454C311.892 866.715 311.443 866.856 310.983 866.857H309.063C308.602 866.856 308.153 866.715 307.774 866.454C307.394 866.193 307.103 865.824 306.937 865.394L305.954 862.857L302.617 860.937L299.92 861.349C299.471 861.409 299.014 861.336 298.607 861.136C298.2 860.937 297.861 860.621 297.634 860.229L296.72 858.629C296.486 858.23 296.378 857.77 296.41 857.309C296.443 856.848 296.615 856.407 296.903 856.046L298.571 853.92V850.08L296.857 847.954C296.569 847.593 296.397 847.152 296.365 846.691C296.332 846.23 296.44 845.77 296.674 845.371L297.588 843.771C297.815 843.379 298.154 843.063 298.561 842.864C298.968 842.664 299.425 842.59 299.874 842.651L302.571 843.063L305.954 841.143ZM305.428 852C305.428 852.904 305.697 853.788 306.199 854.54C306.701 855.291 307.415 855.877 308.25 856.223C309.086 856.569 310.005 856.66 310.892 856.484C311.778 856.307 312.593 855.872 313.232 855.232C313.872 854.593 314.307 853.779 314.483 852.892C314.66 852.005 314.569 851.086 314.223 850.251C313.877 849.415 313.291 848.701 312.54 848.199C311.788 847.697 310.904 847.429 310 847.429C308.787 847.429 307.625 847.91 306.767 848.767C305.91 849.625 305.428 850.788 305.428 852V852Z" stroke="#3E3E3E" stroke-width="2" stroke-linecap="round" stroke-linejoin="round"/>
</g>
<path d="M173.62 207.54H176.56V219.53H182.84V222H173.62V207.54ZM187.733 211.66V222H184.943V211.66H187.733ZM187.763 207.55V210.18H184.923V207.55H187.763ZM194.469 222.2C193.749 222.2 193.056 222.083 192.389 221.85C191.722 221.61 191.159 221.237 190.699 220.73C190.239 220.217 189.946 219.553 189.819 218.74H192.349C192.436 219.107 192.592 219.397 192.819 219.61C193.052 219.823 193.316 219.977 193.609 220.07C193.902 220.157 194.182 220.2 194.449 220.2C195.009 220.2 195.459 220.113 195.799 219.94C196.146 219.76 196.319 219.487 196.319 219.12C196.319 218.84 196.216 218.617 196.009 218.45C195.809 218.283 195.476 218.157 195.009 218.07L193.189 217.69C192.276 217.497 191.542 217.17 190.989 216.71C190.436 216.243 190.152 215.583 190.139 214.73C190.139 214.11 190.302 213.553 190.629 213.06C190.962 212.567 191.452 212.177 192.099 211.89C192.746 211.603 193.539 211.46 194.479 211.46C195.752 211.46 196.769 211.74 197.529 212.3C198.296 212.86 198.686 213.65 198.699 214.67H196.259C196.186 214.27 195.986 213.963 195.659 213.75C195.339 213.53 194.936 213.42 194.449 213.42C193.942 213.42 193.526 213.51 193.199 213.69C192.872 213.87 192.709 214.143 192.709 214.51C192.709 214.783 192.842 215 193.109 215.16C193.376 215.313 193.789 215.447 194.349 215.56L196.029 215.94C196.609 216.08 197.079 216.273 197.439 216.52C197.806 216.76 198.089 217.023 198.289 217.31C198.489 217.597 198.626 217.887 198.699 218.18C198.779 218.467 198.819 218.727 198.819 218.96C198.819 219.647 198.636 220.233 198.269 220.72C197.902 221.2 197.392 221.567 196.739 221.82C196.086 222.073 195.329 222.2 194.469 222.2ZM207.05 213.69H204.75L204.77 219.2C204.77 219.453 204.8 219.643 204.86 219.77C204.927 219.89 205.027 219.97 205.16 220.01C205.3 220.043 205.477 220.06 205.69 220.06H207.08V221.86C206.947 221.92 206.737 221.977 206.45 222.03C206.17 222.083 205.777 222.11 205.27 222.11C204.363 222.11 203.66 221.993 203.16 221.76C202.667 221.527 202.323 221.2 202.13 220.78C201.937 220.36 201.84 219.873 201.84 219.32V213.69H200.16V211.66H201.94L202.67 208.54H204.75V211.65H207.05V213.69ZM213.815 207.54H216.725V222H213.815V207.54ZM225.683 213.69H223.383L223.403 219.2C223.403 219.453 223.433 219.643 223.493 219.77C223.559 219.89 223.659 219.97 223.793 220.01C223.933 220.043 224.109 220.06 224.323 220.06H225.713V221.86C225.579 221.92 225.369 221.977 225.083 222.03C224.803 222.083 224.409 222.11 223.903 222.11C222.996 222.11 222.293 221.993 221.793 221.76C221.299 221.527 220.956 221.2 220.763 220.78C220.569 220.36 220.473 219.873 220.473 219.32V213.69H218.793V211.66H220.573L221.303 208.54H223.383V211.65H225.683V213.69ZM229.908 217.5C229.901 218.027 229.984 218.487 230.158 218.88C230.331 219.267 230.581 219.567 230.908 219.78C231.241 219.987 231.641 220.09 232.108 220.09C232.608 220.09 233.044 219.983 233.418 219.77C233.798 219.557 234.061 219.207 234.208 218.72H236.838C236.724 219.453 236.431 220.08 235.958 220.6C235.491 221.12 234.924 221.517 234.258 221.79C233.591 222.063 232.898 222.2 232.178 222.2C231.158 222.2 230.258 221.987 229.478 221.56C228.704 221.127 228.101 220.517 227.668 219.73C227.234 218.943 227.018 218.017 227.018 216.95C227.018 215.917 227.214 214.987 227.608 214.16C228.001 213.327 228.571 212.67 229.318 212.19C230.071 211.703 230.974 211.46 232.028 211.46C233.081 211.46 233.964 211.683 234.678 212.13C235.398 212.57 235.938 213.187 236.298 213.98C236.664 214.767 236.848 215.677 236.848 216.71V217.5H229.908ZM229.898 215.76H234.118C234.118 215.347 234.041 214.967 233.888 214.62C233.734 214.273 233.501 214 233.188 213.8C232.881 213.6 232.494 213.5 232.028 213.5C231.574 213.5 231.188 213.61 230.868 213.83C230.554 214.043 230.314 214.323 230.148 214.67C229.981 215.017 229.898 215.38 229.898 215.76ZM238.875 222V211.66H241.735V213.12C242.048 212.667 242.468 212.277 242.995 211.95C243.528 211.623 244.198 211.46 245.005 211.46C245.358 211.46 245.718 211.523 246.085 211.65C246.452 211.777 246.795 211.963 247.115 212.21C247.442 212.45 247.705 212.753 247.905 213.12C248.238 212.647 248.675 212.253 249.215 211.94C249.762 211.62 250.368 211.46 251.035 211.46C251.422 211.46 251.812 211.523 252.205 211.65C252.605 211.777 252.972 211.983 253.305 212.27C253.638 212.557 253.905 212.94 254.105 213.42C254.312 213.893 254.415 214.48 254.415 215.18V222H251.495V215.54C251.495 215.127 251.412 214.797 251.245 214.55C251.085 214.297 250.878 214.117 250.625 214.01C250.378 213.897 250.115 213.84 249.835 213.84C249.575 213.84 249.312 213.893 249.045 214C248.778 214.1 248.552 214.263 248.365 214.49C248.178 214.717 248.085 215.013 248.085 215.38V222H245.175V215.28C245.175 214.967 245.092 214.703 244.925 214.49C244.758 214.277 244.548 214.117 244.295 214.01C244.048 213.897 243.795 213.84 243.535 213.84C243.268 213.84 243.002 213.897 242.735 214.01C242.468 214.117 242.245 214.287 242.065 214.52C241.885 214.747 241.795 215.033 241.795 215.38V222H238.875Z" fill="#4A4A4A"/>
<g clip-path="url(#clip1_562_1827)">
<path d="M57.759 257.806C58.737 257.806 59.607 258.004 60.369 258.4C61.137 258.79 61.755 259.324 62.223 260.002C62.697 260.68 62.976 261.445 63.06 262.297H60.306C60.222 261.847 60.069 261.448 59.847 261.1C59.625 260.746 59.334 260.47 58.974 260.272C58.614 260.068 58.182 259.966 57.678 259.966C57.072 259.966 56.55 260.113 56.112 260.407C55.674 260.701 55.338 261.175 55.104 261.829C54.87 262.483 54.753 263.347 54.753 264.421C54.753 266.041 55.011 267.214 55.527 267.94C56.049 268.66 56.766 269.02 57.678 269.02C58.182 269.02 58.614 268.906 58.974 268.678C59.334 268.444 59.625 268.138 59.847 267.76C60.069 267.376 60.222 266.956 60.306 266.5H63.06C62.982 267.118 62.832 267.709 62.61 268.273C62.388 268.831 62.073 269.329 61.665 269.767C61.257 270.205 60.732 270.55 60.09 270.802C59.448 271.054 58.671 271.18 57.759 271.18C56.547 271.18 55.5 270.898 54.618 270.334C53.736 269.77 53.055 268.978 52.575 267.958C52.101 266.938 51.864 265.747 51.864 264.385C51.864 263.017 52.101 261.844 52.575 260.866C53.049 259.882 53.727 259.126 54.609 258.598C55.491 258.07 56.541 257.806 57.759 257.806ZM69.0761 271.18C68.1641 271.18 67.3691 270.985 66.6911 270.595C66.0191 270.205 65.4971 269.653 65.1251 268.939C64.7591 268.225 64.5761 267.379 64.5761 266.401C64.5761 265.423 64.7591 264.568 65.1251 263.836C65.4971 263.104 66.0191 262.534 66.6911 262.126C67.3691 261.718 68.1671 261.514 69.0851 261.514C70.0031 261.514 70.7981 261.715 71.4701 262.117C72.1421 262.513 72.6611 263.077 73.0271 263.809C73.3931 264.541 73.5761 265.405 73.5761 266.401C73.5761 267.337 73.3961 268.165 73.0361 268.885C72.6821 269.599 72.1691 270.16 71.4971 270.568C70.8311 270.976 70.0241 271.18 69.0761 271.18ZM69.0851 269.227C69.5471 269.227 69.9191 269.092 70.2011 268.822C70.4831 268.552 70.6871 268.198 70.8131 267.76C70.9451 267.316 71.0111 266.833 71.0111 266.311C71.0111 265.819 70.9511 265.354 70.8311 264.916C70.7171 264.478 70.5191 264.124 70.2371 263.854C69.9551 263.584 69.5711 263.449 69.0851 263.449C68.6231 263.449 68.2481 263.578 67.9601 263.836C67.6781 264.088 67.4711 264.433 67.3391 264.871C67.2071 265.303 67.1411 265.783 67.1411 266.311C67.1411 266.797 67.2011 267.265 67.3211 267.715C67.4411 268.159 67.6421 268.522 67.9241 268.804C68.2061 269.086 68.5931 269.227 69.0851 269.227ZM75.3281 271V261.694H77.9111V263.008C78.0551 262.78 78.2411 262.561 78.4691 262.351C78.7031 262.135 78.9971 261.958 79.3511 261.82C79.7051 261.682 80.1251 261.613 80.6111 261.613C81.1811 261.613 81.7121 261.724 82.2041 261.946C82.7021 262.168 83.1041 262.519 83.4101 262.999C83.7161 263.473 83.8691 264.094 83.8691 264.862V271H81.2411V265.186C81.2411 264.682 81.0911 264.304 80.7911 264.052C80.4911 263.8 80.1251 263.674 79.6931 263.674C79.4051 263.674 79.1261 263.725 78.8561 263.827C78.5921 263.929 78.3761 264.082 78.2081 264.286C78.0401 264.49 77.9561 264.742 77.9561 265.042V271H75.3281ZM91.2728 261.694V263.521H89.3108V271H86.6828V263.521H84.9638V261.694H86.6828V260.353C86.6828 259.603 86.9018 259.021 87.3398 258.607C87.7838 258.193 88.4108 257.986 89.2207 257.986H91.3538L91.3628 259.732H90.1388C89.8028 259.732 89.5718 259.816 89.4458 259.984C89.3258 260.146 89.2658 260.416 89.2658 260.794V261.694H91.2728ZM95.4578 261.694V271H92.9468V261.694H95.4578ZM95.4848 257.995V260.362H92.9288V257.995H95.4848ZM97.8984 271V261.694H100.427V263.899C100.577 263.425 100.787 263.011 101.057 262.657C101.333 262.297 101.666 262.018 102.056 261.82C102.446 261.616 102.887 261.514 103.379 261.514C103.463 261.514 103.541 261.52 103.613 261.532C103.691 261.538 103.748 261.55 103.784 261.568V264.07C103.73 264.046 103.664 264.031 103.586 264.025C103.514 264.019 103.448 264.013 103.388 264.007C102.872 263.965 102.431 263.98 102.065 264.052C101.699 264.124 101.402 264.247 101.174 264.421C100.946 264.595 100.781 264.808 100.679 265.06C100.577 265.312 100.526 265.594 100.526 265.906V271H97.8984ZM105.211 271V261.694H107.785V263.008C108.067 262.6 108.445 262.249 108.919 261.955C109.399 261.661 110.002 261.514 110.728 261.514C111.046 261.514 111.37 261.571 111.7 261.685C112.03 261.799 112.339 261.967 112.627 262.189C112.921 262.405 113.158 262.678 113.338 263.008C113.638 262.582 114.031 262.228 114.517 261.946C115.009 261.658 115.555 261.514 116.155 261.514C116.503 261.514 116.854 261.571 117.208 261.685C117.568 261.799 117.898 261.985 118.198 262.243C118.498 262.501 118.738 262.846 118.918 263.278C119.104 263.704 119.197 264.232 119.197 264.862V271H116.569V265.186C116.569 264.814 116.494 264.517 116.344 264.295C116.2 264.067 116.014 263.905 115.786 263.809C115.564 263.707 115.327 263.656 115.075 263.656C114.841 263.656 114.604 263.704 114.364 263.8C114.124 263.89 113.92 264.037 113.752 264.241C113.584 264.445 113.5 264.712 113.5 265.042V271H110.881V264.952C110.881 264.67 110.806 264.433 110.656 264.241C110.506 264.049 110.317 263.905 110.089 263.809C109.867 263.707 109.639 263.656 109.405 263.656C109.165 263.656 108.925 263.707 108.685 263.809C108.445 263.905 108.244 264.058 108.082 264.268C107.92 264.472 107.839 264.73 107.839 265.042V271H105.211ZM125.478 257.986H128.124V268.777H133.776V271H125.478V257.986ZM138.179 261.694V271H135.668V261.694H138.179ZM138.206 257.995V260.362H135.65V257.995H138.206ZM144.242 271.18C143.594 271.18 142.97 271.075 142.37 270.865C141.77 270.649 141.263 270.313 140.849 269.857C140.435 269.395 140.171 268.798 140.057 268.066H142.334C142.412 268.396 142.553 268.657 142.757 268.849C142.967 269.041 143.204 269.179 143.468 269.263C143.732 269.341 143.984 269.38 144.224 269.38C144.728 269.38 145.133 269.302 145.439 269.146C145.751 268.984 145.907 268.738 145.907 268.408C145.907 268.156 145.814 267.955 145.628 267.805C145.448 267.655 145.148 267.541 144.728 267.463L143.09 267.121C142.268 266.947 141.608 266.653 141.11 266.239C140.612 265.819 140.357 265.225 140.345 264.457C140.345 263.899 140.492 263.398 140.786 262.954C141.086 262.51 141.527 262.159 142.109 261.901C142.691 261.643 143.405 261.514 144.251 261.514C145.397 261.514 146.312 261.766 146.996 262.27C147.686 262.774 148.037 263.485 148.049 264.403H145.853C145.787 264.043 145.607 263.767 145.313 263.575C145.025 263.377 144.662 263.278 144.224 263.278C143.768 263.278 143.393 263.359 143.099 263.521C142.805 263.683 142.658 263.929 142.658 264.259C142.658 264.505 142.778 264.7 143.018 264.844C143.258 264.982 143.63 265.102 144.134 265.204L145.646 265.546C146.168 265.672 146.591 265.846 146.915 266.068C147.245 266.284 147.5 266.521 147.68 266.779C147.86 267.037 147.983 267.298 148.049 267.562C148.121 267.82 148.157 268.054 148.157 268.264C148.157 268.882 147.992 269.41 147.662 269.848C147.332 270.28 146.873 270.61 146.285 270.838C145.697 271.066 145.016 271.18 144.242 271.18ZM155.565 263.521H153.495L153.513 268.48C153.513 268.708 153.54 268.879 153.594 268.993C153.654 269.101 153.744 269.173 153.864 269.209C153.99 269.239 154.149 269.254 154.341 269.254H155.592V270.874C155.472 270.928 155.283 270.979 155.025 271.027C154.773 271.075 154.419 271.099 153.963 271.099C153.147 271.099 152.514 270.994 152.064 270.784C151.62 270.574 151.311 270.28 151.137 269.902C150.963 269.524 150.876 269.086 150.876 268.588V263.521H149.364V261.694H150.966L151.623 258.886H153.495V261.685H155.565V263.521ZM160.152 261.694V271H157.641V261.694H160.152ZM160.179 257.995V260.362H157.623V257.995H160.179ZM162.586 271V261.694H165.169V263.008C165.313 262.78 165.499 262.561 165.727 262.351C165.961 262.135 166.255 261.958 166.609 261.82C166.963 261.682 167.383 261.613 167.869 261.613C168.439 261.613 168.97 261.724 169.462 261.946C169.96 262.168 170.362 262.519 170.668 262.999C170.974 263.473 171.127 264.094 171.127 264.862V271H168.499V265.186C168.499 264.682 168.349 264.304 168.049 264.052C167.749 263.8 167.383 263.674 166.951 263.674C166.663 263.674 166.384 263.725 166.114 263.827C165.85 263.929 165.634 264.082 165.466 264.286C165.298 264.49 165.214 264.742 165.214 265.042V271H162.586ZM177.567 274.078C175.911 274.078 174.651 273.868 173.787 273.448C172.929 273.028 172.5 272.476 172.5 271.792C172.5 271.474 172.584 271.207 172.752 270.991C172.92 270.775 173.115 270.604 173.337 270.478C173.565 270.346 173.772 270.247 173.958 270.181C174.15 270.109 174.267 270.061 174.309 270.037C174.213 269.983 174.075 269.905 173.895 269.803C173.715 269.695 173.547 269.551 173.391 269.371C173.241 269.185 173.166 268.945 173.166 268.651C173.166 268.321 173.322 268.015 173.634 267.733C173.952 267.451 174.432 267.256 175.074 267.148C174.462 266.86 173.997 266.47 173.679 265.978C173.361 265.486 173.202 264.982 173.202 264.466C173.202 263.854 173.394 263.329 173.778 262.891C174.162 262.453 174.684 262.12 175.344 261.892C176.01 261.664 176.763 261.55 177.603 261.55C178.245 261.55 178.77 261.619 179.178 261.757C179.586 261.889 179.964 262.063 180.312 262.279C180.45 262.225 180.633 262.156 180.861 262.072C181.089 261.982 181.335 261.886 181.599 261.784C181.863 261.676 182.121 261.571 182.373 261.469C182.625 261.361 182.85 261.265 183.048 261.181L183.039 263.215L181.428 263.476C181.494 263.638 181.545 263.812 181.581 263.998C181.617 264.184 181.635 264.337 181.635 264.457C181.635 264.997 181.476 265.501 181.158 265.969C180.846 266.437 180.375 266.815 179.745 267.103C179.121 267.391 178.347 267.535 177.423 267.535C177.309 267.535 177.156 267.532 176.964 267.526C176.778 267.52 176.625 267.511 176.505 267.499C176.151 267.517 175.908 267.562 175.776 267.634C175.644 267.706 175.578 267.79 175.578 267.886C175.578 268.03 175.713 268.126 175.983 268.174C176.253 268.216 176.661 268.255 177.207 268.291C177.399 268.303 177.666 268.318 178.008 268.336C178.35 268.354 178.728 268.378 179.142 268.408C180.282 268.486 181.131 268.768 181.689 269.254C182.253 269.734 182.535 270.34 182.535 271.072C182.535 271.942 182.121 272.659 181.293 273.223C180.471 273.793 179.229 274.078 177.567 274.078ZM177.99 272.611C178.722 272.611 179.244 272.521 179.556 272.341C179.868 272.161 180.024 271.903 180.024 271.567C180.024 271.285 179.904 271.057 179.664 270.883C179.424 270.703 179.073 270.598 178.611 270.568L176.478 270.424C176.202 270.412 175.956 270.454 175.74 270.55C175.53 270.646 175.365 270.778 175.245 270.946C175.131 271.114 175.074 271.294 175.074 271.486C175.074 271.876 175.311 272.161 175.785 272.341C176.259 272.521 176.994 272.611 177.99 272.611ZM177.495 266.068C177.993 266.068 178.392 265.933 178.692 265.663C178.998 265.387 179.151 265.015 179.151 264.547C179.151 264.061 178.998 263.671 178.692 263.377C178.392 263.083 177.993 262.936 177.495 262.936C177.003 262.936 176.601 263.083 176.289 263.377C175.983 263.671 175.83 264.061 175.83 264.547C175.83 265.009 175.977 265.378 176.271 265.654C176.571 265.93 176.979 266.068 177.495 266.068ZM188.706 257.986C188.772 257.986 188.955 257.986 189.255 257.986C189.561 257.986 189.918 257.986 190.326 257.986C190.74 257.986 191.151 257.989 191.559 257.995C191.973 257.995 192.318 257.998 192.594 258.004C194.172 258.04 195.459 258.322 196.455 258.85C197.451 259.378 198.18 260.116 198.642 261.064C199.11 262.012 199.344 263.134 199.344 264.43C199.344 265.78 199.098 266.947 198.606 267.931C198.114 268.909 197.361 269.665 196.347 270.199C195.339 270.733 194.058 271 192.504 271H188.706V257.986ZM191.352 260.11V268.876H192.558C193.302 268.876 193.977 268.732 194.583 268.444C195.195 268.156 195.684 267.685 196.05 267.031C196.416 266.377 196.599 265.504 196.599 264.412C196.599 263.398 196.437 262.576 196.113 261.946C195.789 261.31 195.327 260.845 194.727 260.551C194.127 260.257 193.416 260.11 192.594 260.11H191.352ZM203.488 266.95C203.482 267.424 203.557 267.838 203.713 268.192C203.869 268.54 204.094 268.81 204.388 269.002C204.688 269.188 205.048 269.281 205.468 269.281C205.918 269.281 206.311 269.185 206.647 268.993C206.989 268.801 207.226 268.486 207.358 268.048H209.725C209.623 268.708 209.359 269.272 208.933 269.74C208.513 270.208 208.003 270.565 207.403 270.811C206.803 271.057 206.179 271.18 205.531 271.18C204.613 271.18 203.803 270.988 203.101 270.604C202.405 270.214 201.862 269.665 201.472 268.957C201.082 268.249 200.887 267.415 200.887 266.455C200.887 265.525 201.064 264.688 201.418 263.944C201.772 263.194 202.285 262.603 202.957 262.171C203.635 261.733 204.448 261.514 205.396 261.514C206.344 261.514 207.139 261.715 207.781 262.117C208.429 262.513 208.915 263.068 209.239 263.782C209.569 264.49 209.734 265.309 209.734 266.239V266.95H203.488ZM203.479 265.384H207.277C207.277 265.012 207.208 264.67 207.07 264.358C206.932 264.046 206.722 263.8 206.44 263.62C206.164 263.44 205.816 263.35 205.396 263.35C204.988 263.35 204.64 263.449 204.352 263.647C204.07 263.839 203.854 264.091 203.704 264.403C203.554 264.715 203.479 265.042 203.479 265.384ZM216.93 263.521H214.86L214.878 268.48C214.878 268.708 214.905 268.879 214.959 268.993C215.019 269.101 215.109 269.173 215.229 269.209C215.355 269.239 215.514 269.254 215.706 269.254H216.957V270.874C216.837 270.928 216.648 270.979 216.39 271.027C216.138 271.075 215.784 271.099 215.328 271.099C214.512 271.099 213.879 270.994 213.429 270.784C212.985 270.574 212.676 270.28 212.502 269.902C212.328 269.524 212.241 269.086 212.241 268.588V263.521H210.729V261.694H212.331L212.988 258.886H214.86V261.685H216.93V263.521ZM221.554 271.18C220.96 271.18 220.426 271.069 219.952 270.847C219.478 270.625 219.103 270.304 218.827 269.884C218.551 269.458 218.413 268.942 218.413 268.336C218.413 267.316 218.794 266.542 219.556 266.014C220.318 265.48 221.521 265.204 223.165 265.186L224.326 265.168V264.61C224.326 264.184 224.2 263.857 223.948 263.629C223.702 263.395 223.318 263.281 222.796 263.287C222.412 263.293 222.046 263.383 221.698 263.557C221.356 263.731 221.122 264.034 220.996 264.466H218.809C218.845 263.794 219.04 263.242 219.394 262.81C219.748 262.372 220.228 262.048 220.834 261.838C221.446 261.622 222.139 261.514 222.913 261.514C223.867 261.514 224.632 261.634 225.208 261.874C225.784 262.108 226.201 262.447 226.459 262.891C226.717 263.329 226.846 263.851 226.846 264.457V271H224.65L224.434 269.398C224.116 270.07 223.717 270.535 223.237 270.793C222.763 271.051 222.202 271.18 221.554 271.18ZM222.436 269.452C222.676 269.452 222.907 269.41 223.129 269.326C223.357 269.236 223.558 269.119 223.732 268.975C223.912 268.825 224.056 268.657 224.164 268.471C224.272 268.285 224.326 268.093 224.326 267.895V266.518L223.381 266.536C222.943 266.542 222.535 266.596 222.157 266.698C221.779 266.794 221.473 266.953 221.239 267.175C221.011 267.397 220.897 267.697 220.897 268.075C220.897 268.507 221.047 268.846 221.347 269.092C221.647 269.332 222.01 269.452 222.436 269.452ZM231.818 261.694V271H229.307V261.694H231.818ZM231.845 257.995V260.362H229.289V257.995H231.845ZM237.222 271.162C236.538 271.162 235.995 271.081 235.593 270.919C235.191 270.757 234.894 270.544 234.702 270.28C234.51 270.01 234.387 269.713 234.333 269.389C234.279 269.059 234.252 268.726 234.252 268.39V257.626H236.826V268.066C236.826 268.408 236.898 268.687 237.042 268.903C237.192 269.113 237.471 269.242 237.879 269.29L238.32 269.317V270.937C238.14 270.997 237.957 271.048 237.771 271.09C237.585 271.138 237.402 271.162 237.222 271.162ZM243.628 271.18C242.98 271.18 242.356 271.075 241.756 270.865C241.156 270.649 240.649 270.313 240.235 269.857C239.821 269.395 239.557 268.798 239.443 268.066H241.72C241.798 268.396 241.939 268.657 242.143 268.849C242.353 269.041 242.59 269.179 242.854 269.263C243.118 269.341 243.37 269.38 243.61 269.38C244.114 269.38 244.519 269.302 244.825 269.146C245.137 268.984 245.293 268.738 245.293 268.408C245.293 268.156 245.2 267.955 245.014 267.805C244.834 267.655 244.534 267.541 244.114 267.463L242.476 267.121C241.654 266.947 240.994 266.653 240.496 266.239C239.998 265.819 239.743 265.225 239.731 264.457C239.731 263.899 239.878 263.398 240.172 262.954C240.472 262.51 240.913 262.159 241.495 261.901C242.077 261.643 242.791 261.514 243.637 261.514C244.783 261.514 245.698 261.766 246.382 262.27C247.072 262.774 247.423 263.485 247.435 264.403H245.239C245.173 264.043 244.993 263.767 244.699 263.575C244.411 263.377 244.048 263.278 243.61 263.278C243.154 263.278 242.779 263.359 242.485 263.521C242.191 263.683 242.044 263.929 242.044 264.259C242.044 264.505 242.164 264.7 242.404 264.844C242.644 264.982 243.016 265.102 243.52 265.204L245.032 265.546C245.554 265.672 245.977 265.846 246.301 266.068C246.631 266.284 246.886 266.521 247.066 266.779C247.246 267.037 247.369 267.298 247.435 267.562C247.507 267.82 247.543 268.054 247.543 268.264C247.543 268.882 247.378 269.41 247.048 269.848C246.718 270.28 246.259 270.61 245.671 270.838C245.083 271.066 244.402 271.18 243.628 271.18Z" fill="#3E3E3E"/>
<rect x="51" y="336" width="326" height="50" rx="6" fill="#FCFCFC" stroke="white" stroke-width="4"/>
<path d="M50.296 306.432H52.624V318H50.296V306.432ZM59.79 311.352H57.95L57.966 315.76C57.966 315.963 57.99 316.115 58.038 316.216C58.0913 316.312 58.1713 316.376 58.278 316.408C58.39 316.435 58.5313 316.448 58.702 316.448H59.814V317.888C59.7073 317.936 59.5393 317.981 59.31 318.024C59.086 318.067 58.7713 318.088 58.366 318.088C57.6407 318.088 57.078 317.995 56.678 317.808C56.2833 317.621 56.0087 317.36 55.854 317.024C55.6993 316.688 55.622 316.299 55.622 315.856V311.352H54.278V309.728H55.702L56.286 307.232H57.95V309.72H59.79V311.352ZM63.17 314.4C63.1647 314.821 63.2313 315.189 63.37 315.504C63.5087 315.813 63.7087 316.053 63.97 316.224C64.2367 316.389 64.5567 316.472 64.93 316.472C65.33 316.472 65.6793 316.387 65.978 316.216C66.282 316.045 66.4927 315.765 66.61 315.376H68.714C68.6233 315.963 68.3887 316.464 68.01 316.88C67.6367 317.296 67.1833 317.613 66.65 317.832C66.1167 318.051 65.562 318.16 64.986 318.16C64.17 318.16 63.45 317.989 62.826 317.648C62.2073 317.301 61.7247 316.813 61.378 316.184C61.0313 315.555 60.858 314.813 60.858 313.96C60.858 313.133 61.0153 312.389 61.33 311.728C61.6447 311.061 62.1007 310.536 62.698 310.152C63.3007 309.763 64.0233 309.568 64.866 309.568C65.7087 309.568 66.4153 309.747 66.986 310.104C67.562 310.456 67.994 310.949 68.282 311.584C68.5753 312.213 68.722 312.941 68.722 313.768V314.4H63.17ZM63.162 313.008H66.538C66.538 312.677 66.4767 312.373 66.354 312.096C66.2313 311.819 66.0447 311.6 65.794 311.44C65.5487 311.28 65.2393 311.2 64.866 311.2C64.5033 311.2 64.194 311.288 63.938 311.464C63.6873 311.635 63.4953 311.859 63.362 312.136C63.2287 312.413 63.162 312.704 63.162 313.008ZM70.3438 318V309.728H72.6318V310.896C72.8824 310.533 73.2184 310.221 73.6398 309.96C74.0664 309.699 74.6024 309.568 75.2478 309.568C75.5304 309.568 75.8184 309.619 76.1118 309.72C76.4051 309.821 76.6798 309.971 76.9358 310.168C77.1971 310.36 77.4078 310.603 77.5677 310.896C77.8344 310.517 78.1838 310.203 78.6158 309.952C79.0531 309.696 79.5384 309.568 80.0718 309.568C80.3811 309.568 80.6931 309.619 81.0078 309.72C81.3278 309.821 81.6211 309.987 81.8878 310.216C82.1544 310.445 82.3678 310.752 82.5278 311.136C82.6931 311.515 82.7758 311.984 82.7758 312.544V318H80.4398V312.832C80.4398 312.501 80.3731 312.237 80.2398 312.04C80.1118 311.837 79.9464 311.693 79.7438 311.608C79.5464 311.517 79.3358 311.472 79.1118 311.472C78.9038 311.472 78.6931 311.515 78.4798 311.6C78.2664 311.68 78.0851 311.811 77.9358 311.992C77.7864 312.173 77.7118 312.411 77.7118 312.704V318H75.3838V312.624C75.3838 312.373 75.3171 312.163 75.1838 311.992C75.0504 311.821 74.8824 311.693 74.6798 311.608C74.4824 311.517 74.2798 311.472 74.0718 311.472C73.8584 311.472 73.6451 311.517 73.4318 311.608C73.2184 311.693 73.0398 311.829 72.8958 312.016C72.7518 312.197 72.6798 312.427 72.6798 312.704V318H70.3438ZM99.3411 306.432H101.677V318H99.5731L94.0771 310.04V318H91.7491V306.432H94.0611L99.3411 314.088V306.432ZM106.353 318.16C105.825 318.16 105.35 318.061 104.929 317.864C104.508 317.667 104.174 317.381 103.929 317.008C103.684 316.629 103.561 316.171 103.561 315.632C103.561 314.725 103.9 314.037 104.577 313.568C105.254 313.093 106.324 312.848 107.785 312.832L108.817 312.816V312.32C108.817 311.941 108.705 311.651 108.481 311.448C108.262 311.24 107.921 311.139 107.457 311.144C107.116 311.149 106.79 311.229 106.481 311.384C106.177 311.539 105.969 311.808 105.857 312.192H103.913C103.945 311.595 104.118 311.104 104.433 310.72C104.748 310.331 105.174 310.043 105.713 309.856C106.257 309.664 106.873 309.568 107.561 309.568C108.409 309.568 109.089 309.675 109.601 309.888C110.113 310.096 110.484 310.397 110.713 310.792C110.942 311.181 111.057 311.645 111.057 312.184V318H109.105L108.913 316.576C108.63 317.173 108.276 317.587 107.849 317.816C107.428 318.045 106.929 318.16 106.353 318.16ZM107.137 316.624C107.35 316.624 107.556 316.587 107.753 316.512C107.956 316.432 108.134 316.328 108.289 316.2C108.449 316.067 108.577 315.917 108.673 315.752C108.769 315.587 108.817 315.416 108.817 315.24V314.016L107.977 314.032C107.588 314.037 107.225 314.085 106.889 314.176C106.553 314.261 106.281 314.403 106.073 314.6C105.87 314.797 105.769 315.064 105.769 315.4C105.769 315.784 105.902 316.085 106.169 316.304C106.436 316.517 106.758 316.624 107.137 316.624ZM113.125 318V309.728H115.413V310.896C115.664 310.533 116 310.221 116.421 309.96C116.848 309.699 117.384 309.568 118.029 309.568C118.312 309.568 118.6 309.619 118.893 309.72C119.186 309.821 119.461 309.971 119.717 310.168C119.978 310.36 120.189 310.603 120.349 310.896C120.616 310.517 120.965 310.203 121.397 309.952C121.834 309.696 122.32 309.568 122.853 309.568C123.162 309.568 123.474 309.619 123.789 309.72C124.109 309.821 124.402 309.987 124.669 310.216C124.936 310.445 125.149 310.752 125.309 311.136C125.474 311.515 125.557 311.984 125.557 312.544V318H123.221V312.832C123.221 312.501 123.154 312.237 123.021 312.04C122.893 311.837 122.728 311.693 122.525 311.608C122.328 311.517 122.117 311.472 121.893 311.472C121.685 311.472 121.474 311.515 121.261 311.6C121.048 311.68 120.866 311.811 120.717 311.992C120.568 312.173 120.493 312.411 120.493 312.704V318H118.165V312.624C118.165 312.373 118.098 312.163 117.965 311.992C117.832 311.821 117.664 311.693 117.461 311.608C117.264 311.517 117.061 311.472 116.853 311.472C116.64 311.472 116.426 311.517 116.213 311.608C116 311.693 115.821 311.829 115.677 312.016C115.533 312.197 115.461 312.427 115.461 312.704V318H113.125ZM129.373 314.4C129.368 314.821 129.434 315.189 129.573 315.504C129.712 315.813 129.912 316.053 130.173 316.224C130.44 316.389 130.76 316.472 131.133 316.472C131.533 316.472 131.882 316.387 132.181 316.216C132.485 316.045 132.696 315.765 132.813 315.376H134.917C134.826 315.963 134.592 316.464 134.213 316.88C133.84 317.296 133.386 317.613 132.853 317.832C132.32 318.051 131.765 318.16 131.189 318.16C130.373 318.16 129.653 317.989 129.029 317.648C128.41 317.301 127.928 316.813 127.581 316.184C127.234 315.555 127.061 314.813 127.061 313.96C127.061 313.133 127.218 312.389 127.533 311.728C127.848 311.061 128.304 310.536 128.901 310.152C129.504 309.763 130.226 309.568 131.069 309.568C131.912 309.568 132.618 309.747 133.189 310.104C133.765 310.456 134.197 310.949 134.485 311.584C134.778 312.213 134.925 312.941 134.925 313.768V314.4H129.373ZM129.365 313.008H132.741C132.741 312.677 132.68 312.373 132.557 312.096C132.434 311.819 132.248 311.6 131.997 311.44C131.752 311.28 131.442 311.2 131.069 311.2C130.706 311.2 130.397 311.288 130.141 311.464C129.89 311.635 129.698 311.859 129.565 312.136C129.432 312.413 129.365 312.704 129.365 313.008Z" fill="#3E3E3E"/>
<rect x="51" y="445" width="326" height="50" rx="6" fill="#FCFCFC" stroke="white" stroke-width="4"/>
<path d="M50.296 427V415.432H54.488C56.0027 415.432 57.1253 415.693 57.856 416.216C58.592 416.733 58.96 417.483 58.96 418.464C58.96 419.04 58.8133 419.541 58.52 419.968C58.2267 420.389 57.704 420.757 56.952 421.072C57.4373 421.195 57.8293 421.36 58.128 421.568C58.4267 421.776 58.656 422.008 58.816 422.264C58.976 422.515 59.0853 422.779 59.144 423.056C59.2027 423.328 59.232 423.597 59.232 423.864C59.232 424.931 58.8693 425.72 58.144 426.232C57.4187 426.744 56.264 427 54.68 427H50.296ZM52.624 425.192H54.728C55.432 425.192 55.9627 425.051 56.32 424.768C56.6827 424.485 56.864 424.107 56.864 423.632C56.864 423.291 56.776 423.005 56.6 422.776C56.424 422.541 56.184 422.365 55.88 422.248C55.5813 422.131 55.24 422.072 54.856 422.072H52.624V425.192ZM52.624 420.216H54.856C55.096 420.216 55.3253 420.189 55.544 420.136C55.768 420.077 55.9653 419.989 56.136 419.872C56.312 419.755 56.4507 419.605 56.552 419.424C56.6533 419.237 56.704 419.019 56.704 418.768C56.704 418.267 56.5147 417.888 56.136 417.632C55.7627 417.371 55.2827 417.24 54.696 417.24H52.624V420.216ZM60.9531 427V418.728H63.2011V420.688C63.3345 420.267 63.5211 419.899 63.7611 419.584C64.0065 419.264 64.3025 419.016 64.6491 418.84C64.9958 418.659 65.3878 418.568 65.8251 418.568C65.8998 418.568 65.9691 418.573 66.0331 418.584C66.1025 418.589 66.1531 418.6 66.1851 418.616V420.84C66.1371 420.819 66.0785 420.805 66.0091 420.8C65.9451 420.795 65.8865 420.789 65.8331 420.784C65.3745 420.747 64.9825 420.76 64.6571 420.824C64.3318 420.888 64.0678 420.997 63.8651 421.152C63.6625 421.307 63.5158 421.496 63.4251 421.72C63.3345 421.944 63.2891 422.195 63.2891 422.472V427H60.9531ZM69.7594 427.16C69.2314 427.16 68.7567 427.061 68.3354 426.864C67.914 426.667 67.5807 426.381 67.3354 426.008C67.09 425.629 66.9674 425.171 66.9674 424.632C66.9674 423.725 67.306 423.037 67.9834 422.568C68.6607 422.093 69.73 421.848 71.1914 421.832L72.2234 421.816V421.32C72.2234 420.941 72.1114 420.651 71.8874 420.448C71.6687 420.24 71.3274 420.139 70.8634 420.144C70.522 420.149 70.1967 420.229 69.8874 420.384C69.5834 420.539 69.3754 420.808 69.2634 421.192H67.3194C67.3514 420.595 67.5247 420.104 67.8394 419.72C68.154 419.331 68.5807 419.043 69.1194 418.856C69.6634 418.664 70.2794 418.568 70.9674 418.568C71.8154 418.568 72.4954 418.675 73.0074 418.888C73.5194 419.096 73.89 419.397 74.1194 419.792C74.3487 420.181 74.4634 420.645 74.4634 421.184V427H72.5114L72.3194 425.576C72.0367 426.173 71.682 426.587 71.2554 426.816C70.834 427.045 70.3354 427.16 69.7594 427.16ZM70.5434 425.624C70.7567 425.624 70.962 425.587 71.1594 425.512C71.362 425.432 71.5407 425.328 71.6954 425.2C71.8554 425.067 71.9834 424.917 72.0794 424.752C72.1754 424.587 72.2234 424.416 72.2234 424.24V423.016L71.3834 423.032C70.994 423.037 70.6314 423.085 70.2954 423.176C69.9594 423.261 69.6874 423.403 69.4794 423.6C69.2767 423.797 69.1754 424.064 69.1754 424.4C69.1754 424.784 69.3087 425.085 69.5754 425.304C69.842 425.517 70.1647 425.624 70.5434 425.624ZM76.5312 427V418.728H78.8273V419.896C78.9553 419.693 79.1206 419.499 79.3233 419.312C79.5313 419.12 79.7926 418.963 80.1073 418.84C80.4219 418.717 80.7953 418.656 81.2273 418.656C81.7339 418.656 82.2059 418.755 82.6433 418.952C83.0859 419.149 83.4433 419.461 83.7153 419.888C83.9873 420.309 84.1233 420.861 84.1233 421.544V427H81.7873V421.832C81.7873 421.384 81.6539 421.048 81.3873 420.824C81.1206 420.6 80.7953 420.488 80.4113 420.488C80.1553 420.488 79.9073 420.533 79.6673 420.624C79.4326 420.715 79.2406 420.851 79.0913 421.032C78.9419 421.213 78.8673 421.437 78.8673 421.704V427H76.5312ZM89.0876 427.16C87.9783 427.16 87.1143 426.779 86.4956 426.016C85.877 425.248 85.5676 424.181 85.5676 422.816C85.5676 421.952 85.693 421.203 85.9436 420.568C86.1943 419.933 86.565 419.443 87.0556 419.096C87.5463 418.744 88.1463 418.568 88.8556 418.568C89.1543 418.568 89.4316 418.603 89.6876 418.672C89.949 418.736 90.1863 418.827 90.3996 418.944C90.613 419.061 90.7996 419.197 90.9596 419.352C91.1196 419.507 91.2503 419.672 91.3516 419.848V415.112H93.6956V427H91.9996L91.7356 425.304C91.661 425.533 91.557 425.757 91.4236 425.976C91.2903 426.195 91.1196 426.395 90.9116 426.576C90.7036 426.752 90.4476 426.893 90.1436 427C89.845 427.107 89.493 427.16 89.0876 427.16ZM89.5996 425.48C90.1863 425.48 90.6236 425.275 90.9116 424.864C91.205 424.453 91.3516 423.76 91.3516 422.784C91.3463 422.219 91.2796 421.749 91.1516 421.376C91.0236 421.003 90.8316 420.725 90.5756 420.544C90.325 420.357 90.005 420.264 89.6156 420.264C89.109 420.264 88.6876 420.459 88.3516 420.848C88.0156 421.232 87.8476 421.877 87.8476 422.784C87.8476 423.707 88.005 424.387 88.3196 424.824C88.6343 425.261 89.061 425.48 89.5996 425.48Z" fill="#3E3E3E"/>
<rect x="51" y="554" width="326" height="50" rx="6" fill="#FCFCFC" stroke="white" stroke-width="4"/>
<path d="M54.64 536.16C54.0693 536.16 53.5093 536.088 52.96 535.944C52.4107 535.8 51.9093 535.584 51.456 535.296C51.0027 535.008 50.6267 534.648 50.328 534.216C50.0347 533.784 49.8587 533.277 49.8 532.696H52.192C52.272 533.048 52.424 533.344 52.648 533.584C52.872 533.824 53.1547 534.008 53.496 534.136C53.8373 534.264 54.216 534.328 54.632 534.328C55.0587 534.328 55.448 534.275 55.8 534.168C56.152 534.061 56.4347 533.901 56.648 533.688C56.8613 533.469 56.968 533.197 56.968 532.872C56.968 532.579 56.88 532.339 56.704 532.152C56.5333 531.965 56.3013 531.813 56.008 531.696C55.7147 531.579 55.3813 531.483 55.008 531.408L53.008 531C52.1333 530.835 51.44 530.488 50.928 529.96C50.416 529.427 50.152 528.717 50.136 527.832C50.1307 527.107 50.3227 526.48 50.712 525.952C51.1067 525.419 51.64 525.008 52.312 524.72C52.9893 524.432 53.7467 524.288 54.584 524.288C55.5813 524.288 56.4187 524.445 57.096 524.76C57.7787 525.069 58.296 525.491 58.648 526.024C59.0053 526.552 59.1893 527.141 59.2 527.792H56.856C56.8133 527.387 56.6907 527.064 56.488 526.824C56.2853 526.584 56.024 526.411 55.704 526.304C55.3893 526.197 55.0293 526.144 54.624 526.144C54.3147 526.144 54.032 526.179 53.776 526.248C53.5253 526.317 53.312 526.416 53.136 526.544C52.96 526.667 52.824 526.813 52.728 526.984C52.632 527.155 52.584 527.347 52.584 527.56C52.584 527.896 52.696 528.168 52.92 528.376C53.144 528.584 53.5627 528.755 54.176 528.888L56.16 529.296C56.8693 529.435 57.432 529.64 57.848 529.912C58.2693 530.184 58.584 530.491 58.792 530.832C59.0053 531.173 59.144 531.523 59.208 531.88C59.2773 532.232 59.312 532.557 59.312 532.856C59.312 533.48 59.1147 534.043 58.72 534.544C58.3307 535.04 57.7867 535.435 57.088 535.728C56.3893 536.016 55.5733 536.16 54.64 536.16ZM63.4458 527.728V536H61.2138V527.728H63.4458ZM63.4698 524.44V526.544H61.1978V524.44H63.4698ZM65.0665 536V534.696L69.1465 529.36H65.2745V527.728H71.9785V529.032L67.8905 534.368H72.0025V536H65.0665ZM75.2638 532.4C75.2584 532.821 75.3251 533.189 75.4638 533.504C75.6024 533.813 75.8024 534.053 76.0638 534.224C76.3304 534.389 76.6504 534.472 77.0238 534.472C77.4238 534.472 77.7731 534.387 78.0718 534.216C78.3758 534.045 78.5864 533.765 78.7038 533.376H80.8078C80.7171 533.963 80.4824 534.464 80.1038 534.88C79.7304 535.296 79.2771 535.613 78.7438 535.832C78.2104 536.051 77.6558 536.16 77.0798 536.16C76.2638 536.16 75.5438 535.989 74.9198 535.648C74.3011 535.301 73.8184 534.813 73.4718 534.184C73.1251 533.555 72.9518 532.813 72.9518 531.96C72.9518 531.133 73.1091 530.389 73.4238 529.728C73.7384 529.061 74.1944 528.536 74.7918 528.152C75.3944 527.763 76.1171 527.568 76.9598 527.568C77.8024 527.568 78.5091 527.747 79.0798 528.104C79.6558 528.456 80.0878 528.949 80.3758 529.584C80.6691 530.213 80.8158 530.941 80.8158 531.768V532.4H75.2638ZM75.2558 531.008H78.6318C78.6318 530.677 78.5704 530.373 78.4478 530.096C78.3251 529.819 78.1384 529.6 77.8878 529.44C77.6424 529.28 77.3331 529.2 76.9598 529.2C76.5971 529.2 76.2878 529.288 76.0318 529.464C75.7811 529.635 75.5891 529.859 75.4558 530.136C75.3224 530.413 75.2558 530.704 75.2558 531.008Z" fill="#3E3E3E"/>
<rect x="51" y="663" width="326" height="50" rx="6" fill="#FCFCFC" stroke="white" stroke-width="4"/>
<path d="M55.008 633.272C55.8773 633.272 56.6507 633.448 57.328 633.8C58.0107 634.147 58.56 634.621 58.976 635.224C59.3973 635.827 59.6453 636.507 59.72 637.264H57.272C57.1973 636.864 57.0613 636.509 56.864 636.2C56.6667 635.885 56.408 635.64 56.088 635.464C55.768 635.283 55.384 635.192 54.936 635.192C54.3973 635.192 53.9333 635.323 53.544 635.584C53.1547 635.845 52.856 636.267 52.648 636.848C52.44 637.429 52.336 638.197 52.336 639.152C52.336 640.592 52.5653 641.635 53.024 642.28C53.488 642.92 54.1253 643.24 54.936 643.24C55.384 643.24 55.768 643.139 56.088 642.936C56.408 642.728 56.6667 642.456 56.864 642.12C57.0613 641.779 57.1973 641.405 57.272 641H59.72C59.6507 641.549 59.5173 642.075 59.32 642.576C59.1227 643.072 58.8427 643.515 58.48 643.904C58.1173 644.293 57.6507 644.6 57.08 644.824C56.5093 645.048 55.8187 645.16 55.008 645.16C53.9307 645.16 53 644.909 52.216 644.408C51.432 643.907 50.8267 643.203 50.4 642.296C49.9787 641.389 49.768 640.331 49.768 639.12C49.768 637.904 49.9787 636.861 50.4 635.992C50.8213 635.117 51.424 634.445 52.208 633.976C52.992 633.507 53.9253 633.272 55.008 633.272ZM65.0676 645.16C64.257 645.16 63.5503 644.987 62.9476 644.64C62.3503 644.293 61.8863 643.803 61.5556 643.168C61.2303 642.533 61.0676 641.781 61.0676 640.912C61.0676 640.043 61.2303 639.283 61.5556 638.632C61.8863 637.981 62.3503 637.475 62.9476 637.112C63.5503 636.749 64.2596 636.568 65.0756 636.568C65.8916 636.568 66.5983 636.747 67.1956 637.104C67.793 637.456 68.2543 637.957 68.5796 638.608C68.905 639.259 69.0676 640.027 69.0676 640.912C69.0676 641.744 68.9076 642.48 68.5876 643.12C68.273 643.755 67.817 644.253 67.2196 644.616C66.6276 644.979 65.9103 645.16 65.0676 645.16ZM65.0756 643.424C65.4863 643.424 65.817 643.304 66.0676 643.064C66.3183 642.824 66.4996 642.509 66.6116 642.12C66.729 641.725 66.7876 641.296 66.7876 640.832C66.7876 640.395 66.7343 639.981 66.6276 639.592C66.5263 639.203 66.3503 638.888 66.0996 638.648C65.849 638.408 65.5076 638.288 65.0756 638.288C64.665 638.288 64.3316 638.403 64.0756 638.632C63.825 638.856 63.641 639.163 63.5236 639.552C63.4063 639.936 63.3476 640.363 63.3476 640.832C63.3476 641.264 63.401 641.68 63.5076 642.08C63.6143 642.475 63.793 642.797 64.0436 643.048C64.2943 643.299 64.6383 643.424 65.0756 643.424ZM70.625 645V636.728H72.921V637.896C73.049 637.693 73.2143 637.499 73.417 637.312C73.625 637.12 73.8863 636.963 74.201 636.84C74.5157 636.717 74.889 636.656 75.321 636.656C75.8277 636.656 76.2997 636.755 76.737 636.952C77.1797 637.149 77.537 637.461 77.809 637.888C78.081 638.309 78.217 638.861 78.217 639.544V645H75.881V639.832C75.881 639.384 75.7477 639.048 75.481 638.824C75.2143 638.6 74.889 638.488 74.505 638.488C74.249 638.488 74.001 638.533 73.761 638.624C73.5263 638.715 73.3343 638.851 73.185 639.032C73.0357 639.213 72.961 639.437 72.961 639.704V645H70.625ZM83.1814 645.16C82.072 645.16 81.208 644.779 80.5894 644.016C79.9707 643.248 79.6614 642.181 79.6614 640.816C79.6614 639.952 79.7867 639.203 80.0374 638.568C80.288 637.933 80.6587 637.443 81.1494 637.096C81.64 636.744 82.24 636.568 82.9494 636.568C83.248 636.568 83.5254 636.603 83.7814 636.672C84.0427 636.736 84.28 636.827 84.4934 636.944C84.7067 637.061 84.8934 637.197 85.0534 637.352C85.2134 637.507 85.344 637.672 85.4454 637.848V633.112H87.7894V645H86.0934L85.8294 643.304C85.7547 643.533 85.6507 643.757 85.5174 643.976C85.384 644.195 85.2134 644.395 85.0054 644.576C84.7974 644.752 84.5414 644.893 84.2374 645C83.9387 645.107 83.5867 645.16 83.1814 645.16ZM83.6934 643.48C84.28 643.48 84.7174 643.275 85.0054 642.864C85.2987 642.453 85.4454 641.76 85.4454 640.784C85.44 640.219 85.3734 639.749 85.2454 639.376C85.1174 639.003 84.9254 638.725 84.6694 638.544C84.4187 638.357 84.0987 638.264 83.7094 638.264C83.2027 638.264 82.7814 638.459 82.4454 638.848C82.1094 639.232 81.9414 639.877 81.9414 640.784C81.9414 641.707 82.0987 642.387 82.4134 642.824C82.728 643.261 83.1547 643.48 83.6934 643.48ZM92.1958 636.728V645H89.9638V636.728H92.1958ZM92.2198 633.44V635.544H89.9478V633.44H92.2198ZM99.3525 638.352H97.5125L97.5285 642.76C97.5285 642.963 97.5525 643.115 97.6005 643.216C97.6538 643.312 97.7338 643.376 97.8405 643.408C97.9525 643.435 98.0938 643.448 98.2645 643.448H99.3765V644.888C99.2698 644.936 99.1018 644.981 98.8725 645.024C98.6485 645.067 98.3338 645.088 97.9285 645.088C97.2032 645.088 96.6405 644.995 96.2405 644.808C95.8458 644.621 95.5712 644.36 95.4165 644.024C95.2618 643.688 95.1845 643.299 95.1845 642.856V638.352H93.8405V636.728H95.2645L95.8485 634.232H97.5125V636.72H99.3525V638.352ZM103.43 636.728V645H101.198V636.728H103.43ZM103.454 633.44V635.544H101.182V633.44H103.454ZM109.099 645.16C108.288 645.16 107.582 644.987 106.979 644.64C106.382 644.293 105.918 643.803 105.587 643.168C105.262 642.533 105.099 641.781 105.099 640.912C105.099 640.043 105.262 639.283 105.587 638.632C105.918 637.981 106.382 637.475 106.979 637.112C107.582 636.749 108.291 636.568 109.107 636.568C109.923 636.568 110.63 636.747 111.227 637.104C111.824 637.456 112.286 637.957 112.611 638.608C112.936 639.259 113.099 640.027 113.099 640.912C113.099 641.744 112.939 642.48 112.619 643.12C112.304 643.755 111.848 644.253 111.251 644.616C110.659 644.979 109.942 645.16 109.099 645.16ZM109.107 643.424C109.518 643.424 109.848 643.304 110.099 643.064C110.35 642.824 110.531 642.509 110.643 642.12C110.76 641.725 110.819 641.296 110.819 640.832C110.819 640.395 110.766 639.981 110.659 639.592C110.558 639.203 110.382 638.888 110.131 638.648C109.88 638.408 109.539 638.288 109.107 638.288C108.696 638.288 108.363 638.403 108.107 638.632C107.856 638.856 107.672 639.163 107.555 639.552C107.438 639.936 107.379 640.363 107.379 640.832C107.379 641.264 107.432 641.68 107.539 642.08C107.646 642.475 107.824 642.797 108.075 643.048C108.326 643.299 108.67 643.424 109.107 643.424ZM114.656 645V636.728H116.952V637.896C117.08 637.693 117.246 637.499 117.448 637.312C117.656 637.12 117.918 636.963 118.232 636.84C118.547 636.717 118.92 636.656 119.352 636.656C119.859 636.656 120.331 636.755 120.768 636.952C121.211 637.149 121.568 637.461 121.84 637.888C122.112 638.309 122.248 638.861 122.248 639.544V645H119.912V639.832C119.912 639.384 119.779 639.048 119.512 638.824C119.246 638.6 118.92 638.488 118.536 638.488C118.28 638.488 118.032 638.533 117.792 638.624C117.558 638.715 117.366 638.851 117.216 639.032C117.067 639.213 116.992 639.437 116.992 639.704V645H114.656Z" fill="#3E3E3E"/>
</g>
<g clip-path="url(#clip2_562_1827)">
<path d="M214.5 771.5L207 775.25L199.5 771.5" stroke="#3E3E3E" stroke-width="2" stroke-linecap="round" stroke-linejoin="round"/>
</g>
<defs>
<filter id="filter0_d_562_1827" x="77.5" y="820.5" width="279" height="71" filterUnits="userSpaceOnUse" color-interpolation-filters="sRGB">
<feFlood flood-opacity="0" result="BackgroundImageFix"/>
<feColorMatrix in="SourceAlpha" type="matrix" values="0 0 0 0 0 0 0 0 0 0 0 0 0 0 0 0 0 0 127 0" result="hardAlpha"/>
<feOffset dx="3" dy="4"/>
<feGaussianBlur stdDeviation="3.75"/>
<feComposite in2="hardAlpha" operator="out"/>
<feColorMatrix type="matrix" values="0 0 0 0 0.529412 0 0 0 0 0.462745 0 0 0 0 0.341176 0 0 0 0.3 0"/>
<feBlend mode="normal" in2="BackgroundImageFix" result="effect1_dropShadow_562_1827"/>
<feBlend mode="normal" in="SourceGraphic" in2="effect1_dropShadow_562_1827" result="shape"/>
</filter>
<clipPath id="clip0_562_1827">
<rect width="119" height="119" fill="white" transform="translate(155 22)"/>
</clipPath>
<clipPath id="clip1_562_1827">
<rect width="330" height="489" fill="white" transform="translate(49 254)"/>
</clipPath>
<clipPath id="clip2_562_1827">
<rect width="24" height="12" fill="white" transform="translate(195 767)"/>
</clipPath>
</defs>
</svg>
