<svg width="428" height="926" viewBox="0 0 428 926" fill="none" xmlns="http://www.w3.org/2000/svg">
<rect width="428" height="926" fill="#F8F2E9"/>
<g clip-path="url(#clip0_520_2138)">
<path d="M240.646 92.0176C240.549 91.6316 240.501 91.2208 240.501 90.7849C240.501 89.1541 241.237 87.7352 242.71 86.5279C244.183 85.3207 247.195 83.8385 251.746 82.0813V80.735C251.746 79.3191 251.565 78.3046 251.205 77.6915C250.845 77.0784 250.254 76.7719 249.432 76.7719C248.762 76.7719 248.206 76.9709 247.764 77.3692C247.321 77.7674 247.1 78.2635 247.1 78.8578C247.1 79.1737 247.113 79.5435 247.138 79.967C247.163 80.3905 247.176 80.6592 247.176 80.7729C247.176 81.6957 246.92 82.4384 246.408 83.001C245.896 83.5635 245.216 83.8447 244.369 83.8447C243.598 83.8447 242.979 83.6014 242.511 83.1147C242.043 82.628 241.809 81.9864 241.809 81.1901C241.809 79.4708 242.625 78.0455 244.256 76.9141C245.886 75.7826 247.985 75.217 250.551 75.217C251.992 75.217 253.297 75.4003 254.467 75.7669C255.636 76.1336 256.594 76.6644 257.339 77.3597C257.946 77.9286 258.376 78.5923 258.629 79.3507C258.882 80.1092 259.008 81.2532 259.008 82.7829V88.1871C259.008 89.6914 259.125 90.7597 259.359 91.3916C259.593 92.0237 259.969 92.3398 260.487 92.3398C260.601 92.3398 260.715 92.3146 260.828 92.264C260.942 92.2133 261.062 92.1376 261.189 92.0363V93.2689C260.683 93.9136 260.029 94.413 259.226 94.7669C258.423 95.1209 257.535 95.2979 256.562 95.2979C255.45 95.2979 254.517 95.0388 253.765 94.5205C253.013 94.0021 252.46 93.2374 252.106 92.2261C251.145 93.3259 250.137 94.1444 249.081 94.6816C248.026 95.2188 246.91 95.4875 245.735 95.4875C244.18 95.4875 242.919 95.0482 241.952 94.1697C241.629 93.8765 241.36 93.5555 241.145 93.2066C240.384 93.8039 239.157 94.494 238.538 94.7669C237.736 95.1209 236.848 95.2979 235.874 95.2979C234.762 95.2979 233.829 95.0388 233.077 94.5205C232.325 94.0021 231.772 93.2374 231.418 92.2261C230.457 93.3259 229.449 94.1444 228.394 94.6816C227.338 95.2188 226.223 95.4875 225.047 95.4875C223.492 95.4875 222.231 95.0482 221.264 94.1697C220.297 93.2911 219.813 92.1628 219.813 90.7849C219.813 89.1541 220.55 87.7352 222.022 86.5279C223.495 85.3207 226.507 83.8385 231.058 82.0813V80.735C231.058 79.3191 230.878 78.3046 230.517 77.6915C230.157 77.0784 229.566 76.7719 228.744 76.7719C228.075 76.7719 227.518 76.9709 227.076 77.3692C226.633 77.7674 226.412 78.2635 226.412 78.8578C226.412 79.1737 226.425 79.5435 226.45 79.967C226.475 80.3905 226.488 80.6592 226.488 80.7729C226.488 81.6957 226.232 82.4384 225.72 83.001C225.208 83.5635 224.529 83.8447 223.682 83.8447C222.91 83.8447 222.291 83.6014 221.823 83.1147C221.356 82.628 221.122 81.9864 221.122 81.1901C221.122 79.4708 221.937 78.0455 223.568 76.9141C225.199 75.7826 227.297 75.217 229.863 75.217C231.304 75.217 232.61 75.4003 233.779 75.7669C234.948 76.1336 235.906 76.6644 236.652 77.3597C237.258 77.9286 237.688 78.5923 237.941 79.3507C238.194 80.1092 238.32 81.2532 238.32 82.7829V88.1871C238.32 89.6914 238.437 90.7597 238.671 91.3916C238.905 92.0237 239.281 92.3398 239.799 92.3398C239.913 92.3398 240.027 92.3146 240.141 92.264C240.194 92.2403 240.414 92.1343 240.646 92.0176ZM182.778 94.6722L178.246 85.6651V90.8228C178.246 91.8215 178.423 92.5326 178.777 92.9561C179.131 93.3796 179.731 93.5913 180.578 93.5913H180.692V94.6722H168.499V93.5913H168.613C169.448 93.5913 170.045 93.3796 170.405 92.9561C170.765 92.5326 170.946 91.8215 170.946 90.8228V75.2548C170.946 74.6734 170.879 74.2531 170.746 73.994C170.614 73.7348 170.313 73.4156 169.846 73.0364L167.798 71.3677C168.683 71.1022 169.915 70.6788 171.495 70.0972C173.076 69.5157 175.326 68.6561 178.246 67.5183V84.6222C179.902 83.3454 181.15 82.1919 181.991 81.1616C182.832 80.1314 183.252 79.237 183.252 78.4785C183.252 78.0739 183.097 77.7516 182.787 77.5115C182.478 77.2712 182.051 77.1511 181.507 77.1511H181.394V76.0703H191.254V77.1511H190.932C189.63 77.1511 188.403 77.4925 187.253 78.175C186.103 78.8578 184.921 79.9448 183.707 81.4366L189.149 90.7469C189.743 91.7836 190.319 92.5042 190.875 92.9087C191.429 93.3119 192.122 93.5393 192.953 93.5909C193.752 93.5796 194.326 93.368 194.677 92.9561C195.037 92.5326 195.217 91.8215 195.217 90.8228V82.7829C195.217 82.2014 195.154 81.781 195.027 81.5219C194.901 81.2628 194.604 80.9499 194.136 80.5833L192.069 78.9146C193.574 78.4343 195.198 77.8717 196.943 77.227C198.687 76.5823 200.545 75.8617 202.518 75.0652V90.8228C202.518 91.7962 202.691 92.4946 203.039 92.9181C203.387 93.3416 203.965 93.566 204.774 93.5913H204.811C205.645 93.5913 206.243 93.3796 206.603 92.9561C206.963 92.5326 207.143 91.8215 207.143 90.8228V83.6741C207.143 83.0673 207.067 82.6185 206.916 82.3278C206.764 82.0371 206.48 81.7526 206.063 81.4745L203.692 79.8058C204.931 79.376 206.36 78.7851 207.978 78.0329C209.596 77.2807 211.58 76.2915 213.932 75.0652V78.4027C214.564 77.3407 215.25 76.5444 215.989 76.0134C216.729 75.4825 217.522 75.217 218.369 75.217C219.304 75.217 220.057 75.4951 220.625 76.0513C221.194 76.6075 221.479 77.3407 221.479 78.2509C221.479 79.0474 221.242 79.6857 220.768 80.1661C220.294 80.6465 219.665 80.8866 218.881 80.8866C218.173 80.8866 217.494 80.6023 216.842 80.0333C216.191 79.4645 215.777 79.1801 215.6 79.1801C215.183 79.1801 214.886 79.4582 214.709 80.0144C214.532 80.5707 214.444 81.563 214.444 82.9915V90.8228C214.444 91.8089 214.643 92.5168 215.041 92.9465C215.439 93.3764 216.093 93.5913 217.004 93.5913H217.117V94.6722H182.778ZM251.746 83.4845C250.608 83.9396 249.742 84.657 249.148 85.6367C248.554 86.6164 248.257 87.8142 248.257 89.23C248.257 90.0391 248.418 90.6838 248.74 91.1642C249.062 91.6445 249.483 91.8847 250.001 91.8847C250.671 91.8847 251.129 91.6192 251.376 91.0883C251.622 90.5573 251.746 89.23 251.746 87.1063V83.4845ZM231.058 83.4845C229.92 83.9396 229.054 84.657 228.46 85.6367C227.866 86.6164 227.569 87.8142 227.569 89.23C227.569 90.0391 227.73 90.6838 228.052 91.1642C228.375 91.6445 228.795 91.8847 229.313 91.8847C229.983 91.8847 230.442 91.6192 230.688 91.0883C230.935 90.5573 231.058 89.23 231.058 87.1063V83.4845ZM194.705 71.3297C194.705 70.2679 195.075 69.3671 195.814 68.6277C196.554 67.8881 197.455 67.5183 198.517 67.5183C199.591 67.5183 200.495 67.8881 201.228 68.6277C201.961 69.3671 202.328 70.2679 202.328 71.3297C202.328 72.3917 201.958 73.2923 201.219 74.0319C200.479 74.7713 199.578 75.1411 198.517 75.1411C197.455 75.1411 196.554 74.7745 195.814 74.0413C195.075 73.3081 194.705 72.4043 194.705 71.3297Z" fill="#3E3E3E"/>
</g>
<g filter="url(#filter0_d_520_2138)">
<rect x="82" y="824" width="264" height="56" rx="28" fill="#F8F2E9" shape-rendering="crispEdges"/>
<path d="M121 862V856C121 855.735 120.895 855.48 120.707 855.293C120.52 855.105 120.265 855 120 855H116C115.735 855 115.48 855.105 115.293 855.293C115.105 855.48 115 855.735 115 856V862C115 862.265 114.895 862.52 114.707 862.707C114.52 862.895 114.265 863 114 863H108C107.735 863 107.48 862.895 107.293 862.707C107.105 862.52 107 862.265 107 862V850.438C107.002 850.299 107.032 850.163 107.088 850.036C107.144 849.909 107.224 849.795 107.325 849.7L117.325 840.613C117.509 840.444 117.75 840.35 118 840.35C118.25 840.35 118.491 840.444 118.675 840.613L128.675 849.7C128.776 849.795 128.856 849.909 128.912 850.036C128.968 850.163 128.998 850.299 129 850.438V862C129 862.265 128.895 862.52 128.707 862.707C128.52 862.895 128.265 863 128 863H122C121.735 863 121.48 862.895 121.293 862.707C121.105 862.52 121 862.265 121 862Z" stroke="#4A4A4A" stroke-width="2" stroke-linecap="round" stroke-linejoin="round"/>
<path d="M178 845C178 843.939 178.421 842.922 179.172 842.172C179.922 841.421 180.939 841 182 841C183.061 841 184.078 841.421 184.828 842.172C185.579 842.922 186 843.939 186 845L168.4 858.2C168.232 858.326 168.108 858.501 168.045 858.702C167.983 858.902 167.985 859.117 168.051 859.316C168.118 859.515 168.245 859.689 168.415 859.811C168.586 859.934 168.79 860 169 860H195C195.21 860 195.414 859.934 195.585 859.811C195.755 859.689 195.882 859.515 195.949 859.316C196.015 859.117 196.017 858.902 195.955 858.702C195.892 858.501 195.768 858.326 195.6 858.2L182 848" stroke="#4A4A4A" stroke-width="2" stroke-linecap="round" stroke-linejoin="round"/>
<path d="M246 856C250.418 856 254 852.418 254 848C254 843.582 250.418 840 246 840C241.582 840 238 843.582 238 848C238 852.418 241.582 856 246 856Z" fill="#4A4A4A"/>
<path d="M234 863C235.216 860.264 236.965 857.991 239.072 856.412C241.178 854.832 243.568 854 246 854C248.432 854 250.822 854.832 252.928 856.412C255.035 857.991 256.784 860.264 258 863" fill="#4A4A4A"/>
<path d="M305.955 841.143L306.938 838.606C307.103 838.176 307.395 837.807 307.774 837.546C308.154 837.285 308.603 837.144 309.063 837.143H310.938C311.398 837.144 311.847 837.285 312.227 837.546C312.606 837.807 312.897 838.176 313.063 838.606L314.046 841.143L317.383 843.063L320.08 842.651C320.529 842.59 320.987 842.664 321.394 842.864C321.801 843.063 322.139 843.379 322.366 843.771L323.28 845.371C323.515 845.77 323.623 846.23 323.59 846.691C323.557 847.152 323.386 847.593 323.098 847.954L321.429 850.08V853.92L323.143 856.046C323.431 856.407 323.603 856.848 323.636 857.309C323.668 857.77 323.56 858.23 323.326 858.629L322.412 860.229C322.185 860.621 321.846 860.937 321.439 861.136C321.032 861.336 320.575 861.409 320.126 861.349L317.429 860.937L314.092 862.857L313.109 865.394C312.943 865.824 312.652 866.193 312.272 866.454C311.893 866.715 311.444 866.856 310.983 866.857H309.063C308.603 866.856 308.154 866.715 307.774 866.454C307.395 866.193 307.103 865.824 306.938 865.394L305.955 862.857L302.618 860.937L299.92 861.349C299.471 861.409 299.014 861.336 298.607 861.136C298.2 860.937 297.862 860.621 297.635 860.229L296.72 858.629C296.486 858.23 296.378 857.77 296.411 857.309C296.443 856.848 296.615 856.407 296.903 856.046L298.572 853.92V850.08L296.858 847.954C296.569 847.593 296.398 847.152 296.365 846.691C296.332 846.23 296.44 845.77 296.675 845.371L297.589 843.771C297.816 843.379 298.154 843.063 298.561 842.864C298.968 842.664 299.426 842.59 299.875 842.651L302.572 843.063L305.955 841.143ZM305.429 852C305.429 852.904 305.697 853.788 306.199 854.54C306.702 855.291 307.416 855.877 308.251 856.223C309.086 856.569 310.005 856.66 310.892 856.484C311.779 856.307 312.594 855.872 313.233 855.232C313.872 854.593 314.308 853.779 314.484 852.892C314.66 852.005 314.57 851.086 314.224 850.251C313.878 849.415 313.292 848.701 312.54 848.199C311.788 847.697 310.905 847.429 310 847.429C308.788 847.429 307.625 847.91 306.768 848.767C305.911 849.625 305.429 850.788 305.429 852V852Z" stroke="#3E3E3E" stroke-width="2" stroke-linecap="round" stroke-linejoin="round"/>
</g>
<path d="M381 116H359C358.448 116 358 116.448 358 117V135C358 135.552 358.448 136 359 136H381C381.552 136 382 135.552 382 135V117C382 116.448 381.552 116 381 116Z" stroke="#3E3E3E" stroke-width="2" stroke-linecap="round" stroke-linejoin="round"/>
<path d="M375 121C375 122.326 374.473 123.598 373.536 124.536C372.598 125.473 371.326 126 370 126C368.674 126 367.402 125.473 366.464 124.536C365.527 123.598 365 122.326 365 121" stroke="#3E3E3E" stroke-width="2" stroke-linecap="round" stroke-linejoin="round"/>
<path d="M56.6188 195.238L51 189.619L56.6188 184" stroke="#3E3E3E" stroke-width="2.65192" stroke-linecap="round" stroke-linejoin="round"/>
<path d="M51 189.619H64.2596" stroke="#3E3E3E" stroke-width="2.65192" stroke-linecap="round" stroke-linejoin="round"/>
<path d="M140.62 258.54C140.693 258.54 140.897 258.54 141.23 258.54C141.57 258.54 141.967 258.54 142.42 258.54C142.88 258.54 143.337 258.543 143.79 258.55C144.25 258.55 144.633 258.553 144.94 258.56C146.693 258.6 148.123 258.913 149.23 259.5C150.337 260.087 151.147 260.907 151.66 261.96C152.18 263.013 152.44 264.26 152.44 265.7C152.44 267.2 152.167 268.497 151.62 269.59C151.073 270.677 150.237 271.517 149.11 272.11C147.99 272.703 146.567 273 144.84 273H140.62V258.54ZM143.56 260.9V270.64H144.9C145.727 270.64 146.477 270.48 147.15 270.16C147.83 269.84 148.373 269.317 148.78 268.59C149.187 267.863 149.39 266.893 149.39 265.68C149.39 264.553 149.21 263.64 148.85 262.94C148.49 262.233 147.977 261.717 147.31 261.39C146.643 261.063 145.853 260.9 144.94 260.9H143.56ZM157.045 268.5C157.038 269.027 157.121 269.487 157.295 269.88C157.468 270.267 157.718 270.567 158.045 270.78C158.378 270.987 158.778 271.09 159.245 271.09C159.745 271.09 160.181 270.983 160.555 270.77C160.935 270.557 161.198 270.207 161.345 269.72H163.975C163.861 270.453 163.568 271.08 163.095 271.6C162.628 272.12 162.061 272.517 161.395 272.79C160.728 273.063 160.035 273.2 159.315 273.2C158.295 273.2 157.395 272.987 156.615 272.56C155.841 272.127 155.238 271.517 154.805 270.73C154.371 269.943 154.155 269.017 154.155 267.95C154.155 266.917 154.351 265.987 154.745 265.16C155.138 264.327 155.708 263.67 156.455 263.19C157.208 262.703 158.111 262.46 159.165 262.46C160.218 262.46 161.101 262.683 161.815 263.13C162.535 263.57 163.075 264.187 163.435 264.98C163.801 265.767 163.985 266.677 163.985 267.71V268.5H157.045ZM157.035 266.76H161.255C161.255 266.347 161.178 265.967 161.025 265.62C160.871 265.273 160.638 265 160.325 264.8C160.018 264.6 159.631 264.5 159.165 264.5C158.711 264.5 158.325 264.61 158.005 264.83C157.691 265.043 157.451 265.323 157.285 265.67C157.118 266.017 157.035 266.38 157.035 266.76ZM169.312 273.18C168.552 273.18 167.948 273.09 167.502 272.91C167.055 272.73 166.725 272.493 166.512 272.2C166.298 271.9 166.162 271.57 166.102 271.21C166.042 270.843 166.012 270.473 166.012 270.1V258.14H168.872V269.74C168.872 270.12 168.952 270.43 169.112 270.67C169.278 270.903 169.588 271.047 170.042 271.1L170.532 271.13V272.93C170.332 272.997 170.128 273.053 169.922 273.1C169.715 273.153 169.512 273.18 169.312 273.18ZM175.378 262.66V273H172.588V262.66H175.378ZM175.408 258.55V261.18H172.568V258.55H175.408ZM186.913 262.66L183.033 273H180.923L177.033 262.66H179.673L181.933 269.25H182.013L184.243 262.66H186.913ZM190.384 268.5C190.378 269.027 190.461 269.487 190.634 269.88C190.808 270.267 191.058 270.567 191.384 270.78C191.718 270.987 192.118 271.09 192.584 271.09C193.084 271.09 193.521 270.983 193.894 270.77C194.274 270.557 194.538 270.207 194.684 269.72H197.314C197.201 270.453 196.908 271.08 196.434 271.6C195.968 272.12 195.401 272.517 194.734 272.79C194.068 273.063 193.374 273.2 192.654 273.2C191.634 273.2 190.734 272.987 189.954 272.56C189.181 272.127 188.578 271.517 188.144 270.73C187.711 269.943 187.494 269.017 187.494 267.95C187.494 266.917 187.691 265.987 188.084 265.16C188.478 264.327 189.048 263.67 189.794 263.19C190.548 262.703 191.451 262.46 192.504 262.46C193.558 262.46 194.441 262.683 195.154 263.13C195.874 263.57 196.414 264.187 196.774 264.98C197.141 265.767 197.324 266.677 197.324 267.71V268.5H190.384ZM190.374 266.76H194.594C194.594 266.347 194.518 265.967 194.364 265.62C194.211 265.273 193.978 265 193.664 264.8C193.358 264.6 192.971 264.5 192.504 264.5C192.051 264.5 191.664 264.61 191.344 264.83C191.031 265.043 190.791 265.323 190.624 265.67C190.458 266.017 190.374 266.38 190.374 266.76ZM199.352 273V262.66H202.162V265.11C202.328 264.583 202.562 264.123 202.862 263.73C203.168 263.33 203.538 263.02 203.972 262.8C204.405 262.573 204.895 262.46 205.442 262.46C205.535 262.46 205.622 262.467 205.702 262.48C205.788 262.487 205.852 262.5 205.892 262.52V265.3C205.832 265.273 205.758 265.257 205.672 265.25C205.592 265.243 205.518 265.237 205.452 265.23C204.878 265.183 204.388 265.2 203.982 265.28C203.575 265.36 203.245 265.497 202.992 265.69C202.738 265.883 202.555 266.12 202.442 266.4C202.328 266.68 202.272 266.993 202.272 267.34V273H199.352ZM209.516 276.3C208.81 276.3 208.31 276.24 208.016 276.12C207.73 276.007 207.586 275.95 207.586 275.95V274.09L208.606 274.13C209.053 274.157 209.413 274.133 209.686 274.06C209.96 273.993 210.166 273.903 210.306 273.79C210.453 273.677 210.556 273.557 210.616 273.43C210.676 273.31 210.72 273.213 210.746 273.14L210.936 272.57L206.916 262.66H209.806L212.286 269.4L214.796 262.66H217.646L213.456 273.06C213.096 273.94 212.716 274.613 212.316 275.08C211.916 275.547 211.483 275.867 211.016 276.04C210.556 276.213 210.056 276.3 209.516 276.3ZM223.628 258.54C223.701 258.54 223.904 258.54 224.238 258.54C224.578 258.54 224.974 258.54 225.428 258.54C225.888 258.54 226.344 258.543 226.798 258.55C227.258 258.55 227.641 258.553 227.948 258.56C229.701 258.6 231.131 258.913 232.238 259.5C233.344 260.087 234.154 260.907 234.668 261.96C235.188 263.013 235.448 264.26 235.448 265.7C235.448 267.2 235.174 268.497 234.628 269.59C234.081 270.677 233.244 271.517 232.118 272.11C230.998 272.703 229.574 273 227.848 273H223.628V258.54ZM226.568 260.9V270.64H227.908C228.734 270.64 229.484 270.48 230.158 270.16C230.838 269.84 231.381 269.317 231.788 268.59C232.194 267.863 232.398 266.893 232.398 265.68C232.398 264.553 232.218 263.64 231.858 262.94C231.498 262.233 230.984 261.717 230.318 261.39C229.651 261.063 228.861 260.9 227.948 260.9H226.568ZM240.052 268.5C240.046 269.027 240.129 269.487 240.302 269.88C240.476 270.267 240.726 270.567 241.052 270.78C241.386 270.987 241.786 271.09 242.252 271.09C242.752 271.09 243.189 270.983 243.562 270.77C243.942 270.557 244.206 270.207 244.352 269.72H246.982C246.869 270.453 246.576 271.08 246.102 271.6C245.636 272.12 245.069 272.517 244.402 272.79C243.736 273.063 243.042 273.2 242.322 273.2C241.302 273.2 240.402 272.987 239.622 272.56C238.849 272.127 238.246 271.517 237.812 270.73C237.379 269.943 237.162 269.017 237.162 267.95C237.162 266.917 237.359 265.987 237.752 265.16C238.146 264.327 238.716 263.67 239.462 263.19C240.216 262.703 241.119 262.46 242.172 262.46C243.226 262.46 244.109 262.683 244.822 263.13C245.542 263.57 246.082 264.187 246.442 264.98C246.809 265.767 246.992 266.677 246.992 267.71V268.5H240.052ZM240.042 266.76H244.262C244.262 266.347 244.186 265.967 244.032 265.62C243.879 265.273 243.646 265 243.332 264.8C243.026 264.6 242.639 264.5 242.172 264.5C241.719 264.5 241.332 264.61 241.012 264.83C240.699 265.043 240.459 265.323 240.292 265.67C240.126 266.017 240.042 266.38 240.042 266.76ZM254.988 264.69H252.688L252.708 270.2C252.708 270.453 252.738 270.643 252.798 270.77C252.864 270.89 252.964 270.97 253.098 271.01C253.238 271.043 253.414 271.06 253.628 271.06H255.018V272.86C254.884 272.92 254.674 272.977 254.388 273.03C254.108 273.083 253.714 273.11 253.208 273.11C252.301 273.11 251.598 272.993 251.098 272.76C250.604 272.527 250.261 272.2 250.068 271.78C249.874 271.36 249.778 270.873 249.778 270.32V264.69H248.097V262.66H249.878L250.608 259.54H252.688V262.65H254.988V264.69ZM260.125 273.2C259.465 273.2 258.872 273.077 258.345 272.83C257.818 272.583 257.402 272.227 257.095 271.76C256.788 271.287 256.635 270.713 256.635 270.04C256.635 268.907 257.058 268.047 257.905 267.46C258.752 266.867 260.088 266.56 261.915 266.54L263.205 266.52V265.9C263.205 265.427 263.065 265.063 262.785 264.81C262.512 264.55 262.085 264.423 261.505 264.43C261.078 264.437 260.672 264.537 260.285 264.73C259.905 264.923 259.645 265.26 259.505 265.74H257.075C257.115 264.993 257.332 264.38 257.725 263.9C258.118 263.413 258.652 263.053 259.325 262.82C260.005 262.58 260.775 262.46 261.635 262.46C262.695 262.46 263.545 262.593 264.185 262.86C264.825 263.12 265.288 263.497 265.575 263.99C265.862 264.477 266.005 265.057 266.005 265.73V273H263.565L263.325 271.22C262.972 271.967 262.528 272.483 261.995 272.77C261.468 273.057 260.845 273.2 260.125 273.2ZM261.105 271.28C261.372 271.28 261.628 271.233 261.875 271.14C262.128 271.04 262.352 270.91 262.545 270.75C262.745 270.583 262.905 270.397 263.025 270.19C263.145 269.983 263.205 269.77 263.205 269.55V268.02L262.155 268.04C261.668 268.047 261.215 268.107 260.795 268.22C260.375 268.327 260.035 268.503 259.775 268.75C259.522 268.997 259.395 269.33 259.395 269.75C259.395 270.23 259.562 270.607 259.895 270.88C260.228 271.147 260.632 271.28 261.105 271.28ZM271.53 262.66V273H268.74V262.66H271.53ZM271.56 258.55V261.18H268.72V258.55H271.56ZM277.534 273.18C276.774 273.18 276.171 273.09 275.724 272.91C275.278 272.73 274.948 272.493 274.734 272.2C274.521 271.9 274.384 271.57 274.324 271.21C274.264 270.843 274.234 270.473 274.234 270.1V258.14H277.094V269.74C277.094 270.12 277.174 270.43 277.334 270.67C277.501 270.903 277.811 271.047 278.264 271.1L278.754 271.13V272.93C278.554 272.997 278.351 273.053 278.144 273.1C277.938 273.153 277.734 273.18 277.534 273.18ZM284.653 273.2C283.933 273.2 283.239 273.083 282.573 272.85C281.906 272.61 281.343 272.237 280.883 271.73C280.423 271.217 280.129 270.553 280.003 269.74H282.533C282.619 270.107 282.776 270.397 283.003 270.61C283.236 270.823 283.499 270.977 283.793 271.07C284.086 271.157 284.366 271.2 284.633 271.2C285.193 271.2 285.643 271.113 285.983 270.94C286.329 270.76 286.503 270.487 286.503 270.12C286.503 269.84 286.399 269.617 286.193 269.45C285.993 269.283 285.659 269.157 285.192 269.07L283.373 268.69C282.459 268.497 281.726 268.17 281.173 267.71C280.619 267.243 280.336 266.583 280.323 265.73C280.323 265.11 280.486 264.553 280.813 264.06C281.146 263.567 281.636 263.177 282.283 262.89C282.929 262.603 283.723 262.46 284.663 262.46C285.936 262.46 286.953 262.74 287.713 263.3C288.479 263.86 288.869 264.65 288.883 265.67H286.443C286.369 265.27 286.169 264.963 285.843 264.75C285.523 264.53 285.119 264.42 284.633 264.42C284.126 264.42 283.709 264.51 283.383 264.69C283.056 264.87 282.893 265.143 282.893 265.51C282.893 265.783 283.026 266 283.293 266.16C283.559 266.313 283.973 266.447 284.533 266.56L286.213 266.94C286.793 267.08 287.263 267.273 287.623 267.52C287.989 267.76 288.273 268.023 288.473 268.31C288.673 268.597 288.809 268.887 288.883 269.18C288.963 269.467 289.003 269.727 289.003 269.96C289.003 270.647 288.819 271.233 288.453 271.72C288.086 272.2 287.576 272.567 286.923 272.82C286.269 273.073 285.513 273.2 284.653 273.2Z" fill="#4A4A4A"/>
<path d="M52.458 351V337.986H61.395L61.386 340.2H55.095V343.359H60.558V345.528H55.077V348.759L61.485 348.768V351H52.458ZM66.954 351.18C65.706 351.18 64.734 350.751 64.038 349.893C63.342 349.029 62.994 347.829 62.994 346.293C62.994 345.321 63.135 344.478 63.417 343.764C63.699 343.05 64.116 342.498 64.668 342.108C65.22 341.712 65.895 341.514 66.693 341.514C67.029 341.514 67.341 341.553 67.629 341.631C67.923 341.703 68.19 341.805 68.43 341.937C68.67 342.069 68.88 342.222 69.06 342.396C69.24 342.57 69.387 342.756 69.501 342.954V337.626H72.138V351H70.23L69.933 349.092C69.849 349.35 69.732 349.602 69.582 349.848C69.432 350.094 69.24 350.319 69.006 350.523C68.772 350.721 68.484 350.88 68.142 351C67.806 351.12 67.41 351.18 66.954 351.18ZM67.53 349.29C68.19 349.29 68.682 349.059 69.006 348.597C69.336 348.135 69.501 347.355 69.501 346.257C69.495 345.621 69.42 345.093 69.276 344.673C69.132 344.253 68.916 343.941 68.628 343.737C68.346 343.527 67.986 343.422 67.548 343.422C66.978 343.422 66.504 343.641 66.126 344.079C65.748 344.511 65.559 345.237 65.559 346.257C65.559 347.295 65.736 348.06 66.09 348.552C66.444 349.044 66.924 349.29 67.53 349.29ZM77.0952 341.694V351H74.5842V341.694H77.0952ZM77.1222 337.995V340.362H74.5662V337.995H77.1222ZM85.1466 343.521H83.0766L83.0946 348.48C83.0946 348.708 83.1216 348.879 83.1756 348.993C83.2356 349.101 83.3256 349.173 83.4456 349.209C83.5716 349.239 83.7306 349.254 83.9226 349.254H85.1736V350.874C85.0536 350.928 84.8646 350.979 84.6066 351.027C84.3546 351.075 84.0006 351.099 83.5446 351.099C82.7286 351.099 82.0956 350.994 81.6456 350.784C81.2016 350.574 80.8926 350.28 80.7186 349.902C80.5446 349.524 80.4576 349.086 80.4576 348.588V343.521H78.9456V341.694H80.5476L81.2046 338.886H83.0766V341.685H85.1466V343.521ZM91.2353 337.986C91.3013 337.986 91.4843 337.986 91.7843 337.986C92.0903 337.986 92.4473 337.986 92.8553 337.986C93.2693 337.986 93.6803 337.989 94.0883 337.995C94.5023 337.995 94.8473 337.998 95.1233 338.004C96.7013 338.04 97.9883 338.322 98.9843 338.85C99.9803 339.378 100.709 340.116 101.171 341.064C101.639 342.012 101.873 343.134 101.873 344.43C101.873 345.78 101.627 346.947 101.135 347.931C100.643 348.909 99.8903 349.665 98.8763 350.199C97.8683 350.733 96.5873 351 95.0333 351H91.2353V337.986ZM93.8813 340.11V348.876H95.0873C95.8313 348.876 96.5063 348.732 97.1123 348.444C97.7243 348.156 98.2133 347.685 98.5793 347.031C98.9453 346.377 99.1283 345.504 99.1283 344.412C99.1283 343.398 98.9663 342.576 98.6423 341.946C98.3183 341.31 97.8563 340.845 97.2563 340.551C96.6563 340.257 95.9453 340.11 95.1233 340.11H93.8813ZM106.017 346.95C106.011 347.424 106.086 347.838 106.242 348.192C106.398 348.54 106.623 348.81 106.917 349.002C107.217 349.188 107.577 349.281 107.997 349.281C108.447 349.281 108.84 349.185 109.176 348.993C109.518 348.801 109.755 348.486 109.887 348.048H112.254C112.152 348.708 111.888 349.272 111.462 349.74C111.042 350.208 110.532 350.565 109.932 350.811C109.332 351.057 108.708 351.18 108.06 351.18C107.142 351.18 106.332 350.988 105.63 350.604C104.934 350.214 104.391 349.665 104.001 348.957C103.611 348.249 103.416 347.415 103.416 346.455C103.416 345.525 103.593 344.688 103.947 343.944C104.301 343.194 104.814 342.603 105.486 342.171C106.164 341.733 106.977 341.514 107.925 341.514C108.873 341.514 109.668 341.715 110.31 342.117C110.958 342.513 111.444 343.068 111.768 343.782C112.098 344.49 112.263 345.309 112.263 346.239V346.95H106.017ZM106.008 345.384H109.806C109.806 345.012 109.737 344.67 109.599 344.358C109.461 344.046 109.251 343.8 108.969 343.62C108.693 343.44 108.345 343.35 107.925 343.35C107.517 343.35 107.169 343.449 106.881 343.647C106.599 343.839 106.383 344.091 106.233 344.403C106.083 344.715 106.008 345.042 106.008 345.384ZM117.058 351.162C116.374 351.162 115.831 351.081 115.429 350.919C115.027 350.757 114.73 350.544 114.538 350.28C114.346 350.01 114.223 349.713 114.169 349.389C114.115 349.059 114.088 348.726 114.088 348.39V337.626H116.662V348.066C116.662 348.408 116.734 348.687 116.878 348.903C117.028 349.113 117.307 349.242 117.715 349.29L118.156 349.317V350.937C117.976 350.997 117.793 351.048 117.607 351.09C117.421 351.138 117.238 351.162 117.058 351.162ZM122.517 341.694V351H120.006V341.694H122.517ZM122.544 337.995V340.362H119.988V337.995H122.544ZM132.899 341.694L129.407 351H127.508L124.007 341.694H126.383L128.417 347.625H128.489L130.496 341.694H132.899ZM136.023 346.95C136.017 347.424 136.092 347.838 136.248 348.192C136.404 348.54 136.629 348.81 136.923 349.002C137.223 349.188 137.583 349.281 138.003 349.281C138.453 349.281 138.846 349.185 139.182 348.993C139.524 348.801 139.761 348.486 139.893 348.048H142.26C142.158 348.708 141.894 349.272 141.468 349.74C141.048 350.208 140.538 350.565 139.938 350.811C139.338 351.057 138.714 351.18 138.066 351.18C137.148 351.18 136.338 350.988 135.636 350.604C134.94 350.214 134.397 349.665 134.007 348.957C133.617 348.249 133.422 347.415 133.422 346.455C133.422 345.525 133.599 344.688 133.953 343.944C134.307 343.194 134.82 342.603 135.492 342.171C136.17 341.733 136.983 341.514 137.931 341.514C138.879 341.514 139.674 341.715 140.316 342.117C140.964 342.513 141.45 343.068 141.774 343.782C142.104 344.49 142.269 345.309 142.269 346.239V346.95H136.023ZM136.014 345.384H139.812C139.812 345.012 139.743 344.67 139.605 344.358C139.467 344.046 139.257 343.8 138.975 343.62C138.699 343.44 138.351 343.35 137.931 343.35C137.523 343.35 137.175 343.449 136.887 343.647C136.605 343.839 136.389 344.091 136.239 344.403C136.089 344.715 136.014 345.042 136.014 345.384ZM144.094 351V341.694H146.623V343.899C146.773 343.425 146.983 343.011 147.253 342.657C147.529 342.297 147.862 342.018 148.252 341.82C148.642 341.616 149.083 341.514 149.575 341.514C149.659 341.514 149.737 341.52 149.809 341.532C149.887 341.538 149.944 341.55 149.98 341.568V344.07C149.926 344.046 149.86 344.031 149.782 344.025C149.71 344.019 149.644 344.013 149.584 344.007C149.068 343.965 148.627 343.98 148.261 344.052C147.895 344.124 147.598 344.247 147.37 344.421C147.142 344.595 146.977 344.808 146.875 345.06C146.773 345.312 146.722 345.594 146.722 345.906V351H144.094ZM153.242 353.97C152.606 353.97 152.156 353.916 151.892 353.808C151.634 353.706 151.505 353.655 151.505 353.655V351.981L152.423 352.017C152.825 352.041 153.149 352.02 153.395 351.954C153.641 351.894 153.827 351.813 153.953 351.711C154.085 351.609 154.178 351.501 154.232 351.387C154.286 351.279 154.325 351.192 154.349 351.126L154.52 350.613L150.902 341.694H153.503L155.735 347.76L157.994 341.694H160.559L156.788 351.054C156.464 351.846 156.122 352.452 155.762 352.872C155.402 353.292 155.012 353.58 154.592 353.736C154.178 353.892 153.728 353.97 153.242 353.97ZM165.942 337.986C166.008 337.986 166.191 337.986 166.491 337.986C166.797 337.986 167.154 337.986 167.562 337.986C167.976 337.986 168.387 337.989 168.795 337.995C169.209 337.995 169.554 337.998 169.83 338.004C171.408 338.04 172.695 338.322 173.691 338.85C174.687 339.378 175.416 340.116 175.878 341.064C176.346 342.012 176.58 343.134 176.58 344.43C176.58 345.78 176.334 346.947 175.842 347.931C175.35 348.909 174.597 349.665 173.583 350.199C172.575 350.733 171.294 351 169.74 351H165.942V337.986ZM168.588 340.11V348.876H169.794C170.538 348.876 171.213 348.732 171.819 348.444C172.431 348.156 172.92 347.685 173.286 347.031C173.652 346.377 173.835 345.504 173.835 344.412C173.835 343.398 173.673 342.576 173.349 341.946C173.025 341.31 172.563 340.845 171.963 340.551C171.363 340.257 170.652 340.11 169.83 340.11H168.588ZM180.724 346.95C180.718 347.424 180.793 347.838 180.949 348.192C181.105 348.54 181.33 348.81 181.624 349.002C181.924 349.188 182.284 349.281 182.704 349.281C183.154 349.281 183.547 349.185 183.883 348.993C184.225 348.801 184.462 348.486 184.594 348.048H186.961C186.859 348.708 186.595 349.272 186.169 349.74C185.749 350.208 185.239 350.565 184.639 350.811C184.039 351.057 183.415 351.18 182.767 351.18C181.849 351.18 181.039 350.988 180.337 350.604C179.641 350.214 179.098 349.665 178.708 348.957C178.318 348.249 178.123 347.415 178.123 346.455C178.123 345.525 178.3 344.688 178.654 343.944C179.008 343.194 179.521 342.603 180.193 342.171C180.871 341.733 181.684 341.514 182.632 341.514C183.58 341.514 184.375 341.715 185.017 342.117C185.665 342.513 186.151 343.068 186.475 343.782C186.805 344.49 186.97 345.309 186.97 346.239V346.95H180.724ZM180.715 345.384H184.513C184.513 345.012 184.444 344.67 184.306 344.358C184.168 344.046 183.958 343.8 183.676 343.62C183.4 343.44 183.052 343.35 182.632 343.35C182.224 343.35 181.876 343.449 181.588 343.647C181.306 343.839 181.09 344.091 180.94 344.403C180.79 344.715 180.715 345.042 180.715 345.384ZM194.166 343.521H192.096L192.114 348.48C192.114 348.708 192.141 348.879 192.195 348.993C192.255 349.101 192.345 349.173 192.465 349.209C192.591 349.239 192.75 349.254 192.942 349.254H194.193V350.874C194.073 350.928 193.884 350.979 193.626 351.027C193.374 351.075 193.02 351.099 192.564 351.099C191.748 351.099 191.115 350.994 190.665 350.784C190.221 350.574 189.912 350.28 189.738 349.902C189.564 349.524 189.477 349.086 189.477 348.588V343.521H187.965V341.694H189.567L190.224 338.886H192.096V341.685H194.166V343.521ZM198.79 351.18C198.196 351.18 197.662 351.069 197.188 350.847C196.714 350.625 196.339 350.304 196.063 349.884C195.787 349.458 195.649 348.942 195.649 348.336C195.649 347.316 196.03 346.542 196.792 346.014C197.554 345.48 198.757 345.204 200.401 345.186L201.562 345.168V344.61C201.562 344.184 201.436 343.857 201.184 343.629C200.938 343.395 200.554 343.281 200.032 343.287C199.648 343.293 199.282 343.383 198.934 343.557C198.592 343.731 198.358 344.034 198.232 344.466H196.045C196.081 343.794 196.276 343.242 196.63 342.81C196.984 342.372 197.464 342.048 198.07 341.838C198.682 341.622 199.375 341.514 200.149 341.514C201.103 341.514 201.868 341.634 202.444 341.874C203.02 342.108 203.437 342.447 203.695 342.891C203.953 343.329 204.082 343.851 204.082 344.457V351H201.886L201.67 349.398C201.352 350.07 200.953 350.535 200.473 350.793C199.999 351.051 199.438 351.18 198.79 351.18ZM199.672 349.452C199.912 349.452 200.143 349.41 200.365 349.326C200.593 349.236 200.794 349.119 200.968 348.975C201.148 348.825 201.292 348.657 201.4 348.471C201.508 348.285 201.562 348.093 201.562 347.895V346.518L200.617 346.536C200.179 346.542 199.771 346.596 199.393 346.698C199.015 346.794 198.709 346.953 198.475 347.175C198.247 347.397 198.133 347.697 198.133 348.075C198.133 348.507 198.283 348.846 198.583 349.092C198.883 349.332 199.246 349.452 199.672 349.452ZM209.054 341.694V351H206.543V341.694H209.054ZM209.081 337.995V340.362H206.525V337.995H209.081ZM214.458 351.162C213.774 351.162 213.231 351.081 212.829 350.919C212.427 350.757 212.13 350.544 211.938 350.28C211.746 350.01 211.623 349.713 211.569 349.389C211.515 349.059 211.488 348.726 211.488 348.39V337.626H214.062V348.066C214.062 348.408 214.134 348.687 214.278 348.903C214.428 349.113 214.707 349.242 215.115 349.29L215.556 349.317V350.937C215.376 350.997 215.193 351.048 215.007 351.09C214.821 351.138 214.638 351.162 214.458 351.162ZM220.865 351.18C220.217 351.18 219.593 351.075 218.993 350.865C218.393 350.649 217.886 350.313 217.472 349.857C217.058 349.395 216.794 348.798 216.68 348.066H218.957C219.035 348.396 219.176 348.657 219.38 348.849C219.59 349.041 219.827 349.179 220.091 349.263C220.355 349.341 220.607 349.38 220.847 349.38C221.351 349.38 221.756 349.302 222.062 349.146C222.374 348.984 222.53 348.738 222.53 348.408C222.53 348.156 222.437 347.955 222.251 347.805C222.071 347.655 221.771 347.541 221.351 347.463L219.713 347.121C218.891 346.947 218.231 346.653 217.733 346.239C217.235 345.819 216.98 345.225 216.968 344.457C216.968 343.899 217.115 343.398 217.409 342.954C217.709 342.51 218.15 342.159 218.732 341.901C219.314 341.643 220.028 341.514 220.874 341.514C222.02 341.514 222.935 341.766 223.619 342.27C224.309 342.774 224.66 343.485 224.672 344.403H222.476C222.41 344.043 222.23 343.767 221.936 343.575C221.648 343.377 221.285 343.278 220.847 343.278C220.391 343.278 220.016 343.359 219.722 343.521C219.428 343.683 219.281 343.929 219.281 344.259C219.281 344.505 219.401 344.7 219.641 344.844C219.881 344.982 220.253 345.102 220.757 345.204L222.269 345.546C222.791 345.672 223.214 345.846 223.538 346.068C223.868 346.284 224.123 346.521 224.303 346.779C224.483 347.037 224.606 347.298 224.672 347.562C224.744 347.82 224.78 348.054 224.78 348.264C224.78 348.882 224.615 349.41 224.285 349.848C223.955 350.28 223.496 350.61 222.908 350.838C222.32 351.066 221.639 351.18 220.865 351.18Z" fill="#3E3E3E"/>
<rect x="51" y="416" width="326" height="50" rx="6" fill="#FCFCFC" stroke="white" stroke-width="4"/>
<path d="M49.44 398L53.584 386.432H56.048L60.184 398H57.856L56.912 395.32H52.752L51.784 398H49.44ZM53.272 393.28H56.352L54.824 388.688L53.272 393.28ZM64.4314 398.16C63.322 398.16 62.458 397.779 61.8394 397.016C61.2207 396.248 60.9114 395.181 60.9114 393.816C60.9114 392.952 61.0367 392.203 61.2874 391.568C61.538 390.933 61.9087 390.443 62.3994 390.096C62.89 389.744 63.49 389.568 64.1994 389.568C64.498 389.568 64.7754 389.603 65.0314 389.672C65.2927 389.736 65.53 389.827 65.7434 389.944C65.9567 390.061 66.1434 390.197 66.3034 390.352C66.4634 390.507 66.594 390.672 66.6954 390.848V386.112H69.0394V398H67.3434L67.0794 396.304C67.0047 396.533 66.9007 396.757 66.7674 396.976C66.634 397.195 66.4634 397.395 66.2554 397.576C66.0474 397.752 65.7914 397.893 65.4874 398C65.1887 398.107 64.8367 398.16 64.4314 398.16ZM64.9434 396.48C65.53 396.48 65.9674 396.275 66.2554 395.864C66.5487 395.453 66.6954 394.76 66.6954 393.784C66.69 393.219 66.6234 392.749 66.4954 392.376C66.3674 392.003 66.1754 391.725 65.9194 391.544C65.6687 391.357 65.3487 391.264 64.9594 391.264C64.4527 391.264 64.0314 391.459 63.6954 391.848C63.3594 392.232 63.1914 392.877 63.1914 393.784C63.1914 394.707 63.3487 395.387 63.6634 395.824C63.978 396.261 64.4047 396.48 64.9434 396.48ZM74.1189 398.16C73.0095 398.16 72.1455 397.779 71.5269 397.016C70.9082 396.248 70.5989 395.181 70.5989 393.816C70.5989 392.952 70.7242 392.203 70.9749 391.568C71.2255 390.933 71.5962 390.443 72.0869 390.096C72.5775 389.744 73.1775 389.568 73.8869 389.568C74.1855 389.568 74.4629 389.603 74.7189 389.672C74.9802 389.736 75.2175 389.827 75.4309 389.944C75.6442 390.061 75.8309 390.197 75.9909 390.352C76.1509 390.507 76.2815 390.672 76.3829 390.848V386.112H78.7269V398H77.0309L76.7669 396.304C76.6922 396.533 76.5882 396.757 76.4549 396.976C76.3215 397.195 76.1509 397.395 75.9429 397.576C75.7349 397.752 75.4789 397.893 75.1749 398C74.8762 398.107 74.5242 398.16 74.1189 398.16ZM74.6309 396.48C75.2175 396.48 75.6549 396.275 75.9429 395.864C76.2362 395.453 76.3829 394.76 76.3829 393.784C76.3775 393.219 76.3109 392.749 76.1829 392.376C76.0549 392.003 75.8629 391.725 75.6069 391.544C75.3562 391.357 75.0362 391.264 74.6469 391.264C74.1402 391.264 73.7189 391.459 73.3829 391.848C73.0469 392.232 72.8789 392.877 72.8789 393.784C72.8789 394.707 73.0362 395.387 73.3509 395.824C73.6655 396.261 74.0922 396.48 74.6309 396.48ZM80.7812 398V389.728H83.0293V391.688C83.1626 391.267 83.3493 390.899 83.5893 390.584C83.8346 390.264 84.1306 390.016 84.4773 389.84C84.8239 389.659 85.2159 389.568 85.6533 389.568C85.7279 389.568 85.7973 389.573 85.8613 389.584C85.9306 389.589 85.9813 389.6 86.0133 389.616V391.84C85.9653 391.819 85.9066 391.805 85.8373 391.8C85.7733 391.795 85.7146 391.789 85.6613 391.784C85.2026 391.747 84.8106 391.76 84.4852 391.824C84.1599 391.888 83.8959 391.997 83.6933 392.152C83.4906 392.307 83.3439 392.496 83.2533 392.72C83.1626 392.944 83.1173 393.195 83.1173 393.472V398H80.7812ZM89.17 394.4C89.1647 394.821 89.2313 395.189 89.37 395.504C89.5087 395.813 89.7087 396.053 89.97 396.224C90.2367 396.389 90.5567 396.472 90.93 396.472C91.33 396.472 91.6793 396.387 91.978 396.216C92.282 396.045 92.4927 395.765 92.61 395.376H94.714C94.6233 395.963 94.3887 396.464 94.01 396.88C93.6367 397.296 93.1833 397.613 92.65 397.832C92.1167 398.051 91.562 398.16 90.986 398.16C90.17 398.16 89.45 397.989 88.826 397.648C88.2073 397.301 87.7247 396.813 87.378 396.184C87.0313 395.555 86.858 394.813 86.858 393.96C86.858 393.133 87.0153 392.389 87.33 391.728C87.6447 391.061 88.1007 390.536 88.698 390.152C89.3007 389.763 90.0233 389.568 90.866 389.568C91.7087 389.568 92.4153 389.747 92.986 390.104C93.562 390.456 93.994 390.949 94.282 391.584C94.5753 392.213 94.722 392.941 94.722 393.768V394.4H89.17ZM89.162 393.008H92.538C92.538 392.677 92.4767 392.373 92.354 392.096C92.2313 391.819 92.0447 391.6 91.794 391.44C91.5487 391.28 91.2393 391.2 90.866 391.2C90.5033 391.2 90.194 391.288 89.938 391.464C89.6873 391.635 89.4953 391.859 89.362 392.136C89.2287 392.413 89.162 392.704 89.162 393.008ZM99.6001 398.16C99.0241 398.16 98.4695 398.067 97.9361 397.88C97.4028 397.688 96.9521 397.389 96.5841 396.984C96.2161 396.573 95.9815 396.043 95.8801 395.392H97.9041C97.9735 395.685 98.0988 395.917 98.2801 396.088C98.4668 396.259 98.6775 396.381 98.9121 396.456C99.1468 396.525 99.3708 396.56 99.5841 396.56C100.032 396.56 100.392 396.491 100.664 396.352C100.941 396.208 101.08 395.989 101.08 395.696C101.08 395.472 100.997 395.293 100.832 395.16C100.672 395.027 100.405 394.925 100.032 394.856L98.5761 394.552C97.8455 394.397 97.2588 394.136 96.8161 393.768C96.3735 393.395 96.1468 392.867 96.1361 392.184C96.1361 391.688 96.2668 391.243 96.5281 390.848C96.7948 390.453 97.1868 390.141 97.7041 389.912C98.2215 389.683 98.8561 389.568 99.6081 389.568C100.627 389.568 101.44 389.792 102.048 390.24C102.661 390.688 102.973 391.32 102.984 392.136H101.032C100.973 391.816 100.813 391.571 100.552 391.4C100.296 391.224 99.9735 391.136 99.5841 391.136C99.1788 391.136 98.8455 391.208 98.5841 391.352C98.3228 391.496 98.1921 391.715 98.1921 392.008C98.1921 392.227 98.2988 392.4 98.5121 392.528C98.7255 392.651 99.0561 392.757 99.5041 392.848L100.848 393.152C101.312 393.264 101.688 393.419 101.976 393.616C102.269 393.808 102.496 394.019 102.656 394.248C102.816 394.477 102.925 394.709 102.984 394.944C103.048 395.173 103.08 395.381 103.08 395.568C103.08 396.117 102.933 396.587 102.64 396.976C102.347 397.36 101.939 397.653 101.416 397.856C100.893 398.059 100.288 398.16 99.6001 398.16ZM107.897 398.16C107.321 398.16 106.766 398.067 106.233 397.88C105.7 397.688 105.249 397.389 104.881 396.984C104.513 396.573 104.278 396.043 104.177 395.392H106.201C106.27 395.685 106.396 395.917 106.577 396.088C106.764 396.259 106.974 396.381 107.209 396.456C107.444 396.525 107.668 396.56 107.881 396.56C108.329 396.56 108.689 396.491 108.961 396.352C109.238 396.208 109.377 395.989 109.377 395.696C109.377 395.472 109.294 395.293 109.129 395.16C108.969 395.027 108.702 394.925 108.329 394.856L106.873 394.552C106.142 394.397 105.556 394.136 105.113 393.768C104.67 393.395 104.444 392.867 104.433 392.184C104.433 391.688 104.564 391.243 104.825 390.848C105.092 390.453 105.484 390.141 106.001 389.912C106.518 389.683 107.153 389.568 107.905 389.568C108.924 389.568 109.737 389.792 110.345 390.24C110.958 390.688 111.27 391.32 111.281 392.136H109.329C109.27 391.816 109.11 391.571 108.849 391.4C108.593 391.224 108.27 391.136 107.881 391.136C107.476 391.136 107.142 391.208 106.881 391.352C106.62 391.496 106.489 391.715 106.489 392.008C106.489 392.227 106.596 392.4 106.809 392.528C107.022 392.651 107.353 392.757 107.801 392.848L109.145 393.152C109.609 393.264 109.985 393.419 110.273 393.616C110.566 393.808 110.793 394.019 110.953 394.248C111.113 394.477 111.222 394.709 111.281 394.944C111.345 395.173 111.377 395.381 111.377 395.568C111.377 396.117 111.23 396.587 110.937 396.976C110.644 397.36 110.236 397.653 109.713 397.856C109.19 398.059 108.585 398.16 107.897 398.16ZM116.593 386.432H118.945V396.024H123.969V398H116.593V386.432ZM127.883 389.728V398H125.651V389.728H127.883ZM127.907 386.44V388.544H125.635V386.44H127.907ZM130.047 398V389.728H132.343V390.896C132.471 390.693 132.636 390.499 132.839 390.312C133.047 390.12 133.308 389.963 133.623 389.84C133.938 389.717 134.311 389.656 134.743 389.656C135.25 389.656 135.722 389.755 136.159 389.952C136.602 390.149 136.959 390.461 137.231 390.888C137.503 391.309 137.639 391.861 137.639 392.544V398H135.303V392.832C135.303 392.384 135.17 392.048 134.903 391.824C134.636 391.6 134.311 391.488 133.927 391.488C133.671 391.488 133.423 391.533 133.183 391.624C132.948 391.715 132.756 391.851 132.607 392.032C132.458 392.213 132.383 392.437 132.383 392.704V398H130.047ZM141.451 394.4C141.446 394.821 141.513 395.189 141.651 395.504C141.79 395.813 141.99 396.053 142.251 396.224C142.518 396.389 142.838 396.472 143.211 396.472C143.611 396.472 143.961 396.387 144.259 396.216C144.563 396.045 144.774 395.765 144.891 395.376H146.995C146.905 395.963 146.67 396.464 146.291 396.88C145.918 397.296 145.465 397.613 144.931 397.832C144.398 398.051 143.843 398.16 143.267 398.16C142.451 398.16 141.731 397.989 141.107 397.648C140.489 397.301 140.006 396.813 139.659 396.184C139.313 395.555 139.139 394.813 139.139 393.96C139.139 393.133 139.297 392.389 139.611 391.728C139.926 391.061 140.382 390.536 140.979 390.152C141.582 389.763 142.305 389.568 143.147 389.568C143.99 389.568 144.697 389.747 145.267 390.104C145.843 390.456 146.275 390.949 146.563 391.584C146.857 392.213 147.003 392.941 147.003 393.768V394.4H141.451ZM141.443 393.008H144.819C144.819 392.677 144.758 392.373 144.635 392.096C144.513 391.819 144.326 391.6 144.075 391.44C143.83 391.28 143.521 391.2 143.147 391.2C142.785 391.2 142.475 391.288 142.219 391.464C141.969 391.635 141.777 391.859 141.643 392.136C141.51 392.413 141.443 392.704 141.443 393.008ZM153.721 398V389.336H151.657V388.016C152.318 388.016 152.851 387.955 153.257 387.832C153.667 387.704 153.974 387.523 154.177 387.288C154.379 387.048 154.499 386.763 154.537 386.432H156.089V398H153.721Z" fill="#3E3E3E"/>
<rect x="51" y="525" width="326" height="50" rx="6" fill="#FCFCFC" stroke="white" stroke-width="4"/>
<path d="M49.44 507L53.584 495.432H56.048L60.184 507H57.856L56.912 504.32H52.752L51.784 507H49.44ZM53.272 502.28H56.352L54.824 497.688L53.272 502.28ZM64.4314 507.16C63.322 507.16 62.458 506.779 61.8394 506.016C61.2207 505.248 60.9114 504.181 60.9114 502.816C60.9114 501.952 61.0367 501.203 61.2874 500.568C61.538 499.933 61.9087 499.443 62.3994 499.096C62.89 498.744 63.49 498.568 64.1994 498.568C64.498 498.568 64.7754 498.603 65.0314 498.672C65.2927 498.736 65.53 498.827 65.7434 498.944C65.9567 499.061 66.1434 499.197 66.3034 499.352C66.4634 499.507 66.594 499.672 66.6954 499.848V495.112H69.0394V507H67.3434L67.0794 505.304C67.0047 505.533 66.9007 505.757 66.7674 505.976C66.634 506.195 66.4634 506.395 66.2554 506.576C66.0474 506.752 65.7914 506.893 65.4874 507C65.1887 507.107 64.8367 507.16 64.4314 507.16ZM64.9434 505.48C65.53 505.48 65.9674 505.275 66.2554 504.864C66.5487 504.453 66.6954 503.76 66.6954 502.784C66.69 502.219 66.6234 501.749 66.4954 501.376C66.3674 501.003 66.1754 500.725 65.9194 500.544C65.6687 500.357 65.3487 500.264 64.9594 500.264C64.4527 500.264 64.0314 500.459 63.6954 500.848C63.3594 501.232 63.1914 501.877 63.1914 502.784C63.1914 503.707 63.3487 504.387 63.6634 504.824C63.978 505.261 64.4047 505.48 64.9434 505.48ZM74.1189 507.16C73.0095 507.16 72.1455 506.779 71.5269 506.016C70.9082 505.248 70.5989 504.181 70.5989 502.816C70.5989 501.952 70.7242 501.203 70.9749 500.568C71.2255 499.933 71.5962 499.443 72.0869 499.096C72.5775 498.744 73.1775 498.568 73.8869 498.568C74.1855 498.568 74.4629 498.603 74.7189 498.672C74.9802 498.736 75.2175 498.827 75.4309 498.944C75.6442 499.061 75.8309 499.197 75.9909 499.352C76.1509 499.507 76.2815 499.672 76.3829 499.848V495.112H78.7269V507H77.0309L76.7669 505.304C76.6922 505.533 76.5882 505.757 76.4549 505.976C76.3215 506.195 76.1509 506.395 75.9429 506.576C75.7349 506.752 75.4789 506.893 75.1749 507C74.8762 507.107 74.5242 507.16 74.1189 507.16ZM74.6309 505.48C75.2175 505.48 75.6549 505.275 75.9429 504.864C76.2362 504.453 76.3829 503.76 76.3829 502.784C76.3775 502.219 76.3109 501.749 76.1829 501.376C76.0549 501.003 75.8629 500.725 75.6069 500.544C75.3562 500.357 75.0362 500.264 74.6469 500.264C74.1402 500.264 73.7189 500.459 73.3829 500.848C73.0469 501.232 72.8789 501.877 72.8789 502.784C72.8789 503.707 73.0362 504.387 73.3509 504.824C73.6655 505.261 74.0922 505.48 74.6309 505.48ZM80.7812 507V498.728H83.0293V500.688C83.1626 500.267 83.3493 499.899 83.5893 499.584C83.8346 499.264 84.1306 499.016 84.4773 498.84C84.8239 498.659 85.2159 498.568 85.6533 498.568C85.7279 498.568 85.7973 498.573 85.8613 498.584C85.9306 498.589 85.9813 498.6 86.0133 498.616V500.84C85.9653 500.819 85.9066 500.805 85.8373 500.8C85.7733 500.795 85.7146 500.789 85.6613 500.784C85.2026 500.747 84.8106 500.76 84.4852 500.824C84.1599 500.888 83.8959 500.997 83.6933 501.152C83.4906 501.307 83.3439 501.496 83.2533 501.72C83.1626 501.944 83.1173 502.195 83.1173 502.472V507H80.7812ZM89.17 503.4C89.1647 503.821 89.2313 504.189 89.37 504.504C89.5087 504.813 89.7087 505.053 89.97 505.224C90.2367 505.389 90.5567 505.472 90.93 505.472C91.33 505.472 91.6793 505.387 91.978 505.216C92.282 505.045 92.4927 504.765 92.61 504.376H94.714C94.6233 504.963 94.3887 505.464 94.01 505.88C93.6367 506.296 93.1833 506.613 92.65 506.832C92.1167 507.051 91.562 507.16 90.986 507.16C90.17 507.16 89.45 506.989 88.826 506.648C88.2073 506.301 87.7247 505.813 87.378 505.184C87.0313 504.555 86.858 503.813 86.858 502.96C86.858 502.133 87.0153 501.389 87.33 500.728C87.6447 500.061 88.1007 499.536 88.698 499.152C89.3007 498.763 90.0233 498.568 90.866 498.568C91.7087 498.568 92.4153 498.747 92.986 499.104C93.562 499.456 93.994 499.949 94.282 500.584C94.5753 501.213 94.722 501.941 94.722 502.768V503.4H89.17ZM89.162 502.008H92.538C92.538 501.677 92.4767 501.373 92.354 501.096C92.2313 500.819 92.0447 500.6 91.794 500.44C91.5487 500.28 91.2393 500.2 90.866 500.2C90.5033 500.2 90.194 500.288 89.938 500.464C89.6873 500.635 89.4953 500.859 89.362 501.136C89.2287 501.413 89.162 501.704 89.162 502.008ZM99.6001 507.16C99.0241 507.16 98.4695 507.067 97.9361 506.88C97.4028 506.688 96.9521 506.389 96.5841 505.984C96.2161 505.573 95.9815 505.043 95.8801 504.392H97.9041C97.9735 504.685 98.0988 504.917 98.2801 505.088C98.4668 505.259 98.6775 505.381 98.9121 505.456C99.1468 505.525 99.3708 505.56 99.5841 505.56C100.032 505.56 100.392 505.491 100.664 505.352C100.941 505.208 101.08 504.989 101.08 504.696C101.08 504.472 100.997 504.293 100.832 504.16C100.672 504.027 100.405 503.925 100.032 503.856L98.5761 503.552C97.8455 503.397 97.2588 503.136 96.8161 502.768C96.3735 502.395 96.1468 501.867 96.1361 501.184C96.1361 500.688 96.2668 500.243 96.5281 499.848C96.7948 499.453 97.1868 499.141 97.7041 498.912C98.2215 498.683 98.8561 498.568 99.6081 498.568C100.627 498.568 101.44 498.792 102.048 499.24C102.661 499.688 102.973 500.32 102.984 501.136H101.032C100.973 500.816 100.813 500.571 100.552 500.4C100.296 500.224 99.9735 500.136 99.5841 500.136C99.1788 500.136 98.8455 500.208 98.5841 500.352C98.3228 500.496 98.1921 500.715 98.1921 501.008C98.1921 501.227 98.2988 501.4 98.5121 501.528C98.7255 501.651 99.0561 501.757 99.5041 501.848L100.848 502.152C101.312 502.264 101.688 502.419 101.976 502.616C102.269 502.808 102.496 503.019 102.656 503.248C102.816 503.477 102.925 503.709 102.984 503.944C103.048 504.173 103.08 504.381 103.08 504.568C103.08 505.117 102.933 505.587 102.64 505.976C102.347 506.36 101.939 506.653 101.416 506.856C100.893 507.059 100.288 507.16 99.6001 507.16ZM107.897 507.16C107.321 507.16 106.766 507.067 106.233 506.88C105.7 506.688 105.249 506.389 104.881 505.984C104.513 505.573 104.278 505.043 104.177 504.392H106.201C106.27 504.685 106.396 504.917 106.577 505.088C106.764 505.259 106.974 505.381 107.209 505.456C107.444 505.525 107.668 505.56 107.881 505.56C108.329 505.56 108.689 505.491 108.961 505.352C109.238 505.208 109.377 504.989 109.377 504.696C109.377 504.472 109.294 504.293 109.129 504.16C108.969 504.027 108.702 503.925 108.329 503.856L106.873 503.552C106.142 503.397 105.556 503.136 105.113 502.768C104.67 502.395 104.444 501.867 104.433 501.184C104.433 500.688 104.564 500.243 104.825 499.848C105.092 499.453 105.484 499.141 106.001 498.912C106.518 498.683 107.153 498.568 107.905 498.568C108.924 498.568 109.737 498.792 110.345 499.24C110.958 499.688 111.27 500.32 111.281 501.136H109.329C109.27 500.816 109.11 500.571 108.849 500.4C108.593 500.224 108.27 500.136 107.881 500.136C107.476 500.136 107.142 500.208 106.881 500.352C106.62 500.496 106.489 500.715 106.489 501.008C106.489 501.227 106.596 501.4 106.809 501.528C107.022 501.651 107.353 501.757 107.801 501.848L109.145 502.152C109.609 502.264 109.985 502.419 110.273 502.616C110.566 502.808 110.793 503.019 110.953 503.248C111.113 503.477 111.222 503.709 111.281 503.944C111.345 504.173 111.377 504.381 111.377 504.568C111.377 505.117 111.23 505.587 110.937 505.976C110.644 506.36 110.236 506.653 109.713 506.856C109.19 507.059 108.585 507.16 107.897 507.16ZM116.593 495.432H118.945V505.024H123.969V507H116.593V495.432ZM127.883 498.728V507H125.651V498.728H127.883ZM127.907 495.44V497.544H125.635V495.44H127.907ZM130.047 507V498.728H132.343V499.896C132.471 499.693 132.636 499.499 132.839 499.312C133.047 499.12 133.308 498.963 133.623 498.84C133.938 498.717 134.311 498.656 134.743 498.656C135.25 498.656 135.722 498.755 136.159 498.952C136.602 499.149 136.959 499.461 137.231 499.888C137.503 500.309 137.639 500.861 137.639 501.544V507H135.303V501.832C135.303 501.384 135.17 501.048 134.903 500.824C134.636 500.6 134.311 500.488 133.927 500.488C133.671 500.488 133.423 500.533 133.183 500.624C132.948 500.715 132.756 500.851 132.607 501.032C132.458 501.213 132.383 501.437 132.383 501.704V507H130.047ZM141.451 503.4C141.446 503.821 141.513 504.189 141.651 504.504C141.79 504.813 141.99 505.053 142.251 505.224C142.518 505.389 142.838 505.472 143.211 505.472C143.611 505.472 143.961 505.387 144.259 505.216C144.563 505.045 144.774 504.765 144.891 504.376H146.995C146.905 504.963 146.67 505.464 146.291 505.88C145.918 506.296 145.465 506.613 144.931 506.832C144.398 507.051 143.843 507.16 143.267 507.16C142.451 507.16 141.731 506.989 141.107 506.648C140.489 506.301 140.006 505.813 139.659 505.184C139.313 504.555 139.139 503.813 139.139 502.96C139.139 502.133 139.297 501.389 139.611 500.728C139.926 500.061 140.382 499.536 140.979 499.152C141.582 498.763 142.305 498.568 143.147 498.568C143.99 498.568 144.697 498.747 145.267 499.104C145.843 499.456 146.275 499.949 146.563 500.584C146.857 501.213 147.003 501.941 147.003 502.768V503.4H141.451ZM141.443 502.008H144.819C144.819 501.677 144.758 501.373 144.635 501.096C144.513 500.819 144.326 500.6 144.075 500.44C143.83 500.28 143.521 500.2 143.147 500.2C142.785 500.2 142.475 500.288 142.219 500.464C141.969 500.635 141.777 500.859 141.643 501.136C141.51 501.413 141.443 501.704 141.443 502.008ZM151.873 507V505.848V505.256C151.873 504.669 151.982 504.163 152.201 503.736C152.419 503.304 152.707 502.931 153.065 502.616C153.427 502.296 153.822 502.016 154.249 501.776C154.681 501.536 155.113 501.309 155.545 501.096C155.977 500.883 156.371 500.669 156.729 500.456C157.091 500.237 157.382 499.995 157.601 499.728C157.819 499.461 157.929 499.147 157.929 498.784C157.929 498.32 157.766 497.941 157.441 497.648C157.121 497.355 156.681 497.208 156.121 497.208C155.539 497.208 155.046 497.376 154.641 497.712C154.235 498.048 153.985 498.555 153.889 499.232H151.657C151.667 498.496 151.838 497.829 152.169 497.232C152.505 496.629 153.006 496.152 153.673 495.8C154.339 495.448 155.177 495.272 156.185 495.272C157.049 495.272 157.793 495.419 158.417 495.712C159.046 496.005 159.531 496.413 159.873 496.936C160.214 497.459 160.385 498.069 160.385 498.768C160.385 499.349 160.278 499.851 160.065 500.272C159.851 500.693 159.569 501.053 159.217 501.352C158.865 501.651 158.478 501.912 158.057 502.136C157.635 502.36 157.214 502.568 156.793 502.76C156.377 502.952 155.993 503.149 155.641 503.352C155.289 503.549 155.006 503.773 154.793 504.024C154.579 504.275 154.473 504.576 154.473 504.928V505.032H160.369V507H151.873Z" fill="#3E3E3E"/>
<rect x="51" y="634" width="326" height="50" rx="6" fill="#FCFCFC" stroke="white" stroke-width="4"/>
<path d="M50.296 616V604.432H54.552C55.3947 604.432 56.1493 604.579 56.816 604.872C57.4827 605.16 58.008 605.587 58.392 606.152C58.7813 606.717 58.976 607.408 58.976 608.224C58.976 608.992 58.8053 609.648 58.464 610.192C58.1227 610.736 57.6427 611.152 57.024 611.44C56.4107 611.728 55.688 611.872 54.856 611.872H52.648V616H50.296ZM52.624 610.064H54.792C55.3787 610.064 55.8587 609.877 56.232 609.504C56.6053 609.125 56.792 608.659 56.792 608.104C56.792 607.528 56.5947 607.072 56.2 606.736C55.8053 606.395 55.3253 606.224 54.76 606.224H52.624V610.064ZM63.6458 616.16C62.8351 616.16 62.1284 615.987 61.5258 615.64C60.9284 615.293 60.4644 614.803 60.1338 614.168C59.8084 613.533 59.6458 612.781 59.6458 611.912C59.6458 611.043 59.8084 610.283 60.1338 609.632C60.4644 608.981 60.9284 608.475 61.5258 608.112C62.1284 607.749 62.8378 607.568 63.6538 607.568C64.4698 607.568 65.1764 607.747 65.7738 608.104C66.3711 608.456 66.8324 608.957 67.1578 609.608C67.4831 610.259 67.6458 611.027 67.6458 611.912C67.6458 612.744 67.4858 613.48 67.1658 614.12C66.8511 614.755 66.3951 615.253 65.7978 615.616C65.2058 615.979 64.4884 616.16 63.6458 616.16ZM63.6538 614.424C64.0644 614.424 64.3951 614.304 64.6458 614.064C64.8964 613.824 65.0778 613.509 65.1898 613.12C65.3071 612.725 65.3658 612.296 65.3658 611.832C65.3658 611.395 65.3124 610.981 65.2058 610.592C65.1044 610.203 64.9284 609.888 64.6778 609.648C64.4271 609.408 64.0858 609.288 63.6538 609.288C63.2431 609.288 62.9098 609.403 62.6538 609.632C62.4031 609.856 62.2191 610.163 62.1018 610.552C61.9844 610.936 61.9258 611.363 61.9258 611.832C61.9258 612.264 61.9791 612.68 62.0858 613.08C62.1924 613.475 62.3711 613.797 62.6218 614.048C62.8724 614.299 63.2164 614.424 63.6538 614.424ZM72.4595 616.16C71.8835 616.16 71.3288 616.067 70.7955 615.88C70.2622 615.688 69.8115 615.389 69.4435 614.984C69.0755 614.573 68.8408 614.043 68.7395 613.392H70.7635C70.8328 613.685 70.9582 613.917 71.1395 614.088C71.3262 614.259 71.5368 614.381 71.7715 614.456C72.0062 614.525 72.2302 614.56 72.4435 614.56C72.8915 614.56 73.2515 614.491 73.5235 614.352C73.8008 614.208 73.9395 613.989 73.9395 613.696C73.9395 613.472 73.8568 613.293 73.6915 613.16C73.5315 613.027 73.2648 612.925 72.8915 612.856L71.4355 612.552C70.7048 612.397 70.1182 612.136 69.6755 611.768C69.2328 611.395 69.0062 610.867 68.9955 610.184C68.9955 609.688 69.1262 609.243 69.3875 608.848C69.6542 608.453 70.0462 608.141 70.5635 607.912C71.0808 607.683 71.7155 607.568 72.4675 607.568C73.4862 607.568 74.2995 607.792 74.9075 608.24C75.5208 608.688 75.8328 609.32 75.8435 610.136H73.8915C73.8328 609.816 73.6728 609.571 73.4115 609.4C73.1555 609.224 72.8328 609.136 72.4435 609.136C72.0382 609.136 71.7048 609.208 71.4435 609.352C71.1822 609.496 71.0515 609.715 71.0515 610.008C71.0515 610.227 71.1582 610.4 71.3715 610.528C71.5848 610.651 71.9155 610.757 72.3635 610.848L73.7075 611.152C74.1715 611.264 74.5475 611.419 74.8355 611.616C75.1288 611.808 75.3555 612.019 75.5155 612.248C75.6755 612.477 75.7848 612.709 75.8435 612.944C75.9075 613.173 75.9395 613.381 75.9395 613.568C75.9395 614.117 75.7928 614.587 75.4995 614.976C75.2062 615.36 74.7982 615.653 74.2755 615.856C73.7528 616.059 73.1475 616.16 72.4595 616.16ZM82.5244 609.352H80.6844L80.7004 613.76C80.7004 613.963 80.7244 614.115 80.7724 614.216C80.8257 614.312 80.9057 614.376 81.0124 614.408C81.1244 614.435 81.2657 614.448 81.4364 614.448H82.5484V615.888C82.4417 615.936 82.2737 615.981 82.0444 616.024C81.8204 616.067 81.5057 616.088 81.1004 616.088C80.375 616.088 79.8124 615.995 79.4124 615.808C79.0177 615.621 78.743 615.36 78.5884 615.024C78.4337 614.688 78.3564 614.299 78.3564 613.856V609.352H77.0124V607.728H78.4364L79.0204 605.232H80.6844V607.72H82.5244V609.352ZM87.5284 607.568C88.2217 607.568 88.819 607.709 89.3204 607.992C89.827 608.275 90.2244 608.656 90.5124 609.136C90.8057 609.616 90.9737 610.152 91.0164 610.744H89.0724C89.035 610.525 88.9577 610.309 88.8404 610.096C88.723 609.877 88.5577 609.699 88.3444 609.56C88.131 609.416 87.8644 609.344 87.5444 609.344C87.0004 609.344 86.5577 609.555 86.2164 609.976C85.8804 610.392 85.7124 611.027 85.7124 611.88C85.7124 612.685 85.8777 613.325 86.2084 613.8C86.539 614.269 87.0004 614.504 87.5924 614.504C87.907 614.504 88.1684 614.427 88.3764 614.272C88.5897 614.117 88.755 613.933 88.8724 613.72C88.9897 613.501 89.0644 613.299 89.0964 613.112H90.9924C90.955 613.683 90.7897 614.2 90.4964 614.664C90.203 615.123 89.803 615.488 89.2964 615.76C88.795 616.027 88.2057 616.16 87.5284 616.16C86.7604 616.16 86.075 615.989 85.4724 615.648C84.8697 615.307 84.395 614.819 84.0484 614.184C83.707 613.544 83.5364 612.781 83.5364 611.896C83.5364 611.043 83.7017 610.291 84.0324 609.64C84.363 608.989 84.827 608.483 85.4244 608.12C86.027 607.752 86.7284 607.568 87.5284 607.568ZM96.177 616.16C95.3663 616.16 94.6597 615.987 94.057 615.64C93.4597 615.293 92.9957 614.803 92.665 614.168C92.3397 613.533 92.177 612.781 92.177 611.912C92.177 611.043 92.3397 610.283 92.665 609.632C92.9957 608.981 93.4597 608.475 94.057 608.112C94.6597 607.749 95.369 607.568 96.185 607.568C97.001 607.568 97.7077 607.747 98.305 608.104C98.9023 608.456 99.3637 608.957 99.689 609.608C100.014 610.259 100.177 611.027 100.177 611.912C100.177 612.744 100.017 613.48 99.697 614.12C99.3823 614.755 98.9263 615.253 98.329 615.616C97.737 615.979 97.0197 616.16 96.177 616.16ZM96.185 614.424C96.5957 614.424 96.9263 614.304 97.177 614.064C97.4277 613.824 97.609 613.509 97.721 613.12C97.8383 612.725 97.897 612.296 97.897 611.832C97.897 611.395 97.8437 610.981 97.737 610.592C97.6357 610.203 97.4597 609.888 97.209 609.648C96.9583 609.408 96.617 609.288 96.185 609.288C95.7743 609.288 95.441 609.403 95.185 609.632C94.9343 609.856 94.7503 610.163 94.633 610.552C94.5157 610.936 94.457 611.363 94.457 611.832C94.457 612.264 94.5103 612.68 94.617 613.08C94.7237 613.475 94.9023 613.797 95.153 614.048C95.4037 614.299 95.7477 614.424 96.185 614.424ZM104.806 616.16C103.697 616.16 102.833 615.779 102.214 615.016C101.596 614.248 101.286 613.181 101.286 611.816C101.286 610.952 101.412 610.203 101.662 609.568C101.913 608.933 102.284 608.443 102.774 608.096C103.265 607.744 103.865 607.568 104.574 607.568C104.873 607.568 105.15 607.603 105.406 607.672C105.668 607.736 105.905 607.827 106.118 607.944C106.332 608.061 106.518 608.197 106.678 608.352C106.838 608.507 106.969 608.672 107.07 608.848V604.112H109.414V616H107.718L107.454 614.304C107.38 614.533 107.276 614.757 107.142 614.976C107.009 615.195 106.838 615.395 106.63 615.576C106.422 615.752 106.166 615.893 105.862 616C105.564 616.107 105.212 616.16 104.806 616.16ZM105.318 614.48C105.905 614.48 106.342 614.275 106.63 613.864C106.924 613.453 107.07 612.76 107.07 611.784C107.065 611.219 106.998 610.749 106.87 610.376C106.742 610.003 106.55 609.725 106.294 609.544C106.044 609.357 105.724 609.264 105.334 609.264C104.828 609.264 104.406 609.459 104.07 609.848C103.734 610.232 103.566 610.877 103.566 611.784C103.566 612.707 103.724 613.387 104.038 613.824C104.353 614.261 104.78 614.48 105.318 614.48ZM113.342 612.4C113.337 612.821 113.403 613.189 113.542 613.504C113.681 613.813 113.881 614.053 114.142 614.224C114.409 614.389 114.729 614.472 115.102 614.472C115.502 614.472 115.851 614.387 116.15 614.216C116.454 614.045 116.665 613.765 116.782 613.376H118.886C118.795 613.963 118.561 614.464 118.182 614.88C117.809 615.296 117.355 615.613 116.822 615.832C116.289 616.051 115.734 616.16 115.158 616.16C114.342 616.16 113.622 615.989 112.998 615.648C112.379 615.301 111.897 614.813 111.55 614.184C111.203 613.555 111.03 612.813 111.03 611.96C111.03 611.133 111.187 610.389 111.502 609.728C111.817 609.061 112.273 608.536 112.87 608.152C113.473 607.763 114.195 607.568 115.038 607.568C115.881 607.568 116.587 607.747 117.158 608.104C117.734 608.456 118.166 608.949 118.454 609.584C118.747 610.213 118.894 610.941 118.894 611.768V612.4H113.342ZM113.334 611.008H116.71C116.71 610.677 116.649 610.373 116.526 610.096C116.403 609.819 116.217 609.6 115.966 609.44C115.721 609.28 115.411 609.2 115.038 609.2C114.675 609.2 114.366 609.288 114.11 609.464C113.859 609.635 113.667 609.859 113.534 610.136C113.401 610.413 113.334 610.704 113.334 611.008Z" fill="#3E3E3E"/>
<defs>
<filter id="filter0_d_520_2138" x="77.5" y="820.5" width="279" height="71" filterUnits="userSpaceOnUse" color-interpolation-filters="sRGB">
<feFlood flood-opacity="0" result="BackgroundImageFix"/>
<feColorMatrix in="SourceAlpha" type="matrix" values="0 0 0 0 0 0 0 0 0 0 0 0 0 0 0 0 0 0 127 0" result="hardAlpha"/>
<feOffset dx="3" dy="4"/>
<feGaussianBlur stdDeviation="3.75"/>
<feComposite in2="hardAlpha" operator="out"/>
<feColorMatrix type="matrix" values="0 0 0 0 0.529412 0 0 0 0 0.462745 0 0 0 0 0.341176 0 0 0 0.3 0"/>
<feBlend mode="normal" in2="BackgroundImageFix" result="effect1_dropShadow_520_2138"/>
<feBlend mode="normal" in="SourceGraphic" in2="effect1_dropShadow_520_2138" result="shape"/>
</filter>
<clipPath id="clip0_520_2138">
<rect width="119" height="119" fill="white" transform="translate(155 22)"/>
</clipPath>
</defs>
</svg>
