<svg width="428" height="926" viewBox="0 0 428 926" fill="none" xmlns="http://www.w3.org/2000/svg">
<rect width="428" height="926" fill="#F8F2E9"/>
<g clip-path="url(#clip0_520_2290)">
<path d="M240.646 92.0177C240.549 91.6317 240.501 91.2208 240.501 90.785C240.501 89.1542 241.237 87.7352 242.71 86.5279C244.183 85.3207 247.195 83.8385 251.746 82.0814V80.7351C251.746 79.3192 251.565 78.3047 251.205 77.6916C250.845 77.0785 250.254 76.7719 249.432 76.7719C248.762 76.7719 248.206 76.971 247.764 77.3692C247.321 77.7674 247.1 78.2636 247.1 78.8578C247.1 79.1738 247.113 79.5436 247.138 79.9671C247.163 80.3905 247.176 80.6592 247.176 80.773C247.176 81.6958 246.92 82.4384 246.408 83.001C245.896 83.5636 245.216 83.8448 244.369 83.8448C243.598 83.8448 242.979 83.6015 242.511 83.1148C242.043 82.628 241.809 81.9865 241.809 81.1902C241.809 79.4709 242.625 78.0456 244.256 76.9141C245.886 75.7827 247.985 75.217 250.551 75.217C251.992 75.217 253.297 75.4004 254.467 75.767C255.636 76.1336 256.594 76.6645 257.339 77.3598C257.946 77.9286 258.376 78.5923 258.629 79.3508C258.882 80.1092 259.008 81.2533 259.008 82.783V88.1871C259.008 89.6914 259.125 90.7597 259.359 91.3917C259.593 92.0238 259.969 92.3399 260.487 92.3399C260.601 92.3399 260.715 92.3146 260.828 92.264C260.942 92.2134 261.062 92.1377 261.189 92.0364V93.269C260.683 93.9137 260.029 94.413 259.226 94.767C258.423 95.121 257.535 95.298 256.562 95.298C255.45 95.298 254.517 95.0389 253.765 94.5205C253.013 94.0022 252.46 93.2375 252.106 92.2262C251.145 93.326 250.137 94.1445 249.081 94.6817C248.026 95.2189 246.91 95.4876 245.735 95.4876C244.18 95.4876 242.919 95.0483 241.952 94.1697C241.629 93.8766 241.36 93.5556 241.145 93.2066C240.384 93.8039 239.157 94.4941 238.538 94.767C237.736 95.121 236.848 95.298 235.874 95.298C234.762 95.298 233.829 95.0389 233.077 94.5205C232.325 94.0022 231.772 93.2375 231.418 92.2262C230.457 93.326 229.449 94.1445 228.394 94.6817C227.338 95.2189 226.223 95.4876 225.047 95.4876C223.492 95.4876 222.231 95.0483 221.264 94.1697C220.297 93.2911 219.813 92.1629 219.813 90.785C219.813 89.1542 220.55 87.7352 222.022 86.5279C223.495 85.3207 226.507 83.8385 231.058 82.0814V80.7351C231.058 79.3192 230.878 78.3047 230.517 77.6916C230.157 77.0785 229.566 76.7719 228.744 76.7719C228.075 76.7719 227.518 76.971 227.076 77.3692C226.633 77.7674 226.412 78.2636 226.412 78.8578C226.412 79.1738 226.425 79.5436 226.45 79.9671C226.475 80.3905 226.488 80.6592 226.488 80.773C226.488 81.6958 226.232 82.4384 225.72 83.001C225.208 83.5636 224.529 83.8448 223.682 83.8448C222.91 83.8448 222.291 83.6015 221.823 83.1148C221.356 82.628 221.122 81.9865 221.122 81.1902C221.122 79.4709 221.937 78.0456 223.568 76.9141C225.199 75.7827 227.297 75.217 229.863 75.217C231.304 75.217 232.61 75.4004 233.779 75.767C234.948 76.1336 235.906 76.6645 236.652 77.3598C237.258 77.9286 237.688 78.5923 237.941 79.3508C238.194 80.1092 238.32 81.2533 238.32 82.783V88.1871C238.32 89.6914 238.437 90.7597 238.671 91.3917C238.905 92.0238 239.281 92.3399 239.799 92.3399C239.913 92.3399 240.027 92.3146 240.141 92.264C240.194 92.2404 240.414 92.1343 240.646 92.0177ZM182.778 94.6723L178.246 85.6652V90.8229C178.246 91.8215 178.423 92.5327 178.777 92.9562C179.131 93.3796 179.731 93.5913 180.578 93.5913H180.692V94.6723H168.499V93.5913H168.613C169.448 93.5913 170.045 93.3796 170.405 92.9562C170.765 92.5327 170.946 91.8215 170.946 90.8229V75.2549C170.946 74.6734 170.879 74.2532 170.746 73.9941C170.614 73.7348 170.313 73.4156 169.846 73.0364L167.798 71.3678C168.683 71.1023 169.915 70.6788 171.495 70.0972C173.076 69.5158 175.326 68.6562 178.246 67.5184V84.6222C179.902 83.3454 181.15 82.1919 181.991 81.1616C182.832 80.1314 183.252 79.2371 183.252 78.4786C183.252 78.074 183.097 77.7516 182.787 77.5115C182.478 77.2713 182.051 77.1512 181.507 77.1512H181.394V76.0704H191.254V77.1512H190.932C189.63 77.1512 188.403 77.4925 187.253 78.1751C186.103 78.8578 184.921 79.9449 183.707 81.4367L189.149 90.747C189.743 91.7837 190.319 92.5043 190.875 92.9087C191.429 93.312 192.122 93.5394 192.953 93.5909C193.752 93.5796 194.326 93.3681 194.677 92.9562C195.037 92.5327 195.217 91.8215 195.217 90.8229V82.783C195.217 82.2015 195.154 81.7811 195.027 81.522C194.901 81.2629 194.604 80.95 194.136 80.5833L192.069 78.9147C193.574 78.4343 195.198 77.8718 196.943 77.227C198.687 76.5823 200.545 75.8618 202.518 75.0653V90.8229C202.518 91.7963 202.691 92.4947 203.039 92.9182C203.387 93.3416 203.965 93.5661 204.774 93.5913H204.811C205.645 93.5913 206.243 93.3796 206.603 92.9562C206.963 92.5327 207.143 91.8215 207.143 90.8229V83.6742C207.143 83.0673 207.067 82.6186 206.916 82.3279C206.764 82.0371 206.48 81.7526 206.063 81.4745L203.692 79.8059C204.931 79.376 206.36 78.7851 207.978 78.0329C209.596 77.2807 211.58 76.2916 213.932 75.0653V78.4027C214.564 77.3408 215.25 76.5445 215.989 76.0135C216.729 75.4825 217.522 75.217 218.369 75.217C219.304 75.217 220.057 75.4951 220.625 76.0514C221.194 76.6076 221.479 77.3408 221.479 78.251C221.479 79.0474 221.242 79.6858 220.768 80.1661C220.294 80.6466 219.665 80.8867 218.881 80.8867C218.173 80.8867 217.494 80.6023 216.842 80.0334C216.191 79.4645 215.777 79.1802 215.6 79.1802C215.183 79.1802 214.886 79.4583 214.709 80.0145C214.532 80.5707 214.444 81.563 214.444 82.9916V90.8229C214.444 91.8089 214.643 92.5169 215.041 92.9466C215.439 93.3765 216.093 93.5913 217.004 93.5913H217.117V94.6723H182.778ZM251.746 83.4845C250.608 83.9396 249.742 84.657 249.148 85.6367C248.554 86.6164 248.257 87.8143 248.257 89.2301C248.257 90.0392 248.418 90.6839 248.74 91.1642C249.062 91.6446 249.483 91.8848 250.001 91.8848C250.671 91.8848 251.129 91.6193 251.376 91.0883C251.622 90.5574 251.746 89.2301 251.746 87.1063V83.4845ZM231.058 83.4845C229.92 83.9396 229.054 84.657 228.46 85.6367C227.866 86.6164 227.569 87.8143 227.569 89.2301C227.569 90.0392 227.73 90.6839 228.052 91.1642C228.375 91.6446 228.795 91.8848 229.313 91.8848C229.983 91.8848 230.442 91.6193 230.688 91.0883C230.935 90.5574 231.058 89.2301 231.058 87.1063V83.4845ZM194.705 71.3298C194.705 70.268 195.075 69.3672 195.814 68.6277C196.554 67.8882 197.455 67.5184 198.517 67.5184C199.591 67.5184 200.495 67.8882 201.228 68.6277C201.961 69.3672 202.328 70.268 202.328 71.3298C202.328 72.3917 201.958 73.2923 201.219 74.0319C200.479 74.7714 199.578 75.1412 198.517 75.1412C197.455 75.1412 196.554 74.7746 195.814 74.0414C195.075 73.3082 194.705 72.4043 194.705 71.3298Z" fill="#3E3E3E"/>
</g>
<g filter="url(#filter0_d_520_2290)">
<rect x="82" y="824" width="264" height="56" rx="28" fill="#F8F2E9" shape-rendering="crispEdges"/>
<path d="M121 862V856C121 855.735 120.895 855.48 120.707 855.293C120.52 855.105 120.265 855 120 855H116C115.735 855 115.48 855.105 115.293 855.293C115.105 855.48 115 855.735 115 856V862C115 862.265 114.895 862.52 114.707 862.707C114.52 862.895 114.265 863 114 863H108C107.735 863 107.48 862.895 107.293 862.707C107.105 862.52 107 862.265 107 862V850.437C107.002 850.299 107.032 850.163 107.088 850.036C107.144 849.909 107.224 849.795 107.325 849.7L117.325 840.612C117.509 840.444 117.75 840.35 118 840.35C118.25 840.35 118.491 840.444 118.675 840.612L128.675 849.7C128.776 849.795 128.856 849.909 128.912 850.036C128.968 850.163 128.998 850.299 129 850.437V862C129 862.265 128.895 862.52 128.707 862.707C128.52 862.895 128.265 863 128 863H122C121.735 863 121.48 862.895 121.293 862.707C121.105 862.52 121 862.265 121 862Z" stroke="#4A4A4A" stroke-width="2" stroke-linecap="round" stroke-linejoin="round"/>
<path d="M178 845C178 843.939 178.421 842.922 179.172 842.172C179.922 841.421 180.939 841 182 841C183.061 841 184.078 841.421 184.828 842.172C185.579 842.922 186 843.939 186 845L168.4 858.2C168.232 858.326 168.108 858.501 168.045 858.702C167.983 858.902 167.985 859.117 168.051 859.316C168.118 859.515 168.245 859.689 168.415 859.811C168.586 859.934 168.79 860 169 860H195C195.21 860 195.414 859.934 195.585 859.811C195.755 859.689 195.882 859.515 195.949 859.316C196.015 859.117 196.017 858.902 195.955 858.702C195.892 858.501 195.768 858.326 195.6 858.2L182 848" stroke="#4A4A4A" stroke-width="2" stroke-linecap="round" stroke-linejoin="round"/>
<path d="M246 856C250.418 856 254 852.418 254 848C254 843.582 250.418 840 246 840C241.582 840 238 843.582 238 848C238 852.418 241.582 856 246 856Z" stroke="#4A4A4A" stroke-width="2" stroke-miterlimit="10"/>
<path d="M233.875 863C235.104 860.871 236.871 859.104 238.999 857.875C241.128 856.646 243.542 855.999 246 855.999C248.458 855.999 250.872 856.646 253.001 857.875C255.129 859.104 256.896 860.871 258.125 863" stroke="#4A4A4A" stroke-width="2" stroke-linecap="round" stroke-linejoin="round"/>
<path d="M305.955 841.143L306.938 838.606C307.103 838.176 307.395 837.807 307.774 837.546C308.154 837.285 308.603 837.144 309.063 837.143H310.938C311.398 837.144 311.847 837.285 312.227 837.546C312.606 837.807 312.897 838.176 313.063 838.606L314.046 841.143L317.383 843.063L320.08 842.651C320.529 842.59 320.987 842.664 321.394 842.864C321.801 843.063 322.139 843.379 322.366 843.771L323.28 845.371C323.515 845.77 323.623 846.23 323.59 846.691C323.557 847.152 323.386 847.593 323.098 847.954L321.429 850.08V853.92L323.143 856.046C323.431 856.407 323.603 856.848 323.636 857.309C323.668 857.77 323.56 858.23 323.326 858.629L322.412 860.229C322.185 860.621 321.846 860.937 321.439 861.136C321.032 861.336 320.575 861.409 320.126 861.349L317.429 860.937L314.092 862.857L313.109 865.394C312.943 865.824 312.652 866.193 312.272 866.454C311.893 866.715 311.444 866.856 310.983 866.857H309.063C308.603 866.856 308.154 866.715 307.774 866.454C307.395 866.193 307.103 865.824 306.938 865.394L305.955 862.857L302.618 860.937L299.92 861.349C299.471 861.409 299.014 861.336 298.607 861.136C298.2 860.937 297.862 860.621 297.635 860.229L296.72 858.629C296.486 858.23 296.378 857.77 296.411 857.309C296.443 856.848 296.615 856.407 296.903 856.046L298.572 853.92V850.08L296.858 847.954C296.569 847.593 296.398 847.152 296.365 846.691C296.332 846.23 296.44 845.77 296.675 845.371L297.589 843.771C297.816 843.379 298.154 843.063 298.561 842.864C298.968 842.664 299.426 842.59 299.875 842.651L302.572 843.063L305.955 841.143ZM305.429 852C305.429 852.904 305.697 853.788 306.199 854.54C306.702 855.291 307.416 855.877 308.251 856.223C309.086 856.569 310.005 856.66 310.892 856.484C311.779 856.307 312.594 855.872 313.233 855.232C313.872 854.593 314.308 853.779 314.484 852.892C314.66 852.005 314.57 851.086 314.224 850.251C313.878 849.415 313.292 848.701 312.54 848.199C311.788 847.697 310.905 847.429 310 847.429C308.788 847.429 307.625 847.91 306.768 848.767C305.911 849.625 305.429 850.788 305.429 852Z" fill="#3E3E3E"/>
</g>
<path d="M381 116H359C358.448 116 358 116.448 358 117V135C358 135.552 358.448 136 359 136H381C381.552 136 382 135.552 382 135V117C382 116.448 381.552 116 381 116Z" stroke="#3E3E3E" stroke-width="2" stroke-linecap="round" stroke-linejoin="round"/>
<path d="M375 121C375 122.326 374.473 123.598 373.536 124.536C372.598 125.473 371.326 126 370 126C368.674 126 367.402 125.473 366.464 124.536C365.527 123.598 365 122.326 365 121" stroke="#3E3E3E" stroke-width="2" stroke-linecap="round" stroke-linejoin="round"/>
<path d="M56.6188 195.238L51 189.619L56.6188 184" stroke="#3E3E3E" stroke-width="2.65192" stroke-linecap="round" stroke-linejoin="round"/>
<path d="M51 189.619H64.2596" stroke="#3E3E3E" stroke-width="2.65192" stroke-linecap="round" stroke-linejoin="round"/>
<path d="M182.05 222.2C181.337 222.2 180.637 222.11 179.95 221.93C179.263 221.75 178.637 221.48 178.07 221.12C177.503 220.76 177.033 220.31 176.66 219.77C176.293 219.23 176.073 218.597 176 217.87H178.99C179.09 218.31 179.28 218.68 179.56 218.98C179.84 219.28 180.193 219.51 180.62 219.67C181.047 219.83 181.52 219.91 182.04 219.91C182.573 219.91 183.06 219.843 183.5 219.71C183.94 219.577 184.293 219.377 184.56 219.11C184.827 218.837 184.96 218.497 184.96 218.09C184.96 217.723 184.85 217.423 184.63 217.19C184.417 216.957 184.127 216.767 183.76 216.62C183.393 216.473 182.977 216.353 182.51 216.26L180.01 215.75C178.917 215.543 178.05 215.11 177.41 214.45C176.77 213.783 176.44 212.897 176.42 211.79C176.413 210.883 176.653 210.1 177.14 209.44C177.633 208.773 178.3 208.26 179.14 207.9C179.987 207.54 180.933 207.36 181.98 207.36C183.227 207.36 184.273 207.557 185.12 207.95C185.973 208.337 186.62 208.863 187.06 209.53C187.507 210.19 187.737 210.927 187.75 211.74H184.82C184.767 211.233 184.613 210.83 184.36 210.53C184.107 210.23 183.78 210.013 183.38 209.88C182.987 209.747 182.537 209.68 182.03 209.68C181.643 209.68 181.29 209.723 180.97 209.81C180.657 209.897 180.39 210.02 180.17 210.18C179.95 210.333 179.78 210.517 179.66 210.73C179.54 210.943 179.48 211.183 179.48 211.45C179.48 211.87 179.62 212.21 179.9 212.47C180.18 212.73 180.703 212.943 181.47 213.11L183.95 213.62C184.837 213.793 185.54 214.05 186.06 214.39C186.587 214.73 186.98 215.113 187.24 215.54C187.507 215.967 187.68 216.403 187.76 216.85C187.847 217.29 187.89 217.697 187.89 218.07C187.89 218.85 187.643 219.553 187.15 220.18C186.663 220.8 185.983 221.293 185.11 221.66C184.237 222.02 183.217 222.2 182.05 222.2ZM193.927 222.2C193.447 222.2 192.974 222.127 192.507 221.98C192.047 221.833 191.627 221.617 191.247 221.33C190.867 221.043 190.561 220.69 190.327 220.27C190.101 219.85 189.987 219.363 189.987 218.81V211.66H192.907V218.44C192.907 218.92 193.064 219.313 193.377 219.62C193.691 219.927 194.151 220.08 194.757 220.08C195.331 220.08 195.784 219.933 196.117 219.64C196.457 219.34 196.627 218.923 196.627 218.39V211.66H199.517V222H197.317L196.977 219.95C196.857 220.557 196.631 221.023 196.297 221.35C195.971 221.67 195.594 221.89 195.167 222.01C194.747 222.137 194.334 222.2 193.927 222.2ZM201.953 225.22V211.66H204.883L204.893 213.15C205.046 212.903 205.233 212.68 205.453 212.48C205.68 212.273 205.93 212.093 206.203 211.94C206.476 211.787 206.773 211.67 207.093 211.59C207.413 211.503 207.75 211.46 208.103 211.46C208.87 211.46 209.553 211.65 210.153 212.03C210.753 212.403 211.223 212.983 211.563 213.77C211.91 214.55 212.083 215.543 212.083 216.75C212.083 218.003 211.896 219.033 211.523 219.84C211.156 220.64 210.65 221.233 210.003 221.62C209.356 222.007 208.626 222.2 207.813 222.2C207.48 222.2 207.166 222.153 206.873 222.06C206.58 221.973 206.306 221.85 206.053 221.69C205.806 221.53 205.583 221.347 205.383 221.14C205.19 220.927 205.02 220.697 204.873 220.45V225.22H201.953ZM207.113 220.06C207.746 220.06 208.276 219.797 208.703 219.27C209.136 218.743 209.353 217.91 209.353 216.77C209.353 215.77 209.146 214.99 208.733 214.43C208.326 213.863 207.786 213.58 207.113 213.58C206.36 213.58 205.796 213.887 205.423 214.5C205.056 215.107 204.873 215.863 204.873 216.77C204.873 217.35 204.953 217.89 205.113 218.39C205.28 218.89 205.526 219.293 205.853 219.6C206.186 219.907 206.606 220.06 207.113 220.06ZM214.023 225.22V211.66H216.953L216.963 213.15C217.117 212.903 217.303 212.68 217.523 212.48C217.75 212.273 218 212.093 218.273 211.94C218.547 211.787 218.843 211.67 219.163 211.59C219.483 211.503 219.82 211.46 220.173 211.46C220.94 211.46 221.623 211.65 222.223 212.03C222.823 212.403 223.293 212.983 223.633 213.77C223.98 214.55 224.153 215.543 224.153 216.75C224.153 218.003 223.967 219.033 223.593 219.84C223.227 220.64 222.72 221.233 222.073 221.62C221.427 222.007 220.697 222.2 219.883 222.2C219.55 222.2 219.237 222.153 218.943 222.06C218.65 221.973 218.377 221.85 218.123 221.69C217.877 221.53 217.653 221.347 217.453 221.14C217.26 220.927 217.09 220.697 216.943 220.45V225.22H214.023ZM219.183 220.06C219.817 220.06 220.347 219.797 220.773 219.27C221.207 218.743 221.423 217.91 221.423 216.77C221.423 215.77 221.217 214.99 220.803 214.43C220.397 213.863 219.857 213.58 219.183 213.58C218.43 213.58 217.867 213.887 217.493 214.5C217.127 215.107 216.943 215.863 216.943 216.77C216.943 217.35 217.023 217.89 217.183 218.39C217.35 218.89 217.597 219.293 217.923 219.6C218.257 219.907 218.677 220.06 219.183 220.06ZM230.534 222.2C229.52 222.2 228.637 221.983 227.884 221.55C227.137 221.117 226.557 220.503 226.144 219.71C225.737 218.917 225.534 217.977 225.534 216.89C225.534 215.803 225.737 214.853 226.144 214.04C226.557 213.227 227.137 212.593 227.884 212.14C228.637 211.687 229.524 211.46 230.544 211.46C231.564 211.46 232.447 211.683 233.194 212.13C233.94 212.57 234.517 213.197 234.924 214.01C235.33 214.823 235.534 215.783 235.534 216.89C235.534 217.93 235.334 218.85 234.934 219.65C234.54 220.443 233.97 221.067 233.224 221.52C232.484 221.973 231.587 222.2 230.534 222.2ZM230.544 220.03C231.057 220.03 231.47 219.88 231.784 219.58C232.097 219.28 232.324 218.887 232.464 218.4C232.61 217.907 232.684 217.37 232.684 216.79C232.684 216.243 232.617 215.727 232.484 215.24C232.357 214.753 232.137 214.36 231.824 214.06C231.51 213.76 231.084 213.61 230.544 213.61C230.03 213.61 229.614 213.753 229.294 214.04C228.98 214.32 228.75 214.703 228.604 215.19C228.457 215.67 228.384 216.203 228.384 216.79C228.384 217.33 228.45 217.85 228.584 218.35C228.717 218.843 228.94 219.247 229.254 219.56C229.567 219.873 229.997 220.03 230.544 220.03ZM237.48 222V211.66H240.29V214.11C240.457 213.583 240.69 213.123 240.99 212.73C241.297 212.33 241.667 212.02 242.1 211.8C242.534 211.573 243.024 211.46 243.57 211.46C243.664 211.46 243.75 211.467 243.83 211.48C243.917 211.487 243.98 211.5 244.02 211.52V214.3C243.96 214.273 243.887 214.257 243.8 214.25C243.72 214.243 243.647 214.237 243.58 214.23C243.007 214.183 242.517 214.2 242.11 214.28C241.704 214.36 241.374 214.497 241.12 214.69C240.867 214.883 240.684 215.12 240.57 215.4C240.457 215.68 240.4 215.993 240.4 216.34V222H237.48ZM252.12 213.69H249.82L249.84 219.2C249.84 219.453 249.87 219.643 249.93 219.77C249.997 219.89 250.097 219.97 250.23 220.01C250.37 220.043 250.547 220.06 250.76 220.06H252.15V221.86C252.017 221.92 251.807 221.977 251.52 222.03C251.24 222.083 250.847 222.11 250.34 222.11C249.434 222.11 248.73 221.993 248.23 221.76C247.737 221.527 247.394 221.2 247.2 220.78C247.007 220.36 246.91 219.873 246.91 219.32V213.69H245.23V211.66H247.01L247.74 208.54H249.82V211.65H252.12V213.69Z" fill="#4A4A4A"/>
<path d="M120.296 293.432H122.648V303.024H127.672V305H120.296V293.432ZM131.586 296.728V305H129.354V296.728H131.586ZM131.61 293.44V295.544H129.338V293.44H131.61ZM140.815 296.728L137.711 305H136.023L132.911 296.728H135.023L136.831 302H136.895L138.679 296.728H140.815ZM143.592 301.4C143.587 301.821 143.653 302.189 143.792 302.504C143.931 302.813 144.131 303.053 144.392 303.224C144.659 303.389 144.979 303.472 145.352 303.472C145.752 303.472 146.101 303.387 146.4 303.216C146.704 303.045 146.915 302.765 147.032 302.376H149.136C149.045 302.963 148.811 303.464 148.432 303.88C148.059 304.296 147.605 304.613 147.072 304.832C146.539 305.051 145.984 305.16 145.408 305.16C144.592 305.16 143.872 304.989 143.248 304.648C142.629 304.301 142.147 303.813 141.8 303.184C141.453 302.555 141.28 301.813 141.28 300.96C141.28 300.133 141.437 299.389 141.752 298.728C142.067 298.061 142.523 297.536 143.12 297.152C143.723 296.763 144.445 296.568 145.288 296.568C146.131 296.568 146.837 296.747 147.408 297.104C147.984 297.456 148.416 297.949 148.704 298.584C148.997 299.213 149.144 299.941 149.144 300.768V301.4H143.592ZM143.584 300.008H146.96C146.96 299.677 146.899 299.373 146.776 299.096C146.653 298.819 146.467 298.6 146.216 298.44C145.971 298.28 145.661 298.2 145.288 298.2C144.925 298.2 144.616 298.288 144.36 298.464C144.109 298.635 143.917 298.859 143.784 299.136C143.651 299.413 143.584 299.704 143.584 300.008ZM159.117 293.272C159.987 293.272 160.76 293.448 161.437 293.8C162.12 294.147 162.669 294.621 163.085 295.224C163.507 295.827 163.755 296.507 163.829 297.264H161.381C161.307 296.864 161.171 296.509 160.973 296.2C160.776 295.885 160.517 295.64 160.197 295.464C159.877 295.283 159.493 295.192 159.045 295.192C158.507 295.192 158.043 295.323 157.653 295.584C157.264 295.845 156.965 296.267 156.757 296.848C156.549 297.429 156.445 298.197 156.445 299.152C156.445 300.592 156.675 301.635 157.133 302.28C157.597 302.92 158.235 303.24 159.045 303.24C159.493 303.24 159.877 303.139 160.197 302.936C160.517 302.728 160.776 302.456 160.973 302.12C161.171 301.779 161.307 301.405 161.381 301H163.829C163.76 301.549 163.627 302.075 163.429 302.576C163.232 303.072 162.952 303.515 162.589 303.904C162.227 304.293 161.76 304.6 161.189 304.824C160.619 305.048 159.928 305.16 159.117 305.16C158.04 305.16 157.109 304.909 156.325 304.408C155.541 303.907 154.936 303.203 154.509 302.296C154.088 301.389 153.877 300.331 153.877 299.12C153.877 297.904 154.088 296.861 154.509 295.992C154.931 295.117 155.533 294.445 156.317 293.976C157.101 293.507 158.035 293.272 159.117 293.272ZM165.594 305V293.112H167.914V297.92C168.047 297.728 168.215 297.539 168.418 297.352C168.62 297.16 168.874 297 169.178 296.872C169.482 296.744 169.852 296.68 170.29 296.68C170.818 296.68 171.298 296.784 171.73 296.992C172.167 297.195 172.516 297.491 172.778 297.88C173.044 298.269 173.178 298.744 173.178 299.304V305H170.834V299.648C170.834 299.275 170.698 298.989 170.426 298.792C170.159 298.589 169.834 298.488 169.45 298.488C169.199 298.488 168.956 298.533 168.722 298.624C168.487 298.715 168.295 298.853 168.146 299.04C168.002 299.221 167.93 299.448 167.93 299.72V305H165.594ZM177.416 305.16C176.888 305.16 176.413 305.061 175.992 304.864C175.57 304.667 175.237 304.381 174.992 304.008C174.746 303.629 174.624 303.171 174.624 302.632C174.624 301.725 174.962 301.037 175.64 300.568C176.317 300.093 177.386 299.848 178.848 299.832L179.88 299.816V299.32C179.88 298.941 179.768 298.651 179.544 298.448C179.325 298.24 178.984 298.139 178.52 298.144C178.178 298.149 177.853 298.229 177.544 298.384C177.24 298.539 177.032 298.808 176.92 299.192H174.976C175.008 298.595 175.181 298.104 175.496 297.72C175.81 297.331 176.237 297.043 176.776 296.856C177.32 296.664 177.936 296.568 178.624 296.568C179.472 296.568 180.152 296.675 180.664 296.888C181.176 297.096 181.546 297.397 181.776 297.792C182.005 298.181 182.12 298.645 182.12 299.184V305H180.168L179.976 303.576C179.693 304.173 179.338 304.587 178.912 304.816C178.49 305.045 177.992 305.16 177.416 305.16ZM178.2 303.624C178.413 303.624 178.618 303.587 178.816 303.512C179.018 303.432 179.197 303.328 179.352 303.2C179.512 303.067 179.64 302.917 179.736 302.752C179.832 302.587 179.88 302.416 179.88 302.24V301.016L179.04 301.032C178.65 301.037 178.288 301.085 177.952 301.176C177.616 301.261 177.344 301.403 177.136 301.6C176.933 301.797 176.832 302.064 176.832 302.4C176.832 302.784 176.965 303.085 177.232 303.304C177.498 303.517 177.821 303.624 178.2 303.624ZM188.868 298.352H187.028L187.044 302.76C187.044 302.963 187.068 303.115 187.116 303.216C187.169 303.312 187.249 303.376 187.356 303.408C187.468 303.435 187.609 303.448 187.78 303.448H188.892V304.888C188.785 304.936 188.617 304.981 188.388 305.024C188.164 305.067 187.849 305.088 187.444 305.088C186.719 305.088 186.156 304.995 185.756 304.808C185.361 304.621 185.087 304.36 184.932 304.024C184.777 303.688 184.7 303.299 184.7 302.856V298.352H183.356V296.728H184.78L185.364 294.232H187.028V296.72H188.868V298.352Z" fill="#3E3E3E"/>
<path d="M282.675 305.125C281.186 302.613 280.666 299.644 281.211 296.775C281.756 293.906 283.329 291.335 285.636 289.544C287.942 287.754 290.823 286.866 293.737 287.049C296.652 287.231 299.399 288.472 301.464 290.536C303.529 292.601 304.769 295.349 304.952 298.263C305.134 301.177 304.247 304.058 302.456 306.365C300.665 308.671 298.094 310.245 295.225 310.79C292.356 311.335 289.387 310.814 286.875 309.325V309.325L282.725 310.5C282.555 310.55 282.375 310.553 282.203 310.509C282.032 310.465 281.875 310.376 281.75 310.25C281.625 310.125 281.535 309.969 281.491 309.797C281.448 309.625 281.451 309.445 281.5 309.275L282.675 305.125Z" stroke="#3E3E3E" stroke-width="2" stroke-linecap="round" stroke-linejoin="round"/>
<path d="M127.688 491.032H122.624V496H120.296V484.432H122.624V489.072H127.688V484.432H130.024V496H127.688V491.032ZM135.646 496.16C134.835 496.16 134.128 495.987 133.526 495.64C132.928 495.293 132.464 494.803 132.134 494.168C131.808 493.533 131.646 492.781 131.646 491.912C131.646 491.043 131.808 490.283 132.134 489.632C132.464 488.981 132.928 488.475 133.526 488.112C134.128 487.749 134.838 487.568 135.654 487.568C136.47 487.568 137.176 487.747 137.774 488.104C138.371 488.456 138.832 488.957 139.158 489.608C139.483 490.259 139.646 491.027 139.646 491.912C139.646 492.744 139.486 493.48 139.166 494.12C138.851 494.755 138.395 495.253 137.798 495.616C137.206 495.979 136.488 496.16 135.646 496.16ZM135.654 494.424C136.064 494.424 136.395 494.304 136.646 494.064C136.896 493.824 137.078 493.509 137.19 493.12C137.307 492.725 137.366 492.296 137.366 491.832C137.366 491.395 137.312 490.981 137.206 490.592C137.104 490.203 136.928 489.888 136.678 489.648C136.427 489.408 136.086 489.288 135.654 489.288C135.243 489.288 134.91 489.403 134.654 489.632C134.403 489.856 134.219 490.163 134.102 490.552C133.984 490.936 133.926 491.363 133.926 491.832C133.926 492.264 133.979 492.68 134.086 493.08C134.192 493.475 134.371 493.797 134.622 494.048C134.872 494.299 135.216 494.424 135.654 494.424ZM152.267 487.728L149.547 496H147.691L146.147 490.992L144.611 496H142.803L140.123 487.728H142.187L143.771 492.856H143.835L145.355 487.728H147.019L148.555 492.856H148.619L150.155 487.728H152.267ZM157.093 484.432C157.152 484.432 157.314 484.432 157.581 484.432C157.853 484.432 158.17 484.432 158.533 484.432C158.901 484.432 159.266 484.435 159.629 484.44C159.997 484.44 160.304 484.443 160.549 484.448C161.952 484.48 163.096 484.731 163.981 485.2C164.866 485.669 165.514 486.325 165.925 487.168C166.341 488.011 166.549 489.008 166.549 490.16C166.549 491.36 166.33 492.397 165.893 493.272C165.456 494.141 164.786 494.813 163.885 495.288C162.989 495.763 161.85 496 160.469 496H157.093V484.432ZM159.445 486.32V494.112H160.517C161.178 494.112 161.778 493.984 162.317 493.728C162.861 493.472 163.296 493.053 163.621 492.472C163.946 491.891 164.109 491.115 164.109 490.144C164.109 489.243 163.965 488.512 163.677 487.952C163.389 487.387 162.978 486.973 162.445 486.712C161.912 486.451 161.28 486.32 160.549 486.32H159.445ZM171.865 496.16C171.054 496.16 170.347 495.987 169.745 495.64C169.147 495.293 168.683 494.803 168.353 494.168C168.027 493.533 167.865 492.781 167.865 491.912C167.865 491.043 168.027 490.283 168.353 489.632C168.683 488.981 169.147 488.475 169.745 488.112C170.347 487.749 171.057 487.568 171.873 487.568C172.689 487.568 173.395 487.747 173.993 488.104C174.59 488.456 175.051 488.957 175.377 489.608C175.702 490.259 175.865 491.027 175.865 491.912C175.865 492.744 175.705 493.48 175.385 494.12C175.07 494.755 174.614 495.253 174.017 495.616C173.425 495.979 172.707 496.16 171.865 496.16ZM171.873 494.424C172.283 494.424 172.614 494.304 172.865 494.064C173.115 493.824 173.297 493.509 173.409 493.12C173.526 492.725 173.585 492.296 173.585 491.832C173.585 491.395 173.531 490.981 173.425 490.592C173.323 490.203 173.147 489.888 172.897 489.648C172.646 489.408 172.305 489.288 171.873 489.288C171.462 489.288 171.129 489.403 170.873 489.632C170.622 489.856 170.438 490.163 170.321 490.552C170.203 490.936 170.145 491.363 170.145 491.832C170.145 492.264 170.198 492.68 170.305 493.08C170.411 493.475 170.59 493.797 170.841 494.048C171.091 494.299 171.435 494.424 171.873 494.424ZM179.342 492.4C179.337 492.821 179.403 493.189 179.542 493.504C179.681 493.813 179.881 494.053 180.142 494.224C180.409 494.389 180.729 494.472 181.102 494.472C181.502 494.472 181.851 494.387 182.15 494.216C182.454 494.045 182.665 493.765 182.782 493.376H184.886C184.795 493.963 184.561 494.464 184.182 494.88C183.809 495.296 183.355 495.613 182.822 495.832C182.289 496.051 181.734 496.16 181.158 496.16C180.342 496.16 179.622 495.989 178.998 495.648C178.379 495.301 177.897 494.813 177.55 494.184C177.203 493.555 177.03 492.813 177.03 491.96C177.03 491.133 177.187 490.389 177.502 489.728C177.817 489.061 178.273 488.536 178.87 488.152C179.473 487.763 180.195 487.568 181.038 487.568C181.881 487.568 182.587 487.747 183.158 488.104C183.734 488.456 184.166 488.949 184.454 489.584C184.747 490.213 184.894 490.941 184.894 491.768V492.4H179.342ZM179.334 491.008H182.71C182.71 490.677 182.649 490.373 182.526 490.096C182.403 489.819 182.217 489.6 181.966 489.44C181.721 489.28 181.411 489.2 181.038 489.2C180.675 489.2 180.366 489.288 180.11 489.464C179.859 489.635 179.667 489.859 179.534 490.136C179.401 490.413 179.334 490.704 179.334 491.008ZM189.772 496.16C189.196 496.16 188.641 496.067 188.108 495.88C187.575 495.688 187.124 495.389 186.756 494.984C186.388 494.573 186.153 494.043 186.052 493.392H188.076C188.145 493.685 188.271 493.917 188.452 494.088C188.639 494.259 188.849 494.381 189.084 494.456C189.319 494.525 189.543 494.56 189.756 494.56C190.204 494.56 190.564 494.491 190.836 494.352C191.113 494.208 191.252 493.989 191.252 493.696C191.252 493.472 191.169 493.293 191.004 493.16C190.844 493.027 190.577 492.925 190.204 492.856L188.748 492.552C188.017 492.397 187.431 492.136 186.988 491.768C186.545 491.395 186.319 490.867 186.308 490.184C186.308 489.688 186.439 489.243 186.7 488.848C186.967 488.453 187.359 488.141 187.876 487.912C188.393 487.683 189.028 487.568 189.78 487.568C190.799 487.568 191.612 487.792 192.22 488.24C192.833 488.688 193.145 489.32 193.156 490.136H191.204C191.145 489.816 190.985 489.571 190.724 489.4C190.468 489.224 190.145 489.136 189.756 489.136C189.351 489.136 189.017 489.208 188.756 489.352C188.495 489.496 188.364 489.715 188.364 490.008C188.364 490.227 188.471 490.4 188.684 490.528C188.897 490.651 189.228 490.757 189.676 490.848L191.02 491.152C191.484 491.264 191.86 491.419 192.148 491.616C192.441 491.808 192.668 492.019 192.828 492.248C192.988 492.477 193.097 492.709 193.156 492.944C193.22 493.173 193.252 493.381 193.252 493.568C193.252 494.117 193.105 494.587 192.812 494.976C192.519 495.36 192.111 495.653 191.588 495.856C191.065 496.059 190.46 496.16 189.772 496.16ZM198.468 484.432H200.796V496H198.468V484.432ZM207.962 489.352H206.122L206.138 493.76C206.138 493.963 206.162 494.115 206.21 494.216C206.263 494.312 206.343 494.376 206.45 494.408C206.562 494.435 206.703 494.448 206.874 494.448H207.986V495.888C207.879 495.936 207.711 495.981 207.482 496.024C207.258 496.067 206.943 496.088 206.538 496.088C205.813 496.088 205.25 495.995 204.85 495.808C204.455 495.621 204.181 495.36 204.026 495.024C203.871 494.688 203.794 494.299 203.794 493.856V489.352H202.45V487.728H203.874L204.458 485.232H206.122V487.72H207.962V489.352ZM227.005 484.432L223.589 496H221.725L219.549 488.44L217.357 496H215.525L212.117 484.432H214.405L216.557 492.072L218.709 484.432H220.397L222.573 492.072L224.725 484.432H227.005ZM231.021 496.16C230.21 496.16 229.503 495.987 228.901 495.64C228.303 495.293 227.839 494.803 227.509 494.168C227.183 493.533 227.021 492.781 227.021 491.912C227.021 491.043 227.183 490.283 227.509 489.632C227.839 488.981 228.303 488.475 228.901 488.112C229.503 487.749 230.213 487.568 231.029 487.568C231.845 487.568 232.551 487.747 233.149 488.104C233.746 488.456 234.207 488.957 234.533 489.608C234.858 490.259 235.021 491.027 235.021 491.912C235.021 492.744 234.861 493.48 234.541 494.12C234.226 494.755 233.77 495.253 233.173 495.616C232.581 495.979 231.863 496.16 231.021 496.16ZM231.029 494.424C231.439 494.424 231.77 494.304 232.021 494.064C232.271 493.824 232.453 493.509 232.565 493.12C232.682 492.725 232.741 492.296 232.741 491.832C232.741 491.395 232.687 490.981 232.581 490.592C232.479 490.203 232.303 489.888 232.053 489.648C231.802 489.408 231.461 489.288 231.029 489.288C230.618 489.288 230.285 489.403 230.029 489.632C229.778 489.856 229.594 490.163 229.477 490.552C229.359 490.936 229.301 491.363 229.301 491.832C229.301 492.264 229.354 492.68 229.461 493.08C229.567 493.475 229.746 493.797 229.997 494.048C230.247 494.299 230.591 494.424 231.029 494.424ZM236.578 496V487.728H238.826V489.688C238.959 489.267 239.146 488.899 239.386 488.584C239.631 488.264 239.927 488.016 240.274 487.84C240.621 487.659 241.013 487.568 241.45 487.568C241.525 487.568 241.594 487.573 241.658 487.584C241.727 487.589 241.778 487.6 241.81 487.616V489.84C241.762 489.819 241.703 489.805 241.634 489.8C241.57 489.795 241.511 489.789 241.458 489.784C240.999 489.747 240.607 489.76 240.282 489.824C239.957 489.888 239.693 489.997 239.49 490.152C239.287 490.307 239.141 490.496 239.05 490.72C238.959 490.944 238.914 491.195 238.914 491.472V496H236.578ZM251.07 496H248.742L246.51 492.432L245.414 493.6V496H243.078V484.112H245.414V491.16L248.454 487.728H250.966L247.958 491.024L251.07 496Z" fill="#3E3E3E"/>
<path d="M293 503C299.627 503 305 497.627 305 491C305 484.373 299.627 479 293 479C286.373 479 281 484.373 281 491C281 497.627 286.373 503 293 503Z" stroke="#3E3E3E" stroke-width="2" stroke-linecap="round" stroke-linejoin="round"/>
<path d="M293 499C293.828 499 294.5 498.328 294.5 497.5C294.5 496.672 293.828 496 293 496C292.172 496 291.5 496.672 291.5 497.5C291.5 498.328 292.172 499 293 499Z" fill="#3E3E3E"/>
<path d="M293 493V492C293.692 492 294.369 491.795 294.944 491.41C295.52 491.026 295.969 490.479 296.234 489.839C296.498 489.2 296.568 488.496 296.433 487.817C296.298 487.138 295.964 486.515 295.475 486.025C294.985 485.536 294.362 485.202 293.683 485.067C293.004 484.932 292.3 485.002 291.661 485.266C291.021 485.531 290.474 485.98 290.09 486.556C289.705 487.131 289.5 487.808 289.5 488.5" stroke="#3E3E3E" stroke-width="2" stroke-linecap="round" stroke-linejoin="round"/>
<path d="M120.296 368V356.432H128.24L128.232 358.4H122.64V361.208H127.496V363.136H122.624V366.008L128.32 366.016V368H120.296ZM130.062 368V359.728H132.351V360.896C132.601 360.533 132.937 360.221 133.359 359.96C133.785 359.699 134.321 359.568 134.967 359.568C135.249 359.568 135.537 359.619 135.831 359.72C136.124 359.821 136.399 359.971 136.655 360.168C136.916 360.36 137.127 360.603 137.286 360.896C137.553 360.517 137.903 360.203 138.335 359.952C138.772 359.696 139.257 359.568 139.791 359.568C140.1 359.568 140.412 359.619 140.727 359.72C141.047 359.821 141.34 359.987 141.607 360.216C141.873 360.445 142.087 360.752 142.247 361.136C142.412 361.515 142.495 361.984 142.495 362.544V368H140.159V362.832C140.159 362.501 140.092 362.237 139.959 362.04C139.831 361.837 139.665 361.693 139.463 361.608C139.265 361.517 139.055 361.472 138.831 361.472C138.623 361.472 138.412 361.515 138.199 361.6C137.985 361.68 137.804 361.811 137.655 361.992C137.505 362.173 137.431 362.411 137.431 362.704V368H135.103V362.624C135.103 362.373 135.036 362.163 134.903 361.992C134.769 361.821 134.601 361.693 134.399 361.608C134.201 361.517 133.999 361.472 133.791 361.472C133.577 361.472 133.364 361.517 133.151 361.608C132.937 361.693 132.759 361.829 132.615 362.016C132.471 362.197 132.399 362.427 132.399 362.704V368H130.062ZM146.728 368.16C146.2 368.16 145.725 368.061 145.304 367.864C144.883 367.667 144.549 367.381 144.304 367.008C144.059 366.629 143.936 366.171 143.936 365.632C143.936 364.725 144.275 364.037 144.952 363.568C145.629 363.093 146.699 362.848 148.16 362.832L149.192 362.816V362.32C149.192 361.941 149.08 361.651 148.856 361.448C148.637 361.24 148.296 361.139 147.832 361.144C147.491 361.149 147.165 361.229 146.856 361.384C146.552 361.539 146.344 361.808 146.232 362.192H144.288C144.32 361.595 144.493 361.104 144.808 360.72C145.123 360.331 145.549 360.043 146.088 359.856C146.632 359.664 147.248 359.568 147.936 359.568C148.784 359.568 149.464 359.675 149.976 359.888C150.488 360.096 150.859 360.397 151.088 360.792C151.317 361.181 151.432 361.645 151.432 362.184V368H149.48L149.288 366.576C149.005 367.173 148.651 367.587 148.224 367.816C147.803 368.045 147.304 368.16 146.728 368.16ZM147.512 366.624C147.725 366.624 147.931 366.587 148.128 366.512C148.331 366.432 148.509 366.328 148.664 366.2C148.824 366.067 148.952 365.917 149.048 365.752C149.144 365.587 149.192 365.416 149.192 365.24V364.016L148.352 364.032C147.963 364.037 147.6 364.085 147.264 364.176C146.928 364.261 146.656 364.403 146.448 364.6C146.245 364.797 146.144 365.064 146.144 365.4C146.144 365.784 146.277 366.085 146.544 366.304C146.811 366.517 147.133 366.624 147.512 366.624ZM155.852 359.728V368H153.62V359.728H155.852ZM155.876 356.44V358.544H153.604V356.44H155.876ZM160.656 368.144C160.048 368.144 159.565 368.072 159.208 367.928C158.85 367.784 158.586 367.595 158.416 367.36C158.245 367.12 158.136 366.856 158.088 366.568C158.04 366.275 158.016 365.979 158.016 365.68V356.112H160.304V365.392C160.304 365.696 160.368 365.944 160.496 366.136C160.629 366.323 160.877 366.437 161.24 366.48L161.632 366.504V367.944C161.472 367.997 161.309 368.043 161.144 368.08C160.978 368.123 160.816 368.144 160.656 368.144Z" fill="#3E3E3E"/>
<path d="M305 354L293 365L281 354" stroke="#3E3E3E" stroke-width="2" stroke-linecap="round" stroke-linejoin="round"/>
<path d="M281 354H305V371C305 371.265 304.895 371.52 304.707 371.707C304.52 371.895 304.265 372 304 372H282C281.735 372 281.48 371.895 281.293 371.707C281.105 371.52 281 371.265 281 371V354Z" stroke="#3E3E3E" stroke-width="2" stroke-linecap="round" stroke-linejoin="round"/>
<path d="M290.812 363L281.312 371.712" stroke="#3E3E3E" stroke-width="2" stroke-linecap="round" stroke-linejoin="round"/>
<path d="M304.688 371.712L295.188 363" stroke="#3E3E3E" stroke-width="2" stroke-linecap="round" stroke-linejoin="round"/>
<path d="M120.296 432V420.432H124.552C125.395 420.432 126.149 420.579 126.816 420.872C127.483 421.16 128.008 421.587 128.392 422.152C128.781 422.717 128.976 423.408 128.976 424.224C128.976 424.992 128.805 425.648 128.464 426.192C128.123 426.736 127.643 427.152 127.024 427.44C126.411 427.728 125.688 427.872 124.856 427.872H122.648V432H120.296ZM122.624 426.064H124.792C125.379 426.064 125.859 425.877 126.232 425.504C126.605 425.125 126.792 424.659 126.792 424.104C126.792 423.528 126.595 423.072 126.2 422.736C125.805 422.395 125.325 422.224 124.76 422.224H122.624V426.064ZM130.438 432V420.112H132.758V424.92C132.891 424.728 133.059 424.539 133.262 424.352C133.464 424.16 133.718 424 134.022 423.872C134.326 423.744 134.696 423.68 135.134 423.68C135.662 423.68 136.142 423.784 136.574 423.992C137.011 424.195 137.36 424.491 137.622 424.88C137.888 425.269 138.022 425.744 138.022 426.304V432H135.678V426.648C135.678 426.275 135.542 425.989 135.27 425.792C135.003 425.589 134.678 425.488 134.294 425.488C134.043 425.488 133.8 425.533 133.566 425.624C133.331 425.715 133.139 425.853 132.99 426.04C132.846 426.221 132.774 426.448 132.774 426.72V432H130.438ZM143.474 432.16C142.663 432.16 141.957 431.987 141.354 431.64C140.757 431.293 140.293 430.803 139.962 430.168C139.637 429.533 139.474 428.781 139.474 427.912C139.474 427.043 139.637 426.283 139.962 425.632C140.293 424.981 140.757 424.475 141.354 424.112C141.957 423.749 142.666 423.568 143.482 423.568C144.298 423.568 145.005 423.747 145.602 424.104C146.199 424.456 146.661 424.957 146.986 425.608C147.311 426.259 147.474 427.027 147.474 427.912C147.474 428.744 147.314 429.48 146.994 430.12C146.679 430.755 146.223 431.253 145.626 431.616C145.034 431.979 144.317 432.16 143.474 432.16ZM143.482 430.424C143.893 430.424 144.223 430.304 144.474 430.064C144.725 429.824 144.906 429.509 145.018 429.12C145.135 428.725 145.194 428.296 145.194 427.832C145.194 427.395 145.141 426.981 145.034 426.592C144.933 426.203 144.757 425.888 144.506 425.648C144.255 425.408 143.914 425.288 143.482 425.288C143.071 425.288 142.738 425.403 142.482 425.632C142.231 425.856 142.047 426.163 141.93 426.552C141.813 426.936 141.754 427.363 141.754 427.832C141.754 428.264 141.807 428.68 141.914 429.08C142.021 429.475 142.199 429.797 142.45 430.048C142.701 430.299 143.045 430.424 143.482 430.424ZM149.031 432V423.728H151.327V424.896C151.455 424.693 151.621 424.499 151.823 424.312C152.031 424.12 152.293 423.963 152.607 423.84C152.922 423.717 153.295 423.656 153.727 423.656C154.234 423.656 154.706 423.755 155.143 423.952C155.586 424.149 155.943 424.461 156.215 424.888C156.487 425.309 156.623 425.861 156.623 426.544V432H154.287V426.832C154.287 426.384 154.154 426.048 153.887 425.824C153.621 425.6 153.295 425.488 152.911 425.488C152.655 425.488 152.407 425.533 152.167 425.624C151.933 425.715 151.741 425.851 151.591 426.032C151.442 426.213 151.367 426.437 151.367 426.704V432H149.031ZM160.436 428.4C160.43 428.821 160.497 429.189 160.636 429.504C160.774 429.813 160.974 430.053 161.236 430.224C161.502 430.389 161.822 430.472 162.196 430.472C162.596 430.472 162.945 430.387 163.244 430.216C163.548 430.045 163.758 429.765 163.876 429.376H165.98C165.889 429.963 165.654 430.464 165.276 430.88C164.902 431.296 164.449 431.613 163.916 431.832C163.382 432.051 162.828 432.16 162.252 432.16C161.436 432.16 160.716 431.989 160.092 431.648C159.473 431.301 158.99 430.813 158.644 430.184C158.297 429.555 158.124 428.813 158.124 427.96C158.124 427.133 158.281 426.389 158.596 425.728C158.91 425.061 159.366 424.536 159.964 424.152C160.566 423.763 161.289 423.568 162.132 423.568C162.974 423.568 163.681 423.747 164.252 424.104C164.828 424.456 165.26 424.949 165.548 425.584C165.841 426.213 165.988 426.941 165.988 427.768V428.4H160.436ZM160.428 427.008H163.804C163.804 426.677 163.742 426.373 163.62 426.096C163.497 425.819 163.31 425.6 163.06 425.44C162.814 425.28 162.505 425.2 162.132 425.2C161.769 425.2 161.46 425.288 161.204 425.464C160.953 425.635 160.761 425.859 160.628 426.136C160.494 426.413 160.428 426.704 160.428 427.008Z" fill="#3E3E3E"/>
<path d="M288.562 426.6C289.592 428.725 291.31 430.439 293.438 431.462C293.594 431.537 293.768 431.569 293.941 431.556C294.114 431.543 294.281 431.485 294.425 431.387L297.55 429.3C297.688 429.206 297.848 429.149 298.014 429.134C298.18 429.119 298.347 429.146 298.5 429.212L304.35 431.725C304.55 431.808 304.717 431.955 304.825 432.142C304.934 432.33 304.978 432.548 304.95 432.762C304.765 434.21 304.058 435.54 302.963 436.504C301.868 437.468 300.459 438 299 438C294.491 438 290.167 436.209 286.979 433.021C283.791 429.833 282 425.509 282 421C282 419.541 282.532 418.132 283.496 417.037C284.46 415.942 285.79 415.235 287.238 415.05C287.452 415.022 287.67 415.066 287.858 415.175C288.045 415.283 288.192 415.45 288.275 415.65L290.788 421.512C290.853 421.663 290.88 421.827 290.867 421.991C290.854 422.154 290.801 422.312 290.712 422.45L288.625 425.625C288.532 425.769 288.478 425.934 288.467 426.104C288.456 426.275 288.489 426.446 288.562 426.6V426.6Z" stroke="#3E3E3E" stroke-width="2" stroke-linecap="round" stroke-linejoin="round"/>
<defs>
<filter id="filter0_d_520_2290" x="77.5" y="820.5" width="279" height="71" filterUnits="userSpaceOnUse" color-interpolation-filters="sRGB">
<feFlood flood-opacity="0" result="BackgroundImageFix"/>
<feColorMatrix in="SourceAlpha" type="matrix" values="0 0 0 0 0 0 0 0 0 0 0 0 0 0 0 0 0 0 127 0" result="hardAlpha"/>
<feOffset dx="3" dy="4"/>
<feGaussianBlur stdDeviation="3.75"/>
<feComposite in2="hardAlpha" operator="out"/>
<feColorMatrix type="matrix" values="0 0 0 0 0.529412 0 0 0 0 0.462745 0 0 0 0 0.341176 0 0 0 0.3 0"/>
<feBlend mode="normal" in2="BackgroundImageFix" result="effect1_dropShadow_520_2290"/>
<feBlend mode="normal" in="SourceGraphic" in2="effect1_dropShadow_520_2290" result="shape"/>
</filter>
<clipPath id="clip0_520_2290">
<rect width="119" height="119" fill="white" transform="translate(155 22)"/>
</clipPath>
</defs>
</svg>
