<svg width="428" height="926" viewBox="0 0 428 926" fill="none" xmlns="http://www.w3.org/2000/svg">
<rect width="428" height="926" fill="#F8F2E9"/>
<g clip-path="url(#clip0_520_1033)">
<path d="M240.646 92.0177C240.549 91.6317 240.501 91.2208 240.501 90.785C240.501 89.1542 241.237 87.7352 242.71 86.5279C244.183 85.3207 247.195 83.8385 251.746 82.0814V80.7351C251.746 79.3192 251.565 78.3047 251.205 77.6916C250.845 77.0785 250.254 76.7719 249.432 76.7719C248.762 76.7719 248.206 76.971 247.764 77.3692C247.321 77.7674 247.1 78.2636 247.1 78.8578C247.1 79.1738 247.113 79.5436 247.138 79.9671C247.163 80.3905 247.176 80.6592 247.176 80.773C247.176 81.6958 246.92 82.4384 246.408 83.001C245.896 83.5636 245.216 83.8448 244.369 83.8448C243.598 83.8448 242.979 83.6015 242.511 83.1148C242.043 82.628 241.809 81.9865 241.809 81.1902C241.809 79.4709 242.625 78.0456 244.256 76.9141C245.886 75.7827 247.985 75.217 250.551 75.217C251.992 75.217 253.297 75.4004 254.467 75.767C255.636 76.1336 256.594 76.6645 257.339 77.3598C257.946 77.9286 258.376 78.5923 258.629 79.3508C258.882 80.1092 259.008 81.2533 259.008 82.783V88.1871C259.008 89.6914 259.125 90.7597 259.359 91.3917C259.593 92.0238 259.969 92.3399 260.487 92.3399C260.601 92.3399 260.715 92.3146 260.828 92.264C260.942 92.2134 261.062 92.1377 261.189 92.0364V93.269C260.683 93.9137 260.029 94.413 259.226 94.767C258.423 95.121 257.535 95.298 256.562 95.298C255.45 95.298 254.517 95.0389 253.765 94.5205C253.013 94.0022 252.46 93.2375 252.106 92.2262C251.145 93.326 250.137 94.1445 249.081 94.6817C248.026 95.2189 246.91 95.4876 245.735 95.4876C244.18 95.4876 242.919 95.0483 241.952 94.1697C241.629 93.8766 241.36 93.5556 241.145 93.2066C240.384 93.8039 239.157 94.4941 238.538 94.767C237.736 95.121 236.848 95.298 235.874 95.298C234.762 95.298 233.829 95.0389 233.077 94.5205C232.325 94.0022 231.772 93.2375 231.418 92.2262C230.457 93.326 229.449 94.1445 228.394 94.6817C227.338 95.2189 226.223 95.4876 225.047 95.4876C223.492 95.4876 222.231 95.0483 221.264 94.1697C220.297 93.2911 219.813 92.1629 219.813 90.785C219.813 89.1542 220.55 87.7352 222.022 86.5279C223.495 85.3207 226.507 83.8385 231.058 82.0814V80.7351C231.058 79.3192 230.878 78.3047 230.517 77.6916C230.157 77.0785 229.566 76.7719 228.744 76.7719C228.075 76.7719 227.518 76.971 227.076 77.3692C226.633 77.7674 226.412 78.2636 226.412 78.8578C226.412 79.1738 226.425 79.5436 226.45 79.9671C226.475 80.3905 226.488 80.6592 226.488 80.773C226.488 81.6958 226.232 82.4384 225.72 83.001C225.208 83.5636 224.529 83.8448 223.682 83.8448C222.91 83.8448 222.291 83.6015 221.823 83.1148C221.356 82.628 221.122 81.9865 221.122 81.1902C221.122 79.4709 221.937 78.0456 223.568 76.9141C225.199 75.7827 227.297 75.217 229.863 75.217C231.304 75.217 232.61 75.4004 233.779 75.767C234.948 76.1336 235.906 76.6645 236.652 77.3598C237.258 77.9286 237.688 78.5923 237.941 79.3508C238.194 80.1092 238.32 81.2533 238.32 82.783V88.1871C238.32 89.6914 238.437 90.7597 238.671 91.3917C238.905 92.0238 239.281 92.3399 239.799 92.3399C239.913 92.3399 240.027 92.3146 240.141 92.264C240.194 92.2404 240.414 92.1343 240.646 92.0177ZM182.778 94.6723L178.246 85.6652V90.8229C178.246 91.8215 178.423 92.5327 178.777 92.9562C179.131 93.3796 179.731 93.5913 180.578 93.5913H180.692V94.6723H168.499V93.5913H168.613C169.448 93.5913 170.045 93.3796 170.405 92.9562C170.765 92.5327 170.946 91.8215 170.946 90.8229V75.2549C170.946 74.6734 170.879 74.2532 170.746 73.9941C170.614 73.7348 170.313 73.4156 169.846 73.0364L167.798 71.3678C168.683 71.1023 169.915 70.6788 171.495 70.0972C173.076 69.5158 175.326 68.6562 178.246 67.5184V84.6222C179.902 83.3454 181.15 82.1919 181.991 81.1616C182.832 80.1314 183.252 79.2371 183.252 78.4786C183.252 78.074 183.097 77.7516 182.787 77.5115C182.478 77.2713 182.051 77.1512 181.507 77.1512H181.394V76.0704H191.254V77.1512H190.932C189.63 77.1512 188.403 77.4925 187.253 78.1751C186.103 78.8578 184.921 79.9449 183.707 81.4367L189.149 90.747C189.743 91.7837 190.319 92.5043 190.875 92.9087C191.429 93.312 192.122 93.5394 192.953 93.5909C193.752 93.5796 194.326 93.3681 194.677 92.9562C195.037 92.5327 195.217 91.8215 195.217 90.8229V82.783C195.217 82.2015 195.154 81.7811 195.027 81.522C194.901 81.2629 194.604 80.95 194.136 80.5833L192.069 78.9147C193.574 78.4343 195.198 77.8718 196.943 77.227C198.687 76.5823 200.545 75.8618 202.518 75.0653V90.8229C202.518 91.7963 202.691 92.4947 203.039 92.9182C203.387 93.3416 203.965 93.5661 204.774 93.5913H204.811C205.645 93.5913 206.243 93.3796 206.603 92.9562C206.963 92.5327 207.143 91.8215 207.143 90.8229V83.6742C207.143 83.0673 207.067 82.6186 206.916 82.3279C206.764 82.0371 206.48 81.7526 206.063 81.4745L203.692 79.8059C204.931 79.376 206.36 78.7851 207.978 78.0329C209.596 77.2807 211.58 76.2916 213.932 75.0653V78.4027C214.564 77.3408 215.25 76.5445 215.989 76.0135C216.729 75.4825 217.522 75.217 218.369 75.217C219.304 75.217 220.057 75.4951 220.625 76.0514C221.194 76.6076 221.479 77.3408 221.479 78.251C221.479 79.0474 221.242 79.6858 220.768 80.1661C220.294 80.6466 219.665 80.8867 218.881 80.8867C218.173 80.8867 217.494 80.6023 216.842 80.0334C216.191 79.4645 215.777 79.1802 215.6 79.1802C215.183 79.1802 214.886 79.4583 214.709 80.0145C214.532 80.5707 214.444 81.563 214.444 82.9916V90.8229C214.444 91.8089 214.643 92.5169 215.041 92.9466C215.439 93.3765 216.093 93.5913 217.004 93.5913H217.117V94.6723H182.778ZM251.746 83.4845C250.608 83.9396 249.742 84.657 249.148 85.6367C248.554 86.6164 248.257 87.8143 248.257 89.2301C248.257 90.0392 248.418 90.6839 248.74 91.1642C249.062 91.6446 249.483 91.8848 250.001 91.8848C250.671 91.8848 251.129 91.6193 251.376 91.0883C251.622 90.5574 251.746 89.2301 251.746 87.1063V83.4845ZM231.058 83.4845C229.92 83.9396 229.054 84.657 228.46 85.6367C227.866 86.6164 227.569 87.8143 227.569 89.2301C227.569 90.0392 227.73 90.6839 228.052 91.1642C228.375 91.6446 228.795 91.8848 229.313 91.8848C229.983 91.8848 230.442 91.6193 230.688 91.0883C230.935 90.5574 231.058 89.2301 231.058 87.1063V83.4845ZM194.705 71.3298C194.705 70.268 195.075 69.3672 195.814 68.6277C196.554 67.8882 197.455 67.5184 198.517 67.5184C199.591 67.5184 200.495 67.8882 201.228 68.6277C201.961 69.3672 202.328 70.268 202.328 71.3298C202.328 72.3917 201.958 73.2923 201.219 74.0319C200.479 74.7714 199.578 75.1412 198.517 75.1412C197.455 75.1412 196.554 74.7746 195.814 74.0414C195.075 73.3082 194.705 72.4043 194.705 71.3298Z" fill="#3E3E3E"/>
</g>
<g filter="url(#filter0_d_520_1033)">
<rect x="82" y="824" width="264" height="56" rx="28" fill="#F8F2E9" shape-rendering="crispEdges"/>
<path d="M121 862V856C121 855.735 120.895 855.48 120.707 855.293C120.52 855.105 120.265 855 120 855H116C115.735 855 115.48 855.105 115.293 855.293C115.105 855.48 115 855.735 115 856V862C115 862.265 114.895 862.52 114.707 862.707C114.52 862.895 114.265 863 114 863H108C107.735 863 107.48 862.895 107.293 862.707C107.105 862.52 107 862.265 107 862V850.437C107.002 850.299 107.032 850.163 107.088 850.036C107.144 849.909 107.224 849.795 107.325 849.7L117.325 840.612C117.509 840.444 117.75 840.35 118 840.35C118.25 840.35 118.491 840.444 118.675 840.612L128.675 849.7C128.776 849.795 128.856 849.909 128.912 850.036C128.968 850.163 128.998 850.299 129 850.437V862C129 862.265 128.895 862.52 128.707 862.707C128.52 862.895 128.265 863 128 863H122C121.735 863 121.48 862.895 121.293 862.707C121.105 862.52 121 862.265 121 862Z" stroke="#4A4A4A" stroke-width="2" stroke-linecap="round" stroke-linejoin="round"/>
<path d="M178 845C178 843.939 178.421 842.922 179.172 842.172C179.922 841.421 180.939 841 182 841C183.061 841 184.078 841.421 184.828 842.172C185.579 842.922 186 843.939 186 845L168.4 858.2C168.232 858.326 168.108 858.501 168.045 858.702C167.983 858.902 167.985 859.117 168.051 859.316C168.118 859.515 168.245 859.689 168.415 859.811C168.586 859.934 168.79 860 169 860H195C195.21 860 195.414 859.934 195.585 859.811C195.755 859.689 195.882 859.515 195.949 859.316C196.015 859.117 196.017 858.902 195.955 858.702C195.892 858.501 195.768 858.326 195.6 858.2L182 848" stroke="#4A4A4A" stroke-width="2" stroke-linecap="round" stroke-linejoin="round"/>
<path d="M246 856C250.418 856 254 852.418 254 848C254 843.582 250.418 840 246 840C241.582 840 238 843.582 238 848C238 852.418 241.582 856 246 856Z" stroke="#4A4A4A" stroke-width="2" stroke-miterlimit="10"/>
<path d="M233.875 863C235.104 860.871 236.871 859.104 238.999 857.875C241.128 856.646 243.542 855.999 246 855.999C248.458 855.999 250.872 856.646 253.001 857.875C255.129 859.104 256.896 860.871 258.125 863" stroke="#4A4A4A" stroke-width="2" stroke-linecap="round" stroke-linejoin="round"/>
<path d="M305.955 841.143L306.938 838.606C307.103 838.176 307.395 837.807 307.774 837.546C308.154 837.285 308.603 837.144 309.063 837.143H310.938C311.398 837.144 311.847 837.285 312.227 837.546C312.606 837.807 312.897 838.176 313.063 838.606L314.046 841.143L317.383 843.063L320.08 842.651C320.529 842.59 320.987 842.664 321.394 842.864C321.801 843.063 322.139 843.379 322.366 843.771L323.28 845.371C323.515 845.77 323.623 846.23 323.59 846.691C323.557 847.152 323.386 847.593 323.098 847.954L321.429 850.08V853.92L323.143 856.046C323.431 856.407 323.603 856.848 323.636 857.309C323.668 857.77 323.56 858.23 323.326 858.629L322.412 860.229C322.185 860.621 321.846 860.937 321.439 861.136C321.032 861.336 320.575 861.409 320.126 861.349L317.429 860.937L314.092 862.857L313.109 865.394C312.943 865.824 312.652 866.193 312.272 866.454C311.893 866.715 311.444 866.856 310.983 866.857H309.063C308.603 866.856 308.154 866.715 307.774 866.454C307.395 866.193 307.103 865.824 306.938 865.394L305.955 862.857L302.618 860.937L299.92 861.349C299.471 861.409 299.014 861.336 298.607 861.136C298.2 860.937 297.862 860.621 297.635 860.229L296.72 858.629C296.486 858.23 296.378 857.77 296.411 857.309C296.443 856.848 296.615 856.407 296.903 856.046L298.572 853.92V850.08L296.858 847.954C296.569 847.593 296.398 847.152 296.365 846.691C296.332 846.23 296.44 845.77 296.675 845.371L297.589 843.771C297.816 843.379 298.154 843.063 298.561 842.864C298.968 842.664 299.426 842.59 299.875 842.651L302.572 843.063L305.955 841.143ZM305.429 852C305.429 852.904 305.697 853.788 306.199 854.54C306.702 855.291 307.416 855.877 308.251 856.223C309.086 856.569 310.005 856.66 310.892 856.484C311.779 856.307 312.594 855.872 313.233 855.232C313.872 854.593 314.308 853.779 314.484 852.892C314.66 852.005 314.57 851.086 314.224 850.251C313.878 849.415 313.292 848.701 312.54 848.199C311.788 847.697 310.905 847.429 310 847.429C308.788 847.429 307.625 847.91 306.768 848.767C305.911 849.625 305.429 850.788 305.429 852Z" fill="#3E3E3E"/>
</g>
<path d="M381 116H359C358.448 116 358 116.448 358 117V135C358 135.552 358.448 136 359 136H381C381.552 136 382 135.552 382 135V117C382 116.448 381.552 116 381 116Z" stroke="#3E3E3E" stroke-width="2" stroke-linecap="round" stroke-linejoin="round"/>
<path d="M375 121C375 122.326 374.473 123.598 373.536 124.536C372.598 125.473 371.326 126 370 126C368.674 126 367.402 125.473 366.464 124.536C365.527 123.598 365 122.326 365 121" stroke="#3E3E3E" stroke-width="2" stroke-linecap="round" stroke-linejoin="round"/>
<path d="M180.05 222.2C179.337 222.2 178.637 222.11 177.95 221.93C177.263 221.75 176.637 221.48 176.07 221.12C175.503 220.76 175.033 220.31 174.66 219.77C174.293 219.23 174.073 218.597 174 217.87H176.99C177.09 218.31 177.28 218.68 177.56 218.98C177.84 219.28 178.193 219.51 178.62 219.67C179.047 219.83 179.52 219.91 180.04 219.91C180.573 219.91 181.06 219.843 181.5 219.71C181.94 219.577 182.293 219.377 182.56 219.11C182.827 218.837 182.96 218.497 182.96 218.09C182.96 217.723 182.85 217.423 182.63 217.19C182.417 216.957 182.127 216.767 181.76 216.62C181.393 216.473 180.977 216.353 180.51 216.26L178.01 215.75C176.917 215.543 176.05 215.11 175.41 214.45C174.77 213.783 174.44 212.897 174.42 211.79C174.413 210.883 174.653 210.1 175.14 209.44C175.633 208.773 176.3 208.26 177.14 207.9C177.987 207.54 178.933 207.36 179.98 207.36C181.227 207.36 182.273 207.557 183.12 207.95C183.973 208.337 184.62 208.863 185.06 209.53C185.507 210.19 185.737 210.927 185.75 211.74H182.82C182.767 211.233 182.613 210.83 182.36 210.53C182.107 210.23 181.78 210.013 181.38 209.88C180.987 209.747 180.537 209.68 180.03 209.68C179.643 209.68 179.29 209.723 178.97 209.81C178.657 209.897 178.39 210.02 178.17 210.18C177.95 210.333 177.78 210.517 177.66 210.73C177.54 210.943 177.48 211.183 177.48 211.45C177.48 211.87 177.62 212.21 177.9 212.47C178.18 212.73 178.703 212.943 179.47 213.11L181.95 213.62C182.837 213.793 183.54 214.05 184.06 214.39C184.587 214.73 184.98 215.113 185.24 215.54C185.507 215.967 185.68 216.403 185.76 216.85C185.847 217.29 185.89 217.697 185.89 218.07C185.89 218.85 185.643 219.553 185.15 220.18C184.663 220.8 183.983 221.293 183.11 221.66C182.237 222.02 181.217 222.2 180.05 222.2ZM190.4 217.5C190.393 218.027 190.477 218.487 190.65 218.88C190.823 219.267 191.073 219.567 191.4 219.78C191.733 219.987 192.133 220.09 192.6 220.09C193.1 220.09 193.537 219.983 193.91 219.77C194.29 219.557 194.553 219.207 194.7 218.72H197.33C197.217 219.453 196.923 220.08 196.45 220.6C195.983 221.12 195.417 221.517 194.75 221.79C194.083 222.063 193.39 222.2 192.67 222.2C191.65 222.2 190.75 221.987 189.97 221.56C189.197 221.127 188.593 220.517 188.16 219.73C187.727 218.943 187.51 218.017 187.51 216.95C187.51 215.917 187.707 214.987 188.1 214.16C188.493 213.327 189.063 212.67 189.81 212.19C190.563 211.703 191.467 211.46 192.52 211.46C193.573 211.46 194.457 211.683 195.17 212.13C195.89 212.57 196.43 213.187 196.79 213.98C197.157 214.767 197.34 215.677 197.34 216.71V217.5H190.4ZM190.39 215.76H194.61C194.61 215.347 194.533 214.967 194.38 214.62C194.227 214.273 193.993 214 193.68 213.8C193.373 213.6 192.987 213.5 192.52 213.5C192.067 213.5 191.68 213.61 191.36 213.83C191.047 214.043 190.807 214.323 190.64 214.67C190.473 215.017 190.39 215.38 190.39 215.76ZM205.335 213.69H203.035L203.055 219.2C203.055 219.453 203.085 219.643 203.145 219.77C203.212 219.89 203.312 219.97 203.445 220.01C203.585 220.043 203.762 220.06 203.975 220.06H205.365V221.86C205.232 221.92 205.022 221.977 204.735 222.03C204.455 222.083 204.062 222.11 203.555 222.11C202.648 222.11 201.945 221.993 201.445 221.76C200.952 221.527 200.608 221.2 200.415 220.78C200.222 220.36 200.125 219.873 200.125 219.32V213.69H198.445V211.66H200.225L200.955 208.54H203.035V211.65H205.335V213.69ZM213.675 213.69H211.375L211.395 219.2C211.395 219.453 211.425 219.643 211.485 219.77C211.552 219.89 211.652 219.97 211.785 220.01C211.925 220.043 212.102 220.06 212.315 220.06H213.705V221.86C213.572 221.92 213.362 221.977 213.075 222.03C212.795 222.083 212.402 222.11 211.895 222.11C210.988 222.11 210.285 221.993 209.785 221.76C209.292 221.527 208.948 221.2 208.755 220.78C208.562 220.36 208.465 219.873 208.465 219.32V213.69H206.785V211.66H208.565L209.295 208.54H211.375V211.65H213.675V213.69ZM218.772 211.66V222H215.982V211.66H218.772ZM218.802 207.55V210.18H215.962V207.55H218.802ZM221.477 222V211.66H224.347V213.12C224.507 212.867 224.713 212.623 224.967 212.39C225.227 212.15 225.553 211.953 225.947 211.8C226.34 211.647 226.807 211.57 227.347 211.57C227.98 211.57 228.57 211.693 229.117 211.94C229.67 212.187 230.117 212.577 230.457 213.11C230.797 213.637 230.967 214.327 230.967 215.18V222H228.047V215.54C228.047 214.98 227.88 214.56 227.547 214.28C227.213 214 226.807 213.86 226.327 213.86C226.007 213.86 225.697 213.917 225.397 214.03C225.103 214.143 224.863 214.313 224.677 214.54C224.49 214.767 224.397 215.047 224.397 215.38V222H221.477ZM238.122 225.42C236.282 225.42 234.882 225.187 233.922 224.72C232.969 224.253 232.492 223.64 232.492 222.88C232.492 222.527 232.585 222.23 232.772 221.99C232.959 221.75 233.175 221.56 233.422 221.42C233.675 221.273 233.905 221.163 234.112 221.09C234.325 221.01 234.455 220.957 234.502 220.93C234.395 220.87 234.242 220.783 234.042 220.67C233.842 220.55 233.655 220.39 233.482 220.19C233.315 219.983 233.232 219.717 233.232 219.39C233.232 219.023 233.405 218.683 233.752 218.37C234.105 218.057 234.639 217.84 235.352 217.72C234.672 217.4 234.155 216.967 233.802 216.42C233.449 215.873 233.272 215.313 233.272 214.74C233.272 214.06 233.485 213.477 233.912 212.99C234.339 212.503 234.919 212.133 235.652 211.88C236.392 211.627 237.229 211.5 238.162 211.5C238.875 211.5 239.459 211.577 239.912 211.73C240.365 211.877 240.785 212.07 241.172 212.31C241.325 212.25 241.529 212.173 241.782 212.08C242.035 211.98 242.309 211.873 242.602 211.76C242.895 211.64 243.182 211.523 243.462 211.41C243.742 211.29 243.992 211.183 244.212 211.09L244.202 213.35L242.412 213.64C242.485 213.82 242.542 214.013 242.582 214.22C242.622 214.427 242.642 214.597 242.642 214.73C242.642 215.33 242.465 215.89 242.112 216.41C241.765 216.93 241.242 217.35 240.542 217.67C239.849 217.99 238.989 218.15 237.962 218.15C237.835 218.15 237.665 218.147 237.452 218.14C237.245 218.133 237.075 218.123 236.942 218.11C236.549 218.13 236.279 218.18 236.132 218.26C235.985 218.34 235.912 218.433 235.912 218.54C235.912 218.7 236.062 218.807 236.362 218.86C236.662 218.907 237.115 218.95 237.722 218.99C237.935 219.003 238.232 219.02 238.612 219.04C238.992 219.06 239.412 219.087 239.872 219.12C241.139 219.207 242.082 219.52 242.702 220.06C243.329 220.593 243.642 221.267 243.642 222.08C243.642 223.047 243.182 223.843 242.262 224.47C241.349 225.103 239.969 225.42 238.122 225.42ZM238.592 223.79C239.405 223.79 239.985 223.69 240.332 223.49C240.679 223.29 240.852 223.003 240.852 222.63C240.852 222.317 240.719 222.063 240.452 221.87C240.185 221.67 239.795 221.553 239.282 221.52L236.912 221.36C236.605 221.347 236.332 221.393 236.092 221.5C235.859 221.607 235.675 221.753 235.542 221.94C235.415 222.127 235.352 222.327 235.352 222.54C235.352 222.973 235.615 223.29 236.142 223.49C236.669 223.69 237.485 223.79 238.592 223.79ZM238.042 216.52C238.595 216.52 239.039 216.37 239.372 216.07C239.712 215.763 239.882 215.35 239.882 214.83C239.882 214.29 239.712 213.857 239.372 213.53C239.039 213.203 238.595 213.04 238.042 213.04C237.495 213.04 237.049 213.203 236.702 213.53C236.362 213.857 236.192 214.29 236.192 214.83C236.192 215.343 236.355 215.753 236.682 216.06C237.015 216.367 237.469 216.52 238.042 216.52ZM249.746 222.2C249.026 222.2 248.333 222.083 247.666 221.85C247 221.61 246.436 221.237 245.976 220.73C245.516 220.217 245.223 219.553 245.096 218.74H247.626C247.713 219.107 247.87 219.397 248.096 219.61C248.33 219.823 248.593 219.977 248.886 220.07C249.18 220.157 249.46 220.2 249.726 220.2C250.286 220.2 250.736 220.113 251.076 219.94C251.423 219.76 251.596 219.487 251.596 219.12C251.596 218.84 251.493 218.617 251.286 218.45C251.086 218.283 250.753 218.157 250.286 218.07L248.466 217.69C247.553 217.497 246.82 217.17 246.266 216.71C245.713 216.243 245.43 215.583 245.416 214.73C245.416 214.11 245.58 213.553 245.906 213.06C246.24 212.567 246.73 212.177 247.376 211.89C248.023 211.603 248.816 211.46 249.756 211.46C251.03 211.46 252.046 211.74 252.806 212.3C253.573 212.86 253.963 213.65 253.976 214.67H251.536C251.463 214.27 251.263 213.963 250.936 213.75C250.616 213.53 250.213 213.42 249.726 213.42C249.22 213.42 248.803 213.51 248.476 213.69C248.15 213.87 247.986 214.143 247.986 214.51C247.986 214.783 248.12 215 248.386 215.16C248.653 215.313 249.066 215.447 249.626 215.56L251.306 215.94C251.886 216.08 252.356 216.273 252.716 216.52C253.083 216.76 253.366 217.023 253.566 217.31C253.766 217.597 253.903 217.887 253.976 218.18C254.056 218.467 254.096 218.727 254.096 218.96C254.096 219.647 253.913 220.233 253.546 220.72C253.18 221.2 252.67 221.567 252.016 221.82C251.363 222.073 250.606 222.2 249.746 222.2Z" fill="#4A4A4A"/>
<path d="M129.904 293.432L125.912 305H123.264L119.304 293.432H121.536L124.592 302.288L127.672 293.432H129.904ZM132.279 301.4C132.274 301.821 132.341 302.189 132.479 302.504C132.618 302.813 132.818 303.053 133.079 303.224C133.346 303.389 133.666 303.472 134.039 303.472C134.439 303.472 134.789 303.387 135.087 303.216C135.391 303.045 135.602 302.765 135.719 302.376H137.823C137.733 302.963 137.498 303.464 137.119 303.88C136.746 304.296 136.293 304.613 135.759 304.832C135.226 305.051 134.671 305.16 134.095 305.16C133.279 305.16 132.559 304.989 131.935 304.648C131.317 304.301 130.834 303.813 130.487 303.184C130.141 302.555 129.967 301.813 129.967 300.96C129.967 300.133 130.125 299.389 130.439 298.728C130.754 298.061 131.21 297.536 131.807 297.152C132.41 296.763 133.133 296.568 133.975 296.568C134.818 296.568 135.525 296.747 136.095 297.104C136.671 297.456 137.103 297.949 137.391 298.584C137.685 299.213 137.831 299.941 137.831 300.768V301.4H132.279ZM132.271 300.008H135.647C135.647 299.677 135.586 299.373 135.463 299.096C135.341 298.819 135.154 298.6 134.903 298.44C134.658 298.28 134.349 298.2 133.975 298.2C133.613 298.2 133.303 298.288 133.047 298.464C132.797 298.635 132.605 298.859 132.471 299.136C132.338 299.413 132.271 299.704 132.271 300.008ZM139.453 305V296.728H141.701V298.688C141.834 298.267 142.021 297.899 142.261 297.584C142.506 297.264 142.802 297.016 143.149 296.84C143.496 296.659 143.888 296.568 144.325 296.568C144.4 296.568 144.469 296.573 144.533 296.584C144.602 296.589 144.653 296.6 144.685 296.616V298.84C144.637 298.819 144.578 298.805 144.509 298.8C144.445 298.795 144.386 298.789 144.333 298.784C143.874 298.747 143.482 298.76 143.157 298.824C142.832 298.888 142.568 298.997 142.365 299.152C142.162 299.307 142.016 299.496 141.925 299.72C141.834 299.944 141.789 300.195 141.789 300.472V305H139.453ZM148.305 296.728V305H146.073V296.728H148.305ZM148.329 293.44V295.544H146.057V293.44H148.329ZM155.47 296.728V298.352H153.726V305H151.39V298.352H149.862V296.728H151.39V295.536C151.39 294.869 151.585 294.352 151.974 293.984C152.369 293.616 152.926 293.432 153.646 293.432H155.542L155.55 294.984H154.462C154.163 294.984 153.958 295.059 153.846 295.208C153.739 295.352 153.686 295.592 153.686 295.928V296.728H155.47ZM158.429 307.64C157.863 307.64 157.463 307.592 157.229 307.496C156.999 307.405 156.885 307.36 156.885 307.36V305.872L157.701 305.904C158.058 305.925 158.346 305.907 158.565 305.848C158.783 305.795 158.949 305.723 159.061 305.632C159.178 305.541 159.261 305.445 159.309 305.344C159.357 305.248 159.391 305.171 159.413 305.112L159.565 304.656L156.349 296.728H158.661L160.645 302.12L162.653 296.728H164.933L161.581 305.048C161.293 305.752 160.989 306.291 160.669 306.664C160.349 307.037 160.002 307.293 159.629 307.432C159.261 307.571 158.861 307.64 158.429 307.64ZM168.862 305L173.006 293.432H175.47L179.606 305H177.278L176.334 302.32H172.174L171.206 305H168.862ZM172.694 300.28H175.774L174.246 295.688L172.694 300.28ZM184.325 296.568C185.019 296.568 185.616 296.709 186.117 296.992C186.624 297.275 187.021 297.656 187.309 298.136C187.603 298.616 187.771 299.152 187.813 299.744H185.869C185.832 299.525 185.755 299.309 185.637 299.096C185.52 298.877 185.355 298.699 185.141 298.56C184.928 298.416 184.661 298.344 184.341 298.344C183.797 298.344 183.355 298.555 183.013 298.976C182.677 299.392 182.509 300.027 182.509 300.88C182.509 301.685 182.675 302.325 183.005 302.8C183.336 303.269 183.797 303.504 184.389 303.504C184.704 303.504 184.965 303.427 185.173 303.272C185.387 303.117 185.552 302.933 185.669 302.72C185.787 302.501 185.861 302.299 185.893 302.112H187.789C187.752 302.683 187.587 303.2 187.293 303.664C187 304.123 186.6 304.488 186.093 304.76C185.592 305.027 185.003 305.16 184.325 305.16C183.557 305.16 182.872 304.989 182.269 304.648C181.667 304.307 181.192 303.819 180.845 303.184C180.504 302.544 180.333 301.781 180.333 300.896C180.333 300.043 180.499 299.291 180.829 298.64C181.16 297.989 181.624 297.483 182.221 297.12C182.824 296.752 183.525 296.568 184.325 296.568ZM192.966 296.568C193.659 296.568 194.257 296.709 194.758 296.992C195.265 297.275 195.662 297.656 195.95 298.136C196.243 298.616 196.411 299.152 196.454 299.744H194.51C194.473 299.525 194.395 299.309 194.278 299.096C194.161 298.877 193.995 298.699 193.782 298.56C193.569 298.416 193.302 298.344 192.982 298.344C192.438 298.344 191.995 298.555 191.654 298.976C191.318 299.392 191.15 300.027 191.15 300.88C191.15 301.685 191.315 302.325 191.646 302.8C191.977 303.269 192.438 303.504 193.03 303.504C193.345 303.504 193.606 303.427 193.814 303.272C194.027 303.117 194.193 302.933 194.31 302.72C194.427 302.501 194.502 302.299 194.534 302.112H196.43C196.393 302.683 196.227 303.2 195.934 303.664C195.641 304.123 195.241 304.488 194.734 304.76C194.233 305.027 193.643 305.16 192.966 305.16C192.198 305.16 191.513 304.989 190.91 304.648C190.307 304.307 189.833 303.819 189.486 303.184C189.145 302.544 188.974 301.781 188.974 300.896C188.974 300.043 189.139 299.291 189.47 298.64C189.801 297.989 190.265 297.483 190.862 297.12C191.465 296.752 192.166 296.568 192.966 296.568ZM201.615 305.16C200.804 305.16 200.097 304.987 199.495 304.64C198.897 304.293 198.433 303.803 198.103 303.168C197.777 302.533 197.615 301.781 197.615 300.912C197.615 300.043 197.777 299.283 198.103 298.632C198.433 297.981 198.897 297.475 199.495 297.112C200.097 296.749 200.807 296.568 201.623 296.568C202.439 296.568 203.145 296.747 203.743 297.104C204.34 297.456 204.801 297.957 205.127 298.608C205.452 299.259 205.615 300.027 205.615 300.912C205.615 301.744 205.455 302.48 205.135 303.12C204.82 303.755 204.364 304.253 203.767 304.616C203.175 304.979 202.457 305.16 201.615 305.16ZM201.623 303.424C202.033 303.424 202.364 303.304 202.615 303.064C202.865 302.824 203.047 302.509 203.159 302.12C203.276 301.725 203.335 301.296 203.335 300.832C203.335 300.395 203.281 299.981 203.175 299.592C203.073 299.203 202.897 298.888 202.647 298.648C202.396 298.408 202.055 298.288 201.623 298.288C201.212 298.288 200.879 298.403 200.623 298.632C200.372 298.856 200.188 299.163 200.071 299.552C199.953 299.936 199.895 300.363 199.895 300.832C199.895 301.264 199.948 301.68 200.055 302.08C200.161 302.475 200.34 302.797 200.591 303.048C200.841 303.299 201.185 303.424 201.623 303.424ZM210.126 305.16C209.742 305.16 209.363 305.101 208.99 304.984C208.622 304.867 208.286 304.693 207.982 304.464C207.678 304.235 207.433 303.952 207.246 303.616C207.065 303.28 206.974 302.891 206.974 302.448V296.728H209.31V302.152C209.31 302.536 209.435 302.851 209.686 303.096C209.937 303.341 210.305 303.464 210.79 303.464C211.249 303.464 211.611 303.347 211.878 303.112C212.15 302.872 212.286 302.539 212.286 302.112V296.728H214.598V305H212.838L212.566 303.36C212.47 303.845 212.289 304.219 212.022 304.48C211.761 304.736 211.459 304.912 211.118 305.008C210.782 305.109 210.451 305.16 210.126 305.16ZM216.547 305V296.728H218.843V297.896C218.971 297.693 219.136 297.499 219.339 297.312C219.547 297.12 219.808 296.963 220.123 296.84C220.438 296.717 220.811 296.656 221.243 296.656C221.75 296.656 222.222 296.755 222.659 296.952C223.102 297.149 223.459 297.461 223.731 297.888C224.003 298.309 224.139 298.861 224.139 299.544V305H221.803V299.832C221.803 299.384 221.67 299.048 221.403 298.824C221.136 298.6 220.811 298.488 220.427 298.488C220.171 298.488 219.923 298.533 219.683 298.624C219.448 298.715 219.256 298.851 219.107 299.032C218.958 299.213 218.883 299.437 218.883 299.704V305H216.547ZM230.712 298.352H228.872L228.888 302.76C228.888 302.963 228.912 303.115 228.96 303.216C229.013 303.312 229.093 303.376 229.2 303.408C229.312 303.435 229.453 303.448 229.624 303.448H230.736V304.888C230.629 304.936 230.461 304.981 230.232 305.024C230.008 305.067 229.693 305.088 229.288 305.088C228.563 305.088 228 304.995 227.6 304.808C227.205 304.621 226.931 304.36 226.776 304.024C226.621 303.688 226.544 303.299 226.544 302.856V298.352H225.2V296.728H226.624L227.208 294.232H228.872V296.72H230.712V298.352Z" fill="#3E3E3E"/>
<path d="M298.5 296L291.163 303L287.5 299.5" stroke="#3E3E3E" stroke-width="2" stroke-linecap="round" stroke-linejoin="round"/>
<path d="M293 311C299.627 311 305 305.627 305 299C305 292.373 299.627 287 293 287C286.373 287 281 292.373 281 299C281 305.627 286.373 311 293 311Z" stroke="#3E3E3E" stroke-width="2" stroke-linecap="round" stroke-linejoin="round"/>
<path d="M120.296 484.432C120.355 484.432 120.517 484.432 120.784 484.432C121.056 484.432 121.373 484.432 121.736 484.432C122.104 484.432 122.469 484.435 122.832 484.44C123.2 484.44 123.507 484.443 123.752 484.448C125.155 484.48 126.299 484.731 127.184 485.2C128.069 485.669 128.717 486.325 129.128 487.168C129.544 488.011 129.752 489.008 129.752 490.16C129.752 491.36 129.533 492.397 129.096 493.272C128.659 494.141 127.989 494.813 127.088 495.288C126.192 495.763 125.053 496 123.672 496H120.296V484.432ZM122.648 486.32V494.112H123.72C124.381 494.112 124.981 493.984 125.52 493.728C126.064 493.472 126.499 493.053 126.824 492.472C127.149 491.891 127.312 491.115 127.312 490.144C127.312 489.243 127.168 488.512 126.88 487.952C126.592 487.387 126.181 486.973 125.648 486.712C125.115 486.451 124.483 486.32 123.752 486.32H122.648ZM133.436 492.4C133.43 492.821 133.497 493.189 133.636 493.504C133.774 493.813 133.974 494.053 134.236 494.224C134.502 494.389 134.822 494.472 135.196 494.472C135.596 494.472 135.945 494.387 136.244 494.216C136.548 494.045 136.758 493.765 136.876 493.376H138.98C138.889 493.963 138.654 494.464 138.276 494.88C137.902 495.296 137.449 495.613 136.916 495.832C136.382 496.051 135.828 496.16 135.252 496.16C134.436 496.16 133.716 495.989 133.092 495.648C132.473 495.301 131.99 494.813 131.644 494.184C131.297 493.555 131.124 492.813 131.124 491.96C131.124 491.133 131.281 490.389 131.596 489.728C131.91 489.061 132.366 488.536 132.964 488.152C133.566 487.763 134.289 487.568 135.132 487.568C135.974 487.568 136.681 487.747 137.252 488.104C137.828 488.456 138.26 488.949 138.548 489.584C138.841 490.213 138.988 490.941 138.988 491.768V492.4H133.436ZM133.428 491.008H136.804C136.804 490.677 136.742 490.373 136.62 490.096C136.497 489.819 136.31 489.6 136.06 489.44C135.814 489.28 135.505 489.2 135.132 489.2C134.769 489.2 134.46 489.288 134.204 489.464C133.953 489.635 133.761 489.859 133.628 490.136C133.494 490.413 133.428 490.704 133.428 491.008ZM143.249 496.144C142.641 496.144 142.159 496.072 141.801 495.928C141.444 495.784 141.18 495.595 141.009 495.36C140.839 495.12 140.729 494.856 140.681 494.568C140.633 494.275 140.609 493.979 140.609 493.68V484.112H142.897V493.392C142.897 493.696 142.961 493.944 143.089 494.136C143.223 494.323 143.471 494.437 143.833 494.48L144.225 494.504V495.944C144.065 495.997 143.903 496.043 143.737 496.08C143.572 496.123 143.409 496.144 143.249 496.144ZM147.639 492.4C147.633 492.821 147.7 493.189 147.839 493.504C147.977 493.813 148.177 494.053 148.439 494.224C148.705 494.389 149.025 494.472 149.399 494.472C149.799 494.472 150.148 494.387 150.447 494.216C150.751 494.045 150.961 493.765 151.079 493.376H153.183C153.092 493.963 152.857 494.464 152.479 494.88C152.105 495.296 151.652 495.613 151.119 495.832C150.585 496.051 150.031 496.16 149.455 496.16C148.639 496.16 147.919 495.989 147.295 495.648C146.676 495.301 146.193 494.813 145.847 494.184C145.5 493.555 145.327 492.813 145.327 491.96C145.327 491.133 145.484 490.389 145.799 489.728C146.113 489.061 146.569 488.536 147.167 488.152C147.769 487.763 148.492 487.568 149.335 487.568C150.177 487.568 150.884 487.747 151.455 488.104C152.031 488.456 152.463 488.949 152.751 489.584C153.044 490.213 153.191 490.941 153.191 491.768V492.4H147.639ZM147.631 491.008H151.007C151.007 490.677 150.945 490.373 150.823 490.096C150.7 489.819 150.513 489.6 150.263 489.44C150.017 489.28 149.708 489.2 149.335 489.2C148.972 489.2 148.663 489.288 148.407 489.464C148.156 489.635 147.964 489.859 147.831 490.136C147.697 490.413 147.631 490.704 147.631 491.008ZM159.587 489.352H157.747L157.763 493.76C157.763 493.963 157.787 494.115 157.835 494.216C157.888 494.312 157.968 494.376 158.075 494.408C158.187 494.435 158.328 494.448 158.499 494.448H159.611V495.888C159.504 495.936 159.336 495.981 159.107 496.024C158.883 496.067 158.568 496.088 158.163 496.088C157.438 496.088 156.875 495.995 156.475 495.808C156.08 495.621 155.806 495.36 155.651 495.024C155.496 494.688 155.419 494.299 155.419 493.856V489.352H154.075V487.728H155.499L156.083 485.232H157.747V487.72H159.587V489.352ZM162.967 492.4C162.962 492.821 163.028 493.189 163.167 493.504C163.306 493.813 163.506 494.053 163.767 494.224C164.034 494.389 164.354 494.472 164.727 494.472C165.127 494.472 165.476 494.387 165.775 494.216C166.079 494.045 166.29 493.765 166.407 493.376H168.511C168.42 493.963 168.186 494.464 167.807 494.88C167.434 495.296 166.98 495.613 166.447 495.832C165.914 496.051 165.359 496.16 164.783 496.16C163.967 496.16 163.247 495.989 162.623 495.648C162.004 495.301 161.522 494.813 161.175 494.184C160.828 493.555 160.655 492.813 160.655 491.96C160.655 491.133 160.812 490.389 161.127 489.728C161.442 489.061 161.898 488.536 162.495 488.152C163.098 487.763 163.82 487.568 164.663 487.568C165.506 487.568 166.212 487.747 166.783 488.104C167.359 488.456 167.791 488.949 168.079 489.584C168.372 490.213 168.519 490.941 168.519 491.768V492.4H162.967ZM162.959 491.008H166.335C166.335 490.677 166.274 490.373 166.151 490.096C166.028 489.819 165.842 489.6 165.591 489.44C165.346 489.28 165.036 489.2 164.663 489.2C164.3 489.2 163.991 489.288 163.735 489.464C163.484 489.635 163.292 489.859 163.159 490.136C163.026 490.413 162.959 490.704 162.959 491.008ZM172.924 496L177.068 484.432H179.532L183.668 496H181.34L180.396 493.32H176.236L175.268 496H172.924ZM176.756 491.28H179.836L178.308 486.688L176.756 491.28ZM188.388 487.568C189.081 487.568 189.678 487.709 190.18 487.992C190.686 488.275 191.084 488.656 191.372 489.136C191.665 489.616 191.833 490.152 191.876 490.744H189.932C189.894 490.525 189.817 490.309 189.7 490.096C189.582 489.877 189.417 489.699 189.204 489.56C188.99 489.416 188.724 489.344 188.404 489.344C187.86 489.344 187.417 489.555 187.076 489.976C186.74 490.392 186.572 491.027 186.572 491.88C186.572 492.685 186.737 493.325 187.068 493.8C187.398 494.269 187.86 494.504 188.452 494.504C188.766 494.504 189.028 494.427 189.236 494.272C189.449 494.117 189.614 493.933 189.732 493.72C189.849 493.501 189.924 493.299 189.956 493.112H191.852C191.814 493.683 191.649 494.2 191.356 494.664C191.062 495.123 190.662 495.488 190.156 495.76C189.654 496.027 189.065 496.16 188.388 496.16C187.62 496.16 186.934 495.989 186.332 495.648C185.729 495.307 185.254 494.819 184.908 494.184C184.566 493.544 184.396 492.781 184.396 491.896C184.396 491.043 184.561 490.291 184.892 489.64C185.222 488.989 185.686 488.483 186.284 488.12C186.886 487.752 187.588 487.568 188.388 487.568ZM197.028 487.568C197.722 487.568 198.319 487.709 198.82 487.992C199.327 488.275 199.724 488.656 200.012 489.136C200.306 489.616 200.474 490.152 200.516 490.744H198.572C198.535 490.525 198.458 490.309 198.34 490.096C198.223 489.877 198.058 489.699 197.844 489.56C197.631 489.416 197.364 489.344 197.044 489.344C196.5 489.344 196.058 489.555 195.716 489.976C195.38 490.392 195.212 491.027 195.212 491.88C195.212 492.685 195.378 493.325 195.708 493.8C196.039 494.269 196.5 494.504 197.092 494.504C197.407 494.504 197.668 494.427 197.876 494.272C198.09 494.117 198.255 493.933 198.372 493.72C198.49 493.501 198.564 493.299 198.596 493.112H200.492C200.455 493.683 200.29 494.2 199.996 494.664C199.703 495.123 199.303 495.488 198.796 495.76C198.295 496.027 197.706 496.16 197.028 496.16C196.26 496.16 195.575 495.989 194.972 495.648C194.37 495.307 193.895 494.819 193.548 494.184C193.207 493.544 193.036 492.781 193.036 491.896C193.036 491.043 193.202 490.291 193.532 489.64C193.863 488.989 194.327 488.483 194.924 488.12C195.527 487.752 196.228 487.568 197.028 487.568ZM205.677 496.16C204.866 496.16 204.16 495.987 203.557 495.64C202.96 495.293 202.496 494.803 202.165 494.168C201.84 493.533 201.677 492.781 201.677 491.912C201.677 491.043 201.84 490.283 202.165 489.632C202.496 488.981 202.96 488.475 203.557 488.112C204.16 487.749 204.869 487.568 205.685 487.568C206.501 487.568 207.208 487.747 207.805 488.104C208.402 488.456 208.864 488.957 209.189 489.608C209.514 490.259 209.677 491.027 209.677 491.912C209.677 492.744 209.517 493.48 209.197 494.12C208.882 494.755 208.426 495.253 207.829 495.616C207.237 495.979 206.52 496.16 205.677 496.16ZM205.685 494.424C206.096 494.424 206.426 494.304 206.677 494.064C206.928 493.824 207.109 493.509 207.221 493.12C207.338 492.725 207.397 492.296 207.397 491.832C207.397 491.395 207.344 490.981 207.237 490.592C207.136 490.203 206.96 489.888 206.709 489.648C206.458 489.408 206.117 489.288 205.685 489.288C205.274 489.288 204.941 489.403 204.685 489.632C204.434 489.856 204.25 490.163 204.133 490.552C204.016 490.936 203.957 491.363 203.957 491.832C203.957 492.264 204.01 492.68 204.117 493.08C204.224 493.475 204.402 493.797 204.653 494.048C204.904 494.299 205.248 494.424 205.685 494.424ZM214.189 496.16C213.805 496.16 213.426 496.101 213.053 495.984C212.685 495.867 212.349 495.693 212.045 495.464C211.741 495.235 211.495 494.952 211.309 494.616C211.127 494.28 211.037 493.891 211.037 493.448V487.728H213.373V493.152C213.373 493.536 213.498 493.851 213.749 494.096C213.999 494.341 214.367 494.464 214.853 494.464C215.311 494.464 215.674 494.347 215.941 494.112C216.213 493.872 216.349 493.539 216.349 493.112V487.728H218.661V496H216.901L216.629 494.36C216.533 494.845 216.351 495.219 216.085 495.48C215.823 495.736 215.522 495.912 215.181 496.008C214.845 496.109 214.514 496.16 214.189 496.16ZM220.609 496V487.728H222.905V488.896C223.033 488.693 223.199 488.499 223.401 488.312C223.609 488.12 223.871 487.963 224.185 487.84C224.5 487.717 224.873 487.656 225.305 487.656C225.812 487.656 226.284 487.755 226.721 487.952C227.164 488.149 227.521 488.461 227.793 488.888C228.065 489.309 228.201 489.861 228.201 490.544V496H225.865V490.832C225.865 490.384 225.732 490.048 225.465 489.824C225.199 489.6 224.873 489.488 224.489 489.488C224.233 489.488 223.985 489.533 223.745 489.624C223.511 489.715 223.319 489.851 223.169 490.032C223.02 490.213 222.945 490.437 222.945 490.704V496H220.609ZM234.774 489.352H232.934L232.95 493.76C232.95 493.963 232.974 494.115 233.022 494.216C233.076 494.312 233.156 494.376 233.262 494.408C233.374 494.435 233.516 494.448 233.686 494.448H234.798V495.888C234.692 495.936 234.524 495.981 234.294 496.024C234.07 496.067 233.756 496.088 233.35 496.088C232.625 496.088 232.062 495.995 231.662 495.808C231.268 495.621 230.993 495.36 230.838 495.024C230.684 494.688 230.606 494.299 230.606 493.856V489.352H229.262V487.728H230.686L231.27 485.232H232.934V487.72H234.774V489.352Z" fill="#3E3E3E"/>
<path d="M293 503C299.627 503 305 497.627 305 491C305 484.373 299.627 479 293 479C286.373 479 281 484.373 281 491C281 497.627 286.373 503 293 503Z" stroke="#3E3E3E" stroke-width="2" stroke-miterlimit="10"/>
<path d="M297 487L289 495" stroke="#3E3E3E" stroke-width="2" stroke-linecap="round" stroke-linejoin="round"/>
<path d="M297 495L289 487" stroke="#3E3E3E" stroke-width="2" stroke-linecap="round" stroke-linejoin="round"/>
<path d="M124.64 368.16C124.069 368.16 123.509 368.088 122.96 367.944C122.411 367.8 121.909 367.584 121.456 367.296C121.003 367.008 120.627 366.648 120.328 366.216C120.035 365.784 119.859 365.277 119.8 364.696H122.192C122.272 365.048 122.424 365.344 122.648 365.584C122.872 365.824 123.155 366.008 123.496 366.136C123.837 366.264 124.216 366.328 124.632 366.328C125.059 366.328 125.448 366.275 125.8 366.168C126.152 366.061 126.435 365.901 126.648 365.688C126.861 365.469 126.968 365.197 126.968 364.872C126.968 364.579 126.88 364.339 126.704 364.152C126.533 363.965 126.301 363.813 126.008 363.696C125.715 363.579 125.381 363.483 125.008 363.408L123.008 363C122.133 362.835 121.44 362.488 120.928 361.96C120.416 361.427 120.152 360.717 120.136 359.832C120.131 359.107 120.323 358.48 120.712 357.952C121.107 357.419 121.64 357.008 122.312 356.72C122.989 356.432 123.747 356.288 124.584 356.288C125.581 356.288 126.419 356.445 127.096 356.76C127.779 357.069 128.296 357.491 128.648 358.024C129.005 358.552 129.189 359.141 129.2 359.792H126.856C126.813 359.387 126.691 359.064 126.488 358.824C126.285 358.584 126.024 358.411 125.704 358.304C125.389 358.197 125.029 358.144 124.624 358.144C124.315 358.144 124.032 358.179 123.776 358.248C123.525 358.317 123.312 358.416 123.136 358.544C122.96 358.667 122.824 358.813 122.728 358.984C122.632 359.155 122.584 359.347 122.584 359.56C122.584 359.896 122.696 360.168 122.92 360.376C123.144 360.584 123.563 360.755 124.176 360.888L126.16 361.296C126.869 361.435 127.432 361.64 127.848 361.912C128.269 362.184 128.584 362.491 128.792 362.832C129.005 363.173 129.144 363.523 129.208 363.88C129.277 364.232 129.312 364.557 129.312 364.856C129.312 365.48 129.115 366.043 128.72 366.544C128.331 367.04 127.787 367.435 127.088 367.728C126.389 368.016 125.573 368.16 124.64 368.16ZM134.142 368.16C133.758 368.16 133.379 368.101 133.006 367.984C132.638 367.867 132.302 367.693 131.998 367.464C131.694 367.235 131.448 366.952 131.262 366.616C131.08 366.28 130.99 365.891 130.99 365.448V359.728H133.326V365.152C133.326 365.536 133.451 365.851 133.702 366.096C133.952 366.341 134.32 366.464 134.806 366.464C135.264 366.464 135.627 366.347 135.894 366.112C136.166 365.872 136.302 365.539 136.302 365.112V359.728H138.614V368H136.854L136.582 366.36C136.486 366.845 136.304 367.219 136.038 367.48C135.776 367.736 135.475 367.912 135.134 368.008C134.798 368.109 134.467 368.16 134.142 368.16ZM140.562 370.576V359.728H142.907L142.915 360.92C143.037 360.723 143.187 360.544 143.363 360.384C143.544 360.219 143.744 360.075 143.963 359.952C144.181 359.829 144.419 359.736 144.675 359.672C144.931 359.603 145.2 359.568 145.483 359.568C146.096 359.568 146.643 359.72 147.123 360.024C147.603 360.323 147.979 360.787 148.251 361.416C148.528 362.04 148.667 362.835 148.667 363.8C148.667 364.803 148.517 365.627 148.219 366.272C147.925 366.912 147.52 367.387 147.003 367.696C146.485 368.005 145.901 368.16 145.251 368.16C144.984 368.16 144.733 368.123 144.499 368.048C144.264 367.979 144.045 367.88 143.843 367.752C143.645 367.624 143.467 367.477 143.307 367.312C143.152 367.141 143.016 366.957 142.899 366.76V370.576H140.562ZM144.691 366.448C145.197 366.448 145.621 366.237 145.963 365.816C146.309 365.395 146.483 364.728 146.483 363.816C146.483 363.016 146.317 362.392 145.987 361.944C145.661 361.491 145.229 361.264 144.691 361.264C144.088 361.264 143.637 361.509 143.339 362C143.045 362.485 142.899 363.091 142.899 363.816C142.899 364.28 142.963 364.712 143.091 365.112C143.224 365.512 143.421 365.835 143.683 366.08C143.949 366.325 144.285 366.448 144.691 366.448ZM150.219 370.576V359.728H152.563L152.571 360.92C152.693 360.723 152.843 360.544 153.019 360.384C153.2 360.219 153.4 360.075 153.619 359.952C153.837 359.829 154.075 359.736 154.331 359.672C154.587 359.603 154.856 359.568 155.139 359.568C155.752 359.568 156.299 359.72 156.779 360.024C157.259 360.323 157.635 360.787 157.907 361.416C158.184 362.04 158.323 362.835 158.323 363.8C158.323 364.803 158.173 365.627 157.875 366.272C157.581 366.912 157.176 367.387 156.659 367.696C156.141 368.005 155.557 368.16 154.907 368.16C154.64 368.16 154.389 368.123 154.155 368.048C153.92 367.979 153.701 367.88 153.499 367.752C153.301 367.624 153.123 367.477 152.963 367.312C152.808 367.141 152.672 366.957 152.555 366.76V370.576H150.219ZM154.347 366.448C154.853 366.448 155.277 366.237 155.619 365.816C155.965 365.395 156.139 364.728 156.139 363.816C156.139 363.016 155.973 362.392 155.643 361.944C155.317 361.491 154.885 361.264 154.347 361.264C153.744 361.264 153.293 361.509 152.995 362C152.701 362.485 152.555 363.091 152.555 363.816C152.555 364.28 152.619 364.712 152.747 365.112C152.88 365.512 153.077 365.835 153.339 366.08C153.605 366.325 153.941 366.448 154.347 366.448ZM163.427 368.16C162.616 368.16 161.91 367.987 161.307 367.64C160.71 367.293 160.246 366.803 159.915 366.168C159.59 365.533 159.427 364.781 159.427 363.912C159.427 363.043 159.59 362.283 159.915 361.632C160.246 360.981 160.71 360.475 161.307 360.112C161.91 359.749 162.619 359.568 163.435 359.568C164.251 359.568 164.958 359.747 165.555 360.104C166.152 360.456 166.614 360.957 166.939 361.608C167.264 362.259 167.427 363.027 167.427 363.912C167.427 364.744 167.267 365.48 166.947 366.12C166.632 366.755 166.176 367.253 165.579 367.616C164.987 367.979 164.27 368.16 163.427 368.16ZM163.435 366.424C163.846 366.424 164.176 366.304 164.427 366.064C164.678 365.824 164.859 365.509 164.971 365.12C165.088 364.725 165.147 364.296 165.147 363.832C165.147 363.395 165.094 362.981 164.987 362.592C164.886 362.203 164.71 361.888 164.459 361.648C164.208 361.408 163.867 361.288 163.435 361.288C163.024 361.288 162.691 361.403 162.435 361.632C162.184 361.856 162 362.163 161.883 362.552C161.766 362.936 161.707 363.363 161.707 363.832C161.707 364.264 161.76 364.68 161.867 365.08C161.974 365.475 162.152 365.797 162.403 366.048C162.654 366.299 162.998 366.424 163.435 366.424ZM168.984 368V359.728H171.232V361.688C171.366 361.267 171.552 360.899 171.792 360.584C172.038 360.264 172.334 360.016 172.68 359.84C173.027 359.659 173.419 359.568 173.856 359.568C173.931 359.568 174 359.573 174.064 359.584C174.134 359.589 174.184 359.6 174.216 359.616V361.84C174.168 361.819 174.11 361.805 174.04 361.8C173.976 361.795 173.918 361.789 173.864 361.784C173.406 361.747 173.014 361.76 172.688 361.824C172.363 361.888 172.099 361.997 171.896 362.152C171.694 362.307 171.547 362.496 171.456 362.72C171.366 362.944 171.32 363.195 171.32 363.472V368H168.984ZM180.696 361.352H178.856L178.872 365.76C178.872 365.963 178.896 366.115 178.944 366.216C178.998 366.312 179.078 366.376 179.184 366.408C179.296 366.435 179.438 366.448 179.608 366.448H180.72V367.888C180.614 367.936 180.446 367.981 180.216 368.024C179.992 368.067 179.678 368.088 179.272 368.088C178.547 368.088 177.984 367.995 177.584 367.808C177.19 367.621 176.915 367.36 176.76 367.024C176.606 366.688 176.528 366.299 176.528 365.856V361.352H175.184V359.728H176.608L177.192 357.232H178.856V359.72H180.696V361.352Z" fill="#3E3E3E"/>
<path d="M293 375C299.627 375 305 369.627 305 363C305 356.373 299.627 351 293 351C286.373 351 281 356.373 281 363C281 369.627 286.373 375 293 375Z" stroke="#3E3E3E" stroke-width="2" stroke-linecap="round" stroke-linejoin="round"/>
<path d="M292 362H293V369H294" stroke="#3E3E3E" stroke-width="2" stroke-linecap="round" stroke-linejoin="round"/>
<path d="M292.75 359C293.578 359 294.25 358.328 294.25 357.5C294.25 356.672 293.578 356 292.75 356C291.922 356 291.25 356.672 291.25 357.5C291.25 358.328 291.922 359 292.75 359Z" fill="#3E3E3E"/>
<path d="M127.888 420.432H130.224V432H128.12L122.624 424.04V432H120.296V420.432H122.608L127.888 428.088V420.432ZM135.849 432.16C135.038 432.16 134.332 431.987 133.729 431.64C133.132 431.293 132.668 430.803 132.337 430.168C132.012 429.533 131.849 428.781 131.849 427.912C131.849 427.043 132.012 426.283 132.337 425.632C132.668 424.981 133.132 424.475 133.729 424.112C134.332 423.749 135.041 423.568 135.857 423.568C136.673 423.568 137.38 423.747 137.977 424.104C138.574 424.456 139.036 424.957 139.361 425.608C139.686 426.259 139.849 427.027 139.849 427.912C139.849 428.744 139.689 429.48 139.369 430.12C139.054 430.755 138.598 431.253 138.001 431.616C137.409 431.979 136.692 432.16 135.849 432.16ZM135.857 430.424C136.268 430.424 136.598 430.304 136.849 430.064C137.1 429.824 137.281 429.509 137.393 429.12C137.51 428.725 137.569 428.296 137.569 427.832C137.569 427.395 137.516 426.981 137.409 426.592C137.308 426.203 137.132 425.888 136.881 425.648C136.63 425.408 136.289 425.288 135.857 425.288C135.446 425.288 135.113 425.403 134.857 425.632C134.606 425.856 134.422 426.163 134.305 426.552C134.188 426.936 134.129 427.363 134.129 427.832C134.129 428.264 134.182 428.68 134.289 429.08C134.396 429.475 134.574 429.797 134.825 430.048C135.076 430.299 135.42 430.424 135.857 430.424ZM146.181 425.352H144.341L144.357 429.76C144.357 429.963 144.381 430.115 144.429 430.216C144.482 430.312 144.562 430.376 144.669 430.408C144.781 430.435 144.922 430.448 145.093 430.448H146.205V431.888C146.098 431.936 145.93 431.981 145.701 432.024C145.477 432.067 145.162 432.088 144.757 432.088C144.031 432.088 143.469 431.995 143.069 431.808C142.674 431.621 142.399 431.36 142.245 431.024C142.09 430.688 142.013 430.299 142.013 429.856V425.352H140.669V423.728H142.093L142.677 421.232H144.341V423.72H146.181V425.352ZM150.258 423.728V432H148.026V423.728H150.258ZM150.282 420.44V422.544H148.01V420.44H150.282ZM157.423 423.728V425.352H155.679V432H153.343V425.352H151.815V423.728H153.343V422.536C153.343 421.869 153.538 421.352 153.927 420.984C154.322 420.616 154.879 420.432 155.599 420.432H157.495L157.503 421.984H156.415C156.116 421.984 155.911 422.059 155.799 422.208C155.692 422.352 155.639 422.592 155.639 422.928V423.728H157.423ZM161.143 423.728V432H158.911V423.728H161.143ZM161.167 420.44V422.544H158.895V420.44H161.167ZM166.81 423.568C167.503 423.568 168.1 423.709 168.602 423.992C169.108 424.275 169.506 424.656 169.794 425.136C170.087 425.616 170.255 426.152 170.298 426.744H168.354C168.316 426.525 168.239 426.309 168.122 426.096C168.004 425.877 167.839 425.699 167.626 425.56C167.412 425.416 167.146 425.344 166.826 425.344C166.282 425.344 165.839 425.555 165.498 425.976C165.162 426.392 164.994 427.027 164.994 427.88C164.994 428.685 165.159 429.325 165.49 429.8C165.82 430.269 166.282 430.504 166.874 430.504C167.188 430.504 167.45 430.427 167.658 430.272C167.871 430.117 168.036 429.933 168.154 429.72C168.271 429.501 168.346 429.299 168.378 429.112H170.274C170.236 429.683 170.071 430.2 169.778 430.664C169.484 431.123 169.084 431.488 168.578 431.76C168.076 432.027 167.487 432.16 166.81 432.16C166.042 432.16 165.356 431.989 164.754 431.648C164.151 431.307 163.676 430.819 163.33 430.184C162.988 429.544 162.818 428.781 162.818 427.896C162.818 427.043 162.983 426.291 163.314 425.64C163.644 424.989 164.108 424.483 164.706 424.12C165.308 423.752 166.01 423.568 166.81 423.568ZM174.259 432.16C173.731 432.16 173.257 432.061 172.835 431.864C172.414 431.667 172.081 431.381 171.835 431.008C171.59 430.629 171.467 430.171 171.467 429.632C171.467 428.725 171.806 428.037 172.483 427.568C173.161 427.093 174.23 426.848 175.691 426.832L176.723 426.816V426.32C176.723 425.941 176.611 425.651 176.387 425.448C176.169 425.24 175.827 425.139 175.363 425.144C175.022 425.149 174.697 425.229 174.387 425.384C174.083 425.539 173.875 425.808 173.763 426.192H171.819C171.851 425.595 172.025 425.104 172.339 424.72C172.654 424.331 173.081 424.043 173.619 423.856C174.163 423.664 174.779 423.568 175.467 423.568C176.315 423.568 176.995 423.675 177.507 423.888C178.019 424.096 178.39 424.397 178.619 424.792C178.849 425.181 178.963 425.645 178.963 426.184V432H177.011L176.819 430.576C176.537 431.173 176.182 431.587 175.755 431.816C175.334 432.045 174.835 432.16 174.259 432.16ZM175.043 430.624C175.257 430.624 175.462 430.587 175.659 430.512C175.862 430.432 176.041 430.328 176.195 430.2C176.355 430.067 176.483 429.917 176.579 429.752C176.675 429.587 176.723 429.416 176.723 429.24V428.016L175.883 428.032C175.494 428.037 175.131 428.085 174.795 428.176C174.459 428.261 174.187 428.403 173.979 428.6C173.777 428.797 173.675 429.064 173.675 429.4C173.675 429.784 173.809 430.085 174.075 430.304C174.342 430.517 174.665 430.624 175.043 430.624ZM185.712 425.352H183.872L183.888 429.76C183.888 429.963 183.912 430.115 183.96 430.216C184.013 430.312 184.093 430.376 184.2 430.408C184.312 430.435 184.453 430.448 184.624 430.448H185.736V431.888C185.629 431.936 185.461 431.981 185.232 432.024C185.008 432.067 184.693 432.088 184.288 432.088C183.563 432.088 183 431.995 182.6 431.808C182.205 431.621 181.931 431.36 181.776 431.024C181.621 430.688 181.544 430.299 181.544 429.856V425.352H180.2V423.728H181.624L182.208 421.232H183.872V423.72H185.712V425.352ZM189.79 423.728V432H187.558V423.728H189.79ZM189.814 420.44V422.544H187.542V420.44H189.814ZM195.458 432.16C194.648 432.16 193.941 431.987 193.338 431.64C192.741 431.293 192.277 430.803 191.946 430.168C191.621 429.533 191.458 428.781 191.458 427.912C191.458 427.043 191.621 426.283 191.946 425.632C192.277 424.981 192.741 424.475 193.338 424.112C193.941 423.749 194.65 423.568 195.466 423.568C196.282 423.568 196.989 423.747 197.586 424.104C198.184 424.456 198.645 424.957 198.97 425.608C199.296 426.259 199.458 427.027 199.458 427.912C199.458 428.744 199.298 429.48 198.978 430.12C198.664 430.755 198.208 431.253 197.61 431.616C197.018 431.979 196.301 432.16 195.458 432.16ZM195.466 430.424C195.877 430.424 196.208 430.304 196.458 430.064C196.709 429.824 196.89 429.509 197.002 429.12C197.12 428.725 197.178 428.296 197.178 427.832C197.178 427.395 197.125 426.981 197.018 426.592C196.917 426.203 196.741 425.888 196.49 425.648C196.24 425.408 195.898 425.288 195.466 425.288C195.056 425.288 194.722 425.403 194.466 425.632C194.216 425.856 194.032 426.163 193.914 426.552C193.797 426.936 193.738 427.363 193.738 427.832C193.738 428.264 193.792 428.68 193.898 429.08C194.005 429.475 194.184 429.797 194.434 430.048C194.685 430.299 195.029 430.424 195.466 430.424ZM201.016 432V423.728H203.312V424.896C203.44 424.693 203.605 424.499 203.808 424.312C204.016 424.12 204.277 423.963 204.592 423.84C204.906 423.717 205.28 423.656 205.712 423.656C206.218 423.656 206.69 423.755 207.128 423.952C207.57 424.149 207.928 424.461 208.2 424.888C208.472 425.309 208.608 425.861 208.608 426.544V432H206.272V426.832C206.272 426.384 206.138 426.048 205.872 425.824C205.605 425.6 205.28 425.488 204.896 425.488C204.64 425.488 204.392 425.533 204.152 425.624C203.917 425.715 203.725 425.851 203.576 426.032C203.426 426.213 203.352 426.437 203.352 426.704V432H201.016ZM213.678 432.16C213.102 432.16 212.548 432.067 212.014 431.88C211.481 431.688 211.03 431.389 210.662 430.984C210.294 430.573 210.06 430.043 209.958 429.392H211.982C212.052 429.685 212.177 429.917 212.358 430.088C212.545 430.259 212.756 430.381 212.99 430.456C213.225 430.525 213.449 430.56 213.662 430.56C214.11 430.56 214.47 430.491 214.742 430.352C215.02 430.208 215.158 429.989 215.158 429.696C215.158 429.472 215.076 429.293 214.91 429.16C214.75 429.027 214.484 428.925 214.11 428.856L212.654 428.552C211.924 428.397 211.337 428.136 210.894 427.768C210.452 427.395 210.225 426.867 210.214 426.184C210.214 425.688 210.345 425.243 210.606 424.848C210.873 424.453 211.265 424.141 211.782 423.912C212.3 423.683 212.934 423.568 213.686 423.568C214.705 423.568 215.518 423.792 216.126 424.24C216.74 424.688 217.052 425.32 217.062 426.136H215.11C215.052 425.816 214.892 425.571 214.63 425.4C214.374 425.224 214.052 425.136 213.662 425.136C213.257 425.136 212.924 425.208 212.662 425.352C212.401 425.496 212.27 425.715 212.27 426.008C212.27 426.227 212.377 426.4 212.59 426.528C212.804 426.651 213.134 426.757 213.582 426.848L214.926 427.152C215.39 427.264 215.766 427.419 216.054 427.616C216.348 427.808 216.574 428.019 216.734 428.248C216.894 428.477 217.004 428.709 217.062 428.944C217.126 429.173 217.158 429.381 217.158 429.568C217.158 430.117 217.012 430.587 216.718 430.976C216.425 431.36 216.017 431.653 215.494 431.856C214.972 432.059 214.366 432.16 213.678 432.16Z" fill="#3E3E3E"/>
<path d="M284.025 424C284.024 422.814 284.257 421.64 284.711 420.545C285.165 419.45 285.831 418.456 286.671 417.619C287.511 416.782 288.508 416.12 289.605 415.671C290.702 415.221 291.877 414.993 293.063 415C298.013 415.038 301.975 419.15 301.975 424.113V425C301.975 429.475 302.913 432.075 303.738 433.5C303.826 433.652 303.872 433.824 303.872 433.999C303.872 434.174 303.826 434.347 303.739 434.498C303.651 434.65 303.526 434.777 303.374 434.865C303.223 434.953 303.051 434.999 302.875 435H283.125C282.95 434.999 282.778 434.953 282.627 434.865C282.475 434.777 282.349 434.65 282.262 434.498C282.175 434.347 282.129 434.174 282.129 433.999C282.129 433.824 282.175 433.652 282.263 433.5C283.088 432.075 284.025 429.475 284.025 425V424Z" stroke="#3E3E3E" stroke-width="2" stroke-linecap="round" stroke-linejoin="round"/>
<path d="M289 435V436C289 437.061 289.421 438.078 290.172 438.828C290.922 439.579 291.939 440 293 440C294.061 440 295.078 439.579 295.828 438.828C296.579 438.078 297 437.061 297 436V435" stroke="#3E3E3E" stroke-width="2" stroke-linecap="round" stroke-linejoin="round"/>
<defs>
<filter id="filter0_d_520_1033" x="77.5" y="820.5" width="279" height="71" filterUnits="userSpaceOnUse" color-interpolation-filters="sRGB">
<feFlood flood-opacity="0" result="BackgroundImageFix"/>
<feColorMatrix in="SourceAlpha" type="matrix" values="0 0 0 0 0 0 0 0 0 0 0 0 0 0 0 0 0 0 127 0" result="hardAlpha"/>
<feOffset dx="3" dy="4"/>
<feGaussianBlur stdDeviation="3.75"/>
<feComposite in2="hardAlpha" operator="out"/>
<feColorMatrix type="matrix" values="0 0 0 0 0.529412 0 0 0 0 0.462745 0 0 0 0 0.341176 0 0 0 0.3 0"/>
<feBlend mode="normal" in2="BackgroundImageFix" result="effect1_dropShadow_520_1033"/>
<feBlend mode="normal" in="SourceGraphic" in2="effect1_dropShadow_520_1033" result="shape"/>
</filter>
<clipPath id="clip0_520_1033">
<rect width="119" height="119" fill="white" transform="translate(155 22)"/>
</clipPath>
</defs>
</svg>
