<svg width="428" height="926" viewBox="0 0 428 926" fill="none" xmlns="http://www.w3.org/2000/svg">
<rect width="428" height="926" fill="#F8F2E9"/>
<g clip-path="url(#clip0_520_2346)">
<path d="M240.646 92.0177C240.549 91.6317 240.501 91.2208 240.501 90.785C240.501 89.1542 241.237 87.7352 242.71 86.5279C244.183 85.3207 247.195 83.8385 251.746 82.0814V80.7351C251.746 79.3192 251.565 78.3047 251.205 77.6916C250.845 77.0785 250.254 76.7719 249.432 76.7719C248.762 76.7719 248.206 76.971 247.764 77.3692C247.321 77.7674 247.1 78.2636 247.1 78.8578C247.1 79.1738 247.113 79.5436 247.138 79.9671C247.163 80.3905 247.176 80.6592 247.176 80.773C247.176 81.6958 246.92 82.4384 246.408 83.001C245.896 83.5636 245.216 83.8448 244.369 83.8448C243.598 83.8448 242.979 83.6015 242.511 83.1148C242.043 82.628 241.809 81.9865 241.809 81.1902C241.809 79.4709 242.625 78.0456 244.256 76.9141C245.886 75.7827 247.985 75.217 250.551 75.217C251.992 75.217 253.297 75.4004 254.467 75.767C255.636 76.1336 256.594 76.6645 257.339 77.3598C257.946 77.9286 258.376 78.5923 258.629 79.3508C258.882 80.1092 259.008 81.2533 259.008 82.783V88.1871C259.008 89.6914 259.125 90.7597 259.359 91.3917C259.593 92.0238 259.969 92.3399 260.487 92.3399C260.601 92.3399 260.715 92.3146 260.828 92.264C260.942 92.2134 261.062 92.1377 261.189 92.0364V93.269C260.683 93.9137 260.029 94.413 259.226 94.767C258.423 95.121 257.535 95.298 256.562 95.298C255.45 95.298 254.517 95.0389 253.765 94.5205C253.013 94.0022 252.46 93.2375 252.106 92.2262C251.145 93.326 250.137 94.1445 249.081 94.6817C248.026 95.2189 246.91 95.4876 245.735 95.4876C244.18 95.4876 242.919 95.0483 241.952 94.1697C241.629 93.8766 241.36 93.5556 241.145 93.2066C240.384 93.8039 239.157 94.4941 238.538 94.767C237.736 95.121 236.848 95.298 235.874 95.298C234.762 95.298 233.829 95.0389 233.077 94.5205C232.325 94.0022 231.772 93.2375 231.418 92.2262C230.457 93.326 229.449 94.1445 228.394 94.6817C227.338 95.2189 226.223 95.4876 225.047 95.4876C223.492 95.4876 222.231 95.0483 221.264 94.1697C220.297 93.2911 219.813 92.1629 219.813 90.785C219.813 89.1542 220.55 87.7352 222.022 86.5279C223.495 85.3207 226.507 83.8385 231.058 82.0814V80.7351C231.058 79.3192 230.878 78.3047 230.517 77.6916C230.157 77.0785 229.566 76.7719 228.744 76.7719C228.075 76.7719 227.518 76.971 227.076 77.3692C226.633 77.7674 226.412 78.2636 226.412 78.8578C226.412 79.1738 226.425 79.5436 226.45 79.9671C226.475 80.3905 226.488 80.6592 226.488 80.773C226.488 81.6958 226.232 82.4384 225.72 83.001C225.208 83.5636 224.529 83.8448 223.682 83.8448C222.91 83.8448 222.291 83.6015 221.823 83.1148C221.356 82.628 221.122 81.9865 221.122 81.1902C221.122 79.4709 221.937 78.0456 223.568 76.9141C225.199 75.7827 227.297 75.217 229.863 75.217C231.304 75.217 232.61 75.4004 233.779 75.767C234.948 76.1336 235.906 76.6645 236.652 77.3598C237.258 77.9286 237.688 78.5923 237.941 79.3508C238.194 80.1092 238.32 81.2533 238.32 82.783V88.1871C238.32 89.6914 238.437 90.7597 238.671 91.3917C238.905 92.0238 239.281 92.3399 239.799 92.3399C239.913 92.3399 240.027 92.3146 240.141 92.264C240.194 92.2404 240.414 92.1343 240.646 92.0177ZM182.778 94.6723L178.246 85.6652V90.8229C178.246 91.8215 178.423 92.5327 178.777 92.9562C179.131 93.3796 179.731 93.5913 180.578 93.5913H180.692V94.6723H168.499V93.5913H168.613C169.448 93.5913 170.045 93.3796 170.405 92.9562C170.765 92.5327 170.946 91.8215 170.946 90.8229V75.2549C170.946 74.6734 170.879 74.2532 170.746 73.9941C170.614 73.7348 170.313 73.4156 169.846 73.0364L167.798 71.3678C168.683 71.1023 169.915 70.6788 171.495 70.0972C173.076 69.5158 175.326 68.6562 178.246 67.5184V84.6222C179.902 83.3454 181.15 82.1919 181.991 81.1616C182.832 80.1314 183.252 79.2371 183.252 78.4786C183.252 78.074 183.097 77.7516 182.787 77.5115C182.478 77.2713 182.051 77.1512 181.507 77.1512H181.394V76.0704H191.254V77.1512H190.932C189.63 77.1512 188.403 77.4925 187.253 78.1751C186.103 78.8578 184.921 79.9449 183.707 81.4367L189.149 90.747C189.743 91.7837 190.319 92.5043 190.875 92.9087C191.429 93.312 192.122 93.5394 192.953 93.5909C193.752 93.5796 194.326 93.3681 194.677 92.9562C195.037 92.5327 195.217 91.8215 195.217 90.8229V82.783C195.217 82.2015 195.154 81.7811 195.027 81.522C194.901 81.2629 194.604 80.95 194.136 80.5833L192.069 78.9147C193.574 78.4343 195.198 77.8718 196.943 77.227C198.687 76.5823 200.545 75.8618 202.518 75.0653V90.8229C202.518 91.7963 202.691 92.4947 203.039 92.9182C203.387 93.3416 203.965 93.5661 204.774 93.5913H204.811C205.645 93.5913 206.243 93.3796 206.603 92.9562C206.963 92.5327 207.143 91.8215 207.143 90.8229V83.6742C207.143 83.0673 207.067 82.6186 206.916 82.3279C206.764 82.0371 206.48 81.7526 206.063 81.4745L203.692 79.8059C204.931 79.376 206.36 78.7851 207.978 78.0329C209.596 77.2807 211.58 76.2916 213.932 75.0653V78.4027C214.564 77.3408 215.25 76.5445 215.989 76.0135C216.729 75.4825 217.522 75.217 218.369 75.217C219.304 75.217 220.057 75.4951 220.625 76.0514C221.194 76.6076 221.479 77.3408 221.479 78.251C221.479 79.0474 221.242 79.6858 220.768 80.1661C220.294 80.6466 219.665 80.8867 218.881 80.8867C218.173 80.8867 217.494 80.6023 216.842 80.0334C216.191 79.4645 215.777 79.1802 215.6 79.1802C215.183 79.1802 214.886 79.4583 214.709 80.0145C214.532 80.5707 214.444 81.563 214.444 82.9916V90.8229C214.444 91.8089 214.643 92.5169 215.041 92.9466C215.439 93.3765 216.093 93.5913 217.004 93.5913H217.117V94.6723H182.778ZM251.746 83.4845C250.608 83.9396 249.742 84.657 249.148 85.6367C248.554 86.6164 248.257 87.8143 248.257 89.2301C248.257 90.0392 248.418 90.6839 248.74 91.1642C249.062 91.6446 249.483 91.8848 250.001 91.8848C250.671 91.8848 251.129 91.6193 251.376 91.0883C251.622 90.5574 251.746 89.2301 251.746 87.1063V83.4845ZM231.058 83.4845C229.92 83.9396 229.054 84.657 228.46 85.6367C227.866 86.6164 227.569 87.8143 227.569 89.2301C227.569 90.0392 227.73 90.6839 228.052 91.1642C228.375 91.6446 228.795 91.8848 229.313 91.8848C229.983 91.8848 230.442 91.6193 230.688 91.0883C230.935 90.5574 231.058 89.2301 231.058 87.1063V83.4845ZM194.705 71.3298C194.705 70.268 195.075 69.3672 195.814 68.6277C196.554 67.8882 197.455 67.5184 198.517 67.5184C199.591 67.5184 200.495 67.8882 201.228 68.6277C201.961 69.3672 202.328 70.268 202.328 71.3298C202.328 72.3917 201.958 73.2923 201.219 74.0319C200.479 74.7714 199.578 75.1412 198.517 75.1412C197.455 75.1412 196.554 74.7746 195.814 74.0414C195.075 73.3082 194.705 72.4043 194.705 71.3298Z" fill="#3E3E3E"/>
</g>
<g filter="url(#filter0_d_520_2346)">
<rect x="82" y="824" width="264" height="56" rx="28" fill="#F8F2E9" shape-rendering="crispEdges"/>
<path d="M121 862V856C121 855.735 120.895 855.48 120.707 855.293C120.52 855.105 120.265 855 120 855H116C115.735 855 115.48 855.105 115.293 855.293C115.105 855.48 115 855.735 115 856V862C115 862.265 114.895 862.52 114.707 862.707C114.52 862.895 114.265 863 114 863H108C107.735 863 107.48 862.895 107.293 862.707C107.105 862.52 107 862.265 107 862V850.437C107.002 850.299 107.032 850.163 107.088 850.036C107.144 849.909 107.224 849.795 107.325 849.7L117.325 840.612C117.509 840.444 117.75 840.35 118 840.35C118.25 840.35 118.491 840.444 118.675 840.612L128.675 849.7C128.776 849.795 128.856 849.909 128.912 850.036C128.968 850.163 128.998 850.299 129 850.437V862C129 862.265 128.895 862.52 128.707 862.707C128.52 862.895 128.265 863 128 863H122C121.735 863 121.48 862.895 121.293 862.707C121.105 862.52 121 862.265 121 862Z" stroke="#4A4A4A" stroke-width="2" stroke-linecap="round" stroke-linejoin="round"/>
<path d="M178 845C178 843.939 178.421 842.922 179.172 842.172C179.922 841.421 180.939 841 182 841C183.061 841 184.078 841.421 184.828 842.172C185.579 842.922 186 843.939 186 845L168.4 858.2C168.232 858.326 168.108 858.501 168.045 858.702C167.983 858.902 167.985 859.117 168.051 859.316C168.118 859.515 168.245 859.689 168.415 859.811C168.586 859.934 168.79 860 169 860H195C195.21 860 195.414 859.934 195.585 859.811C195.755 859.689 195.882 859.515 195.949 859.316C196.015 859.117 196.017 858.902 195.955 858.702C195.892 858.501 195.768 858.326 195.6 858.2L182 848" stroke="#4A4A4A" stroke-width="2" stroke-linecap="round" stroke-linejoin="round"/>
<path d="M246 856C250.418 856 254 852.418 254 848C254 843.582 250.418 840 246 840C241.582 840 238 843.582 238 848C238 852.418 241.582 856 246 856Z" stroke="#4A4A4A" stroke-width="2" stroke-miterlimit="10"/>
<path d="M233.875 863C235.104 860.871 236.871 859.104 238.999 857.875C241.128 856.646 243.542 855.999 246 855.999C248.458 855.999 250.872 856.646 253.001 857.875C255.129 859.104 256.896 860.871 258.125 863" stroke="#4A4A4A" stroke-width="2" stroke-linecap="round" stroke-linejoin="round"/>
<path d="M305.955 841.143L306.938 838.606C307.103 838.176 307.395 837.807 307.774 837.546C308.154 837.285 308.603 837.144 309.063 837.143H310.938C311.398 837.144 311.847 837.285 312.227 837.546C312.606 837.807 312.897 838.176 313.063 838.606L314.046 841.143L317.383 843.063L320.08 842.651C320.529 842.59 320.987 842.664 321.394 842.864C321.801 843.063 322.139 843.379 322.366 843.771L323.28 845.371C323.515 845.77 323.623 846.23 323.59 846.691C323.557 847.152 323.386 847.593 323.098 847.954L321.429 850.08V853.92L323.143 856.046C323.431 856.407 323.603 856.848 323.636 857.309C323.668 857.77 323.56 858.23 323.326 858.629L322.412 860.229C322.185 860.621 321.846 860.937 321.439 861.136C321.032 861.336 320.575 861.409 320.126 861.349L317.429 860.937L314.092 862.857L313.109 865.394C312.943 865.824 312.652 866.193 312.272 866.454C311.893 866.715 311.444 866.856 310.983 866.857H309.063C308.603 866.856 308.154 866.715 307.774 866.454C307.395 866.193 307.103 865.824 306.938 865.394L305.955 862.857L302.618 860.937L299.92 861.349C299.471 861.409 299.014 861.336 298.607 861.136C298.2 860.937 297.862 860.621 297.635 860.229L296.72 858.629C296.486 858.23 296.378 857.77 296.411 857.309C296.443 856.848 296.615 856.407 296.903 856.046L298.572 853.92V850.08L296.858 847.954C296.569 847.593 296.398 847.152 296.365 846.691C296.332 846.23 296.44 845.77 296.675 845.371L297.589 843.771C297.816 843.379 298.154 843.063 298.561 842.864C298.968 842.664 299.426 842.59 299.875 842.651L302.572 843.063L305.955 841.143ZM305.429 852C305.429 852.904 305.697 853.788 306.199 854.54C306.702 855.291 307.416 855.877 308.251 856.223C309.086 856.569 310.005 856.66 310.892 856.484C311.779 856.307 312.594 855.872 313.233 855.232C313.872 854.593 314.308 853.779 314.484 852.892C314.66 852.005 314.57 851.086 314.224 850.251C313.878 849.415 313.292 848.701 312.54 848.199C311.788 847.697 310.905 847.429 310 847.429C308.788 847.429 307.625 847.91 306.768 848.767C305.911 849.625 305.429 850.788 305.429 852Z" fill="#3E3E3E"/>
</g>
<path d="M381 116H359C358.448 116 358 116.448 358 117V135C358 135.552 358.448 136 359 136H381C381.552 136 382 135.552 382 135V117C382 116.448 381.552 116 381 116Z" stroke="#3E3E3E" stroke-width="2" stroke-linecap="round" stroke-linejoin="round"/>
<path d="M375 121C375 122.326 374.473 123.598 373.536 124.536C372.598 125.473 371.326 126 370 126C368.674 126 367.402 125.473 366.464 124.536C365.527 123.598 365 122.326 365 121" stroke="#3E3E3E" stroke-width="2" stroke-linecap="round" stroke-linejoin="round"/>
<path d="M56.6188 195.238L51 189.619L56.6188 184" stroke="#3E3E3E" stroke-width="2.65192" stroke-linecap="round" stroke-linejoin="round"/>
<path d="M51 189.619H64.2596" stroke="#3E3E3E" stroke-width="2.65192" stroke-linecap="round" stroke-linejoin="round"/>
<path d="M163.11 207.54H166.03V222H163.4L156.53 212.05V222H153.62V207.54H156.51L163.11 217.11V207.54ZM173.061 222.2C172.048 222.2 171.164 221.983 170.411 221.55C169.664 221.117 169.084 220.503 168.671 219.71C168.264 218.917 168.061 217.977 168.061 216.89C168.061 215.803 168.264 214.853 168.671 214.04C169.084 213.227 169.664 212.593 170.411 212.14C171.164 211.687 172.051 211.46 173.071 211.46C174.091 211.46 174.974 211.683 175.721 212.13C176.468 212.57 177.044 213.197 177.451 214.01C177.858 214.823 178.061 215.783 178.061 216.89C178.061 217.93 177.861 218.85 177.461 219.65C177.068 220.443 176.498 221.067 175.751 221.52C175.011 221.973 174.114 222.2 173.061 222.2ZM173.071 220.03C173.584 220.03 173.998 219.88 174.311 219.58C174.624 219.28 174.851 218.887 174.991 218.4C175.138 217.907 175.211 217.37 175.211 216.79C175.211 216.243 175.144 215.727 175.011 215.24C174.884 214.753 174.664 214.36 174.351 214.06C174.038 213.76 173.611 213.61 173.071 213.61C172.558 213.61 172.141 213.753 171.821 214.04C171.508 214.32 171.278 214.703 171.131 215.19C170.984 215.67 170.911 216.203 170.911 216.79C170.911 217.33 170.978 217.85 171.111 218.35C171.244 218.843 171.468 219.247 171.781 219.56C172.094 219.873 172.524 220.03 173.071 220.03ZM185.976 213.69H183.676L183.696 219.2C183.696 219.453 183.726 219.643 183.786 219.77C183.852 219.89 183.952 219.97 184.086 220.01C184.226 220.043 184.402 220.06 184.616 220.06H186.006V221.86C185.872 221.92 185.662 221.977 185.376 222.03C185.096 222.083 184.702 222.11 184.196 222.11C183.289 222.11 182.586 221.993 182.086 221.76C181.592 221.527 181.249 221.2 181.056 220.78C180.862 220.36 180.766 219.873 180.766 219.32V213.69H179.086V211.66H180.866L181.596 208.54H183.676V211.65H185.976V213.69ZM191.073 211.66V222H188.283V211.66H191.073ZM191.103 207.55V210.18H188.263V207.55H191.103ZM200.029 211.66V213.69H197.849V222H194.929V213.69H193.019V211.66H194.929V210.17C194.929 209.337 195.172 208.69 195.659 208.23C196.152 207.77 196.849 207.54 197.749 207.54H200.119L200.129 209.48H198.769C198.395 209.48 198.139 209.573 197.999 209.76C197.865 209.94 197.799 210.24 197.799 210.66V211.66H200.029ZM204.679 211.66V222H201.889V211.66H204.679ZM204.709 207.55V210.18H201.869V207.55H204.709ZM211.762 211.46C212.629 211.46 213.375 211.637 214.002 211.99C214.635 212.343 215.132 212.82 215.492 213.42C215.859 214.02 216.069 214.69 216.122 215.43H213.692C213.645 215.157 213.549 214.887 213.402 214.62C213.255 214.347 213.049 214.123 212.782 213.95C212.515 213.77 212.182 213.68 211.782 213.68C211.102 213.68 210.549 213.943 210.122 214.47C209.702 214.99 209.492 215.783 209.492 216.85C209.492 217.857 209.699 218.657 210.112 219.25C210.525 219.837 211.102 220.13 211.842 220.13C212.235 220.13 212.562 220.033 212.822 219.84C213.089 219.647 213.295 219.417 213.442 219.15C213.589 218.877 213.682 218.623 213.722 218.39H216.092C216.045 219.103 215.839 219.75 215.472 220.33C215.105 220.903 214.605 221.36 213.972 221.7C213.345 222.033 212.609 222.2 211.762 222.2C210.802 222.2 209.945 221.987 209.192 221.56C208.439 221.133 207.845 220.523 207.412 219.73C206.985 218.93 206.772 217.977 206.772 216.87C206.772 215.803 206.979 214.863 207.392 214.05C207.805 213.237 208.385 212.603 209.132 212.15C209.885 211.69 210.762 211.46 211.762 211.46ZM221.074 222.2C220.414 222.2 219.821 222.077 219.294 221.83C218.768 221.583 218.351 221.227 218.044 220.76C217.738 220.287 217.584 219.713 217.584 219.04C217.584 217.907 218.008 217.047 218.854 216.46C219.701 215.867 221.038 215.56 222.864 215.54L224.154 215.52V214.9C224.154 214.427 224.014 214.063 223.734 213.81C223.461 213.55 223.034 213.423 222.454 213.43C222.028 213.437 221.621 213.537 221.234 213.73C220.854 213.923 220.594 214.26 220.454 214.74H218.024C218.064 213.993 218.281 213.38 218.674 212.9C219.068 212.413 219.601 212.053 220.274 211.82C220.954 211.58 221.724 211.46 222.584 211.46C223.644 211.46 224.494 211.593 225.134 211.86C225.774 212.12 226.238 212.497 226.524 212.99C226.811 213.477 226.954 214.057 226.954 214.73V222H224.514L224.274 220.22C223.921 220.967 223.478 221.483 222.944 221.77C222.418 222.057 221.794 222.2 221.074 222.2ZM222.054 220.28C222.321 220.28 222.578 220.233 222.824 220.14C223.078 220.04 223.301 219.91 223.494 219.75C223.694 219.583 223.854 219.397 223.974 219.19C224.094 218.983 224.154 218.77 224.154 218.55V217.02L223.104 217.04C222.618 217.047 222.164 217.107 221.744 217.22C221.324 217.327 220.984 217.503 220.724 217.75C220.471 217.997 220.344 218.33 220.344 218.75C220.344 219.23 220.511 219.607 220.844 219.88C221.178 220.147 221.581 220.28 222.054 220.28ZM235.39 213.69H233.09L233.11 219.2C233.11 219.453 233.14 219.643 233.2 219.77C233.267 219.89 233.367 219.97 233.5 220.01C233.64 220.043 233.817 220.06 234.03 220.06H235.42V221.86C235.287 221.92 235.077 221.977 234.79 222.03C234.51 222.083 234.117 222.11 233.61 222.11C232.703 222.11 232 221.993 231.5 221.76C231.007 221.527 230.663 221.2 230.47 220.78C230.277 220.36 230.18 219.873 230.18 219.32V213.69H228.5V211.66H230.28L231.01 208.54H233.09V211.65H235.39V213.69ZM240.487 211.66V222H237.697V211.66H240.487ZM240.517 207.55V210.18H237.677V207.55H240.517ZM247.573 222.2C246.559 222.2 245.676 221.983 244.923 221.55C244.176 221.117 243.596 220.503 243.183 219.71C242.776 218.917 242.573 217.977 242.573 216.89C242.573 215.803 242.776 214.853 243.183 214.04C243.596 213.227 244.176 212.593 244.923 212.14C245.676 211.687 246.563 211.46 247.583 211.46C248.603 211.46 249.486 211.683 250.233 212.13C250.979 212.57 251.556 213.197 251.963 214.01C252.369 214.823 252.573 215.783 252.573 216.89C252.573 217.93 252.373 218.85 251.973 219.65C251.579 220.443 251.009 221.067 250.263 221.52C249.523 221.973 248.626 222.2 247.573 222.2ZM247.583 220.03C248.096 220.03 248.509 219.88 248.823 219.58C249.136 219.28 249.363 218.887 249.503 218.4C249.649 217.907 249.723 217.37 249.723 216.79C249.723 216.243 249.656 215.727 249.523 215.24C249.396 214.753 249.176 214.36 248.863 214.06C248.549 213.76 248.123 213.61 247.583 213.61C247.069 213.61 246.653 213.753 246.333 214.04C246.019 214.32 245.789 214.703 245.643 215.19C245.496 215.67 245.423 216.203 245.423 216.79C245.423 217.33 245.489 217.85 245.623 218.35C245.756 218.843 245.979 219.247 246.293 219.56C246.606 219.873 247.036 220.03 247.583 220.03ZM254.52 222V211.66H257.39V213.12C257.55 212.867 257.756 212.623 258.01 212.39C258.27 212.15 258.596 211.953 258.99 211.8C259.383 211.647 259.85 211.57 260.39 211.57C261.023 211.57 261.613 211.693 262.16 211.94C262.713 212.187 263.16 212.577 263.5 213.11C263.84 213.637 264.01 214.327 264.01 215.18V222H261.09V215.54C261.09 214.98 260.923 214.56 260.59 214.28C260.256 214 259.85 213.86 259.37 213.86C259.05 213.86 258.74 213.917 258.44 214.03C258.146 214.143 257.906 214.313 257.72 214.54C257.533 214.767 257.44 215.047 257.44 215.38V222H254.52ZM270.348 222.2C269.628 222.2 268.934 222.083 268.268 221.85C267.601 221.61 267.038 221.237 266.578 220.73C266.118 220.217 265.824 219.553 265.698 218.74H268.228C268.314 219.107 268.471 219.397 268.698 219.61C268.931 219.823 269.194 219.977 269.488 220.07C269.781 220.157 270.061 220.2 270.328 220.2C270.888 220.2 271.338 220.113 271.678 219.94C272.024 219.76 272.198 219.487 272.198 219.12C272.198 218.84 272.094 218.617 271.888 218.45C271.688 218.283 271.354 218.157 270.888 218.07L269.068 217.69C268.154 217.497 267.421 217.17 266.868 216.71C266.314 216.243 266.031 215.583 266.018 214.73C266.018 214.11 266.181 213.553 266.508 213.06C266.841 212.567 267.331 212.177 267.978 211.89C268.624 211.603 269.418 211.46 270.358 211.46C271.631 211.46 272.648 211.74 273.408 212.3C274.174 212.86 274.564 213.65 274.578 214.67H272.138C272.064 214.27 271.864 213.963 271.538 213.75C271.218 213.53 270.814 213.42 270.328 213.42C269.821 213.42 269.404 213.51 269.078 213.69C268.751 213.87 268.588 214.143 268.588 214.51C268.588 214.783 268.721 215 268.988 215.16C269.254 215.313 269.668 215.447 270.228 215.56L271.908 215.94C272.488 216.08 272.958 216.273 273.318 216.52C273.684 216.76 273.968 217.023 274.168 217.31C274.368 217.597 274.504 217.887 274.578 218.18C274.658 218.467 274.698 218.727 274.698 218.96C274.698 219.647 274.514 220.233 274.148 220.72C273.781 221.2 273.271 221.567 272.618 221.82C271.964 222.073 271.208 222.2 270.348 222.2Z" fill="#4A4A4A"/>
<path d="M98.296 305V293.432H106.24L106.232 295.4H100.64V298.208H105.496V300.136H100.624V303.008L106.32 303.016V305H98.296ZM108.062 305V296.728H110.359V297.896C110.487 297.693 110.652 297.499 110.855 297.312C111.063 297.12 111.324 296.963 111.639 296.84C111.953 296.717 112.327 296.656 112.759 296.656C113.265 296.656 113.737 296.755 114.175 296.952C114.617 297.149 114.975 297.461 115.247 297.888C115.519 298.309 115.655 298.861 115.655 299.544V305H113.319V299.832C113.319 299.384 113.185 299.048 112.919 298.824C112.652 298.6 112.327 298.488 111.943 298.488C111.687 298.488 111.439 298.533 111.199 298.624C110.964 298.715 110.772 298.851 110.623 299.032C110.473 299.213 110.399 299.437 110.399 299.704V305H108.062ZM119.884 305.16C119.356 305.16 118.882 305.061 118.46 304.864C118.039 304.667 117.706 304.381 117.46 304.008C117.215 303.629 117.092 303.171 117.092 302.632C117.092 301.725 117.431 301.037 118.108 300.568C118.786 300.093 119.855 299.848 121.316 299.832L122.348 299.816V299.32C122.348 298.941 122.236 298.651 122.012 298.448C121.794 298.24 121.452 298.139 120.988 298.144C120.647 298.149 120.322 298.229 120.012 298.384C119.708 298.539 119.5 298.808 119.388 299.192H117.444C117.476 298.595 117.65 298.104 117.964 297.72C118.279 297.331 118.706 297.043 119.244 296.856C119.788 296.664 120.404 296.568 121.092 296.568C121.94 296.568 122.62 296.675 123.132 296.888C123.644 297.096 124.015 297.397 124.244 297.792C124.474 298.181 124.588 298.645 124.588 299.184V305H122.636L122.444 303.576C122.162 304.173 121.807 304.587 121.38 304.816C120.959 305.045 120.46 305.16 119.884 305.16ZM120.668 303.624C120.882 303.624 121.087 303.587 121.284 303.512C121.487 303.432 121.666 303.328 121.82 303.2C121.98 303.067 122.108 302.917 122.204 302.752C122.3 302.587 122.348 302.416 122.348 302.24V301.016L121.508 301.032C121.119 301.037 120.756 301.085 120.42 301.176C120.084 301.261 119.812 301.403 119.604 301.6C119.402 301.797 119.3 302.064 119.3 302.4C119.3 302.784 119.434 303.085 119.7 303.304C119.967 303.517 120.29 303.624 120.668 303.624ZM131.264 305.16C130.854 305.16 130.499 305.107 130.2 305C129.902 304.893 129.648 304.752 129.44 304.576C129.232 304.395 129.062 304.195 128.928 303.976C128.795 303.757 128.691 303.533 128.616 303.304L128.352 305H126.656V293.112H129V297.848C129.102 297.672 129.232 297.507 129.392 297.352C129.552 297.197 129.739 297.061 129.952 296.944C130.166 296.827 130.4 296.736 130.656 296.672C130.918 296.603 131.195 296.568 131.488 296.568C132.518 296.568 133.323 296.939 133.904 297.68C134.491 298.421 134.784 299.467 134.784 300.816C134.784 301.691 134.651 302.453 134.384 303.104C134.118 303.755 133.723 304.261 133.2 304.624C132.678 304.981 132.032 305.16 131.264 305.16ZM130.752 303.48C131.254 303.48 131.67 303.275 132 302.864C132.336 302.448 132.504 301.755 132.504 300.784C132.504 299.925 132.344 299.291 132.024 298.88C131.71 298.469 131.28 298.264 130.736 298.264C130.347 298.264 130.024 298.357 129.768 298.544C129.512 298.725 129.32 299.003 129.192 299.376C129.07 299.749 129.006 300.219 129 300.784C129 301.76 129.144 302.453 129.432 302.864C129.726 303.275 130.166 303.48 130.752 303.48ZM138.984 305.144C138.376 305.144 137.893 305.072 137.536 304.928C137.178 304.784 136.914 304.595 136.744 304.36C136.573 304.12 136.464 303.856 136.416 303.568C136.368 303.275 136.344 302.979 136.344 302.68V293.112H138.632V302.392C138.632 302.696 138.696 302.944 138.824 303.136C138.957 303.323 139.205 303.437 139.568 303.48L139.96 303.504V304.944C139.8 304.997 139.637 305.043 139.472 305.08C139.306 305.123 139.144 305.144 138.984 305.144ZM143.373 301.4C143.368 301.821 143.434 302.189 143.573 302.504C143.712 302.813 143.912 303.053 144.173 303.224C144.44 303.389 144.76 303.472 145.133 303.472C145.533 303.472 145.882 303.387 146.181 303.216C146.485 303.045 146.696 302.765 146.813 302.376H148.917C148.826 302.963 148.592 303.464 148.213 303.88C147.84 304.296 147.386 304.613 146.853 304.832C146.32 305.051 145.765 305.16 145.189 305.16C144.373 305.16 143.653 304.989 143.029 304.648C142.41 304.301 141.928 303.813 141.581 303.184C141.234 302.555 141.061 301.813 141.061 300.96C141.061 300.133 141.218 299.389 141.533 298.728C141.848 298.061 142.304 297.536 142.901 297.152C143.504 296.763 144.226 296.568 145.069 296.568C145.912 296.568 146.618 296.747 147.189 297.104C147.765 297.456 148.197 297.949 148.485 298.584C148.778 299.213 148.925 299.941 148.925 300.768V301.4H143.373ZM143.365 300.008H146.741C146.741 299.677 146.68 299.373 146.557 299.096C146.434 298.819 146.248 298.6 145.997 298.44C145.752 298.28 145.442 298.2 145.069 298.2C144.706 298.2 144.397 298.288 144.141 298.464C143.89 298.635 143.698 298.859 143.565 299.136C143.432 299.413 143.365 299.704 143.365 300.008ZM161.779 293.432H164.115V305H162.011L156.515 297.04V305H154.187V293.432H156.499L161.779 301.088V293.432ZM169.74 305.16C168.929 305.16 168.222 304.987 167.62 304.64C167.022 304.293 166.558 303.803 166.228 303.168C165.902 302.533 165.74 301.781 165.74 300.912C165.74 300.043 165.902 299.283 166.228 298.632C166.558 297.981 167.022 297.475 167.62 297.112C168.222 296.749 168.932 296.568 169.748 296.568C170.564 296.568 171.27 296.747 171.868 297.104C172.465 297.456 172.926 297.957 173.252 298.608C173.577 299.259 173.74 300.027 173.74 300.912C173.74 301.744 173.58 302.48 173.26 303.12C172.945 303.755 172.489 304.253 171.892 304.616C171.3 304.979 170.582 305.16 169.74 305.16ZM169.748 303.424C170.158 303.424 170.489 303.304 170.74 303.064C170.99 302.824 171.172 302.509 171.284 302.12C171.401 301.725 171.46 301.296 171.46 300.832C171.46 300.395 171.406 299.981 171.3 299.592C171.198 299.203 171.022 298.888 170.772 298.648C170.521 298.408 170.18 298.288 169.748 298.288C169.337 298.288 169.004 298.403 168.748 298.632C168.497 298.856 168.313 299.163 168.196 299.552C168.078 299.936 168.02 300.363 168.02 300.832C168.02 301.264 168.073 301.68 168.18 302.08C168.286 302.475 168.465 302.797 168.716 303.048C168.966 303.299 169.31 303.424 169.748 303.424ZM180.071 298.352H178.231L178.247 302.76C178.247 302.963 178.271 303.115 178.319 303.216C178.373 303.312 178.453 303.376 178.559 303.408C178.671 303.435 178.813 303.448 178.983 303.448H180.095V304.888C179.989 304.936 179.821 304.981 179.591 305.024C179.367 305.067 179.053 305.088 178.647 305.088C177.922 305.088 177.359 304.995 176.959 304.808C176.565 304.621 176.29 304.36 176.135 304.024C175.981 303.688 175.903 303.299 175.903 302.856V298.352H174.559V296.728H175.983L176.567 294.232H178.231V296.72H180.071V298.352ZM184.149 296.728V305H181.917V296.728H184.149ZM184.173 293.44V295.544H181.901V293.44H184.173ZM191.314 296.728V298.352H189.57V305H187.234V298.352H185.706V296.728H187.234V295.536C187.234 294.869 187.428 294.352 187.818 293.984C188.212 293.616 188.77 293.432 189.49 293.432H191.386L191.394 294.984H190.306C190.007 294.984 189.802 295.059 189.69 295.208C189.583 295.352 189.53 295.592 189.53 295.928V296.728H191.314ZM195.034 296.728V305H192.802V296.728H195.034ZM195.058 293.44V295.544H192.786V293.44H195.058ZM200.7 296.568C201.394 296.568 201.991 296.709 202.492 296.992C202.999 297.275 203.396 297.656 203.684 298.136C203.978 298.616 204.146 299.152 204.188 299.744H202.244C202.207 299.525 202.13 299.309 202.012 299.096C201.895 298.877 201.73 298.699 201.516 298.56C201.303 298.416 201.036 298.344 200.716 298.344C200.172 298.344 199.73 298.555 199.388 298.976C199.052 299.392 198.884 300.027 198.884 300.88C198.884 301.685 199.05 302.325 199.38 302.8C199.711 303.269 200.172 303.504 200.764 303.504C201.079 303.504 201.34 303.427 201.548 303.272C201.762 303.117 201.927 302.933 202.044 302.72C202.162 302.501 202.236 302.299 202.268 302.112H204.164C204.127 302.683 203.962 303.2 203.668 303.664C203.375 304.123 202.975 304.488 202.468 304.76C201.967 305.027 201.378 305.16 200.7 305.16C199.932 305.16 199.247 304.989 198.644 304.648C198.042 304.307 197.567 303.819 197.22 303.184C196.879 302.544 196.708 301.781 196.708 300.896C196.708 300.043 196.874 299.291 197.204 298.64C197.535 297.989 197.999 297.483 198.596 297.12C199.199 296.752 199.9 296.568 200.7 296.568ZM208.15 305.16C207.622 305.16 207.147 305.061 206.726 304.864C206.305 304.667 205.971 304.381 205.726 304.008C205.481 303.629 205.358 303.171 205.358 302.632C205.358 301.725 205.697 301.037 206.374 300.568C207.051 300.093 208.121 299.848 209.582 299.832L210.614 299.816V299.32C210.614 298.941 210.502 298.651 210.278 298.448C210.059 298.24 209.718 298.139 209.254 298.144C208.913 298.149 208.587 298.229 208.278 298.384C207.974 298.539 207.766 298.808 207.654 299.192H205.71C205.742 298.595 205.915 298.104 206.23 297.72C206.545 297.331 206.971 297.043 207.51 296.856C208.054 296.664 208.67 296.568 209.358 296.568C210.206 296.568 210.886 296.675 211.398 296.888C211.91 297.096 212.281 297.397 212.51 297.792C212.739 298.181 212.854 298.645 212.854 299.184V305H210.902L210.71 303.576C210.427 304.173 210.073 304.587 209.646 304.816C209.225 305.045 208.726 305.16 208.15 305.16ZM208.934 303.624C209.147 303.624 209.353 303.587 209.55 303.512C209.753 303.432 209.931 303.328 210.086 303.2C210.246 303.067 210.374 302.917 210.47 302.752C210.566 302.587 210.614 302.416 210.614 302.24V301.016L209.774 301.032C209.385 301.037 209.022 301.085 208.686 301.176C208.35 301.261 208.078 301.403 207.87 301.6C207.667 301.797 207.566 302.064 207.566 302.4C207.566 302.784 207.699 303.085 207.966 303.304C208.233 303.517 208.555 303.624 208.934 303.624ZM219.603 298.352H217.763L217.779 302.76C217.779 302.963 217.803 303.115 217.851 303.216C217.904 303.312 217.984 303.376 218.091 303.408C218.203 303.435 218.344 303.448 218.515 303.448H219.627V304.888C219.52 304.936 219.352 304.981 219.123 305.024C218.899 305.067 218.584 305.088 218.179 305.088C217.453 305.088 216.891 304.995 216.491 304.808C216.096 304.621 215.821 304.36 215.667 304.024C215.512 303.688 215.435 303.299 215.435 302.856V298.352H214.09V296.728H215.515L216.099 294.232H217.763V296.72H219.603V298.352ZM223.68 296.728V305H221.448V296.728H223.68ZM223.704 293.44V295.544H221.432V293.44H223.704ZM229.349 305.16C228.538 305.16 227.832 304.987 227.229 304.64C226.632 304.293 226.168 303.803 225.837 303.168C225.512 302.533 225.349 301.781 225.349 300.912C225.349 300.043 225.512 299.283 225.837 298.632C226.168 297.981 226.632 297.475 227.229 297.112C227.832 296.749 228.541 296.568 229.357 296.568C230.173 296.568 230.88 296.747 231.477 297.104C232.074 297.456 232.536 297.957 232.861 298.608C233.186 299.259 233.349 300.027 233.349 300.912C233.349 301.744 233.189 302.48 232.869 303.12C232.554 303.755 232.098 304.253 231.501 304.616C230.909 304.979 230.192 305.16 229.349 305.16ZM229.357 303.424C229.768 303.424 230.098 303.304 230.349 303.064C230.6 302.824 230.781 302.509 230.893 302.12C231.01 301.725 231.069 301.296 231.069 300.832C231.069 300.395 231.016 299.981 230.909 299.592C230.808 299.203 230.632 298.888 230.381 298.648C230.13 298.408 229.789 298.288 229.357 298.288C228.946 298.288 228.613 298.403 228.357 298.632C228.106 298.856 227.922 299.163 227.805 299.552C227.688 299.936 227.629 300.363 227.629 300.832C227.629 301.264 227.682 301.68 227.789 302.08C227.896 302.475 228.074 302.797 228.325 303.048C228.576 303.299 228.92 303.424 229.357 303.424ZM234.906 305V296.728H237.202V297.896C237.33 297.693 237.496 297.499 237.698 297.312C237.906 297.12 238.168 296.963 238.482 296.84C238.797 296.717 239.17 296.656 239.602 296.656C240.109 296.656 240.581 296.755 241.018 296.952C241.461 297.149 241.818 297.461 242.09 297.888C242.362 298.309 242.498 298.861 242.498 299.544V305H240.162V299.832C240.162 299.384 240.029 299.048 239.762 298.824C239.496 298.6 239.17 298.488 238.786 298.488C238.53 298.488 238.282 298.533 238.042 298.624C237.808 298.715 237.616 298.851 237.466 299.032C237.317 299.213 237.242 299.437 237.242 299.704V305H234.906ZM247.569 305.16C246.993 305.16 246.438 305.067 245.905 304.88C245.372 304.688 244.921 304.389 244.553 303.984C244.185 303.573 243.95 303.043 243.849 302.392H245.873C245.942 302.685 246.068 302.917 246.249 303.088C246.436 303.259 246.646 303.381 246.881 303.456C247.116 303.525 247.34 303.56 247.553 303.56C248.001 303.56 248.361 303.491 248.633 303.352C248.91 303.208 249.049 302.989 249.049 302.696C249.049 302.472 248.966 302.293 248.801 302.16C248.641 302.027 248.374 301.925 248.001 301.856L246.545 301.552C245.814 301.397 245.228 301.136 244.785 300.768C244.342 300.395 244.116 299.867 244.105 299.184C244.105 298.688 244.236 298.243 244.497 297.848C244.764 297.453 245.156 297.141 245.673 296.912C246.19 296.683 246.825 296.568 247.577 296.568C248.596 296.568 249.409 296.792 250.017 297.24C250.63 297.688 250.942 298.32 250.953 299.136H249.001C248.942 298.816 248.782 298.571 248.521 298.4C248.265 298.224 247.942 298.136 247.553 298.136C247.148 298.136 246.814 298.208 246.553 298.352C246.292 298.496 246.161 298.715 246.161 299.008C246.161 299.227 246.268 299.4 246.481 299.528C246.694 299.651 247.025 299.757 247.473 299.848L248.817 300.152C249.281 300.264 249.657 300.419 249.945 300.616C250.238 300.808 250.465 301.019 250.625 301.248C250.785 301.477 250.894 301.709 250.953 301.944C251.017 302.173 251.049 302.381 251.049 302.568C251.049 303.117 250.902 303.587 250.609 303.976C250.316 304.36 249.908 304.653 249.385 304.856C248.862 305.059 248.257 305.16 247.569 305.16Z" fill="#3E3E3E"/>
<g filter="url(#filter1_i_520_2346)">
<rect x="268" y="287" width="64" height="24" rx="12" fill="#3E3E3E"/>
</g>
<g filter="url(#filter2_d_520_2346)">
<rect x="268" y="285" width="28" height="28" rx="14" fill="url(#paint0_linear_520_2346)"/>
</g>
<defs>
<filter id="filter0_d_520_2346" x="77.5" y="820.5" width="279" height="71" filterUnits="userSpaceOnUse" color-interpolation-filters="sRGB">
<feFlood flood-opacity="0" result="BackgroundImageFix"/>
<feColorMatrix in="SourceAlpha" type="matrix" values="0 0 0 0 0 0 0 0 0 0 0 0 0 0 0 0 0 0 127 0" result="hardAlpha"/>
<feOffset dx="3" dy="4"/>
<feGaussianBlur stdDeviation="3.75"/>
<feComposite in2="hardAlpha" operator="out"/>
<feColorMatrix type="matrix" values="0 0 0 0 0.529412 0 0 0 0 0.462745 0 0 0 0 0.341176 0 0 0 0.3 0"/>
<feBlend mode="normal" in2="BackgroundImageFix" result="effect1_dropShadow_520_2346"/>
<feBlend mode="normal" in="SourceGraphic" in2="effect1_dropShadow_520_2346" result="shape"/>
</filter>
<filter id="filter1_i_520_2346" x="268" y="287" width="64" height="28" filterUnits="userSpaceOnUse" color-interpolation-filters="sRGB">
<feFlood flood-opacity="0" result="BackgroundImageFix"/>
<feBlend mode="normal" in="SourceGraphic" in2="BackgroundImageFix" result="shape"/>
<feColorMatrix in="SourceAlpha" type="matrix" values="0 0 0 0 0 0 0 0 0 0 0 0 0 0 0 0 0 0 127 0" result="hardAlpha"/>
<feOffset dy="4"/>
<feGaussianBlur stdDeviation="2"/>
<feComposite in2="hardAlpha" operator="arithmetic" k2="-1" k3="1"/>
<feColorMatrix type="matrix" values="0 0 0 0 0 0 0 0 0 0 0 0 0 0 0 0 0 0 0.25 0"/>
<feBlend mode="normal" in2="shape" result="effect1_innerShadow_520_2346"/>
</filter>
<filter id="filter2_d_520_2346" x="264.138" y="285" width="35.7241" height="35.7241" filterUnits="userSpaceOnUse" color-interpolation-filters="sRGB">
<feFlood flood-opacity="0" result="BackgroundImageFix"/>
<feColorMatrix in="SourceAlpha" type="matrix" values="0 0 0 0 0 0 0 0 0 0 0 0 0 0 0 0 0 0 127 0" result="hardAlpha"/>
<feOffset dy="3.86207"/>
<feGaussianBlur stdDeviation="1.93103"/>
<feComposite in2="hardAlpha" operator="out"/>
<feColorMatrix type="matrix" values="0 0 0 0 0 0 0 0 0 0 0 0 0 0 0 0 0 0 0.25 0"/>
<feBlend mode="normal" in2="BackgroundImageFix" result="effect1_dropShadow_520_2346"/>
<feBlend mode="normal" in="SourceGraphic" in2="effect1_dropShadow_520_2346" result="shape"/>
</filter>
<linearGradient id="paint0_linear_520_2346" x1="282" y1="285" x2="282" y2="313" gradientUnits="userSpaceOnUse">
<stop stop-color="#F45D5D"/>
<stop offset="1" stop-color="#C73313"/>
</linearGradient>
<clipPath id="clip0_520_2346">
<rect width="119" height="119" fill="white" transform="translate(155 22)"/>
</clipPath>
</defs>
</svg>
