<svg width="428" height="926" viewBox="0 0 428 926" fill="none" xmlns="http://www.w3.org/2000/svg">
<rect width="428" height="926" fill="#F8F2E9"/>
<g clip-path="url(#clip0_520_2186)">
<path d="M240.646 92.0176C240.549 91.6316 240.501 91.2208 240.501 90.7849C240.501 89.1541 241.237 87.7352 242.71 86.5279C244.183 85.3207 247.195 83.8385 251.746 82.0813V80.735C251.746 79.3191 251.565 78.3046 251.205 77.6915C250.845 77.0784 250.254 76.7719 249.432 76.7719C248.762 76.7719 248.206 76.9709 247.764 77.3692C247.321 77.7674 247.1 78.2635 247.1 78.8578C247.1 79.1737 247.113 79.5435 247.138 79.967C247.163 80.3905 247.176 80.6592 247.176 80.7729C247.176 81.6957 246.92 82.4384 246.408 83.001C245.896 83.5635 245.216 83.8447 244.369 83.8447C243.598 83.8447 242.979 83.6014 242.511 83.1147C242.043 82.628 241.809 81.9864 241.809 81.1901C241.809 79.4708 242.625 78.0455 244.256 76.9141C245.886 75.7826 247.985 75.217 250.551 75.217C251.992 75.217 253.297 75.4003 254.467 75.7669C255.636 76.1336 256.594 76.6644 257.339 77.3597C257.946 77.9286 258.376 78.5923 258.629 79.3507C258.882 80.1092 259.008 81.2532 259.008 82.7829V88.1871C259.008 89.6914 259.125 90.7597 259.359 91.3916C259.593 92.0237 259.969 92.3398 260.487 92.3398C260.601 92.3398 260.715 92.3146 260.828 92.264C260.942 92.2133 261.062 92.1376 261.189 92.0363V93.2689C260.683 93.9136 260.029 94.413 259.226 94.7669C258.423 95.1209 257.535 95.2979 256.562 95.2979C255.45 95.2979 254.517 95.0388 253.765 94.5205C253.013 94.0021 252.46 93.2374 252.106 92.2261C251.145 93.3259 250.137 94.1444 249.081 94.6816C248.026 95.2188 246.91 95.4875 245.735 95.4875C244.18 95.4875 242.919 95.0482 241.952 94.1697C241.629 93.8765 241.36 93.5555 241.145 93.2066C240.384 93.8039 239.157 94.494 238.538 94.7669C237.736 95.1209 236.848 95.2979 235.874 95.2979C234.762 95.2979 233.829 95.0388 233.077 94.5205C232.325 94.0021 231.772 93.2374 231.418 92.2261C230.457 93.3259 229.449 94.1444 228.394 94.6816C227.338 95.2188 226.223 95.4875 225.047 95.4875C223.492 95.4875 222.231 95.0482 221.264 94.1697C220.297 93.2911 219.813 92.1628 219.813 90.7849C219.813 89.1541 220.55 87.7352 222.022 86.5279C223.495 85.3207 226.507 83.8385 231.058 82.0813V80.735C231.058 79.3191 230.878 78.3046 230.517 77.6915C230.157 77.0784 229.566 76.7719 228.744 76.7719C228.075 76.7719 227.518 76.9709 227.076 77.3692C226.633 77.7674 226.412 78.2635 226.412 78.8578C226.412 79.1737 226.425 79.5435 226.45 79.967C226.475 80.3905 226.488 80.6592 226.488 80.7729C226.488 81.6957 226.232 82.4384 225.72 83.001C225.208 83.5635 224.529 83.8447 223.682 83.8447C222.91 83.8447 222.291 83.6014 221.823 83.1147C221.356 82.628 221.122 81.9864 221.122 81.1901C221.122 79.4708 221.937 78.0455 223.568 76.9141C225.199 75.7826 227.297 75.217 229.863 75.217C231.304 75.217 232.61 75.4003 233.779 75.7669C234.948 76.1336 235.906 76.6644 236.652 77.3597C237.258 77.9286 237.688 78.5923 237.941 79.3507C238.194 80.1092 238.32 81.2532 238.32 82.7829V88.1871C238.32 89.6914 238.437 90.7597 238.671 91.3916C238.905 92.0237 239.281 92.3398 239.799 92.3398C239.913 92.3398 240.027 92.3146 240.141 92.264C240.194 92.2403 240.414 92.1343 240.646 92.0176ZM182.778 94.6722L178.246 85.6651V90.8228C178.246 91.8215 178.423 92.5326 178.777 92.9561C179.131 93.3796 179.731 93.5913 180.578 93.5913H180.692V94.6722H168.499V93.5913H168.613C169.448 93.5913 170.045 93.3796 170.405 92.9561C170.765 92.5326 170.946 91.8215 170.946 90.8228V75.2548C170.946 74.6734 170.879 74.2531 170.746 73.994C170.614 73.7348 170.313 73.4156 169.846 73.0364L167.798 71.3677C168.683 71.1022 169.915 70.6788 171.495 70.0972C173.076 69.5157 175.326 68.6561 178.246 67.5183V84.6222C179.902 83.3454 181.15 82.1919 181.991 81.1616C182.832 80.1314 183.252 79.237 183.252 78.4785C183.252 78.0739 183.097 77.7516 182.787 77.5115C182.478 77.2712 182.051 77.1511 181.507 77.1511H181.394V76.0703H191.254V77.1511H190.932C189.63 77.1511 188.403 77.4925 187.253 78.175C186.103 78.8578 184.921 79.9448 183.707 81.4366L189.149 90.7469C189.743 91.7836 190.319 92.5042 190.875 92.9087C191.429 93.3119 192.122 93.5393 192.953 93.5909C193.752 93.5796 194.326 93.368 194.677 92.9561C195.037 92.5326 195.217 91.8215 195.217 90.8228V82.7829C195.217 82.2014 195.154 81.781 195.027 81.5219C194.901 81.2628 194.604 80.9499 194.136 80.5833L192.069 78.9146C193.574 78.4343 195.198 77.8717 196.943 77.227C198.687 76.5823 200.545 75.8617 202.518 75.0652V90.8228C202.518 91.7962 202.691 92.4946 203.039 92.9181C203.387 93.3416 203.965 93.566 204.774 93.5913H204.811C205.645 93.5913 206.243 93.3796 206.603 92.9561C206.963 92.5326 207.143 91.8215 207.143 90.8228V83.6741C207.143 83.0673 207.067 82.6185 206.916 82.3278C206.764 82.0371 206.48 81.7526 206.063 81.4745L203.692 79.8058C204.931 79.376 206.36 78.7851 207.978 78.0329C209.596 77.2807 211.58 76.2915 213.932 75.0652V78.4027C214.564 77.3407 215.25 76.5444 215.989 76.0134C216.729 75.4825 217.522 75.217 218.369 75.217C219.304 75.217 220.057 75.4951 220.625 76.0513C221.194 76.6075 221.479 77.3407 221.479 78.2509C221.479 79.0474 221.242 79.6857 220.768 80.1661C220.294 80.6465 219.665 80.8866 218.881 80.8866C218.173 80.8866 217.494 80.6023 216.842 80.0333C216.191 79.4645 215.777 79.1801 215.6 79.1801C215.183 79.1801 214.886 79.4582 214.709 80.0144C214.532 80.5707 214.444 81.563 214.444 82.9915V90.8228C214.444 91.8089 214.643 92.5168 215.041 92.9465C215.439 93.3764 216.093 93.5913 217.004 93.5913H217.117V94.6722H182.778ZM251.746 83.4845C250.608 83.9396 249.742 84.657 249.148 85.6367C248.554 86.6164 248.257 87.8142 248.257 89.23C248.257 90.0391 248.418 90.6838 248.74 91.1642C249.062 91.6445 249.483 91.8847 250.001 91.8847C250.671 91.8847 251.129 91.6192 251.376 91.0883C251.622 90.5573 251.746 89.23 251.746 87.1063V83.4845ZM231.058 83.4845C229.92 83.9396 229.054 84.657 228.46 85.6367C227.866 86.6164 227.569 87.8142 227.569 89.23C227.569 90.0391 227.73 90.6838 228.052 91.1642C228.375 91.6445 228.795 91.8847 229.313 91.8847C229.983 91.8847 230.442 91.6192 230.688 91.0883C230.935 90.5573 231.058 89.23 231.058 87.1063V83.4845ZM194.705 71.3297C194.705 70.2679 195.075 69.3671 195.814 68.6277C196.554 67.8881 197.455 67.5183 198.517 67.5183C199.591 67.5183 200.495 67.8881 201.228 68.6277C201.961 69.3671 202.328 70.2679 202.328 71.3297C202.328 72.3917 201.958 73.2923 201.219 74.0319C200.479 74.7713 199.578 75.1411 198.517 75.1411C197.455 75.1411 196.554 74.7745 195.814 74.0413C195.075 73.3081 194.705 72.4043 194.705 71.3297Z" fill="#3E3E3E"/>
</g>
<g filter="url(#filter0_d_520_2186)">
<rect x="82" y="824" width="264" height="56" rx="28" fill="#F8F2E9" shape-rendering="crispEdges"/>
<path d="M121 862V856C121 855.735 120.895 855.48 120.707 855.293C120.52 855.105 120.265 855 120 855H116C115.735 855 115.48 855.105 115.293 855.293C115.105 855.48 115 855.735 115 856V862C115 862.265 114.895 862.52 114.707 862.707C114.52 862.895 114.265 863 114 863H108C107.735 863 107.48 862.895 107.293 862.707C107.105 862.52 107 862.265 107 862V850.438C107.002 850.299 107.032 850.163 107.088 850.036C107.144 849.909 107.224 849.795 107.325 849.7L117.325 840.613C117.509 840.444 117.75 840.35 118 840.35C118.25 840.35 118.491 840.444 118.675 840.613L128.675 849.7C128.776 849.795 128.856 849.909 128.912 850.036C128.968 850.163 128.998 850.299 129 850.438V862C129 862.265 128.895 862.52 128.707 862.707C128.52 862.895 128.265 863 128 863H122C121.735 863 121.48 862.895 121.293 862.707C121.105 862.52 121 862.265 121 862Z" stroke="#4A4A4A" stroke-width="2" stroke-linecap="round" stroke-linejoin="round"/>
<path d="M178 845C178 843.939 178.421 842.922 179.172 842.172C179.922 841.421 180.939 841 182 841C183.061 841 184.078 841.421 184.828 842.172C185.579 842.922 186 843.939 186 845L168.4 858.2C168.232 858.326 168.108 858.501 168.045 858.702C167.983 858.902 167.985 859.117 168.051 859.316C168.118 859.515 168.245 859.689 168.415 859.811C168.586 859.934 168.79 860 169 860H195C195.21 860 195.414 859.934 195.585 859.811C195.755 859.689 195.882 859.515 195.949 859.316C196.015 859.117 196.017 858.902 195.955 858.702C195.892 858.501 195.768 858.326 195.6 858.2L182 848" stroke="#4A4A4A" stroke-width="2" stroke-linecap="round" stroke-linejoin="round"/>
<path d="M246 856C250.418 856 254 852.418 254 848C254 843.582 250.418 840 246 840C241.582 840 238 843.582 238 848C238 852.418 241.582 856 246 856Z" fill="#4A4A4A"/>
<path d="M234 863C235.216 860.264 236.965 857.991 239.072 856.412C241.178 854.832 243.568 854 246 854C248.432 854 250.822 854.832 252.928 856.412C255.035 857.991 256.784 860.264 258 863" fill="#4A4A4A"/>
<path d="M305.955 841.143L306.938 838.606C307.103 838.176 307.395 837.807 307.774 837.546C308.154 837.285 308.603 837.144 309.063 837.143H310.938C311.398 837.144 311.847 837.285 312.227 837.546C312.606 837.807 312.897 838.176 313.063 838.606L314.046 841.143L317.383 843.063L320.08 842.651C320.529 842.59 320.987 842.664 321.394 842.864C321.801 843.063 322.139 843.379 322.366 843.771L323.28 845.371C323.515 845.77 323.623 846.23 323.59 846.691C323.557 847.152 323.386 847.593 323.098 847.954L321.429 850.08V853.92L323.143 856.046C323.431 856.407 323.603 856.848 323.636 857.309C323.668 857.77 323.56 858.23 323.326 858.629L322.412 860.229C322.185 860.621 321.846 860.937 321.439 861.136C321.032 861.336 320.575 861.409 320.126 861.349L317.429 860.937L314.092 862.857L313.109 865.394C312.943 865.824 312.652 866.193 312.272 866.454C311.893 866.715 311.444 866.856 310.983 866.857H309.063C308.603 866.856 308.154 866.715 307.774 866.454C307.395 866.193 307.103 865.824 306.938 865.394L305.955 862.857L302.618 860.937L299.92 861.349C299.471 861.409 299.014 861.336 298.607 861.136C298.2 860.937 297.862 860.621 297.635 860.229L296.72 858.629C296.486 858.23 296.378 857.77 296.411 857.309C296.443 856.848 296.615 856.407 296.903 856.046L298.572 853.92V850.08L296.858 847.954C296.569 847.593 296.398 847.152 296.365 846.691C296.332 846.23 296.44 845.77 296.675 845.371L297.589 843.771C297.816 843.379 298.154 843.063 298.561 842.864C298.968 842.664 299.426 842.59 299.875 842.651L302.572 843.063L305.955 841.143ZM305.429 852C305.429 852.904 305.697 853.788 306.199 854.54C306.702 855.291 307.416 855.877 308.251 856.223C309.086 856.569 310.005 856.66 310.892 856.484C311.779 856.307 312.594 855.872 313.233 855.232C313.872 854.593 314.308 853.779 314.484 852.892C314.66 852.005 314.57 851.086 314.224 850.251C313.878 849.415 313.292 848.701 312.54 848.199C311.788 847.697 310.905 847.429 310 847.429C308.788 847.429 307.625 847.91 306.768 848.767C305.911 849.625 305.429 850.788 305.429 852V852Z" stroke="#3E3E3E" stroke-width="2" stroke-linecap="round" stroke-linejoin="round"/>
</g>
<path d="M381 116H359C358.448 116 358 116.448 358 117V135C358 135.552 358.448 136 359 136H381C381.552 136 382 135.552 382 135V117C382 116.448 381.552 116 381 116Z" stroke="#3E3E3E" stroke-width="2" stroke-linecap="round" stroke-linejoin="round"/>
<path d="M375 121C375 122.326 374.473 123.598 373.536 124.536C372.598 125.473 371.326 126 370 126C368.674 126 367.402 125.473 366.464 124.536C365.527 123.598 365 122.326 365 121" stroke="#3E3E3E" stroke-width="2" stroke-linecap="round" stroke-linejoin="round"/>
<path d="M56.6188 195.238L51 189.619L56.6188 184" stroke="#3E3E3E" stroke-width="2.65192" stroke-linecap="round" stroke-linejoin="round"/>
<path d="M51 189.619H64.2596" stroke="#3E3E3E" stroke-width="2.65192" stroke-linecap="round" stroke-linejoin="round"/>
<path d="M141.55 273L146.73 258.54H149.81L154.98 273H152.07L150.89 269.65H145.69L144.48 273H141.55ZM146.34 267.1H150.19L148.28 261.36L146.34 267.1ZM160.879 262.46C161.746 262.46 162.493 262.637 163.119 262.99C163.753 263.343 164.249 263.82 164.609 264.42C164.976 265.02 165.186 265.69 165.239 266.43H162.809C162.763 266.157 162.666 265.887 162.519 265.62C162.373 265.347 162.166 265.123 161.899 264.95C161.633 264.77 161.299 264.68 160.899 264.68C160.219 264.68 159.666 264.943 159.239 265.47C158.819 265.99 158.609 266.783 158.609 267.85C158.609 268.857 158.816 269.657 159.229 270.25C159.643 270.837 160.219 271.13 160.959 271.13C161.353 271.13 161.679 271.033 161.939 270.84C162.206 270.647 162.413 270.417 162.559 270.15C162.706 269.877 162.799 269.623 162.839 269.39H165.209C165.163 270.103 164.956 270.75 164.589 271.33C164.223 271.903 163.723 272.36 163.089 272.7C162.463 273.033 161.726 273.2 160.879 273.2C159.919 273.2 159.063 272.987 158.309 272.56C157.556 272.133 156.963 271.523 156.529 270.73C156.103 269.93 155.889 268.977 155.889 267.87C155.889 266.803 156.096 265.863 156.509 265.05C156.923 264.237 157.503 263.603 158.249 263.15C159.003 262.69 159.879 262.46 160.879 262.46ZM171.68 262.46C172.547 262.46 173.293 262.637 173.92 262.99C174.553 263.343 175.05 263.82 175.41 264.42C175.777 265.02 175.987 265.69 176.04 266.43H173.61C173.563 266.157 173.467 265.887 173.32 265.62C173.173 265.347 172.967 265.123 172.7 264.95C172.433 264.77 172.1 264.68 171.7 264.68C171.02 264.68 170.467 264.943 170.04 265.47C169.62 265.99 169.41 266.783 169.41 267.85C169.41 268.857 169.617 269.657 170.03 270.25C170.443 270.837 171.02 271.13 171.76 271.13C172.153 271.13 172.48 271.033 172.74 270.84C173.007 270.647 173.213 270.417 173.36 270.15C173.507 269.877 173.6 269.623 173.64 269.39H176.01C175.963 270.103 175.757 270.75 175.39 271.33C175.023 271.903 174.523 272.36 173.89 272.7C173.263 273.033 172.527 273.2 171.68 273.2C170.72 273.2 169.863 272.987 169.11 272.56C168.357 272.133 167.763 271.523 167.33 270.73C166.903 269.93 166.69 268.977 166.69 267.87C166.69 266.803 166.897 265.863 167.31 265.05C167.723 264.237 168.303 263.603 169.05 263.15C169.803 262.69 170.68 262.46 171.68 262.46ZM182.491 273.2C181.477 273.2 180.594 272.983 179.841 272.55C179.094 272.117 178.514 271.503 178.101 270.71C177.694 269.917 177.491 268.977 177.491 267.89C177.491 266.803 177.694 265.853 178.101 265.04C178.514 264.227 179.094 263.593 179.841 263.14C180.594 262.687 181.481 262.46 182.501 262.46C183.521 262.46 184.404 262.683 185.151 263.13C185.897 263.57 186.474 264.197 186.881 265.01C187.287 265.823 187.491 266.783 187.491 267.89C187.491 268.93 187.291 269.85 186.891 270.65C186.497 271.443 185.927 272.067 185.181 272.52C184.441 272.973 183.544 273.2 182.491 273.2ZM182.501 271.03C183.014 271.03 183.427 270.88 183.741 270.58C184.054 270.28 184.281 269.887 184.421 269.4C184.567 268.907 184.641 268.37 184.641 267.79C184.641 267.243 184.574 266.727 184.441 266.24C184.314 265.753 184.094 265.36 183.781 265.06C183.467 264.76 183.041 264.61 182.501 264.61C181.987 264.61 181.571 264.753 181.251 265.04C180.937 265.32 180.707 265.703 180.561 266.19C180.414 266.67 180.341 267.203 180.341 267.79C180.341 268.33 180.407 268.85 180.541 269.35C180.674 269.843 180.897 270.247 181.211 270.56C181.524 270.873 181.954 271.03 182.501 271.03ZM193.13 273.2C192.65 273.2 192.177 273.127 191.71 272.98C191.25 272.833 190.83 272.617 190.45 272.33C190.07 272.043 189.764 271.69 189.53 271.27C189.304 270.85 189.19 270.363 189.19 269.81V262.66H192.11V269.44C192.11 269.92 192.267 270.313 192.58 270.62C192.894 270.927 193.354 271.08 193.96 271.08C194.534 271.08 194.987 270.933 195.32 270.64C195.66 270.34 195.83 269.923 195.83 269.39V262.66H198.72V273H196.52L196.18 270.95C196.06 271.557 195.834 272.023 195.5 272.35C195.174 272.67 194.797 272.89 194.37 273.01C193.95 273.137 193.537 273.2 193.13 273.2ZM201.156 273V262.66H204.026V264.12C204.186 263.867 204.393 263.623 204.646 263.39C204.906 263.15 205.233 262.953 205.626 262.8C206.02 262.647 206.486 262.57 207.026 262.57C207.66 262.57 208.25 262.693 208.796 262.94C209.35 263.187 209.796 263.577 210.136 264.11C210.476 264.637 210.646 265.327 210.646 266.18V273H207.726V266.54C207.726 265.98 207.56 265.56 207.226 265.28C206.893 265 206.486 264.86 206.006 264.86C205.686 264.86 205.376 264.917 205.076 265.03C204.783 265.143 204.543 265.313 204.356 265.54C204.17 265.767 204.076 266.047 204.076 266.38V273H201.156ZM218.863 264.69H216.563L216.583 270.2C216.583 270.453 216.613 270.643 216.673 270.77C216.739 270.89 216.839 270.97 216.973 271.01C217.113 271.043 217.289 271.06 217.503 271.06H218.893V272.86C218.759 272.92 218.549 272.977 218.263 273.03C217.983 273.083 217.589 273.11 217.083 273.11C216.176 273.11 215.473 272.993 214.973 272.76C214.479 272.527 214.136 272.2 213.943 271.78C213.749 271.36 213.653 270.873 213.653 270.32V264.69H211.972V262.66H213.753L214.483 259.54H216.563V262.65H218.863V264.69ZM231.058 273.2C230.344 273.2 229.644 273.11 228.958 272.93C228.271 272.75 227.644 272.48 227.078 272.12C226.511 271.76 226.041 271.31 225.668 270.77C225.301 270.23 225.081 269.597 225.008 268.87H227.998C228.098 269.31 228.288 269.68 228.568 269.98C228.848 270.28 229.201 270.51 229.628 270.67C230.054 270.83 230.528 270.91 231.048 270.91C231.581 270.91 232.068 270.843 232.508 270.71C232.948 270.577 233.301 270.377 233.568 270.11C233.834 269.837 233.968 269.497 233.968 269.09C233.968 268.723 233.858 268.423 233.638 268.19C233.424 267.957 233.134 267.767 232.768 267.62C232.401 267.473 231.984 267.353 231.518 267.26L229.018 266.75C227.924 266.543 227.058 266.11 226.418 265.45C225.778 264.783 225.448 263.897 225.428 262.79C225.421 261.883 225.661 261.1 226.148 260.44C226.641 259.773 227.308 259.26 228.148 258.9C228.994 258.54 229.941 258.36 230.988 258.36C232.234 258.36 233.281 258.557 234.128 258.95C234.981 259.337 235.628 259.863 236.068 260.53C236.514 261.19 236.744 261.927 236.758 262.74H233.828C233.774 262.233 233.621 261.83 233.368 261.53C233.114 261.23 232.788 261.013 232.388 260.88C231.994 260.747 231.544 260.68 231.038 260.68C230.651 260.68 230.298 260.723 229.978 260.81C229.664 260.897 229.398 261.02 229.178 261.18C228.958 261.333 228.788 261.517 228.668 261.73C228.548 261.943 228.488 262.183 228.488 262.45C228.488 262.87 228.628 263.21 228.908 263.47C229.188 263.73 229.711 263.943 230.478 264.11L232.958 264.62C233.844 264.793 234.548 265.05 235.068 265.39C235.594 265.73 235.988 266.113 236.248 266.54C236.514 266.967 236.688 267.403 236.768 267.85C236.854 268.29 236.898 268.697 236.898 269.07C236.898 269.85 236.651 270.553 236.158 271.18C235.671 271.8 234.991 272.293 234.118 272.66C233.244 273.02 232.224 273.2 231.058 273.2ZM245.132 264.69H242.832L242.852 270.2C242.852 270.453 242.882 270.643 242.942 270.77C243.009 270.89 243.109 270.97 243.242 271.01C243.382 271.043 243.559 271.06 243.772 271.06H245.162V272.86C245.029 272.92 244.819 272.977 244.532 273.03C244.252 273.083 243.859 273.11 243.352 273.11C242.445 273.11 241.742 272.993 241.242 272.76C240.749 272.527 240.405 272.2 240.212 271.78C240.019 271.36 239.922 270.873 239.922 270.32V264.69H238.242V262.66H240.022L240.752 259.54H242.832V262.65H245.132V264.69ZM250.27 273.2C249.61 273.2 249.016 273.077 248.49 272.83C247.963 272.583 247.546 272.227 247.24 271.76C246.933 271.287 246.78 270.713 246.78 270.04C246.78 268.907 247.203 268.047 248.05 267.46C248.896 266.867 250.233 266.56 252.06 266.54L253.35 266.52V265.9C253.35 265.427 253.21 265.063 252.93 264.81C252.656 264.55 252.23 264.423 251.65 264.43C251.223 264.437 250.816 264.537 250.43 264.73C250.05 264.923 249.79 265.26 249.65 265.74H247.22C247.26 264.993 247.476 264.38 247.87 263.9C248.263 263.413 248.796 263.053 249.47 262.82C250.15 262.58 250.92 262.46 251.78 262.46C252.84 262.46 253.69 262.593 254.33 262.86C254.97 263.12 255.433 263.497 255.72 263.99C256.006 264.477 256.15 265.057 256.15 265.73V273H253.71L253.47 271.22C253.116 271.967 252.673 272.483 252.14 272.77C251.613 273.057 250.99 273.2 250.27 273.2ZM251.25 271.28C251.516 271.28 251.773 271.233 252.02 271.14C252.273 271.04 252.496 270.91 252.69 270.75C252.89 270.583 253.05 270.397 253.17 270.19C253.29 269.983 253.35 269.77 253.35 269.55V268.02L252.3 268.04C251.813 268.047 251.36 268.107 250.94 268.22C250.52 268.327 250.18 268.503 249.92 268.75C249.666 268.997 249.54 269.33 249.54 269.75C249.54 270.23 249.706 270.607 250.04 270.88C250.373 271.147 250.776 271.28 251.25 271.28ZM264.585 264.69H262.285L262.305 270.2C262.305 270.453 262.335 270.643 262.395 270.77C262.462 270.89 262.562 270.97 262.695 271.01C262.835 271.043 263.012 271.06 263.225 271.06H264.615V272.86C264.482 272.92 264.272 272.977 263.985 273.03C263.705 273.083 263.312 273.11 262.805 273.11C261.898 273.11 261.195 272.993 260.695 272.76C260.202 272.527 259.858 272.2 259.665 271.78C259.472 271.36 259.375 270.873 259.375 270.32V264.69H257.695V262.66H259.475L260.205 259.54H262.285V262.65H264.585V264.69ZM270.455 273.2C269.975 273.2 269.501 273.127 269.035 272.98C268.575 272.833 268.155 272.617 267.775 272.33C267.395 272.043 267.088 271.69 266.855 271.27C266.628 270.85 266.515 270.363 266.515 269.81V262.66H269.435V269.44C269.435 269.92 269.591 270.313 269.905 270.62C270.218 270.927 270.678 271.08 271.285 271.08C271.858 271.08 272.311 270.933 272.645 270.64C272.985 270.34 273.155 269.923 273.155 269.39V262.66H276.045V273H273.845L273.505 270.95C273.385 271.557 273.158 272.023 272.825 272.35C272.498 272.67 272.121 272.89 271.695 273.01C271.275 273.137 270.861 273.2 270.455 273.2ZM282.512 273.2C281.792 273.2 281.099 273.083 280.432 272.85C279.765 272.61 279.202 272.237 278.742 271.73C278.282 271.217 277.989 270.553 277.862 269.74H280.392C280.479 270.107 280.635 270.397 280.862 270.61C281.095 270.823 281.359 270.977 281.652 271.07C281.945 271.157 282.225 271.2 282.492 271.2C283.052 271.2 283.502 271.113 283.842 270.94C284.189 270.76 284.362 270.487 284.362 270.12C284.362 269.84 284.259 269.617 284.052 269.45C283.852 269.283 283.519 269.157 283.052 269.07L281.232 268.69C280.319 268.497 279.585 268.17 279.032 267.71C278.479 267.243 278.195 266.583 278.182 265.73C278.182 265.11 278.345 264.553 278.672 264.06C279.005 263.567 279.495 263.177 280.142 262.89C280.789 262.603 281.582 262.46 282.522 262.46C283.795 262.46 284.812 262.74 285.572 263.3C286.339 263.86 286.729 264.65 286.742 265.67H284.302C284.229 265.27 284.029 264.963 283.702 264.75C283.382 264.53 282.979 264.42 282.492 264.42C281.985 264.42 281.569 264.51 281.242 264.69C280.915 264.87 280.752 265.143 280.752 265.51C280.752 265.783 280.885 266 281.152 266.16C281.419 266.313 281.832 266.447 282.392 266.56L284.072 266.94C284.652 267.08 285.122 267.273 285.482 267.52C285.849 267.76 286.132 268.023 286.332 268.31C286.532 268.597 286.669 268.887 286.742 269.18C286.822 269.467 286.862 269.727 286.862 269.96C286.862 270.647 286.679 271.233 286.312 271.72C285.945 272.2 285.435 272.567 284.782 272.82C284.129 273.073 283.372 273.2 282.512 273.2Z" fill="#4A4A4A"/>
<path d="M122.813 312.878L119.334 318.723V323H117.633V318.716L114.147 312.878H115.995L118.494 317.232L120.951 312.878H122.813ZM125.789 323.14C125.099 323.14 124.497 322.993 123.983 322.699C123.47 322.4 123.071 321.973 122.786 321.418C122.506 320.863 122.366 320.195 122.366 319.416C122.366 318.66 122.502 317.997 122.772 317.428C123.048 316.859 123.442 316.415 123.955 316.098C124.469 315.781 125.082 315.622 125.796 315.622C126.487 315.622 127.087 315.774 127.595 316.077C128.104 316.38 128.496 316.814 128.771 317.379C129.051 317.944 129.191 318.623 129.191 319.416C129.191 320.149 129.058 320.795 128.792 321.355C128.531 321.91 128.146 322.347 127.637 322.664C127.133 322.981 126.517 323.14 125.789 323.14ZM125.796 321.845C126.188 321.845 126.51 321.738 126.762 321.523C127.019 321.308 127.208 321.014 127.329 320.641C127.455 320.268 127.518 319.843 127.518 319.367C127.518 318.924 127.462 318.515 127.35 318.142C127.243 317.769 127.061 317.47 126.804 317.246C126.552 317.017 126.216 316.903 125.796 316.903C125.4 316.903 125.071 317.008 124.809 317.218C124.553 317.423 124.359 317.713 124.228 318.086C124.102 318.455 124.039 318.882 124.039 319.367C124.039 319.806 124.095 320.214 124.207 320.592C124.324 320.965 124.511 321.269 124.767 321.502C125.024 321.731 125.367 321.845 125.796 321.845ZM133.267 323.14C132.912 323.14 132.569 323.089 132.238 322.986C131.911 322.879 131.617 322.725 131.356 322.524C131.094 322.319 130.887 322.067 130.733 321.768C130.579 321.469 130.502 321.122 130.502 320.725V315.762H132.21V320.529C132.21 320.921 132.333 321.243 132.581 321.495C132.833 321.747 133.211 321.873 133.715 321.873C134.172 321.873 134.538 321.754 134.814 321.516C135.089 321.273 135.227 320.926 135.227 320.473V315.762H136.921V323H135.612L135.423 321.586C135.334 321.983 135.178 322.295 134.954 322.524C134.734 322.748 134.475 322.907 134.177 323C133.883 323.093 133.579 323.14 133.267 323.14ZM138.81 323V315.762H140.441V317.33C140.557 316.971 140.723 316.665 140.938 316.413C141.157 316.156 141.414 315.96 141.708 315.825C142.002 315.69 142.321 315.622 142.667 315.622C142.751 315.622 142.832 315.627 142.912 315.636C142.991 315.645 143.049 315.662 143.087 315.685V317.316C143.035 317.293 142.968 317.276 142.884 317.267C142.804 317.258 142.734 317.253 142.674 317.253C142.324 317.225 142.013 317.239 141.743 317.295C141.477 317.351 141.25 317.447 141.064 317.582C140.882 317.713 140.744 317.881 140.651 318.086C140.557 318.287 140.511 318.522 140.511 318.793V323H138.81ZM149.529 323.14C149.067 323.14 148.651 323.056 148.283 322.888C147.919 322.715 147.632 322.47 147.422 322.153C147.216 321.831 147.114 321.441 147.114 320.984C147.114 320.186 147.401 319.584 147.975 319.178C148.553 318.772 149.475 318.56 150.74 318.541L151.818 318.513V318.023C151.818 317.64 151.703 317.342 151.475 317.127C151.251 316.908 150.901 316.8 150.425 316.805C150.075 316.81 149.753 316.894 149.459 317.057C149.169 317.216 148.978 317.484 148.885 317.862H147.436C147.464 317.367 147.606 316.954 147.863 316.623C148.124 316.287 148.481 316.037 148.934 315.874C149.386 315.706 149.909 315.622 150.502 315.622C151.192 315.622 151.755 315.713 152.189 315.895C152.623 316.077 152.942 316.341 153.148 316.686C153.353 317.027 153.456 317.44 153.456 317.925V323H152.021L151.888 321.698C151.626 322.244 151.295 322.622 150.894 322.832C150.497 323.037 150.042 323.14 149.529 323.14ZM150.082 321.985C150.292 321.985 150.499 321.948 150.705 321.873C150.91 321.794 151.097 321.689 151.265 321.558C151.433 321.423 151.566 321.273 151.664 321.11C151.766 320.947 151.818 320.776 151.818 320.599V319.458L150.929 319.472C150.49 319.477 150.107 319.523 149.781 319.612C149.454 319.701 149.197 319.843 149.011 320.039C148.829 320.23 148.738 320.487 148.738 320.809C148.738 321.178 148.866 321.467 149.123 321.677C149.379 321.882 149.699 321.985 150.082 321.985ZM158.451 315.622C159.016 315.622 159.513 315.734 159.942 315.958C160.372 316.182 160.715 316.492 160.971 316.889C161.233 317.286 161.389 317.736 161.44 318.24H159.984C159.952 318.021 159.872 317.813 159.746 317.617C159.62 317.416 159.45 317.255 159.235 317.134C159.021 317.008 158.762 316.945 158.458 316.945C157.917 316.945 157.476 317.146 157.135 317.547C156.799 317.948 156.631 318.564 156.631 319.395C156.631 320.16 156.792 320.769 157.114 321.222C157.436 321.675 157.896 321.901 158.493 321.901C158.792 321.901 159.046 321.836 159.256 321.705C159.471 321.57 159.639 321.404 159.76 321.208C159.886 321.007 159.968 320.807 160.005 320.606H161.419C161.377 321.096 161.223 321.532 160.957 321.915C160.696 322.298 160.351 322.599 159.921 322.818C159.497 323.033 159.007 323.14 158.451 323.14C157.789 323.14 157.198 322.995 156.68 322.706C156.167 322.412 155.763 321.987 155.469 321.432C155.175 320.872 155.028 320.198 155.028 319.409C155.028 318.658 155.166 318 155.441 317.435C155.717 316.866 156.111 316.422 156.624 316.105C157.138 315.783 157.747 315.622 158.451 315.622ZM166.012 315.622C166.577 315.622 167.074 315.734 167.503 315.958C167.932 316.182 168.275 316.492 168.532 316.889C168.793 317.286 168.95 317.736 169.001 318.24H167.545C167.512 318.021 167.433 317.813 167.307 317.617C167.181 317.416 167.011 317.255 166.796 317.134C166.581 317.008 166.322 316.945 166.019 316.945C165.478 316.945 165.037 317.146 164.696 317.547C164.36 317.948 164.192 318.564 164.192 319.395C164.192 320.16 164.353 320.769 164.675 321.222C164.997 321.675 165.457 321.901 166.054 321.901C166.353 321.901 166.607 321.836 166.817 321.705C167.032 321.57 167.2 321.404 167.321 321.208C167.447 321.007 167.529 320.807 167.566 320.606H168.98C168.938 321.096 168.784 321.532 168.518 321.915C168.257 322.298 167.911 322.599 167.482 322.818C167.057 323.033 166.567 323.14 166.012 323.14C165.349 323.14 164.759 322.995 164.241 322.706C163.728 322.412 163.324 321.987 163.03 321.432C162.736 320.872 162.589 320.198 162.589 319.409C162.589 318.658 162.727 318 163.002 317.435C163.277 316.866 163.672 316.422 164.185 316.105C164.698 315.783 165.307 315.622 166.012 315.622ZM173.573 323.14C172.882 323.14 172.28 322.993 171.767 322.699C171.253 322.4 170.854 321.973 170.57 321.418C170.29 320.863 170.15 320.195 170.15 319.416C170.15 318.66 170.285 317.997 170.556 317.428C170.831 316.859 171.225 316.415 171.739 316.098C172.252 315.781 172.866 315.622 173.58 315.622C174.27 315.622 174.87 315.774 175.379 316.077C175.887 316.38 176.279 316.814 176.555 317.379C176.835 317.944 176.975 318.623 176.975 319.416C176.975 320.149 176.842 320.795 176.576 321.355C176.314 321.91 175.929 322.347 175.421 322.664C174.917 322.981 174.301 323.14 173.573 323.14ZM173.58 321.845C173.972 321.845 174.294 321.738 174.546 321.523C174.802 321.308 174.991 321.014 175.113 320.641C175.239 320.268 175.302 319.843 175.302 319.367C175.302 318.924 175.246 318.515 175.134 318.142C175.026 317.769 174.844 317.47 174.588 317.246C174.336 317.017 174 316.903 173.58 316.903C173.183 316.903 172.854 317.008 172.593 317.218C172.336 317.423 172.142 317.713 172.012 318.086C171.886 318.455 171.823 318.882 171.823 319.367C171.823 319.806 171.879 320.214 171.991 320.592C172.107 320.965 172.294 321.269 172.551 321.502C172.807 321.731 173.15 321.845 173.58 321.845ZM181.05 323.14C180.695 323.14 180.352 323.089 180.021 322.986C179.694 322.879 179.4 322.725 179.139 322.524C178.877 322.319 178.67 322.067 178.516 321.768C178.362 321.469 178.285 321.122 178.285 320.725V315.762H179.993V320.529C179.993 320.921 180.116 321.243 180.364 321.495C180.616 321.747 180.994 321.873 181.498 321.873C181.955 321.873 182.321 321.754 182.597 321.516C182.872 321.273 183.01 320.926 183.01 320.473V315.762H184.704V323H183.395L183.206 321.586C183.117 321.983 182.961 322.295 182.737 322.524C182.517 322.748 182.258 322.907 181.96 323C181.666 323.093 181.362 323.14 181.05 323.14ZM186.593 323V315.762H188.259V316.798C188.371 316.611 188.523 316.432 188.714 316.259C188.91 316.086 189.15 315.946 189.435 315.839C189.72 315.732 190.053 315.678 190.436 315.678C190.884 315.678 191.299 315.767 191.682 315.944C192.069 316.121 192.38 316.399 192.613 316.777C192.851 317.155 192.97 317.643 192.97 318.24V323H191.262V318.443C191.262 317.967 191.131 317.615 190.87 317.386C190.609 317.153 190.28 317.036 189.883 317.036C189.612 317.036 189.356 317.083 189.113 317.176C188.87 317.265 188.672 317.402 188.518 317.589C188.369 317.771 188.294 318 188.294 318.275V323H186.593ZM198.543 316.966H196.926L196.933 321.117C196.933 321.332 196.956 321.49 197.003 321.593C197.054 321.691 197.134 321.756 197.241 321.789C197.353 321.817 197.502 321.831 197.689 321.831H198.578V322.909C198.485 322.946 198.342 322.979 198.151 323.007C197.964 323.04 197.712 323.056 197.395 323.056C196.821 323.056 196.375 322.981 196.058 322.832C195.745 322.678 195.528 322.461 195.407 322.181C195.286 321.901 195.225 321.567 195.225 321.18V316.966H194.049V315.762H195.274L195.701 313.613H196.926V315.755H198.543V316.966ZM203.3 323V312.598H204.98V316.812C205.097 316.63 205.251 316.455 205.442 316.287C205.633 316.114 205.867 315.974 206.142 315.867C206.422 315.755 206.756 315.699 207.143 315.699C207.605 315.699 208.027 315.788 208.41 315.965C208.793 316.142 209.098 316.399 209.327 316.735C209.556 317.066 209.67 317.463 209.67 317.925V323H207.962V318.212C207.962 317.839 207.829 317.549 207.563 317.344C207.302 317.139 206.97 317.036 206.569 317.036C206.303 317.036 206.049 317.083 205.806 317.176C205.563 317.269 205.367 317.409 205.218 317.596C205.073 317.778 205.001 318.007 205.001 318.282V323H203.3ZM213.499 323.14C213.037 323.14 212.622 323.056 212.253 322.888C211.889 322.715 211.602 322.47 211.392 322.153C211.187 321.831 211.084 321.441 211.084 320.984C211.084 320.186 211.371 319.584 211.945 319.178C212.524 318.772 213.446 318.56 214.71 318.541L215.788 318.513V318.023C215.788 317.64 215.674 317.342 215.445 317.127C215.221 316.908 214.871 316.8 214.395 316.805C214.045 316.81 213.723 316.894 213.429 317.057C213.14 317.216 212.949 317.484 212.855 317.862H211.406C211.434 317.367 211.577 316.954 211.833 316.623C212.095 316.287 212.452 316.037 212.904 315.874C213.357 315.706 213.88 315.622 214.472 315.622C215.163 315.622 215.725 315.713 216.159 315.895C216.593 316.077 216.913 316.341 217.118 316.686C217.324 317.027 217.426 317.44 217.426 317.925V323H215.991L215.858 321.698C215.597 322.244 215.266 322.622 214.864 322.832C214.468 323.037 214.013 323.14 213.499 323.14ZM214.052 321.985C214.262 321.985 214.47 321.948 214.675 321.873C214.881 321.794 215.067 321.689 215.235 321.558C215.403 321.423 215.536 321.273 215.634 321.11C215.737 320.947 215.788 320.776 215.788 320.599V319.458L214.899 319.472C214.461 319.477 214.078 319.523 213.751 319.612C213.425 319.701 213.168 319.843 212.981 320.039C212.799 320.23 212.708 320.487 212.708 320.809C212.708 321.178 212.837 321.467 213.093 321.677C213.35 321.882 213.67 321.985 214.052 321.985ZM222.046 323.14C221.542 323.14 221.064 323.061 220.611 322.902C220.163 322.739 219.785 322.484 219.477 322.139C219.174 321.794 218.983 321.348 218.903 320.802H220.401C220.467 321.068 220.581 321.285 220.744 321.453C220.912 321.621 221.111 321.745 221.339 321.824C221.568 321.899 221.801 321.936 222.039 321.936C222.473 321.936 222.823 321.861 223.089 321.712C223.36 321.563 223.495 321.332 223.495 321.019C223.495 320.79 223.421 320.608 223.271 320.473C223.122 320.338 222.884 320.235 222.557 320.165L221.178 319.85C220.567 319.715 220.075 319.491 219.701 319.178C219.333 318.865 219.146 318.424 219.141 317.855C219.137 317.426 219.244 317.043 219.463 316.707C219.683 316.371 220.009 316.107 220.443 315.916C220.877 315.72 221.414 315.622 222.053 315.622C222.898 315.622 223.575 315.811 224.083 316.189C224.592 316.562 224.853 317.097 224.867 317.792H223.418C223.367 317.479 223.22 317.237 222.977 317.064C222.735 316.887 222.42 316.798 222.032 316.798C221.631 316.798 221.302 316.875 221.045 317.029C220.789 317.183 220.66 317.419 220.66 317.736C220.66 317.955 220.758 318.128 220.954 318.254C221.15 318.38 221.444 318.487 221.836 318.576L223.138 318.891C223.512 318.984 223.817 319.11 224.055 319.269C224.293 319.428 224.48 319.603 224.615 319.794C224.751 319.981 224.844 320.174 224.895 320.375C224.951 320.571 224.979 320.753 224.979 320.921C224.979 321.388 224.858 321.787 224.615 322.118C224.377 322.445 224.039 322.697 223.6 322.874C223.162 323.051 222.644 323.14 222.046 323.14ZM233.427 323.14C233.039 323.14 232.708 323.089 232.433 322.986C232.157 322.883 231.926 322.75 231.74 322.587C231.558 322.424 231.411 322.249 231.299 322.062C231.191 321.871 231.11 321.689 231.054 321.516L230.858 323H229.605V312.598H231.313V316.819C231.387 316.679 231.49 316.539 231.621 316.399C231.756 316.259 231.919 316.131 232.111 316.014C232.302 315.897 232.519 315.804 232.762 315.734C233.009 315.659 233.282 315.622 233.581 315.622C234.481 315.622 235.193 315.942 235.716 316.581C236.238 317.22 236.5 318.142 236.5 319.346C236.5 320.107 236.383 320.772 236.15 321.341C235.921 321.91 235.578 322.354 235.121 322.671C234.668 322.984 234.103 323.14 233.427 323.14ZM233.077 321.887C233.585 321.887 234.003 321.684 234.33 321.278C234.656 320.872 234.82 320.214 234.82 319.304C234.82 318.511 234.666 317.911 234.358 317.505C234.05 317.094 233.616 316.889 233.056 316.889C232.654 316.889 232.325 316.98 232.069 317.162C231.817 317.344 231.628 317.615 231.502 317.974C231.38 318.333 231.317 318.777 231.313 319.304C231.313 320.228 231.453 320.891 231.733 321.292C232.017 321.689 232.465 321.887 233.077 321.887ZM239.35 319.773C239.345 320.184 239.411 320.548 239.546 320.865C239.681 321.182 239.882 321.432 240.148 321.614C240.414 321.791 240.743 321.88 241.135 321.88C241.536 321.88 241.884 321.791 242.178 321.614C242.477 321.432 242.675 321.157 242.773 320.788H244.334C244.25 321.292 244.049 321.719 243.732 322.069C243.415 322.419 243.03 322.685 242.577 322.867C242.129 323.049 241.662 323.14 241.177 323.14C240.477 323.14 239.861 322.993 239.329 322.699C238.802 322.4 238.389 321.976 238.09 321.425C237.796 320.874 237.649 320.219 237.649 319.458C237.649 318.716 237.784 318.058 238.055 317.484C238.326 316.905 238.715 316.45 239.224 316.119C239.737 315.788 240.353 315.622 241.072 315.622C241.786 315.622 242.386 315.774 242.871 316.077C243.361 316.38 243.73 316.805 243.977 317.351C244.229 317.892 244.355 318.527 244.355 319.255V319.773H239.35ZM239.35 318.716H242.745C242.745 318.366 242.684 318.051 242.563 317.771C242.442 317.486 242.255 317.262 242.003 317.099C241.756 316.931 241.443 316.847 241.065 316.847C240.692 316.847 240.377 316.938 240.12 317.12C239.863 317.302 239.67 317.538 239.539 317.827C239.408 318.112 239.345 318.408 239.35 318.716ZM247.28 319.773C247.275 320.184 247.34 320.548 247.476 320.865C247.611 321.182 247.812 321.432 248.078 321.614C248.344 321.791 248.673 321.88 249.065 321.88C249.466 321.88 249.814 321.791 250.108 321.614C250.406 321.432 250.605 321.157 250.703 320.788H252.264C252.18 321.292 251.979 321.719 251.662 322.069C251.344 322.419 250.959 322.685 250.507 322.867C250.059 323.049 249.592 323.14 249.107 323.14C248.407 323.14 247.791 322.993 247.259 322.699C246.731 322.4 246.318 321.976 246.02 321.425C245.726 320.874 245.579 320.219 245.579 319.458C245.579 318.716 245.714 318.058 245.985 317.484C246.255 316.905 246.645 316.45 247.154 316.119C247.667 315.788 248.283 315.622 249.002 315.622C249.716 315.622 250.315 315.774 250.801 316.077C251.291 316.38 251.659 316.805 251.907 317.351C252.159 317.892 252.285 318.527 252.285 319.255V319.773H247.28ZM247.28 318.716H250.675C250.675 318.366 250.614 318.051 250.493 317.771C250.371 317.486 250.185 317.262 249.933 317.099C249.685 316.931 249.373 316.847 248.995 316.847C248.621 316.847 248.306 316.938 248.05 317.12C247.793 317.302 247.599 317.538 247.469 317.827C247.338 318.112 247.275 318.408 247.28 318.716ZM253.872 323V315.762H255.538V316.798C255.65 316.611 255.802 316.432 255.993 316.259C256.189 316.086 256.43 315.946 256.714 315.839C256.999 315.732 257.333 315.678 257.715 315.678C258.163 315.678 258.579 315.767 258.961 315.944C259.349 316.121 259.659 316.399 259.892 316.777C260.13 317.155 260.249 317.643 260.249 318.24V323H258.541V318.443C258.541 317.967 258.411 317.615 258.149 317.386C257.888 317.153 257.559 317.036 257.162 317.036C256.892 317.036 256.635 317.083 256.392 317.176C256.15 317.265 255.951 317.402 255.797 317.589C255.648 317.771 255.573 318 255.573 318.275V323H253.872ZM271.061 315.762L268.394 323H267.05L264.376 315.762H265.937L267.673 320.83H267.764L269.493 315.762H271.061ZM273.338 319.773C273.333 320.184 273.399 320.548 273.534 320.865C273.669 321.182 273.87 321.432 274.136 321.614C274.402 321.791 274.731 321.88 275.123 321.88C275.524 321.88 275.872 321.791 276.166 321.614C276.465 321.432 276.663 321.157 276.761 320.788H278.322C278.238 321.292 278.037 321.719 277.72 322.069C277.403 322.419 277.018 322.685 276.565 322.867C276.117 323.049 275.65 323.14 275.165 323.14C274.465 323.14 273.849 322.993 273.317 322.699C272.79 322.4 272.377 321.976 272.078 321.425C271.784 320.874 271.637 320.219 271.637 319.458C271.637 318.716 271.772 318.058 272.043 317.484C272.314 316.905 272.703 316.45 273.212 316.119C273.725 315.788 274.341 315.622 275.06 315.622C275.774 315.622 276.374 315.774 276.859 316.077C277.349 316.38 277.718 316.805 277.965 317.351C278.217 317.892 278.343 318.527 278.343 319.255V319.773H273.338ZM273.338 318.716H276.733C276.733 318.366 276.672 318.051 276.551 317.771C276.43 317.486 276.243 317.262 275.991 317.099C275.744 316.931 275.431 316.847 275.053 316.847C274.68 316.847 274.365 316.938 274.108 317.12C273.851 317.302 273.658 317.538 273.527 317.827C273.396 318.112 273.333 318.408 273.338 318.716ZM279.931 323V315.762H281.562V317.33C281.679 316.971 281.844 316.665 282.059 316.413C282.278 316.156 282.535 315.96 282.829 315.825C283.123 315.69 283.443 315.622 283.788 315.622C283.872 315.622 283.954 315.627 284.033 315.636C284.112 315.645 284.171 315.662 284.208 315.685V317.316C284.157 317.293 284.089 317.276 284.005 317.267C283.926 317.258 283.856 317.253 283.795 317.253C283.445 317.225 283.135 317.239 282.864 317.295C282.598 317.351 282.372 317.447 282.185 317.582C282.003 317.713 281.865 317.881 281.772 318.086C281.679 318.287 281.632 318.522 281.632 318.793V323H279.931ZM287.266 315.762V323H285.628V315.762H287.266ZM287.287 312.885V314.495H285.6V312.885H287.287ZM293.586 315.762V316.966H291.955V323H290.254V316.966H288.826V315.762H290.254V314.684C290.254 314.105 290.413 313.66 290.73 313.347C291.052 313.034 291.517 312.878 292.123 312.878H293.649L293.656 314.04H292.648C292.373 314.04 292.184 314.112 292.081 314.257C291.979 314.397 291.927 314.619 291.927 314.922V315.762H293.586ZM296.729 315.762V323H295.091V315.762H296.729ZM296.75 312.885V314.495H295.063V312.885H296.75ZM300.108 319.773C300.103 320.184 300.168 320.548 300.304 320.865C300.439 321.182 300.64 321.432 300.906 321.614C301.172 321.791 301.501 321.88 301.893 321.88C302.294 321.88 302.642 321.791 302.936 321.614C303.234 321.432 303.433 321.157 303.531 320.788H305.092C305.008 321.292 304.807 321.719 304.49 322.069C304.172 322.419 303.787 322.685 303.335 322.867C302.887 323.049 302.42 323.14 301.935 323.14C301.235 323.14 300.619 322.993 300.087 322.699C299.559 322.4 299.146 321.976 298.848 321.425C298.554 320.874 298.407 320.219 298.407 319.458C298.407 318.716 298.542 318.058 298.813 317.484C299.083 316.905 299.473 316.45 299.982 316.119C300.495 315.788 301.111 315.622 301.83 315.622C302.544 315.622 303.143 315.774 303.629 316.077C304.119 316.38 304.487 316.805 304.735 317.351C304.987 317.892 305.113 318.527 305.113 319.255V319.773H300.108ZM300.108 318.716H303.503C303.503 318.366 303.442 318.051 303.321 317.771C303.199 317.486 303.013 317.262 302.761 317.099C302.513 316.931 302.201 316.847 301.823 316.847C301.449 316.847 301.134 316.938 300.878 317.12C300.621 317.302 300.427 317.538 300.297 317.827C300.166 318.112 300.103 318.408 300.108 318.716ZM309.353 323.14C308.397 323.14 307.645 322.811 307.099 322.153C306.553 321.495 306.28 320.559 306.28 319.346C306.28 318.59 306.39 317.934 306.609 317.379C306.833 316.819 307.16 316.387 307.589 316.084C308.023 315.776 308.56 315.622 309.199 315.622C309.498 315.622 309.769 315.659 310.011 315.734C310.259 315.804 310.478 315.897 310.669 316.014C310.861 316.131 311.022 316.259 311.152 316.399C311.288 316.539 311.393 316.679 311.467 316.819V312.598H313.175V323H311.915L311.726 321.516C311.67 321.689 311.586 321.871 311.474 322.062C311.367 322.249 311.22 322.424 311.033 322.587C310.851 322.75 310.623 322.883 310.347 322.986C310.072 323.089 309.741 323.14 309.353 323.14ZM309.703 321.887C310.315 321.887 310.76 321.689 311.04 321.292C311.325 320.891 311.467 320.228 311.467 319.304C311.463 318.777 311.397 318.333 311.271 317.974C311.15 317.615 310.961 317.344 310.704 317.162C310.452 316.98 310.126 316.889 309.724 316.889C309.211 316.889 308.789 317.078 308.457 317.456C308.126 317.834 307.96 318.45 307.96 319.304C307.96 320.153 308.112 320.797 308.415 321.236C308.719 321.67 309.148 321.887 309.703 321.887Z" fill="#40923A"/>
<defs>
<filter id="filter0_d_520_2186" x="77.5" y="820.5" width="279" height="71" filterUnits="userSpaceOnUse" color-interpolation-filters="sRGB">
<feFlood flood-opacity="0" result="BackgroundImageFix"/>
<feColorMatrix in="SourceAlpha" type="matrix" values="0 0 0 0 0 0 0 0 0 0 0 0 0 0 0 0 0 0 127 0" result="hardAlpha"/>
<feOffset dx="3" dy="4"/>
<feGaussianBlur stdDeviation="3.75"/>
<feComposite in2="hardAlpha" operator="out"/>
<feColorMatrix type="matrix" values="0 0 0 0 0.529412 0 0 0 0 0.462745 0 0 0 0 0.341176 0 0 0 0.3 0"/>
<feBlend mode="normal" in2="BackgroundImageFix" result="effect1_dropShadow_520_2186"/>
<feBlend mode="normal" in="SourceGraphic" in2="effect1_dropShadow_520_2186" result="shape"/>
</filter>
<clipPath id="clip0_520_2186">
<rect width="119" height="119" fill="white" transform="translate(155 22)"/>
</clipPath>
</defs>
</svg>
