<svg width="428" height="926" viewBox="0 0 428 926" fill="none" xmlns="http://www.w3.org/2000/svg">
<rect width="428" height="926" fill="#F8F2E9"/>
<rect x="23" y="176" width="382" height="50" rx="6" fill="#FCFCFC" stroke="white" stroke-width="4"/>
<path d="M365.5 210C371.299 210 376 205.299 376 199.5C376 193.701 371.299 189 365.5 189C359.701 189 355 193.701 355 199.5C355 205.299 359.701 210 365.5 210Z" stroke="#4A4A4A" stroke-width="2" stroke-linecap="round" stroke-linejoin="round"/>
<path d="M372.925 206.925L379 213" stroke="#4A4A4A" stroke-width="2" stroke-linecap="round" stroke-linejoin="round"/>
<path d="M25.134 258.878H32.022L32.015 260.586H27.192V263.127H31.371V264.8H27.192V269H25.134V258.878ZM33.7199 258.878H35.7569V269H33.7199V258.878ZM38.0266 258.878H40.0846V267.271H44.4806V269H38.0266V258.878ZM43.9672 260.698V258.878H52.0662V260.698H49.0772V269H47.0262V260.698H43.9672ZM53.4621 269V258.878H60.4131L60.4061 260.6H55.5131V263.057H59.7621V264.744H55.4991V267.257L60.4831 267.264V269H53.4621ZM70.2849 269H68.1639L66.5189 265.101H64.4679V269H62.4309V258.878H66.7009C67.5082 258.878 68.1685 259.006 68.6819 259.263C69.1952 259.52 69.5732 259.877 69.8159 260.334C70.0585 260.787 70.1799 261.309 70.1799 261.902C70.1799 262.434 70.0959 262.884 69.9279 263.253C69.7645 263.617 69.5475 263.92 69.2769 264.163C69.0109 264.406 68.7192 264.604 68.4019 264.758L70.2849 269ZM66.3369 263.526C66.8829 263.526 67.3145 263.379 67.6319 263.085C67.9539 262.791 68.1149 262.413 68.1149 261.951C68.1149 261.484 67.9609 261.116 67.6529 260.845C67.3449 260.574 66.9552 260.439 66.4839 260.439H64.4679V263.526H66.3369Z" fill="#4A4A4A"/>
<path d="M93.875 268.125H83.75" stroke="#4A4A4A" stroke-width="1.65" stroke-linecap="round" stroke-linejoin="round"/>
<path d="M100.25 268.125H97.625" stroke="#4A4A4A" stroke-width="1.65" stroke-linecap="round" stroke-linejoin="round"/>
<path d="M95.75 270C96.7855 270 97.625 269.161 97.625 268.125C97.625 267.089 96.7855 266.25 95.75 266.25C94.7145 266.25 93.875 267.089 93.875 268.125C93.875 269.161 94.7145 270 95.75 270Z" fill="#4A4A4A" stroke="#4A4A4A" stroke-width="1.5" stroke-linecap="round" stroke-linejoin="round"/>
<path d="M87.875 259.875H83.75" stroke="#4A4A4A" stroke-width="1.65" stroke-linecap="round" stroke-linejoin="round"/>
<path d="M100.25 259.875H91.625" stroke="#4A4A4A" stroke-width="1.65" stroke-linecap="round" stroke-linejoin="round"/>
<path d="M89.75 261.75C90.7855 261.75 91.625 260.911 91.625 259.875C91.625 258.839 90.7855 258 89.75 258C88.7145 258 87.875 258.839 87.875 259.875C87.875 260.911 88.7145 261.75 89.75 261.75Z" fill="#4A4A4A" stroke="#4A4A4A" stroke-width="1.5" stroke-linecap="round" stroke-linejoin="round"/>
<path d="M100 331.5H70C69.1716 331.5 68.5 332.172 68.5 333V363C68.5 363.828 69.1716 364.5 70 364.5H100C100.828 364.5 101.5 363.828 101.5 363V333C101.5 332.172 100.828 331.5 100 331.5Z" stroke="#4A4A4A" stroke-width="3" stroke-linecap="round" stroke-linejoin="round"/>
<path d="M94 328.5V334.5" stroke="#4A4A4A" stroke-width="3" stroke-linecap="round" stroke-linejoin="round"/>
<path d="M76 328.5V334.5" stroke="#4A4A4A" stroke-width="3" stroke-linecap="round" stroke-linejoin="round"/>
<path d="M68.5 340.5H101.5" stroke="#4A4A4A" stroke-width="3" stroke-linecap="round" stroke-linejoin="round"/>
<path d="M78.25 348H83.5L80.5 351.75C80.9937 351.749 81.48 351.87 81.9158 352.102C82.3515 352.334 82.7232 352.671 82.9979 353.081C83.2726 353.491 83.4418 353.963 83.4905 354.454C83.5392 354.945 83.4659 355.441 83.2771 355.897C83.0882 356.354 82.7897 356.756 82.408 357.069C82.0264 357.382 81.5733 357.597 81.089 357.693C80.6047 357.789 80.1042 357.764 79.6319 357.62C79.1595 357.476 78.7299 357.218 78.3812 356.869" stroke="#4A4A4A" stroke-width="3" stroke-linecap="round" stroke-linejoin="round"/>
<path d="M88 350.25L91 348V357.75" stroke="#4A4A4A" stroke-width="3" stroke-linecap="round" stroke-linejoin="round"/>
<path d="M137.385 353L141.011 342.878H143.167L146.786 353H144.749L143.923 350.655H140.283L139.436 353H137.385ZM140.738 348.87H143.433L142.096 344.852L140.738 348.87ZM155.154 342.878L151.661 353H149.344L145.879 342.878H147.832L150.506 350.627L153.201 342.878H155.154ZM154.352 353L157.978 342.878H160.134L163.753 353H161.716L160.89 350.655H157.25L156.403 353H154.352ZM157.705 348.87H160.4L159.063 344.852L157.705 348.87ZM165.273 342.878H167.31V353H165.273V342.878ZM169.579 342.878H171.637V351.271H176.033V353H169.579V342.878ZM177.115 353L180.741 342.878H182.897L186.516 353H184.479L183.653 350.655H180.013L179.166 353H177.115ZM180.468 348.87H183.163L181.826 344.852L180.468 348.87ZM188.036 353V342.878H191.704C193.03 342.878 194.012 343.107 194.651 343.564C195.295 344.017 195.617 344.672 195.617 345.531C195.617 346.035 195.489 346.474 195.232 346.847C194.976 347.216 194.518 347.538 193.86 347.813C194.285 347.92 194.628 348.065 194.889 348.247C195.151 348.429 195.351 348.632 195.491 348.856C195.631 349.075 195.727 349.306 195.778 349.549C195.83 349.787 195.855 350.023 195.855 350.256C195.855 351.189 195.538 351.88 194.903 352.328C194.269 352.776 193.258 353 191.872 353H188.036ZM190.073 351.418H191.914C192.53 351.418 192.995 351.294 193.307 351.047C193.625 350.8 193.783 350.468 193.783 350.053C193.783 349.754 193.706 349.505 193.552 349.304C193.398 349.099 193.188 348.945 192.922 348.842C192.661 348.739 192.362 348.688 192.026 348.688H190.073V351.418ZM190.073 347.064H192.026C192.236 347.064 192.437 347.041 192.628 346.994C192.824 346.943 192.997 346.866 193.146 346.763C193.3 346.66 193.422 346.53 193.51 346.371C193.599 346.208 193.643 346.016 193.643 345.797C193.643 345.358 193.478 345.027 193.146 344.803C192.82 344.574 192.4 344.46 191.886 344.46H190.073V347.064ZM197.812 342.878H199.849V353H197.812V342.878ZM202.118 342.878H204.176V351.271H208.572V353H202.118V342.878ZM210.198 342.878H212.235V353H210.198V342.878ZM213.637 344.698V342.878H221.736V344.698H218.747V353H216.696V344.698H213.637ZM231.757 342.878L228.236 348.744V353H226.192V348.737L222.678 342.878H224.89L227.221 346.98L229.524 342.878H231.757Z" fill="#4A4A4A"/>
<path d="M85 452L73.6 443.45C73.4148 443.309 73.2643 443.128 73.1603 442.92C73.0563 442.712 73.0014 442.483 73 442.25V435.5C73 435.102 73.158 434.721 73.4393 434.439C73.7206 434.158 74.1022 434 74.5 434H95.5C95.8978 434 96.2794 434.158 96.5607 434.439C96.842 434.721 97 435.102 97 435.5V442.175C96.9986 442.408 96.9437 442.637 96.8397 442.845C96.7357 443.053 96.5852 443.234 96.4 443.375L85 452Z" stroke="#4A4A4A" stroke-width="3" stroke-linecap="round" stroke-linejoin="round"/>
<path d="M85 452L73.6 460.55C73.4148 460.691 73.2643 460.872 73.1603 461.08C73.0563 461.288 73.0014 461.517 73 461.75V468.5C73 468.898 73.158 469.279 73.4393 469.561C73.7206 469.842 74.1022 470 74.5 470H95.5C95.8978 470 96.2794 469.842 96.5607 469.561C96.842 469.279 97 468.898 97 468.5V461.825C96.9986 461.592 96.9437 461.363 96.8397 461.155C96.7357 460.947 96.5852 460.766 96.4 460.625L85 452Z" stroke="#4A4A4A" stroke-width="3" stroke-linecap="round" stroke-linejoin="round"/>
<path d="M75.0059 444.5H94.9184" stroke="#4A4A4A" stroke-width="3" stroke-linecap="round" stroke-linejoin="round"/>
<path d="M85 459.5V452" stroke="#4A4A4A" stroke-width="3" stroke-linecap="round" stroke-linejoin="round"/>
<path d="M138.134 446.878C138.185 446.878 138.328 446.878 138.561 446.878C138.799 446.878 139.077 446.878 139.394 446.878C139.716 446.878 140.036 446.88 140.353 446.885C140.675 446.885 140.943 446.887 141.158 446.892C142.385 446.92 143.386 447.139 144.161 447.55C144.936 447.961 145.503 448.535 145.862 449.272C146.226 450.009 146.408 450.882 146.408 451.89C146.408 452.94 146.217 453.848 145.834 454.613C145.451 455.374 144.866 455.962 144.077 456.377C143.293 456.792 142.297 457 141.088 457H138.134V446.878ZM140.192 448.53V455.348H141.13C141.709 455.348 142.234 455.236 142.705 455.012C143.181 454.788 143.561 454.422 143.846 453.913C144.131 453.404 144.273 452.725 144.273 451.876C144.273 451.087 144.147 450.448 143.895 449.958C143.643 449.463 143.284 449.102 142.817 448.873C142.35 448.644 141.797 448.53 141.158 448.53H140.192ZM156.309 453.143C156.309 453.96 156.176 454.669 155.91 455.271C155.644 455.868 155.213 456.33 154.615 456.657C154.023 456.979 153.236 457.14 152.256 457.14C151.272 457.14 150.483 456.977 149.89 456.65C149.298 456.319 148.868 455.85 148.602 455.243C148.341 454.636 148.21 453.913 148.21 453.073V446.878H150.289V453.227C150.289 453.983 150.471 454.536 150.835 454.886C151.199 455.231 151.673 455.404 152.256 455.404C152.644 455.404 152.987 455.329 153.285 455.18C153.584 455.026 153.817 454.79 153.985 454.473C154.158 454.151 154.244 453.736 154.244 453.227V446.878H156.309V453.143ZM166.195 457H164.074L162.429 453.101H160.378V457H158.341V446.878H162.611C163.418 446.878 164.079 447.006 164.592 447.263C165.105 447.52 165.483 447.877 165.726 448.334C165.969 448.787 166.09 449.309 166.09 449.902C166.09 450.434 166.006 450.884 165.838 451.253C165.675 451.617 165.458 451.92 165.187 452.163C164.921 452.406 164.629 452.604 164.312 452.758L166.195 457ZM162.247 451.526C162.793 451.526 163.225 451.379 163.542 451.085C163.864 450.791 164.025 450.413 164.025 449.951C164.025 449.484 163.871 449.116 163.563 448.845C163.255 448.574 162.865 448.439 162.394 448.439H160.378V451.526H162.247ZM167.436 457L171.062 446.878H173.218L176.837 457H174.8L173.974 454.655H170.334L169.487 457H167.436ZM170.789 452.87H173.484L172.147 448.852L170.789 452.87ZM176.668 448.698V446.878H184.767V448.698H181.778V457H179.727V448.698H176.668ZM186.163 446.878H188.2V457H186.163V446.878ZM194.677 457.14C193.72 457.14 192.892 456.932 192.192 456.517C191.497 456.097 190.958 455.502 190.575 454.732C190.197 453.957 190.008 453.033 190.008 451.96C190.008 450.882 190.199 449.953 190.582 449.174C190.969 448.395 191.513 447.795 192.213 447.375C192.913 446.95 193.734 446.738 194.677 446.738C195.615 446.738 196.432 446.948 197.127 447.368C197.822 447.788 198.359 448.388 198.737 449.167C199.12 449.946 199.311 450.877 199.311 451.96C199.311 453.029 199.122 453.95 198.744 454.725C198.371 455.5 197.836 456.097 197.141 456.517C196.446 456.932 195.624 457.14 194.677 457.14ZM194.677 455.46C195.172 455.46 195.599 455.343 195.958 455.11C196.322 454.872 196.602 454.499 196.798 453.99C196.994 453.477 197.092 452.809 197.092 451.988C197.092 451.143 196.992 450.46 196.791 449.937C196.595 449.414 196.315 449.032 195.951 448.789C195.592 448.542 195.167 448.418 194.677 448.418C194.187 448.418 193.76 448.542 193.396 448.789C193.032 449.032 192.75 449.417 192.549 449.944C192.348 450.467 192.248 451.148 192.248 451.988C192.248 452.814 192.348 453.481 192.549 453.99C192.75 454.499 193.032 454.872 193.396 455.11C193.76 455.343 194.187 455.46 194.677 455.46ZM207.763 446.878H209.807V457H207.966L203.157 450.035V457H201.12V446.878H203.143L207.763 453.577V446.878ZM219.245 457.14C218.289 457.14 217.46 456.932 216.76 456.517C216.065 456.097 215.526 455.502 215.143 454.732C214.765 453.957 214.576 453.033 214.576 451.96C214.576 450.882 214.768 449.953 215.15 449.174C215.538 448.395 216.081 447.795 216.781 447.375C217.481 446.95 218.303 446.738 219.245 446.738C220.183 446.738 221 446.948 221.695 447.368C222.391 447.788 222.927 448.388 223.305 449.167C223.688 449.946 223.879 450.877 223.879 451.96C223.879 453.029 223.69 453.95 223.312 454.725C222.939 455.5 222.405 456.097 221.709 456.517C221.014 456.932 220.193 457.14 219.245 457.14ZM219.245 455.46C219.74 455.46 220.167 455.343 220.526 455.11C220.89 454.872 221.17 454.499 221.366 453.99C221.562 453.477 221.66 452.809 221.66 451.988C221.66 451.143 221.56 450.46 221.359 449.937C221.163 449.414 220.883 449.032 220.519 448.789C220.16 448.542 219.735 448.418 219.245 448.418C218.755 448.418 218.328 448.542 217.964 448.789C217.6 449.032 217.318 449.417 217.117 449.944C216.917 450.467 216.816 451.148 216.816 451.988C216.816 452.814 216.917 453.481 217.117 453.99C217.318 454.499 217.6 454.872 217.964 455.11C218.328 455.343 218.755 455.46 219.245 455.46ZM225.689 446.878H232.577L232.57 448.586H227.747V451.127H231.926V452.8H227.747V457H225.689V446.878ZM245.095 457H242.974L241.329 453.101H239.278V457H237.241V446.878H241.511C242.319 446.878 242.979 447.006 243.492 447.263C244.006 447.52 244.384 447.877 244.626 448.334C244.869 448.787 244.99 449.309 244.99 449.902C244.99 450.434 244.906 450.884 244.738 451.253C244.575 451.617 244.358 451.92 244.087 452.163C243.821 452.406 243.53 452.604 243.212 452.758L245.095 457ZM241.147 451.526C241.693 451.526 242.125 451.379 242.442 451.085C242.764 450.791 242.925 450.413 242.925 449.951C242.925 449.484 242.771 449.116 242.463 448.845C242.155 448.574 241.766 448.439 241.294 448.439H239.278V451.526H241.147ZM246.989 457V446.878H253.94L253.933 448.6H249.04V451.057H253.289V452.744H249.026V455.257L254.01 455.264V457H246.989ZM262.601 446.878H264.645V457H262.804L257.995 450.035V457H255.958V446.878H257.981L262.601 453.577V446.878ZM266.041 448.698V446.878H274.14V448.698H271.151V457H269.1V448.698H266.041Z" fill="#4A4A4A"/>
<rect x="116.25" y="679.25" width="195.5" height="48.5" rx="2.75" fill="#616161"/>
<path d="M172.612 709L176.756 697.432H179.22L183.356 709H181.028L180.084 706.32H175.924L174.956 709H172.612ZM176.444 704.28H179.524L177.996 699.688L176.444 704.28ZM187.603 709.16C186.494 709.16 185.63 708.779 185.011 708.016C184.393 707.248 184.083 706.181 184.083 704.816C184.083 703.952 184.209 703.203 184.459 702.568C184.71 701.933 185.081 701.443 185.571 701.096C186.062 700.744 186.662 700.568 187.371 700.568C187.67 700.568 187.947 700.603 188.203 700.672C188.465 700.736 188.702 700.827 188.915 700.944C189.129 701.061 189.315 701.197 189.475 701.352C189.635 701.507 189.766 701.672 189.867 701.848V697.112H192.211V709H190.515L190.251 707.304C190.177 707.533 190.073 707.757 189.939 707.976C189.806 708.195 189.635 708.395 189.427 708.576C189.219 708.752 188.963 708.893 188.659 709C188.361 709.107 188.009 709.16 187.603 709.16ZM188.115 707.48C188.702 707.48 189.139 707.275 189.427 706.864C189.721 706.453 189.867 705.76 189.867 704.784C189.862 704.219 189.795 703.749 189.667 703.376C189.539 703.003 189.347 702.725 189.091 702.544C188.841 702.357 188.521 702.264 188.131 702.264C187.625 702.264 187.203 702.459 186.867 702.848C186.531 703.232 186.363 703.877 186.363 704.784C186.363 705.707 186.521 706.387 186.835 706.824C187.15 707.261 187.577 707.48 188.115 707.48ZM197.291 709.16C196.181 709.16 195.317 708.779 194.699 708.016C194.08 707.248 193.771 706.181 193.771 704.816C193.771 703.952 193.896 703.203 194.147 702.568C194.397 701.933 194.768 701.443 195.259 701.096C195.749 700.744 196.349 700.568 197.059 700.568C197.357 700.568 197.635 700.603 197.891 700.672C198.152 700.736 198.389 700.827 198.603 700.944C198.816 701.061 199.003 701.197 199.163 701.352C199.323 701.507 199.453 701.672 199.555 701.848V697.112H201.899V709H200.203L199.939 707.304C199.864 707.533 199.76 707.757 199.627 707.976C199.493 708.195 199.323 708.395 199.115 708.576C198.907 708.752 198.651 708.893 198.347 709C198.048 709.107 197.696 709.16 197.291 709.16ZM197.803 707.48C198.389 707.48 198.827 707.275 199.115 706.864C199.408 706.453 199.555 705.76 199.555 704.784C199.549 704.219 199.483 703.749 199.355 703.376C199.227 703.003 199.035 702.725 198.779 702.544C198.528 702.357 198.208 702.264 197.819 702.264C197.312 702.264 196.891 702.459 196.555 702.848C196.219 703.232 196.051 703.877 196.051 704.784C196.051 705.707 196.208 706.387 196.523 706.824C196.837 707.261 197.264 707.48 197.803 707.48ZM207.593 697.432H215.465L215.457 699.384H209.945V702.288H214.721V704.2H209.945V709H207.593V697.432ZM219.461 700.728V709H217.229V700.728H219.461ZM219.485 697.44V699.544H217.213V697.44H219.485ZM224.265 709.144C223.657 709.144 223.174 709.072 222.817 708.928C222.46 708.784 222.196 708.595 222.025 708.36C221.854 708.12 221.745 707.856 221.697 707.568C221.649 707.275 221.625 706.979 221.625 706.68V697.112H223.913V706.392C223.913 706.696 223.977 706.944 224.105 707.136C224.238 707.323 224.486 707.437 224.849 707.48L225.241 707.504V708.944C225.081 708.997 224.918 709.043 224.753 709.08C224.588 709.123 224.425 709.144 224.265 709.144ZM231.399 702.352H229.559L229.575 706.76C229.575 706.963 229.599 707.115 229.647 707.216C229.701 707.312 229.781 707.376 229.887 707.408C229.999 707.435 230.141 707.448 230.311 707.448H231.423V708.888C231.317 708.936 231.149 708.981 230.919 709.024C230.695 709.067 230.381 709.088 229.975 709.088C229.25 709.088 228.687 708.995 228.287 708.808C227.893 708.621 227.618 708.36 227.463 708.024C227.309 707.688 227.231 707.299 227.231 706.856V702.352H225.887V700.728H227.311L227.895 698.232H229.559V700.72H231.399V702.352ZM234.779 705.4C234.774 705.821 234.841 706.189 234.979 706.504C235.118 706.813 235.318 707.053 235.579 707.224C235.846 707.389 236.166 707.472 236.539 707.472C236.939 707.472 237.289 707.387 237.587 707.216C237.891 707.045 238.102 706.765 238.219 706.376H240.323C240.233 706.963 239.998 707.464 239.619 707.88C239.246 708.296 238.793 708.613 238.259 708.832C237.726 709.051 237.171 709.16 236.595 709.16C235.779 709.16 235.059 708.989 234.435 708.648C233.817 708.301 233.334 707.813 232.987 707.184C232.641 706.555 232.467 705.813 232.467 704.96C232.467 704.133 232.625 703.389 232.939 702.728C233.254 702.061 233.71 701.536 234.307 701.152C234.91 700.763 235.633 700.568 236.475 700.568C237.318 700.568 238.025 700.747 238.595 701.104C239.171 701.456 239.603 701.949 239.891 702.584C240.185 703.213 240.331 703.941 240.331 704.768V705.4H234.779ZM234.771 704.008H238.147C238.147 703.677 238.086 703.373 237.963 703.096C237.841 702.819 237.654 702.6 237.403 702.44C237.158 702.28 236.849 702.2 236.475 702.2C236.113 702.2 235.803 702.288 235.547 702.464C235.297 702.635 235.105 702.859 234.971 703.136C234.838 703.413 234.771 703.704 234.771 704.008ZM241.953 709V700.728H244.201V702.688C244.334 702.267 244.521 701.899 244.761 701.584C245.006 701.264 245.302 701.016 245.649 700.84C245.996 700.659 246.388 700.568 246.825 700.568C246.9 700.568 246.969 700.573 247.033 700.584C247.102 700.589 247.153 700.6 247.185 700.616V702.84C247.137 702.819 247.078 702.805 247.009 702.8C246.945 702.795 246.886 702.789 246.833 702.784C246.374 702.747 245.982 702.76 245.657 702.824C245.332 702.888 245.068 702.997 244.865 703.152C244.662 703.307 244.516 703.496 244.425 703.72C244.334 703.944 244.289 704.195 244.289 704.472V709H241.953ZM251.71 709.16C251.134 709.16 250.579 709.067 250.046 708.88C249.512 708.688 249.062 708.389 248.694 707.984C248.326 707.573 248.091 707.043 247.99 706.392H250.014C250.083 706.685 250.208 706.917 250.39 707.088C250.576 707.259 250.787 707.381 251.022 707.456C251.256 707.525 251.48 707.56 251.694 707.56C252.142 707.56 252.502 707.491 252.774 707.352C253.051 707.208 253.19 706.989 253.19 706.696C253.19 706.472 253.107 706.293 252.942 706.16C252.782 706.027 252.515 705.925 252.141 705.856L250.686 705.552C249.955 705.397 249.368 705.136 248.926 704.768C248.483 704.395 248.256 703.867 248.246 703.184C248.246 702.688 248.376 702.243 248.638 701.848C248.904 701.453 249.296 701.141 249.814 700.912C250.331 700.683 250.966 700.568 251.718 700.568C252.736 700.568 253.55 700.792 254.158 701.24C254.771 701.688 255.083 702.32 255.094 703.136H253.142C253.083 702.816 252.923 702.571 252.662 702.4C252.406 702.224 252.083 702.136 251.694 702.136C251.288 702.136 250.955 702.208 250.694 702.352C250.432 702.496 250.302 702.715 250.302 703.008C250.302 703.227 250.408 703.4 250.622 703.528C250.835 703.651 251.166 703.757 251.614 703.848L252.958 704.152C253.422 704.264 253.798 704.419 254.086 704.616C254.379 704.808 254.606 705.019 254.766 705.248C254.926 705.477 255.035 705.709 255.094 705.944C255.158 706.173 255.19 706.381 255.19 706.568C255.19 707.117 255.043 707.587 254.75 707.976C254.456 708.36 254.048 708.653 253.526 708.856C253.003 709.059 252.398 709.16 251.71 709.16Z" fill="white"/>
<rect x="116.25" y="679.25" width="195.5" height="48.5" rx="2.75" stroke="#4A4A4A" stroke-width="2.5"/>
<g filter="url(#filter0_d_676_2294)">
<rect x="66" y="824" width="296" height="61.2863" rx="30.6432" fill="#F8F2E9"/>
</g>
<path d="M112 865V859C112 858.735 111.895 858.48 111.707 858.293C111.52 858.105 111.265 858 111 858H107C106.735 858 106.48 858.105 106.293 858.293C106.105 858.48 106 858.735 106 859V865C106 865.265 105.895 865.52 105.707 865.707C105.52 865.895 105.265 866 105 866H99C98.7348 866 98.4804 865.895 98.2929 865.707C98.1054 865.52 98 865.265 98 865V853.438C98.0022 853.299 98.0321 853.163 98.088 853.036C98.1438 852.909 98.2244 852.795 98.325 852.7L108.325 843.613C108.509 843.444 108.75 843.35 109 843.35C109.25 843.35 109.491 843.444 109.675 843.613L119.675 852.7C119.776 852.795 119.856 852.909 119.912 853.036C119.968 853.163 119.998 853.299 120 853.438V865C120 865.265 119.895 865.52 119.707 865.707C119.52 865.895 119.265 866 119 866H113C112.735 866 112.48 865.895 112.293 865.707C112.105 865.52 112 865.265 112 865Z" fill="#4A4A4A"/>
<path d="M177.5 864C183.299 864 188 859.299 188 853.5C188 847.701 183.299 843 177.5 843C171.701 843 167 847.701 167 853.5C167 859.299 171.701 864 177.5 864Z" stroke="#4A4A4A" stroke-width="2" stroke-linecap="round" stroke-linejoin="round"/>
<path d="M184.925 860.925L191 867" stroke="#4A4A4A" stroke-width="2" stroke-linecap="round" stroke-linejoin="round"/>
<path d="M245 848C245 846.939 245.421 845.922 246.172 845.172C246.922 844.421 247.939 844 249 844C250.061 844 251.078 844.421 251.828 845.172C252.579 845.922 253 846.939 253 848L235.4 861.2C235.232 861.326 235.108 861.501 235.045 861.702C234.983 861.902 234.985 862.117 235.051 862.316C235.118 862.515 235.245 862.689 235.415 862.811C235.586 862.934 235.79 863 236 863H262C262.21 863 262.414 862.934 262.585 862.811C262.755 862.689 262.882 862.515 262.949 862.316C263.015 862.117 263.017 861.902 262.955 861.702C262.892 861.501 262.768 861.326 262.6 861.2L249 851" stroke="#4A4A4A" stroke-width="2" stroke-linecap="round" stroke-linejoin="round"/>
<path d="M319 859C323.418 859 327 855.418 327 851C327 846.582 323.418 843 319 843C314.582 843 311 846.582 311 851C311 855.418 314.582 859 319 859Z" stroke="#4A4A4A" stroke-width="2" stroke-miterlimit="10"/>
<path d="M306.875 866C308.104 863.871 309.871 862.104 311.999 860.875C314.128 859.646 316.542 858.999 319 858.999C321.458 858.999 323.872 859.646 326.001 860.875C328.129 862.104 329.896 863.871 331.125 866" stroke="#4A4A4A" stroke-width="2" stroke-linecap="round" stroke-linejoin="round"/>
<g clip-path="url(#clip0_676_2294)">
<path d="M240.646 92.0176C240.549 91.6316 240.501 91.2208 240.501 90.7849C240.501 89.1541 241.237 87.7352 242.71 86.5279C244.183 85.3207 247.195 83.8385 251.746 82.0813V80.735C251.746 79.3191 251.565 78.3046 251.205 77.6915C250.845 77.0784 250.254 76.7719 249.432 76.7719C248.762 76.7719 248.206 76.9709 247.764 77.3692C247.321 77.7674 247.1 78.2635 247.1 78.8578C247.1 79.1737 247.113 79.5435 247.138 79.967C247.163 80.3905 247.176 80.6592 247.176 80.7729C247.176 81.6957 246.92 82.4384 246.408 83.001C245.896 83.5635 245.216 83.8447 244.369 83.8447C243.598 83.8447 242.979 83.6014 242.511 83.1147C242.043 82.628 241.809 81.9864 241.809 81.1901C241.809 79.4708 242.625 78.0455 244.256 76.9141C245.886 75.7826 247.985 75.217 250.551 75.217C251.992 75.217 253.297 75.4003 254.467 75.7669C255.636 76.1336 256.594 76.6644 257.339 77.3597C257.946 77.9286 258.376 78.5923 258.629 79.3507C258.882 80.1092 259.008 81.2532 259.008 82.7829V88.1871C259.008 89.6914 259.125 90.7597 259.359 91.3916C259.593 92.0237 259.969 92.3398 260.487 92.3398C260.601 92.3398 260.715 92.3146 260.828 92.264C260.942 92.2133 261.062 92.1376 261.189 92.0363V93.2689C260.683 93.9136 260.029 94.413 259.226 94.7669C258.423 95.1209 257.535 95.2979 256.562 95.2979C255.45 95.2979 254.517 95.0388 253.765 94.5205C253.013 94.0021 252.46 93.2374 252.106 92.2261C251.145 93.3259 250.137 94.1444 249.081 94.6816C248.026 95.2188 246.91 95.4875 245.735 95.4875C244.18 95.4875 242.919 95.0482 241.952 94.1697C241.629 93.8765 241.36 93.5555 241.145 93.2066C240.384 93.8039 239.157 94.494 238.538 94.7669C237.736 95.1209 236.848 95.2979 235.874 95.2979C234.762 95.2979 233.829 95.0388 233.077 94.5205C232.325 94.0021 231.772 93.2374 231.418 92.2261C230.457 93.3259 229.449 94.1444 228.394 94.6816C227.338 95.2188 226.223 95.4875 225.047 95.4875C223.492 95.4875 222.231 95.0482 221.264 94.1697C220.297 93.2911 219.813 92.1628 219.813 90.7849C219.813 89.1541 220.55 87.7352 222.022 86.5279C223.495 85.3207 226.507 83.8385 231.058 82.0813V80.735C231.058 79.3191 230.878 78.3046 230.517 77.6915C230.157 77.0784 229.566 76.7719 228.744 76.7719C228.075 76.7719 227.518 76.9709 227.076 77.3692C226.633 77.7674 226.412 78.2635 226.412 78.8578C226.412 79.1737 226.425 79.5435 226.45 79.967C226.475 80.3905 226.488 80.6592 226.488 80.7729C226.488 81.6957 226.232 82.4384 225.72 83.001C225.208 83.5635 224.529 83.8447 223.682 83.8447C222.91 83.8447 222.291 83.6014 221.823 83.1147C221.356 82.628 221.122 81.9864 221.122 81.1901C221.122 79.4708 221.937 78.0455 223.568 76.9141C225.199 75.7826 227.297 75.217 229.863 75.217C231.304 75.217 232.61 75.4003 233.779 75.7669C234.948 76.1336 235.906 76.6644 236.652 77.3597C237.258 77.9286 237.688 78.5923 237.941 79.3507C238.194 80.1092 238.32 81.2532 238.32 82.7829V88.1871C238.32 89.6914 238.437 90.7597 238.671 91.3916C238.905 92.0237 239.281 92.3398 239.799 92.3398C239.913 92.3398 240.027 92.3146 240.141 92.264C240.194 92.2403 240.414 92.1343 240.646 92.0176ZM182.778 94.6722L178.246 85.6651V90.8228C178.246 91.8215 178.423 92.5326 178.777 92.9561C179.131 93.3796 179.731 93.5913 180.578 93.5913H180.692V94.6722H168.499V93.5913H168.613C169.448 93.5913 170.045 93.3796 170.405 92.9561C170.765 92.5326 170.946 91.8215 170.946 90.8228V75.2548C170.946 74.6734 170.879 74.2531 170.746 73.994C170.614 73.7348 170.313 73.4156 169.846 73.0364L167.798 71.3677C168.683 71.1022 169.915 70.6788 171.495 70.0972C173.076 69.5157 175.326 68.6561 178.246 67.5183V84.6222C179.902 83.3454 181.15 82.1919 181.991 81.1616C182.832 80.1314 183.252 79.237 183.252 78.4785C183.252 78.0739 183.097 77.7516 182.787 77.5115C182.478 77.2712 182.051 77.1511 181.507 77.1511H181.394V76.0703H191.254V77.1511H190.932C189.63 77.1511 188.403 77.4925 187.253 78.175C186.103 78.8578 184.921 79.9448 183.707 81.4366L189.149 90.7469C189.743 91.7836 190.319 92.5042 190.875 92.9087C191.429 93.3119 192.122 93.5393 192.953 93.5909C193.752 93.5796 194.326 93.368 194.677 92.9561C195.037 92.5326 195.217 91.8215 195.217 90.8228V82.7829C195.217 82.2014 195.154 81.781 195.027 81.5219C194.901 81.2628 194.604 80.9499 194.136 80.5833L192.069 78.9146C193.574 78.4343 195.198 77.8717 196.943 77.227C198.687 76.5823 200.545 75.8617 202.518 75.0652V90.8228C202.518 91.7962 202.691 92.4946 203.039 92.9181C203.387 93.3416 203.965 93.566 204.774 93.5913H204.811C205.645 93.5913 206.243 93.3796 206.603 92.9561C206.963 92.5326 207.143 91.8215 207.143 90.8228V83.6741C207.143 83.0673 207.067 82.6185 206.916 82.3278C206.764 82.0371 206.48 81.7526 206.063 81.4745L203.692 79.8058C204.931 79.376 206.36 78.7851 207.978 78.0329C209.596 77.2807 211.58 76.2915 213.932 75.0652V78.4027C214.564 77.3407 215.25 76.5444 215.989 76.0134C216.729 75.4825 217.522 75.217 218.369 75.217C219.304 75.217 220.057 75.4951 220.625 76.0513C221.194 76.6075 221.479 77.3407 221.479 78.2509C221.479 79.0474 221.242 79.6857 220.768 80.1661C220.294 80.6465 219.665 80.8866 218.881 80.8866C218.173 80.8866 217.494 80.6023 216.842 80.0333C216.191 79.4645 215.777 79.1801 215.6 79.1801C215.183 79.1801 214.886 79.4582 214.709 80.0144C214.532 80.5707 214.444 81.563 214.444 82.9915V90.8228C214.444 91.8089 214.643 92.5168 215.041 92.9465C215.439 93.3764 216.093 93.5913 217.004 93.5913H217.117V94.6722H182.778ZM251.746 83.4845C250.608 83.9396 249.742 84.657 249.148 85.6367C248.554 86.6164 248.257 87.8142 248.257 89.23C248.257 90.0391 248.418 90.6838 248.74 91.1642C249.062 91.6445 249.483 91.8847 250.001 91.8847C250.671 91.8847 251.129 91.6192 251.376 91.0883C251.622 90.5573 251.746 89.23 251.746 87.1063V83.4845ZM231.058 83.4845C229.92 83.9396 229.054 84.657 228.46 85.6367C227.866 86.6164 227.569 87.8142 227.569 89.23C227.569 90.0391 227.73 90.6838 228.052 91.1642C228.375 91.6445 228.795 91.8847 229.313 91.8847C229.983 91.8847 230.442 91.6192 230.688 91.0883C230.935 90.5573 231.058 89.23 231.058 87.1063V83.4845ZM194.705 71.3297C194.705 70.2679 195.075 69.3671 195.814 68.6277C196.554 67.8881 197.455 67.5183 198.517 67.5183C199.591 67.5183 200.495 67.8881 201.228 68.6277C201.961 69.3671 202.328 70.2679 202.328 71.3297C202.328 72.3917 201.958 73.2923 201.219 74.0319C200.479 74.7713 199.578 75.1411 198.517 75.1411C197.455 75.1411 196.554 74.7745 195.814 74.0413C195.075 73.3081 194.705 72.4043 194.705 71.3297Z" fill="#3E3E3E"/>
</g>
<path d="M138.134 550.878H140.192V559.271H144.588V561H138.134V550.878ZM150.148 561.14C149.191 561.14 148.363 560.932 147.663 560.517C146.967 560.097 146.428 559.502 146.046 558.732C145.668 557.957 145.479 557.033 145.479 555.96C145.479 554.882 145.67 553.953 146.053 553.174C146.44 552.395 146.984 551.795 147.684 551.375C148.384 550.95 149.205 550.738 150.148 550.738C151.086 550.738 151.902 550.948 152.598 551.368C153.293 551.788 153.83 552.388 154.208 553.167C154.59 553.946 154.782 554.877 154.782 555.96C154.782 557.029 154.593 557.95 154.215 558.725C153.841 559.5 153.307 560.097 152.612 560.517C151.916 560.932 151.095 561.14 150.148 561.14ZM150.148 559.46C150.642 559.46 151.069 559.343 151.429 559.11C151.793 558.872 152.073 558.499 152.269 557.99C152.465 557.477 152.563 556.809 152.563 555.988C152.563 555.143 152.462 554.46 152.262 553.937C152.066 553.414 151.786 553.032 151.422 552.789C151.062 552.542 150.638 552.418 150.148 552.418C149.658 552.418 149.231 552.542 148.867 552.789C148.503 553.032 148.22 553.417 148.02 553.944C147.819 554.467 147.719 555.148 147.719 555.988C147.719 556.814 147.819 557.481 148.02 557.99C148.22 558.499 148.503 558.872 148.867 559.11C149.231 559.343 149.658 559.46 150.148 559.46ZM160.618 550.738C161.379 550.738 162.056 550.892 162.648 551.2C163.246 551.503 163.726 551.919 164.09 552.446C164.459 552.973 164.676 553.568 164.741 554.231H162.599C162.534 553.881 162.415 553.571 162.242 553.3C162.07 553.025 161.843 552.81 161.563 552.656C161.283 552.497 160.947 552.418 160.555 552.418C160.084 552.418 159.678 552.532 159.337 552.761C158.997 552.99 158.735 553.358 158.553 553.867C158.371 554.376 158.28 555.048 158.28 555.883C158.28 557.143 158.481 558.055 158.882 558.62C159.288 559.18 159.846 559.46 160.555 559.46C160.947 559.46 161.283 559.371 161.563 559.194C161.843 559.012 162.07 558.774 162.242 558.48C162.415 558.181 162.534 557.855 162.599 557.5H164.741C164.681 557.981 164.564 558.44 164.391 558.879C164.219 559.313 163.974 559.7 163.656 560.041C163.339 560.382 162.931 560.65 162.431 560.846C161.932 561.042 161.328 561.14 160.618 561.14C159.676 561.14 158.861 560.921 158.175 560.482C157.489 560.043 156.96 559.427 156.586 558.634C156.218 557.841 156.033 556.914 156.033 555.855C156.033 554.791 156.218 553.879 156.586 553.118C156.955 552.353 157.482 551.765 158.168 551.354C158.854 550.943 159.671 550.738 160.618 550.738ZM165.481 561L169.107 550.878H171.263L174.882 561H172.845L172.019 558.655H168.379L167.532 561H165.481ZM168.834 556.87H171.529L170.192 552.852L168.834 556.87ZM174.713 552.698V550.878H182.812V552.698H179.823V561H177.772V552.698H174.713ZM184.208 550.878H186.245V561H184.208V550.878ZM192.722 561.14C191.765 561.14 190.937 560.932 190.237 560.517C189.542 560.097 189.003 559.502 188.62 558.732C188.242 557.957 188.053 557.033 188.053 555.96C188.053 554.882 188.244 553.953 188.627 553.174C189.014 552.395 189.558 551.795 190.258 551.375C190.958 550.95 191.779 550.738 192.722 550.738C193.66 550.738 194.477 550.948 195.172 551.368C195.867 551.788 196.404 552.388 196.782 553.167C197.165 553.946 197.356 554.877 197.356 555.96C197.356 557.029 197.167 557.95 196.789 558.725C196.416 559.5 195.881 560.097 195.186 560.517C194.491 560.932 193.669 561.14 192.722 561.14ZM192.722 559.46C193.217 559.46 193.644 559.343 194.003 559.11C194.367 558.872 194.647 558.499 194.843 557.99C195.039 557.477 195.137 556.809 195.137 555.988C195.137 555.143 195.037 554.46 194.836 553.937C194.64 553.414 194.36 553.032 193.996 552.789C193.637 552.542 193.212 552.418 192.722 552.418C192.232 552.418 191.805 552.542 191.441 552.789C191.077 553.032 190.795 553.417 190.594 553.944C190.393 554.467 190.293 555.148 190.293 555.988C190.293 556.814 190.393 557.481 190.594 557.99C190.795 558.499 191.077 558.872 191.441 559.11C191.805 559.343 192.232 559.46 192.722 559.46ZM205.808 550.878H207.852V561H206.011L201.202 554.035V561H199.165V550.878H201.188L205.808 557.577V550.878Z" fill="#4A4A4A"/>
<path d="M85 557.5C88.3137 557.5 91 554.814 91 551.5C91 548.186 88.3137 545.5 85 545.5C81.6863 545.5 79 548.186 79 551.5C79 554.814 81.6863 557.5 85 557.5Z" stroke="#4A4A4A" stroke-width="3" stroke-linecap="round" stroke-linejoin="round"/>
<path d="M100 551.5C100 565 85 575.5 85 575.5C85 575.5 70 565 70 551.5C70 547.522 71.5804 543.706 74.3934 540.893C77.2064 538.08 81.0218 536.5 85 536.5C88.9782 536.5 92.7936 538.08 95.6066 540.893C98.4196 543.706 100 547.522 100 551.5V551.5Z" stroke="#4A4A4A" stroke-width="3" stroke-linecap="round" stroke-linejoin="round"/>
<path d="M381 116H359C358.448 116 358 116.448 358 117V135C358 135.552 358.448 136 359 136H381C381.552 136 382 135.552 382 135V117C382 116.448 381.552 116 381 116Z" stroke="#3E3E3E" stroke-width="2" stroke-linecap="round" stroke-linejoin="round"/>
<path d="M375 121C375 122.326 374.473 123.598 373.536 124.536C372.598 125.473 371.326 126 370 126C368.674 126 367.402 125.473 366.464 124.536C365.527 123.598 365 122.326 365 121" stroke="#3E3E3E" stroke-width="2" stroke-linecap="round" stroke-linejoin="round"/>
<defs>
<filter id="filter0_d_676_2294" x="61.5" y="820.5" width="311" height="76.2863" filterUnits="userSpaceOnUse" color-interpolation-filters="sRGB">
<feFlood flood-opacity="0" result="BackgroundImageFix"/>
<feColorMatrix in="SourceAlpha" type="matrix" values="0 0 0 0 0 0 0 0 0 0 0 0 0 0 0 0 0 0 127 0" result="hardAlpha"/>
<feOffset dx="3" dy="4"/>
<feGaussianBlur stdDeviation="3.75"/>
<feComposite in2="hardAlpha" operator="out"/>
<feColorMatrix type="matrix" values="0 0 0 0 0.529412 0 0 0 0 0.462745 0 0 0 0 0.341176 0 0 0 0.3 0"/>
<feBlend mode="normal" in2="BackgroundImageFix" result="effect1_dropShadow_676_2294"/>
<feBlend mode="normal" in="SourceGraphic" in2="effect1_dropShadow_676_2294" result="shape"/>
</filter>
<clipPath id="clip0_676_2294">
<rect width="119" height="119" fill="white" transform="translate(155 22)"/>
</clipPath>
</defs>
</svg>
