<svg width="428" height="926" viewBox="0 0 428 926" fill="none" xmlns="http://www.w3.org/2000/svg">
<rect width="428" height="926" fill="#F8F2E9"/>
<rect x="23" y="176" width="382" height="50" rx="6" fill="#FCFCFC" stroke="white" stroke-width="4"/>
<path d="M365.5 210C371.299 210 376 205.299 376 199.5C376 193.701 371.299 189 365.5 189C359.701 189 355 193.701 355 199.5C355 205.299 359.701 210 365.5 210Z" stroke="#4A4A4A" stroke-width="2" stroke-linecap="round" stroke-linejoin="round"/>
<path d="M372.925 206.925L379 213" stroke="#4A4A4A" stroke-width="2" stroke-linecap="round" stroke-linejoin="round"/>
<path d="M25.134 258.878H32.022L32.015 260.586H27.192V263.127H31.371V264.8H27.192V269H25.134V258.878ZM33.7199 258.878H35.7569V269H33.7199V258.878ZM38.0266 258.878H40.0846V267.271H44.4806V269H38.0266V258.878ZM43.9672 260.698V258.878H52.0662V260.698H49.0772V269H47.0262V260.698H43.9672ZM53.4621 269V258.878H60.4131L60.4061 260.6H55.5131V263.057H59.7621V264.744H55.4991V267.257L60.4831 267.264V269H53.4621ZM70.2849 269H68.1639L66.5189 265.101H64.4679V269H62.4309V258.878H66.7009C67.5082 258.878 68.1685 259.006 68.6819 259.263C69.1952 259.52 69.5732 259.877 69.8159 260.334C70.0585 260.787 70.1799 261.309 70.1799 261.902C70.1799 262.434 70.0959 262.884 69.9279 263.253C69.7645 263.617 69.5475 263.92 69.2769 264.163C69.0109 264.406 68.7192 264.604 68.4019 264.758L70.2849 269ZM66.3369 263.526C66.8829 263.526 67.3145 263.379 67.6319 263.085C67.9539 262.791 68.1149 262.413 68.1149 261.951C68.1149 261.484 67.9609 261.116 67.6529 260.845C67.3449 260.574 66.9552 260.439 66.4839 260.439H64.4679V263.526H66.3369Z" fill="#4A4A4A"/>
<path d="M93.875 268.125H83.75" stroke="#4A4A4A" stroke-width="1.65" stroke-linecap="round" stroke-linejoin="round"/>
<path d="M100.25 268.125H97.625" stroke="#4A4A4A" stroke-width="1.65" stroke-linecap="round" stroke-linejoin="round"/>
<path d="M95.75 270C96.7855 270 97.625 269.161 97.625 268.125C97.625 267.089 96.7855 266.25 95.75 266.25C94.7145 266.25 93.875 267.089 93.875 268.125C93.875 269.161 94.7145 270 95.75 270Z" fill="#4A4A4A" stroke="#4A4A4A" stroke-width="1.5" stroke-linecap="round" stroke-linejoin="round"/>
<path d="M87.875 259.875H83.75" stroke="#4A4A4A" stroke-width="1.65" stroke-linecap="round" stroke-linejoin="round"/>
<path d="M100.25 259.875H91.625" stroke="#4A4A4A" stroke-width="1.65" stroke-linecap="round" stroke-linejoin="round"/>
<path d="M89.75 261.75C90.7855 261.75 91.625 260.911 91.625 259.875C91.625 258.839 90.7855 258 89.75 258C88.7145 258 87.875 258.839 87.875 259.875C87.875 260.911 88.7145 261.75 89.75 261.75Z" fill="#4A4A4A" stroke="#4A4A4A" stroke-width="1.5" stroke-linecap="round" stroke-linejoin="round"/>
<g filter="url(#filter0_d_127_199)">
<rect x="66" y="824" width="296" height="61.2863" rx="30.6432" fill="#F8F2E9"/>
</g>
<path d="M112 865V859C112 858.735 111.895 858.48 111.707 858.293C111.52 858.105 111.265 858 111 858H107C106.735 858 106.48 858.105 106.293 858.293C106.105 858.48 106 858.735 106 859V865C106 865.265 105.895 865.52 105.707 865.707C105.52 865.895 105.265 866 105 866H99C98.7348 866 98.4804 865.895 98.2929 865.707C98.1054 865.52 98 865.265 98 865V853.438C98.0022 853.299 98.0321 853.163 98.088 853.036C98.1438 852.909 98.2244 852.795 98.325 852.7L108.325 843.613C108.509 843.444 108.75 843.35 109 843.35C109.25 843.35 109.491 843.444 109.675 843.613L119.675 852.7C119.776 852.795 119.856 852.909 119.912 853.036C119.968 853.163 119.998 853.299 120 853.438V865C120 865.265 119.895 865.52 119.707 865.707C119.52 865.895 119.265 866 119 866H113C112.735 866 112.48 865.895 112.293 865.707C112.105 865.52 112 865.265 112 865Z" fill="#4A4A4A"/>
<path d="M177.5 864C183.299 864 188 859.299 188 853.5C188 847.701 183.299 843 177.5 843C171.701 843 167 847.701 167 853.5C167 859.299 171.701 864 177.5 864Z" stroke="#4A4A4A" stroke-width="2" stroke-linecap="round" stroke-linejoin="round"/>
<path d="M184.925 860.925L191 867" stroke="#4A4A4A" stroke-width="2" stroke-linecap="round" stroke-linejoin="round"/>
<path d="M245 848C245 846.939 245.421 845.922 246.172 845.172C246.922 844.421 247.939 844 249 844C250.061 844 251.078 844.421 251.828 845.172C252.579 845.922 253 846.939 253 848L235.4 861.2C235.232 861.326 235.108 861.501 235.045 861.702C234.983 861.902 234.985 862.117 235.051 862.316C235.118 862.515 235.245 862.689 235.415 862.811C235.586 862.934 235.79 863 236 863H262C262.21 863 262.414 862.934 262.585 862.811C262.755 862.689 262.882 862.515 262.949 862.316C263.015 862.117 263.017 861.902 262.955 861.702C262.892 861.501 262.768 861.326 262.6 861.2L249 851" stroke="#4A4A4A" stroke-width="2" stroke-linecap="round" stroke-linejoin="round"/>
<path d="M319 859C323.418 859 327 855.418 327 851C327 846.582 323.418 843 319 843C314.582 843 311 846.582 311 851C311 855.418 314.582 859 319 859Z" stroke="#4A4A4A" stroke-width="2" stroke-miterlimit="10"/>
<path d="M306.875 866C308.104 863.871 309.871 862.104 311.999 860.875C314.128 859.646 316.542 858.999 319 858.999C321.458 858.999 323.872 859.646 326.001 860.875C328.129 862.104 329.896 863.871 331.125 866" stroke="#4A4A4A" stroke-width="2" stroke-linecap="round" stroke-linejoin="round"/>
<g clip-path="url(#clip0_127_199)">
<path d="M240.646 92.0176C240.549 91.6316 240.501 91.2208 240.501 90.7849C240.501 89.1541 241.237 87.7352 242.71 86.5279C244.183 85.3207 247.195 83.8385 251.746 82.0813V80.735C251.746 79.3191 251.565 78.3046 251.205 77.6915C250.845 77.0784 250.254 76.7719 249.432 76.7719C248.762 76.7719 248.206 76.9709 247.764 77.3692C247.321 77.7674 247.1 78.2635 247.1 78.8578C247.1 79.1737 247.113 79.5435 247.138 79.967C247.163 80.3905 247.176 80.6592 247.176 80.7729C247.176 81.6957 246.92 82.4384 246.408 83.001C245.896 83.5635 245.216 83.8447 244.369 83.8447C243.598 83.8447 242.979 83.6014 242.511 83.1147C242.043 82.628 241.809 81.9864 241.809 81.1901C241.809 79.4708 242.625 78.0455 244.256 76.9141C245.886 75.7826 247.985 75.217 250.551 75.217C251.992 75.217 253.297 75.4003 254.467 75.7669C255.636 76.1336 256.594 76.6644 257.339 77.3597C257.946 77.9286 258.376 78.5923 258.629 79.3507C258.882 80.1092 259.008 81.2532 259.008 82.7829V88.1871C259.008 89.6914 259.125 90.7597 259.359 91.3916C259.593 92.0237 259.969 92.3398 260.487 92.3398C260.601 92.3398 260.715 92.3146 260.828 92.264C260.942 92.2133 261.062 92.1376 261.189 92.0363V93.2689C260.683 93.9136 260.029 94.413 259.226 94.7669C258.423 95.1209 257.535 95.2979 256.562 95.2979C255.45 95.2979 254.517 95.0388 253.765 94.5205C253.013 94.0021 252.46 93.2374 252.106 92.2261C251.145 93.3259 250.137 94.1444 249.081 94.6816C248.026 95.2188 246.91 95.4875 245.735 95.4875C244.18 95.4875 242.919 95.0482 241.952 94.1697C241.629 93.8765 241.36 93.5555 241.145 93.2066C240.384 93.8039 239.157 94.494 238.538 94.7669C237.736 95.1209 236.848 95.2979 235.874 95.2979C234.762 95.2979 233.829 95.0388 233.077 94.5205C232.325 94.0021 231.772 93.2374 231.418 92.2261C230.457 93.3259 229.449 94.1444 228.394 94.6816C227.338 95.2188 226.223 95.4875 225.047 95.4875C223.492 95.4875 222.231 95.0482 221.264 94.1697C220.297 93.2911 219.813 92.1628 219.813 90.7849C219.813 89.1541 220.55 87.7352 222.022 86.5279C223.495 85.3207 226.507 83.8385 231.058 82.0813V80.735C231.058 79.3191 230.878 78.3046 230.517 77.6915C230.157 77.0784 229.566 76.7719 228.744 76.7719C228.075 76.7719 227.518 76.9709 227.076 77.3692C226.633 77.7674 226.412 78.2635 226.412 78.8578C226.412 79.1737 226.425 79.5435 226.45 79.967C226.475 80.3905 226.488 80.6592 226.488 80.7729C226.488 81.6957 226.232 82.4384 225.72 83.001C225.208 83.5635 224.529 83.8447 223.682 83.8447C222.91 83.8447 222.291 83.6014 221.823 83.1147C221.356 82.628 221.122 81.9864 221.122 81.1901C221.122 79.4708 221.937 78.0455 223.568 76.9141C225.199 75.7826 227.297 75.217 229.863 75.217C231.304 75.217 232.61 75.4003 233.779 75.7669C234.948 76.1336 235.906 76.6644 236.652 77.3597C237.258 77.9286 237.688 78.5923 237.941 79.3507C238.194 80.1092 238.32 81.2532 238.32 82.7829V88.1871C238.32 89.6914 238.437 90.7597 238.671 91.3916C238.905 92.0237 239.281 92.3398 239.799 92.3398C239.913 92.3398 240.027 92.3146 240.141 92.264C240.194 92.2403 240.414 92.1343 240.646 92.0176ZM182.778 94.6722L178.246 85.6651V90.8228C178.246 91.8215 178.423 92.5326 178.777 92.9561C179.131 93.3796 179.731 93.5913 180.578 93.5913H180.692V94.6722H168.499V93.5913H168.613C169.448 93.5913 170.045 93.3796 170.405 92.9561C170.765 92.5326 170.946 91.8215 170.946 90.8228V75.2548C170.946 74.6734 170.879 74.2531 170.746 73.994C170.614 73.7348 170.313 73.4156 169.846 73.0364L167.798 71.3677C168.683 71.1022 169.915 70.6788 171.495 70.0972C173.076 69.5157 175.326 68.6561 178.246 67.5183V84.6222C179.902 83.3454 181.15 82.1919 181.991 81.1616C182.832 80.1314 183.252 79.237 183.252 78.4785C183.252 78.0739 183.097 77.7516 182.787 77.5115C182.478 77.2712 182.051 77.1511 181.507 77.1511H181.394V76.0703H191.254V77.1511H190.932C189.63 77.1511 188.403 77.4925 187.253 78.175C186.103 78.8578 184.921 79.9448 183.707 81.4366L189.149 90.7469C189.743 91.7836 190.319 92.5042 190.875 92.9087C191.429 93.3119 192.122 93.5393 192.953 93.5909C193.752 93.5796 194.326 93.368 194.677 92.9561C195.037 92.5326 195.217 91.8215 195.217 90.8228V82.7829C195.217 82.2014 195.154 81.781 195.027 81.5219C194.901 81.2628 194.604 80.9499 194.136 80.5833L192.069 78.9146C193.574 78.4343 195.198 77.8717 196.943 77.227C198.687 76.5823 200.545 75.8617 202.518 75.0652V90.8228C202.518 91.7962 202.691 92.4946 203.039 92.9181C203.387 93.3416 203.965 93.566 204.774 93.5913H204.811C205.645 93.5913 206.243 93.3796 206.603 92.9561C206.963 92.5326 207.143 91.8215 207.143 90.8228V83.6741C207.143 83.0673 207.067 82.6185 206.916 82.3278C206.764 82.0371 206.48 81.7526 206.063 81.4745L203.692 79.8058C204.931 79.376 206.36 78.7851 207.978 78.0329C209.596 77.2807 211.58 76.2915 213.932 75.0652V78.4027C214.564 77.3407 215.25 76.5444 215.989 76.0134C216.729 75.4825 217.522 75.217 218.369 75.217C219.304 75.217 220.057 75.4951 220.625 76.0513C221.194 76.6075 221.479 77.3407 221.479 78.2509C221.479 79.0474 221.242 79.6857 220.768 80.1661C220.294 80.6465 219.665 80.8866 218.881 80.8866C218.173 80.8866 217.494 80.6023 216.842 80.0333C216.191 79.4645 215.777 79.1801 215.6 79.1801C215.183 79.1801 214.886 79.4582 214.709 80.0144C214.532 80.5707 214.444 81.563 214.444 82.9915V90.8228C214.444 91.8089 214.643 92.5168 215.041 92.9465C215.439 93.3764 216.093 93.5913 217.004 93.5913H217.117V94.6722H182.778ZM251.746 83.4845C250.608 83.9396 249.742 84.657 249.148 85.6367C248.554 86.6164 248.257 87.8142 248.257 89.23C248.257 90.0391 248.418 90.6838 248.74 91.1642C249.062 91.6445 249.483 91.8847 250.001 91.8847C250.671 91.8847 251.129 91.6192 251.376 91.0883C251.622 90.5573 251.746 89.23 251.746 87.1063V83.4845ZM231.058 83.4845C229.92 83.9396 229.054 84.657 228.46 85.6367C227.866 86.6164 227.569 87.8142 227.569 89.23C227.569 90.0391 227.73 90.6838 228.052 91.1642C228.375 91.6445 228.795 91.8847 229.313 91.8847C229.983 91.8847 230.442 91.6192 230.688 91.0883C230.935 90.5573 231.058 89.23 231.058 87.1063V83.4845ZM194.705 71.3297C194.705 70.2679 195.075 69.3671 195.814 68.6277C196.554 67.8881 197.455 67.5183 198.517 67.5183C199.591 67.5183 200.495 67.8881 201.228 68.6277C201.961 69.3671 202.328 70.2679 202.328 71.3297C202.328 72.3917 201.958 73.2923 201.219 74.0319C200.479 74.7713 199.578 75.1411 198.517 75.1411C197.455 75.1411 196.554 74.7745 195.814 74.0413C195.075 73.3081 194.705 72.4043 194.705 71.3297Z" fill="#3E3E3E"/>
</g>
<path d="M381 116H359C358.448 116 358 116.448 358 117V135C358 135.552 358.448 136 359 136H381C381.552 136 382 135.552 382 135V117C382 116.448 381.552 116 381 116Z" stroke="#3E3E3E" stroke-width="2" stroke-linecap="round" stroke-linejoin="round"/>
<path d="M375 121C375 122.326 374.473 123.598 373.536 124.536C372.598 125.473 371.326 126 370 126C368.674 126 367.402 125.473 366.464 124.536C365.527 123.598 365 122.326 365 121" stroke="#3E3E3E" stroke-width="2" stroke-linecap="round" stroke-linejoin="round"/>
<defs>
<filter id="filter0_d_127_199" x="61.5" y="820.5" width="311" height="76.2863" filterUnits="userSpaceOnUse" color-interpolation-filters="sRGB">
<feFlood flood-opacity="0" result="BackgroundImageFix"/>
<feColorMatrix in="SourceAlpha" type="matrix" values="0 0 0 0 0 0 0 0 0 0 0 0 0 0 0 0 0 0 127 0" result="hardAlpha"/>
<feOffset dx="3" dy="4"/>
<feGaussianBlur stdDeviation="3.75"/>
<feComposite in2="hardAlpha" operator="out"/>
<feColorMatrix type="matrix" values="0 0 0 0 0.529412 0 0 0 0 0.462745 0 0 0 0 0.341176 0 0 0 0.3 0"/>
<feBlend mode="normal" in2="BackgroundImageFix" result="effect1_dropShadow_127_199"/>
<feBlend mode="normal" in="SourceGraphic" in2="effect1_dropShadow_127_199" result="shape"/>
</filter>
<clipPath id="clip0_127_199">
<rect width="119" height="119" fill="white" transform="translate(155 22)"/>
</clipPath>
</defs>
</svg>
