<svg width="595" height="842" viewBox="0 0 595 842" fill="none" xmlns="http://www.w3.org/2000/svg">
<rect width="595" height="842" fill="white"/>
<g clip-path="url(#clip0_3_692)">
<path d="M246.741 67.9434C245.245 67.9434 243.75 67.6992 242.194 67.2415C240.637 66.7837 239.325 66.1734 238.257 65.4105L241.919 60.1921C241.889 60.1921 242.041 60.3142 242.377 60.5583C242.682 60.8025 243.14 61.0771 243.72 61.3823C244.299 61.6875 244.94 61.9621 245.673 62.2062C246.405 62.4504 247.168 62.5724 247.961 62.5724C248.419 62.5724 248.785 62.5114 248.999 62.3893C249.213 62.2978 249.365 62.1452 249.457 61.9621C249.518 61.8095 249.548 61.6264 249.548 61.4433C249.548 61.0771 249.365 60.772 248.968 60.5278C248.572 60.3142 248.083 60.1006 247.504 59.887C246.893 59.7039 246.252 59.4903 245.581 59.2156C244.696 58.8494 243.933 58.4527 243.353 57.995C242.774 57.5677 242.316 57.0489 242.041 56.4691C241.736 55.8893 241.583 55.1874 241.583 54.4245C241.583 53.0513 241.858 51.8306 242.407 50.7625C242.926 49.725 243.659 48.8095 244.574 48.0771C245.49 47.3447 246.497 46.7954 247.626 46.3986C248.755 46.0019 249.884 45.8188 251.044 45.8188C252.051 45.8188 253.027 45.9409 253.912 46.185C254.797 46.4597 255.621 46.7648 256.384 47.131C257.147 47.4972 257.788 47.8329 258.337 48.1686L254.736 53.0818C254.767 53.0818 254.644 52.9902 254.37 52.7766C254.095 52.563 253.698 52.3494 253.21 52.0747C252.722 51.8306 252.173 51.617 251.562 51.4034C250.952 51.1897 250.342 51.0982 249.731 51.0982C249.457 51.0982 249.182 51.1287 248.938 51.2203C248.663 51.3118 248.48 51.4644 248.328 51.6475C248.175 51.8306 248.114 52.0747 248.114 52.3799C248.114 52.6851 248.267 52.9292 248.541 53.1428C248.816 53.3564 249.182 53.5395 249.67 53.6921C250.159 53.8752 250.708 54.0888 251.349 54.333C252.325 54.6992 253.18 55.0959 253.943 55.5231C254.675 55.9809 255.255 56.5302 255.652 57.171C256.048 57.8119 256.262 58.6663 256.262 59.6734C256.262 61.2297 255.987 62.5114 255.407 63.5795C254.828 64.6476 254.095 65.4715 253.149 66.1124C252.203 66.7837 251.196 67.2415 250.067 67.5161C248.938 67.7908 247.839 67.9434 246.741 67.9434Z" fill="#232323" stroke="#232323" stroke-width="1.22066" stroke-miterlimit="2" stroke-linejoin="round"/>
<path d="M266.518 67.8518C265.176 67.8518 263.986 67.6077 262.948 67.0889C261.88 66.6007 260.995 65.9293 260.293 65.0748C259.591 64.2204 259.042 63.2438 258.676 62.1452C258.309 61.0771 258.126 59.948 258.126 58.7579C258.126 57.4457 258.37 56.164 258.828 54.9128C259.286 53.6616 259.927 52.4715 260.751 51.3729C261.544 50.3048 262.521 49.3588 263.65 48.5043C264.748 47.6804 265.939 47.0395 267.251 46.5818C268.563 46.124 269.906 45.8799 271.31 45.8799C272.652 45.8799 273.842 46.124 274.88 46.6123C275.918 47.1311 276.803 47.8024 277.504 48.6569C278.206 49.5114 278.756 50.4879 279.122 51.556C279.457 52.6546 279.641 53.7837 279.641 54.9738C279.641 56.286 279.396 57.5677 278.969 58.7884C278.511 60.0701 277.871 61.2297 277.047 62.2978C276.223 63.3964 275.277 64.3729 274.178 65.1969C273.079 66.0208 271.889 66.6922 270.577 67.15C269.265 67.6077 267.922 67.8518 266.518 67.8518ZM267.678 62.5725C268.655 62.5725 269.509 62.3588 270.241 61.9011C270.974 61.4433 271.584 60.8635 272.103 60.1311C272.591 59.4292 272.957 58.6358 273.202 57.8119C273.446 56.9879 273.568 56.164 273.568 55.3705C273.568 54.6076 273.446 53.9057 273.232 53.2649C272.988 52.624 272.622 52.1358 272.103 51.7391C271.584 51.3423 270.913 51.1592 270.089 51.1592C269.143 51.1592 268.288 51.3729 267.556 51.8001C266.824 52.2578 266.213 52.8377 265.725 53.5395C265.237 54.2414 264.871 55.0349 264.626 55.8588C264.352 56.6828 264.23 57.5067 264.23 58.3001C264.23 59.063 264.352 59.7649 264.596 60.4058C264.809 61.0466 265.176 61.5654 265.694 61.9621C266.213 62.3894 266.854 62.5725 267.678 62.5725Z" fill="#232323" stroke="#232323" stroke-width="1.22066" stroke-miterlimit="2" stroke-linejoin="round"/>
<path d="M288.913 67.8518C287.6 67.8518 286.441 67.6077 285.434 67.0889C284.396 66.5701 283.511 65.8988 282.809 64.9833C282.107 64.0983 281.558 63.1218 281.192 61.9926C280.826 60.894 280.643 59.7649 280.643 58.5748C280.643 57.3846 280.856 56.164 281.283 54.9433C281.711 53.7532 282.321 52.5935 283.114 51.4949C283.877 50.4269 284.823 49.4503 285.891 48.5959C286.96 47.7719 288.18 47.1005 289.523 46.6123C290.835 46.124 292.269 45.8799 293.765 45.8799C295.748 45.8799 297.396 46.3071 298.708 47.1616C300.021 48.0466 300.875 49.1757 301.272 50.6099L296.053 53.8447C295.962 53.1428 295.718 52.5935 295.352 52.1968C294.955 51.8001 294.528 51.5254 294.039 51.3729C293.521 51.2203 293.032 51.1592 292.514 51.1592C291.568 51.1592 290.744 51.3729 290.042 51.8001C289.309 52.2578 288.699 52.8377 288.211 53.5395C287.722 54.2414 287.356 55.0043 287.112 55.8283C286.837 56.6522 286.715 57.4152 286.715 58.1781C286.715 58.9715 286.837 59.7039 287.112 60.3447C287.356 61.0161 287.722 61.5654 288.241 61.9621C288.76 62.3588 289.401 62.5725 290.164 62.5725C290.652 62.5725 291.171 62.4809 291.751 62.2978C292.3 62.1452 292.819 61.8706 293.337 61.4739C293.856 61.0771 294.284 60.5584 294.619 59.9175L298.861 62.8166C298.22 63.8847 297.366 64.7697 296.267 65.5326C295.138 66.2955 293.948 66.8448 292.636 67.2415C291.323 67.6687 290.103 67.8518 288.913 67.8518Z" fill="#232323" stroke="#232323" stroke-width="1.22066" stroke-miterlimit="2" stroke-linejoin="round"/>
<path d="M304.568 46.002H310.519L305.911 67.6688H299.96L304.568 46.002Z" fill="#232323" stroke="#232323" stroke-width="1.22066" stroke-miterlimit="2" stroke-linejoin="round"/>
<path d="M319.494 46.002H324.957L327.367 67.6688H321.325L321.112 63.427H315.924L313.94 67.6688H307.867L319.494 46.002ZM321.02 59.4598L320.776 52.7461L317.633 59.4598H321.02Z" fill="#232323" stroke="#232323" stroke-width="1.22066" stroke-miterlimit="2" stroke-linejoin="round"/>
<path d="M333.651 46.002H339.602L336.092 62.4809H345.217L344.118 67.6688H329.043L333.651 46.002Z" fill="#232323" stroke="#232323" stroke-width="1.22066" stroke-miterlimit="2" stroke-linejoin="round"/>
<path d="M257.135 71.3199H266.046C267.205 71.3199 268.213 71.625 269.036 72.2049C269.86 72.8152 270.501 73.6086 270.959 74.5546C271.386 75.5006 271.6 76.5077 271.6 77.5758C271.6 78.6439 271.386 79.6814 270.928 80.719C270.471 81.7565 269.86 82.7026 269.067 83.5265C268.274 84.381 267.358 85.0523 266.32 85.5711C265.283 86.0899 264.184 86.334 262.994 86.334H259.881L258.478 92.9867H252.527L257.135 71.3199ZM263.696 81.1462C263.879 81.1462 264.062 81.0852 264.276 80.9631C264.489 80.8411 264.673 80.658 264.886 80.3833C265.069 80.1392 265.222 79.834 265.344 79.4373C265.435 79.0406 265.497 78.5828 265.497 78.064C265.497 77.6673 265.435 77.3316 265.344 77.118C265.252 76.9044 265.13 76.7213 264.978 76.6298C264.825 76.5382 264.673 76.5077 264.52 76.5077H261.987L261.011 81.1462H263.696Z" fill="#232323" stroke="#232323" stroke-width="1.22066" stroke-miterlimit="2" stroke-linejoin="round"/>
<path d="M275.503 71.3199H281.453L277.944 87.7988H287.068L285.97 92.9867H270.895L275.503 71.3199Z" fill="#232323" stroke="#232323" stroke-width="1.22066" stroke-miterlimit="2" stroke-linejoin="round"/>
<path d="M296.5 93.1698C294.73 93.1698 293.295 92.8341 292.227 92.1932C291.129 91.5524 290.335 90.6369 289.847 89.5078C289.328 88.3786 289.084 87.1275 289.084 85.7237C289.084 85.2049 289.115 84.6556 289.176 84.1063C289.237 83.5875 289.328 83.0382 289.45 82.4584L291.831 71.3199H297.781L295.401 82.4584C295.309 82.8551 295.248 83.2213 295.218 83.557C295.187 83.9232 295.157 84.2894 295.157 84.6251C295.157 85.266 295.248 85.8153 295.401 86.3035C295.554 86.7918 295.828 87.1885 296.194 87.4632C296.561 87.7378 297.049 87.8904 297.629 87.8904C298.239 87.8904 298.788 87.7378 299.277 87.4326C299.765 87.158 300.192 86.7308 300.589 86.212C300.986 85.6932 301.291 85.1134 301.565 84.4725C301.84 83.8317 302.023 83.1603 302.176 82.4584L304.556 71.3199H310.507L308.126 82.4584C307.791 83.9537 307.303 85.3575 306.662 86.6697C306.021 87.9819 305.197 89.111 304.22 90.0876C303.244 91.0641 302.115 91.827 300.833 92.3458C299.521 92.8951 298.087 93.1698 296.5 93.1698Z" fill="#232323" stroke="#232323" stroke-width="1.22066" stroke-miterlimit="2" stroke-linejoin="round"/>
<path d="M318.23 93.1392C317.101 93.1392 316.033 92.9256 315.087 92.5289C314.11 92.1322 313.256 91.5829 312.554 90.82C311.821 90.0571 311.241 89.1416 310.845 88.043C310.448 86.9749 310.234 85.7542 310.234 84.381C310.234 82.5195 310.601 80.8105 311.333 79.1931C312.065 77.5758 313.072 76.172 314.324 74.9819C315.575 73.7917 317.009 72.8457 318.596 72.1743C320.152 71.503 321.8 71.1673 323.509 71.1673C325.371 71.1673 326.957 71.5945 328.3 72.4185C329.643 73.2729 330.528 74.4326 330.955 75.8974L325.828 79.2847C325.615 78.4302 325.188 77.7284 324.516 77.2096C323.814 76.6908 323.051 76.4467 322.166 76.4467C321.403 76.4467 320.702 76.6298 320 76.996C319.298 77.3622 318.657 77.8809 318.138 78.5218C317.589 79.1931 317.162 79.9561 316.856 80.8105C316.521 81.6955 316.368 82.611 316.368 83.6181C316.368 84.442 316.521 85.1744 316.795 85.8153C317.07 86.4561 317.467 86.9749 317.986 87.3106C318.504 87.6768 319.145 87.8599 319.878 87.8599C320.763 87.8599 321.678 87.6157 322.594 87.1275C323.479 86.6697 324.364 85.9984 325.188 85.1134L323.936 90.9115C322.99 91.6744 322.075 92.2237 321.159 92.5899C320.213 92.9561 319.237 93.1392 318.23 93.1392ZM324.76 85.7237H321.037L321.922 81.4514H330.589L328.117 92.9867H323.234L324.76 85.7237Z" fill="#232323" stroke="#232323" stroke-width="1.22066" stroke-miterlimit="2" stroke-linejoin="round"/>
<path fill-rule="evenodd" clip-rule="evenodd" d="M342.652 89.0111L339.309 85.8329C339.309 85.8329 339.194 85.9536 339.031 86.1254C338.738 86.433 338.58 86.844 338.59 87.2672C338.601 87.6916 338.78 88.0944 339.087 88.3865C339.419 88.7016 339.78 89.0454 340.113 89.3616C340.42 89.6536 340.832 89.812 341.256 89.8015C341.679 89.7899 342.082 89.6111 342.374 89.3035C342.538 89.1318 342.652 89.0111 342.652 89.0111Z" stroke="#232323" stroke-width="0.592227" stroke-miterlimit="1.5" stroke-linecap="round" stroke-linejoin="round"/>
<path d="M347.49 73.635C346.177 72.3745 344.312 71.869 342.542 72.2937C340.772 72.7183 339.34 74.0148 338.741 75.7339C338.168 77.3819 337.603 79.004 337.16 80.2784C336.623 81.82 337.034 83.5331 338.212 84.6635C339.859 86.2448 342.215 88.5063 343.863 90.0876C345.04 91.218 346.769 91.5585 348.287 90.9593C349.542 90.4639 351.14 89.8334 352.763 89.1929C354.456 88.5247 355.693 87.0405 356.045 85.2546C356.397 83.4686 355.815 81.6264 354.502 80.3659" stroke="#232323" stroke-width="0.742701" stroke-miterlimit="1.5" stroke-linecap="round" stroke-linejoin="round"/>
<path d="M354.496 80.366L354.181 80.0636" stroke="#232323" stroke-width="0.742701" stroke-miterlimit="1.5" stroke-linecap="round" stroke-linejoin="round"/>
<path d="M351.508 77.493L350.227 76.2635" stroke="#232323" stroke-width="0.742701" stroke-miterlimit="1.5" stroke-linecap="round" stroke-linejoin="round"/>
<path d="M346.765 74.8754L346.395 74.508C345.845 73.9624 345.101 73.6575 344.327 73.6603C343.552 73.6632 342.811 73.9735 342.265 74.5231C341.72 75.0727 341.415 75.8165 341.418 76.5909C341.42 77.3653 341.731 78.1069 342.28 78.6525C344.167 80.5254 346.938 83.2765 348.825 85.1496C349.374 85.6951 350.118 86 350.893 85.9972C351.667 85.9944 352.409 85.684 352.954 85.1344C353.5 84.5848 353.805 83.8411 353.802 83.0667C353.799 82.2922 353.489 81.5506 352.939 81.0051" stroke="#232323" stroke-width="0.367719" stroke-miterlimit="1.5" stroke-linecap="round" stroke-linejoin="round"/>
<path d="M350.663 78.7448L348.963 77.0576" stroke="#232323" stroke-width="0.367719" stroke-miterlimit="1.5" stroke-linecap="round" stroke-linejoin="round"/>
<path fill-rule="evenodd" clip-rule="evenodd" d="M351.839 74.2994C352.135 74.0201 352.307 73.635 352.318 73.2287C352.33 72.8224 352.179 72.4282 351.9 72.1329C351.621 71.8376 351.235 71.6652 350.829 71.6539C350.423 71.6425 350.029 71.793 349.733 72.0723C348.415 73.3189 346.232 75.3827 344.914 76.6294C344.619 76.9086 344.446 77.2938 344.435 77.7001C344.424 78.1064 344.574 78.5005 344.854 78.7959C345.133 79.0912 345.518 79.2635 345.924 79.2749C346.331 79.2863 346.725 79.1358 347.02 78.8565C348.338 77.6098 350.521 75.546 351.839 74.2994Z" stroke="#232323" stroke-width="0.334235" stroke-miterlimit="1.5" stroke-linecap="round" stroke-linejoin="round"/>
<path fill-rule="evenodd" clip-rule="evenodd" d="M355.615 78.2996C355.91 78.0203 356.082 77.6351 356.093 77.2288C356.105 76.8226 355.954 76.4284 355.675 76.133C355.396 75.8377 355.011 75.6654 354.604 75.6541C354.198 75.6427 353.804 75.7932 353.509 76.0724C352.19 77.3191 350.008 79.3829 348.689 80.6295C348.394 80.9088 348.222 81.2939 348.21 81.7003C348.199 82.1065 348.35 82.5007 348.629 82.796C348.908 83.0914 349.293 83.2637 349.699 83.275C350.106 83.2864 350.5 83.1359 350.795 82.8566C352.114 81.61 354.296 79.5462 355.615 78.2996Z" stroke="#232323" stroke-width="0.371361" stroke-miterlimit="1.5" stroke-linecap="round" stroke-linejoin="round"/>
<path d="M339.383 88.9616C337.687 91.3106 333.325 93.4705 327.321 93.0396" stroke="#232323" stroke-width="0.926528" stroke-miterlimit="1.5" stroke-linecap="round" stroke-linejoin="round"/>
</g>
<path d="M233.028 143.288C231.7 143.288 230.412 143.112 229.164 142.76C227.932 142.392 226.94 141.92 226.188 141.344L227.508 138.416C228.228 138.944 229.084 139.368 230.076 139.688C231.068 140.008 232.06 140.168 233.052 140.168C234.156 140.168 234.972 140.008 235.5 139.688C236.028 139.352 236.292 138.912 236.292 138.368C236.292 137.968 236.132 137.64 235.812 137.384C235.508 137.112 235.108 136.896 234.612 136.736C234.132 136.576 233.476 136.4 232.644 136.208C231.364 135.904 230.316 135.6 229.5 135.296C228.684 134.992 227.98 134.504 227.388 133.832C226.812 133.16 226.524 132.264 226.524 131.144C226.524 130.168 226.788 129.288 227.316 128.504C227.844 127.704 228.636 127.072 229.692 126.608C230.764 126.144 232.068 125.912 233.604 125.912C234.676 125.912 235.724 126.04 236.748 126.296C237.772 126.552 238.668 126.92 239.436 127.4L238.236 130.352C236.684 129.472 235.132 129.032 233.58 129.032C232.492 129.032 231.684 129.208 231.156 129.56C230.644 129.912 230.388 130.376 230.388 130.952C230.388 131.528 230.684 131.96 231.276 132.248C231.884 132.52 232.804 132.792 234.036 133.064C235.316 133.368 236.364 133.672 237.18 133.976C237.996 134.28 238.692 134.76 239.268 135.416C239.86 136.072 240.156 136.96 240.156 138.08C240.156 139.04 239.884 139.92 239.34 140.72C238.812 141.504 238.012 142.128 236.94 142.592C235.868 143.056 234.564 143.288 233.028 143.288ZM250.876 142.376C250.508 142.648 250.052 142.856 249.508 143C248.98 143.128 248.42 143.192 247.828 143.192C246.292 143.192 245.1 142.8 244.252 142.016C243.42 141.232 243.004 140.08 243.004 138.56V133.256H241.012V130.376H243.004V127.232H246.748V130.376H249.964V133.256H246.748V138.512C246.748 139.056 246.884 139.48 247.156 139.784C247.444 140.072 247.844 140.216 248.356 140.216C248.948 140.216 249.452 140.056 249.868 139.736L250.876 142.376ZM265.56 130.088L259.728 143.792C259.136 145.28 258.4 146.328 257.52 146.936C256.656 147.544 255.608 147.848 254.376 147.848C253.704 147.848 253.04 147.744 252.384 147.536C251.728 147.328 251.192 147.04 250.776 146.672L252.144 144.008C252.432 144.264 252.76 144.464 253.128 144.608C253.512 144.752 253.888 144.824 254.256 144.824C254.768 144.824 255.184 144.696 255.504 144.44C255.824 144.2 256.112 143.792 256.368 143.216L256.416 143.096L250.824 130.088H254.688L258.312 138.848L261.96 130.088H265.56ZM267.087 125.192H270.831V143H267.087V125.192ZM286.954 136.592C286.954 136.64 286.93 136.976 286.882 137.6H277.114C277.29 138.4 277.706 139.032 278.362 139.496C279.018 139.96 279.834 140.192 280.81 140.192C281.482 140.192 282.074 140.096 282.586 139.904C283.114 139.696 283.602 139.376 284.05 138.944L286.042 141.104C284.826 142.496 283.05 143.192 280.714 143.192C279.258 143.192 277.97 142.912 276.85 142.352C275.73 141.776 274.866 140.984 274.258 139.976C273.65 138.968 273.346 137.824 273.346 136.544C273.346 135.28 273.642 134.144 274.234 133.136C274.842 132.112 275.666 131.32 276.706 130.76C277.762 130.184 278.938 129.896 280.234 129.896C281.498 129.896 282.642 130.168 283.666 130.712C284.69 131.256 285.49 132.04 286.066 133.064C286.658 134.072 286.954 135.248 286.954 136.592ZM280.258 132.728C279.41 132.728 278.698 132.968 278.122 133.448C277.546 133.928 277.194 134.584 277.066 135.416H283.426C283.298 134.6 282.946 133.952 282.37 133.472C281.794 132.976 281.09 132.728 280.258 132.728ZM307.86 134.336H311.412V141.152C310.5 141.84 309.444 142.368 308.244 142.736C307.044 143.104 305.836 143.288 304.62 143.288C302.876 143.288 301.308 142.92 299.916 142.184C298.524 141.432 297.428 140.4 296.628 139.088C295.844 137.76 295.452 136.264 295.452 134.6C295.452 132.936 295.844 131.448 296.628 130.136C297.428 128.808 298.532 127.776 299.94 127.04C301.348 126.288 302.932 125.912 304.692 125.912C306.164 125.912 307.5 126.16 308.7 126.656C309.9 127.152 310.908 127.872 311.724 128.816L309.228 131.12C308.028 129.856 306.58 129.224 304.884 129.224C303.812 129.224 302.86 129.448 302.028 129.896C301.196 130.344 300.548 130.976 300.084 131.792C299.62 132.608 299.388 133.544 299.388 134.6C299.388 135.64 299.62 136.568 300.084 137.384C300.548 138.2 301.188 138.84 302.004 139.304C302.836 139.752 303.78 139.976 304.836 139.976C305.956 139.976 306.964 139.736 307.86 139.256V134.336ZM327.767 130.088V143H324.215V141.464C323.719 142.024 323.127 142.456 322.439 142.76C321.751 143.048 321.007 143.192 320.207 143.192C318.511 143.192 317.167 142.704 316.175 141.728C315.183 140.752 314.687 139.304 314.687 137.384V130.088H318.431V136.832C318.431 138.912 319.303 139.952 321.047 139.952C321.943 139.952 322.663 139.664 323.207 139.088C323.751 138.496 324.023 137.624 324.023 136.472V130.088H327.767ZM331.236 130.088H334.98V143H331.236V130.088ZM333.108 128.288C332.42 128.288 331.86 128.088 331.428 127.688C330.996 127.288 330.78 126.792 330.78 126.2C330.78 125.608 330.996 125.112 331.428 124.712C331.86 124.312 332.42 124.112 333.108 124.112C333.796 124.112 334.356 124.304 334.788 124.688C335.22 125.072 335.436 125.552 335.436 126.128C335.436 126.752 335.22 127.272 334.788 127.688C334.356 128.088 333.796 128.288 333.108 128.288ZM351.607 125.192V143H348.031V141.512C347.103 142.632 345.759 143.192 343.999 143.192C342.783 143.192 341.679 142.92 340.687 142.376C339.711 141.832 338.943 141.056 338.383 140.048C337.823 139.04 337.543 137.872 337.543 136.544C337.543 135.216 337.823 134.048 338.383 133.04C338.943 132.032 339.711 131.256 340.687 130.712C341.679 130.168 342.783 129.896 343.999 129.896C345.647 129.896 346.935 130.416 347.863 131.456V125.192H351.607ZM344.647 140.12C345.591 140.12 346.375 139.8 346.999 139.16C347.623 138.504 347.935 137.632 347.935 136.544C347.935 135.456 347.623 134.592 346.999 133.952C346.375 133.296 345.591 132.968 344.647 132.968C343.687 132.968 342.895 133.296 342.271 133.952C341.647 134.592 341.335 135.456 341.335 136.544C341.335 137.632 341.647 138.504 342.271 139.16C342.895 139.8 343.687 140.12 344.647 140.12ZM367.72 136.592C367.72 136.64 367.696 136.976 367.648 137.6H357.88C358.056 138.4 358.472 139.032 359.128 139.496C359.784 139.96 360.6 140.192 361.576 140.192C362.248 140.192 362.84 140.096 363.352 139.904C363.88 139.696 364.368 139.376 364.816 138.944L366.808 141.104C365.592 142.496 363.816 143.192 361.48 143.192C360.024 143.192 358.736 142.912 357.616 142.352C356.496 141.776 355.632 140.984 355.024 139.976C354.416 138.968 354.112 137.824 354.112 136.544C354.112 135.28 354.408 134.144 355 133.136C355.608 132.112 356.432 131.32 357.472 130.76C358.528 130.184 359.704 129.896 361 129.896C362.264 129.896 363.408 130.168 364.432 130.712C365.456 131.256 366.256 132.04 366.832 133.064C367.424 134.072 367.72 135.248 367.72 136.592ZM361.024 132.728C360.176 132.728 359.464 132.968 358.888 133.448C358.312 133.928 357.96 134.584 357.832 135.416H364.192C364.064 134.6 363.712 133.952 363.136 133.472C362.56 132.976 361.856 132.728 361.024 132.728Z" fill="#232323"/>
<path d="M242.867 188.4H245.783V201H242.867V188.4ZM248.575 187.644H251.383V201H248.575V187.644ZM253.989 187.644H256.797V201H253.989V187.644ZM269.159 191.316V201H266.495V199.848C266.123 200.268 265.679 200.592 265.163 200.82C264.647 201.036 264.089 201.144 263.489 201.144C262.217 201.144 261.209 200.778 260.465 200.046C259.721 199.314 259.349 198.228 259.349 196.788V191.316H262.157V196.374C262.157 197.934 262.811 198.714 264.119 198.714C264.791 198.714 265.331 198.498 265.739 198.066C266.147 197.622 266.351 196.968 266.351 196.104V191.316H269.159ZM275.019 201.144C274.215 201.144 273.429 201.048 272.661 200.856C271.893 200.652 271.281 200.4 270.825 200.1L271.761 198.084C272.193 198.36 272.715 198.588 273.327 198.768C273.939 198.936 274.539 199.02 275.127 199.02C276.315 199.02 276.909 198.726 276.909 198.138C276.909 197.862 276.747 197.664 276.423 197.544C276.099 197.424 275.601 197.322 274.929 197.238C274.137 197.118 273.483 196.98 272.967 196.824C272.451 196.668 272.001 196.392 271.617 195.996C271.245 195.6 271.059 195.036 271.059 194.304C271.059 193.692 271.233 193.152 271.581 192.684C271.941 192.204 272.457 191.832 273.129 191.568C273.813 191.304 274.617 191.172 275.541 191.172C276.225 191.172 276.903 191.25 277.575 191.406C278.259 191.55 278.823 191.754 279.267 192.018L278.331 194.016C277.479 193.536 276.549 193.296 275.541 193.296C274.941 193.296 274.491 193.38 274.191 193.548C273.891 193.716 273.741 193.932 273.741 194.196C273.741 194.496 273.903 194.706 274.227 194.826C274.551 194.946 275.067 195.06 275.775 195.168C276.567 195.3 277.215 195.444 277.719 195.6C278.223 195.744 278.661 196.014 279.033 196.41C279.405 196.806 279.591 197.358 279.591 198.066C279.591 198.666 279.411 199.2 279.051 199.668C278.691 200.136 278.163 200.502 277.467 200.766C276.783 201.018 275.967 201.144 275.019 201.144ZM287.569 200.532C287.293 200.736 286.951 200.892 286.543 201C286.147 201.096 285.727 201.144 285.283 201.144C284.131 201.144 283.237 200.85 282.601 200.262C281.977 199.674 281.665 198.81 281.665 197.67V193.692H280.171V191.532H281.665V189.174H284.473V191.532H286.885V193.692H284.473V197.634C284.473 198.042 284.575 198.36 284.779 198.588C284.995 198.804 285.295 198.912 285.679 198.912C286.123 198.912 286.501 198.792 286.813 198.552L287.569 200.532ZM291.828 192.594C292.164 192.126 292.614 191.772 293.178 191.532C293.754 191.292 294.414 191.172 295.158 191.172V193.764C294.846 193.74 294.636 193.728 294.528 193.728C293.724 193.728 293.094 193.956 292.638 194.412C292.182 194.856 291.954 195.528 291.954 196.428V201H289.146V191.316H291.828V192.594ZM300.681 191.172C302.181 191.172 303.333 191.532 304.137 192.252C304.941 192.96 305.343 194.034 305.343 195.474V201H302.715V199.794C302.187 200.694 301.203 201.144 299.763 201.144C299.019 201.144 298.371 201.018 297.819 200.766C297.279 200.514 296.865 200.166 296.577 199.722C296.289 199.278 296.145 198.774 296.145 198.21C296.145 197.31 296.481 196.602 297.153 196.086C297.837 195.57 298.887 195.312 300.303 195.312H302.535C302.535 194.7 302.349 194.232 301.977 193.908C301.605 193.572 301.047 193.404 300.303 193.404C299.787 193.404 299.277 193.488 298.773 193.656C298.281 193.812 297.861 194.028 297.513 194.304L296.505 192.342C297.033 191.97 297.663 191.682 298.395 191.478C299.139 191.274 299.901 191.172 300.681 191.172ZM300.465 199.254C300.945 199.254 301.371 199.146 301.743 198.93C302.115 198.702 302.379 198.372 302.535 197.94V196.95H300.609C299.457 196.95 298.881 197.328 298.881 198.084C298.881 198.444 299.019 198.732 299.295 198.948C299.583 199.152 299.973 199.254 300.465 199.254ZM314.13 200.532C313.854 200.736 313.512 200.892 313.104 201C312.708 201.096 312.288 201.144 311.844 201.144C310.692 201.144 309.798 200.85 309.162 200.262C308.538 199.674 308.226 198.81 308.226 197.67V193.692H306.732V191.532H308.226V189.174H311.034V191.532H313.446V193.692H311.034V197.634C311.034 198.042 311.136 198.36 311.34 198.588C311.556 198.804 311.856 198.912 312.24 198.912C312.684 198.912 313.062 198.792 313.374 198.552L314.13 200.532ZM315.706 191.316H318.514V201H315.706V191.316ZM317.11 189.966C316.594 189.966 316.174 189.816 315.85 189.516C315.526 189.216 315.364 188.844 315.364 188.4C315.364 187.956 315.526 187.584 315.85 187.284C316.174 186.984 316.594 186.834 317.11 186.834C317.626 186.834 318.046 186.978 318.37 187.266C318.694 187.554 318.856 187.914 318.856 188.346C318.856 188.814 318.694 189.204 318.37 189.516C318.046 189.816 317.626 189.966 317.11 189.966ZM325.728 201.144C324.708 201.144 323.79 200.934 322.974 200.514C322.17 200.082 321.54 199.488 321.084 198.732C320.628 197.976 320.4 197.118 320.4 196.158C320.4 195.198 320.628 194.34 321.084 193.584C321.54 192.828 322.17 192.24 322.974 191.82C323.79 191.388 324.708 191.172 325.728 191.172C326.748 191.172 327.66 191.388 328.464 191.82C329.268 192.24 329.898 192.828 330.354 193.584C330.81 194.34 331.038 195.198 331.038 196.158C331.038 197.118 330.81 197.976 330.354 198.732C329.898 199.488 329.268 200.082 328.464 200.514C327.66 200.934 326.748 201.144 325.728 201.144ZM325.728 198.84C326.448 198.84 327.036 198.6 327.492 198.12C327.96 197.628 328.194 196.974 328.194 196.158C328.194 195.342 327.96 194.694 327.492 194.214C327.036 193.722 326.448 193.476 325.728 193.476C325.008 193.476 324.414 193.722 323.946 194.214C323.478 194.694 323.244 195.342 323.244 196.158C323.244 196.974 323.478 197.628 323.946 198.12C324.414 198.6 325.008 198.84 325.728 198.84ZM338.801 191.172C340.001 191.172 340.967 191.532 341.699 192.252C342.443 192.972 342.815 194.04 342.815 195.456V201H340.007V195.888C340.007 195.12 339.839 194.55 339.503 194.178C339.167 193.794 338.681 193.602 338.045 193.602C337.337 193.602 336.773 193.824 336.353 194.268C335.933 194.7 335.723 195.348 335.723 196.212V201H332.915V191.316H335.597V192.45C335.969 192.042 336.431 191.73 336.983 191.514C337.535 191.286 338.141 191.172 338.801 191.172ZM348.618 201.144C347.814 201.144 347.028 201.048 346.26 200.856C345.492 200.652 344.88 200.4 344.424 200.1L345.36 198.084C345.792 198.36 346.314 198.588 346.926 198.768C347.538 198.936 348.138 199.02 348.726 199.02C349.914 199.02 350.508 198.726 350.508 198.138C350.508 197.862 350.346 197.664 350.022 197.544C349.698 197.424 349.2 197.322 348.528 197.238C347.736 197.118 347.082 196.98 346.566 196.824C346.05 196.668 345.6 196.392 345.216 195.996C344.844 195.6 344.658 195.036 344.658 194.304C344.658 193.692 344.832 193.152 345.18 192.684C345.54 192.204 346.056 191.832 346.728 191.568C347.412 191.304 348.216 191.172 349.14 191.172C349.824 191.172 350.502 191.25 351.174 191.406C351.858 191.55 352.422 191.754 352.866 192.018L351.93 194.016C351.078 193.536 350.148 193.296 349.14 193.296C348.54 193.296 348.09 193.38 347.79 193.548C347.49 193.716 347.34 193.932 347.34 194.196C347.34 194.496 347.502 194.706 347.826 194.826C348.15 194.946 348.666 195.06 349.374 195.168C350.166 195.3 350.814 195.444 351.318 195.6C351.822 195.744 352.26 196.014 352.632 196.41C353.004 196.806 353.19 197.358 353.19 198.066C353.19 198.666 353.01 199.2 352.65 199.668C352.29 200.136 351.762 200.502 351.066 200.766C350.382 201.018 349.566 201.144 348.618 201.144Z" fill="#232323"/>
<g clip-path="url(#clip1_3_692)">
<path d="M162.533 415.451H166.861L168.92 398.757L162.532 398.757L162.533 415.451Z" fill="#FFB7B7"/>
<path d="M161.429 414.038L169.952 414.037H169.953C171.393 414.037 172.775 414.61 173.793 415.628C174.812 416.647 175.384 418.028 175.385 419.469V419.645L161.429 419.646L161.429 414.038Z" fill="#2F2E41"/>
<path d="M139.1 415.451H143.428L145.487 398.757L139.099 398.757L139.1 415.451Z" fill="#FFB7B7"/>
<path d="M137.996 414.038L146.519 414.037H146.52C147.96 414.037 149.342 414.61 150.36 415.628C151.379 416.647 151.951 418.028 151.951 419.469V419.645L137.996 419.646L137.996 414.038Z" fill="#2F2E41"/>
<path d="M137.336 339.791V383.868L138.452 412.322H147.658L150.727 358.761L156.864 380.799L160.77 411.764L171.928 411.206L164.396 339.791H137.336Z" fill="#2F2E41"/>
<path d="M148.038 300.177C151.736 300.177 154.733 297.18 154.733 293.482C154.733 289.785 151.736 286.787 148.038 286.787C144.341 286.787 141.343 289.785 141.343 293.482C141.343 297.18 144.341 300.177 148.038 300.177Z" fill="#FFB8B8"/>
<path d="M145.256 301.922L143.474 303.804L141.8 341.465L161.606 340.907L156.864 307.989L152.68 303.979L150.556 301.922H145.256Z" fill="#FFC940"/>
<path d="M142.079 306.036L143.582 303.596L144.032 308.825C144.032 308.825 147.658 320.542 147.379 330.864C147.1 341.186 148.774 365.456 146.542 365.735C144.311 366.014 134.826 366.572 134.826 364.619C134.826 362.666 134.268 310.778 134.268 310.778L142.079 306.036Z" fill="#3F3D56"/>
<path d="M152.23 303.596L156.027 306.594L164.396 309.662C164.396 309.662 164.396 345.37 166.07 353.739C167.744 362.108 170.812 362.945 166.907 363.224C163.001 363.503 163.28 362.108 163.28 362.108C163.28 362.108 166.07 348.16 162.443 345.37C158.817 342.58 151.843 326.4 152.401 317.473C152.959 308.546 151.672 303.596 152.23 303.596Z" fill="#3F3D56"/>
<path d="M141.704 295.577C141.704 295.577 142.273 294.578 142.141 291.241C142.009 287.903 147.09 289.791 151.337 289.473C155.583 289.154 154.684 295.044 154.684 295.044C154.684 295.044 154.991 294.694 155.647 291.851C156.303 289.009 154.813 286.176 154.813 286.176C154.375 283.189 152.011 284.146 152.011 284.146C153.149 284.589 152.931 285.537 152.931 285.537C151.967 283.847 149.603 284.805 149.603 284.805C146.451 282.826 143.255 285.432 143.255 285.432C139.447 286.296 141.681 289.325 141.681 289.325C137.85 291.26 141.704 295.577 141.704 295.577Z" fill="#2F2E41"/>
<path d="M134.835 360.585C135.119 360.285 135.333 359.927 135.464 359.535C135.594 359.143 135.637 358.727 135.589 358.317C135.541 357.907 135.404 357.513 135.187 357.161C134.971 356.81 134.679 356.51 134.334 356.283L135.54 349.943L131.866 348.271L130.289 357.248C129.946 357.853 129.838 358.563 129.984 359.242C130.129 359.922 130.519 360.525 131.08 360.936C131.64 361.347 132.332 361.539 133.024 361.474C133.716 361.409 134.361 361.093 134.835 360.585Z" fill="#FFB7B7"/>
<path d="M135.663 310.778L134.922 310.381C134.922 310.381 130.92 311.894 131.199 313.01C131.478 314.126 128.967 353.181 129.804 354.576C130.641 355.971 137.336 354.855 137.336 354.855L135.663 310.778Z" fill="#3F3D56"/>
<path d="M167.509 357.956C167.187 357.698 166.924 357.373 166.741 357.003C166.558 356.632 166.458 356.227 166.449 355.814C166.439 355.401 166.52 354.991 166.687 354.613C166.853 354.235 167.1 353.898 167.41 353.626L165.338 347.514L168.746 345.349L171.55 354.022C171.973 354.574 172.179 355.261 172.128 355.955C172.078 356.648 171.775 357.299 171.277 357.784C170.779 358.268 170.12 358.554 169.426 358.585C168.731 358.617 168.049 358.393 167.509 357.956V357.956Z" fill="#FFB7B7"/>
<path d="M164.239 352.627C164.239 352.627 171.024 352.806 171.66 351.308C172.296 349.811 164.406 311.479 164.527 310.335C164.649 309.191 160.477 308.247 160.477 308.247L159.798 308.742L164.239 352.627Z" fill="#3F3D56"/>
<path d="M194.228 354.352L190.027 333.767L188.182 318.564L184.094 321.209L184.658 337.963L191.183 355.322C190.974 355.721 190.887 356.174 190.936 356.623C190.984 357.071 191.165 357.495 191.455 357.841C191.744 358.186 192.131 358.438 192.564 358.564C192.997 358.689 193.458 358.683 193.888 358.546C194.318 358.409 194.697 358.148 194.978 357.794C195.259 357.441 195.428 357.013 195.464 356.563C195.501 356.113 195.403 355.663 195.182 355.269C194.962 354.875 194.63 354.556 194.228 354.352H194.228Z" fill="#FFB7B7"/>
<path d="M154.938 355.943L156.101 334.967L155.716 319.657L161.121 321.679L162.023 338.337L158.091 356.46C158.357 356.825 158.508 357.261 158.525 357.711C158.543 358.162 158.426 358.608 158.189 358.992C157.953 359.376 157.607 359.681 157.197 359.869C156.787 360.056 156.33 360.117 155.884 360.044C155.439 359.971 155.026 359.767 154.697 359.458C154.368 359.15 154.138 358.75 154.036 358.311C153.935 357.871 153.967 357.411 154.127 356.99C154.288 356.568 154.57 356.204 154.938 355.943Z" fill="#FFB7B7"/>
<path d="M166.258 416.928H169.019L170.333 406.276L166.257 406.276L166.258 416.928Z" fill="#FFB7B7"/>
<path d="M165.553 416.027L170.992 416.026H170.992C171.911 416.027 172.793 416.392 173.443 417.042C174.093 417.692 174.458 418.573 174.458 419.492V419.605L165.553 419.605L165.553 416.027Z" fill="#2F2E41"/>
<path d="M176.718 415.706L179.447 416.128L182.374 405.802L178.346 405.18L176.718 415.706Z" fill="#FFB7B7"/>
<path d="M176.16 414.707L181.534 415.539L181.535 415.539C182.443 415.679 183.258 416.175 183.801 416.917C184.344 417.659 184.57 418.586 184.43 419.494L184.413 419.605L175.613 418.244L176.16 414.707Z" fill="#2F2E41"/>
<path d="M165.446 413.748L165.432 413.671L155.435 359.617C154.641 355.277 155.274 350.798 157.239 346.848L163.29 334.746L181.346 337.192L183.477 352.6L191.071 381.993L191.063 382.017L181.334 412.922L174.958 413.341L180.606 385.755L170.263 362.264L170.993 413.328L165.446 413.748Z" fill="#2F2E41"/>
<path d="M181.766 339.164L181.647 338.977C181.626 338.944 179.433 335.639 173.464 337.845C167.372 340.098 162.651 335.747 162.604 335.703L162.58 335.681L161.2 323.383L159.572 313.399L164.757 312.489L167.306 310.96L177.443 310.779L180.11 312.877L184.49 313.355L184.89 322.452L184.889 322.462L181.766 339.164Z" fill="#FFC940"/>
<path d="M183.219 323.332V315.542L184.451 313.295L184.501 313.293C185.47 313.329 186.387 313.746 187.052 314.452C188.29 315.711 188.851 317.808 188.719 320.684L188.717 320.737L183.219 323.332Z" fill="#FFC940"/>
<path d="M161.753 322.485L155.476 321.732L155.472 321.659C155.257 318.529 155.804 316.206 157.095 314.753C157.744 313.977 158.663 313.476 159.668 313.353L159.704 313.351L161.403 314.896L161.753 322.485Z" fill="#FFC940"/>
<path d="M179.924 307.641H163.407C163.067 307.64 162.741 307.505 162.501 307.265C162.261 307.025 162.126 306.699 162.125 306.359V300.379C162.123 299.125 162.368 297.882 162.847 296.723C163.325 295.564 164.028 294.51 164.914 293.623C165.8 292.735 166.852 292.031 168.011 291.55C169.169 291.07 170.411 290.823 171.665 290.823C172.919 290.823 174.161 291.07 175.32 291.55C176.478 292.031 177.531 292.735 178.417 293.623C179.303 294.51 180.005 295.564 180.484 296.723C180.962 297.882 181.208 299.125 181.205 300.379V306.359C181.205 306.699 181.07 307.025 180.83 307.265C180.589 307.505 180.264 307.64 179.924 307.641Z" fill="#2F2E41"/>
<path d="M172.049 307.582C175.912 307.582 179.043 304.45 179.043 300.587C179.043 296.724 175.912 293.593 172.049 293.593C168.186 293.593 165.054 296.724 165.054 300.587C165.054 304.45 168.186 307.582 172.049 307.582Z" fill="#FFB7B7"/>
<path d="M178.697 300.806H169.463C169.289 300.806 169.122 300.742 168.992 300.627C168.862 300.513 168.778 300.354 168.756 300.182L168.637 299.226C168.625 299.134 168.584 299.048 168.52 298.982C168.455 298.915 168.371 298.871 168.279 298.857C168.188 298.842 168.094 298.858 168.012 298.902C167.93 298.945 167.865 299.014 167.826 299.098L167.22 300.395C167.163 300.518 167.072 300.621 166.957 300.694C166.843 300.767 166.711 300.806 166.575 300.806H165.173C165.073 300.806 164.975 300.785 164.884 300.745C164.794 300.705 164.712 300.646 164.646 300.573C164.579 300.5 164.528 300.413 164.497 300.319C164.466 300.225 164.454 300.125 164.464 300.026L165.017 294.249C165.029 294.125 165.072 294.007 165.144 293.905C165.215 293.804 165.312 293.722 165.424 293.669C169.653 291.695 173.941 291.697 178.171 293.677C178.278 293.727 178.371 293.804 178.441 293.899C178.512 293.994 178.557 294.106 178.573 294.223L179.402 299.993C179.416 300.094 179.409 300.197 179.38 300.295C179.352 300.393 179.302 300.483 179.235 300.56C179.168 300.638 179.086 300.699 178.993 300.742C178.9 300.784 178.799 300.806 178.697 300.806H178.697Z" fill="#2F2E41"/>
<path d="M182.497 355.006C182.849 354.881 183.169 354.681 183.436 354.419C183.702 354.157 183.908 353.84 184.038 353.49C184.169 353.14 184.221 352.766 184.191 352.394C184.161 352.021 184.05 351.66 183.866 351.335L189.852 344.511L185.179 343.866L180.21 350.446C179.685 350.792 179.306 351.318 179.143 351.926C178.98 352.533 179.046 353.179 179.328 353.741C179.61 354.303 180.088 354.743 180.672 354.976C181.256 355.209 181.905 355.219 182.497 355.006Z" fill="#9F616A"/>
<path d="M189.717 415.49L185.541 415.49L183.555 399.385L189.718 399.385L189.717 415.49Z" fill="#9F616A"/>
<path d="M190.782 419.538L177.318 419.537V419.367C177.318 417.977 177.871 416.644 178.853 415.662C179.836 414.679 181.169 414.127 182.559 414.127H182.559L190.782 414.127L190.782 419.538Z" fill="#2F2E41"/>
<path d="M211.574 411.996L207.586 413.234L200.913 398.442L206.799 396.615L211.574 411.996Z" fill="#9F616A"/>
<path d="M213.791 415.546L200.933 419.538L200.883 419.375C200.471 418.048 200.603 416.611 201.25 415.381C201.897 414.151 203.006 413.229 204.333 412.817L204.334 412.817L212.187 410.378L213.791 415.546Z" fill="#2F2E41"/>
<path d="M186.519 341.238L180.335 348.32L185.177 348.756L186.519 341.238Z" fill="#E6E6E6"/>
<path d="M184.103 350.367C184.103 350.367 181.955 351.441 181.686 356.274C181.418 361.107 182.492 373.727 182.492 373.727C182.492 373.727 181.418 379.366 182.492 384.467C183.566 389.568 181.418 408.094 182.761 408.094C184.103 408.094 191.084 408.899 191.352 408.094C191.621 407.288 191.889 395.206 191.889 395.206C191.889 395.206 194.037 389.031 191.889 385.273C191.889 385.273 199.389 398.369 204.24 408.363C205.302 410.551 213.369 408.095 212.027 405.678C210.684 403.262 207.462 392.253 207.462 392.253C207.462 392.253 205.046 384.198 200.75 380.708L202.898 363.524C202.898 363.524 207.463 351.979 204.778 350.368C202.093 348.757 184.103 350.367 184.103 350.367Z" fill="#2F2E41"/>
<path d="M192.158 306.602C196.013 306.602 199.139 303.476 199.139 299.621C199.139 295.766 196.013 292.64 192.158 292.64C188.302 292.64 185.177 295.766 185.177 299.621C185.177 303.476 188.302 306.602 192.158 306.602Z" fill="#A0616A"/>
<path d="M199.944 307.139L191.266 312.24C191.266 312.24 187.943 314.112 186.701 317.342C185.378 320.784 186.147 325.631 186.701 326.739C187.775 328.887 186.251 334.257 186.251 334.257L184.909 346.608C184.909 346.608 180.076 351.172 183.835 351.709C187.594 352.246 194.306 351.44 198.333 351.709C202.361 351.977 206.925 352.514 205.583 349.829C204.24 347.143 202.63 345.264 204.24 339.895C205.501 335.693 205.446 319.982 205.363 313.347C205.352 312.436 205.107 311.543 204.653 310.753C204.199 309.963 203.55 309.302 202.769 308.833L199.944 307.139Z" fill="#FFDC84"/>
<path opacity="0.1" d="M196.052 315.597L196.857 331.975L189.051 347.783L187.728 347.279L195.783 332.512L196.052 315.597Z" fill="black"/>
<path opacity="0.1" d="M204.911 335.465V333.585L195.784 348.621L204.911 335.465Z" fill="black"/>
<path d="M187.203 293.154L186.05 292.693C186.05 292.693 188.464 290.036 191.82 290.267L190.876 289.227C190.876 289.227 193.184 288.303 195.283 290.729C196.386 292.004 197.662 293.503 198.458 295.191H199.694L199.178 296.327L200.984 297.463L199.131 297.26C199.306 298.24 199.246 299.248 198.955 300.201L199.006 301.099C199.006 301.099 196.857 297.774 196.857 297.312V298.468C196.857 298.468 195.703 297.428 195.703 296.735L195.073 297.544L194.759 296.273L190.877 297.544L191.506 296.503L189.092 296.85L190.037 295.58C190.037 295.58 187.309 297.081 187.204 298.352C187.099 299.623 185.735 301.24 185.735 301.24L185.106 300.084C185.106 300.084 184.162 294.887 187.203 293.154Z" fill="#2F2E41"/>
<path d="M191.72 355.765C192.044 355.58 192.324 355.326 192.539 355.021C192.755 354.716 192.901 354.368 192.967 354C193.034 353.633 193.019 353.255 192.923 352.894C192.828 352.533 192.654 352.197 192.415 351.91L197.096 344.131L192.382 344.326L188.66 351.684C188.205 352.117 187.925 352.703 187.872 353.33C187.82 353.956 188 354.58 188.377 355.084C188.754 355.587 189.303 355.934 189.919 356.06C190.535 356.185 191.176 356.081 191.72 355.765Z" fill="#9F616A"/>
<path d="M202.361 310.63L204.375 310.227C204.375 310.227 210.416 314.657 208.536 323.518C206.657 332.378 198.333 345.803 198.333 345.803C198.333 345.803 196.453 348.219 195.917 348.756C195.38 349.293 194.306 348.756 194.843 349.562C195.38 350.367 194.037 350.904 194.037 350.904C194.037 350.904 188.131 350.904 188.668 348.756C189.205 346.608 198.333 331.303 198.333 331.303L196.991 317.073C196.991 317.073 195.917 310.093 202.361 310.63Z" fill="#FFDC84"/>
<path d="M296.698 420.178H115.028C114.949 420.178 114.873 420.147 114.817 420.091C114.762 420.035 114.73 419.96 114.73 419.881C114.73 419.802 114.762 419.726 114.817 419.671C114.873 419.615 114.949 419.583 115.028 419.583H296.698C296.776 419.583 296.852 419.615 296.908 419.671C296.964 419.726 296.995 419.802 296.995 419.881C296.995 419.96 296.964 420.035 296.908 420.091C296.852 420.147 296.776 420.178 296.698 420.178Z" fill="#FFDC84"/>
<path d="M73.7891 296.42V296.522H70.9857C70.5554 296.522 70.1427 296.693 69.8384 296.997C69.5341 297.301 69.3632 297.714 69.3632 298.144V304.084C69.3632 304.514 69.5341 304.927 69.8384 305.231C70.1427 305.535 70.5554 305.706 70.9857 305.706H86.3654C86.7957 305.706 87.2084 305.535 87.5127 305.231C87.817 304.927 87.9879 304.514 87.9879 304.084V298.144C87.9879 297.714 87.817 297.301 87.5127 296.997C87.2084 296.693 86.7957 296.522 86.3654 296.522H75.7846V296.42L73.7891 296.42Z" fill="#3F3D56"/>
<path d="M114.554 321.089C114.619 329.854 109.018 328.528 102.19 328.528C95.3614 328.528 90.4213 329.834 89.8259 321.089C88.8799 307.192 92.5299 296.785 102.19 296.785C112.183 296.785 114.45 307.192 114.554 321.089Z" fill="#2F2E41"/>
<path d="M77.1562 302.497C77.3768 302.943 77.4969 303.432 77.508 303.93C77.519 304.428 77.4208 304.922 77.2202 305.378C77.0196 305.834 76.7215 306.24 76.3469 306.568C75.9723 306.896 75.5303 307.138 75.052 307.277L74.429 319.366L69.363 315.637L70.7313 304.729C70.5514 303.91 70.6781 303.054 71.0874 302.322C71.4967 301.59 72.1602 301.034 72.9521 300.759C73.744 300.484 74.6094 300.509 75.3843 300.829C76.1591 301.149 76.7896 301.743 77.1562 302.497V302.497Z" fill="#A0616A"/>
<path d="M122.839 370.814C123.114 370.399 123.295 369.928 123.368 369.436C123.441 368.943 123.406 368.441 123.264 367.963C123.122 367.486 122.877 367.046 122.547 366.673C122.216 366.301 121.808 366.005 121.351 365.807L122.249 353.736L116.756 356.8L116.745 367.793C116.464 368.583 116.482 369.449 116.796 370.226C117.111 371.003 117.699 371.638 118.45 372.01C119.202 372.383 120.063 372.467 120.872 372.246C121.681 372.026 122.381 371.516 122.839 370.814H122.839Z" fill="#A0616A"/>
<path d="M97.5395 428.922L101.692 428.922L103.668 412.904L97.5386 412.904L97.5395 428.922Z" fill="#A0616A"/>
<path d="M96.48 427.567L104.658 427.566H104.659C105.343 427.566 106.021 427.701 106.653 427.963C107.286 428.225 107.86 428.609 108.344 429.093C108.828 429.577 109.212 430.151 109.474 430.784C109.736 431.416 109.871 432.094 109.871 432.778V432.947L96.4802 432.948L96.48 427.567Z" fill="#2F2E41"/>
<path d="M123.961 428.922L128.114 428.922L130.089 412.904L123.96 412.904L123.961 428.922Z" fill="#A0616A"/>
<path d="M122.901 427.567L131.08 427.566H131.08C131.765 427.566 132.442 427.701 133.075 427.963C133.707 428.225 134.282 428.609 134.766 429.093C135.25 429.577 135.634 430.151 135.895 430.784C136.157 431.416 136.292 432.094 136.292 432.778V432.947L122.902 432.948L122.901 427.567Z" fill="#2F2E41"/>
<path d="M121.59 364.163L121.41 364.13C119.897 363.856 118.366 363.58 117.02 363.29L116.887 363.261L116.886 363.125C116.863 356.985 116.84 350.846 116.806 344.652C113.591 338.171 112.24 330.925 112.902 323.721L112.91 323.645L112.972 323.601C113.558 323.194 114.242 322.95 114.953 322.895C115.664 322.84 116.377 322.976 117.019 323.288C117.646 323.631 118.183 324.119 118.583 324.711C118.984 325.304 119.237 325.983 119.322 326.694C120.546 333.365 121.813 340.274 123.227 347.082L123.232 347.107L123.23 347.132C122.706 352.684 122.164 358.425 121.609 363.98L121.59 364.163Z" fill="#FFC940"/>
<path d="M118.883 423.213L118.85 423.057C116.907 413.868 115.032 406.384 113.218 399.148C111.045 390.475 108.985 382.256 106.906 371.621C107.192 385.033 107.855 394.668 108.617 405.744C108.962 410.745 109.317 415.916 109.679 421.953L109.69 422.137L109.505 422.133C103.006 421.966 96.3467 421.565 89.9068 421.177L89.7365 421.166L89.748 420.996C90.9673 403.025 91.3493 391.347 91.6283 382.82C92.2168 364.83 92.3073 362.065 99.0085 346.84C99.2624 346.263 100.778 344.556 102.444 344.816L115.628 346.868L115.651 346.984C116.024 348.858 117.87 354.544 120.425 362.415C125.887 379.24 134.142 404.665 136.721 419.821L136.75 419.993L136.578 420.017C132.832 420.549 130.137 421.104 127.53 421.64C125.063 422.147 122.513 422.672 119.041 423.19L118.883 423.213Z" fill="#2F2E41"/>
<path d="M107.424 351.624C103.905 351.624 100.427 350.403 97.9338 348.026C97.5441 347.799 97.2146 347.482 96.973 347.101C96.7314 346.721 96.5847 346.288 96.5454 345.839C96.4815 345.427 96.5083 345.007 96.6241 344.607C96.7399 344.207 96.9418 343.837 97.2157 343.523C94.7711 340.564 92.2471 337.506 89.8311 334.392L89.7643 334.306L89.8417 334.158C91.4224 331.138 93.0569 328.016 94.6267 324.93C94.7359 324.661 94.9157 324.426 95.1472 324.251C95.3786 324.076 95.6531 323.966 95.9416 323.934C96.1922 323.887 96.4498 323.891 96.6987 323.947C96.9477 324.002 97.1826 324.108 97.3892 324.258L97.3924 324.183C97.4579 322.621 97.5236 321.059 97.591 319.578L97.5982 319.42L97.7565 319.416C100.775 319.35 103.896 319.28 106.961 319.099L107.078 319.092L108.598 322.484C111.068 322.244 113.553 322.748 115.733 323.932L115.834 323.985L115.822 324.099C115.21 329.928 115.343 335.811 116.218 341.606C116.17 344.252 116.119 346.957 115.582 349.112L115.567 349.175L115.513 349.212C113.117 350.802 110.3 351.642 107.424 351.624Z" fill="#FFC940"/>
<path d="M94.4716 336.909L94.2691 336.816C91.9046 335.63 89.5327 334.314 87.239 333.042L86.9221 332.98C80.8826 331.767 77.5558 331.1 72.1071 327.905L72.0653 327.88L72.0428 327.837C69.3145 322.625 68.5535 318.069 69.2349 311.028L69.2485 310.887L69.3898 310.876C69.9804 310.828 70.9431 310.796 71.8741 310.764C72.7798 310.734 73.7164 310.703 74.2906 310.658L74.4238 310.647L74.465 310.774C75.1789 312.979 75.7854 315.036 76.4276 317.214C77.0876 319.452 77.7698 321.766 78.6008 324.336C81.6432 325.211 89.7992 324.949 92.3352 324.604C93.0937 324.548 93.8541 324.684 94.5464 324.999C95.2387 325.313 95.8408 325.797 96.2973 326.406L96.3444 326.464L96.3323 326.539C95.774 329.946 95.1329 333.373 94.5129 336.688L94.4716 336.909Z" fill="#FFC940"/>
<path d="M109.338 313.805C111.542 309.773 110.06 304.718 106.028 302.514C101.997 300.31 96.9416 301.792 94.7376 305.824C92.5337 309.856 94.0154 314.911 98.0472 317.115C102.079 319.319 107.134 317.837 109.338 313.805Z" fill="#A0616A"/>
<path d="M92.5358 309.319H95.8264L97.2781 305.254L97.5684 309.319H99.1412L99.988 306.947L100.157 309.319H111.844C111.844 306.983 110.916 304.743 109.264 303.091C107.613 301.439 105.372 300.511 103.037 300.511H101.343C99.0072 300.511 96.767 301.439 95.1154 303.091C93.4637 304.743 92.5358 306.983 92.5358 309.319Z" fill="#2F2E41"/>
</g>
<g clip-path="url(#clip2_3_692)">
<path d="M460.874 294.462H441.058V306.195H460.874V294.462Z" fill="#2F2E41"/>
<path d="M421.426 296.354H411.209V292.791C411.209 291.437 411.748 290.137 412.706 289.179C413.664 288.221 414.963 287.683 416.318 287.683C417.673 287.683 418.972 288.221 419.93 289.179C420.888 290.137 421.426 291.437 421.426 292.791V296.354ZM411.436 296.128H421.2V292.791C421.2 291.497 420.686 290.255 419.77 289.339C418.854 288.424 417.613 287.909 416.318 287.909C415.023 287.909 413.781 288.424 412.865 289.339C411.95 290.255 411.436 291.497 411.436 292.791V296.128Z" fill="#3F3D56"/>
<path d="M426.478 295.864V294.472L400.496 295.168L399.673 330.435L403.519 335.185L426.478 295.864Z" fill="#3F3D56"/>
<path d="M431.077 295.374L402.915 296.015L403.518 335.185L430.696 332.256L431.077 295.374Z" fill="#FFC940"/>
<path d="M455.021 422.283H451.824L450.303 409.953H455.021L455.021 422.283Z" fill="#FFB6B6"/>
<path d="M455.836 425.381L445.529 425.381V425.251C445.529 424.187 445.951 423.166 446.704 422.414C447.456 421.662 448.476 421.239 449.54 421.239H449.541L455.836 421.239L455.836 425.381Z" fill="#2F2E41"/>
<path d="M443.288 422.283H440.091L438.57 409.953H443.288L443.288 422.283Z" fill="#FFB6B6"/>
<path d="M444.103 425.381L433.796 425.381V425.251C433.796 424.187 434.218 423.166 434.971 422.414C435.723 421.662 436.743 421.239 437.807 421.239H437.808L444.103 421.239L444.103 425.381Z" fill="#2F2E41"/>
<path d="M433.9 345.08C433.9 345.08 429.229 355.138 433.449 375.383C437.668 395.628 437.703 417.854 437.703 417.854L444.155 417.959L447.779 370.108L449.676 417.283H456.033L461.634 370.854C461.634 370.854 465.321 350.122 457.1 346.41L433.9 345.08Z" fill="#2F2E41"/>
<path d="M456.255 309.585L442.129 308.283C437.7 311.511 435.213 317.311 435.724 323.294C436.416 331.407 436.182 342.571 430.628 347.422C430.628 347.422 445.764 359.368 459.209 348.034C459.209 348.034 454.611 335.718 457.768 330.799C460.924 325.881 462.063 312.062 456.255 309.585Z" fill="#FFDC84"/>
<path d="M414.223 289.539C414.18 289.946 414.227 290.357 414.36 290.745C414.493 291.132 414.709 291.485 414.993 291.78C415.278 292.075 415.623 292.303 416.005 292.45C416.388 292.597 416.798 292.658 417.206 292.629L435.857 310.035L439.2 304.943L419.816 289.434C419.722 288.751 419.38 288.127 418.856 287.678C418.333 287.23 417.662 286.99 416.973 287.003C416.284 287.015 415.623 287.281 415.116 287.748C414.61 288.215 414.292 288.852 414.223 289.539Z" fill="#FFB6B6"/>
<path d="M432.374 307.346L436.799 302.801C436.925 302.672 437.077 302.571 437.246 302.506C437.414 302.441 437.594 302.413 437.774 302.423C437.955 302.434 438.13 302.484 438.29 302.569C438.449 302.654 438.588 302.772 438.697 302.915L442.533 307.943C443.191 308.591 443.565 309.473 443.574 310.396C443.582 311.32 443.224 312.209 442.578 312.868C441.932 313.528 441.051 313.905 440.128 313.916C439.204 313.927 438.314 313.571 437.653 312.927L432.54 309.241C432.393 309.135 432.271 308.999 432.182 308.842C432.093 308.685 432.039 308.511 432.023 308.331C432.008 308.151 432.031 307.97 432.091 307.8C432.152 307.63 432.249 307.475 432.374 307.346V307.346Z" fill="#FFDC84"/>
<path d="M483.516 331.926C483.536 331.517 483.467 331.109 483.313 330.73C483.159 330.35 482.923 330.01 482.623 329.731C482.322 329.453 481.965 329.244 481.575 329.118C481.185 328.993 480.772 328.955 480.366 329.007L460.776 312.664L457.722 317.933L477.938 332.341C478.07 333.018 478.445 333.623 478.993 334.041C479.541 334.459 480.224 334.662 480.911 334.611C481.599 334.56 482.244 334.259 482.724 333.764C483.204 333.269 483.486 332.615 483.516 331.926Z" fill="#FFB6B6"/>
<path d="M464.403 315.155L460.238 319.939C460.12 320.075 459.973 320.184 459.809 320.258C459.644 320.333 459.466 320.371 459.285 320.37C459.105 320.369 458.927 320.329 458.763 320.253C458.599 320.178 458.454 320.067 458.336 319.93L454.227 315.123C453.534 314.513 453.111 313.653 453.051 312.731C452.992 311.81 453.3 310.902 453.908 310.208C454.517 309.513 455.376 309.088 456.297 309.026C457.218 308.963 458.127 309.269 458.823 309.876L464.133 313.272C464.285 313.37 464.414 313.498 464.512 313.65C464.61 313.802 464.674 313.973 464.699 314.152C464.725 314.33 464.712 314.512 464.661 314.686C464.61 314.859 464.522 315.019 464.403 315.155Z" fill="#FFDC84"/>
<path d="M485.506 338.837H477.767V336.138C477.767 335.112 478.175 334.128 478.901 333.402C479.626 332.677 480.611 332.269 481.637 332.269C482.663 332.269 483.647 332.677 484.373 333.402C485.099 334.128 485.506 335.112 485.506 336.138L485.506 338.837ZM477.939 338.666H485.335V336.138C485.335 335.158 484.945 334.217 484.252 333.523C483.558 332.83 482.618 332.44 481.637 332.44C480.656 332.44 479.715 332.83 479.022 333.523C478.328 334.217 477.939 335.158 477.939 336.138V338.666Z" fill="#3F3D56"/>
<path d="M489.333 338.466V337.411L469.652 337.939L469.029 364.652L471.942 368.25L489.333 338.466Z" fill="#3F3D56"/>
<path d="M492.817 338.094L471.485 338.58L471.942 368.25L492.528 366.032L492.817 338.094Z" fill="#FFC940"/>
<path d="M450.184 305.935C454.792 305.935 458.527 302.199 458.527 297.591C458.527 292.983 454.792 289.247 450.184 289.247C445.576 289.247 441.84 292.983 441.84 297.591C441.84 302.199 445.576 305.935 450.184 305.935Z" fill="#FFB6B6"/>
<path d="M446.342 293.872C449.228 296.701 454.251 296.972 457.425 294.471C458.306 297.509 458.403 300.721 457.706 303.807C457.008 306.893 455.541 309.751 453.439 312.116C455.205 312.754 457.237 312.334 458.815 311.318C460.394 310.301 461.562 308.748 462.444 307.091C464.628 302.988 465.174 297.979 463.63 293.596C462.085 289.213 458.384 285.578 453.889 284.401C449.393 283.224 444.238 284.678 441.234 288.224C438.093 291.932 437.584 297.366 438.961 302.027C440.337 306.687 443.356 310.69 446.673 314.241C445.08 310.145 444.023 305.859 443.53 301.491C443.361 299.995 443.262 298.453 443.685 297.008C444.108 295.563 445.148 294.218 446.597 293.812" fill="#2F2E41"/>
<path d="M496.739 425.873H397.399C397.33 425.873 397.263 425.846 397.214 425.797C397.166 425.748 397.138 425.682 397.138 425.612C397.138 425.543 397.166 425.477 397.214 425.428C397.263 425.379 397.33 425.352 397.399 425.352H496.739C496.808 425.352 496.875 425.379 496.924 425.428C496.973 425.477 497 425.543 497 425.612C497 425.682 496.973 425.748 496.924 425.797C496.875 425.846 496.808 425.873 496.739 425.873Z" fill="#CACACA"/>
<path d="M481.334 403.239H473.596V400.54C473.596 399.514 474.003 398.53 474.729 397.804C475.455 397.078 476.439 396.671 477.465 396.671C478.491 396.671 479.475 397.078 480.201 397.804C480.927 398.53 481.334 399.514 481.334 400.54L481.334 403.239ZM473.767 403.067H481.163V400.54C481.163 399.559 480.774 398.619 480.08 397.925C479.386 397.232 478.446 396.842 477.465 396.842C476.484 396.842 475.544 397.232 474.85 397.925C474.157 398.619 473.767 399.559 473.767 400.54V403.067Z" fill="#FFC940"/>
<path d="M485.161 402.868V401.813L465.48 402.34L464.857 429.054L467.77 432.652L485.161 402.868Z" fill="#3F3D56"/>
<path d="M488.645 402.496L467.313 402.982L467.77 432.652L488.356 430.433L488.645 402.496Z" fill="#FFDC84"/>
</g>
<g clip-path="url(#clip3_3_692)">
<path d="M93.2394 689.026V689.469C93.2401 690.203 93.5319 690.906 94.0507 691.425C94.5696 691.944 95.2732 692.236 96.007 692.237H119.476C120.21 692.236 120.913 691.945 121.432 691.426C121.951 690.907 122.243 690.203 122.243 689.469V689.026C122.245 688.379 122.017 687.751 121.601 687.255C121.463 687.09 121.306 686.942 121.134 686.812H108.961C108.814 686.812 108.674 686.754 108.57 686.65C108.466 686.546 108.408 686.405 108.408 686.259H96.007C95.2733 686.26 94.5699 686.552 94.0512 687.07C93.5324 687.589 93.2405 688.293 93.2394 689.026Z" fill="#3F3D56"/>
<path d="M106.193 712.496H109.071V692.127H106.193V712.496Z" fill="#3F3D56"/>
<path d="M98.0006 712.395C98.0006 712.706 102.362 712.515 107.742 712.515C113.123 712.515 117.484 712.706 117.484 712.395C117.484 712.084 113.123 709.617 107.742 709.617C102.362 709.617 98.0006 712.084 98.0006 712.395Z" fill="#3F3D56"/>
<path d="M97.756 688.559L107.577 690.127L118.988 691.949L122.945 692.58C123.325 692.64 123.713 692.546 124.024 692.321C124.335 692.095 124.544 691.755 124.605 691.375L124.785 690.255L124.951 689.212L125.088 688.353C125.119 688.161 125.111 687.965 125.064 687.776C125.016 687.587 124.931 687.41 124.814 687.255C124.674 687.064 124.489 686.912 124.276 686.812H108.961C108.814 686.812 108.674 686.754 108.57 686.65C108.466 686.546 108.408 686.405 108.408 686.259V685.823C108.408 685.676 108.466 685.535 108.57 685.431C108.674 685.327 108.814 685.269 108.961 685.269H114.979L112.205 684.826L103.676 683.465L98.697 682.67C98.3162 682.609 97.9271 682.703 97.615 682.929C97.3028 683.155 97.0932 683.496 97.032 683.876L96.5493 686.896C96.4904 687.277 96.5841 687.665 96.8102 687.976C97.0362 688.288 97.3762 688.497 97.756 688.559Z" fill="#FFC940"/>
<path d="M118.988 688.138V705.011C118.989 705.396 119.142 705.764 119.414 706.036C119.686 706.308 120.054 706.461 120.439 706.462H123.501C123.885 706.461 124.254 706.308 124.525 706.036C124.797 705.764 124.95 705.396 124.951 705.011V688.138C124.951 687.818 124.845 687.507 124.648 687.255C124.502 687.061 124.308 686.909 124.085 686.812H119.852C119.63 686.909 119.437 687.062 119.292 687.255C119.095 687.507 118.988 687.818 118.988 688.138Z" fill="#FFC940"/>
<path d="M109.76 659.58C109.776 659.73 109.815 659.877 109.876 660.016C109.968 660.227 110.11 660.414 110.29 660.558L110.296 660.563L119.033 667.65L119.161 667.752L120.97 669.22L121.517 669.662H130.977L130.433 669.22L122.956 663.153L117.946 659.088L114.047 655.927C113.819 655.741 113.539 655.629 113.245 655.608C113.244 655.607 113.243 655.606 113.241 655.606C113.154 655.599 113.066 655.601 112.98 655.61C112.85 655.623 112.722 655.654 112.601 655.703C112.518 655.733 112.439 655.773 112.366 655.823C112.229 655.906 112.107 656.014 112.006 656.139L110.106 658.479L110.077 658.517C109.957 658.664 109.867 658.834 109.812 659.017C109.758 659.199 109.74 659.39 109.76 659.58Z" fill="#FFC940"/>
<path d="M110.296 660.563C110.461 660.974 110.7 661.352 111.003 661.676L116.819 667.924C116.959 668.053 117.124 668.154 117.303 668.219C117.483 668.284 117.673 668.314 117.864 668.305C118.054 668.297 118.242 668.251 118.414 668.17C118.587 668.089 118.742 667.975 118.871 667.834L119.033 667.65L119.104 667.57L121.617 664.752L122.697 663.538C122.769 663.464 122.831 663.38 122.883 663.29C122.91 663.246 122.934 663.2 122.956 663.153C123.047 662.946 123.088 662.721 123.078 662.496C123.07 662.304 123.024 662.115 122.943 661.941C122.861 661.767 122.745 661.612 122.602 661.484L115.858 656.33C115.114 655.759 114.177 655.5 113.245 655.608C113.244 655.607 113.243 655.606 113.241 655.606C113.034 655.632 112.83 655.674 112.63 655.734C112.541 655.758 112.455 655.789 112.366 655.823C111.795 656.038 111.288 656.396 110.894 656.863C110.466 657.366 110.184 657.977 110.078 658.629C109.973 659.282 110.048 659.95 110.296 660.563L110.296 660.563Z" fill="#2F2E41"/>
<path d="M107.535 650.462C113.663 650.462 118.632 645.494 118.632 639.365C118.632 633.236 113.663 628.268 107.535 628.268C101.406 628.268 96.4374 633.236 96.4374 639.365C96.4374 645.494 101.406 650.462 107.535 650.462Z" fill="#FFC940"/>
<path d="M104.58 687.029L108.695 687.684L108.788 687.7L115.045 688.699L118.988 689.33L124.785 690.255L124.951 690.282L125.812 690.419L129.769 691.05C130.148 691.11 130.536 691.017 130.848 690.791C131.159 690.565 131.368 690.225 131.429 689.845L131.774 687.684L131.912 686.825C131.912 686.821 131.914 686.817 131.914 686.812H108.961C108.814 686.812 108.674 686.754 108.57 686.65C108.466 686.546 108.408 686.405 108.408 686.259V685.823C108.408 685.676 108.466 685.535 108.57 685.431C108.674 685.327 108.814 685.269 108.961 685.269H116.214V682.849L115.771 682.778L113.584 682.428L105.518 681.142C105.138 681.082 104.75 681.175 104.438 681.4C104.126 681.626 103.917 681.966 103.856 682.346L103.676 683.465L103.373 685.369C103.313 685.749 103.407 686.137 103.633 686.448C103.859 686.759 104.2 686.968 104.58 687.029Z" fill="#FFC940"/>
<path d="M92.4312 677.226C92.4312 686.272 93.3501 691.683 107.52 690.133C107.54 690.131 107.557 690.129 107.577 690.127C110.105 689.877 112.604 689.399 115.045 688.699C116.314 688.328 117.547 687.845 118.729 687.255C119.008 687.113 119.276 686.965 119.54 686.812H108.961C108.814 686.812 108.674 686.754 108.57 686.65C108.466 686.546 108.408 686.406 108.408 686.259V685.823C108.408 685.676 108.466 685.535 108.57 685.431C108.674 685.327 108.814 685.269 108.961 685.269H116.214V671.285C116.215 670.855 116.386 670.443 116.69 670.138C116.994 669.834 117.407 669.663 117.837 669.662H123.738C123.687 669.516 123.636 669.368 123.58 669.22C123.027 667.688 122.371 666.195 121.616 664.752C120.583 662.747 119.354 660.85 117.946 659.088C116.965 657.861 115.865 656.734 114.66 655.725C112.439 653.892 110.022 652.758 107.568 652.758C98.522 652.758 92.4312 668.179 92.4312 677.226Z" fill="#2F2E41"/>
<path d="M107.301 643.478L107.29 643.063C108.061 643.042 108.741 642.993 109.253 642.62C109.397 642.508 109.517 642.366 109.602 642.204C109.687 642.042 109.736 641.864 109.746 641.681C109.755 641.569 109.738 641.457 109.697 641.353C109.655 641.249 109.591 641.156 109.507 641.081C109.168 640.794 108.622 640.887 108.224 641.07L107.881 641.227L108.539 636.418L108.95 636.475L108.39 640.565C108.619 640.48 108.866 640.454 109.108 640.488C109.35 640.523 109.579 640.618 109.775 640.764C109.907 640.879 110.01 641.023 110.077 641.185C110.144 641.346 110.173 641.521 110.161 641.696C110.149 641.941 110.083 642.181 109.968 642.399C109.854 642.616 109.693 642.806 109.497 642.955C108.84 643.435 107.987 643.459 107.301 643.478Z" fill="#2F2E41"/>
<path d="M113.215 636.827H110.982V637.242H113.215V636.827Z" fill="#2F2E41"/>
<path d="M106.165 636.827H103.932V637.242H106.165V636.827Z" fill="#2F2E41"/>
<path d="M98.6782 636.316C99.5412 635.017 101.06 634.466 102.557 634.332C104.243 634.181 105.872 634.506 107.517 634.822C109.329 635.17 111.245 635.495 113.07 635.056C113.878 634.869 114.632 634.501 115.277 633.98C115.921 633.46 116.439 632.799 116.791 632.049C117.46 630.586 117.604 628.937 117.199 627.38C116.722 625.727 115.754 624.257 114.423 623.167C111.797 620.921 108.242 619.911 104.824 620.006C101.418 620.094 98.1267 621.251 95.4155 623.314C92.6998 625.452 90.7888 628.446 89.9944 631.81C89.1637 635.145 89.4343 638.66 90.7658 641.83C91.5139 643.565 92.5958 645.13 93.4307 646.821C94.208 648.396 94.8066 650.228 94.323 651.984C94.1103 652.768 93.7019 653.485 93.1361 654.067C92.5703 654.65 91.8656 655.079 91.0884 655.314C90.3768 655.501 89.6237 655.451 88.9425 655.173C88.2613 654.895 87.6889 654.403 87.3112 653.772C86.5293 652.539 86.5106 650.924 87.6846 649.929C87.9806 649.673 88.3254 649.481 88.6981 649.363C89.0707 649.246 89.4634 649.205 89.8523 649.244C90.2412 649.283 90.6181 649.4 90.9601 649.589C91.3022 649.778 91.6022 650.035 91.842 650.343C92.3183 650.962 92.5315 651.744 92.4353 652.518C92.3775 652.91 92.9768 653.079 93.0352 652.684C93.1753 651.864 93.0199 651.022 92.5967 650.306C92.1736 649.591 91.5102 649.049 90.7247 648.777C89.9391 648.505 89.0826 648.52 88.3075 648.821C87.5325 649.121 86.8893 649.687 86.4927 650.418C85.7847 651.749 86.1667 653.355 87.0654 654.493C87.5291 655.099 88.1576 655.558 88.8757 655.817C89.5938 656.075 90.3711 656.121 91.1146 655.949C92.7506 655.571 94.0889 654.271 94.7183 652.743C95.4189 651.042 95.0979 649.143 94.4149 647.493C93.6765 645.708 92.5801 644.108 91.713 642.389C90.9279 640.835 90.4283 639.153 90.238 637.422C89.8571 633.947 90.6458 630.444 92.4793 627.468C94.3481 624.538 97.2005 622.37 100.524 621.354C103.824 620.293 107.386 620.388 110.625 621.621C113.785 622.866 116.838 625.58 116.801 629.225C116.785 630.782 116.207 632.37 115.014 633.409C113.589 634.65 111.605 634.756 109.813 634.562C108.01 634.368 106.259 633.841 104.448 633.707C102.873 633.59 101.173 633.711 99.7669 634.494C99.1119 634.859 98.5543 635.376 98.1411 636.002C97.9189 636.336 98.4574 636.648 98.6782 636.316L98.6782 636.316Z" fill="#2F2E41"/>
<path d="M100.444 663.476C100.462 663.517 100.481 663.556 100.504 663.594C100.526 663.633 100.55 663.672 100.577 663.709L105.43 670.694L105.806 671.237L109.765 676.931L113.584 682.428L115.129 684.656C115.171 684.716 115.218 684.773 115.269 684.826C115.508 685.078 115.829 685.235 116.175 685.269H116.214V675.769L115.771 675.131L110.805 667.984L105.472 660.308C105.252 659.992 104.916 659.777 104.538 659.708C104.159 659.64 103.769 659.724 103.453 659.943L101.817 661.079L100.938 661.69C100.66 661.883 100.458 662.168 100.368 662.494C100.278 662.82 100.305 663.168 100.444 663.476Z" fill="#FFC940"/>
<path d="M99.6844 663.306L99.9036 663.747L99.9058 663.749L99.9656 663.866L103.524 670.929C103.724 671.257 104.047 671.493 104.42 671.584C104.794 671.675 105.189 671.615 105.518 671.416L105.749 671.272L105.806 671.237L110.394 668.358C110.557 668.259 110.7 668.129 110.813 667.974C110.926 667.82 111.007 667.644 111.052 667.458C111.097 667.272 111.105 667.079 111.074 666.89C111.044 666.701 110.977 666.52 110.876 666.357L105.837 659.524C105.343 658.855 104.634 658.376 103.828 658.168C103.023 657.96 102.17 658.035 101.414 658.382C101.243 658.459 101.079 658.549 100.922 658.652C100.181 659.141 99.6462 659.886 99.4181 660.744C99.1899 661.601 99.2847 662.513 99.6844 663.306Z" fill="#2F2E41"/>
<path d="M125.812 686.812V703.482C125.813 703.866 125.966 704.235 126.238 704.506C126.509 704.778 126.878 704.931 127.262 704.932H130.324C130.709 704.931 131.077 704.778 131.349 704.506C131.621 704.235 131.774 703.866 131.775 703.482V686.812H125.812Z" fill="#FFC940"/>
<path d="M107.965 685.823V686.259C107.965 686.489 108.045 686.712 108.191 686.891C108.337 687.069 108.54 687.192 108.766 687.237C108.797 687.242 108.828 687.248 108.859 687.251C108.893 687.253 108.926 687.255 108.961 687.255H143.093C143.641 687.255 144.166 687.037 144.554 686.65C144.942 686.263 145.16 685.737 145.16 685.189V671.285C145.16 670.737 144.942 670.212 144.554 669.825C144.166 669.437 143.641 669.22 143.093 669.22H117.837C117.289 669.22 116.764 669.438 116.377 669.825C115.99 670.212 115.772 670.738 115.771 671.285V684.826H108.961C108.697 684.826 108.444 684.931 108.257 685.118C108.07 685.305 107.965 685.558 107.965 685.823Z" fill="white"/>
<path d="M107.965 685.823V686.259C107.965 686.489 108.045 686.712 108.191 686.891C108.337 687.069 108.54 687.192 108.766 687.237C108.797 687.242 108.828 687.248 108.859 687.251C108.893 687.253 108.926 687.255 108.961 687.255H143.093C143.641 687.255 144.166 687.037 144.554 686.65C144.942 686.263 145.16 685.737 145.16 685.189V671.285C145.16 670.737 144.942 670.212 144.554 669.825C144.166 669.437 143.641 669.22 143.093 669.22H117.837C117.289 669.22 116.764 669.438 116.377 669.825C115.99 670.212 115.772 670.738 115.771 671.285V684.826H108.961C108.697 684.826 108.444 684.931 108.257 685.118C108.07 685.305 107.965 685.558 107.965 685.823ZM108.408 686.259V685.823C108.408 685.676 108.466 685.535 108.57 685.431C108.674 685.327 108.814 685.269 108.961 685.269H116.214V671.285C116.215 670.855 116.386 670.443 116.69 670.138C116.994 669.834 117.407 669.663 117.837 669.662H143.093C143.523 669.663 143.936 669.833 144.241 670.138C144.545 670.442 144.717 670.855 144.718 671.285V685.189C144.717 685.62 144.545 686.033 144.241 686.337C143.936 686.641 143.523 686.812 143.093 686.812H108.961C108.814 686.812 108.674 686.754 108.57 686.65C108.466 686.546 108.408 686.405 108.408 686.259Z" fill="#3F3D56"/>
<path d="M130.466 679.94C131.406 679.94 132.168 679.178 132.168 678.237C132.168 677.297 131.406 676.535 130.466 676.535C129.525 676.535 128.763 677.297 128.763 678.237C128.763 679.178 129.525 679.94 130.466 679.94Z" fill="#FFC940"/>
<path d="M116.221 685.061H115.778V687.054H116.221V685.061Z" fill="#3F3D56"/>
<path d="M295.934 550.751H178.116C178.044 550.751 177.975 550.722 177.923 550.671C177.872 550.62 177.844 550.551 177.844 550.478C177.844 550.406 177.872 550.336 177.923 550.285C177.975 550.234 178.044 550.205 178.116 550.205H295.934C296.007 550.205 296.076 550.234 296.127 550.285C296.178 550.336 296.207 550.406 296.207 550.478C296.207 550.551 296.178 550.62 296.127 550.671C296.076 550.722 296.007 550.751 295.934 550.751Z" fill="#CACACA"/>
<path d="M188.476 546.933C189.838 546.933 190.942 545.828 190.942 544.466C190.942 543.104 189.838 542 188.476 542C187.113 542 186.009 543.104 186.009 544.466C186.009 545.828 187.113 546.933 188.476 546.933Z" fill="#3F3D56"/>
<path d="M196.996 546.933C198.358 546.933 199.462 545.828 199.462 544.466C199.462 543.104 198.358 542 196.996 542C195.634 542 194.529 543.104 194.529 544.466C194.529 545.828 195.634 546.933 196.996 546.933Z" fill="#3F3D56"/>
<path d="M205.516 546.933C206.878 546.933 207.982 545.828 207.982 544.466C207.982 543.104 206.878 542 205.516 542C204.154 542 203.049 543.104 203.049 544.466C203.049 545.828 204.154 546.933 205.516 546.933Z" fill="#3F3D56"/>
<path d="M200.571 592.801C197.705 592.801 194.903 591.951 192.52 590.358C190.137 588.766 188.28 586.503 187.183 583.855C186.086 581.207 185.799 578.293 186.358 575.482C186.917 572.671 188.297 570.089 190.324 568.063C192.351 566.036 194.933 564.656 197.744 564.097C200.555 563.537 203.468 563.824 206.116 564.921C208.764 566.018 211.028 567.875 212.62 570.258C214.212 572.642 215.062 575.443 215.062 578.309C215.058 582.151 213.53 585.835 210.813 588.551C208.096 591.268 204.413 592.796 200.571 592.801ZM200.571 564.364C197.813 564.364 195.116 565.182 192.823 566.714C190.53 568.246 188.742 570.424 187.687 572.973C186.631 575.521 186.355 578.325 186.893 581.03C187.431 583.735 188.759 586.22 190.71 588.171C192.66 590.121 195.145 591.449 197.85 591.987C200.555 592.525 203.359 592.249 205.908 591.194C208.456 590.138 210.634 588.351 212.166 586.057C213.699 583.764 214.517 581.068 214.517 578.309C214.512 574.612 213.042 571.067 210.427 568.453C207.813 565.838 204.268 564.368 200.571 564.364Z" fill="#CACACA"/>
<path d="M199.764 665.457C203.485 665.457 206.502 662.44 206.502 658.719C206.502 654.997 203.485 651.98 199.764 651.98C196.042 651.98 193.025 654.997 193.025 658.719C193.025 662.44 196.042 665.457 199.764 665.457Z" fill="#E4E4E4"/>
<path d="M196.02 661.216L196.013 660.964C196.482 660.951 196.895 660.922 197.205 660.695C197.293 660.627 197.365 660.541 197.417 660.443C197.469 660.344 197.499 660.236 197.505 660.125C197.51 660.057 197.5 659.989 197.475 659.926C197.45 659.863 197.41 659.806 197.36 659.76C197.243 659.689 197.108 659.651 196.971 659.65C196.834 659.649 196.699 659.685 196.581 659.754L196.372 659.849L196.772 656.929L197.021 656.963L196.681 659.447C196.821 659.396 196.97 659.38 197.117 659.401C197.264 659.422 197.403 659.479 197.522 659.568C197.602 659.638 197.665 659.725 197.706 659.824C197.746 659.922 197.764 660.028 197.757 660.134C197.749 660.283 197.709 660.429 197.64 660.561C197.57 660.693 197.472 660.808 197.354 660.899C196.955 661.19 196.437 661.204 196.02 661.216Z" fill="#2F2E41"/>
<path d="M199.611 657.177H198.255V657.429H199.611V657.177Z" fill="#2F2E41"/>
<path d="M195.33 657.177H193.974V657.429H195.33V657.177Z" fill="#2F2E41"/>
<path d="M198.749 654.366C197.124 655.482 194.626 654.867 193.89 652.982C193.71 652.523 193.629 652.032 193.654 651.539C193.679 651.047 193.808 650.566 194.033 650.128C194.302 649.669 194.669 649.274 195.107 648.972C195.546 648.67 196.045 648.468 196.57 648.38C197.964 648.091 199.405 648.479 200.68 649.042C200.726 649.066 200.778 649.075 200.829 649.069C200.881 649.062 200.929 649.04 200.967 649.005C202.185 648.035 203.953 648.456 205.201 649.134C206.551 649.892 207.693 650.972 208.524 652.278C209.372 653.573 209.902 655.049 210.071 656.588C210.225 658.251 209.954 659.925 209.282 661.454C208.61 662.983 207.56 664.315 206.231 665.326C205.99 665.507 206.226 665.919 206.471 665.736C207.813 664.744 208.89 663.438 209.607 661.931C210.324 660.425 210.66 658.765 210.583 657.098C210.507 655.431 210.021 653.809 209.169 652.374C208.317 650.939 207.125 649.737 205.698 648.872C204.201 647.971 202.114 647.488 200.632 648.67L200.919 648.633C199.645 648.069 198.248 647.671 196.843 647.856C195.65 648.013 194.478 648.585 193.794 649.604C193.493 650.072 193.296 650.598 193.216 651.148C193.135 651.698 193.173 652.259 193.327 652.793C193.477 653.321 193.747 653.807 194.117 654.213C194.487 654.619 194.946 654.933 195.458 655.131C196.032 655.36 196.652 655.447 197.267 655.385C197.881 655.324 198.472 655.115 198.989 654.776C199.239 654.604 199.002 654.193 198.749 654.366V654.366Z" fill="#2F2E41"/>
<path d="M200.235 587.141C203.909 587.141 206.887 584.163 206.887 580.489C206.887 576.815 203.909 573.837 200.235 573.837C196.561 573.837 193.583 576.815 193.583 580.489C193.583 584.163 196.561 587.141 200.235 587.141Z" fill="#E4E4E4"/>
<path d="M198.665 583.281C198.234 583.269 197.697 583.254 197.284 582.952C197.16 582.859 197.059 582.739 196.987 582.603C196.915 582.466 196.874 582.315 196.866 582.16C196.859 582.051 196.877 581.941 196.919 581.839C196.961 581.737 197.026 581.647 197.109 581.574C197.232 581.482 197.376 581.423 197.528 581.401C197.681 581.379 197.836 581.395 197.98 581.449L197.628 578.876L197.886 578.841L198.3 581.865L198.084 581.766C197.962 581.695 197.822 581.658 197.68 581.659C197.538 581.66 197.399 581.7 197.277 581.774C197.225 581.821 197.184 581.879 197.158 581.945C197.132 582.01 197.121 582.081 197.127 582.151C197.133 582.266 197.164 582.378 197.218 582.48C197.271 582.582 197.346 582.671 197.437 582.742C197.759 582.977 198.187 583.007 198.672 583.021L198.665 583.281Z" fill="#2F2E41"/>
<path d="M196.35 579.098H194.945V579.359H196.35V579.098Z" fill="#2F2E41"/>
<path d="M200.784 579.098H199.379V579.359H200.784V579.098Z" fill="#2F2E41"/>
<path d="M200.852 575.572C200.044 576.629 198.761 577.338 197.405 577.17C196.776 577.105 196.183 576.843 195.712 576.421C195.24 576 194.915 575.44 194.781 574.821C194.664 574.212 194.696 573.584 194.873 572.989C195.05 572.395 195.367 571.852 195.798 571.405C196.712 570.444 198.02 569.927 199.315 569.75C200.539 569.606 201.78 569.722 202.956 570.09C204.133 570.459 205.218 571.072 206.141 571.889C207.072 572.69 207.815 573.686 208.318 574.807C208.802 575.92 209.033 577.126 208.993 578.339C208.961 579.545 208.684 580.732 208.18 581.829C207.676 582.925 206.955 583.908 206.061 584.717C205.836 584.914 205.6 585.099 205.355 585.27C205.149 585.415 204.953 585.076 205.158 584.932C206.069 584.266 206.837 583.423 207.415 582.453C207.993 581.484 208.369 580.407 208.521 579.288C208.691 578.167 208.615 577.023 208.298 575.934C207.982 574.845 207.432 573.838 206.688 572.983C205.936 572.126 205.021 571.427 203.996 570.928C202.971 570.428 201.857 570.138 200.719 570.074C198.43 569.974 195.57 570.996 195.141 573.544C194.949 574.686 195.376 575.886 196.423 576.458C196.977 576.737 197.601 576.845 198.217 576.768C198.832 576.692 199.411 576.434 199.88 576.028C200.116 575.835 200.328 575.616 200.514 575.374C200.665 575.177 201.005 575.372 200.852 575.572V575.572Z" fill="#2F2E41"/>
<path d="M200.571 631.028C197.705 631.028 194.903 630.178 192.52 628.585C190.137 626.993 188.28 624.73 187.183 622.082C186.086 619.434 185.799 616.52 186.358 613.709C186.917 610.898 188.297 608.316 190.324 606.289C192.351 604.263 194.933 602.883 197.744 602.324C200.555 601.764 203.468 602.051 206.116 603.148C208.764 604.245 211.028 606.102 212.62 608.485C214.212 610.868 215.062 613.67 215.062 616.536C215.058 620.378 213.53 624.062 210.813 626.778C208.096 629.495 204.413 631.023 200.571 631.028ZM200.571 602.591C197.813 602.59 195.116 603.408 192.823 604.941C190.53 606.473 188.742 608.651 187.687 611.199C186.631 613.748 186.355 616.552 186.893 619.257C187.431 621.962 188.759 624.447 190.71 626.397C192.66 628.348 195.145 629.676 197.85 630.214C200.555 630.752 203.359 630.476 205.908 629.42C208.456 628.365 210.634 626.577 212.166 624.284C213.699 621.991 214.517 619.294 214.517 616.536C214.512 612.839 213.042 609.294 210.427 606.68C207.813 604.065 204.268 602.595 200.571 602.59V602.591Z" fill="#CACACA"/>
<path d="M200.571 671.818C197.705 671.818 194.903 670.968 192.52 669.376C190.137 667.784 188.28 665.52 187.183 662.873C186.086 660.225 185.799 657.311 186.358 654.5C186.917 651.689 188.297 649.107 190.324 647.08C192.351 645.053 194.933 643.673 197.744 643.114C200.555 642.555 203.469 642.842 206.116 643.939C208.764 645.036 211.028 646.893 212.62 649.276C214.212 651.659 215.062 654.461 215.062 657.327C215.058 661.169 213.53 664.852 210.813 667.569C208.096 670.286 204.413 671.814 200.571 671.818ZM200.571 643.381C197.813 643.381 195.116 644.199 192.823 645.731C190.53 647.264 188.742 649.442 187.687 651.99C186.631 654.538 186.355 657.342 186.893 660.048C187.431 662.753 188.759 665.238 190.71 667.188C192.66 669.138 195.145 670.467 197.85 671.005C200.555 671.543 203.359 671.267 205.908 670.211C208.456 669.156 210.634 667.368 212.166 665.075C213.699 662.781 214.517 660.085 214.517 657.327C214.512 653.63 213.042 650.085 210.427 647.47C207.813 644.856 204.268 643.385 200.571 643.381Z" fill="#CACACA"/>
<path d="M199.585 624.803C203.385 624.803 206.467 621.722 206.467 617.921C206.467 614.12 203.385 611.039 199.585 611.039C195.784 611.039 192.703 614.12 192.703 617.921C192.703 621.722 195.784 624.803 199.585 624.803Z" fill="#E4E4E4"/>
<path d="M197.294 620.81C196.848 620.798 196.293 620.782 195.865 620.47C195.738 620.373 195.633 620.249 195.559 620.108C195.484 619.966 195.441 619.81 195.434 619.65C195.426 619.537 195.444 619.423 195.488 619.318C195.532 619.212 195.599 619.119 195.685 619.044C195.812 618.949 195.961 618.887 196.119 618.864C196.276 618.842 196.437 618.859 196.586 618.914L196.222 616.252L196.489 616.216L196.917 619.345L196.694 619.243C196.567 619.169 196.422 619.13 196.275 619.132C196.128 619.133 195.984 619.174 195.859 619.25C195.805 619.299 195.762 619.359 195.735 619.427C195.708 619.495 195.697 619.568 195.703 619.641C195.71 619.76 195.742 619.876 195.797 619.981C195.853 620.087 195.93 620.179 196.025 620.252C196.357 620.495 196.8 620.526 197.302 620.54L197.294 620.81Z" fill="#2F2E41"/>
<path d="M194.899 616.482H193.446V616.752H194.899V616.482Z" fill="#2F2E41"/>
<path d="M199.487 616.482H198.034V616.752H199.487V616.482Z" fill="#2F2E41"/>
<path d="M199.931 625.018L204.691 623.17C205.47 622.868 206.252 622.575 207.026 622.263C207.358 622.147 207.664 621.967 207.925 621.733C208.153 621.492 208.309 621.191 208.374 620.866C208.503 620.149 208.545 619.419 208.497 618.693C208.488 617.914 208.424 617.136 208.305 616.366C208.097 614.919 207.609 613.527 206.868 612.267C205.533 610.076 203.233 608.429 200.588 608.56C199.344 608.603 198.155 609.076 197.221 609.898C197.126 610.011 197.019 610.115 196.903 610.206C196.822 610.236 196.734 610.242 196.65 610.223C196.539 610.216 196.428 610.21 196.317 610.206C195.931 610.19 195.544 610.206 195.161 610.255C194.462 610.33 193.8 610.605 193.254 611.047C193.015 611.237 192.816 611.472 192.668 611.739C192.52 612.007 192.426 612.3 192.391 612.604C192.373 612.886 192.419 613.168 192.527 613.429C192.635 613.69 192.802 613.922 193.014 614.109C193.582 614.587 194.392 614.419 195.073 614.383L197.569 614.251L198.833 614.184C199.093 614.17 199.093 614.575 198.833 614.588L195.472 614.767C194.928 614.819 194.382 614.841 193.835 614.833C193.42 614.814 193.023 614.655 192.711 614.38C192.425 614.118 192.213 613.786 192.093 613.417C191.974 613.049 191.953 612.655 192.031 612.275C192.135 611.867 192.323 611.485 192.583 611.154C192.844 610.823 193.171 610.551 193.543 610.354C194.527 609.8 195.701 609.747 196.801 609.829L196.658 609.888C197.902 608.552 199.808 607.988 201.598 608.186C203.487 608.394 205.168 609.448 206.375 610.89C207.722 612.497 208.455 614.501 208.74 616.561C208.889 617.674 208.938 618.797 208.886 619.918C208.889 620.413 208.804 620.904 208.636 621.369C208.445 621.822 208.1 622.192 207.662 622.414C207.159 622.657 206.642 622.869 206.114 623.05L204.36 623.731L200.916 625.068L200.039 625.408C199.796 625.502 199.69 625.111 199.931 625.018V625.018Z" fill="#2F2E41"/>
<path d="M205.324 609.169C205.324 608.756 205.447 608.351 205.676 608.007C205.906 607.663 206.233 607.395 206.615 607.237C206.997 607.079 207.418 607.037 207.824 607.118C208.229 607.199 208.602 607.398 208.895 607.69C209.187 607.983 209.386 608.356 209.467 608.761C209.548 609.167 209.506 609.587 209.348 609.97C209.19 610.352 208.922 610.679 208.578 610.908C208.234 611.138 207.829 611.261 207.416 611.261C206.861 611.26 206.329 611.04 205.937 610.648C205.545 610.255 205.325 609.724 205.324 609.169ZM205.729 609.169C205.729 609.503 205.828 609.829 206.013 610.106C206.198 610.384 206.462 610.6 206.77 610.728C207.078 610.855 207.417 610.889 207.745 610.824C208.072 610.759 208.372 610.598 208.608 610.362C208.844 610.126 209.005 609.826 209.07 609.498C209.135 609.171 209.102 608.832 208.974 608.524C208.846 608.216 208.63 607.952 208.353 607.767C208.075 607.581 207.749 607.483 207.416 607.483C206.968 607.483 206.54 607.661 206.223 607.977C205.907 608.293 205.729 608.722 205.729 609.169Z" fill="#2F2E41"/>
<path d="M285.455 584.392H237.83C237.235 584.392 236.664 584.156 236.243 583.735C235.823 583.314 235.586 582.744 235.586 582.149C235.586 581.554 235.823 580.983 236.243 580.563C236.664 580.142 237.235 579.906 237.83 579.906H285.455C285.75 579.906 286.041 579.964 286.314 580.076C286.586 580.189 286.833 580.354 287.041 580.563C287.25 580.771 287.415 581.018 287.528 581.29C287.64 581.563 287.698 581.854 287.698 582.149C287.698 582.443 287.64 582.735 287.528 583.007C287.415 583.279 287.25 583.527 287.041 583.735C286.833 583.943 286.586 584.109 286.314 584.221C286.041 584.334 285.75 584.392 285.455 584.392Z" fill="#E4E4E4"/>
<path d="M270.098 576.713H237.83C237.235 576.713 236.664 576.477 236.243 576.056C235.823 575.636 235.586 575.065 235.586 574.47C235.586 573.875 235.823 573.305 236.243 572.884C236.664 572.463 237.235 572.227 237.83 572.227H270.098C270.392 572.227 270.684 572.285 270.956 572.398C271.228 572.51 271.476 572.676 271.684 572.884C271.892 573.092 272.057 573.339 272.17 573.612C272.283 573.884 272.341 574.175 272.341 574.47C272.341 574.765 272.283 575.056 272.17 575.328C272.057 575.601 271.892 575.848 271.684 576.056C271.476 576.265 271.228 576.43 270.956 576.543C270.684 576.655 270.392 576.713 270.098 576.713Z" fill="#E4E4E4"/>
<path d="M285.455 622.619H237.83C237.235 622.619 236.664 622.382 236.243 621.962C235.823 621.541 235.586 620.97 235.586 620.376C235.586 619.781 235.823 619.21 236.243 618.789C236.664 618.369 237.235 618.132 237.83 618.132H285.455C286.05 618.132 286.621 618.369 287.041 618.789C287.462 619.21 287.698 619.781 287.698 620.376C287.698 620.97 287.462 621.541 287.041 621.962C286.621 622.382 286.05 622.619 285.455 622.619Z" fill="#E4E4E4"/>
<path d="M270.098 614.94H237.83C237.235 614.939 236.665 614.703 236.245 614.282C235.825 613.861 235.589 613.291 235.589 612.697C235.589 612.102 235.825 611.532 236.245 611.111C236.665 610.691 237.235 610.454 237.83 610.454H270.098C270.693 610.454 271.263 610.69 271.684 611.111C272.105 611.531 272.341 612.102 272.341 612.697C272.341 613.292 272.105 613.862 271.684 614.283C271.263 614.704 270.693 614.94 270.098 614.94Z" fill="#E4E4E4"/>
<path d="M285.455 663.41H237.83C237.235 663.41 236.664 663.173 236.243 662.753C235.823 662.332 235.586 661.761 235.586 661.166C235.586 660.571 235.823 660.001 236.243 659.58C236.664 659.159 237.235 658.923 237.83 658.923H285.455C286.05 658.923 286.621 659.159 287.041 659.58C287.462 660.001 287.698 660.571 287.698 661.166C287.698 661.761 287.462 662.332 287.041 662.753C286.621 663.173 286.05 663.41 285.455 663.41Z" fill="#E4E4E4"/>
<path d="M270.098 655.731H237.83C237.235 655.731 236.664 655.494 236.243 655.074C235.823 654.653 235.586 654.083 235.586 653.488C235.586 652.893 235.823 652.322 236.243 651.901C236.664 651.481 237.235 651.244 237.83 651.244H270.098C270.693 651.244 271.263 651.481 271.684 651.901C272.105 652.322 272.341 652.893 272.341 653.488C272.341 654.083 272.105 654.653 271.684 655.074C271.263 655.494 270.693 655.731 270.098 655.731Z" fill="#E4E4E4"/>
<path d="M163.182 713H59.2727C59.2004 713 59.131 712.971 59.0799 712.92C59.0287 712.869 59 712.8 59 712.727C59 712.655 59.0287 712.586 59.0799 712.534C59.131 712.483 59.2004 712.455 59.2727 712.455H163.182C163.254 712.455 163.324 712.483 163.375 712.534C163.426 712.586 163.455 712.655 163.455 712.727C163.455 712.8 163.426 712.869 163.375 712.92C163.324 712.971 163.254 713 163.182 713Z" fill="#3F3D56"/>
</g>
<g clip-path="url(#clip4_3_692)">
<path d="M495.882 624.339L501.046 635.969L499.803 650.353C499.413 650.684 499.137 651.129 499.014 651.625C498.891 652.122 498.927 652.644 499.118 653.119C499.309 653.593 499.644 653.996 500.076 654.269C500.508 654.542 501.015 654.673 501.526 654.642C502.036 654.61 502.524 654.419 502.919 654.096C503.315 653.772 503.599 653.332 503.731 652.838C503.862 652.343 503.835 651.82 503.652 651.343C503.47 650.865 503.142 650.457 502.715 650.176L502.917 650.14L504.94 635.767L501.603 621.268L495.882 624.339Z" fill="#FFB8B8"/>
<path d="M481.137 700C486.227 700 490.353 699.57 490.353 699.04C490.353 698.51 486.227 698.08 481.137 698.08C476.048 698.08 471.922 698.51 471.922 699.04C471.922 699.57 476.048 700 481.137 700Z" fill="#FFDC84"/>
<path d="M508.399 700C513.489 700 517.615 699.57 517.615 699.04C517.615 698.51 513.489 698.08 508.399 698.08C503.31 698.08 499.184 698.51 499.184 699.04C499.184 699.57 503.31 700 508.399 700Z" fill="#FFDC84"/>
<path d="M467.074 646.905H327.883C327.439 646.904 327.013 646.728 326.699 646.414C326.384 646.1 326.208 645.674 326.207 645.23V556.675C326.208 556.231 326.384 555.805 326.699 555.491C327.013 555.177 327.438 555 327.883 555H467.074C467.518 555 467.944 555.177 468.258 555.491C468.572 555.805 468.749 556.231 468.749 556.675V645.23C468.749 645.674 468.572 646.1 468.258 646.414C467.944 646.728 467.518 646.904 467.074 646.905ZM327.883 555.663C327.614 555.663 327.357 555.77 327.167 555.96C326.977 556.15 326.87 556.407 326.87 556.675V645.23C326.87 645.498 326.977 645.755 327.167 645.945C327.357 646.135 327.614 646.242 327.883 646.242H467.074C467.342 646.242 467.6 646.135 467.789 645.945C467.979 645.755 468.086 645.498 468.086 645.23V556.675C468.086 556.407 467.979 556.15 467.789 555.96C467.6 555.77 467.342 555.663 467.074 555.663H327.883Z" fill="#FFDC84"/>
<path d="M431.02 568.055H357.272C356.91 568.056 356.563 568.2 356.307 568.456C356.051 568.712 355.907 569.059 355.906 569.421V632.483C355.907 632.846 356.051 633.193 356.307 633.449C356.563 633.705 356.91 633.849 357.272 633.849H431.02C431.383 633.849 431.73 633.705 431.986 633.449C432.242 633.193 432.386 632.846 432.386 632.483V569.421C432.386 569.059 432.242 568.712 431.986 568.456C431.73 568.2 431.383 568.056 431.02 568.055ZM431.838 632.484C431.838 632.701 431.752 632.909 431.599 633.063C431.445 633.217 431.237 633.304 431.02 633.305H357.272C357.055 633.304 356.847 633.217 356.694 633.063C356.54 632.909 356.454 632.701 356.455 632.484V569.421C356.454 569.204 356.54 568.996 356.694 568.842C356.847 568.688 357.055 568.601 357.272 568.6H431.02C431.237 568.601 431.445 568.688 431.599 568.842C431.752 568.996 431.838 569.204 431.838 569.421V632.484Z" fill="#3F3D56"/>
<path d="M374.295 622.637C374.295 622.734 374.293 622.831 374.288 622.926C374.213 624.349 373.595 625.689 372.561 626.67C371.528 627.651 370.157 628.198 368.732 628.198C367.307 628.198 365.937 627.651 364.903 626.67C363.869 625.689 363.251 624.349 363.177 622.926C363.172 622.831 363.169 622.734 363.169 622.637C363.169 621.161 363.755 619.746 364.798 618.703C365.842 617.66 367.257 617.074 368.732 617.074C370.207 617.074 371.622 617.66 372.666 618.703C373.709 619.746 374.295 621.161 374.295 622.637H374.295Z" fill="#FFC940"/>
<path d="M425.29 618.927H381.579C381.339 618.936 381.112 619.038 380.945 619.211C380.779 619.384 380.686 619.614 380.686 619.855C380.686 620.095 380.779 620.325 380.945 620.498C381.112 620.671 381.339 620.773 381.579 620.782H425.29C425.535 620.791 425.775 620.702 425.955 620.534C426.135 620.367 426.241 620.135 426.251 619.89C426.26 619.644 426.171 619.405 426.004 619.224C425.837 619.044 425.605 618.937 425.36 618.927C425.336 618.926 425.313 618.926 425.29 618.927Z" fill="#FFC940"/>
<path d="M400.387 624.491H381.579C381.333 624.491 381.098 624.589 380.924 624.762C380.75 624.936 380.653 625.172 380.653 625.417C380.653 625.663 380.75 625.898 380.924 626.072C381.098 626.246 381.333 626.343 381.579 626.343H400.387C400.633 626.344 400.869 626.247 401.043 626.073C401.217 625.9 401.315 625.664 401.315 625.419C401.315 625.173 401.218 624.938 401.045 624.764C400.871 624.59 400.636 624.492 400.39 624.491H400.387Z" fill="#FFDC84"/>
<path d="M448.541 612.047H374.793C374.38 612.047 373.984 611.882 373.692 611.59C373.4 611.298 373.235 610.902 373.235 610.489V578.124C373.235 577.711 373.4 577.316 373.692 577.024C373.984 576.731 374.38 576.567 374.793 576.567H448.54C448.953 576.567 449.349 576.731 449.641 577.024C449.933 577.316 450.097 577.711 450.098 578.124V610.489C450.098 610.902 449.934 611.298 449.642 611.59C449.35 611.882 448.954 612.046 448.541 612.047Z" fill="#FFC940"/>
<path d="M389.812 588.039C389.567 588.029 389.326 588.116 389.145 588.282C388.963 588.449 388.855 588.68 388.845 588.926C388.834 589.172 388.921 589.412 389.088 589.594C389.254 589.775 389.486 589.883 389.731 589.894C389.758 589.895 389.785 589.895 389.812 589.894H433.523C433.761 589.883 433.987 589.781 434.152 589.608C434.318 589.436 434.41 589.206 434.41 588.967C434.41 588.728 434.318 588.498 434.152 588.325C433.987 588.152 433.761 588.05 433.523 588.039H389.812Z" fill="white"/>
<path d="M389.812 593.412C389.567 593.401 389.326 593.489 389.145 593.655C388.963 593.821 388.855 594.053 388.845 594.299C388.834 594.545 388.921 594.785 389.088 594.966C389.254 595.148 389.486 595.256 389.731 595.266C389.758 595.268 389.785 595.268 389.812 595.266H433.523C433.761 595.256 433.987 595.154 434.152 594.981C434.318 594.808 434.41 594.578 434.41 594.339C434.41 594.1 434.318 593.87 434.152 593.697C433.987 593.525 433.761 593.422 433.523 593.412H389.812Z" fill="white"/>
<path d="M389.812 598.719C389.573 598.73 389.348 598.832 389.182 599.005C389.017 599.177 388.925 599.407 388.925 599.646C388.925 599.885 389.017 600.115 389.182 600.288C389.348 600.461 389.573 600.563 389.812 600.574H408.621C408.743 600.579 408.864 600.56 408.979 600.518C409.093 600.477 409.199 600.413 409.288 600.331C409.378 600.248 409.451 600.149 409.503 600.039C409.554 599.928 409.583 599.809 409.589 599.687C409.594 599.565 409.575 599.443 409.534 599.329C409.492 599.214 409.428 599.109 409.346 599.019C409.263 598.929 409.164 598.857 409.054 598.805C408.943 598.754 408.824 598.724 408.702 598.719C408.675 598.718 408.648 598.718 408.621 598.719H389.812Z" fill="white"/>
<path d="M332.154 560.867C332.791 560.867 333.306 560.351 333.306 559.715C333.306 559.079 332.791 558.563 332.154 558.563C331.518 558.563 331.002 559.079 331.002 559.715C331.002 560.351 331.518 560.867 332.154 560.867Z" fill="#FFC940"/>
<path d="M336.186 560.867C336.822 560.867 337.338 560.351 337.338 559.715C337.338 559.079 336.822 558.563 336.186 558.563C335.55 558.563 335.034 559.079 335.034 559.715C335.034 560.351 335.55 560.867 336.186 560.867Z" fill="#FFC940"/>
<path d="M340.218 560.867C340.854 560.867 341.37 560.351 341.37 559.715C341.37 559.079 340.854 558.563 340.218 558.563C339.581 558.563 339.066 559.079 339.066 559.715C339.066 560.351 339.581 560.867 340.218 560.867Z" fill="#FFC940"/>
<path d="M494.12 609.886C496.954 609.886 499.251 607.588 499.251 604.754C499.251 601.92 496.954 599.623 494.12 599.623C491.286 599.623 488.988 601.92 488.988 604.754C488.988 607.588 491.286 609.886 494.12 609.886Z" fill="#FFB8B8"/>
<path d="M483.97 632.119L497.447 634.626C501.99 626.303 504.496 618.787 500.268 613.941L492.276 613.471C487.169 618.932 482.85 624.231 485.785 628.045L483.97 632.119Z" fill="#FFC940"/>
<path d="M495.971 625.583C499.056 626.763 501.918 625.738 504.545 622.375L500.651 614.861L495.689 615.845L495.971 625.583Z" fill="#FFC940"/>
<path d="M482.716 694.487L488.044 694.213L491.491 658.132L509.042 694.018L514.526 693.861L504.028 662.363C503.614 651.854 503.181 641.373 498.701 636.82L497.134 633.529L484.597 630.865L482.874 634.156C478.877 643.488 481.224 670.153 482.716 694.487Z" fill="#2F2E41"/>
<path d="M489.141 622.247L484.753 634.157L476.797 645.479C476.287 645.513 475.8 645.706 475.406 646.031C475.011 646.357 474.729 646.798 474.6 647.293C474.47 647.787 474.5 648.31 474.684 648.787C474.868 649.264 475.198 649.671 475.627 649.95C476.055 650.229 476.561 650.366 477.071 650.342C477.582 650.317 478.072 650.133 478.472 649.814C478.872 649.496 479.162 649.059 479.3 648.567C479.438 648.074 479.418 647.551 479.241 647.071L479.425 647.163L489.611 636.821L495.566 623.187L489.141 622.247Z" fill="#FFB8B8"/>
<path d="M488.045 622.247C490.24 624.714 493.253 625.119 497.134 623.344V614.882L492.276 613.471L488.045 622.247Z" fill="#FFC940"/>
<path d="M510.212 619.043C509.432 618.067 508.343 617.396 507.287 616.728C506.232 616.06 505.159 615.351 504.442 614.328C503.297 612.695 503.242 610.548 503.413 608.561C503.584 606.575 503.933 604.546 503.449 602.611C502.809 600.052 500.689 597.981 498.184 597.154C495.679 596.328 492.861 596.681 490.505 597.866L491.153 597.255C490.636 597.361 490.165 597.623 489.803 598.005C489.44 598.388 489.203 598.872 489.125 599.393C489.046 599.914 489.128 600.447 489.361 600.919C489.594 601.392 489.967 601.781 490.428 602.036C491.491 602.622 492.939 602.454 493.793 603.316C494.634 604.166 494.458 605.56 494.154 606.716C493.369 609.709 492.123 612.59 491.692 615.653C491.26 618.717 491.806 622.149 494.078 624.248C495.749 625.791 498.122 626.386 500.396 626.341C502.67 626.295 504.888 625.673 507.076 625.054C508.611 624.621 510.342 624.019 510.943 622.542C511.414 621.385 510.993 620.019 510.212 619.043Z" fill="#2F2E41"/>
<path d="M488.178 698.617L476.739 698.617V698.472C476.739 697.291 477.208 696.159 478.043 695.324C478.878 694.489 480.01 694.019 481.191 694.019H481.192L488.179 694.02L488.178 698.617Z" fill="#2F2E41"/>
<path d="M514.695 698.175L503.256 698.175V698.03C503.256 696.849 503.725 695.717 504.56 694.882C505.395 694.047 506.527 693.578 507.708 693.577H507.709L514.695 693.578L514.695 698.175Z" fill="#2F2E41"/>
</g>
<defs>
<clipPath id="clip0_3_692">
<rect width="139" height="139" fill="white" transform="translate(228)"/>
</clipPath>
<clipPath id="clip1_3_692">
<rect width="227.995" height="148.948" fill="white" transform="translate(69 284)"/>
</clipPath>
<clipPath id="clip2_3_692">
<rect width="170" height="148.652" fill="white" transform="translate(327 284)"/>
</clipPath>
<clipPath id="clip3_3_692">
<rect width="237.207" height="171" fill="white" transform="translate(59 542)"/>
</clipPath>
<clipPath id="clip4_3_692">
<rect width="209.646" height="145" fill="white" transform="translate(326.207 555)"/>
</clipPath>
</defs>
</svg>
