<svg width="595" height="842" viewBox="0 0 595 842" fill="none" xmlns="http://www.w3.org/2000/svg">
<rect width="595" height="842" fill="white"/>
<g clip-path="url(#clip0_3_477)">
<path d="M246.741 67.9434C245.245 67.9434 243.75 67.6992 242.194 67.2415C240.637 66.7837 239.325 66.1734 238.257 65.4105L241.919 60.1921C241.888 60.1921 242.041 60.3142 242.377 60.5583C242.682 60.8025 243.14 61.0771 243.719 61.3823C244.299 61.6875 244.94 61.9621 245.673 62.2062C246.405 62.4504 247.168 62.5724 247.961 62.5724C248.419 62.5724 248.785 62.5114 248.999 62.3893C249.212 62.2978 249.365 62.1452 249.457 61.9621C249.518 61.8095 249.548 61.6264 249.548 61.4433C249.548 61.0771 249.365 60.772 248.968 60.5278C248.572 60.3142 248.083 60.1006 247.504 59.887C246.893 59.7039 246.252 59.4903 245.581 59.2156C244.696 58.8494 243.933 58.4527 243.353 57.995C242.773 57.5677 242.316 57.0489 242.041 56.4691C241.736 55.8893 241.583 55.1874 241.583 54.4245C241.583 53.0513 241.858 51.8306 242.407 50.7625C242.926 49.725 243.658 48.8095 244.574 48.0771C245.489 47.3447 246.497 46.7954 247.626 46.3986C248.755 46.0019 249.884 45.8188 251.043 45.8188C252.051 45.8188 253.027 45.9409 253.912 46.185C254.797 46.4597 255.621 46.7648 256.384 47.131C257.147 47.4972 257.788 47.8329 258.337 48.1686L254.736 53.0818C254.767 53.0818 254.644 52.9902 254.37 52.7766C254.095 52.563 253.698 52.3494 253.21 52.0747C252.722 51.8306 252.173 51.617 251.562 51.4034C250.952 51.1897 250.342 51.0982 249.731 51.0982C249.457 51.0982 249.182 51.1287 248.938 51.2203C248.663 51.3118 248.48 51.4644 248.327 51.6475C248.175 51.8306 248.114 52.0747 248.114 52.3799C248.114 52.6851 248.266 52.9292 248.541 53.1428C248.816 53.3564 249.182 53.5395 249.67 53.6921C250.158 53.8752 250.708 54.0888 251.349 54.333C252.325 54.6992 253.18 55.0959 253.943 55.5231C254.675 55.9809 255.255 56.5302 255.651 57.171C256.048 57.8119 256.262 58.6663 256.262 59.6734C256.262 61.2297 255.987 62.5114 255.407 63.5795C254.828 64.6476 254.095 65.4715 253.149 66.1124C252.203 66.7837 251.196 67.2415 250.067 67.5161C248.938 67.7908 247.839 67.9434 246.741 67.9434Z" fill="#232323" stroke="#232323" stroke-width="1.22066" stroke-miterlimit="2" stroke-linejoin="round"/>
<path d="M266.518 67.8518C265.176 67.8518 263.985 67.6077 262.948 67.0889C261.88 66.6007 260.995 65.9293 260.293 65.0748C259.591 64.2204 259.042 63.2438 258.676 62.1452C258.309 61.0771 258.126 59.948 258.126 58.7579C258.126 57.4457 258.37 56.164 258.828 54.9128C259.286 53.6616 259.927 52.4715 260.751 51.3729C261.544 50.3048 262.521 49.3588 263.65 48.5043C264.748 47.6804 265.939 47.0395 267.251 46.5818C268.563 46.124 269.906 45.8799 271.309 45.8799C272.652 45.8799 273.842 46.124 274.88 46.6123C275.917 47.1311 276.802 47.8024 277.504 48.6569C278.206 49.5114 278.756 50.4879 279.122 51.556C279.457 52.6546 279.64 53.7837 279.64 54.9738C279.64 56.286 279.396 57.5677 278.969 58.7884C278.511 60.0701 277.871 61.2297 277.047 62.2978C276.223 63.3964 275.277 64.3729 274.178 65.1969C273.079 66.0208 271.889 66.6922 270.577 67.15C269.265 67.6077 267.922 67.8518 266.518 67.8518ZM267.678 62.5725C268.655 62.5725 269.509 62.3588 270.241 61.9011C270.974 61.4433 271.584 60.8635 272.103 60.1311C272.591 59.4292 272.957 58.6358 273.201 57.8119C273.446 56.9879 273.568 56.164 273.568 55.3705C273.568 54.6076 273.446 53.9057 273.232 53.2649C272.988 52.624 272.622 52.1358 272.103 51.7391C271.584 51.3423 270.913 51.1592 270.089 51.1592C269.143 51.1592 268.288 51.3729 267.556 51.8001C266.824 52.2578 266.213 52.8377 265.725 53.5395C265.237 54.2414 264.87 55.0349 264.626 55.8588C264.352 56.6828 264.23 57.5067 264.23 58.3001C264.23 59.063 264.352 59.7649 264.596 60.4058C264.809 61.0466 265.176 61.5654 265.694 61.9621C266.213 62.3894 266.854 62.5725 267.678 62.5725Z" fill="#232323" stroke="#232323" stroke-width="1.22066" stroke-miterlimit="2" stroke-linejoin="round"/>
<path d="M288.913 67.8518C287.6 67.8518 286.441 67.6077 285.434 67.0889C284.396 66.5701 283.511 65.8988 282.809 64.9833C282.107 64.0983 281.558 63.1218 281.192 61.9926C280.826 60.894 280.643 59.7649 280.643 58.5748C280.643 57.3846 280.856 56.164 281.283 54.9433C281.711 53.7532 282.321 52.5935 283.114 51.4949C283.877 50.4269 284.823 49.4503 285.891 48.5959C286.959 47.7719 288.18 47.1005 289.523 46.6123C290.835 46.124 292.269 45.8799 293.765 45.8799C295.748 45.8799 297.396 46.3071 298.708 47.1616C300.021 48.0466 300.875 49.1757 301.272 50.6099L296.053 53.8447C295.962 53.1428 295.718 52.5935 295.352 52.1968C294.955 51.8001 294.528 51.5254 294.039 51.3729C293.521 51.2203 293.032 51.1592 292.513 51.1592C291.567 51.1592 290.744 51.3729 290.042 51.8001C289.309 52.2578 288.699 52.8377 288.211 53.5395C287.722 54.2414 287.356 55.0043 287.112 55.8283C286.837 56.6522 286.715 57.4152 286.715 58.1781C286.715 58.9715 286.837 59.7039 287.112 60.3447C287.356 61.0161 287.722 61.5654 288.241 61.9621C288.76 62.3588 289.401 62.5725 290.164 62.5725C290.652 62.5725 291.171 62.4809 291.751 62.2978C292.3 62.1452 292.819 61.8706 293.337 61.4739C293.856 61.0771 294.283 60.5584 294.619 59.9175L298.861 62.8166C298.22 63.8847 297.366 64.7697 296.267 65.5326C295.138 66.2955 293.948 66.8448 292.636 67.2415C291.323 67.6687 290.103 67.8518 288.913 67.8518Z" fill="#232323" stroke="#232323" stroke-width="1.22066" stroke-miterlimit="2" stroke-linejoin="round"/>
<path d="M304.568 46.002H310.519L305.911 67.6688H299.96L304.568 46.002Z" fill="#232323" stroke="#232323" stroke-width="1.22066" stroke-miterlimit="2" stroke-linejoin="round"/>
<path d="M319.494 46.002H324.957L327.367 67.6688H321.325L321.112 63.427H315.924L313.94 67.6688H307.867L319.494 46.002ZM321.02 59.4598L320.776 52.7461L317.633 59.4598H321.02Z" fill="#232323" stroke="#232323" stroke-width="1.22066" stroke-miterlimit="2" stroke-linejoin="round"/>
<path d="M333.651 46.002H339.602L336.092 62.4809H345.217L344.118 67.6688H329.043L333.651 46.002Z" fill="#232323" stroke="#232323" stroke-width="1.22066" stroke-miterlimit="2" stroke-linejoin="round"/>
<path d="M257.135 71.3199H266.046C267.205 71.3199 268.212 71.625 269.036 72.2049C269.86 72.8152 270.501 73.6086 270.959 74.5546C271.386 75.5006 271.6 76.5077 271.6 77.5758C271.6 78.6439 271.386 79.6814 270.928 80.719C270.471 81.7565 269.86 82.7026 269.067 83.5265C268.273 84.381 267.358 85.0523 266.32 85.5711C265.283 86.0899 264.184 86.334 262.994 86.334H259.881L258.478 92.9867H252.527L257.135 71.3199ZM263.696 81.1462C263.879 81.1462 264.062 81.0852 264.276 80.9631C264.489 80.8411 264.673 80.658 264.886 80.3833C265.069 80.1392 265.222 79.834 265.344 79.4373C265.435 79.0406 265.496 78.5828 265.496 78.064C265.496 77.6673 265.435 77.3316 265.344 77.118C265.252 76.9044 265.13 76.7213 264.978 76.6298C264.825 76.5382 264.673 76.5077 264.52 76.5077H261.987L261.011 81.1462H263.696Z" fill="#232323" stroke="#232323" stroke-width="1.22066" stroke-miterlimit="2" stroke-linejoin="round"/>
<path d="M275.503 71.3199H281.453L277.944 87.7988H287.068L285.97 92.9867H270.895L275.503 71.3199Z" fill="#232323" stroke="#232323" stroke-width="1.22066" stroke-miterlimit="2" stroke-linejoin="round"/>
<path d="M296.5 93.1698C294.73 93.1698 293.295 92.8341 292.227 92.1932C291.129 91.5524 290.335 90.6369 289.847 89.5078C289.328 88.3786 289.084 87.1275 289.084 85.7237C289.084 85.2049 289.115 84.6556 289.176 84.1063C289.237 83.5875 289.328 83.0382 289.45 82.4584L291.83 71.3199H297.781L295.401 82.4584C295.309 82.8551 295.248 83.2213 295.218 83.557C295.187 83.9232 295.157 84.2894 295.157 84.6251C295.157 85.266 295.248 85.8153 295.401 86.3035C295.554 86.7918 295.828 87.1885 296.194 87.4632C296.561 87.7378 297.049 87.8904 297.629 87.8904C298.239 87.8904 298.788 87.7378 299.277 87.4326C299.765 87.158 300.192 86.7308 300.589 86.212C300.985 85.6932 301.291 85.1134 301.565 84.4725C301.84 83.8317 302.023 83.1603 302.176 82.4584L304.556 71.3199H310.507L308.126 82.4584C307.791 83.9537 307.302 85.3575 306.662 86.6697C306.021 87.9819 305.197 89.111 304.22 90.0876C303.244 91.0641 302.115 91.827 300.833 92.3458C299.521 92.8951 298.086 93.1698 296.5 93.1698Z" fill="#232323" stroke="#232323" stroke-width="1.22066" stroke-miterlimit="2" stroke-linejoin="round"/>
<path d="M318.23 93.1392C317.101 93.1392 316.032 92.9256 315.086 92.5289C314.11 92.1322 313.255 91.5829 312.554 90.82C311.821 90.0571 311.241 89.1416 310.845 88.043C310.448 86.9749 310.234 85.7542 310.234 84.381C310.234 82.5195 310.601 80.8105 311.333 79.1931C312.065 77.5758 313.072 76.172 314.324 74.9819C315.575 73.7917 317.009 72.8457 318.596 72.1743C320.152 71.503 321.8 71.1673 323.509 71.1673C325.371 71.1673 326.957 71.5945 328.3 72.4185C329.643 73.2729 330.528 74.4326 330.955 75.8974L325.828 79.2847C325.615 78.4302 325.187 77.7284 324.516 77.2096C323.814 76.6908 323.051 76.4467 322.166 76.4467C321.403 76.4467 320.702 76.6298 320 76.996C319.298 77.3622 318.657 77.8809 318.138 78.5218C317.589 79.1931 317.162 79.9561 316.856 80.8105C316.521 81.6955 316.368 82.611 316.368 83.6181C316.368 84.442 316.521 85.1744 316.795 85.8153C317.07 86.4561 317.467 86.9749 317.986 87.3106C318.504 87.6768 319.145 87.8599 319.878 87.8599C320.763 87.8599 321.678 87.6157 322.594 87.1275C323.479 86.6697 324.364 85.9984 325.187 85.1134L323.936 90.9115C322.99 91.6744 322.075 92.2237 321.159 92.5899C320.213 92.9561 319.237 93.1392 318.23 93.1392ZM324.76 85.7237H321.037L321.922 81.4514H330.589L328.117 92.9867H323.234L324.76 85.7237Z" fill="#232323" stroke="#232323" stroke-width="1.22066" stroke-miterlimit="2" stroke-linejoin="round"/>
<path fill-rule="evenodd" clip-rule="evenodd" d="M342.652 89.0111L339.309 85.8329C339.309 85.8329 339.194 85.9536 339.031 86.1254C338.738 86.433 338.58 86.844 338.59 87.2672C338.601 87.6916 338.78 88.0944 339.087 88.3865C339.419 88.7016 339.78 89.0454 340.113 89.3616C340.42 89.6536 340.832 89.812 341.256 89.8015C341.679 89.7899 342.082 89.6111 342.374 89.3035C342.537 89.1318 342.652 89.0111 342.652 89.0111Z" stroke="#232323" stroke-width="0.592227" stroke-miterlimit="1.5" stroke-linecap="round" stroke-linejoin="round"/>
<path d="M347.49 73.635C346.176 72.3745 344.312 71.869 342.542 72.2937C340.772 72.7183 339.34 74.0148 338.741 75.7339C338.168 77.3819 337.603 79.004 337.16 80.2784C336.623 81.82 337.034 83.5331 338.212 84.6635C339.859 86.2448 342.215 88.5063 343.863 90.0876C345.04 91.218 346.769 91.5585 348.287 90.9593C349.542 90.4639 351.14 89.8334 352.763 89.1929C354.456 88.5247 355.693 87.0405 356.045 85.2546C356.397 83.4686 355.815 81.6264 354.502 80.3659" stroke="#232323" stroke-width="0.742701" stroke-miterlimit="1.5" stroke-linecap="round" stroke-linejoin="round"/>
<path d="M354.496 80.366L354.181 80.0636" stroke="#232323" stroke-width="0.742701" stroke-miterlimit="1.5" stroke-linecap="round" stroke-linejoin="round"/>
<path d="M351.508 77.493L350.227 76.2635" stroke="#232323" stroke-width="0.742701" stroke-miterlimit="1.5" stroke-linecap="round" stroke-linejoin="round"/>
<path d="M346.765 74.8754L346.394 74.508C345.845 73.9624 345.101 73.6575 344.327 73.6603C343.552 73.6632 342.811 73.9735 342.265 74.5231C341.719 75.0727 341.415 75.8165 341.417 76.5909C341.42 77.3653 341.731 78.1069 342.28 78.6525C344.167 80.5254 346.938 83.2765 348.825 85.1496C349.374 85.6951 350.118 86 350.893 85.9972C351.667 85.9944 352.408 85.684 352.954 85.1344C353.5 84.5848 353.805 83.8411 353.802 83.0667C353.799 82.2922 353.489 81.5506 352.939 81.0051" stroke="#232323" stroke-width="0.367719" stroke-miterlimit="1.5" stroke-linecap="round" stroke-linejoin="round"/>
<path d="M350.663 78.7448L348.963 77.0576" stroke="#232323" stroke-width="0.367719" stroke-miterlimit="1.5" stroke-linecap="round" stroke-linejoin="round"/>
<path fill-rule="evenodd" clip-rule="evenodd" d="M351.839 74.2994C352.134 74.0201 352.307 73.635 352.318 73.2287C352.329 72.8224 352.179 72.4282 351.9 72.1329C351.62 71.8376 351.235 71.6652 350.829 71.6539C350.423 71.6425 350.028 71.793 349.733 72.0723C348.415 73.3189 346.232 75.3827 344.914 76.6294C344.619 76.9086 344.446 77.2938 344.435 77.7001C344.424 78.1064 344.574 78.5005 344.853 78.7959C345.133 79.0912 345.518 79.2635 345.924 79.2749C346.33 79.2863 346.725 79.1358 347.02 78.8565C348.338 77.6098 350.521 75.546 351.839 74.2994Z" stroke="#232323" stroke-width="0.334235" stroke-miterlimit="1.5" stroke-linecap="round" stroke-linejoin="round"/>
<path fill-rule="evenodd" clip-rule="evenodd" d="M355.614 78.2996C355.91 78.0203 356.082 77.6351 356.093 77.2288C356.105 76.8226 355.954 76.4284 355.675 76.133C355.396 75.8377 355.011 75.6654 354.604 75.6541C354.198 75.6427 353.804 75.7932 353.508 76.0724C352.19 77.3191 350.008 79.3829 348.689 80.6295C348.394 80.9088 348.222 81.2939 348.21 81.7003C348.199 82.1065 348.349 82.5007 348.629 82.796C348.908 83.0914 349.293 83.2637 349.699 83.275C350.106 83.2864 350.5 83.1359 350.795 82.8566C352.114 81.61 354.296 79.5462 355.614 78.2996Z" stroke="#232323" stroke-width="0.371361" stroke-miterlimit="1.5" stroke-linecap="round" stroke-linejoin="round"/>
<path d="M339.383 88.9616C337.687 91.3106 333.325 93.4705 327.321 93.0396" stroke="#232323" stroke-width="0.926528" stroke-miterlimit="1.5" stroke-linecap="round" stroke-linejoin="round"/>
</g>
<path d="M233.028 143.288C231.7 143.288 230.412 143.112 229.164 142.76C227.932 142.392 226.94 141.92 226.188 141.344L227.508 138.416C228.228 138.944 229.084 139.368 230.076 139.688C231.068 140.008 232.06 140.168 233.052 140.168C234.156 140.168 234.972 140.008 235.5 139.688C236.028 139.352 236.292 138.912 236.292 138.368C236.292 137.968 236.132 137.64 235.812 137.384C235.508 137.112 235.108 136.896 234.612 136.736C234.132 136.576 233.476 136.4 232.644 136.208C231.364 135.904 230.316 135.6 229.5 135.296C228.684 134.992 227.98 134.504 227.388 133.832C226.812 133.16 226.524 132.264 226.524 131.144C226.524 130.168 226.788 129.288 227.316 128.504C227.844 127.704 228.636 127.072 229.692 126.608C230.764 126.144 232.068 125.912 233.604 125.912C234.676 125.912 235.724 126.04 236.748 126.296C237.772 126.552 238.668 126.92 239.436 127.4L238.236 130.352C236.684 129.472 235.132 129.032 233.58 129.032C232.492 129.032 231.684 129.208 231.156 129.56C230.644 129.912 230.388 130.376 230.388 130.952C230.388 131.528 230.684 131.96 231.276 132.248C231.884 132.52 232.804 132.792 234.036 133.064C235.316 133.368 236.364 133.672 237.18 133.976C237.996 134.28 238.692 134.76 239.268 135.416C239.86 136.072 240.156 136.96 240.156 138.08C240.156 139.04 239.884 139.92 239.34 140.72C238.812 141.504 238.012 142.128 236.94 142.592C235.868 143.056 234.564 143.288 233.028 143.288ZM250.876 142.376C250.508 142.648 250.052 142.856 249.508 143C248.98 143.128 248.42 143.192 247.828 143.192C246.292 143.192 245.1 142.8 244.252 142.016C243.42 141.232 243.004 140.08 243.004 138.56V133.256H241.012V130.376H243.004V127.232H246.748V130.376H249.964V133.256H246.748V138.512C246.748 139.056 246.884 139.48 247.156 139.784C247.444 140.072 247.844 140.216 248.356 140.216C248.948 140.216 249.452 140.056 249.868 139.736L250.876 142.376ZM265.56 130.088L259.728 143.792C259.136 145.28 258.4 146.328 257.52 146.936C256.656 147.544 255.608 147.848 254.376 147.848C253.704 147.848 253.04 147.744 252.384 147.536C251.728 147.328 251.192 147.04 250.776 146.672L252.144 144.008C252.432 144.264 252.76 144.464 253.128 144.608C253.512 144.752 253.888 144.824 254.256 144.824C254.768 144.824 255.184 144.696 255.504 144.44C255.824 144.2 256.112 143.792 256.368 143.216L256.416 143.096L250.824 130.088H254.688L258.312 138.848L261.96 130.088H265.56ZM267.087 125.192H270.831V143H267.087V125.192ZM286.954 136.592C286.954 136.64 286.93 136.976 286.882 137.6H277.114C277.29 138.4 277.706 139.032 278.362 139.496C279.018 139.96 279.834 140.192 280.81 140.192C281.482 140.192 282.074 140.096 282.586 139.904C283.114 139.696 283.602 139.376 284.05 138.944L286.042 141.104C284.826 142.496 283.05 143.192 280.714 143.192C279.258 143.192 277.97 142.912 276.85 142.352C275.73 141.776 274.866 140.984 274.258 139.976C273.65 138.968 273.346 137.824 273.346 136.544C273.346 135.28 273.642 134.144 274.234 133.136C274.842 132.112 275.666 131.32 276.706 130.76C277.762 130.184 278.938 129.896 280.234 129.896C281.498 129.896 282.642 130.168 283.666 130.712C284.69 131.256 285.49 132.04 286.066 133.064C286.658 134.072 286.954 135.248 286.954 136.592ZM280.258 132.728C279.41 132.728 278.698 132.968 278.122 133.448C277.546 133.928 277.194 134.584 277.066 135.416H283.426C283.298 134.6 282.946 133.952 282.37 133.472C281.794 132.976 281.09 132.728 280.258 132.728ZM307.86 134.336H311.412V141.152C310.5 141.84 309.444 142.368 308.244 142.736C307.044 143.104 305.836 143.288 304.62 143.288C302.876 143.288 301.308 142.92 299.916 142.184C298.524 141.432 297.428 140.4 296.628 139.088C295.844 137.76 295.452 136.264 295.452 134.6C295.452 132.936 295.844 131.448 296.628 130.136C297.428 128.808 298.532 127.776 299.94 127.04C301.348 126.288 302.932 125.912 304.692 125.912C306.164 125.912 307.5 126.16 308.7 126.656C309.9 127.152 310.908 127.872 311.724 128.816L309.228 131.12C308.028 129.856 306.58 129.224 304.884 129.224C303.812 129.224 302.86 129.448 302.028 129.896C301.196 130.344 300.548 130.976 300.084 131.792C299.62 132.608 299.388 133.544 299.388 134.6C299.388 135.64 299.62 136.568 300.084 137.384C300.548 138.2 301.188 138.84 302.004 139.304C302.836 139.752 303.78 139.976 304.836 139.976C305.956 139.976 306.964 139.736 307.86 139.256V134.336ZM327.767 130.088V143H324.215V141.464C323.719 142.024 323.127 142.456 322.439 142.76C321.751 143.048 321.007 143.192 320.207 143.192C318.511 143.192 317.167 142.704 316.175 141.728C315.183 140.752 314.687 139.304 314.687 137.384V130.088H318.431V136.832C318.431 138.912 319.303 139.952 321.047 139.952C321.943 139.952 322.663 139.664 323.207 139.088C323.751 138.496 324.023 137.624 324.023 136.472V130.088H327.767ZM331.236 130.088H334.98V143H331.236V130.088ZM333.108 128.288C332.42 128.288 331.86 128.088 331.428 127.688C330.996 127.288 330.78 126.792 330.78 126.2C330.78 125.608 330.996 125.112 331.428 124.712C331.86 124.312 332.42 124.112 333.108 124.112C333.796 124.112 334.356 124.304 334.788 124.688C335.22 125.072 335.436 125.552 335.436 126.128C335.436 126.752 335.22 127.272 334.788 127.688C334.356 128.088 333.796 128.288 333.108 128.288ZM351.607 125.192V143H348.031V141.512C347.103 142.632 345.759 143.192 343.999 143.192C342.783 143.192 341.679 142.92 340.687 142.376C339.711 141.832 338.943 141.056 338.383 140.048C337.823 139.04 337.543 137.872 337.543 136.544C337.543 135.216 337.823 134.048 338.383 133.04C338.943 132.032 339.711 131.256 340.687 130.712C341.679 130.168 342.783 129.896 343.999 129.896C345.647 129.896 346.935 130.416 347.863 131.456V125.192H351.607ZM344.647 140.12C345.591 140.12 346.375 139.8 346.999 139.16C347.623 138.504 347.935 137.632 347.935 136.544C347.935 135.456 347.623 134.592 346.999 133.952C346.375 133.296 345.591 132.968 344.647 132.968C343.687 132.968 342.895 133.296 342.271 133.952C341.647 134.592 341.335 135.456 341.335 136.544C341.335 137.632 341.647 138.504 342.271 139.16C342.895 139.8 343.687 140.12 344.647 140.12ZM367.72 136.592C367.72 136.64 367.696 136.976 367.648 137.6H357.88C358.056 138.4 358.472 139.032 359.128 139.496C359.784 139.96 360.6 140.192 361.576 140.192C362.248 140.192 362.84 140.096 363.352 139.904C363.88 139.696 364.368 139.376 364.816 138.944L366.808 141.104C365.592 142.496 363.816 143.192 361.48 143.192C360.024 143.192 358.736 142.912 357.616 142.352C356.496 141.776 355.632 140.984 355.024 139.976C354.416 138.968 354.112 137.824 354.112 136.544C354.112 135.28 354.408 134.144 355 133.136C355.608 132.112 356.432 131.32 357.472 130.76C358.528 130.184 359.704 129.896 361 129.896C362.264 129.896 363.408 130.168 364.432 130.712C365.456 131.256 366.256 132.04 366.832 133.064C367.424 134.072 367.72 135.248 367.72 136.592ZM361.024 132.728C360.176 132.728 359.464 132.968 358.888 133.448C358.312 133.928 357.96 134.584 357.832 135.416H364.192C364.064 134.6 363.712 133.952 363.136 133.472C362.56 132.976 361.856 132.728 361.024 132.728Z" fill="#232323"/>
<path d="M242.867 188.4H245.783V201H242.867V188.4ZM248.575 187.644H251.383V201H248.575V187.644ZM253.989 187.644H256.797V201H253.989V187.644ZM269.159 191.316V201H266.495V199.848C266.123 200.268 265.679 200.592 265.163 200.82C264.647 201.036 264.089 201.144 263.489 201.144C262.217 201.144 261.209 200.778 260.465 200.046C259.721 199.314 259.349 198.228 259.349 196.788V191.316H262.157V196.374C262.157 197.934 262.811 198.714 264.119 198.714C264.791 198.714 265.331 198.498 265.739 198.066C266.147 197.622 266.351 196.968 266.351 196.104V191.316H269.159ZM275.019 201.144C274.215 201.144 273.429 201.048 272.661 200.856C271.893 200.652 271.281 200.4 270.825 200.1L271.761 198.084C272.193 198.36 272.715 198.588 273.327 198.768C273.939 198.936 274.539 199.02 275.127 199.02C276.315 199.02 276.909 198.726 276.909 198.138C276.909 197.862 276.747 197.664 276.423 197.544C276.099 197.424 275.601 197.322 274.929 197.238C274.137 197.118 273.483 196.98 272.967 196.824C272.451 196.668 272.001 196.392 271.617 195.996C271.245 195.6 271.059 195.036 271.059 194.304C271.059 193.692 271.233 193.152 271.581 192.684C271.941 192.204 272.457 191.832 273.129 191.568C273.813 191.304 274.617 191.172 275.541 191.172C276.225 191.172 276.903 191.25 277.575 191.406C278.259 191.55 278.823 191.754 279.267 192.018L278.331 194.016C277.479 193.536 276.549 193.296 275.541 193.296C274.941 193.296 274.491 193.38 274.191 193.548C273.891 193.716 273.741 193.932 273.741 194.196C273.741 194.496 273.903 194.706 274.227 194.826C274.551 194.946 275.067 195.06 275.775 195.168C276.567 195.3 277.215 195.444 277.719 195.6C278.223 195.744 278.661 196.014 279.033 196.41C279.405 196.806 279.591 197.358 279.591 198.066C279.591 198.666 279.411 199.2 279.051 199.668C278.691 200.136 278.163 200.502 277.467 200.766C276.783 201.018 275.967 201.144 275.019 201.144ZM287.569 200.532C287.293 200.736 286.951 200.892 286.543 201C286.147 201.096 285.727 201.144 285.283 201.144C284.131 201.144 283.237 200.85 282.601 200.262C281.977 199.674 281.665 198.81 281.665 197.67V193.692H280.171V191.532H281.665V189.174H284.473V191.532H286.885V193.692H284.473V197.634C284.473 198.042 284.575 198.36 284.779 198.588C284.995 198.804 285.295 198.912 285.679 198.912C286.123 198.912 286.501 198.792 286.813 198.552L287.569 200.532ZM291.828 192.594C292.164 192.126 292.614 191.772 293.178 191.532C293.754 191.292 294.414 191.172 295.158 191.172V193.764C294.846 193.74 294.636 193.728 294.528 193.728C293.724 193.728 293.094 193.956 292.638 194.412C292.182 194.856 291.954 195.528 291.954 196.428V201H289.146V191.316H291.828V192.594ZM300.681 191.172C302.181 191.172 303.333 191.532 304.137 192.252C304.941 192.96 305.343 194.034 305.343 195.474V201H302.715V199.794C302.187 200.694 301.203 201.144 299.763 201.144C299.019 201.144 298.371 201.018 297.819 200.766C297.279 200.514 296.865 200.166 296.577 199.722C296.289 199.278 296.145 198.774 296.145 198.21C296.145 197.31 296.481 196.602 297.153 196.086C297.837 195.57 298.887 195.312 300.303 195.312H302.535C302.535 194.7 302.349 194.232 301.977 193.908C301.605 193.572 301.047 193.404 300.303 193.404C299.787 193.404 299.277 193.488 298.773 193.656C298.281 193.812 297.861 194.028 297.513 194.304L296.505 192.342C297.033 191.97 297.663 191.682 298.395 191.478C299.139 191.274 299.901 191.172 300.681 191.172ZM300.465 199.254C300.945 199.254 301.371 199.146 301.743 198.93C302.115 198.702 302.379 198.372 302.535 197.94V196.95H300.609C299.457 196.95 298.881 197.328 298.881 198.084C298.881 198.444 299.019 198.732 299.295 198.948C299.583 199.152 299.973 199.254 300.465 199.254ZM314.13 200.532C313.854 200.736 313.512 200.892 313.104 201C312.708 201.096 312.288 201.144 311.844 201.144C310.692 201.144 309.798 200.85 309.162 200.262C308.538 199.674 308.226 198.81 308.226 197.67V193.692H306.732V191.532H308.226V189.174H311.034V191.532H313.446V193.692H311.034V197.634C311.034 198.042 311.136 198.36 311.34 198.588C311.556 198.804 311.856 198.912 312.24 198.912C312.684 198.912 313.062 198.792 313.374 198.552L314.13 200.532ZM315.706 191.316H318.514V201H315.706V191.316ZM317.11 189.966C316.594 189.966 316.174 189.816 315.85 189.516C315.526 189.216 315.364 188.844 315.364 188.4C315.364 187.956 315.526 187.584 315.85 187.284C316.174 186.984 316.594 186.834 317.11 186.834C317.626 186.834 318.046 186.978 318.37 187.266C318.694 187.554 318.856 187.914 318.856 188.346C318.856 188.814 318.694 189.204 318.37 189.516C318.046 189.816 317.626 189.966 317.11 189.966ZM325.728 201.144C324.708 201.144 323.79 200.934 322.974 200.514C322.17 200.082 321.54 199.488 321.084 198.732C320.628 197.976 320.4 197.118 320.4 196.158C320.4 195.198 320.628 194.34 321.084 193.584C321.54 192.828 322.17 192.24 322.974 191.82C323.79 191.388 324.708 191.172 325.728 191.172C326.748 191.172 327.66 191.388 328.464 191.82C329.268 192.24 329.898 192.828 330.354 193.584C330.81 194.34 331.038 195.198 331.038 196.158C331.038 197.118 330.81 197.976 330.354 198.732C329.898 199.488 329.268 200.082 328.464 200.514C327.66 200.934 326.748 201.144 325.728 201.144ZM325.728 198.84C326.448 198.84 327.036 198.6 327.492 198.12C327.96 197.628 328.194 196.974 328.194 196.158C328.194 195.342 327.96 194.694 327.492 194.214C327.036 193.722 326.448 193.476 325.728 193.476C325.008 193.476 324.414 193.722 323.946 194.214C323.478 194.694 323.244 195.342 323.244 196.158C323.244 196.974 323.478 197.628 323.946 198.12C324.414 198.6 325.008 198.84 325.728 198.84ZM338.801 191.172C340.001 191.172 340.967 191.532 341.699 192.252C342.443 192.972 342.815 194.04 342.815 195.456V201H340.007V195.888C340.007 195.12 339.839 194.55 339.503 194.178C339.167 193.794 338.681 193.602 338.045 193.602C337.337 193.602 336.773 193.824 336.353 194.268C335.933 194.7 335.723 195.348 335.723 196.212V201H332.915V191.316H335.597V192.45C335.969 192.042 336.431 191.73 336.983 191.514C337.535 191.286 338.141 191.172 338.801 191.172ZM348.618 201.144C347.814 201.144 347.028 201.048 346.26 200.856C345.492 200.652 344.88 200.4 344.424 200.1L345.36 198.084C345.792 198.36 346.314 198.588 346.926 198.768C347.538 198.936 348.138 199.02 348.726 199.02C349.914 199.02 350.508 198.726 350.508 198.138C350.508 197.862 350.346 197.664 350.022 197.544C349.698 197.424 349.2 197.322 348.528 197.238C347.736 197.118 347.082 196.98 346.566 196.824C346.05 196.668 345.6 196.392 345.216 195.996C344.844 195.6 344.658 195.036 344.658 194.304C344.658 193.692 344.832 193.152 345.18 192.684C345.54 192.204 346.056 191.832 346.728 191.568C347.412 191.304 348.216 191.172 349.14 191.172C349.824 191.172 350.502 191.25 351.174 191.406C351.858 191.55 352.422 191.754 352.866 192.018L351.93 194.016C351.078 193.536 350.148 193.296 349.14 193.296C348.54 193.296 348.09 193.38 347.79 193.548C347.49 193.716 347.34 193.932 347.34 194.196C347.34 194.496 347.502 194.706 347.826 194.826C348.15 194.946 348.666 195.06 349.374 195.168C350.166 195.3 350.814 195.444 351.318 195.6C351.822 195.744 352.26 196.014 352.632 196.41C353.004 196.806 353.19 197.358 353.19 198.066C353.19 198.666 353.01 199.2 352.65 199.668C352.29 200.136 351.762 200.502 351.066 200.766C350.382 201.018 349.566 201.144 348.618 201.144Z" fill="#232323"/>
<g clip-path="url(#clip1_3_477)">
<path d="M166.275 304.325L160.581 303.655L158.571 321.072L153.441 345.123C152.727 345.47 152.145 346.039 151.781 346.743C151.417 347.448 151.29 348.252 151.419 349.035C151.549 349.818 151.927 350.538 152.499 351.088C153.071 351.639 153.805 351.989 154.592 352.089C155.379 352.188 156.178 352.03 156.868 351.639C157.559 351.248 158.104 350.645 158.424 349.918C158.744 349.192 158.821 348.382 158.643 347.609C158.465 346.835 158.042 346.14 157.437 345.627L162.591 331.455L166.275 304.325Z" fill="#A26E3E"/>
<path d="M174.546 428.489H169.855L167.623 410.394L174.547 410.395L174.546 428.489Z" fill="#A26E3E"/>
<path d="M175.742 433.036L160.616 433.036V432.845C160.616 431.283 161.237 429.786 162.341 428.682C163.445 427.577 164.942 426.957 166.504 426.957H166.504L175.743 426.957L175.742 433.036Z" fill="#2F2E41"/>
<path d="M210.548 425.93L205.942 426.82L200.319 409.477L207.117 408.164L210.548 425.93Z" fill="#A26E3E"/>
<path d="M212.585 430.168L197.733 433.036L197.697 432.849C197.401 431.315 197.726 429.728 198.601 428.434C199.475 427.141 200.828 426.248 202.361 425.951L202.361 425.951L211.432 424.2L212.585 430.168Z" fill="#2F2E41"/>
<path d="M167.19 275.784L169.916 281.013L190.33 276.51L188.094 266.371C186.324 258.346 179.228 252.55 171.202 254.32C163.177 256.09 159.432 263.934 161.202 271.96L164.492 282.209L167.82 281.475L167.19 275.784Z" fill="#2F2E41"/>
<path d="M159.911 333.464C159.911 333.464 157.902 343.512 160.581 358.249C163.26 372.986 163.93 379.35 163.93 379.35C163.93 379.35 161.921 381.695 163.26 383.034C164.6 384.374 163.26 387.054 163.26 387.054L166.275 419.542L176.658 417.867L175.318 387.388C175.318 387.388 176.658 384.709 175.988 384.039C175.318 383.369 176.658 379.35 176.658 379.35L178.332 347.532L188.715 382.364C188.715 382.364 187.71 383.704 188.715 384.709C189.72 385.714 191.73 390.738 191.73 390.738L198.428 414.183L209.146 412.173L203.117 385.379C203.117 385.379 203.787 383.704 202.782 382.699C202.489 382.392 202.275 382.018 202.159 381.61C202.042 381.201 202.026 380.771 202.113 380.355C202.113 380.355 203.117 379.35 201.778 378.01C200.438 376.671 199.768 371.312 199.768 371.312C199.768 371.312 198.763 335.474 195.414 333.464C192.065 331.455 159.911 333.464 159.911 333.464Z" fill="#2F2E41"/>
<path d="M175.056 278.046C180.235 278.046 184.434 273.847 184.434 268.668C184.434 263.489 180.235 259.29 175.056 259.29C169.876 259.29 165.677 263.489 165.677 268.668C165.677 273.847 169.876 278.046 175.056 278.046Z" fill="#A26E3E"/>
<path d="M188.272 280.673C188.272 280.673 195.079 279.875 197.089 281.885L195.079 322.412C195.079 322.412 196.419 323.416 195.749 325.761C195.36 327.3 195.36 328.911 195.749 330.45C195.749 330.45 197.758 332.795 196.754 333.799C195.749 334.804 159.576 334.134 159.576 334.134C159.576 334.134 158.236 331.79 160.246 330.45C162.256 329.11 161.251 325.426 161.251 325.426C161.251 325.426 160.581 324.421 162.256 322.747C163.93 321.072 165.27 307.34 165.27 307.34L160.916 290.593C160.916 290.593 165.299 285.646 170.308 285.273L188.272 280.673Z" fill="#FFC940"/>
<path d="M166.105 290.824L160.916 290.593C160.916 290.593 157.902 296.622 157.567 301.981L155.722 321.972L167.615 323.751L166.105 290.824Z" fill="#FFC940"/>
<path d="M167.021 269.133L163.537 264.651C163.332 263.707 163.508 262.721 164.028 261.907C164.548 261.093 165.369 260.518 166.311 260.307L179.471 257.405C180.415 257.199 181.402 257.376 182.216 257.895C183.03 258.415 183.605 259.236 183.815 260.179L183.823 260.211L182.88 265.623L182.715 265.594C174.547 264.137 172.221 264.65 167.154 269.018L167.021 269.133Z" fill="#2F2E41"/>
<path d="M202.071 340.746L201.443 314.373L200.773 295.617L192.734 296.622L197.051 341.451C196.592 342.028 196.316 342.729 196.26 343.464C196.203 344.199 196.368 344.934 196.734 345.574C197.099 346.214 197.648 346.729 198.31 347.054C198.972 347.379 199.716 347.498 200.446 347.395C201.176 347.292 201.858 346.973 202.405 346.479C202.951 345.984 203.337 345.337 203.512 344.621C203.687 343.905 203.643 343.153 203.386 342.462C203.129 341.771 202.671 341.174 202.071 340.746Z" fill="#A26E3E"/>
<path d="M191.225 282.45L197.089 281.885C197.089 281.885 198.093 281.885 199.098 285.234C200.103 288.583 205.627 323.982 205.627 323.982L193.404 325.091L191.225 282.45Z" fill="#FFC940"/>
<path d="M154.794 324.297H154.01V302.828C154.01 301.196 153.688 299.58 153.064 298.072C152.44 296.565 151.524 295.195 150.37 294.041C149.217 292.887 147.847 291.972 146.339 291.348C144.832 290.723 143.216 290.402 141.584 290.402H96.0981C94.4663 290.402 92.8504 290.723 91.3429 291.348C89.8353 291.972 88.4655 292.887 87.3116 294.041C86.1577 295.195 85.2425 296.565 84.618 298.072C83.9935 299.58 83.6721 301.196 83.6721 302.828V420.611C83.6721 423.906 84.9813 427.067 87.3116 429.397C89.6419 431.727 92.8025 433.036 96.098 433.036H141.584C144.879 433.036 148.04 431.727 150.37 429.397C152.701 427.067 154.01 423.906 154.01 420.611V339.579H154.794V324.297Z" fill="#3F3D56"/>
<path d="M142.085 293.634H136.148C136.421 294.304 136.525 295.03 136.451 295.749C136.378 296.469 136.128 297.159 135.725 297.759C135.322 298.359 134.777 298.85 134.139 299.19C133.501 299.53 132.789 299.708 132.066 299.708H106.008C105.285 299.708 104.573 299.53 103.935 299.19C103.297 298.85 102.752 298.359 102.349 297.759C101.946 297.159 101.696 296.469 101.622 295.749C101.549 295.03 101.653 294.304 101.926 293.634H96.3803C93.9192 293.634 91.5589 294.612 89.8187 296.352C88.0784 298.093 87.1008 300.453 87.1008 302.914V420.524C87.1008 421.743 87.3408 422.949 87.8071 424.075C88.2735 425.201 88.957 426.224 89.8187 427.086C90.6804 427.947 91.7033 428.631 92.8292 429.097C93.955 429.564 95.1617 429.804 96.3803 429.804H142.085C143.304 429.804 144.511 429.564 145.636 429.097C146.762 428.631 147.785 427.947 148.647 427.086C149.509 426.224 150.192 425.201 150.658 424.075C151.125 422.949 151.365 421.743 151.365 420.524V302.914C151.365 301.695 151.125 300.489 150.658 299.363C150.192 298.237 149.509 297.214 148.647 296.352C147.785 295.491 146.762 294.807 145.636 294.341C144.511 293.874 143.304 293.634 142.085 293.634Z" fill="white"/>
<path d="M111.896 336.377L113.16 340.755L129.31 340.47L129.168 332.448C129.056 326.099 124.569 320.623 118.22 320.735C111.871 320.847 107.834 326.215 107.946 332.564L108.868 340.83L111.502 340.784L111.896 336.377Z" fill="#2F2E41"/>
<path d="M118.942 339.438C122.944 339.438 126.188 336.194 126.188 332.192C126.188 328.19 122.944 324.945 118.942 324.945C114.94 324.945 111.696 328.19 111.696 332.192C111.696 336.194 114.94 339.438 118.942 339.438Z" fill="#A26E3E"/>
<path d="M133.365 343.492L133.201 346.54C129.723 350.157 124.979 352.286 119.965 352.481C114.951 352.675 110.057 350.919 106.31 347.581C106.142 347.434 105.978 347.28 105.817 347.123C106.822 346.124 109.595 343.659 112.673 343.432L126.553 342.557C126.553 342.557 131.811 341.941 133.365 343.492Z" fill="#FFDC84"/>
<path d="M126.874 327.104C126.865 326.549 126.691 326.009 126.375 325.553C126.342 325.506 126.308 325.462 126.275 325.419C126.006 325.076 125.662 324.8 125.269 324.613C124.877 324.425 124.446 324.331 124.011 324.337L118.802 324.431L113.598 324.521C112.852 324.536 112.143 324.846 111.625 325.383C111.107 325.919 110.823 326.639 110.834 327.385L112.074 329.88L112.787 331.314L112.904 331.247C117.409 328.715 119.251 328.681 125.213 331.036L125.334 331.083L125.806 329.873L126.878 327.13L126.874 327.104Z" fill="#2F2E41"/>
<path d="M134.537 345.002C133.051 346.902 131.228 348.512 129.158 349.752L128.834 343.931L133.365 343.492C133.365 343.492 133.908 343.492 134.537 345.002Z" fill="#FFC940"/>
<path d="M119.214 352.823C114.374 352.828 109.701 351.052 106.087 347.832C105.916 347.682 105.748 347.523 105.583 347.362C103.637 345.524 102.089 343.307 101.035 340.848C99.9808 338.388 99.4424 335.738 99.4533 333.062C99.4533 327.821 101.535 322.795 105.241 319.089C108.947 315.383 113.973 313.301 119.214 313.301C124.455 313.301 129.482 315.383 133.187 319.089C136.893 322.795 138.975 327.821 138.975 333.062C138.992 337.465 137.521 341.745 134.801 345.209C132.954 347.581 130.59 349.5 127.889 350.819C125.188 352.139 122.221 352.824 119.214 352.823ZM119.214 313.971C114.153 313.977 109.3 315.99 105.721 319.569C102.142 323.148 100.129 328.001 100.123 333.062C100.113 335.648 100.633 338.209 101.652 340.585C102.671 342.962 104.167 345.104 106.048 346.88C106.208 347.036 106.368 347.186 106.531 347.33C108.484 349.061 110.771 350.375 113.251 351.189C115.73 352.003 118.351 352.3 120.95 352.063C123.549 351.826 126.073 351.058 128.364 349.809C130.655 348.559 132.667 346.853 134.274 344.796C136.901 341.451 138.322 337.316 138.305 333.062C138.3 328.001 136.287 323.148 132.707 319.569C129.128 315.99 124.276 313.977 119.214 313.971Z" fill="#3F3D56"/>
<path d="M136.979 380.22H102.167C101.82 380.22 101.476 380.151 101.155 380.018C100.834 379.886 100.543 379.691 100.298 379.445C100.052 379.2 99.8574 378.909 99.7246 378.588C99.5917 378.267 99.5233 377.923 99.5233 377.576C99.5233 377.229 99.5917 376.885 99.7246 376.565C99.8574 376.244 100.052 375.953 100.298 375.707C100.543 375.462 100.834 375.267 101.155 375.134C101.476 375.001 101.82 374.933 102.167 374.933H136.979C137.326 374.933 137.67 375.001 137.991 375.134C138.311 375.267 138.603 375.462 138.848 375.707C139.094 375.953 139.288 376.244 139.421 376.565C139.554 376.885 139.622 377.229 139.622 377.576C139.622 377.923 139.554 378.267 139.421 378.588C139.288 378.909 139.094 379.2 138.848 379.445C138.603 379.691 138.311 379.886 137.991 380.018C137.67 380.151 137.326 380.22 136.979 380.22Z" fill="#FFC940"/>
<path d="M136.979 388.593H102.167C101.466 388.593 100.793 388.314 100.298 387.819C99.8018 387.323 99.5233 386.651 99.5233 385.95C99.5233 385.249 99.8018 384.576 100.298 384.081C100.793 383.585 101.466 383.306 102.167 383.306H136.979C137.68 383.306 138.352 383.585 138.848 384.081C139.344 384.576 139.622 385.249 139.622 385.95C139.622 386.651 139.344 387.323 138.848 387.819C138.352 388.314 137.68 388.593 136.979 388.593Z" fill="#FFC940"/>
<path d="M128.504 371.745H110.642C109.941 371.745 109.268 371.466 108.773 370.97C108.277 370.475 107.998 369.802 107.998 369.101C107.998 368.4 108.277 367.728 108.773 367.232C109.268 366.736 109.941 366.458 110.642 366.458H128.504C129.205 366.458 129.878 366.736 130.373 367.232C130.869 367.728 131.148 368.4 131.148 369.101C131.148 369.802 130.869 370.475 130.373 370.97C129.878 371.466 129.205 371.745 128.504 371.745Z" fill="#FFC940"/>
<path d="M247.294 433.284H46.3349C46.2461 433.284 46.1609 433.249 46.0981 433.186C46.0353 433.123 46 433.038 46 432.949C46 432.86 46.0353 432.775 46.0981 432.712C46.1609 432.649 46.2461 432.614 46.3349 432.614H247.294C247.383 432.614 247.468 432.649 247.531 432.712C247.594 432.775 247.629 432.86 247.629 432.949C247.629 433.038 247.594 433.123 247.531 433.186C247.468 433.249 247.383 433.284 247.294 433.284Z" fill="#CACACA"/>
</g>
<g clip-path="url(#clip2_3_477)">
<path d="M555.72 348.644H500.67C500.331 348.644 500.005 348.509 499.765 348.269C499.525 348.029 499.39 347.703 499.39 347.364V313.31C499.39 312.97 499.525 312.645 499.765 312.405C500.005 312.165 500.331 312.03 500.67 312.03H555.72C556.059 312.03 556.385 312.165 556.625 312.405C556.865 312.645 557 312.97 557 313.31V347.364C557 347.703 556.865 348.029 556.625 348.269C556.385 348.509 556.059 348.644 555.72 348.644Z" fill="white"/>
<path d="M555.72 348.644H500.67C500.331 348.644 500.005 348.509 499.765 348.269C499.525 348.029 499.39 347.703 499.39 347.364V313.31C499.39 312.97 499.525 312.645 499.765 312.405C500.005 312.165 500.331 312.03 500.67 312.03H555.72C556.059 312.03 556.385 312.165 556.625 312.405C556.865 312.645 557 312.97 557 313.31V347.364C557 347.703 556.865 348.029 556.625 348.269C556.385 348.509 556.059 348.644 555.72 348.644ZM500.67 312.542C500.466 312.542 500.271 312.623 500.127 312.767C499.983 312.911 499.902 313.106 499.902 313.31V347.364C499.902 347.568 499.983 347.763 500.127 347.907C500.271 348.051 500.466 348.132 500.67 348.132H555.72C555.923 348.132 556.119 348.051 556.263 347.907C556.407 347.763 556.488 347.568 556.488 347.364V313.31C556.488 313.106 556.407 312.911 556.263 312.767C556.119 312.623 555.923 312.542 555.72 312.542H500.67Z" fill="#3F3D56"/>
<path d="M544.838 323.403H511.552C511.246 323.403 510.953 323.281 510.737 323.065C510.521 322.849 510.4 322.556 510.4 322.25C510.4 321.945 510.521 321.652 510.737 321.436C510.953 321.22 511.246 321.098 511.552 321.098H544.838C545.143 321.098 545.436 321.22 545.653 321.436C545.869 321.652 545.99 321.945 545.99 322.25C545.99 322.556 545.869 322.849 545.653 323.065C545.436 323.281 545.143 323.403 544.838 323.403Z" fill="#CCCCCC"/>
<path d="M544.838 331.34H511.552C511.246 331.34 510.953 331.219 510.737 331.003C510.521 330.787 510.4 330.493 510.4 330.188C510.4 329.882 510.521 329.589 510.737 329.373C510.953 329.157 511.246 329.036 511.552 329.036H544.838C545.143 329.036 545.436 329.157 545.653 329.373C545.869 329.589 545.99 329.882 545.99 330.188C545.99 330.493 545.869 330.787 545.653 331.003C545.436 331.219 545.143 331.34 544.838 331.34Z" fill="#CCCCCC"/>
<path d="M541.872 343.925C544.146 343.925 545.99 342.081 545.99 339.807C545.99 337.533 544.146 335.69 541.872 335.69C539.598 335.69 537.755 337.533 537.755 339.807C537.755 342.081 539.598 343.925 541.872 343.925Z" fill="#FFC940"/>
<path d="M541.986 337.868V337.475H542.102V337.868C542.266 337.875 542.427 337.914 542.577 337.984C542.685 338.035 542.778 338.112 542.848 338.21C542.912 338.3 542.946 338.407 542.946 338.518C542.948 338.599 542.921 338.678 542.87 338.74C542.847 338.768 542.819 338.791 542.786 338.807C542.754 338.823 542.718 338.831 542.682 338.83C542.656 338.831 542.629 338.826 542.604 338.816C542.579 338.805 542.557 338.79 542.538 338.771C542.518 338.752 542.503 338.729 542.493 338.704C542.483 338.678 542.478 338.651 542.479 338.624C542.479 338.586 542.486 338.548 542.502 338.513L542.548 338.415C542.565 338.374 542.573 338.33 542.571 338.286C542.573 338.217 542.551 338.15 542.51 338.096C542.464 338.039 542.403 337.996 542.334 337.973C542.259 337.949 542.181 337.933 542.102 337.927V339.339L542.128 339.354C542.37 339.483 542.591 339.649 542.781 339.847C542.865 339.947 542.931 340.06 542.978 340.181C543.024 340.299 543.048 340.425 543.049 340.552C543.051 340.716 543.008 340.877 542.925 341.019C542.844 341.157 542.725 341.269 542.582 341.342C542.431 341.415 542.269 341.463 542.102 341.481V341.902H541.986V341.489C541.817 341.487 541.651 341.453 541.495 341.388C541.34 341.33 541.203 341.232 541.099 341.104C541.007 340.989 540.957 340.846 540.958 340.699C540.955 340.595 540.987 340.494 541.049 340.411C541.073 340.375 541.106 340.346 541.144 340.325C541.182 340.305 541.225 340.294 541.268 340.294C541.294 340.293 541.32 340.297 541.344 340.307C541.368 340.316 541.39 340.331 541.409 340.349C541.427 340.367 541.441 340.389 541.451 340.413C541.461 340.438 541.465 340.463 541.464 340.489C541.455 340.569 541.422 340.644 541.369 340.703C541.341 340.74 541.317 340.78 541.298 340.822C541.284 340.854 541.278 340.889 541.278 340.925C541.279 341.019 541.311 341.11 541.37 341.183C541.434 341.266 541.519 341.329 541.616 341.367C541.727 341.411 541.846 341.432 541.965 341.429H541.986V339.744L541.838 339.659C541.699 339.578 541.593 339.511 541.52 339.457C541.448 339.406 541.382 339.347 541.322 339.282C541.174 339.124 541.092 338.915 541.093 338.699C541.092 338.564 541.126 338.431 541.191 338.313C541.254 338.195 541.348 338.096 541.462 338.025C541.62 337.929 541.8 337.875 541.986 337.868ZM541.986 337.924C541.886 337.927 541.787 337.949 541.695 337.989C541.603 338.034 541.528 338.107 541.479 338.197C541.424 338.296 541.396 338.407 541.397 338.519C541.396 338.657 541.438 338.791 541.518 338.903C541.56 338.964 541.611 339.019 541.668 339.066C541.761 339.135 541.859 339.199 541.96 339.256L541.986 339.272V337.924ZM542.102 341.424C542.168 341.419 542.234 341.405 542.297 341.383C542.348 341.363 542.396 341.335 542.438 341.3C542.518 341.232 542.58 341.146 542.618 341.049C542.663 340.941 542.686 340.826 542.685 340.709C542.675 340.522 542.615 340.341 542.513 340.184C542.411 340.028 542.269 339.901 542.102 339.816V341.424Z" fill="white"/>
<path d="M518.22 325.85H463.17C462.83 325.85 462.505 325.714 462.265 325.474C462.025 325.234 461.89 324.909 461.89 324.57V290.516C461.89 290.176 462.025 289.851 462.265 289.611C462.505 289.371 462.83 289.236 463.17 289.235H518.22C518.559 289.236 518.884 289.371 519.124 289.611C519.364 289.851 519.5 290.176 519.5 290.516V324.57C519.5 324.909 519.364 325.234 519.124 325.474C518.884 325.714 518.559 325.85 518.22 325.85Z" fill="white"/>
<path d="M518.22 325.85H463.17C462.83 325.85 462.505 325.714 462.265 325.474C462.025 325.234 461.89 324.909 461.89 324.57V290.516C461.89 290.176 462.025 289.851 462.265 289.611C462.505 289.371 462.83 289.236 463.17 289.235H518.22C518.559 289.236 518.884 289.371 519.124 289.611C519.364 289.851 519.5 290.176 519.5 290.516V324.57C519.5 324.909 519.364 325.234 519.124 325.474C518.884 325.714 518.559 325.85 518.22 325.85ZM463.17 289.747C462.966 289.748 462.771 289.829 462.627 289.973C462.483 290.117 462.402 290.312 462.402 290.516V324.57C462.402 324.773 462.483 324.969 462.627 325.113C462.771 325.257 462.966 325.338 463.17 325.338H518.22C518.423 325.338 518.619 325.257 518.763 325.113C518.907 324.969 518.988 324.773 518.988 324.57V290.516C518.988 290.312 518.907 290.117 518.763 289.973C518.619 289.829 518.423 289.748 518.22 289.747H463.17Z" fill="#3F3D56"/>
<path d="M507.338 300.608H474.052C473.746 300.608 473.453 300.487 473.237 300.271C473.021 300.055 472.9 299.762 472.9 299.456C472.9 299.151 473.021 298.858 473.237 298.642C473.453 298.425 473.746 298.304 474.052 298.304H507.338C507.643 298.304 507.936 298.425 508.152 298.642C508.368 298.858 508.49 299.151 508.49 299.456C508.49 299.762 508.368 300.055 508.152 300.271C507.936 300.487 507.643 300.608 507.338 300.608Z" fill="#CCCCCC"/>
<path d="M507.338 308.546H474.052C473.746 308.546 473.453 308.424 473.237 308.208C473.021 307.992 472.9 307.699 472.9 307.394C472.9 307.088 473.021 306.795 473.237 306.579C473.453 306.363 473.746 306.241 474.052 306.241H507.338C507.643 306.241 507.936 306.363 508.152 306.579C508.368 306.795 508.49 307.088 508.49 307.394C508.49 307.699 508.368 307.992 508.152 308.208C507.936 308.424 507.643 308.546 507.338 308.546Z" fill="#CCCCCC"/>
<path d="M504.372 321.131C506.646 321.131 508.49 319.287 508.49 317.013C508.49 314.739 506.646 312.896 504.372 312.896C502.098 312.896 500.255 314.739 500.255 317.013C500.255 319.287 502.098 321.131 504.372 321.131Z" fill="#FFC940"/>
<path d="M504.485 315.073V314.681H504.602V315.073C504.766 315.081 504.927 315.12 505.076 315.19C505.185 315.24 505.278 315.318 505.347 315.415C505.412 315.505 505.446 315.613 505.446 315.724C505.448 315.805 505.421 315.883 505.369 315.946C505.347 315.974 505.319 315.997 505.286 316.013C505.254 316.028 505.218 316.036 505.182 316.036C505.155 316.037 505.129 316.032 505.104 316.021C505.079 316.011 505.057 315.996 505.038 315.977C505.018 315.958 505.003 315.935 504.993 315.909C504.983 315.884 504.978 315.857 504.978 315.83C504.978 315.791 504.986 315.754 505.002 315.719L505.048 315.621C505.065 315.58 505.072 315.536 505.071 315.492C505.073 315.423 505.051 315.356 505.009 315.302C504.964 315.245 504.903 315.202 504.834 315.179C504.759 315.155 504.681 315.139 504.602 315.133V316.545L504.627 316.56C504.87 316.688 505.09 316.855 505.28 317.053C505.365 317.152 505.431 317.265 505.478 317.387C505.524 317.505 505.548 317.631 505.549 317.758C505.551 317.922 505.508 318.083 505.425 318.225C505.344 318.363 505.225 318.475 505.082 318.547C504.931 318.621 504.768 318.668 504.602 318.687V319.107H504.485V318.694C504.317 318.693 504.15 318.659 503.995 318.594C503.84 318.536 503.703 318.438 503.599 318.31C503.507 318.195 503.457 318.052 503.458 317.905C503.455 317.801 503.487 317.7 503.549 317.617C503.573 317.581 503.606 317.552 503.644 317.531C503.682 317.511 503.725 317.5 503.768 317.499C503.794 317.499 503.82 317.503 503.844 317.513C503.868 317.522 503.89 317.536 503.909 317.555C503.927 317.573 503.941 317.595 503.951 317.619C503.96 317.643 503.965 317.669 503.964 317.695C503.955 317.775 503.922 317.849 503.869 317.909C503.841 317.946 503.817 317.985 503.798 318.027C503.784 318.06 503.778 318.095 503.778 318.13C503.779 318.225 503.811 318.316 503.87 318.389C503.934 318.471 504.019 318.535 504.116 318.573C504.227 318.617 504.346 318.638 504.465 318.635H504.485V316.95L504.338 316.865C504.199 316.784 504.093 316.717 504.02 316.663C503.948 316.611 503.882 316.553 503.822 316.488C503.674 316.33 503.592 316.121 503.592 315.904C503.592 315.77 503.625 315.637 503.691 315.519C503.754 315.401 503.848 315.302 503.962 315.231C504.12 315.135 504.3 315.081 504.485 315.073ZM504.485 315.13C504.385 315.133 504.287 315.155 504.195 315.195C504.103 315.24 504.028 315.313 503.979 315.403C503.924 315.501 503.895 315.613 503.897 315.725C503.896 315.863 503.938 315.997 504.018 316.109C504.06 316.17 504.11 316.225 504.168 316.271C504.261 316.341 504.359 316.405 504.46 316.462L504.485 316.477V315.13ZM504.602 318.63C504.668 318.624 504.734 318.61 504.797 318.589C504.848 318.569 504.896 318.541 504.938 318.506C505.018 318.438 505.08 318.352 505.118 318.254C505.163 318.147 505.186 318.031 505.185 317.915C505.175 317.728 505.115 317.547 505.013 317.39C504.911 317.234 504.769 317.107 504.602 317.022V318.63Z" fill="white"/>
<path d="M404.102 320.769C403.622 320.734 403.141 320.805 402.692 320.976C402.243 321.148 401.836 321.416 401.502 321.761C401.167 322.107 400.913 322.521 400.756 322.976C400.599 323.43 400.544 323.914 400.594 324.392L390.01 329.353L395.19 332.525L404.446 327.327C405.244 327.19 405.964 326.765 406.469 326.132C406.974 325.499 407.23 324.703 407.187 323.895C407.145 323.087 406.807 322.322 406.239 321.746C405.67 321.169 404.91 320.822 404.102 320.769Z" fill="#FFB6B6"/>
<path d="M360.309 416.227L363.964 416.227L365.703 402.129L360.308 402.129L360.309 416.227Z" fill="#FFB6B6"/>
<path d="M359.376 415.034L366.574 415.033H366.575C367.791 415.033 368.958 415.517 369.818 416.377C370.678 417.237 371.162 418.404 371.162 419.62V419.769L359.377 419.77L359.376 415.034Z" fill="#2F2E41"/>
<path d="M378.959 416.227L382.614 416.227L384.353 402.129L378.958 402.129L378.959 416.227Z" fill="#FFB6B6"/>
<path d="M378.027 415.034L385.225 415.033H385.225C386.441 415.033 387.608 415.517 388.468 416.377C389.329 417.237 389.812 418.404 389.812 419.62V419.769L378.027 419.77L378.027 415.034Z" fill="#2F2E41"/>
<path d="M381.4 343.106L383.255 347.1L386.6 382.817L384 413.516H377.92L370.745 365.127L367.375 412.402L359.171 412.071L357.596 347.976L381.4 343.106Z" fill="#2F2E41"/>
<path d="M351.838 310.146L359.529 307.017L370.385 307.625L380.036 311.142L383.255 347.1C374.859 351.685 366.355 352.936 357.702 349.658L349.671 326.238L351.838 310.146Z" fill="#232323"/>
<path d="M377.033 312.093L380.446 311.142C380.446 311.142 383.027 309.464 383.877 314.453C384.726 319.443 389.096 327.204 389.096 327.204L396.578 323.217L400.042 330.781L388.227 337.938L375.785 325.402L377.033 312.093Z" fill="#232323"/>
<path d="M358.312 300.355C357.897 299.414 357.672 298.401 357.649 297.374C357.626 296.346 357.806 295.324 358.178 294.366C358.55 293.408 359.107 292.533 359.817 291.79C360.527 291.047 361.377 290.451 362.317 290.037C363.258 289.622 364.271 289.397 365.298 289.374C366.326 289.351 367.348 289.531 368.306 289.903C369.264 290.275 370.139 290.832 370.882 291.542C371.625 292.252 372.221 293.102 372.635 294.042L372.68 294.146C373.503 296.052 373.536 298.206 372.771 300.136C372.392 301.092 371.828 301.963 371.113 302.701C370.397 303.439 369.543 304.029 368.599 304.436C366.694 305.26 364.539 305.293 362.609 304.527C360.679 303.762 359.132 302.262 358.309 300.356L358.312 300.355Z" fill="#FFB6B6"/>
<path d="M368.937 293.192C370.564 293.487 373.083 294.512 374.48 293.31C373.79 292.503 372.922 291.868 371.944 291.455C371.751 291.391 371.573 291.29 371.419 291.158C370.943 290.676 371.311 289.847 371.093 289.195C370.987 288.958 370.827 288.748 370.626 288.582C370.425 288.416 370.189 288.299 369.935 288.241C369.45 288.096 368.941 288.072 368.465 287.896C367.337 287.472 366.536 286.259 365.38 285.93C364.373 285.638 363.359 286.091 362.49 286.62C361.621 287.148 360.761 287.775 359.744 287.875C358.984 287.944 358.503 289.194 357.74 289.231C356.142 289.309 356.231 288.255 356.112 289.934C356.044 290.937 354.612 292.93 354.635 293.941C354.659 294.604 354.542 295.26 354.561 295.924C354.604 297.189 355.111 298.395 355.986 299.31C356.714 300.058 357.661 300.563 358.274 301.416C358.592 301.869 358.813 302.398 359.184 302.807C359.555 303.217 360.183 303.464 360.597 303.171C361.011 302.879 361.019 302.246 361.224 301.764C361.35 301.468 361.565 301.22 361.839 301.053C362.114 300.886 362.433 300.809 362.754 300.833C363.086 300.876 363.4 301.011 363.66 301.224C363.92 301.436 364.115 301.716 364.224 302.033C364.031 300.969 363.52 299.971 363.325 298.905C363.131 297.84 363.384 296.567 364.302 296.151C364.696 295.968 365.228 295.918 365.386 295.496C365.483 295.242 365.395 294.941 365.432 294.666C365.634 293.317 367.876 292.984 368.937 293.192Z" fill="#2F2E41"/>
<path d="M358.624 349.242C358.554 348.766 358.38 348.312 358.115 347.91C357.851 347.509 357.501 347.17 357.091 346.919C356.681 346.667 356.221 346.508 355.744 346.454C355.266 346.399 354.782 346.45 354.326 346.602L347.188 337.347L345.215 343.091L352.296 351C352.603 351.749 353.174 352.359 353.901 352.715C354.628 353.071 355.461 353.148 356.241 352.932C357.021 352.715 357.694 352.22 358.133 351.54C358.573 350.86 358.747 350.042 358.624 349.242V349.242Z" fill="#FFB6B6"/>
<path d="M354.303 311.891L351.838 310.146C351.838 310.146 346.198 309.822 345.377 314.453L335.035 331.467L347.858 349.157L354.075 342.613L346.23 333.446L352.817 321.353L354.303 311.891Z" fill="#232323"/>
<path d="M414.369 314.587H414.24V311.044C414.24 310.775 414.187 310.508 414.084 310.259C413.981 310.01 413.83 309.784 413.639 309.594C413.449 309.403 413.223 309.252 412.974 309.149C412.725 309.046 412.459 308.993 412.189 308.993H404.682C404.413 308.993 404.146 309.046 403.898 309.149C403.649 309.252 403.423 309.403 403.232 309.594C403.042 309.784 402.891 310.01 402.788 310.259C402.685 310.508 402.632 310.775 402.632 311.044V330.483C402.632 330.752 402.685 331.019 402.788 331.267C402.891 331.516 403.042 331.742 403.232 331.933C403.423 332.123 403.649 332.274 403.898 332.377C404.146 332.48 404.413 332.533 404.682 332.533H412.189C412.459 332.533 412.725 332.48 412.974 332.377C413.223 332.274 413.449 332.123 413.639 331.933C413.83 331.742 413.981 331.516 414.084 331.267C414.187 331.019 414.24 330.752 414.24 330.483V317.109H414.369V314.587Z" fill="#3F3D56"/>
<path d="M412.272 309.527H411.292C411.337 309.637 411.354 309.757 411.342 309.876C411.33 309.994 411.289 310.108 411.222 310.207C411.156 310.306 411.066 310.388 410.961 310.444C410.855 310.5 410.738 310.529 410.618 310.529H406.318C406.198 310.529 406.081 310.5 405.976 310.444C405.87 310.388 405.781 310.306 405.714 310.207C405.647 310.108 405.606 309.994 405.594 309.876C405.582 309.757 405.599 309.637 405.644 309.527H404.729C404.323 309.527 403.933 309.688 403.646 309.975C403.359 310.262 403.197 310.652 403.197 311.058V330.468C403.197 330.874 403.359 331.264 403.646 331.551C403.933 331.838 404.323 332 404.729 332H412.272C412.678 332 413.068 331.838 413.355 331.551C413.642 331.264 413.803 330.874 413.803 330.468V311.058C413.803 310.652 413.642 310.262 413.355 309.975C413.068 309.688 412.678 309.527 412.272 309.527Z" fill="#FFC940"/>
<path d="M479.984 302.615H424.934C424.595 302.614 424.27 302.479 424.03 302.239C423.79 301.999 423.655 301.674 423.654 301.334V267.28C423.655 266.941 423.79 266.615 424.03 266.375C424.27 266.135 424.595 266 424.934 266H479.984C480.324 266 480.649 266.135 480.889 266.375C481.129 266.615 481.264 266.941 481.264 267.28V301.334C481.264 301.674 481.129 301.999 480.889 302.239C480.649 302.479 480.324 302.614 479.984 302.615Z" fill="white"/>
<path d="M479.984 302.615H424.934C424.595 302.614 424.27 302.479 424.03 302.239C423.79 301.999 423.655 301.674 423.654 301.334V267.28C423.655 266.941 423.79 266.615 424.03 266.375C424.27 266.135 424.595 266 424.934 266H479.984C480.324 266 480.649 266.135 480.889 266.375C481.129 266.615 481.264 266.941 481.264 267.28V301.334C481.264 301.674 481.129 301.999 480.889 302.239C480.649 302.479 480.324 302.614 479.984 302.615ZM424.934 266.512C424.731 266.512 424.536 266.593 424.392 266.737C424.247 266.881 424.166 267.077 424.166 267.28V301.334C424.166 301.538 424.247 301.733 424.392 301.877C424.536 302.021 424.731 302.102 424.934 302.102H479.984C480.188 302.102 480.383 302.021 480.527 301.877C480.671 301.733 480.752 301.538 480.752 301.334V267.28C480.752 267.077 480.671 266.881 480.527 266.737C480.383 266.593 480.188 266.512 479.984 266.512H424.934Z" fill="#3F3D56"/>
<path d="M469.102 277.373H435.816C435.511 277.373 435.218 277.252 435.002 277.036C434.785 276.82 434.664 276.526 434.664 276.221C434.664 275.915 434.785 275.622 435.002 275.406C435.218 275.19 435.511 275.069 435.816 275.069H469.102C469.408 275.069 469.701 275.19 469.917 275.406C470.133 275.622 470.254 275.915 470.254 276.221C470.254 276.526 470.133 276.82 469.917 277.036C469.701 277.252 469.408 277.373 469.102 277.373Z" fill="#CCCCCC"/>
<path d="M469.102 285.311H435.816C435.511 285.311 435.218 285.189 435.002 284.973C434.785 284.757 434.664 284.464 434.664 284.158C434.664 283.853 434.785 283.56 435.002 283.344C435.218 283.127 435.511 283.006 435.816 283.006H469.102C469.408 283.006 469.701 283.127 469.917 283.344C470.133 283.56 470.254 283.853 470.254 284.158C470.254 284.464 470.133 284.757 469.917 284.973C469.701 285.189 469.408 285.311 469.102 285.311Z" fill="#CCCCCC"/>
<path d="M466.137 297.895C468.411 297.895 470.254 296.052 470.254 293.778C470.254 291.504 468.411 289.66 466.137 289.66C463.863 289.66 462.019 291.504 462.019 293.778C462.019 296.052 463.863 297.895 466.137 297.895Z" fill="#FFC940"/>
<path d="M466.25 291.838V291.446H466.366V291.838C466.531 291.845 466.692 291.885 466.841 291.954C466.949 292.005 467.043 292.083 467.112 292.18C467.176 292.27 467.211 292.378 467.21 292.488C467.213 292.569 467.185 292.648 467.134 292.71C467.112 292.739 467.083 292.762 467.051 292.777C467.018 292.793 466.983 292.801 466.947 292.801C466.92 292.801 466.893 292.796 466.868 292.786C466.844 292.776 466.821 292.761 466.802 292.741C466.783 292.722 466.768 292.699 466.757 292.674C466.747 292.649 466.742 292.622 466.743 292.594C466.743 292.556 466.751 292.518 466.766 292.483L466.813 292.385C466.829 292.344 466.837 292.3 466.836 292.256C466.837 292.188 466.815 292.121 466.774 292.066C466.729 292.009 466.668 291.967 466.598 291.944C466.523 291.919 466.445 291.904 466.366 291.897V293.309L466.392 293.325C466.635 293.453 466.855 293.619 467.045 293.818C467.129 293.917 467.196 294.03 467.242 294.152C467.289 294.27 467.313 294.395 467.313 294.522C467.316 294.686 467.273 294.848 467.19 294.989C467.108 295.127 466.989 295.239 466.846 295.312C466.695 295.386 466.533 295.433 466.366 295.451V295.872H466.25V295.459C466.082 295.458 465.915 295.424 465.76 295.358C465.605 295.301 465.468 295.203 465.363 295.075C465.272 294.96 465.222 294.816 465.223 294.669C465.22 294.566 465.251 294.464 465.313 294.381C465.338 294.346 465.37 294.316 465.408 294.296C465.447 294.275 465.489 294.265 465.533 294.264C465.559 294.263 465.584 294.268 465.609 294.277C465.633 294.287 465.655 294.301 465.673 294.319C465.692 294.338 465.706 294.36 465.715 294.384C465.725 294.408 465.73 294.434 465.729 294.46C465.72 294.539 465.687 294.614 465.633 294.674C465.605 294.71 465.582 294.75 465.562 294.792C465.549 294.825 465.542 294.86 465.543 294.895C465.543 294.989 465.576 295.08 465.634 295.154C465.699 295.236 465.784 295.3 465.881 295.338C465.992 295.381 466.11 295.402 466.229 295.4H466.25V293.714L466.103 293.629C465.964 293.548 465.857 293.481 465.784 293.428C465.713 293.376 465.647 293.317 465.587 293.252C465.438 293.094 465.356 292.886 465.357 292.669C465.356 292.534 465.39 292.401 465.455 292.283C465.519 292.165 465.612 292.066 465.726 291.995C465.885 291.9 466.065 291.846 466.25 291.838ZM466.25 291.895C466.15 291.898 466.052 291.92 465.96 291.959C465.868 292.005 465.792 292.078 465.744 292.168C465.688 292.266 465.66 292.377 465.662 292.49C465.66 292.627 465.703 292.762 465.782 292.874C465.824 292.935 465.875 292.989 465.933 293.036C466.026 293.106 466.123 293.169 466.224 293.227L466.25 293.242V291.895ZM466.366 295.395C466.433 295.389 466.498 295.375 466.561 295.353C466.613 295.333 466.66 295.306 466.703 295.271C466.782 295.203 466.844 295.116 466.883 295.019C466.927 294.912 466.95 294.796 466.949 294.68C466.939 294.493 466.88 294.312 466.778 294.155C466.675 293.998 466.533 293.871 466.366 293.787V295.395Z" fill="white"/>
<path d="M422.353 419.955H310.294C310.216 419.955 310.141 419.924 310.086 419.869C310.031 419.813 310 419.739 310 419.661C310 419.583 310.031 419.508 310.086 419.453C310.141 419.397 310.216 419.366 310.294 419.366H422.353C422.431 419.366 422.506 419.397 422.561 419.453C422.616 419.508 422.647 419.583 422.647 419.661C422.647 419.739 422.616 419.813 422.561 419.869C422.506 419.924 422.431 419.955 422.353 419.955Z" fill="#CACACA"/>
</g>
<g clip-path="url(#clip3_3_477)">
<path d="M42.1102 680.12L42.0953 679.835C42.0921 679.772 41.8139 673.519 45.7135 669.36C49.6132 665.2 56.3066 664.612 56.3736 664.607L56.6793 664.582L56.6942 664.867C56.6974 664.93 56.9755 671.183 53.076 675.342C49.1762 679.501 42.4829 680.09 42.4158 680.095L42.1102 680.12ZM46.1388 669.705C42.8417 673.222 42.6303 678.295 42.6319 679.563C43.9825 679.393 49.3567 678.51 52.6507 674.996C55.9442 671.484 56.1582 666.408 56.1575 665.138C54.8062 665.309 49.4325 666.192 46.1388 669.705Z" fill="#F0F0F0"/>
<path d="M289.038 547.455H126.532V624.567H289.038V547.455Z" fill="#E6E6E6"/>
<path d="M284.391 554.068H131.179V618.404H284.391V554.068Z" fill="#FFFBF0"/>
<path d="M288.968 543H126.463V549.904H288.968V543Z" fill="#FFC940"/>
<path d="M131.593 547.473C132.3 547.473 132.873 546.9 132.873 546.193C132.873 545.487 132.3 544.914 131.593 544.914C130.887 544.914 130.314 545.487 130.314 546.193C130.314 546.9 130.887 547.473 131.593 547.473Z" fill="white"/>
<path d="M136.45 547.473C137.157 547.473 137.73 546.9 137.73 546.193C137.73 545.487 137.157 544.914 136.45 544.914C135.744 544.914 135.171 545.487 135.171 546.193C135.171 546.9 135.744 547.473 136.45 547.473Z" fill="white"/>
<path d="M141.307 547.473C142.014 547.473 142.587 546.9 142.587 546.193C142.587 545.487 142.014 544.914 141.307 544.914C140.601 544.914 140.028 545.487 140.028 546.193C140.028 546.9 140.601 547.473 141.307 547.473Z" fill="white"/>
<path d="M189.085 579.724H156.6V607.393H189.085V579.724Z" fill="white"/>
<path d="M189.179 607.487H156.505V579.63H189.179V607.487ZM156.694 607.298H188.99V579.818H156.694V607.298Z" fill="#3F3D56"/>
<path d="M176.903 585.107H168.782V607.393H176.903V585.107Z" fill="#FFC940"/>
<path d="M176.903 585.107H168.782V607.393H176.903V585.107Z" fill="#FFC940"/>
<path opacity="0.2" d="M156.694 581.754V586.243L189.085 588.317L188.989 582.778L156.694 581.754Z" fill="black"/>
<path d="M190.973 577.174H154.711V585.107H190.973V577.174Z" fill="white"/>
<path d="M191.068 585.201H154.617V577.08H191.068V585.201ZM154.806 585.012H190.879V577.269H154.806L154.806 585.012Z" fill="#3F3D56"/>
<path d="M176.903 576.419H168.782V585.012H176.903V576.419Z" fill="#FFC940"/>
<path d="M171.973 568.926C174.117 572.104 172.097 577.215 172.097 577.215C172.097 577.215 166.601 577.174 164.457 573.996C162.314 570.818 164.334 565.707 164.334 565.707C164.334 565.707 169.829 565.748 171.973 568.926Z" fill="#FFC940"/>
<path d="M172.956 568.926C170.813 572.104 172.832 577.215 172.832 577.215C172.832 577.215 178.328 577.174 180.472 573.996C182.615 570.818 180.596 565.707 180.596 565.707C180.596 565.707 175.1 565.748 172.956 568.926Z" fill="#FFC940"/>
<path d="M167.176 571.319C167.646 571.319 168.026 570.939 168.026 570.469C168.026 570 167.646 569.62 167.176 569.62C166.707 569.62 166.326 570 166.326 570.469C166.326 570.939 166.707 571.319 167.176 571.319Z" fill="#3F3D56"/>
<path d="M172.276 579.913C172.745 579.913 173.126 579.532 173.126 579.063C173.126 578.594 172.745 578.213 172.276 578.213C171.806 578.213 171.426 578.594 171.426 579.063C171.426 579.532 171.806 579.913 172.276 579.913Z" fill="#3F3D56"/>
<path d="M172.276 598.516C172.745 598.516 173.126 598.136 173.126 597.666C173.126 597.197 172.745 596.816 172.276 596.816C171.806 596.816 171.426 597.197 171.426 597.666C171.426 598.136 171.806 598.516 172.276 598.516Z" fill="#3F3D56"/>
<path d="M169.443 574.152C169.756 574.152 170.009 573.899 170.009 573.586C170.009 573.273 169.756 573.019 169.443 573.019C169.13 573.019 168.876 573.273 168.876 573.586C168.876 573.899 169.13 574.152 169.443 574.152Z" fill="#3F3D56"/>
<path d="M177.942 569.336C178.255 569.336 178.508 569.083 178.508 568.77C178.508 568.457 178.255 568.203 177.942 568.203C177.629 568.203 177.375 568.457 177.375 568.77C177.375 569.083 177.629 569.336 177.942 569.336Z" fill="#3F3D56"/>
<path d="M174.259 582.651C174.572 582.651 174.826 582.398 174.826 582.085C174.826 581.772 174.572 581.518 174.259 581.518C173.946 581.518 173.692 581.772 173.692 582.085C173.692 582.398 173.946 582.651 174.259 582.651Z" fill="#3F3D56"/>
<path d="M170.859 590.017C171.172 590.017 171.426 589.763 171.426 589.451C171.426 589.138 171.172 588.884 170.859 588.884C170.546 588.884 170.293 589.138 170.293 589.451C170.293 589.763 170.546 590.017 170.859 590.017Z" fill="#3F3D56"/>
<path d="M173.787 592.567C174.1 592.567 174.353 592.313 174.353 592C174.353 591.687 174.1 591.434 173.787 591.434C173.474 591.434 173.22 591.687 173.22 592C173.22 592.313 173.474 592.567 173.787 592.567Z" fill="#3F3D56"/>
<path d="M173.126 603.238C173.438 603.238 173.692 602.984 173.692 602.671C173.692 602.358 173.438 602.105 173.126 602.105C172.813 602.105 172.559 602.358 172.559 602.671C172.559 602.984 172.813 603.238 173.126 603.238Z" fill="#3F3D56"/>
<path d="M257.971 592.754H209.764C209.162 592.754 208.585 592.515 208.159 592.089C207.733 591.663 207.494 591.086 207.494 590.483C207.494 589.881 207.733 589.304 208.159 588.878C208.585 588.452 209.162 588.213 209.764 588.213H257.971C258.573 588.213 259.151 588.452 259.577 588.878C260.003 589.304 260.242 589.881 260.242 590.483C260.242 591.086 260.003 591.663 259.577 592.089C259.151 592.515 258.573 592.754 257.971 592.754Z" fill="#FFC940"/>
<path d="M242.426 584.982H209.764C209.162 584.982 208.585 584.742 208.159 584.316C207.733 583.891 207.494 583.313 207.494 582.711C207.494 582.109 207.733 581.531 208.159 581.105C208.585 580.68 209.162 580.44 209.764 580.44H242.426C243.028 580.44 243.606 580.68 244.032 581.105C244.458 581.531 244.697 582.109 244.697 582.711C244.697 583.313 244.458 583.891 244.032 584.316C243.606 584.742 243.028 584.982 242.426 584.982Z" fill="#FFC940"/>
<path d="M254.669 607.487C256.278 606.085 258.873 604.761 260.964 603.986C258.873 603.21 256.278 601.886 254.669 600.483L255.803 603.617H249.922V604.354H255.803L254.669 607.487Z" fill="#3F3D56"/>
<path d="M101.735 614.992C101.423 614.775 101.068 614.629 100.694 614.564C100.32 614.499 99.9365 614.517 99.5703 614.617C99.204 614.716 98.8641 614.895 98.5743 615.14C98.2846 615.385 98.0521 615.691 97.8933 616.035L91.9655 615.807L90.9479 619.375L99.3236 619.58C99.9204 619.809 100.58 619.811 101.178 619.585C101.776 619.36 102.27 618.923 102.567 618.357C102.865 617.791 102.944 617.136 102.791 616.516C102.637 615.896 102.261 615.353 101.735 614.992H101.735Z" fill="#FFB6B6"/>
<path d="M96.9718 620.027L90.9298 620.785L90.1649 620.881L77.872 622.423C77.872 622.423 74.1 619.704 70.7457 616.832V613.834C70.7433 610.892 71.8098 608.05 73.7468 605.836C78.2867 608.038 81.4568 613.201 81.4568 613.201L89.3172 613.969L90.1035 614.046L94.9875 614.522L96.9718 620.027Z" fill="#232323"/>
<path d="M71.8562 644.099H83.222C83.222 644.586 95.6464 644.981 95.6464 644.981C95.9205 645.188 96.1703 645.424 96.391 645.687C97.0542 646.478 97.4167 647.478 97.4145 648.51V649.216C97.4141 650.386 96.9492 651.508 96.122 652.335C95.2949 653.162 94.1731 653.627 93.0033 653.627H71.8562C70.6866 653.626 69.5651 653.161 68.7381 652.334C67.911 651.507 67.4459 650.386 67.4449 649.216V648.51C67.4465 647.341 67.9118 646.22 68.7387 645.393C69.5657 644.566 70.6867 644.101 71.8562 644.099Z" fill="#3F3D56"/>
<path d="M84.7089 653.452H80.1212V679.933H84.7089V653.452Z" fill="#3F3D56"/>
<path d="M97.7663 679.771C97.7663 680.267 90.8144 679.963 82.2387 679.963C73.663 679.963 66.7111 680.267 66.7111 679.771C66.7111 679.276 73.663 675.345 82.2387 675.345C90.8144 675.345 97.7663 679.276 97.7663 679.771Z" fill="#3F3D56"/>
<path d="M100.848 676.746H104.262L105.887 663.576H100.848L100.848 676.746Z" fill="#FFB6B6"/>
<path d="M99.9772 675.631L106.701 675.631H106.702C107.838 675.631 108.928 676.082 109.732 676.886C110.535 677.689 110.987 678.779 110.987 679.916V680.055L99.9774 680.055L99.9772 675.631Z" fill="#2F2E41"/>
<path d="M110.939 676.746H114.354L115.978 663.576H110.939L110.939 676.746Z" fill="#FFB6B6"/>
<path d="M110.069 675.631L116.793 675.631H116.793C117.929 675.631 119.019 676.082 119.823 676.886C120.627 677.689 121.078 678.779 121.078 679.916V680.055L110.069 680.055L110.069 675.631Z" fill="#2F2E41"/>
<path d="M82.289 600.926C85.5678 600.926 88.2257 598.268 88.2257 594.99C88.2257 591.711 85.5678 589.053 82.289 589.053C79.0103 589.053 76.3524 591.711 76.3524 594.99C76.3524 598.268 79.0103 600.926 82.289 600.926Z" fill="#FFB6B6"/>
<path d="M82.9586 592.158C82.9586 592.158 85.0702 589.223 87.0372 592.16C89.0041 595.096 90.9493 591.534 90.4974 590.415C90.0454 589.296 90.1645 589.161 86.8878 587.708C83.6111 586.255 77.3117 583.333 75.4685 590.585C73.6253 597.837 77.3968 597.974 77.3968 597.974C77.3968 597.974 78.1663 590.927 79.0544 592.911L79.9425 594.895L80.8549 595.221L82.9586 592.158Z" fill="#2F2E41"/>
<path d="M70.7461 635.665C70.7461 635.665 68.7542 646.198 76.3331 647.54C83.9121 648.881 94.8524 649.824 94.8524 649.824L99.7654 672.746L106.366 672.156C106.366 672.156 105.488 644.563 103.329 642.404C101.17 640.246 87.5262 633.782 87.5262 633.782L70.7461 635.665Z" fill="#2F2E41"/>
<path d="M85.5483 631.251L88.863 634.576C88.863 634.576 112.797 638.431 113.72 643.959C115.114 652.305 116.761 670.454 116.761 670.454L109.565 669.914L106.743 649.284L95.2294 646.665L82.1302 639.526L85.5483 631.251Z" fill="#2F2E41"/>
<path d="M88.4478 634.089C88.4478 634.089 69.9593 641.332 70.3647 637.072C70.8347 632.135 70.7456 629.985 70.7456 629.985V613.834C70.7463 611.628 71.347 609.463 72.4832 607.571C73.6194 605.68 75.2485 604.133 77.1962 603.096L83.4378 603.2L85.3638 605.753C86.9119 613.509 87.2191 614.43 87.2191 614.43L88.5092 617.963L88.7795 620.171L87.8334 624.874L88.4478 634.089Z" fill="#232323"/>
<path d="M103.63 615.009L103.594 614.998L104.201 613.044C104.395 612.42 104.295 611.834 103.977 611.735L101.869 611.08C101.551 610.981 101.136 611.407 100.942 612.031L97.6112 622.746C97.4172 623.37 97.5177 623.957 97.8357 624.056L99.9435 624.711C100.261 624.81 100.677 624.384 100.871 623.759L103.162 616.388L103.198 616.399L103.63 615.009Z" fill="#FFC940"/>
<path d="M103.938 615.316L103.901 615.305L104.508 613.352C104.702 612.727 104.602 612.141 104.284 612.042L102.176 611.387C101.858 611.288 101.443 611.714 101.249 612.339L97.9185 623.053C97.7244 623.678 97.8249 624.264 98.1429 624.363L100.251 625.018C100.569 625.117 100.984 624.691 101.178 624.067L103.469 616.695L103.506 616.706L103.938 615.316Z" fill="#3F3D56"/>
<path d="M102.566 615.158C102.685 614.776 102.624 614.417 102.429 614.356C102.234 614.296 101.98 614.557 101.861 614.939C101.742 615.322 101.804 615.681 101.998 615.741C102.193 615.802 102.447 615.541 102.566 615.158Z" fill="#D0CDE1"/>
<path d="M103.077 619.599C102.766 619.382 102.41 619.236 102.036 619.172C101.662 619.107 101.279 619.125 100.913 619.224C100.546 619.324 100.206 619.502 99.9167 619.747C99.627 619.993 99.3945 620.298 99.2357 620.643L93.3079 620.414L92.2903 623.983L100.666 624.188C101.263 624.417 101.923 624.418 102.52 624.193C103.118 623.967 103.613 623.53 103.91 622.965C104.207 622.399 104.286 621.744 104.133 621.124C103.979 620.503 103.604 619.961 103.077 619.599H103.077Z" fill="#FFB6B6"/>
<path d="M98.3142 624.634L91.5072 625.488L79.2143 627.03C79.2143 627.03 74.3395 623.516 70.7457 620.257V613.834C70.7453 612.344 71.0191 610.867 71.5535 609.476C77.8936 609.823 82.799 617.809 82.799 617.809L90.6595 618.577L96.3299 619.13L98.3142 624.634Z" fill="#232323"/>
<path d="M149.339 680.472H32.3072C32.2257 680.472 32.1476 680.439 32.09 680.382C32.0324 680.324 32 680.246 32 680.164C32 680.083 32.0324 680.005 32.09 679.947C32.1476 679.89 32.2257 679.857 32.3072 679.857H149.339C149.42 679.857 149.498 679.89 149.556 679.947C149.614 680.005 149.646 680.083 149.646 680.164C149.646 680.246 149.614 680.324 149.556 680.382C149.498 680.439 149.42 680.472 149.339 680.472Z" fill="#CACACA"/>
</g>
<g clip-path="url(#clip4_3_477)">
<path d="M360.874 564.212C362.446 564.212 363.721 562.937 363.721 561.364C363.721 559.792 362.446 558.517 360.874 558.517C359.301 558.517 358.026 559.792 358.026 561.364C358.026 562.937 359.301 564.212 360.874 564.212Z" fill="#F0F0F0"/>
<path d="M477.617 573.176H476.804V550.895C476.804 549.202 476.47 547.525 475.822 545.961C475.174 544.396 474.224 542.974 473.027 541.777C471.83 540.58 470.408 539.63 468.843 538.982C467.279 538.334 465.602 538 463.909 538H416.704C413.284 538 410.004 539.359 407.585 541.777C405.167 544.195 403.808 547.475 403.808 550.895V673.129C403.808 676.549 405.167 679.829 407.585 682.248C410.004 684.666 413.284 686.025 416.704 686.025H463.908C467.329 686.025 470.609 684.666 473.027 682.248C475.445 679.829 476.804 676.549 476.804 673.129V589.036H477.617V573.176Z" fill="#3F3D56"/>
<path d="M474.06 550.986V673.04C474.06 673.219 474.055 673.395 474.044 673.571C473.909 676.03 472.837 678.343 471.048 680.036C469.259 681.728 466.89 682.671 464.428 682.67H416.997C414.529 682.671 412.154 681.723 410.365 680.023C408.575 678.323 407.507 676.001 407.381 673.536C407.372 673.373 407.368 673.208 407.368 673.04V550.986C407.367 548.431 408.382 545.982 410.188 544.176C411.993 542.369 414.443 541.354 416.997 541.354H422.753C422.469 542.049 422.361 542.802 422.438 543.549C422.514 544.295 422.773 545.011 423.191 545.634C423.61 546.257 424.175 546.767 424.837 547.12C425.499 547.473 426.237 547.658 426.988 547.658H454.031C454.782 547.658 455.52 547.473 456.182 547.12C456.844 546.767 457.409 546.257 457.828 545.634C458.246 545.011 458.505 544.295 458.581 543.549C458.658 542.802 458.55 542.049 458.266 541.354H464.428C466.982 541.354 469.432 542.369 471.238 544.175C473.044 545.982 474.059 548.431 474.06 550.986Z" fill="white"/>
<path d="M473.184 643.035H408.242C408.014 643.035 407.795 642.944 407.634 642.783C407.473 642.622 407.382 642.403 407.382 642.175V562.501C407.382 562.273 407.473 562.054 407.634 561.893C407.795 561.732 408.014 561.641 408.242 561.641H473.184C473.412 561.641 473.63 561.732 473.792 561.893C473.953 562.054 474.044 562.273 474.044 562.501V642.175C474.044 642.403 473.953 642.622 473.792 642.783C473.63 642.944 473.412 643.035 473.184 643.035Z" fill="#F0F0F0"/>
<path d="M468.417 567.2H413.141C412.913 567.2 412.694 567.291 412.533 567.452C412.371 567.614 412.281 567.833 412.28 568.061V625.63C412.281 625.858 412.372 626.076 412.533 626.237C412.695 626.398 412.913 626.488 413.141 626.488H468.417C468.645 626.488 468.864 626.398 469.025 626.237C469.187 626.076 469.278 625.858 469.278 625.63V568.061C469.278 567.833 469.187 567.614 469.026 567.452C468.865 567.291 468.646 567.2 468.417 567.2Z" fill="#FFFBF0"/>
<path d="M412.182 558.739C413.414 558.739 414.412 557.741 414.412 556.509C414.412 555.278 413.414 554.279 412.182 554.279C410.951 554.279 409.952 555.278 409.952 556.509C409.952 557.741 410.951 558.739 412.182 558.739Z" fill="#FFC940"/>
<path d="M416.363 631.873C415.946 631.454 415.38 631.217 414.788 631.216C414.197 631.214 413.63 631.448 413.211 631.865C412.791 632.282 412.555 632.848 412.554 633.439C412.552 634.031 412.786 634.598 413.203 635.017L413.21 635.025L416.363 638.177L419.516 635.025C419.932 634.606 420.165 634.04 420.164 633.45C420.164 632.86 419.929 632.294 419.511 631.877C419.094 631.459 418.528 631.224 417.938 631.224C417.348 631.223 416.781 631.456 416.363 631.873V631.873Z" fill="#FF6D6D"/>
<path d="M426.175 631.873C425.758 631.454 425.192 631.217 424.601 631.216C424.009 631.214 423.442 631.448 423.023 631.865C422.604 632.282 422.367 632.848 422.366 633.439C422.364 634.031 422.598 634.598 423.015 635.017L423.022 635.025L426.175 638.177L429.328 635.025C429.744 634.606 429.977 634.04 429.977 633.45C429.976 632.86 429.741 632.294 429.324 631.877C428.906 631.459 428.34 631.224 427.75 631.224C427.16 631.223 426.594 631.456 426.175 631.873V631.873Z" fill="#FF6D6D"/>
<path d="M435.987 631.873C435.57 631.454 435.004 631.217 434.413 631.216C433.822 631.214 433.254 631.448 432.835 631.865C432.416 632.282 432.179 632.848 432.178 633.439C432.177 634.031 432.41 634.598 432.827 635.017L432.835 635.025L435.987 638.177L439.14 635.025C439.556 634.606 439.79 634.04 439.789 633.45C439.788 632.86 439.553 632.294 439.136 631.877C438.718 631.459 438.153 631.224 437.562 631.224C436.972 631.223 436.406 631.456 435.987 631.873V631.873Z" fill="#FF6D6D"/>
<path d="M453.32 558.258H421.873C421.646 558.259 421.422 558.214 421.213 558.128C421.004 558.041 420.815 557.915 420.655 557.755C420.495 557.595 420.368 557.405 420.281 557.196C420.194 556.988 420.15 556.764 420.15 556.537C420.15 556.311 420.194 556.087 420.281 555.878C420.368 555.67 420.495 555.48 420.655 555.32C420.815 555.16 421.004 555.033 421.213 554.947C421.422 554.861 421.646 554.816 421.873 554.817H453.32C453.546 554.816 453.77 554.861 453.979 554.947C454.188 555.033 454.378 555.16 454.538 555.32C454.698 555.48 454.825 555.67 454.911 555.878C454.998 556.087 455.042 556.311 455.042 556.537C455.042 556.764 454.998 556.988 454.911 557.196C454.825 557.405 454.698 557.595 454.538 557.755C454.378 557.915 454.188 558.041 453.979 558.128C453.77 558.214 453.546 558.259 453.32 558.258Z" fill="#FFC940"/>
<path d="M473.183 657.979H408.242C408.014 657.979 407.795 658.07 407.633 658.231C407.472 658.392 407.381 658.611 407.381 658.84V673.536C407.507 676.001 408.575 678.323 410.365 680.023C412.154 681.723 414.529 682.671 416.997 682.67H464.428C466.89 682.671 469.259 681.728 471.048 680.036C472.837 678.343 473.909 676.03 474.044 673.571V658.84C474.044 658.611 473.953 658.392 473.792 658.231C473.63 658.07 473.411 657.979 473.183 657.979Z" fill="#F0F0F0"/>
<path d="M468.417 663.538H413.141C412.913 663.538 412.694 663.629 412.533 663.79C412.371 663.952 412.281 664.171 412.28 664.399V681.437C413.72 682.248 415.345 682.672 416.997 682.67H464.428C466.132 682.672 467.807 682.22 469.278 681.361V664.399C469.278 664.171 469.187 663.952 469.026 663.79C468.865 663.629 468.646 663.538 468.417 663.538Z" fill="white"/>
<path d="M412.182 655.077C413.414 655.077 414.412 654.079 414.412 652.847C414.412 651.616 413.414 650.617 412.182 650.617C410.951 650.617 409.952 651.616 409.952 652.847C409.952 654.079 410.951 655.077 412.182 655.077Z" fill="#E4E4E4"/>
<path d="M453.32 654.596H421.873C421.646 654.597 421.422 654.552 421.213 654.466C421.004 654.38 420.815 654.253 420.655 654.093C420.495 653.933 420.368 653.743 420.281 653.534C420.194 653.326 420.15 653.102 420.15 652.876C420.15 652.649 420.194 652.425 420.281 652.217C420.368 652.008 420.495 651.818 420.655 651.658C420.815 651.498 421.004 651.372 421.213 651.285C421.422 651.199 421.646 651.154 421.873 651.155H453.32C453.546 651.154 453.77 651.199 453.979 651.285C454.188 651.372 454.378 651.498 454.538 651.658C454.698 651.818 454.825 652.008 454.911 652.217C454.998 652.425 455.042 652.649 455.042 652.876C455.042 653.102 454.998 653.326 454.911 653.534C454.825 653.743 454.698 653.933 454.538 654.093C454.378 654.253 454.188 654.38 453.979 654.466C453.77 654.552 453.546 654.597 453.32 654.596Z" fill="#E4E4E4"/>
<path d="M435.544 682.67H419.205C420.868 679.396 423.939 676.729 427.559 676.588C428.104 676.568 428.65 676.609 429.186 676.709C429.412 676.749 429.632 676.803 429.853 676.861C431.242 677.218 432.506 677.948 433.509 678.972C434.512 679.996 435.216 681.274 435.544 682.67Z" fill="#F2F2F2"/>
<path d="M461.678 682.67H439.491C439.832 681.652 440.122 680.617 440.359 679.57C441.356 675.264 442.37 670.429 446.048 667.981C448.095 666.616 450.586 666.393 452.948 666.995C453.019 667.013 453.093 667.033 453.164 667.055C455.949 667.828 458.34 669.624 459.858 672.084C461.738 675.237 462.158 678.988 461.678 682.67Z" fill="#F2F2F2"/>
<path d="M430.083 680.041C430.072 680.922 429.994 681.801 429.849 682.67H429.211C429.546 680.696 429.538 678.68 429.186 676.709C429.412 676.749 429.632 676.803 429.853 676.861C430.022 677.912 430.099 678.976 430.083 680.041Z" fill="white"/>
<path d="M453.246 667.26C453.249 667.742 453.246 668.226 453.233 668.71C453.135 672.733 452.535 676.728 451.449 680.603C451.257 681.294 451.05 681.983 450.827 682.67H450.171C450.573 681.448 450.923 680.21 451.226 678.97C452.164 675.164 452.631 671.258 452.617 667.338C452.618 667.25 452.652 667.165 452.714 667.101C452.775 667.037 452.859 666.999 452.947 666.995C453.025 666.986 453.102 667.008 453.164 667.055C453.193 667.08 453.215 667.112 453.229 667.148C453.244 667.183 453.25 667.222 453.246 667.26Z" fill="white"/>
<path d="M465.024 671.371C465.763 671.371 466.362 670.772 466.362 670.033C466.362 669.294 465.763 668.695 465.024 668.695C464.285 668.695 463.686 669.294 463.686 670.033C463.686 670.772 464.285 671.371 465.024 671.371Z" fill="#F2F2F2"/>
<path d="M432.952 573.725C433.691 573.725 434.29 573.126 434.29 572.387C434.29 571.648 433.691 571.049 432.952 571.049C432.213 571.049 431.614 571.648 431.614 572.387C431.614 573.126 432.213 573.725 432.952 573.725Z" fill="#FFC940"/>
<path d="M457.705 581.53C458.444 581.53 459.043 580.931 459.043 580.192C459.043 579.453 458.444 578.854 457.705 578.854C456.966 578.854 456.367 579.453 456.367 580.192C456.367 580.931 456.966 581.53 457.705 581.53Z" fill="#FFC940"/>
<path d="M457.036 608.737C457.775 608.737 458.374 608.138 458.374 607.399C458.374 606.66 457.775 606.061 457.036 606.061C456.297 606.061 455.698 606.66 455.698 607.399C455.698 608.138 456.297 608.737 457.036 608.737Z" fill="#FFC940"/>
<path d="M451.115 621.488L450.209 618.589C450.053 617.915 449.856 617.25 449.618 616.6C448.597 613.514 446.353 607.29 443.711 600.787L440.602 597.678L439.741 597.116L438.927 596.588L438.577 596.911L435.239 599.993L435.214 600.196L433.033 618.732C433.033 618.732 433.027 618.783 433.015 618.884C432.991 619.1 432.94 619.542 432.873 620.173C432.746 621.359 432.54 623.431 432.337 626.042H452.535L451.115 621.488Z" fill="#3F3D56"/>
<path opacity="0.2" d="M436.801 608.305L435.954 613.593L441.69 615.96L436.801 608.305Z" fill="black"/>
<path d="M447.071 584.641C446.029 583.503 444.667 582.706 443.164 582.355C441.661 582.005 440.087 582.116 438.648 582.675C437.209 583.235 435.973 584.216 435.102 585.49C434.23 586.764 433.764 588.272 433.765 589.815V595.531C433.765 595.804 433.873 596.066 434.067 596.259C434.26 596.452 434.522 596.561 434.795 596.561H448.057C448.33 596.56 448.591 596.452 448.784 596.258C448.977 596.065 449.085 595.804 449.085 595.531V589.815C449.086 587.899 448.367 586.053 447.071 584.641Z" fill="#2F2E41"/>
<path d="M442.89 596.216C445.991 596.216 448.506 593.701 448.506 590.6C448.506 587.498 445.991 584.984 442.89 584.984C439.788 584.984 437.274 587.498 437.274 590.6C437.274 593.701 439.788 596.216 442.89 596.216Z" fill="#FFB8B8"/>
<path d="M447.071 584.641C446.361 584.358 445.604 584.212 444.839 584.213H443.695C442.732 584.213 441.782 584.444 440.926 584.885C440.07 585.326 439.331 585.965 438.771 586.749C438.733 586.798 438.7 586.849 438.666 586.898C437.993 587.895 437.634 589.07 437.636 590.272V590.386H440.051L440.876 588.078L441.041 590.386H442.29L442.705 589.222L442.788 590.386C445.399 591.351 448.108 591.289 450.898 590.386V590.272C450.897 589.059 450.532 587.873 449.849 586.869C449.167 585.866 448.199 585.089 447.071 584.641Z" fill="#2F2E41"/>
<path d="M443.651 596.164C443.646 596.151 443.64 596.138 443.633 596.126C442.877 594.686 441.929 592.48 441.875 590.386C441.844 589.135 442.134 587.922 442.977 586.938L443.138 586.749H436.601V596.563L438.577 596.911L439.741 597.116L442.54 597.611C442.6 597.622 442.662 597.627 442.723 597.627C442.885 597.627 443.044 597.588 443.189 597.515C443.333 597.441 443.457 597.334 443.552 597.203C443.69 597.018 443.759 596.791 443.749 596.561C443.744 596.423 443.711 596.288 443.651 596.164Z" fill="#2F2E41"/>
<path opacity="0.2" d="M433.17 618.474C434.664 620.205 436.692 621.39 438.933 621.843C441.174 622.296 443.503 621.991 445.552 620.977L446.775 620.372L433.17 618.474Z" fill="black"/>
<path d="M496.504 635.384C496.522 634.999 496.625 634.622 496.804 634.28C496.984 633.939 497.236 633.641 497.544 633.407C497.851 633.174 498.206 633.01 498.583 632.929C498.96 632.847 499.351 632.849 499.727 632.935L503.218 628.015L506.726 629.407L501.698 636.286C501.512 636.909 501.104 637.442 500.552 637.784C499.999 638.126 499.34 638.254 498.7 638.142C498.06 638.031 497.483 637.689 497.078 637.181C496.673 636.672 496.469 636.033 496.504 635.384H496.504Z" fill="#A0616A"/>
<path d="M500.334 631.153L506.541 620.713L504.012 613.969L507.457 604.783L507.584 604.838C507.667 604.873 509.624 605.747 509.914 608.874L513.872 621.315L503.308 635.02L500.334 631.153Z" fill="#3F3D56"/>
<path d="M466.62 592.772C467.003 592.82 467.371 592.951 467.698 593.157C468.024 593.362 468.302 593.637 468.511 593.961C468.72 594.286 468.856 594.652 468.908 595.034C468.96 595.417 468.928 595.806 468.813 596.175L473.449 600.036L471.789 603.425L465.319 597.88C464.713 597.647 464.213 597.199 463.915 596.622C463.616 596.045 463.54 595.378 463.701 594.748C463.861 594.119 464.247 593.57 464.785 593.205C465.323 592.841 465.976 592.687 466.62 592.772L466.62 592.772Z" fill="#A0616A"/>
<path d="M470.543 596.917L480.472 603.913L487.391 601.913L496.283 606.058L496.219 606.18C496.177 606.26 495.155 608.144 492.014 608.192L479.305 611.176L466.458 599.584L470.543 596.917Z" fill="#3F3D56"/>
<path d="M488.711 681.993L485.259 681.993L483.617 668.679L488.712 668.679L488.711 681.993Z" fill="#A0616A"/>
<path d="M481.751 681.007H489.451V685.198H478.602V684.156C478.602 683.321 478.934 682.52 479.524 681.929C480.115 681.339 480.916 681.007 481.751 681.007Z" fill="#2F2E41"/>
<path d="M502.507 681.993L499.055 681.993L497.413 668.679L502.508 668.679L502.507 681.993Z" fill="#A0616A"/>
<path d="M495.547 681.007H503.247V685.198H492.398V684.156C492.398 683.321 492.73 682.52 493.321 681.929C493.911 681.339 494.712 681.007 495.547 681.007Z" fill="#2F2E41"/>
<path d="M503.735 633.396L503.453 653.105L503.172 679.007L496.977 678.444L493.88 642.687L489.939 678.444H483.544L482.9 642.405L485.152 634.522L503.735 633.396Z" fill="#2F2E41"/>
<path d="M484.535 634.642L483.591 634.601L487.974 610.456L486.18 603.157C486.086 602.778 486.136 602.377 486.318 602.031C486.501 601.685 486.803 601.418 487.17 601.281L490.399 600.07L491.539 596.933L500.54 597.903L500.761 600.355C501.737 600.668 509.768 603.342 509.214 606.39C508.667 609.398 505.438 618.863 505.274 619.343L504.708 632.916L504.638 632.951C504.555 632.992 498.351 636.043 491.611 636.042C489.238 636.042 486.797 635.664 484.535 634.642Z" fill="#3F3D56"/>
<path d="M501.373 592.008C503.09 588.868 501.936 584.931 498.795 583.214C495.655 581.497 491.717 582.651 490.001 585.792C488.284 588.932 489.438 592.87 492.578 594.586C495.719 596.303 499.656 595.149 501.373 592.008Z" fill="#A0616A"/>
<path d="M500.936 595.173C499.701 596.489 497.407 595.783 497.247 593.985C497.234 593.846 497.235 593.705 497.249 593.566C497.332 592.77 497.792 592.047 497.682 591.207C497.657 590.997 497.579 590.798 497.456 590.627C496.472 589.31 494.161 591.217 493.232 590.024C492.663 589.292 493.332 588.141 492.895 587.323C492.319 586.244 490.61 586.776 489.539 586.185C488.347 585.528 488.418 583.699 489.203 582.586C490.16 581.229 491.837 580.505 493.494 580.401C495.152 580.297 496.797 580.745 498.344 581.348C500.102 582.033 501.845 582.979 502.926 584.525C504.242 586.404 504.368 588.931 503.711 591.129C503.31 592.466 501.945 594.099 500.936 595.173Z" fill="#2F2E41"/>
<path d="M539.777 685.629H350.223C350.164 685.629 350.107 685.606 350.065 685.564C350.023 685.522 350 685.465 350 685.406C350 685.347 350.023 685.29 350.065 685.248C350.107 685.207 350.164 685.183 350.223 685.183H539.777C539.836 685.183 539.893 685.207 539.935 685.248C539.977 685.29 540 685.347 540 685.406C540 685.465 539.977 685.522 539.935 685.564C539.893 685.606 539.836 685.629 539.777 685.629Z" fill="#3F3D56"/>
<path d="M453.922 620.967H450.449C450.337 620.967 450.23 620.926 450.147 620.851C450.065 620.776 450.013 620.673 450.003 620.562L449.307 613.437H455.063L454.368 620.562C454.357 620.673 454.306 620.776 454.223 620.851C454.141 620.926 454.033 620.967 453.922 620.967Z" fill="#FFC940"/>
<path d="M455.054 614.333H449.317C449.198 614.333 449.084 614.286 449 614.202C448.916 614.118 448.868 614.004 448.868 613.885V612.809C448.868 612.691 448.916 612.577 449 612.493C449.084 612.409 449.198 612.361 449.317 612.361H455.054C455.173 612.361 455.286 612.409 455.37 612.493C455.454 612.577 455.502 612.691 455.502 612.809V613.885C455.502 614.004 455.454 614.118 455.37 614.202C455.286 614.286 455.173 614.333 455.054 614.333Z" fill="#3F3D56"/>
<path d="M452.712 617.182C452.461 616.9 452.152 616.677 451.806 616.528C451.46 616.379 451.085 616.308 450.709 616.319C450.332 616.33 449.963 616.424 449.626 616.594C449.29 616.763 448.995 617.005 448.762 617.301L443.091 615.709L441.284 618.919L449.323 621.054C449.846 621.413 450.483 621.567 451.112 621.488C451.741 621.408 452.32 621.101 452.737 620.623C453.155 620.146 453.383 619.532 453.378 618.898C453.374 618.263 453.137 617.653 452.712 617.182Z" fill="#FFB8B8"/>
<path d="M443.492 615.441L440.801 613.726L440.033 613.364L436.566 611.73C436.668 611.377 436.963 610.325 437.241 608.991C437.893 605.871 438.448 601.213 436.207 600.397C435.889 600.277 435.554 600.209 435.214 600.196C434.76 600.179 434.309 600.282 433.907 600.495C432.228 601.371 431.561 603.838 431.537 603.929L429.461 609.627C429.269 609.89 427.295 612.624 427.614 614.649C427.654 614.94 427.754 615.219 427.908 615.469C428.061 615.72 428.265 615.935 428.506 616.103C429.943 617.133 431.45 618.062 433.015 618.884C433.379 619.071 433.734 619.244 434.081 619.403C436.026 620.291 437.741 620.744 439.181 620.744C439.652 620.747 440.122 620.693 440.58 620.581L446.175 620.454L446.211 620.293L446.224 620.231L446.967 616.796L447.176 615.824L443.492 615.441Z" fill="#3F3D56"/>
</g>
<defs>
<clipPath id="clip0_3_477">
<rect width="139" height="139" fill="white" transform="translate(228)"/>
</clipPath>
<clipPath id="clip1_3_477">
<rect width="201.629" height="179.284" fill="white" transform="translate(46 254)"/>
</clipPath>
<clipPath id="clip2_3_477">
<rect width="247" height="153.955" fill="white" transform="translate(310 266)"/>
</clipPath>
<clipPath id="clip3_3_477">
<rect width="257.038" height="137.472" fill="white" transform="translate(32 543)"/>
</clipPath>
<clipPath id="clip4_3_477">
<rect width="190" height="148.025" fill="white" transform="translate(350 538)"/>
</clipPath>
</defs>
</svg>
