<svg width="245" height="211" viewBox="0 0 245 211" fill="none" xmlns="http://www.w3.org/2000/svg">
<path d="M188.725 105.066C188.725 141.817 158.932 171.61 122.181 171.61C85.43 171.61 55.6372 141.817 55.6372 105.066C55.6372 68.3148 85.43 38.522 122.181 38.522C158.932 38.522 188.725 68.3148 188.725 105.066ZM122.181 208.632C179.379 208.632 225.747 162.264 225.747 105.066C225.747 47.8681 179.379 1.5 122.181 1.5C64.9833 1.5 18.6152 47.8681 18.6152 105.066C18.6152 162.264 64.9833 208.632 122.181 208.632Z" fill="#6564B2" stroke="#434379" stroke-width="3"/>
<rect x="1.60403" y="83.72" width="241.154" height="48.3627" fill="#25358A" stroke="#1F212F" stroke-width="3"/>
<path d="M101.967 119.424L109.254 98.9253H114.258L121.558 119.424H116.767L115.25 115.057H108.332L106.787 119.424H101.967ZM109.381 110.904H114.144L111.777 103.561L109.381 110.904ZM140.721 119.424H135.76L132.598 111.939H129.083V119.424H124.249V98.9253H133.222C134.933 98.9253 136.317 99.2041 137.376 99.7617C138.434 100.31 139.209 101.066 139.701 102.03C140.192 102.984 140.438 104.071 140.438 105.29C140.438 106.358 140.286 107.265 139.984 108.012C139.682 108.749 139.271 109.373 138.751 109.883C138.24 110.384 137.664 110.809 137.021 111.159L140.721 119.424ZM132.556 108.296C133.463 108.296 134.191 108.007 134.739 107.431C135.297 106.854 135.575 106.169 135.575 105.375C135.575 104.544 135.292 103.863 134.725 103.334C134.158 102.805 133.482 102.54 132.698 102.54H129.083V108.296H132.556Z" fill="white"/>
<path d="M101.967 119.424L101.025 119.089L100.551 120.424H101.967V119.424ZM109.254 98.9253V97.9253H108.548L108.311 98.5904L109.254 98.9253ZM114.258 98.9253L115.2 98.5898L114.963 97.9253H114.258V98.9253ZM121.558 119.424V120.424H122.976L122.5 119.088L121.558 119.424ZM116.767 119.424L115.822 119.752L116.056 120.424H116.767V119.424ZM115.25 115.057L116.195 114.729L115.961 114.057H115.25V115.057ZM108.332 115.057V114.057H107.625L107.39 114.724L108.332 115.057ZM106.787 119.424V120.424H107.494L107.73 119.757L106.787 119.424ZM109.381 110.904L108.431 110.594L108.003 111.904H109.381V110.904ZM114.144 110.904V111.904H115.517L115.096 110.597L114.144 110.904ZM111.777 103.561L112.729 103.254L111.783 100.319L110.826 103.251L111.777 103.561ZM102.91 119.759L110.196 99.2603L108.311 98.5904L101.025 119.089L102.91 119.759ZM109.254 99.9253H114.258V97.9253H109.254V99.9253ZM113.316 99.2608L120.616 119.759L122.5 119.088L115.2 98.5898L113.316 99.2608ZM121.558 118.424H116.767V120.424H121.558V118.424ZM117.712 119.095L116.195 114.729L114.305 115.386L115.822 119.752L117.712 119.095ZM115.25 114.057H108.332V116.057H115.25V114.057ZM107.39 114.724L105.844 119.09L107.73 119.757L109.275 115.391L107.39 114.724ZM106.787 118.424H101.967V120.424H106.787V118.424ZM109.381 111.904H114.144V109.904H109.381V111.904ZM115.096 110.597L112.729 103.254L110.825 103.868L113.193 111.211L115.096 110.597ZM110.826 103.251L108.431 110.594L110.332 111.214L112.728 103.871L110.826 103.251ZM140.721 119.424V120.424H142.265L141.634 119.015L140.721 119.424ZM135.76 119.424L134.838 119.813L135.096 120.424H135.76V119.424ZM132.598 111.939L133.52 111.55L133.262 110.939H132.598V111.939ZM129.083 111.939V110.939H128.083V111.939H129.083ZM129.083 119.424V120.424H130.083V119.424H129.083ZM124.249 119.424H123.249V120.424H124.249V119.424ZM124.249 98.9253V97.9253H123.249V98.9253H124.249ZM137.376 99.7617L136.91 100.646L136.916 100.65L137.376 99.7617ZM139.701 102.03L138.81 102.484L138.811 102.488L139.701 102.03ZM139.984 108.012L140.909 108.392L140.911 108.387L139.984 108.012ZM138.751 109.883L139.451 110.597L139.451 110.597L138.751 109.883ZM137.021 111.159L136.543 110.281L135.73 110.723L136.109 111.568L137.021 111.159ZM134.739 107.431L134.02 106.736L134.014 106.742L134.739 107.431ZM134.725 103.334L135.407 102.603V102.603L134.725 103.334ZM129.083 102.54V101.54H128.083V102.54H129.083ZM129.083 108.296H128.083V109.296H129.083V108.296ZM140.721 118.424H135.76V120.424H140.721V118.424ZM136.681 119.035L133.52 111.55L131.677 112.328L134.838 119.813L136.681 119.035ZM132.598 110.939H129.083V112.939H132.598V110.939ZM128.083 111.939V119.424H130.083V111.939H128.083ZM129.083 118.424H124.249V120.424H129.083V118.424ZM125.249 119.424V98.9253H123.249V119.424H125.249ZM124.249 99.9253H133.222V97.9253H124.249V99.9253ZM133.222 99.9253C134.836 99.9253 136.043 100.19 136.91 100.646L137.842 98.8769C136.591 98.2182 135.03 97.9253 133.222 97.9253V99.9253ZM136.916 100.65C137.809 101.112 138.423 101.725 138.81 102.484L140.591 101.576C139.996 100.407 139.06 99.5076 137.836 98.8737L136.916 100.65ZM138.811 102.488C139.221 103.282 139.438 104.209 139.438 105.29H141.438C141.438 103.934 141.163 102.686 140.59 101.572L138.811 102.488ZM139.438 105.29C139.438 106.269 139.298 107.041 139.057 107.637L140.911 108.387C141.275 107.49 141.438 106.447 141.438 105.29H139.438ZM139.059 107.632C138.803 108.256 138.465 108.763 138.05 109.17L139.451 110.597C140.077 109.983 140.56 109.242 140.909 108.392L139.059 107.632ZM138.05 109.17C137.608 109.604 137.106 109.974 136.543 110.281L137.499 112.037C138.221 111.645 138.873 111.164 139.451 110.597L138.05 109.17ZM136.109 111.568L139.809 119.832L141.634 119.015L137.934 110.75L136.109 111.568ZM132.556 109.296C133.695 109.296 134.7 108.924 135.464 108.12L134.014 106.742C133.682 107.091 133.231 107.296 132.556 107.296V109.296ZM135.458 108.126C136.194 107.365 136.575 106.432 136.575 105.375H134.575C134.575 105.907 134.4 106.343 134.02 106.736L135.458 108.126ZM136.575 105.375C136.575 104.289 136.193 103.336 135.407 102.603L134.043 104.065C134.391 104.39 134.575 104.798 134.575 105.375H136.575ZM135.407 102.603C134.653 101.899 133.732 101.54 132.698 101.54V103.54C133.232 103.54 133.663 103.711 134.043 104.065L135.407 102.603ZM132.698 101.54H129.083V103.54H132.698V101.54ZM128.083 102.54V108.296H130.083V102.54H128.083ZM129.083 109.296H132.556V107.296H129.083V109.296Z" fill="#464646"/>
</svg>
