<svg width="177" height="177" viewBox="0 0 177 177" fill="none" xmlns="http://www.w3.org/2000/svg">
<rect x="24.1582" y="93.6328" width="27.5391" height="49.5703" fill="#595959"/>
<rect x="123.299" y="93.6328" width="33.0469" height="49.5703" fill="#595959"/>
<path d="M156.001 93.6327H133.97C131.049 93.6327 128.247 94.7933 126.181 96.8591C124.115 98.925 122.955 101.727 122.955 104.648V132.187C122.955 135.109 124.115 137.911 126.181 139.977C128.247 142.042 131.049 143.203 133.97 143.203H144.986C147.907 143.203 150.709 142.042 152.775 139.977C154.841 137.911 156.001 135.109 156.001 132.187V93.6327ZM156.001 93.6327C156.002 84.9066 154.274 76.2669 150.918 68.2119C147.562 60.1569 142.645 52.8462 136.449 46.7016C130.253 40.557 122.902 35.7 114.819 32.4111C106.737 29.1221 98.0827 27.4663 89.3569 27.539C80.6369 27.4754 71.9905 29.138 63.9159 32.4311C55.8414 35.7241 48.4982 40.5825 42.3097 46.7262C36.1212 52.8699 31.2097 60.1775 27.858 68.2279C24.5064 76.2784 22.781 84.9125 22.7813 93.6327V132.187C22.7813 135.109 23.9418 137.911 26.0077 139.977C28.0735 142.042 30.8753 143.203 33.7969 143.203H44.8125C47.734 143.203 50.5359 142.042 52.6017 139.977C54.6676 137.911 55.8281 135.109 55.8281 132.187V104.648C55.8281 101.727 54.6676 98.925 52.6017 96.8591C50.5359 94.7933 47.734 93.6327 44.8125 93.6327H22.7813" stroke="#484848" stroke-width="11.0156" stroke-linecap="round" stroke-linejoin="round"/>
</svg>
