<svg width="2504" height="2504" viewBox="0 0 2504 2504" fill="none" xmlns="http://www.w3.org/2000/svg">
<rect x="12" y="12" width="2480" height="2480" rx="181.957" fill="#F8F2E9" stroke="#D9D2C7" stroke-width="23"/>
<g clip-path="url(#clip0_158_1405)">
<mask id="path-2-inside-1_158_1405" fill="white">
<path d="M1741.09 1448.74C1739.27 1441.52 1738.37 1433.84 1738.37 1425.68C1738.37 1395.18 1752.14 1368.64 1779.69 1346.05C1807.24 1323.47 1863.58 1295.74 1948.71 1262.88V1237.69C1948.71 1211.21 1945.34 1192.23 1938.6 1180.76C1931.86 1169.29 1920.81 1163.56 1905.44 1163.56C1892.9 1163.56 1882.5 1167.28 1874.22 1174.73C1865.95 1182.18 1861.81 1191.46 1861.81 1202.58C1861.81 1208.49 1862.04 1215.4 1862.52 1223.33C1862.99 1231.25 1863.23 1236.27 1863.23 1238.4C1863.23 1255.66 1858.44 1269.55 1848.86 1280.08C1839.28 1290.6 1826.57 1295.86 1810.73 1295.86C1796.31 1295.86 1784.72 1291.31 1775.97 1282.21C1767.22 1273.1 1762.84 1261.1 1762.84 1246.2C1762.84 1214.04 1778.1 1187.38 1808.6 1166.22C1839.11 1145.05 1878.36 1134.47 1926.36 1134.47C1953.32 1134.47 1977.74 1137.9 1999.61 1144.76C2021.48 1151.62 2039.39 1161.55 2053.35 1174.55C2064.7 1185.19 2072.74 1197.61 2077.47 1211.8C2082.2 1225.98 2084.56 1247.39 2084.56 1276V1377.09C2084.56 1405.23 2086.75 1425.21 2091.12 1437.03C2095.5 1448.86 2102.53 1454.77 2112.23 1454.77C2114.36 1454.77 2116.48 1454.3 2118.61 1453.35C2120.74 1452.4 2122.99 1450.99 2125.35 1449.09V1472.15C2115.89 1484.21 2103.66 1493.55 2088.64 1500.17C2073.62 1506.79 2057.01 1510.1 2038.8 1510.1C2017.99 1510.1 2000.56 1505.26 1986.48 1495.56C1972.41 1485.86 1962.07 1471.56 1955.45 1452.64C1937.48 1473.22 1918.62 1488.53 1898.87 1498.58C1879.13 1508.62 1858.26 1513.65 1836.27 1513.65C1807.18 1513.65 1783.59 1505.43 1765.5 1489C1759.47 1483.52 1754.44 1477.51 1750.41 1470.98C1736.18 1482.16 1713.24 1495.07 1701.66 1500.17C1686.64 1506.79 1670.03 1510.1 1651.82 1510.1C1631.01 1510.1 1613.57 1505.26 1599.5 1495.56C1585.43 1485.86 1575.09 1471.56 1568.47 1452.64C1550.49 1473.22 1531.64 1488.53 1511.89 1498.58C1492.15 1508.62 1471.28 1513.65 1449.29 1513.65C1420.2 1513.65 1396.61 1505.43 1378.52 1489C1360.43 1472.56 1351.39 1451.46 1351.39 1425.68C1351.39 1395.18 1365.16 1368.64 1392.71 1346.05C1420.26 1323.47 1476.6 1295.74 1561.73 1262.88V1237.69C1561.73 1211.21 1558.36 1192.23 1551.62 1180.76C1544.88 1169.29 1533.82 1163.56 1518.45 1163.56C1505.92 1163.56 1495.52 1167.28 1487.24 1174.73C1478.96 1182.18 1474.82 1191.46 1474.82 1202.58C1474.82 1208.49 1475.06 1215.4 1475.53 1223.33C1476.01 1231.25 1476.24 1236.27 1476.24 1238.4C1476.24 1255.66 1471.46 1269.55 1461.88 1280.08C1452.3 1290.6 1439.59 1295.86 1423.75 1295.86C1409.32 1295.86 1397.74 1291.31 1388.99 1282.21C1380.24 1273.1 1375.86 1261.1 1375.86 1246.2C1375.86 1214.04 1391.12 1187.38 1421.62 1166.22C1452.12 1145.05 1491.38 1134.47 1539.38 1134.47C1566.34 1134.47 1590.75 1137.9 1612.63 1144.76C1634.5 1151.62 1652.41 1161.55 1666.37 1174.55C1677.71 1185.19 1685.76 1197.61 1690.49 1211.8C1695.21 1225.98 1697.58 1247.39 1697.58 1276V1377.09C1697.58 1405.23 1699.77 1425.21 1704.14 1437.03C1708.52 1448.86 1715.55 1454.77 1725.25 1454.77C1727.37 1454.77 1729.5 1454.3 1731.63 1453.35C1732.63 1452.91 1736.74 1450.92 1741.09 1448.74ZM658.608 1498.4L573.834 1329.91V1426.39C573.834 1445.07 577.145 1458.38 583.766 1466.3C590.388 1474.22 601.62 1478.18 617.463 1478.18H619.59V1498.4H391.516V1478.18H393.644C409.25 1478.18 420.423 1474.22 427.164 1466.3C433.902 1458.38 437.273 1445.07 437.273 1426.39V1135.18C437.273 1124.3 436.032 1116.44 433.549 1111.59C431.066 1106.75 425.449 1100.78 416.7 1093.68L378.392 1062.47C394.944 1057.5 418 1049.58 447.558 1038.7C477.118 1027.82 519.209 1011.75 573.834 990.461V1310.4C604.811 1286.52 628.163 1264.94 643.887 1245.67C659.613 1226.4 667.474 1209.67 667.474 1195.48C667.474 1187.91 664.579 1181.88 658.785 1177.39C652.991 1172.9 645.01 1170.65 634.842 1170.65H632.714V1150.43H817.159V1170.65H811.129C786.773 1170.65 763.837 1177.04 742.317 1189.81C720.799 1202.58 698.688 1222.91 675.987 1250.82L777.788 1424.97C788.901 1444.37 799.661 1457.84 810.066 1465.41C820.438 1472.95 833.392 1477.21 848.937 1478.17C863.88 1477.96 874.63 1474 881.185 1466.3C887.923 1458.38 891.293 1445.07 891.293 1426.39V1276C891.293 1265.12 890.11 1257.26 887.747 1252.41C885.383 1247.56 879.825 1241.71 871.076 1234.85L832.413 1203.64C860.552 1194.65 890.938 1184.13 923.571 1172.07C956.204 1160.01 990.964 1146.53 1027.85 1131.63V1426.39C1027.85 1444.6 1031.11 1457.67 1037.61 1465.59C1044.11 1473.51 1054.93 1477.71 1070.06 1478.18H1070.76C1086.36 1478.18 1097.53 1474.22 1104.28 1466.3C1111.01 1458.38 1114.38 1445.07 1114.38 1426.39V1292.67C1114.38 1281.32 1112.96 1272.92 1110.13 1267.49C1107.29 1262.05 1101.97 1256.73 1094.17 1251.52L1049.83 1220.31C1073 1212.27 1099.72 1201.22 1129.99 1187.15C1160.26 1173.07 1197.38 1154.57 1241.37 1131.63V1194.06C1253.19 1174.2 1266.02 1159.3 1279.85 1149.37C1293.69 1139.44 1308.53 1134.47 1324.37 1134.47C1341.87 1134.47 1355.94 1139.67 1366.58 1150.08C1377.22 1160.48 1382.54 1174.2 1382.54 1191.22C1382.54 1206.12 1378.11 1218.06 1369.24 1227.05C1360.37 1236.04 1348.61 1240.53 1333.95 1240.53C1320.7 1240.53 1307.99 1235.21 1295.81 1224.57C1283.64 1213.92 1275.89 1208.61 1272.58 1208.61C1264.78 1208.61 1259.22 1213.81 1255.91 1224.21C1252.6 1234.62 1250.95 1253.18 1250.95 1279.9V1426.39C1250.95 1444.84 1254.67 1458.08 1262.12 1466.12C1269.57 1474.16 1281.8 1478.18 1298.83 1478.18H1300.96V1498.4H658.608ZM1948.71 1289.12C1927.43 1297.64 1911.23 1311.06 1900.11 1329.38C1889 1347.71 1883.44 1370.11 1883.44 1396.6C1883.44 1411.73 1886.46 1423.79 1892.49 1432.78C1898.52 1441.76 1906.38 1446.26 1916.08 1446.26C1928.61 1446.26 1937.18 1441.29 1941.79 1431.36C1946.4 1421.43 1948.71 1396.6 1948.71 1356.87V1289.12ZM1561.73 1289.12C1540.45 1297.64 1524.25 1311.06 1513.13 1329.38C1502.02 1347.71 1496.46 1370.11 1496.46 1396.6C1496.46 1411.73 1499.48 1423.79 1505.51 1432.78C1511.54 1441.76 1519.4 1446.26 1529.09 1446.26C1541.63 1446.26 1550.2 1441.29 1554.81 1431.36C1559.42 1421.43 1561.73 1396.6 1561.73 1356.87V1289.12ZM881.717 1061.76C881.717 1041.89 888.634 1025.05 902.466 1011.21C916.301 997.379 933.148 990.461 953.012 990.461C973.113 990.461 990.019 997.379 1003.73 1011.21C1017.45 1025.05 1024.31 1041.89 1024.31 1061.76C1024.31 1081.62 1017.39 1098.47 1003.56 1112.3C989.724 1126.14 972.874 1133.05 953.012 1133.05C933.148 1133.05 916.301 1126.19 902.466 1112.48C888.634 1098.76 881.717 1081.86 881.717 1061.76Z"/>
</mask>
<path d="M1741.09 1448.74C1739.27 1441.52 1738.37 1433.84 1738.37 1425.68C1738.37 1395.18 1752.14 1368.64 1779.69 1346.05C1807.24 1323.47 1863.58 1295.74 1948.71 1262.88V1237.69C1948.71 1211.21 1945.34 1192.23 1938.6 1180.76C1931.86 1169.29 1920.81 1163.56 1905.44 1163.56C1892.9 1163.56 1882.5 1167.28 1874.22 1174.73C1865.95 1182.18 1861.81 1191.46 1861.81 1202.58C1861.81 1208.49 1862.04 1215.4 1862.52 1223.33C1862.99 1231.25 1863.23 1236.27 1863.23 1238.4C1863.23 1255.66 1858.44 1269.55 1848.86 1280.08C1839.28 1290.6 1826.57 1295.86 1810.73 1295.86C1796.31 1295.86 1784.72 1291.31 1775.97 1282.21C1767.22 1273.1 1762.84 1261.1 1762.84 1246.2C1762.84 1214.04 1778.1 1187.38 1808.6 1166.22C1839.11 1145.05 1878.36 1134.47 1926.36 1134.47C1953.32 1134.47 1977.74 1137.9 1999.61 1144.76C2021.48 1151.62 2039.39 1161.55 2053.35 1174.55C2064.7 1185.19 2072.74 1197.61 2077.47 1211.8C2082.2 1225.98 2084.56 1247.39 2084.56 1276V1377.09C2084.56 1405.23 2086.75 1425.21 2091.12 1437.03C2095.5 1448.86 2102.53 1454.77 2112.23 1454.77C2114.36 1454.77 2116.48 1454.3 2118.61 1453.35C2120.74 1452.4 2122.99 1450.99 2125.35 1449.09V1472.15C2115.89 1484.21 2103.66 1493.55 2088.64 1500.17C2073.62 1506.79 2057.01 1510.1 2038.8 1510.1C2017.99 1510.1 2000.56 1505.26 1986.48 1495.56C1972.41 1485.86 1962.07 1471.56 1955.45 1452.64C1937.48 1473.22 1918.62 1488.53 1898.87 1498.58C1879.13 1508.62 1858.26 1513.65 1836.27 1513.65C1807.18 1513.65 1783.59 1505.43 1765.5 1489C1759.47 1483.52 1754.44 1477.51 1750.41 1470.98C1736.18 1482.16 1713.24 1495.07 1701.66 1500.17C1686.64 1506.79 1670.03 1510.1 1651.82 1510.1C1631.01 1510.1 1613.57 1505.26 1599.5 1495.56C1585.43 1485.86 1575.09 1471.56 1568.47 1452.64C1550.49 1473.22 1531.64 1488.53 1511.89 1498.58C1492.15 1508.62 1471.28 1513.65 1449.29 1513.65C1420.2 1513.65 1396.61 1505.43 1378.52 1489C1360.43 1472.56 1351.39 1451.46 1351.39 1425.68C1351.39 1395.18 1365.16 1368.64 1392.71 1346.05C1420.26 1323.47 1476.6 1295.74 1561.73 1262.88V1237.69C1561.73 1211.21 1558.36 1192.23 1551.62 1180.76C1544.88 1169.29 1533.82 1163.56 1518.45 1163.56C1505.92 1163.56 1495.52 1167.28 1487.24 1174.73C1478.96 1182.18 1474.82 1191.46 1474.82 1202.58C1474.82 1208.49 1475.06 1215.4 1475.53 1223.33C1476.01 1231.25 1476.24 1236.27 1476.24 1238.4C1476.24 1255.66 1471.46 1269.55 1461.88 1280.08C1452.3 1290.6 1439.59 1295.86 1423.75 1295.86C1409.32 1295.86 1397.74 1291.31 1388.99 1282.21C1380.24 1273.1 1375.86 1261.1 1375.86 1246.2C1375.86 1214.04 1391.12 1187.38 1421.62 1166.22C1452.12 1145.05 1491.38 1134.47 1539.38 1134.47C1566.34 1134.47 1590.75 1137.9 1612.63 1144.76C1634.5 1151.62 1652.41 1161.55 1666.37 1174.55C1677.71 1185.19 1685.76 1197.61 1690.49 1211.8C1695.21 1225.98 1697.58 1247.39 1697.58 1276V1377.09C1697.58 1405.23 1699.77 1425.21 1704.14 1437.03C1708.52 1448.86 1715.55 1454.77 1725.25 1454.77C1727.37 1454.77 1729.5 1454.3 1731.63 1453.35C1732.63 1452.91 1736.74 1450.92 1741.09 1448.74ZM658.608 1498.4L573.834 1329.91V1426.39C573.834 1445.07 577.145 1458.38 583.766 1466.3C590.388 1474.22 601.62 1478.18 617.463 1478.18H619.59V1498.4H391.516V1478.18H393.644C409.25 1478.18 420.423 1474.22 427.164 1466.3C433.902 1458.38 437.273 1445.07 437.273 1426.39V1135.18C437.273 1124.3 436.032 1116.44 433.549 1111.59C431.066 1106.75 425.449 1100.78 416.7 1093.68L378.392 1062.47C394.944 1057.5 418 1049.58 447.558 1038.7C477.118 1027.82 519.209 1011.75 573.834 990.461V1310.4C604.811 1286.52 628.163 1264.94 643.887 1245.67C659.613 1226.4 667.474 1209.67 667.474 1195.48C667.474 1187.91 664.579 1181.88 658.785 1177.39C652.991 1172.9 645.01 1170.65 634.842 1170.65H632.714V1150.43H817.159V1170.65H811.129C786.773 1170.65 763.837 1177.04 742.317 1189.81C720.799 1202.58 698.688 1222.91 675.987 1250.82L777.788 1424.97C788.901 1444.37 799.661 1457.84 810.066 1465.41C820.438 1472.95 833.392 1477.21 848.937 1478.17C863.88 1477.96 874.63 1474 881.185 1466.3C887.923 1458.38 891.293 1445.07 891.293 1426.39V1276C891.293 1265.12 890.11 1257.26 887.747 1252.41C885.383 1247.56 879.825 1241.71 871.076 1234.85L832.413 1203.64C860.552 1194.65 890.938 1184.13 923.571 1172.07C956.204 1160.01 990.964 1146.53 1027.85 1131.63V1426.39C1027.85 1444.6 1031.11 1457.67 1037.61 1465.59C1044.11 1473.51 1054.93 1477.71 1070.06 1478.18H1070.76C1086.36 1478.18 1097.53 1474.22 1104.28 1466.3C1111.01 1458.38 1114.38 1445.07 1114.38 1426.39V1292.67C1114.38 1281.32 1112.96 1272.92 1110.13 1267.49C1107.29 1262.05 1101.97 1256.73 1094.17 1251.52L1049.83 1220.31C1073 1212.27 1099.72 1201.22 1129.99 1187.15C1160.26 1173.07 1197.38 1154.57 1241.37 1131.63V1194.06C1253.19 1174.2 1266.02 1159.3 1279.85 1149.37C1293.69 1139.44 1308.53 1134.47 1324.37 1134.47C1341.87 1134.47 1355.94 1139.67 1366.58 1150.08C1377.22 1160.48 1382.54 1174.2 1382.54 1191.22C1382.54 1206.12 1378.11 1218.06 1369.24 1227.05C1360.37 1236.04 1348.61 1240.53 1333.95 1240.53C1320.7 1240.53 1307.99 1235.21 1295.81 1224.57C1283.64 1213.92 1275.89 1208.61 1272.58 1208.61C1264.78 1208.61 1259.22 1213.81 1255.91 1224.21C1252.6 1234.62 1250.95 1253.18 1250.95 1279.9V1426.39C1250.95 1444.84 1254.67 1458.08 1262.12 1466.12C1269.57 1474.16 1281.8 1478.18 1298.83 1478.18H1300.96V1498.4H658.608ZM1948.71 1289.12C1927.43 1297.64 1911.23 1311.06 1900.11 1329.38C1889 1347.71 1883.44 1370.11 1883.44 1396.6C1883.44 1411.73 1886.46 1423.79 1892.49 1432.78C1898.52 1441.76 1906.38 1446.26 1916.08 1446.26C1928.61 1446.26 1937.18 1441.29 1941.79 1431.36C1946.4 1421.43 1948.71 1396.6 1948.71 1356.87V1289.12ZM1561.73 1289.12C1540.45 1297.64 1524.25 1311.06 1513.13 1329.38C1502.02 1347.71 1496.46 1370.11 1496.46 1396.6C1496.46 1411.73 1499.48 1423.79 1505.51 1432.78C1511.54 1441.76 1519.4 1446.26 1529.09 1446.26C1541.63 1446.26 1550.2 1441.29 1554.81 1431.36C1559.42 1421.43 1561.73 1396.6 1561.73 1356.87V1289.12ZM881.717 1061.76C881.717 1041.89 888.634 1025.05 902.466 1011.21C916.301 997.379 933.148 990.461 953.012 990.461C973.113 990.461 990.019 997.379 1003.73 1011.21C1017.45 1025.05 1024.31 1041.89 1024.31 1061.76C1024.31 1081.62 1017.39 1098.47 1003.56 1112.3C989.724 1126.14 972.874 1133.05 953.012 1133.05C933.148 1133.05 916.301 1126.19 902.466 1112.48C888.634 1098.76 881.717 1081.86 881.717 1061.76Z" stroke="black" stroke-width="11.8878" mask="url(#path-2-inside-1_158_1405)"/>
</g>
<defs>
<clipPath id="clip0_158_1405">
<rect width="2226" height="2226" fill="white" transform="translate(139 139)"/>
</clipPath>
</defs>
</svg>
