<svg width="80" height="80" viewBox="0 0 80 80" fill="none" xmlns="http://www.w3.org/2000/svg">
<path d="M39.9997 27.4999C39.9997 20.6249 45.781 14.9062 52.656 14.9999C55.0636 15.0277 57.412 15.7503 59.4188 17.0808C61.4257 18.4113 63.0055 20.2931 63.9685 22.4999H74.9997L64.906 32.5937C64.2546 42.733 59.7662 52.2436 52.3535 59.192C44.9407 66.1404 35.1599 70.0049 24.9997 69.9999C14.9997 69.9999 12.4997 66.2499 12.4997 66.2499C12.4997 66.2499 22.4997 62.4999 27.4997 54.9999C27.4997 54.9999 7.49973 44.9999 12.4997 17.4999C12.4997 17.4999 24.9997 29.9999 39.9997 32.4999V27.4999Z" fill="#1DA1F2" stroke="#3986B6" stroke-width="5" stroke-linecap="round" stroke-linejoin="round"/>
</svg>
