<svg width="428" height="926" viewBox="0 0 428 926" fill="none" xmlns="http://www.w3.org/2000/svg">
<rect width="428" height="926" fill="#F8F2E9"/>
<g filter="url(#filter0_d_520_1505)">
<rect x="82" y="824" width="264" height="56" rx="28" fill="#F8F2E9" shape-rendering="crispEdges"/>
<path d="M121 862V856C121 855.735 120.895 855.48 120.707 855.293C120.52 855.105 120.265 855 120 855H116C115.735 855 115.48 855.105 115.293 855.293C115.105 855.48 115 855.735 115 856V862C115 862.265 114.895 862.519 114.707 862.707C114.52 862.894 114.265 863 114 863H108C107.735 863 107.48 862.894 107.293 862.707C107.105 862.519 107 862.265 107 862V850.437C107.002 850.299 107.032 850.162 107.088 850.036C107.144 849.909 107.224 849.795 107.325 849.7L117.325 840.612C117.509 840.444 117.75 840.35 118 840.35C118.25 840.35 118.491 840.444 118.675 840.612L128.675 849.7C128.776 849.795 128.856 849.909 128.912 850.036C128.968 850.162 128.998 850.299 129 850.437V862C129 862.265 128.895 862.519 128.707 862.707C128.52 862.894 128.265 863 128 863H122C121.735 863 121.48 862.894 121.293 862.707C121.105 862.519 121 862.265 121 862Z" fill="#4A4A4A"/>
<path d="M178 845C178 843.939 178.421 842.922 179.172 842.172C179.922 841.421 180.939 841 182 841C183.061 841 184.078 841.421 184.828 842.172C185.579 842.922 186 843.939 186 845L168.4 858.2C168.232 858.326 168.108 858.501 168.045 858.702C167.983 858.902 167.985 859.117 168.051 859.316C168.118 859.515 168.245 859.689 168.415 859.811C168.586 859.934 168.79 860 169 860H195C195.21 860 195.414 859.934 195.585 859.811C195.755 859.689 195.882 859.515 195.949 859.316C196.015 859.117 196.017 858.902 195.955 858.702C195.892 858.501 195.768 858.326 195.6 858.2L182 848" stroke="#4A4A4A" stroke-width="2" stroke-linecap="round" stroke-linejoin="round"/>
<path d="M246 856C250.418 856 254 852.418 254 848C254 843.582 250.418 840 246 840C241.582 840 238 843.582 238 848C238 852.418 241.582 856 246 856Z" stroke="#4A4A4A" stroke-width="2" stroke-miterlimit="10"/>
<path d="M233.875 863C235.104 860.872 236.871 859.104 238.999 857.875C241.128 856.646 243.542 855.999 246 855.999C248.458 855.999 250.872 856.646 253.001 857.875C255.129 859.104 256.896 860.872 258.125 863" stroke="#4A4A4A" stroke-width="2" stroke-linecap="round" stroke-linejoin="round"/>
<path d="M305.954 841.143L306.937 838.606C307.103 838.176 307.394 837.807 307.774 837.546C308.153 837.285 308.602 837.144 309.063 837.143H310.937C311.397 837.144 311.847 837.285 312.226 837.546C312.605 837.807 312.897 838.176 313.063 838.606L314.046 841.143L317.383 843.063L320.08 842.652C320.529 842.591 320.986 842.665 321.393 842.864C321.8 843.063 322.139 843.379 322.366 843.772L323.28 845.372C323.514 845.77 323.622 846.23 323.589 846.691C323.557 847.153 323.385 847.593 323.097 847.954L321.428 850.08V853.92L323.143 856.046C323.431 856.407 323.603 856.848 323.635 857.309C323.668 857.77 323.56 858.23 323.326 858.629L322.411 860.229C322.184 860.621 321.846 860.937 321.439 861.136C321.032 861.336 320.575 861.41 320.126 861.349L317.428 860.937L314.091 862.857L313.108 865.394C312.943 865.824 312.651 866.194 312.272 866.455C311.892 866.716 311.443 866.856 310.983 866.857H309.063C308.602 866.856 308.153 866.716 307.774 866.455C307.394 866.194 307.103 865.824 306.937 865.394L305.954 862.857L302.617 860.937L299.92 861.349C299.471 861.41 299.014 861.336 298.607 861.136C298.2 860.937 297.861 860.621 297.634 860.229L296.72 858.629C296.486 858.23 296.378 857.77 296.41 857.309C296.443 856.848 296.615 856.407 296.903 856.046L298.571 853.92V850.08L296.857 847.954C296.569 847.593 296.397 847.153 296.365 846.691C296.332 846.23 296.44 845.77 296.674 845.372L297.588 843.772C297.815 843.379 298.154 843.063 298.561 842.864C298.968 842.665 299.425 842.591 299.874 842.652L302.571 843.063L305.954 841.143ZM305.428 852C305.428 852.904 305.697 853.788 306.199 854.54C306.701 855.292 307.415 855.878 308.25 856.224C309.086 856.57 310.005 856.66 310.892 856.484C311.778 856.307 312.593 855.872 313.232 855.233C313.872 854.593 314.307 853.779 314.483 852.892C314.66 852.005 314.569 851.086 314.223 850.251C313.877 849.415 313.291 848.702 312.54 848.199C311.788 847.697 310.904 847.429 310 847.429C308.787 847.429 307.625 847.91 306.767 848.768C305.91 849.625 305.428 850.788 305.428 852V852Z" stroke="#3E3E3E" stroke-width="2" stroke-linecap="round" stroke-linejoin="round"/>
</g>
<g clip-path="url(#clip0_520_1505)">
<path d="M240.646 92.0179C240.549 91.6319 240.501 91.221 240.501 90.7852C240.501 89.1544 241.237 87.7354 242.71 86.5281C244.183 85.3209 247.195 83.8387 251.746 82.0816V80.7353C251.746 79.3193 251.565 78.3048 251.205 77.6918C250.845 77.0787 250.254 76.7721 249.432 76.7721C248.762 76.7721 248.206 76.9712 247.764 77.3694C247.321 77.7676 247.1 78.2638 247.1 78.858C247.1 79.174 247.113 79.5438 247.138 79.9673C247.163 80.3907 247.176 80.6594 247.176 80.7731C247.176 81.696 246.92 82.4386 246.408 83.0012C245.896 83.5638 245.216 83.845 244.369 83.845C243.598 83.845 242.979 83.6017 242.511 83.1149C242.043 82.6282 241.809 81.9867 241.809 81.1904C241.809 79.4711 242.625 78.0457 244.256 76.9143C245.886 75.7829 247.985 75.2172 250.551 75.2172C251.992 75.2172 253.297 75.4006 254.467 75.7672C255.636 76.1338 256.594 76.6646 257.339 77.36C257.946 77.9288 258.376 78.5925 258.629 79.351C258.882 80.1094 259.008 81.2535 259.008 82.7831V88.1873C259.008 89.6916 259.125 90.7599 259.359 91.3919C259.593 92.024 259.969 92.3401 260.487 92.3401C260.601 92.3401 260.715 92.3148 260.828 92.2642C260.942 92.2136 261.062 92.1378 261.189 92.0366V93.2691C260.683 93.9139 260.029 94.4132 259.226 94.7672C258.423 95.1212 257.535 95.2981 256.562 95.2981C255.45 95.2981 254.517 95.039 253.765 94.5207C253.013 94.0023 252.46 93.2377 252.106 92.2263C251.145 93.3261 250.137 94.1447 249.081 94.6819C248.026 95.2191 246.91 95.4878 245.735 95.4878C244.18 95.4878 242.919 95.0485 241.952 94.1699C241.629 93.8768 241.36 93.5558 241.145 93.2068C240.384 93.8041 239.157 94.4942 238.538 94.7672C237.736 95.1212 236.848 95.2981 235.874 95.2981C234.762 95.2981 233.829 95.039 233.077 94.5207C232.325 94.0023 231.772 93.2377 231.418 92.2263C230.457 93.3261 229.449 94.1447 228.394 94.6819C227.338 95.2191 226.223 95.4878 225.047 95.4878C223.492 95.4878 222.231 95.0485 221.264 94.1699C220.297 93.2913 219.813 92.1631 219.813 90.7852C219.813 89.1544 220.55 87.7354 222.022 86.5281C223.495 85.3209 226.507 83.8387 231.058 82.0816V80.7353C231.058 79.3193 230.878 78.3048 230.517 77.6918C230.157 77.0787 229.566 76.7721 228.744 76.7721C228.075 76.7721 227.518 76.9712 227.076 77.3694C226.633 77.7676 226.412 78.2638 226.412 78.858C226.412 79.174 226.425 79.5438 226.45 79.9673C226.475 80.3907 226.488 80.6594 226.488 80.7731C226.488 81.696 226.232 82.4386 225.72 83.0012C225.208 83.5638 224.529 83.845 223.682 83.845C222.91 83.845 222.291 83.6017 221.823 83.1149C221.356 82.6282 221.122 81.9867 221.122 81.1904C221.122 79.4711 221.937 78.0457 223.568 76.9143C225.199 75.7829 227.297 75.2172 229.863 75.2172C231.304 75.2172 232.61 75.4006 233.779 75.7672C234.948 76.1338 235.906 76.6646 236.652 77.36C237.258 77.9288 237.688 78.5925 237.941 79.351C238.194 80.1094 238.32 81.2535 238.32 82.7831V88.1873C238.32 89.6916 238.437 90.7599 238.671 91.3919C238.905 92.024 239.281 92.3401 239.799 92.3401C239.913 92.3401 240.027 92.3148 240.141 92.2642C240.194 92.2406 240.414 92.1345 240.646 92.0179ZM182.778 94.6724L178.246 85.6653V90.823C178.246 91.8217 178.423 92.5329 178.777 92.9564C179.131 93.3798 179.731 93.5915 180.578 93.5915H180.692V94.6724H168.499V93.5915H168.613C169.448 93.5915 170.045 93.3798 170.405 92.9564C170.765 92.5329 170.946 91.8217 170.946 90.823V75.2551C170.946 74.6736 170.879 74.2533 170.746 73.9942C170.614 73.735 170.313 73.4158 169.846 73.0366L167.798 71.368C168.683 71.1025 169.915 70.679 171.495 70.0974C173.076 69.5159 175.326 68.6564 178.246 67.5186V84.6224C179.902 83.3456 181.15 82.1921 181.991 81.1618C182.832 80.1316 183.252 79.2372 183.252 78.4788C183.252 78.0742 183.097 77.7518 182.787 77.5117C182.478 77.2715 182.051 77.1514 181.507 77.1514H181.394V76.0706H191.254V77.1514H190.932C189.63 77.1514 188.403 77.4927 187.253 78.1753C186.103 78.858 184.921 79.9451 183.707 81.4369L189.149 90.7472C189.743 91.7839 190.319 92.5044 190.875 92.9089C191.429 93.3122 192.122 93.5395 192.953 93.5911C193.752 93.5798 194.326 93.3683 194.677 92.9564C195.037 92.5329 195.217 91.8217 195.217 90.823V82.7831C195.217 82.2017 195.154 81.7813 195.027 81.5222C194.901 81.2631 194.604 80.9501 194.136 80.5835L192.069 78.9149C193.574 78.4345 195.198 77.8719 196.943 77.2272C198.687 76.5825 200.545 75.8619 202.518 75.0655V90.823C202.518 91.7965 202.691 92.4949 203.039 92.9183C203.387 93.3418 203.965 93.5663 204.774 93.5915H204.811C205.645 93.5915 206.243 93.3798 206.603 92.9564C206.963 92.5329 207.143 91.8217 207.143 90.823V83.6743C207.143 83.0675 207.067 82.6188 206.916 82.328C206.764 82.0373 206.48 81.7528 206.063 81.4747L203.692 79.8061C204.931 79.3762 206.36 78.7853 207.978 78.0331C209.596 77.2809 211.58 76.2918 213.932 75.0655V78.4029C214.564 77.341 215.25 76.5446 215.989 76.0137C216.729 75.4827 217.522 75.2172 218.369 75.2172C219.304 75.2172 220.057 75.4953 220.625 76.0515C221.194 76.6078 221.479 77.341 221.479 78.2512C221.479 79.0476 221.242 79.686 220.768 80.1663C220.294 80.6468 219.665 80.8869 218.881 80.8869C218.173 80.8869 217.494 80.6025 216.842 80.0336C216.191 79.4647 215.777 79.1804 215.6 79.1804C215.183 79.1804 214.886 79.4585 214.709 80.0147C214.532 80.5709 214.444 81.5632 214.444 82.9918V90.823C214.444 91.8091 214.643 92.5171 215.041 92.9468C215.439 93.3766 216.093 93.5915 217.004 93.5915H217.117V94.6724H182.778ZM251.746 83.4847C250.608 83.9398 249.742 84.6572 249.148 85.6369C248.554 86.6166 248.257 87.8145 248.257 89.2303C248.257 90.0393 248.418 90.6841 248.74 91.1644C249.062 91.6447 249.483 91.885 250.001 91.885C250.671 91.885 251.129 91.6195 251.376 91.0885C251.622 90.5576 251.746 89.2303 251.746 87.1065V83.4847ZM231.058 83.4847C229.92 83.9398 229.054 84.6572 228.46 85.6369C227.866 86.6166 227.569 87.8145 227.569 89.2303C227.569 90.0393 227.73 90.6841 228.052 91.1644C228.375 91.6447 228.795 91.885 229.313 91.885C229.983 91.885 230.442 91.6195 230.688 91.0885C230.935 90.5576 231.058 89.2303 231.058 87.1065V83.4847ZM194.705 71.33C194.705 70.2681 195.075 69.3674 195.814 68.6279C196.554 67.8883 197.455 67.5186 198.517 67.5186C199.591 67.5186 200.495 67.8883 201.228 68.6279C201.961 69.3674 202.328 70.2681 202.328 71.33C202.328 72.3919 201.958 73.2925 201.219 74.0321C200.479 74.7716 199.578 75.1413 198.517 75.1413C197.455 75.1413 196.554 74.7747 195.814 74.0415C195.075 73.3083 194.705 72.4045 194.705 71.33Z" fill="#3E3E3E"/>
</g>
<path d="M381 116H359C358.448 116 358 116.448 358 117V135C358 135.552 358.448 136 359 136H381C381.552 136 382 135.552 382 135V117C382 116.448 381.552 116 381 116Z" fill="#3E3E3E"/>
<path d="M375 121C375 122.326 374.473 123.598 373.536 124.536C372.598 125.473 371.326 126 370 126C368.674 126 367.402 125.473 366.464 124.536C365.527 123.598 365 122.326 365 121" stroke="#F8F2E9" stroke-width="2" stroke-linecap="round" stroke-linejoin="round"/>
<rect x="116.25" y="569.25" width="195.5" height="48.5" rx="2.75" fill="#616161"/>
<path d="M139.179 599V587.432H143.435C144.277 587.432 145.032 587.579 145.699 587.872C146.365 588.16 146.891 588.587 147.275 589.152C147.664 589.717 147.859 590.408 147.859 591.224C147.859 591.992 147.688 592.648 147.347 593.192C147.005 593.736 146.525 594.152 145.907 594.44C145.293 594.728 144.571 594.872 143.739 594.872H141.531V599H139.179ZM141.507 593.064H143.675C144.261 593.064 144.741 592.877 145.115 592.504C145.488 592.125 145.675 591.659 145.675 591.104C145.675 590.528 145.477 590.072 145.083 589.736C144.688 589.395 144.208 589.224 143.643 589.224H141.507V593.064ZM149.32 599V590.728H151.568V592.688C151.702 592.267 151.888 591.899 152.128 591.584C152.374 591.264 152.67 591.016 153.016 590.84C153.363 590.659 153.755 590.568 154.192 590.568C154.267 590.568 154.336 590.573 154.4 590.584C154.47 590.589 154.52 590.6 154.552 590.616V592.84C154.504 592.819 154.446 592.805 154.376 592.8C154.312 592.795 154.254 592.789 154.2 592.784C153.742 592.747 153.35 592.76 153.024 592.824C152.699 592.888 152.435 592.997 152.232 593.152C152.03 593.307 151.883 593.496 151.792 593.72C151.702 593.944 151.656 594.195 151.656 594.472V599H149.32ZM159.341 599.16C158.53 599.16 157.824 598.987 157.221 598.64C156.624 598.293 156.16 597.803 155.829 597.168C155.504 596.533 155.341 595.781 155.341 594.912C155.341 594.043 155.504 593.283 155.829 592.632C156.16 591.981 156.624 591.475 157.221 591.112C157.824 590.749 158.533 590.568 159.349 590.568C160.165 590.568 160.872 590.747 161.469 591.104C162.066 591.456 162.528 591.957 162.853 592.608C163.178 593.259 163.341 594.027 163.341 594.912C163.341 595.744 163.181 596.48 162.861 597.12C162.546 597.755 162.09 598.253 161.493 598.616C160.901 598.979 160.184 599.16 159.341 599.16ZM159.349 597.424C159.76 597.424 160.09 597.304 160.341 597.064C160.592 596.824 160.773 596.509 160.885 596.12C161.002 595.725 161.061 595.296 161.061 594.832C161.061 594.395 161.008 593.981 160.901 593.592C160.8 593.203 160.624 592.888 160.373 592.648C160.122 592.408 159.781 592.288 159.349 592.288C158.938 592.288 158.605 592.403 158.349 592.632C158.098 592.856 157.914 593.163 157.797 593.552C157.68 593.936 157.621 594.363 157.621 594.832C157.621 595.264 157.674 595.68 157.781 596.08C157.888 596.475 158.066 596.797 158.317 597.048C158.568 597.299 158.912 597.424 159.349 597.424ZM168.442 590.568C169.136 590.568 169.733 590.709 170.234 590.992C170.741 591.275 171.138 591.656 171.426 592.136C171.72 592.616 171.888 593.152 171.93 593.744H169.986C169.949 593.525 169.872 593.309 169.754 593.096C169.637 592.877 169.472 592.699 169.258 592.56C169.045 592.416 168.778 592.344 168.458 592.344C167.914 592.344 167.472 592.555 167.13 592.976C166.794 593.392 166.626 594.027 166.626 594.88C166.626 595.685 166.792 596.325 167.122 596.8C167.453 597.269 167.914 597.504 168.506 597.504C168.821 597.504 169.082 597.427 169.29 597.272C169.504 597.117 169.669 596.933 169.786 596.72C169.904 596.501 169.978 596.299 170.01 596.112H171.906C171.869 596.683 171.704 597.2 171.41 597.664C171.117 598.123 170.717 598.488 170.21 598.76C169.709 599.027 169.12 599.16 168.442 599.16C167.674 599.16 166.989 598.989 166.386 598.648C165.784 598.307 165.309 597.819 164.962 597.184C164.621 596.544 164.45 595.781 164.45 594.896C164.45 594.043 164.616 593.291 164.946 592.64C165.277 591.989 165.741 591.483 166.338 591.12C166.941 590.752 167.642 590.568 168.442 590.568ZM175.459 595.4C175.454 595.821 175.52 596.189 175.659 596.504C175.798 596.813 175.998 597.053 176.259 597.224C176.526 597.389 176.846 597.472 177.219 597.472C177.619 597.472 177.968 597.387 178.267 597.216C178.571 597.045 178.782 596.765 178.899 596.376H181.003C180.912 596.963 180.678 597.464 180.299 597.88C179.926 598.296 179.472 598.613 178.939 598.832C178.406 599.051 177.851 599.16 177.275 599.16C176.459 599.16 175.739 598.989 175.115 598.648C174.496 598.301 174.014 597.813 173.667 597.184C173.32 596.555 173.147 595.813 173.147 594.96C173.147 594.133 173.304 593.389 173.619 592.728C173.934 592.061 174.39 591.536 174.987 591.152C175.59 590.763 176.312 590.568 177.155 590.568C177.998 590.568 178.704 590.747 179.275 591.104C179.851 591.456 180.283 591.949 180.571 592.584C180.864 593.213 181.011 593.941 181.011 594.768V595.4H175.459ZM175.451 594.008H178.827C178.827 593.677 178.766 593.373 178.643 593.096C178.52 592.819 178.334 592.6 178.083 592.44C177.838 592.28 177.528 592.2 177.155 592.2C176.792 592.2 176.483 592.288 176.227 592.464C175.976 592.635 175.784 592.859 175.651 593.136C175.518 593.413 175.451 593.704 175.451 594.008ZM184.553 595.4C184.547 595.821 184.614 596.189 184.753 596.504C184.891 596.813 185.091 597.053 185.353 597.224C185.619 597.389 185.939 597.472 186.313 597.472C186.713 597.472 187.062 597.387 187.361 597.216C187.665 597.045 187.875 596.765 187.993 596.376H190.097C190.006 596.963 189.771 597.464 189.393 597.88C189.019 598.296 188.566 598.613 188.033 598.832C187.499 599.051 186.945 599.16 186.369 599.16C185.553 599.16 184.833 598.989 184.209 598.648C183.59 598.301 183.107 597.813 182.761 597.184C182.414 596.555 182.241 595.813 182.241 594.96C182.241 594.133 182.398 593.389 182.713 592.728C183.027 592.061 183.483 591.536 184.081 591.152C184.683 590.763 185.406 590.568 186.249 590.568C187.091 590.568 187.798 590.747 188.369 591.104C188.945 591.456 189.377 591.949 189.665 592.584C189.958 593.213 190.105 593.941 190.105 594.768V595.4H184.553ZM184.545 594.008H187.921C187.921 593.677 187.859 593.373 187.737 593.096C187.614 592.819 187.427 592.6 187.177 592.44C186.931 592.28 186.622 592.2 186.249 592.2C185.886 592.2 185.577 592.288 185.321 592.464C185.07 592.635 184.878 592.859 184.745 593.136C184.611 593.413 184.545 593.704 184.545 594.008ZM194.799 599.16C193.689 599.16 192.825 598.779 192.207 598.016C191.588 597.248 191.279 596.181 191.279 594.816C191.279 593.952 191.404 593.203 191.655 592.568C191.905 591.933 192.276 591.443 192.767 591.096C193.257 590.744 193.857 590.568 194.567 590.568C194.865 590.568 195.143 590.603 195.399 590.672C195.66 590.736 195.897 590.827 196.111 590.944C196.324 591.061 196.511 591.197 196.671 591.352C196.831 591.507 196.961 591.672 197.063 591.848V587.112H199.407V599H197.711L197.447 597.304C197.372 597.533 197.268 597.757 197.135 597.976C197.001 598.195 196.831 598.395 196.623 598.576C196.415 598.752 196.159 598.893 195.855 599C195.556 599.107 195.204 599.16 194.799 599.16ZM195.311 597.48C195.897 597.48 196.335 597.275 196.623 596.864C196.916 596.453 197.063 595.76 197.063 594.784C197.057 594.219 196.991 593.749 196.863 593.376C196.735 593.003 196.543 592.725 196.287 592.544C196.036 592.357 195.716 592.264 195.327 592.264C194.82 592.264 194.399 592.459 194.063 592.848C193.727 593.232 193.559 593.877 193.559 594.784C193.559 595.707 193.716 596.387 194.031 596.824C194.345 597.261 194.772 597.48 195.311 597.48ZM209.798 592.352H207.958L207.974 596.76C207.974 596.963 207.998 597.115 208.046 597.216C208.099 597.312 208.179 597.376 208.286 597.408C208.398 597.435 208.539 597.448 208.71 597.448H209.822V598.888C209.715 598.936 209.547 598.981 209.318 599.024C209.094 599.067 208.779 599.088 208.374 599.088C207.648 599.088 207.086 598.995 206.686 598.808C206.291 598.621 206.016 598.36 205.862 598.024C205.707 597.688 205.63 597.299 205.63 596.856V592.352H204.286V590.728H205.71L206.294 588.232H207.958V590.72H209.798V592.352ZM214.81 599.16C213.999 599.16 213.292 598.987 212.69 598.64C212.092 598.293 211.628 597.803 211.298 597.168C210.972 596.533 210.81 595.781 210.81 594.912C210.81 594.043 210.972 593.283 211.298 592.632C211.628 591.981 212.092 591.475 212.69 591.112C213.292 590.749 214.002 590.568 214.818 590.568C215.634 590.568 216.34 590.747 216.938 591.104C217.535 591.456 217.996 591.957 218.322 592.608C218.647 593.259 218.81 594.027 218.81 594.912C218.81 595.744 218.65 596.48 218.33 597.12C218.015 597.755 217.559 598.253 216.962 598.616C216.37 598.979 215.652 599.16 214.81 599.16ZM214.818 597.424C215.228 597.424 215.559 597.304 215.81 597.064C216.06 596.824 216.242 596.509 216.354 596.12C216.471 595.725 216.53 595.296 216.53 594.832C216.53 594.395 216.476 593.981 216.37 593.592C216.268 593.203 216.092 592.888 215.842 592.648C215.591 592.408 215.25 592.288 214.818 592.288C214.407 592.288 214.074 592.403 213.818 592.632C213.567 592.856 213.383 593.163 213.266 593.552C213.148 593.936 213.09 594.363 213.09 594.832C213.09 595.264 213.143 595.68 213.25 596.08C213.356 596.475 213.535 596.797 213.786 597.048C214.036 597.299 214.38 597.424 214.818 597.424ZM224.007 599V587.432H228.263C229.106 587.432 229.86 587.579 230.527 587.872C231.194 588.16 231.719 588.587 232.103 589.152C232.492 589.717 232.687 590.408 232.687 591.224C232.687 591.992 232.516 592.648 232.175 593.192C231.834 593.736 231.354 594.152 230.735 594.44C230.122 594.728 229.399 594.872 228.567 594.872H226.359V599H224.007ZM226.335 593.064H228.503C229.09 593.064 229.57 592.877 229.943 592.504C230.316 592.125 230.503 591.659 230.503 591.104C230.503 590.528 230.306 590.072 229.911 589.736C229.516 589.395 229.036 589.224 228.471 589.224H226.335V593.064ZM236.33 599.16C235.802 599.16 235.327 599.061 234.906 598.864C234.484 598.667 234.151 598.381 233.906 598.008C233.66 597.629 233.538 597.171 233.538 596.632C233.538 595.725 233.876 595.037 234.554 594.568C235.231 594.093 236.3 593.848 237.762 593.832L238.794 593.816V593.32C238.794 592.941 238.682 592.651 238.458 592.448C238.239 592.24 237.898 592.139 237.434 592.144C237.092 592.149 236.767 592.229 236.458 592.384C236.154 592.539 235.946 592.808 235.834 593.192H233.89C233.922 592.595 234.095 592.104 234.41 591.72C234.724 591.331 235.151 591.043 235.69 590.856C236.234 590.664 236.85 590.568 237.538 590.568C238.386 590.568 239.066 590.675 239.578 590.888C240.09 591.096 240.46 591.397 240.69 591.792C240.919 592.181 241.034 592.645 241.034 593.184V599H239.082L238.89 597.576C238.607 598.173 238.252 598.587 237.826 598.816C237.404 599.045 236.906 599.16 236.33 599.16ZM237.114 597.624C237.327 597.624 237.532 597.587 237.73 597.512C237.932 597.432 238.111 597.328 238.266 597.2C238.426 597.067 238.554 596.917 238.65 596.752C238.746 596.587 238.794 596.416 238.794 596.24V595.016L237.954 595.032C237.564 595.037 237.202 595.085 236.866 595.176C236.53 595.261 236.258 595.403 236.05 595.6C235.847 595.797 235.746 596.064 235.746 596.4C235.746 596.784 235.879 597.085 236.146 597.304C236.412 597.517 236.735 597.624 237.114 597.624ZM244.093 601.64C243.527 601.64 243.127 601.592 242.893 601.496C242.663 601.405 242.549 601.36 242.549 601.36V599.872L243.365 599.904C243.722 599.925 244.01 599.907 244.229 599.848C244.447 599.795 244.613 599.723 244.725 599.632C244.842 599.541 244.925 599.445 244.973 599.344C245.021 599.248 245.055 599.171 245.077 599.112L245.229 598.656L242.013 590.728H244.325L246.309 596.12L248.317 590.728H250.597L247.245 599.048C246.957 599.752 246.653 600.291 246.333 600.664C246.013 601.037 245.666 601.293 245.293 601.432C244.925 601.571 244.525 601.64 244.093 601.64ZM251.805 599V590.728H254.093V591.896C254.343 591.533 254.679 591.221 255.101 590.96C255.527 590.699 256.063 590.568 256.709 590.568C256.991 590.568 257.279 590.619 257.573 590.72C257.866 590.821 258.141 590.971 258.397 591.168C258.658 591.36 258.869 591.603 259.029 591.896C259.295 591.517 259.645 591.203 260.077 590.952C260.514 590.696 260.999 590.568 261.533 590.568C261.842 590.568 262.154 590.619 262.469 590.72C262.789 590.821 263.082 590.987 263.349 591.216C263.615 591.445 263.829 591.752 263.989 592.136C264.154 592.515 264.237 592.984 264.237 593.544V599H261.901V593.832C261.901 593.501 261.834 593.237 261.701 593.04C261.573 592.837 261.407 592.693 261.205 592.608C261.007 592.517 260.797 592.472 260.573 592.472C260.365 592.472 260.154 592.515 259.941 592.6C259.727 592.68 259.546 592.811 259.397 592.992C259.247 593.173 259.173 593.411 259.173 593.704V599H256.845V593.624C256.845 593.373 256.778 593.163 256.645 592.992C256.511 592.821 256.343 592.693 256.141 592.608C255.943 592.517 255.741 592.472 255.533 592.472C255.319 592.472 255.106 592.517 254.893 592.608C254.679 592.693 254.501 592.829 254.357 593.016C254.213 593.197 254.141 593.427 254.141 593.704V599H251.805ZM268.053 595.4C268.047 595.821 268.114 596.189 268.253 596.504C268.391 596.813 268.591 597.053 268.853 597.224C269.119 597.389 269.439 597.472 269.813 597.472C270.213 597.472 270.562 597.387 270.861 597.216C271.165 597.045 271.375 596.765 271.493 596.376H273.597C273.506 596.963 273.271 597.464 272.893 597.88C272.519 598.296 272.066 598.613 271.533 598.832C270.999 599.051 270.445 599.16 269.869 599.16C269.053 599.16 268.333 598.989 267.709 598.648C267.09 598.301 266.607 597.813 266.261 597.184C265.914 596.555 265.741 595.813 265.741 594.96C265.741 594.133 265.898 593.389 266.213 592.728C266.527 592.061 266.983 591.536 267.581 591.152C268.183 590.763 268.906 590.568 269.749 590.568C270.591 590.568 271.298 590.747 271.869 591.104C272.445 591.456 272.877 591.949 273.165 592.584C273.458 593.213 273.605 593.941 273.605 594.768V595.4H268.053ZM268.045 594.008H271.421C271.421 593.677 271.359 593.373 271.237 593.096C271.114 592.819 270.927 592.6 270.677 592.44C270.431 592.28 270.122 592.2 269.749 592.2C269.386 592.2 269.077 592.288 268.821 592.464C268.57 592.635 268.378 592.859 268.245 593.136C268.111 593.413 268.045 593.704 268.045 594.008ZM275.227 599V590.728H277.523V591.896C277.651 591.693 277.816 591.499 278.019 591.312C278.227 591.12 278.488 590.963 278.803 590.84C279.117 590.717 279.491 590.656 279.923 590.656C280.429 590.656 280.901 590.755 281.339 590.952C281.781 591.149 282.139 591.461 282.411 591.888C282.683 592.309 282.819 592.861 282.819 593.544V599H280.483V593.832C280.483 593.384 280.349 593.048 280.083 592.824C279.816 592.6 279.491 592.488 279.107 592.488C278.851 592.488 278.603 592.533 278.363 592.624C278.128 592.715 277.936 592.851 277.787 593.032C277.637 593.213 277.563 593.437 277.563 593.704V599H275.227ZM289.392 592.352H287.552L287.568 596.76C287.568 596.963 287.592 597.115 287.64 597.216C287.693 597.312 287.773 597.376 287.88 597.408C287.992 597.435 288.133 597.448 288.304 597.448H289.416V598.888C289.309 598.936 289.141 598.981 288.912 599.024C288.688 599.067 288.373 599.088 287.968 599.088C287.242 599.088 286.68 598.995 286.28 598.808C285.885 598.621 285.61 598.36 285.456 598.024C285.301 597.688 285.224 597.299 285.224 596.856V592.352H283.88V590.728H285.304L285.888 588.232H287.552V590.72H289.392V592.352Z" fill="white"/>
<rect x="116.25" y="569.25" width="195.5" height="48.5" rx="2.75" stroke="#4A4A4A" stroke-width="2.5"/>
<path d="M53.556 223H50.829L48.714 217.987H46.077V223H43.458V209.986H48.948C49.986 209.986 50.835 210.151 51.495 210.481C52.155 210.811 52.641 211.27 52.953 211.858C53.265 212.44 53.421 213.112 53.421 213.874C53.421 214.558 53.313 215.137 53.097 215.611C52.887 216.079 52.608 216.469 52.26 216.781C51.918 217.093 51.543 217.348 51.135 217.546L53.556 223ZM48.48 215.962C49.182 215.962 49.737 215.773 50.145 215.395C50.559 215.017 50.766 214.531 50.766 213.937C50.766 213.337 50.568 212.863 50.172 212.515C49.776 212.167 49.275 211.993 48.669 211.993H46.077V215.962H48.48ZM57.4842 218.95C57.4782 219.424 57.5532 219.838 57.7092 220.192C57.8652 220.54 58.0902 220.81 58.3842 221.002C58.6842 221.188 59.0442 221.281 59.4642 221.281C59.9142 221.281 60.3072 221.185 60.6432 220.993C60.9852 220.801 61.2222 220.486 61.3542 220.048H63.7212C63.6192 220.708 63.3552 221.272 62.9292 221.74C62.5092 222.208 61.9992 222.565 61.3992 222.811C60.7992 223.057 60.1752 223.18 59.5272 223.18C58.6092 223.18 57.7992 222.988 57.0972 222.604C56.4012 222.214 55.8582 221.665 55.4682 220.957C55.0782 220.249 54.8832 219.415 54.8832 218.455C54.8832 217.525 55.0602 216.688 55.4142 215.944C55.7682 215.194 56.2812 214.603 56.9532 214.171C57.6312 213.733 58.4442 213.514 59.3922 213.514C60.3402 213.514 61.1352 213.715 61.7772 214.117C62.4252 214.513 62.9112 215.068 63.2352 215.782C63.5652 216.49 63.7302 217.309 63.7302 218.239V218.95H57.4842ZM57.4752 217.384H61.2732C61.2732 217.012 61.2042 216.67 61.0662 216.358C60.9282 216.046 60.7182 215.8 60.4362 215.62C60.1602 215.44 59.8122 215.35 59.3922 215.35C58.9842 215.35 58.6362 215.449 58.3482 215.647C58.0662 215.839 57.8502 216.091 57.7002 216.403C57.5502 216.715 57.4752 217.042 57.4752 217.384ZM65.5547 223V213.694H68.1377V215.008C68.2817 214.78 68.4677 214.561 68.6957 214.351C68.9297 214.135 69.2237 213.958 69.5777 213.82C69.9317 213.682 70.3517 213.613 70.8377 213.613C71.4077 213.613 71.9387 213.724 72.4307 213.946C72.9287 214.168 73.3307 214.519 73.6367 214.999C73.9427 215.473 74.0957 216.094 74.0957 216.862V223H71.4677V217.186C71.4677 216.682 71.3177 216.304 71.0177 216.052C70.7177 215.8 70.3517 215.674 69.9197 215.674C69.6317 215.674 69.3527 215.725 69.0827 215.827C68.8187 215.929 68.6027 216.082 68.4347 216.286C68.2667 216.49 68.1827 216.742 68.1827 217.042V223H65.5547ZM81.4903 215.521H79.4203L79.4383 220.48C79.4383 220.708 79.4653 220.879 79.5193 220.993C79.5793 221.101 79.6693 221.173 79.7893 221.209C79.9153 221.239 80.0743 221.254 80.2663 221.254H81.5173V222.874C81.3973 222.928 81.2083 222.979 80.9503 223.027C80.6983 223.075 80.3443 223.099 79.8883 223.099C79.0723 223.099 78.4393 222.994 77.9893 222.784C77.5453 222.574 77.2363 222.28 77.0623 221.902C76.8883 221.524 76.8013 221.086 76.8013 220.588V215.521H75.2893V213.694H76.8913L77.5483 210.886H79.4203V213.685H81.4903V215.521ZM86.1141 223.18C85.5201 223.18 84.9861 223.069 84.5121 222.847C84.0381 222.625 83.6631 222.304 83.3871 221.884C83.1111 221.458 82.9731 220.942 82.9731 220.336C82.9731 219.316 83.3541 218.542 84.1161 218.014C84.8781 217.48 86.0811 217.204 87.7251 217.186L88.8861 217.168V216.61C88.8861 216.184 88.7601 215.857 88.5081 215.629C88.2621 215.395 87.8781 215.281 87.3561 215.287C86.9721 215.293 86.6061 215.383 86.2581 215.557C85.9161 215.731 85.6821 216.034 85.5561 216.466H83.3691C83.4051 215.794 83.6001 215.242 83.9541 214.81C84.3081 214.372 84.7881 214.048 85.3941 213.838C86.0061 213.622 86.6991 213.514 87.4731 213.514C88.4271 213.514 89.1921 213.634 89.7681 213.874C90.3441 214.108 90.7611 214.447 91.0191 214.891C91.2771 215.329 91.4061 215.851 91.4061 216.457V223H89.2101L88.9941 221.398C88.6761 222.07 88.2771 222.535 87.7971 222.793C87.3231 223.051 86.7621 223.18 86.1141 223.18ZM86.9961 221.452C87.2361 221.452 87.4671 221.41 87.6891 221.326C87.9171 221.236 88.1181 221.119 88.2921 220.975C88.4721 220.825 88.6161 220.657 88.7241 220.471C88.8321 220.285 88.8861 220.093 88.8861 219.895V218.518L87.9411 218.536C87.5031 218.542 87.0951 218.596 86.7171 218.698C86.3391 218.794 86.0331 218.953 85.7991 219.175C85.5711 219.397 85.4571 219.697 85.4571 220.075C85.4571 220.507 85.6071 220.846 85.9071 221.092C86.2071 221.332 86.5701 221.452 86.9961 221.452ZM96.7024 223.162C96.0184 223.162 95.4754 223.081 95.0734 222.919C94.6714 222.757 94.3744 222.544 94.1824 222.28C93.9904 222.01 93.8674 221.713 93.8134 221.389C93.7594 221.059 93.7324 220.726 93.7324 220.39V209.626H96.3064V220.066C96.3064 220.408 96.3784 220.687 96.5224 220.903C96.6724 221.113 96.9514 221.242 97.3594 221.29L97.8004 221.317V222.937C97.6204 222.997 97.4374 223.048 97.2514 223.09C97.0654 223.138 96.8824 223.162 96.7024 223.162ZM109.034 209.806C110.012 209.806 110.882 210.004 111.644 210.4C112.412 210.79 113.03 211.324 113.498 212.002C113.972 212.68 114.251 213.445 114.335 214.297H111.581C111.497 213.847 111.344 213.448 111.122 213.1C110.9 212.746 110.609 212.47 110.249 212.272C109.889 212.068 109.457 211.966 108.953 211.966C108.347 211.966 107.825 212.113 107.387 212.407C106.949 212.701 106.613 213.175 106.379 213.829C106.145 214.483 106.028 215.347 106.028 216.421C106.028 218.041 106.286 219.214 106.802 219.94C107.324 220.66 108.041 221.02 108.953 221.02C109.457 221.02 109.889 220.906 110.249 220.678C110.609 220.444 110.9 220.138 111.122 219.76C111.344 219.376 111.497 218.956 111.581 218.5H114.335C114.257 219.118 114.107 219.709 113.885 220.273C113.663 220.831 113.348 221.329 112.94 221.767C112.532 222.205 112.007 222.55 111.365 222.802C110.723 223.054 109.946 223.18 109.034 223.18C107.822 223.18 106.775 222.898 105.893 222.334C105.011 221.77 104.33 220.978 103.85 219.958C103.376 218.938 103.139 217.747 103.139 216.385C103.139 215.017 103.376 213.844 103.85 212.866C104.324 211.882 105.002 211.126 105.884 210.598C106.766 210.07 107.816 209.806 109.034 209.806ZM116.32 223V213.694H118.849V215.899C118.999 215.425 119.209 215.011 119.479 214.657C119.755 214.297 120.088 214.018 120.478 213.82C120.868 213.616 121.309 213.514 121.801 213.514C121.885 213.514 121.963 213.52 122.035 213.532C122.113 213.538 122.17 213.55 122.206 213.568V216.07C122.152 216.046 122.086 216.031 122.008 216.025C121.936 216.019 121.87 216.013 121.81 216.007C121.294 215.965 120.853 215.98 120.487 216.052C120.121 216.124 119.824 216.247 119.596 216.421C119.368 216.595 119.203 216.808 119.101 217.06C118.999 217.312 118.948 217.594 118.948 217.906V223H116.32ZM125.758 218.95C125.752 219.424 125.827 219.838 125.983 220.192C126.139 220.54 126.364 220.81 126.658 221.002C126.958 221.188 127.318 221.281 127.738 221.281C128.188 221.281 128.581 221.185 128.917 220.993C129.259 220.801 129.496 220.486 129.628 220.048H131.995C131.893 220.708 131.629 221.272 131.203 221.74C130.783 222.208 130.273 222.565 129.673 222.811C129.073 223.057 128.449 223.18 127.801 223.18C126.883 223.18 126.073 222.988 125.371 222.604C124.675 222.214 124.132 221.665 123.742 220.957C123.352 220.249 123.157 219.415 123.157 218.455C123.157 217.525 123.334 216.688 123.688 215.944C124.042 215.194 124.555 214.603 125.227 214.171C125.905 213.733 126.718 213.514 127.666 213.514C128.614 213.514 129.409 213.715 130.051 214.117C130.699 214.513 131.185 215.068 131.509 215.782C131.839 216.49 132.004 217.309 132.004 218.239V218.95H125.758ZM125.749 217.384H129.547C129.547 217.012 129.478 216.67 129.34 216.358C129.202 216.046 128.992 215.8 128.71 215.62C128.434 215.44 128.086 215.35 127.666 215.35C127.258 215.35 126.91 215.449 126.622 215.647C126.34 215.839 126.124 216.091 125.974 216.403C125.824 216.715 125.749 217.042 125.749 217.384ZM137.284 223.18C136.036 223.18 135.064 222.751 134.368 221.893C133.672 221.029 133.324 219.829 133.324 218.293C133.324 217.321 133.465 216.478 133.747 215.764C134.029 215.05 134.446 214.498 134.998 214.108C135.55 213.712 136.225 213.514 137.023 213.514C137.359 213.514 137.671 213.553 137.959 213.631C138.253 213.703 138.52 213.805 138.76 213.937C139 214.069 139.21 214.222 139.39 214.396C139.57 214.57 139.717 214.756 139.831 214.954V209.626H142.468V223H140.56L140.263 221.092C140.179 221.35 140.062 221.602 139.912 221.848C139.762 222.094 139.57 222.319 139.336 222.523C139.102 222.721 138.814 222.88 138.472 223C138.136 223.12 137.74 223.18 137.284 223.18ZM137.86 221.29C138.52 221.29 139.012 221.059 139.336 220.597C139.666 220.135 139.831 219.355 139.831 218.257C139.825 217.621 139.75 217.093 139.606 216.673C139.462 216.253 139.246 215.941 138.958 215.737C138.676 215.527 138.316 215.422 137.878 215.422C137.308 215.422 136.834 215.641 136.456 216.079C136.078 216.511 135.889 217.237 135.889 218.257C135.889 219.295 136.066 220.06 136.42 220.552C136.774 221.044 137.254 221.29 137.86 221.29ZM147.425 213.694V223H144.914V213.694H147.425ZM147.452 209.995V212.362H144.896V209.995H147.452ZM155.477 215.521H153.407L153.425 220.48C153.425 220.708 153.452 220.879 153.506 220.993C153.566 221.101 153.656 221.173 153.776 221.209C153.902 221.239 154.061 221.254 154.253 221.254H155.504V222.874C155.384 222.928 155.195 222.979 154.937 223.027C154.685 223.075 154.331 223.099 153.875 223.099C153.059 223.099 152.426 222.994 151.976 222.784C151.532 222.574 151.223 222.28 151.049 221.902C150.875 221.524 150.788 221.086 150.788 220.588V215.521H149.276V213.694H150.878L151.535 210.886H153.407V213.685H155.477V215.521Z" fill="#3E3E3E"/>
<path d="M50.944 264.864H45.344V270H43.4V258.432H45.344V263.208H50.944V258.432H52.888V270H50.944V264.864ZM57.3933 261.728V270H55.5213V261.728H57.3933ZM57.4173 258.44V260.28H55.4893V258.44H57.4173ZM59.8228 270V261.728H61.6868V263.52C61.8201 263.109 62.0094 262.76 62.2548 262.472C62.5054 262.179 62.7988 261.955 63.1348 261.8C63.4708 261.645 63.8361 261.568 64.2308 261.568C64.3268 261.568 64.4201 261.573 64.5108 261.584C64.6014 261.595 64.6681 261.613 64.7108 261.64V263.504C64.6521 263.477 64.5748 263.459 64.4788 263.448C64.3881 263.437 64.3081 263.432 64.2388 263.432C63.8388 263.4 63.4841 263.416 63.1748 263.48C62.8708 263.544 62.6121 263.653 62.3988 263.808C62.1908 263.957 62.0334 264.149 61.9268 264.384C61.8201 264.613 61.7668 264.883 61.7668 265.192V270H59.8228ZM68.2058 261.728V270H66.3338V261.728H68.2058ZM68.2298 258.44V260.28H66.3018V258.44H68.2298ZM70.6353 270V261.728H72.5393V262.912C72.6673 262.699 72.8406 262.493 73.0593 262.296C73.2833 262.099 73.5579 261.939 73.8833 261.816C74.2086 261.693 74.5899 261.632 75.0273 261.632C75.5393 261.632 76.0139 261.733 76.4513 261.936C76.8939 262.139 77.2486 262.456 77.5153 262.888C77.7873 263.32 77.9233 263.877 77.9233 264.56V270H75.9713V264.792C75.9713 264.248 75.8219 263.845 75.5233 263.584C75.2246 263.317 74.8486 263.184 74.3953 263.184C74.0859 263.184 73.7926 263.237 73.5153 263.344C73.2379 263.445 73.0113 263.603 72.8353 263.816C72.6646 264.024 72.5793 264.285 72.5793 264.6V270H70.6353ZM83.6823 272.736C82.2903 272.736 81.2209 272.549 80.4743 272.176C79.7276 271.803 79.3543 271.291 79.3543 270.64C79.3543 270.347 79.4263 270.101 79.5703 269.904C79.7143 269.707 79.8849 269.544 80.0822 269.416C80.2796 269.288 80.4609 269.189 80.6263 269.12C80.7916 269.051 80.8983 269 80.9463 268.968C80.8556 268.915 80.7356 268.845 80.5863 268.76C80.4369 268.675 80.3009 268.557 80.1783 268.408C80.0609 268.259 80.0023 268.064 80.0023 267.824C80.0023 267.547 80.1329 267.291 80.3943 267.056C80.6609 266.821 81.0583 266.653 81.5863 266.552C81.0689 266.301 80.6716 265.963 80.3943 265.536C80.1169 265.109 79.9783 264.667 79.9783 264.208C79.9783 263.664 80.1356 263.197 80.4503 262.808C80.7703 262.419 81.2129 262.12 81.7783 261.912C82.3489 261.704 83.0076 261.6 83.7543 261.6C84.3089 261.6 84.7676 261.661 85.1303 261.784C85.4929 261.907 85.8316 262.072 86.1463 262.28C86.2529 262.237 86.4023 262.179 86.5943 262.104C86.7916 262.024 87.0049 261.939 87.2343 261.848C87.4636 261.752 87.6823 261.661 87.8903 261.576C88.1036 261.485 88.2849 261.411 88.4343 261.352L88.4183 262.96L86.9862 263.216C87.0556 263.371 87.1089 263.539 87.1463 263.72C87.1889 263.901 87.2103 264.061 87.2103 264.2C87.2103 264.68 87.0743 265.125 86.8023 265.536C86.5356 265.941 86.1329 266.267 85.5943 266.512C85.0609 266.757 84.3943 266.88 83.5943 266.88C83.5143 266.88 83.4049 266.877 83.2663 266.872C83.1276 266.867 83.0156 266.861 82.9303 266.856C82.4983 266.872 82.2023 266.923 82.0423 267.008C81.8823 267.093 81.8023 267.187 81.8023 267.288C81.8023 267.432 81.9223 267.528 82.1623 267.576C82.4023 267.624 82.7863 267.667 83.3142 267.704C83.5009 267.715 83.7463 267.728 84.0503 267.744C84.3543 267.76 84.6929 267.781 85.0663 267.808C86.0103 267.867 86.7249 268.104 87.2103 268.52C87.6956 268.931 87.9383 269.464 87.9383 270.12C87.9383 270.883 87.5863 271.509 86.8823 272C86.1783 272.491 85.1116 272.736 83.6823 272.736ZM84.0103 271.592C84.7089 271.592 85.2263 271.496 85.5623 271.304C85.8983 271.112 86.0663 270.829 86.0663 270.456C86.0663 270.168 85.9516 269.933 85.7223 269.752C85.4929 269.571 85.1516 269.464 84.6983 269.432L82.6103 269.304C82.3809 269.288 82.1623 269.331 81.9543 269.432C81.7516 269.528 81.5863 269.664 81.4583 269.84C81.3303 270.011 81.2663 270.2 81.2663 270.408C81.2663 270.797 81.4903 271.091 81.9383 271.288C82.3863 271.491 83.0769 271.592 84.0103 271.592ZM83.6583 265.736C84.1649 265.736 84.5756 265.608 84.8903 265.352C85.2049 265.091 85.3623 264.723 85.3623 264.248C85.3623 263.757 85.2049 263.376 84.8903 263.104C84.5756 262.827 84.1649 262.688 83.6583 262.688C83.1409 262.688 82.7223 262.827 82.4023 263.104C82.0876 263.381 81.9303 263.763 81.9303 264.248C81.9303 264.707 82.0823 265.069 82.3863 265.336C82.6903 265.603 83.1143 265.736 83.6583 265.736ZM98.1518 263.104H96.3038L96.3118 267.848C96.3118 268.093 96.3384 268.275 96.3918 268.392C96.4504 268.504 96.5411 268.579 96.6638 268.616C96.7918 268.648 96.9624 268.664 97.1758 268.664H98.1918V269.896C98.0851 269.939 97.9224 269.976 97.7038 270.008C97.4904 270.045 97.2024 270.064 96.8398 270.064C96.1838 270.064 95.6744 269.979 95.3118 269.808C94.9544 269.632 94.7064 269.384 94.5678 269.064C94.4291 268.744 94.3598 268.363 94.3598 267.92V263.104H93.0158V261.728H94.4158L94.9038 259.272H96.3038V261.72H98.1518V263.104ZM100.057 270V258.112H101.977V262.928C102.11 262.72 102.286 262.52 102.505 262.328C102.724 262.131 102.99 261.971 103.305 261.848C103.625 261.72 104.006 261.656 104.449 261.656C104.977 261.656 105.46 261.757 105.897 261.96C106.334 262.163 106.684 262.456 106.945 262.84C107.206 263.219 107.337 263.672 107.337 264.2V270H105.385V264.528C105.385 264.101 105.233 263.771 104.929 263.536C104.63 263.301 104.252 263.184 103.793 263.184C103.489 263.184 103.198 263.237 102.921 263.344C102.644 263.451 102.42 263.611 102.249 263.824C102.084 264.032 102.001 264.293 102.001 264.608V270H100.057ZM111.425 261.728V270H109.553V261.728H111.425ZM111.449 258.44V260.28H109.521V258.44H111.449ZM116.888 270.16C116.312 270.16 115.765 270.069 115.248 269.888C114.736 269.701 114.304 269.411 113.952 269.016C113.605 268.621 113.387 268.112 113.296 267.488H115.008C115.083 267.792 115.213 268.04 115.4 268.232C115.592 268.424 115.819 268.565 116.08 268.656C116.341 268.741 116.608 268.784 116.88 268.784C117.376 268.784 117.776 268.699 118.08 268.528C118.389 268.357 118.544 268.093 118.544 267.736C118.544 267.475 118.459 267.267 118.288 267.112C118.117 266.957 117.845 266.84 117.472 266.76L115.896 266.4C115.197 266.245 114.635 265.989 114.208 265.632C113.787 265.275 113.573 264.771 113.568 264.12C113.563 263.629 113.685 263.192 113.936 262.808C114.187 262.424 114.56 262.123 115.056 261.904C115.552 261.68 116.165 261.568 116.896 261.568C117.861 261.568 118.635 261.784 119.216 262.216C119.797 262.643 120.096 263.253 120.112 264.048H118.456C118.397 263.691 118.229 263.413 117.952 263.216C117.675 263.013 117.315 262.912 116.872 262.912C116.413 262.912 116.037 263 115.744 263.176C115.451 263.352 115.304 263.621 115.304 263.984C115.304 264.235 115.416 264.432 115.64 264.576C115.864 264.72 116.2 264.843 116.648 264.944L118.136 265.304C118.563 265.411 118.912 265.555 119.184 265.736C119.456 265.917 119.669 266.117 119.824 266.336C119.979 266.549 120.085 266.771 120.144 267C120.208 267.224 120.24 267.432 120.24 267.624C120.24 268.157 120.101 268.613 119.824 268.992C119.552 269.365 119.165 269.653 118.664 269.856C118.163 270.059 117.571 270.16 116.888 270.16ZM127.534 261.728V270H125.662V261.728H127.534ZM127.558 258.44V260.28H125.63V258.44H127.558ZM134.589 263.104H132.741L132.749 267.848C132.749 268.093 132.776 268.275 132.829 268.392C132.888 268.504 132.979 268.579 133.101 268.616C133.229 268.648 133.4 268.664 133.613 268.664H134.629V269.896C134.523 269.939 134.36 269.976 134.141 270.008C133.928 270.045 133.64 270.064 133.277 270.064C132.621 270.064 132.112 269.979 131.749 269.808C131.392 269.632 131.144 269.384 131.005 269.064C130.867 268.744 130.797 268.363 130.797 267.92V263.104H129.453V261.728H130.853L131.341 259.272H132.741V261.72H134.589V263.104ZM137.788 266.312C137.783 266.781 137.858 267.197 138.012 267.56C138.167 267.923 138.396 268.208 138.7 268.416C139.004 268.619 139.38 268.72 139.828 268.72C140.287 268.72 140.684 268.619 141.02 268.416C141.362 268.208 141.588 267.893 141.7 267.472H143.484C143.388 268.048 143.159 268.536 142.796 268.936C142.434 269.336 141.994 269.64 141.476 269.848C140.964 270.056 140.431 270.16 139.876 270.16C139.076 270.16 138.372 269.992 137.764 269.656C137.162 269.315 136.69 268.829 136.348 268.2C136.012 267.571 135.844 266.821 135.844 265.952C135.844 265.104 135.999 264.352 136.308 263.696C136.618 263.035 137.063 262.515 137.644 262.136C138.231 261.757 138.935 261.568 139.756 261.568C140.572 261.568 141.258 261.741 141.812 262.088C142.372 262.435 142.794 262.92 143.076 263.544C143.364 264.163 143.508 264.888 143.508 265.72V266.312H137.788ZM137.788 265.104H141.668C141.668 264.704 141.599 264.344 141.46 264.024C141.322 263.699 141.108 263.443 140.82 263.256C140.538 263.064 140.18 262.968 139.748 262.968C139.322 262.968 138.962 263.072 138.668 263.28C138.375 263.488 138.154 263.757 138.004 264.088C137.855 264.413 137.783 264.752 137.788 265.104ZM145.323 270V261.728H147.219V262.912C147.459 262.549 147.784 262.235 148.195 261.968C148.611 261.701 149.139 261.568 149.779 261.568C150.072 261.568 150.368 261.619 150.667 261.72C150.971 261.821 151.251 261.971 151.507 262.168C151.768 262.365 151.976 262.611 152.131 262.904C152.392 262.515 152.739 262.195 153.171 261.944C153.608 261.693 154.099 261.568 154.643 261.568C154.941 261.568 155.248 261.616 155.563 261.712C155.883 261.808 156.176 261.968 156.443 262.192C156.709 262.416 156.925 262.723 157.091 263.112C157.256 263.496 157.339 263.979 157.339 264.56V270H155.395V264.792C155.395 264.381 155.323 264.059 155.179 263.824C155.035 263.589 154.848 263.424 154.619 263.328C154.395 263.227 154.155 263.176 153.899 263.176C153.669 263.176 153.429 263.221 153.179 263.312C152.933 263.403 152.723 263.552 152.547 263.76C152.376 263.968 152.291 264.248 152.291 264.6V270H150.347V264.48C150.347 264.192 150.272 263.952 150.123 263.76C149.973 263.568 149.784 263.424 149.555 263.328C149.331 263.227 149.101 263.176 148.867 263.176C148.627 263.176 148.381 263.227 148.131 263.328C147.885 263.429 147.68 263.584 147.515 263.792C147.349 264 147.267 264.269 147.267 264.6V270H145.323ZM174.053 261.728L171.429 270H169.749L168.053 264.488L166.397 270H164.757L162.133 261.728H163.885L165.613 267.416H165.701L167.373 261.728H168.797L170.517 267.408H170.605L172.269 261.728H174.053ZM177.518 261.728V270H175.646V261.728H177.518ZM177.542 258.44V260.28H175.614V258.44H177.542ZM182.332 270.12C181.798 270.12 181.372 270.053 181.052 269.92C180.732 269.787 180.492 269.608 180.332 269.384C180.172 269.16 180.068 268.909 180.02 268.632C179.972 268.349 179.948 268.061 179.948 267.768V258.112H181.852V267.544C181.852 267.901 181.924 268.179 182.068 268.376C182.217 268.573 182.457 268.688 182.788 268.72L183.204 268.736V269.96C183.06 270.003 182.913 270.04 182.764 270.072C182.614 270.104 182.47 270.12 182.332 270.12ZM187.097 270.12C186.564 270.12 186.137 270.053 185.817 269.92C185.497 269.787 185.257 269.608 185.097 269.384C184.937 269.16 184.833 268.909 184.785 268.632C184.737 268.349 184.713 268.061 184.713 267.768V258.112H186.617V267.544C186.617 267.901 186.689 268.179 186.833 268.376C186.983 268.573 187.223 268.688 187.553 268.72L187.969 268.736V269.96C187.825 270.003 187.679 270.04 187.529 270.072C187.38 270.104 187.236 270.12 187.097 270.12ZM194.632 266.312C194.627 266.781 194.701 267.197 194.856 267.56C195.011 267.923 195.24 268.208 195.544 268.416C195.848 268.619 196.224 268.72 196.672 268.72C197.131 268.72 197.528 268.619 197.864 268.416C198.205 268.208 198.432 267.893 198.544 267.472H200.328C200.232 268.048 200.003 268.536 199.64 268.936C199.277 269.336 198.837 269.64 198.32 269.848C197.808 270.056 197.275 270.16 196.72 270.16C195.92 270.16 195.216 269.992 194.608 269.656C194.005 269.315 193.533 268.829 193.192 268.2C192.856 267.571 192.688 266.821 192.688 265.952C192.688 265.104 192.843 264.352 193.152 263.696C193.461 263.035 193.907 262.515 194.488 262.136C195.075 261.757 195.779 261.568 196.6 261.568C197.416 261.568 198.101 261.741 198.656 262.088C199.216 262.435 199.637 262.92 199.92 263.544C200.208 264.163 200.352 264.888 200.352 265.72V266.312H194.632ZM194.632 265.104H198.512C198.512 264.704 198.443 264.344 198.304 264.024C198.165 263.699 197.952 263.443 197.664 263.256C197.381 263.064 197.024 262.968 196.592 262.968C196.165 262.968 195.805 263.072 195.512 263.28C195.219 263.488 194.997 263.757 194.848 264.088C194.699 264.413 194.627 264.752 194.632 265.104ZM204.432 270.16C203.904 270.16 203.43 270.064 203.008 269.872C202.592 269.675 202.264 269.395 202.024 269.032C201.79 268.664 201.672 268.219 201.672 267.696C201.672 266.784 202 266.096 202.656 265.632C203.318 265.168 204.371 264.925 205.816 264.904L207.048 264.872V264.312C207.048 263.875 206.918 263.533 206.656 263.288C206.4 263.037 206 262.915 205.456 262.92C205.056 262.925 204.688 263.021 204.352 263.208C204.022 263.389 203.803 263.696 203.696 264.128H202.04C202.072 263.563 202.235 263.091 202.528 262.712C202.827 262.328 203.235 262.043 203.752 261.856C204.27 261.664 204.867 261.568 205.544 261.568C206.334 261.568 206.976 261.672 207.472 261.88C207.968 262.088 208.334 262.389 208.568 262.784C208.803 263.173 208.92 263.645 208.92 264.2V270H207.28L207.128 268.512C206.83 269.136 206.451 269.568 205.992 269.808C205.539 270.043 205.019 270.16 204.432 270.16ZM205.064 268.84C205.304 268.84 205.542 268.797 205.776 268.712C206.011 268.621 206.224 268.501 206.416 268.352C206.608 268.197 206.76 268.027 206.872 267.84C206.99 267.653 207.048 267.459 207.048 267.256V265.952L206.032 265.968C205.531 265.973 205.094 266.027 204.72 266.128C204.347 266.229 204.054 266.392 203.84 266.616C203.632 266.835 203.528 267.128 203.528 267.496C203.528 267.917 203.675 268.248 203.968 268.488C204.262 268.723 204.627 268.84 205.064 268.84ZM211.198 270V261.728H213.062V263.52C213.195 263.109 213.384 262.76 213.63 262.472C213.88 262.179 214.174 261.955 214.51 261.8C214.846 261.645 215.211 261.568 215.606 261.568C215.702 261.568 215.795 261.573 215.886 261.584C215.976 261.595 216.043 261.613 216.086 261.64V263.504C216.027 263.477 215.95 263.459 215.854 263.448C215.763 263.437 215.683 263.432 215.614 263.432C215.214 263.4 214.859 263.416 214.55 263.48C214.246 263.544 213.987 263.653 213.774 263.808C213.566 263.957 213.408 264.149 213.302 264.384C213.195 264.613 213.142 264.883 213.142 265.192V270H211.198ZM217.573 270V261.728H219.477V262.912C219.605 262.699 219.778 262.493 219.997 262.296C220.221 262.099 220.495 261.939 220.821 261.816C221.146 261.693 221.527 261.632 221.965 261.632C222.477 261.632 222.951 261.733 223.389 261.936C223.831 262.139 224.186 262.456 224.453 262.888C224.725 263.32 224.861 263.877 224.861 264.56V270H222.909V264.792C222.909 264.248 222.759 263.845 222.461 263.584C222.162 263.317 221.786 263.184 221.333 263.184C221.023 263.184 220.73 263.237 220.453 263.344C220.175 263.445 219.949 263.603 219.773 263.816C219.602 264.024 219.517 264.285 219.517 264.6V270H217.573ZM231.473 272.64C230.945 272.64 230.574 272.597 230.361 272.512C230.153 272.432 230.049 272.392 230.049 272.392V271.144L230.881 271.168C231.217 271.184 231.489 271.165 231.697 271.112C231.91 271.059 232.076 270.984 232.193 270.888C232.31 270.797 232.396 270.699 232.449 270.592C232.508 270.491 232.553 270.403 232.585 270.328L232.801 269.72L229.577 261.728H231.521L233.713 267.576L235.905 261.728H237.809L234.401 270.304C234.145 270.928 233.868 271.408 233.569 271.744C233.276 272.085 232.953 272.32 232.601 272.448C232.254 272.576 231.878 272.64 231.473 272.64ZM242.317 270.16C241.528 270.16 240.84 269.992 240.253 269.656C239.667 269.315 239.211 268.827 238.885 268.192C238.565 267.557 238.405 266.795 238.405 265.904C238.405 265.04 238.56 264.283 238.869 263.632C239.184 262.981 239.635 262.475 240.221 262.112C240.808 261.749 241.509 261.568 242.325 261.568C243.115 261.568 243.8 261.741 244.381 262.088C244.963 262.435 245.411 262.931 245.725 263.576C246.045 264.221 246.205 264.997 246.205 265.904C246.205 266.741 246.053 267.48 245.749 268.12C245.451 268.755 245.011 269.253 244.429 269.616C243.853 269.979 243.149 270.16 242.317 270.16ZM242.325 268.68C242.773 268.68 243.141 268.557 243.429 268.312C243.723 268.067 243.939 267.731 244.077 267.304C244.221 266.877 244.293 266.392 244.293 265.848C244.293 265.341 244.229 264.875 244.101 264.448C243.979 264.021 243.771 263.68 243.477 263.424C243.189 263.163 242.805 263.032 242.325 263.032C241.872 263.032 241.496 263.152 241.197 263.392C240.904 263.627 240.683 263.957 240.533 264.384C240.389 264.805 240.317 265.293 240.317 265.848C240.317 266.349 240.381 266.816 240.509 267.248C240.643 267.675 240.856 268.021 241.149 268.288C241.443 268.549 241.835 268.68 242.325 268.68ZM250.863 270.16C250.457 270.16 250.065 270.101 249.687 269.984C249.313 269.861 248.977 269.685 248.679 269.456C248.38 269.221 248.143 268.933 247.967 268.592C247.791 268.251 247.703 267.853 247.703 267.4V261.728H249.655V267.176C249.655 267.624 249.796 267.992 250.079 268.28C250.367 268.568 250.799 268.712 251.375 268.712C251.897 268.712 252.316 268.576 252.631 268.304C252.945 268.027 253.103 267.629 253.103 267.112V261.728H255.039V270H253.543L253.327 268.384C253.225 268.837 253.047 269.195 252.791 269.456C252.54 269.712 252.244 269.893 251.903 270C251.567 270.107 251.22 270.16 250.863 270.16ZM264.358 270.176C263.638 270.176 262.966 270.037 262.342 269.76C261.718 269.483 261.209 269.093 260.814 268.592C260.42 268.085 260.198 267.493 260.15 266.816H262.374C262.47 267.264 262.684 267.629 263.014 267.912C263.345 268.189 263.761 268.328 264.262 268.328C264.817 268.328 265.302 268.197 265.718 267.936C266.14 267.675 266.454 267.259 266.662 266.688C266.876 266.117 266.95 265.371 266.886 264.448C266.737 264.731 266.529 264.979 266.262 265.192C266.001 265.4 265.694 265.563 265.342 265.68C264.99 265.792 264.598 265.848 264.166 265.848C263.382 265.848 262.686 265.701 262.078 265.408C261.476 265.109 261.001 264.688 260.654 264.144C260.313 263.595 260.142 262.944 260.142 262.192C260.142 261.435 260.324 260.76 260.686 260.168C261.049 259.576 261.556 259.112 262.206 258.776C262.857 258.44 263.62 258.272 264.494 258.272C265.476 258.272 266.321 258.507 267.03 258.976C267.745 259.44 268.292 260.101 268.67 260.96C269.054 261.813 269.246 262.819 269.246 263.976C269.246 265.357 269.049 266.509 268.654 267.432C268.265 268.349 267.705 269.037 266.974 269.496C266.244 269.949 265.372 270.176 264.358 270.176ZM264.566 263.992C264.892 263.992 265.206 263.92 265.51 263.776C265.82 263.627 266.073 263.44 266.27 263.216C266.468 262.992 266.566 262.76 266.566 262.52C266.572 262.003 266.489 261.56 266.318 261.192C266.153 260.819 265.918 260.533 265.614 260.336C265.316 260.139 264.966 260.04 264.566 260.04C264.198 260.04 263.87 260.125 263.582 260.296C263.294 260.467 263.068 260.707 262.902 261.016C262.737 261.325 262.654 261.683 262.654 262.088C262.654 262.691 262.83 263.16 263.182 263.496C263.534 263.827 263.996 263.992 264.566 263.992ZM275.074 258.272C276.45 258.272 277.536 258.787 278.33 259.816C279.125 260.84 279.522 262.315 279.522 264.24C279.522 266.155 279.13 267.624 278.346 268.648C277.562 269.667 276.472 270.176 275.074 270.176C273.672 270.176 272.576 269.667 271.786 268.648C271.002 267.629 270.61 266.163 270.61 264.248C270.61 262.968 270.792 261.883 271.154 260.992C271.517 260.101 272.032 259.427 272.698 258.968C273.365 258.504 274.157 258.272 275.074 258.272ZM275.074 268.264C275.762 268.264 276.266 267.957 276.586 267.344C276.906 266.725 277.066 265.693 277.066 264.248C277.066 262.771 276.904 261.712 276.578 261.072C276.253 260.432 275.749 260.112 275.066 260.112C274.384 260.112 273.874 260.435 273.538 261.08C273.208 261.725 273.042 262.781 273.042 264.248C273.042 265.688 273.208 266.717 273.538 267.336C273.869 267.955 274.381 268.264 275.074 268.264ZM284.609 272.576V261.728H286.953L286.961 262.92C287.084 262.723 287.233 262.544 287.409 262.384C287.591 262.219 287.791 262.075 288.009 261.952C288.228 261.829 288.465 261.736 288.721 261.672C288.977 261.603 289.247 261.568 289.529 261.568C290.143 261.568 290.689 261.72 291.169 262.024C291.649 262.323 292.025 262.787 292.297 263.416C292.575 264.04 292.713 264.835 292.713 265.8C292.713 266.803 292.564 267.627 292.265 268.272C291.972 268.912 291.567 269.387 291.049 269.696C290.532 270.005 289.948 270.16 289.297 270.16C289.031 270.16 288.78 270.123 288.545 270.048C288.311 269.979 288.092 269.88 287.889 269.752C287.692 269.624 287.513 269.477 287.353 269.312C287.199 269.141 287.063 268.957 286.945 268.76V272.576H284.609ZM288.737 268.448C289.244 268.448 289.668 268.237 290.009 267.816C290.356 267.395 290.529 266.728 290.529 265.816C290.529 265.016 290.364 264.392 290.033 263.944C289.708 263.491 289.276 263.264 288.737 263.264C288.135 263.264 287.684 263.509 287.385 264C287.092 264.485 286.945 265.091 286.945 265.816C286.945 266.28 287.009 266.712 287.137 267.112C287.271 267.512 287.468 267.835 287.729 268.08C287.996 268.325 288.332 268.448 288.737 268.448ZM297.818 270.16C297.007 270.16 296.3 269.987 295.698 269.64C295.1 269.293 294.636 268.803 294.306 268.168C293.98 267.533 293.818 266.781 293.818 265.912C293.818 265.043 293.98 264.283 294.306 263.632C294.636 262.981 295.1 262.475 295.698 262.112C296.3 261.749 297.01 261.568 297.826 261.568C298.642 261.568 299.348 261.747 299.946 262.104C300.543 262.456 301.004 262.957 301.33 263.608C301.655 264.259 301.818 265.027 301.818 265.912C301.818 266.744 301.658 267.48 301.338 268.12C301.023 268.755 300.567 269.253 299.97 269.616C299.378 269.979 298.66 270.16 297.818 270.16ZM297.826 268.424C298.236 268.424 298.567 268.304 298.818 268.064C299.068 267.824 299.25 267.509 299.362 267.12C299.479 266.725 299.538 266.296 299.538 265.832C299.538 265.395 299.484 264.981 299.378 264.592C299.276 264.203 299.1 263.888 298.85 263.648C298.599 263.408 298.258 263.288 297.826 263.288C297.415 263.288 297.082 263.403 296.826 263.632C296.575 263.856 296.391 264.163 296.274 264.552C296.156 264.936 296.098 265.363 296.098 265.832C296.098 266.264 296.151 266.68 296.258 267.08C296.364 267.475 296.543 267.797 296.794 268.048C297.044 268.299 297.388 268.424 297.826 268.424ZM305.727 261.728V270H303.495V261.728H305.727ZM305.751 258.44V260.544H303.479V258.44H305.751ZM307.891 270V261.728H310.187V262.896C310.315 262.693 310.48 262.499 310.683 262.312C310.891 262.12 311.152 261.963 311.467 261.84C311.781 261.717 312.155 261.656 312.587 261.656C313.093 261.656 313.565 261.755 314.003 261.952C314.445 262.149 314.803 262.461 315.075 262.888C315.347 263.309 315.483 263.861 315.483 264.544V270H313.147V264.832C313.147 264.384 313.013 264.048 312.747 263.824C312.48 263.6 312.155 263.488 311.771 263.488C311.515 263.488 311.267 263.533 311.027 263.624C310.792 263.715 310.6 263.851 310.451 264.032C310.301 264.213 310.227 264.437 310.227 264.704V270H307.891ZM322.056 263.352H320.216L320.232 267.76C320.232 267.963 320.256 268.115 320.304 268.216C320.357 268.312 320.437 268.376 320.544 268.408C320.656 268.435 320.797 268.448 320.968 268.448H322.08V269.888C321.973 269.936 321.805 269.981 321.576 270.024C321.352 270.067 321.037 270.088 320.632 270.088C319.906 270.088 319.344 269.995 318.944 269.808C318.549 269.621 318.274 269.36 318.12 269.024C317.965 268.688 317.888 268.299 317.888 267.856V263.352H316.544V261.728H317.968L318.552 259.232H320.216V261.72H322.056V263.352ZM326.991 270.16C326.415 270.16 325.86 270.067 325.327 269.88C324.793 269.688 324.343 269.389 323.975 268.984C323.607 268.573 323.372 268.043 323.271 267.392H325.295C325.364 267.685 325.489 267.917 325.671 268.088C325.857 268.259 326.068 268.381 326.303 268.456C326.537 268.525 326.761 268.56 326.975 268.56C327.423 268.56 327.783 268.491 328.055 268.352C328.332 268.208 328.471 267.989 328.471 267.696C328.471 267.472 328.388 267.293 328.223 267.16C328.063 267.027 327.796 266.925 327.423 266.856L325.967 266.552C325.236 266.397 324.649 266.136 324.207 265.768C323.764 265.395 323.537 264.867 323.527 264.184C323.527 263.688 323.657 263.243 323.919 262.848C324.185 262.453 324.577 262.141 325.095 261.912C325.612 261.683 326.247 261.568 326.999 261.568C328.017 261.568 328.831 261.792 329.439 262.24C330.052 262.688 330.364 263.32 330.375 264.136H328.423C328.364 263.816 328.204 263.571 327.943 263.4C327.687 263.224 327.364 263.136 326.975 263.136C326.569 263.136 326.236 263.208 325.975 263.352C325.713 263.496 325.583 263.715 325.583 264.008C325.583 264.227 325.689 264.4 325.903 264.528C326.116 264.651 326.447 264.757 326.895 264.848L328.239 265.152C328.703 265.264 329.079 265.419 329.367 265.616C329.66 265.808 329.887 266.019 330.047 266.248C330.207 266.477 330.316 266.709 330.375 266.944C330.439 267.173 330.471 267.381 330.471 267.568C330.471 268.117 330.324 268.587 330.031 268.976C329.737 269.36 329.329 269.653 328.807 269.856C328.284 270.059 327.679 270.16 326.991 270.16Z" fill="#3E3E3E"/>
<rect x="44" y="355" width="326" height="50" rx="6" fill="#FCFCFC" stroke="white" stroke-width="4"/>
<path d="M43.296 337V325.432H47.552C48.3947 325.432 49.1493 325.579 49.816 325.872C50.4827 326.16 51.008 326.587 51.392 327.152C51.7813 327.717 51.976 328.408 51.976 329.224C51.976 329.992 51.8053 330.648 51.464 331.192C51.1227 331.736 50.6427 332.152 50.024 332.44C49.4107 332.728 48.688 332.872 47.856 332.872H45.648V337H43.296ZM45.624 331.064H47.792C48.3787 331.064 48.8587 330.877 49.232 330.504C49.6053 330.125 49.792 329.659 49.792 329.104C49.792 328.528 49.5947 328.072 49.2 327.736C48.8053 327.395 48.3253 327.224 47.76 327.224H45.624V331.064ZM53.4375 337V328.728H55.6855V330.688C55.8188 330.267 56.0055 329.899 56.2455 329.584C56.4908 329.264 56.7868 329.016 57.1335 328.84C57.4802 328.659 57.8722 328.568 58.3095 328.568C58.3842 328.568 58.4535 328.573 58.5175 328.584C58.5868 328.589 58.6375 328.6 58.6695 328.616V330.84C58.6215 330.819 58.5628 330.805 58.4935 330.8C58.4295 330.795 58.3708 330.789 58.3175 330.784C57.8588 330.747 57.4668 330.76 57.1415 330.824C56.8162 330.888 56.5522 330.997 56.3495 331.152C56.1468 331.307 56.0002 331.496 55.9095 331.72C55.8188 331.944 55.7735 332.195 55.7735 332.472V337H53.4375ZM63.4583 337.16C62.6476 337.16 61.9409 336.987 61.3383 336.64C60.7409 336.293 60.2769 335.803 59.9463 335.168C59.6209 334.533 59.4583 333.781 59.4583 332.912C59.4583 332.043 59.6209 331.283 59.9463 330.632C60.2769 329.981 60.7409 329.475 61.3383 329.112C61.9409 328.749 62.6503 328.568 63.4663 328.568C64.2823 328.568 64.9889 328.747 65.5863 329.104C66.1836 329.456 66.6449 329.957 66.9703 330.608C67.2956 331.259 67.4583 332.027 67.4583 332.912C67.4583 333.744 67.2983 334.48 66.9783 335.12C66.6636 335.755 66.2076 336.253 65.6103 336.616C65.0183 336.979 64.3009 337.16 63.4583 337.16ZM63.4663 335.424C63.8769 335.424 64.2076 335.304 64.4583 335.064C64.7089 334.824 64.8903 334.509 65.0023 334.12C65.1196 333.725 65.1783 333.296 65.1783 332.832C65.1783 332.395 65.1249 331.981 65.0183 331.592C64.9169 331.203 64.7409 330.888 64.4903 330.648C64.2396 330.408 63.8983 330.288 63.4663 330.288C63.0556 330.288 62.7223 330.403 62.4663 330.632C62.2156 330.856 62.0316 331.163 61.9143 331.552C61.7969 331.936 61.7383 332.363 61.7383 332.832C61.7383 333.264 61.7916 333.68 61.8983 334.08C62.0049 334.475 62.1836 334.797 62.4343 335.048C62.6849 335.299 63.0289 335.424 63.4663 335.424ZM69.0156 337V328.728H71.3036V329.896C71.5543 329.533 71.8903 329.221 72.3116 328.96C72.7383 328.699 73.2743 328.568 73.9196 328.568C74.2023 328.568 74.4903 328.619 74.7836 328.72C75.077 328.821 75.3516 328.971 75.6076 329.168C75.869 329.36 76.0796 329.603 76.2396 329.896C76.5063 329.517 76.8556 329.203 77.2876 328.952C77.725 328.696 78.2103 328.568 78.7436 328.568C79.053 328.568 79.365 328.619 79.6796 328.72C79.9996 328.821 80.293 328.987 80.5596 329.216C80.8263 329.445 81.0396 329.752 81.1996 330.136C81.365 330.515 81.4476 330.984 81.4476 331.544V337H79.1116V331.832C79.1116 331.501 79.045 331.237 78.9116 331.04C78.7836 330.837 78.6183 330.693 78.4156 330.608C78.2183 330.517 78.0076 330.472 77.7836 330.472C77.5756 330.472 77.365 330.515 77.1516 330.6C76.9383 330.68 76.757 330.811 76.6076 330.992C76.4583 331.173 76.3836 331.411 76.3836 331.704V337H74.0556V331.624C74.0556 331.373 73.989 331.163 73.8556 330.992C73.7223 330.821 73.5543 330.693 73.3516 330.608C73.1543 330.517 72.9516 330.472 72.7436 330.472C72.5303 330.472 72.317 330.517 72.1036 330.608C71.8903 330.693 71.7116 330.829 71.5676 331.016C71.4236 331.197 71.3516 331.427 71.3516 331.704V337H69.0156ZM86.8958 337.16C86.0851 337.16 85.3784 336.987 84.7758 336.64C84.1784 336.293 83.7144 335.803 83.3838 335.168C83.0584 334.533 82.8958 333.781 82.8958 332.912C82.8958 332.043 83.0584 331.283 83.3838 330.632C83.7144 329.981 84.1784 329.475 84.7758 329.112C85.3784 328.749 86.0878 328.568 86.9038 328.568C87.7198 328.568 88.4264 328.747 89.0238 329.104C89.6211 329.456 90.0824 329.957 90.4078 330.608C90.7331 331.259 90.8958 332.027 90.8958 332.912C90.8958 333.744 90.7358 334.48 90.4158 335.12C90.1011 335.755 89.6451 336.253 89.0478 336.616C88.4558 336.979 87.7384 337.16 86.8958 337.16ZM86.9038 335.424C87.3144 335.424 87.6451 335.304 87.8958 335.064C88.1464 334.824 88.3278 334.509 88.4398 334.12C88.5571 333.725 88.6158 333.296 88.6158 332.832C88.6158 332.395 88.5624 331.981 88.4558 331.592C88.3544 331.203 88.1784 330.888 87.9278 330.648C87.6771 330.408 87.3358 330.288 86.9038 330.288C86.4931 330.288 86.1598 330.403 85.9038 330.632C85.6531 330.856 85.4691 331.163 85.3518 331.552C85.2344 331.936 85.1758 332.363 85.1758 332.832C85.1758 333.264 85.2291 333.68 85.3358 334.08C85.4424 334.475 85.6211 334.797 85.8718 335.048C86.1224 335.299 86.4664 335.424 86.9038 335.424ZM100.805 325.272C101.674 325.272 102.448 325.448 103.125 325.8C103.808 326.147 104.357 326.621 104.773 327.224C105.194 327.827 105.442 328.507 105.517 329.264H103.069C102.994 328.864 102.858 328.509 102.661 328.2C102.464 327.885 102.205 327.64 101.885 327.464C101.565 327.283 101.181 327.192 100.733 327.192C100.194 327.192 99.7302 327.323 99.3409 327.584C98.9515 327.845 98.6529 328.267 98.4449 328.848C98.2369 329.429 98.1329 330.197 98.1329 331.152C98.1329 332.592 98.3622 333.635 98.8209 334.28C99.2849 334.92 99.9222 335.24 100.733 335.24C101.181 335.24 101.565 335.139 101.885 334.936C102.205 334.728 102.464 334.456 102.661 334.12C102.858 333.779 102.994 333.405 103.069 333H105.517C105.448 333.549 105.314 334.075 105.117 334.576C104.92 335.072 104.64 335.515 104.277 335.904C103.914 336.293 103.448 336.6 102.877 336.824C102.306 337.048 101.616 337.16 100.805 337.16C99.7275 337.16 98.7969 336.909 98.0129 336.408C97.2289 335.907 96.6235 335.203 96.1969 334.296C95.7755 333.389 95.5649 332.331 95.5649 331.12C95.5649 329.904 95.7755 328.861 96.1969 327.992C96.6182 327.117 97.2209 326.445 98.0049 325.976C98.7889 325.507 99.7222 325.272 100.805 325.272ZM110.865 337.16C110.054 337.16 109.347 336.987 108.745 336.64C108.147 336.293 107.683 335.803 107.353 335.168C107.027 334.533 106.865 333.781 106.865 332.912C106.865 332.043 107.027 331.283 107.353 330.632C107.683 329.981 108.147 329.475 108.745 329.112C109.347 328.749 110.057 328.568 110.873 328.568C111.689 328.568 112.395 328.747 112.993 329.104C113.59 329.456 114.051 329.957 114.377 330.608C114.702 331.259 114.865 332.027 114.865 332.912C114.865 333.744 114.705 334.48 114.385 335.12C114.07 335.755 113.614 336.253 113.017 336.616C112.425 336.979 111.707 337.16 110.865 337.16ZM110.873 335.424C111.283 335.424 111.614 335.304 111.865 335.064C112.115 334.824 112.297 334.509 112.409 334.12C112.526 333.725 112.585 333.296 112.585 332.832C112.585 332.395 112.531 331.981 112.425 331.592C112.323 331.203 112.147 330.888 111.897 330.648C111.646 330.408 111.305 330.288 110.873 330.288C110.462 330.288 110.129 330.403 109.873 330.632C109.622 330.856 109.438 331.163 109.321 331.552C109.203 331.936 109.145 332.363 109.145 332.832C109.145 333.264 109.198 333.68 109.305 334.08C109.411 334.475 109.59 334.797 109.841 335.048C110.091 335.299 110.435 335.424 110.873 335.424ZM119.494 337.16C118.385 337.16 117.521 336.779 116.902 336.016C116.283 335.248 115.974 334.181 115.974 332.816C115.974 331.952 116.099 331.203 116.35 330.568C116.601 329.933 116.971 329.443 117.462 329.096C117.953 328.744 118.553 328.568 119.262 328.568C119.561 328.568 119.838 328.603 120.094 328.672C120.355 328.736 120.593 328.827 120.806 328.944C121.019 329.061 121.206 329.197 121.366 329.352C121.526 329.507 121.657 329.672 121.758 329.848V325.112H124.102V337H122.406L122.142 335.304C122.067 335.533 121.963 335.757 121.83 335.976C121.697 336.195 121.526 336.395 121.318 336.576C121.11 336.752 120.854 336.893 120.55 337C120.251 337.107 119.899 337.16 119.494 337.16ZM120.006 335.48C120.593 335.48 121.03 335.275 121.318 334.864C121.611 334.453 121.758 333.76 121.758 332.784C121.753 332.219 121.686 331.749 121.558 331.376C121.43 331.003 121.238 330.725 120.982 330.544C120.731 330.357 120.411 330.264 120.022 330.264C119.515 330.264 119.094 330.459 118.758 330.848C118.422 331.232 118.254 331.877 118.254 332.784C118.254 333.707 118.411 334.387 118.726 334.824C119.041 335.261 119.467 335.48 120.006 335.48ZM128.029 333.4C128.024 333.821 128.091 334.189 128.229 334.504C128.368 334.813 128.568 335.053 128.829 335.224C129.096 335.389 129.416 335.472 129.789 335.472C130.189 335.472 130.539 335.387 130.837 335.216C131.141 335.045 131.352 334.765 131.469 334.376H133.573C133.483 334.963 133.248 335.464 132.869 335.88C132.496 336.296 132.043 336.613 131.509 336.832C130.976 337.051 130.421 337.16 129.845 337.16C129.029 337.16 128.309 336.989 127.685 336.648C127.067 336.301 126.584 335.813 126.237 335.184C125.891 334.555 125.717 333.813 125.717 332.96C125.717 332.133 125.875 331.389 126.189 330.728C126.504 330.061 126.96 329.536 127.557 329.152C128.16 328.763 128.883 328.568 129.725 328.568C130.568 328.568 131.275 328.747 131.845 329.104C132.421 329.456 132.853 329.949 133.141 330.584C133.435 331.213 133.581 331.941 133.581 332.768V333.4H128.029ZM128.021 332.008H131.397C131.397 331.677 131.336 331.373 131.213 331.096C131.091 330.819 130.904 330.6 130.653 330.44C130.408 330.28 130.099 330.2 129.725 330.2C129.363 330.2 129.053 330.288 128.797 330.464C128.547 330.635 128.355 330.859 128.221 331.136C128.088 331.413 128.021 331.704 128.021 332.008Z" fill="#3E3E3E"/>
<rect x="44" y="468" width="326" height="50" rx="6" fill="#FCFCFC" stroke="white" stroke-width="4"/>
<path d="M57.192 438.432L53.776 450H51.912L49.736 442.44L47.544 450H45.712L42.304 438.432H44.592L46.744 446.072L48.896 438.432H50.584L52.76 446.072L54.912 438.432H57.192ZM58.5 450V438.112H60.82V442.92C60.9533 442.728 61.1213 442.539 61.324 442.352C61.5267 442.16 61.78 442 62.084 441.872C62.388 441.744 62.7587 441.68 63.196 441.68C63.724 441.68 64.204 441.784 64.636 441.992C65.0733 442.195 65.4227 442.491 65.684 442.88C65.9507 443.269 66.084 443.744 66.084 444.304V450H63.74V444.648C63.74 444.275 63.604 443.989 63.332 443.792C63.0653 443.589 62.74 443.488 62.356 443.488C62.1053 443.488 61.8627 443.533 61.628 443.624C61.3933 443.715 61.2013 443.853 61.052 444.04C60.908 444.221 60.836 444.448 60.836 444.72V450H58.5ZM68.9755 452.64C68.4102 452.64 68.0102 452.592 67.7755 452.496C67.5462 452.405 67.4315 452.36 67.4315 452.36V450.872L68.2475 450.904C68.6048 450.925 68.8928 450.907 69.1115 450.848C69.3302 450.795 69.4955 450.723 69.6075 450.632C69.7248 450.541 69.8075 450.445 69.8555 450.344C69.9035 450.248 69.9382 450.171 69.9595 450.112L70.1115 449.656L66.8955 441.728H69.2075L71.1915 447.12L73.1995 441.728H75.4795L72.1275 450.048C71.8395 450.752 71.5355 451.291 71.2155 451.664C70.8955 452.037 70.5488 452.293 70.1755 452.432C69.8075 452.571 69.4075 452.64 68.9755 452.64ZM82.3688 450.16C81.8408 450.16 81.3661 450.061 80.9448 449.864C80.5234 449.667 80.1901 449.381 79.9448 449.008C79.6994 448.629 79.5768 448.171 79.5768 447.632C79.5768 446.725 79.9154 446.037 80.5928 445.568C81.2701 445.093 82.3394 444.848 83.8008 444.832L84.8328 444.816V444.32C84.8328 443.941 84.7208 443.651 84.4968 443.448C84.2781 443.24 83.9368 443.139 83.4728 443.144C83.1314 443.149 82.8061 443.229 82.4968 443.384C82.1928 443.539 81.9848 443.808 81.8728 444.192H79.9288C79.9608 443.595 80.1341 443.104 80.4488 442.72C80.7634 442.331 81.1901 442.043 81.7288 441.856C82.2728 441.664 82.8888 441.568 83.5768 441.568C84.4248 441.568 85.1048 441.675 85.6168 441.888C86.1288 442.096 86.4994 442.397 86.7288 442.792C86.9581 443.181 87.0728 443.645 87.0728 444.184V450H85.1208L84.9288 448.576C84.6461 449.173 84.2914 449.587 83.8648 449.816C83.4434 450.045 82.9448 450.16 82.3688 450.16ZM83.1528 448.624C83.3661 448.624 83.5714 448.587 83.7688 448.512C83.9714 448.432 84.1501 448.328 84.3048 448.2C84.4648 448.067 84.5928 447.917 84.6888 447.752C84.7848 447.587 84.8328 447.416 84.8328 447.24V446.016L83.9928 446.032C83.6034 446.037 83.2408 446.085 82.9048 446.176C82.5688 446.261 82.2968 446.403 82.0888 446.6C81.8861 446.797 81.7848 447.064 81.7848 447.4C81.7848 447.784 81.9181 448.085 82.1848 448.304C82.4514 448.517 82.7741 448.624 83.1528 448.624ZM89.1406 450V441.728H91.3886V443.688C91.522 443.267 91.7086 442.899 91.9486 442.584C92.194 442.264 92.49 442.016 92.8366 441.84C93.1833 441.659 93.5753 441.568 94.0126 441.568C94.0873 441.568 94.1566 441.573 94.2206 441.584C94.29 441.589 94.3406 441.6 94.3726 441.616V443.84C94.3246 443.819 94.266 443.805 94.1966 443.8C94.1326 443.795 94.074 443.789 94.0206 443.784C93.562 443.747 93.17 443.76 92.8446 443.824C92.5193 443.888 92.2553 443.997 92.0526 444.152C91.85 444.307 91.7033 444.496 91.6126 444.72C91.522 444.944 91.4766 445.195 91.4766 445.472V450H89.1406ZM97.5294 446.4C97.524 446.821 97.5907 447.189 97.7294 447.504C97.868 447.813 98.068 448.053 98.3294 448.224C98.596 448.389 98.916 448.472 99.2894 448.472C99.6894 448.472 100.039 448.387 100.337 448.216C100.641 448.045 100.852 447.765 100.969 447.376H103.073C102.983 447.963 102.748 448.464 102.369 448.88C101.996 449.296 101.543 449.613 101.009 449.832C100.476 450.051 99.9214 450.16 99.3454 450.16C98.5294 450.16 97.8094 449.989 97.1854 449.648C96.5667 449.301 96.084 448.813 95.7374 448.184C95.3907 447.555 95.2174 446.813 95.2174 445.96C95.2174 445.133 95.3747 444.389 95.6894 443.728C96.004 443.061 96.46 442.536 97.0574 442.152C97.66 441.763 98.3827 441.568 99.2254 441.568C100.068 441.568 100.775 441.747 101.345 442.104C101.921 442.456 102.353 442.949 102.641 443.584C102.935 444.213 103.081 444.941 103.081 445.768V446.4H97.5294ZM97.5214 445.008H100.897C100.897 444.677 100.836 444.373 100.713 444.096C100.591 443.819 100.404 443.6 100.153 443.44C99.908 443.28 99.5987 443.2 99.2254 443.2C98.8627 443.2 98.5534 443.288 98.2974 443.464C98.0467 443.635 97.8547 443.859 97.7214 444.136C97.588 444.413 97.5214 444.704 97.5214 445.008ZM109.288 452.64C108.723 452.64 108.323 452.592 108.088 452.496C107.859 452.405 107.744 452.36 107.744 452.36V450.872L108.56 450.904C108.917 450.925 109.205 450.907 109.424 450.848C109.643 450.795 109.808 450.723 109.92 450.632C110.037 450.541 110.12 450.445 110.168 450.344C110.216 450.248 110.251 450.171 110.272 450.112L110.424 449.656L107.208 441.728H109.52L111.504 447.12L113.512 441.728H115.792L112.44 450.048C112.152 450.752 111.848 451.291 111.528 451.664C111.208 452.037 110.861 452.293 110.488 452.432C110.12 452.571 109.72 452.64 109.288 452.64ZM120.208 450.16C119.398 450.16 118.691 449.987 118.088 449.64C117.491 449.293 117.027 448.803 116.696 448.168C116.371 447.533 116.208 446.781 116.208 445.912C116.208 445.043 116.371 444.283 116.696 443.632C117.027 442.981 117.491 442.475 118.088 442.112C118.691 441.749 119.4 441.568 120.216 441.568C121.032 441.568 121.739 441.747 122.336 442.104C122.934 442.456 123.395 442.957 123.72 443.608C124.046 444.259 124.208 445.027 124.208 445.912C124.208 446.744 124.048 447.48 123.728 448.12C123.414 448.755 122.958 449.253 122.36 449.616C121.768 449.979 121.051 450.16 120.208 450.16ZM120.216 448.424C120.627 448.424 120.958 448.304 121.208 448.064C121.459 447.824 121.64 447.509 121.752 447.12C121.87 446.725 121.928 446.296 121.928 445.832C121.928 445.395 121.875 444.981 121.768 444.592C121.667 444.203 121.491 443.888 121.24 443.648C120.99 443.408 120.648 443.288 120.216 443.288C119.806 443.288 119.472 443.403 119.216 443.632C118.966 443.856 118.782 444.163 118.664 444.552C118.547 444.936 118.488 445.363 118.488 445.832C118.488 446.264 118.542 446.68 118.648 447.08C118.755 447.475 118.934 447.797 119.184 448.048C119.435 448.299 119.779 448.424 120.216 448.424ZM128.72 450.16C128.336 450.16 127.957 450.101 127.584 449.984C127.216 449.867 126.88 449.693 126.576 449.464C126.272 449.235 126.027 448.952 125.84 448.616C125.659 448.28 125.568 447.891 125.568 447.448V441.728H127.904V447.152C127.904 447.536 128.029 447.851 128.28 448.096C128.531 448.341 128.899 448.464 129.384 448.464C129.843 448.464 130.205 448.347 130.472 448.112C130.744 447.872 130.88 447.539 130.88 447.112V441.728H133.192V450H131.432L131.16 448.36C131.064 448.845 130.883 449.219 130.616 449.48C130.355 449.736 130.053 449.912 129.712 450.008C129.376 450.109 129.045 450.16 128.72 450.16ZM138.484 450V441.728H140.732V443.688C140.866 443.267 141.052 442.899 141.292 442.584C141.538 442.264 141.834 442.016 142.18 441.84C142.527 441.659 142.919 441.568 143.356 441.568C143.431 441.568 143.5 441.573 143.564 441.584C143.634 441.589 143.684 441.6 143.716 441.616V443.84C143.668 443.819 143.61 443.805 143.54 443.8C143.476 443.795 143.418 443.789 143.364 443.784C142.906 443.747 142.514 443.76 142.188 443.824C141.863 443.888 141.599 443.997 141.396 444.152C141.194 444.307 141.047 444.496 140.956 444.72C140.866 444.944 140.82 445.195 140.82 445.472V450H138.484ZM146.873 446.4C146.868 446.821 146.934 447.189 147.073 447.504C147.212 447.813 147.412 448.053 147.673 448.224C147.94 448.389 148.26 448.472 148.633 448.472C149.033 448.472 149.382 448.387 149.681 448.216C149.985 448.045 150.196 447.765 150.313 447.376H152.417C152.326 447.963 152.092 448.464 151.713 448.88C151.34 449.296 150.886 449.613 150.353 449.832C149.82 450.051 149.265 450.16 148.689 450.16C147.873 450.16 147.153 449.989 146.529 449.648C145.91 449.301 145.428 448.813 145.081 448.184C144.734 447.555 144.561 446.813 144.561 445.96C144.561 445.133 144.718 444.389 145.033 443.728C145.348 443.061 145.804 442.536 146.401 442.152C147.004 441.763 147.726 441.568 148.569 441.568C149.412 441.568 150.118 441.747 150.689 442.104C151.265 442.456 151.697 442.949 151.985 443.584C152.278 444.213 152.425 444.941 152.425 445.768V446.4H146.873ZM146.865 445.008H150.241C150.241 444.677 150.18 444.373 150.057 444.096C149.934 443.819 149.748 443.6 149.497 443.44C149.252 443.28 148.942 443.2 148.569 443.2C148.206 443.2 147.897 443.288 147.641 443.464C147.39 443.635 147.198 443.859 147.065 444.136C146.932 444.413 146.865 444.704 146.865 445.008ZM154.047 450V441.728H156.343V442.896C156.471 442.693 156.636 442.499 156.839 442.312C157.047 442.12 157.308 441.963 157.623 441.84C157.938 441.717 158.311 441.656 158.743 441.656C159.25 441.656 159.722 441.755 160.159 441.952C160.602 442.149 160.959 442.461 161.231 442.888C161.503 443.309 161.639 443.861 161.639 444.544V450H159.303V444.832C159.303 444.384 159.17 444.048 158.903 443.824C158.636 443.6 158.311 443.488 157.927 443.488C157.671 443.488 157.423 443.533 157.183 443.624C156.948 443.715 156.756 443.851 156.607 444.032C156.458 444.213 156.383 444.437 156.383 444.704V450H154.047ZM168.212 443.352H166.372L166.388 447.76C166.388 447.963 166.412 448.115 166.46 448.216C166.513 448.312 166.593 448.376 166.7 448.408C166.812 448.435 166.953 448.448 167.124 448.448H168.236V449.888C168.129 449.936 167.961 449.981 167.732 450.024C167.508 450.067 167.193 450.088 166.788 450.088C166.063 450.088 165.5 449.995 165.1 449.808C164.705 449.621 164.431 449.36 164.276 449.024C164.121 448.688 164.044 448.299 164.044 447.856V443.352H162.7V441.728H164.124L164.708 439.232H166.372V441.72H168.212V443.352ZM172.29 441.728V450H170.058V441.728H172.29ZM172.314 438.44V440.544H170.042V438.44H172.314ZM174.453 450V441.728H176.749V442.896C176.877 442.693 177.042 442.499 177.245 442.312C177.453 442.12 177.714 441.963 178.029 441.84C178.344 441.717 178.717 441.656 179.149 441.656C179.656 441.656 180.128 441.755 180.565 441.952C181.008 442.149 181.365 442.461 181.637 442.888C181.909 443.309 182.045 443.861 182.045 444.544V450H179.709V444.832C179.709 444.384 179.576 444.048 179.309 443.824C179.042 443.6 178.717 443.488 178.333 443.488C178.077 443.488 177.829 443.533 177.589 443.624C177.354 443.715 177.162 443.851 177.013 444.032C176.864 444.213 176.789 444.437 176.789 444.704V450H174.453ZM187.77 452.736C186.298 452.736 185.178 452.549 184.41 452.176C183.647 451.803 183.266 451.312 183.266 450.704C183.266 450.421 183.34 450.184 183.49 449.992C183.639 449.8 183.812 449.648 184.01 449.536C184.212 449.419 184.396 449.331 184.562 449.272C184.732 449.208 184.836 449.165 184.874 449.144C184.788 449.096 184.666 449.027 184.506 448.936C184.346 448.84 184.196 448.712 184.058 448.552C183.924 448.387 183.858 448.173 183.858 447.912C183.858 447.619 183.996 447.347 184.274 447.096C184.556 446.845 184.983 446.672 185.554 446.576C185.01 446.32 184.596 445.973 184.314 445.536C184.031 445.099 183.89 444.651 183.89 444.192C183.89 443.648 184.06 443.181 184.402 442.792C184.743 442.403 185.207 442.107 185.794 441.904C186.386 441.701 187.055 441.6 187.802 441.6C188.372 441.6 188.839 441.661 189.202 441.784C189.564 441.901 189.9 442.056 190.21 442.248C190.332 442.2 190.495 442.139 190.698 442.064C190.9 441.984 191.119 441.899 191.354 441.808C191.588 441.712 191.818 441.619 192.042 441.528C192.266 441.432 192.466 441.347 192.642 441.272L192.634 443.08L191.201 443.312C191.26 443.456 191.306 443.611 191.338 443.776C191.37 443.941 191.385 444.077 191.385 444.184C191.385 444.664 191.244 445.112 190.962 445.528C190.684 445.944 190.266 446.28 189.706 446.536C189.151 446.792 188.463 446.92 187.641 446.92C187.54 446.92 187.404 446.917 187.234 446.912C187.068 446.907 186.932 446.899 186.826 446.888C186.511 446.904 186.295 446.944 186.178 447.008C186.06 447.072 186.002 447.147 186.002 447.232C186.002 447.36 186.122 447.445 186.362 447.488C186.602 447.525 186.964 447.56 187.45 447.592C187.62 447.603 187.858 447.616 188.162 447.632C188.466 447.648 188.802 447.669 189.17 447.696C190.183 447.765 190.938 448.016 191.434 448.448C191.935 448.875 192.186 449.413 192.186 450.064C192.186 450.837 191.818 451.475 191.082 451.976C190.351 452.483 189.247 452.736 187.77 452.736ZM188.146 451.432C188.796 451.432 189.26 451.352 189.538 451.192C189.815 451.032 189.954 450.803 189.954 450.504C189.954 450.253 189.847 450.051 189.634 449.896C189.42 449.736 189.108 449.643 188.698 449.616L186.802 449.488C186.556 449.477 186.338 449.515 186.146 449.6C185.959 449.685 185.812 449.803 185.706 449.952C185.604 450.101 185.554 450.261 185.554 450.432C185.554 450.779 185.764 451.032 186.186 451.192C186.607 451.352 187.26 451.432 188.146 451.432ZM187.706 445.616C188.148 445.616 188.503 445.496 188.77 445.256C189.042 445.011 189.178 444.68 189.178 444.264C189.178 443.832 189.042 443.485 188.77 443.224C188.503 442.963 188.148 442.832 187.706 442.832C187.268 442.832 186.911 442.963 186.634 443.224C186.362 443.485 186.226 443.832 186.226 444.264C186.226 444.675 186.356 445.003 186.618 445.248C186.884 445.493 187.247 445.616 187.706 445.616ZM202.368 443.352H200.528L200.544 447.76C200.544 447.963 200.568 448.115 200.616 448.216C200.669 448.312 200.749 448.376 200.856 448.408C200.968 448.435 201.109 448.448 201.28 448.448H202.392V449.888C202.285 449.936 202.117 449.981 201.888 450.024C201.664 450.067 201.349 450.088 200.944 450.088C200.219 450.088 199.656 449.995 199.256 449.808C198.861 449.621 198.587 449.36 198.432 449.024C198.277 448.688 198.2 448.299 198.2 447.856V443.352H196.856V441.728H198.28L198.864 439.232H200.528V441.72H202.368V443.352ZM204.094 450V438.112H206.414V442.92C206.547 442.728 206.715 442.539 206.918 442.352C207.12 442.16 207.374 442 207.678 441.872C207.982 441.744 208.352 441.68 208.79 441.68C209.318 441.68 209.798 441.784 210.23 441.992C210.667 442.195 211.016 442.491 211.278 442.88C211.544 443.269 211.678 443.744 211.678 444.304V450H209.334V444.648C209.334 444.275 209.198 443.989 208.926 443.792C208.659 443.589 208.334 443.488 207.95 443.488C207.699 443.488 207.456 443.533 207.222 443.624C206.987 443.715 206.795 443.853 206.646 444.04C206.502 444.221 206.43 444.448 206.43 444.72V450H204.094ZM215.93 441.728V450H213.698V441.728H215.93ZM215.954 438.44V440.544H213.682V438.44H215.954ZM221.319 450.16C220.743 450.16 220.188 450.067 219.655 449.88C219.122 449.688 218.671 449.389 218.303 448.984C217.935 448.573 217.7 448.043 217.599 447.392H219.623C219.692 447.685 219.818 447.917 219.999 448.088C220.186 448.259 220.396 448.381 220.631 448.456C220.866 448.525 221.09 448.56 221.303 448.56C221.751 448.56 222.111 448.491 222.383 448.352C222.66 448.208 222.799 447.989 222.799 447.696C222.799 447.472 222.716 447.293 222.551 447.16C222.391 447.027 222.124 446.925 221.751 446.856L220.295 446.552C219.564 446.397 218.978 446.136 218.535 445.768C218.092 445.395 217.866 444.867 217.855 444.184C217.855 443.688 217.986 443.243 218.247 442.848C218.514 442.453 218.906 442.141 219.423 441.912C219.94 441.683 220.575 441.568 221.327 441.568C222.346 441.568 223.159 441.792 223.767 442.24C224.38 442.688 224.692 443.32 224.703 444.136H222.751C222.692 443.816 222.532 443.571 222.271 443.4C222.015 443.224 221.692 443.136 221.303 443.136C220.898 443.136 220.564 443.208 220.303 443.352C220.042 443.496 219.911 443.715 219.911 444.008C219.911 444.227 220.018 444.4 220.231 444.528C220.444 444.651 220.775 444.757 221.223 444.848L222.567 445.152C223.031 445.264 223.407 445.419 223.695 445.616C223.988 445.808 224.215 446.019 224.375 446.248C224.535 446.477 224.644 446.709 224.703 446.944C224.767 447.173 224.799 447.381 224.799 447.568C224.799 448.117 224.652 448.587 224.359 448.976C224.066 449.36 223.658 449.653 223.135 449.856C222.612 450.059 222.007 450.16 221.319 450.16ZM232.071 441.728V450H229.839V441.728H232.071ZM232.095 438.44V440.544H229.823V438.44H232.095ZM239.228 443.352H237.388L237.404 447.76C237.404 447.963 237.428 448.115 237.476 448.216C237.529 448.312 237.609 448.376 237.716 448.408C237.828 448.435 237.969 448.448 238.14 448.448H239.252V449.888C239.145 449.936 238.977 449.981 238.748 450.024C238.524 450.067 238.209 450.088 237.804 450.088C237.078 450.088 236.516 449.995 236.116 449.808C235.721 449.621 235.446 449.36 235.292 449.024C235.137 448.688 235.06 448.299 235.06 447.856V443.352H233.715V441.728H235.14L235.724 439.232H237.388V441.72H239.228V443.352ZM242.608 446.4C242.602 446.821 242.669 447.189 242.808 447.504C242.946 447.813 243.146 448.053 243.408 448.224C243.674 448.389 243.994 448.472 244.368 448.472C244.768 448.472 245.117 448.387 245.416 448.216C245.72 448.045 245.93 447.765 246.048 447.376H248.152C248.061 447.963 247.826 448.464 247.448 448.88C247.074 449.296 246.621 449.613 246.088 449.832C245.554 450.051 245 450.16 244.424 450.16C243.608 450.16 242.888 449.989 242.264 449.648C241.645 449.301 241.162 448.813 240.816 448.184C240.469 447.555 240.296 446.813 240.296 445.96C240.296 445.133 240.453 444.389 240.768 443.728C241.082 443.061 241.538 442.536 242.136 442.152C242.738 441.763 243.461 441.568 244.304 441.568C245.146 441.568 245.853 441.747 246.424 442.104C247 442.456 247.432 442.949 247.72 443.584C248.013 444.213 248.16 444.941 248.16 445.768V446.4H242.608ZM242.6 445.008H245.976C245.976 444.677 245.914 444.373 245.792 444.096C245.669 443.819 245.482 443.6 245.232 443.44C244.986 443.28 244.677 443.2 244.304 443.2C243.941 443.2 243.632 443.288 243.376 443.464C243.125 443.635 242.933 443.859 242.8 444.136C242.666 444.413 242.6 444.704 242.6 445.008ZM249.781 450V441.728H252.069V442.896C252.32 442.533 252.656 442.221 253.077 441.96C253.504 441.699 254.04 441.568 254.685 441.568C254.968 441.568 255.256 441.619 255.549 441.72C255.843 441.821 256.117 441.971 256.373 442.168C256.635 442.36 256.845 442.603 257.005 442.896C257.272 442.517 257.621 442.203 258.053 441.952C258.491 441.696 258.976 441.568 259.509 441.568C259.819 441.568 260.131 441.619 260.445 441.72C260.765 441.821 261.059 441.987 261.325 442.216C261.592 442.445 261.805 442.752 261.965 443.136C262.131 443.515 262.213 443.984 262.213 444.544V450H259.877V444.832C259.877 444.501 259.811 444.237 259.677 444.04C259.549 443.837 259.384 443.693 259.181 443.608C258.984 443.517 258.773 443.472 258.549 443.472C258.341 443.472 258.131 443.515 257.917 443.6C257.704 443.68 257.523 443.811 257.373 443.992C257.224 444.173 257.149 444.411 257.149 444.704V450H254.821V444.624C254.821 444.373 254.755 444.163 254.621 443.992C254.488 443.821 254.32 443.693 254.117 443.608C253.92 443.517 253.717 443.472 253.509 443.472C253.296 443.472 253.083 443.517 252.869 443.608C252.656 443.693 252.477 443.829 252.333 444.016C252.189 444.197 252.117 444.427 252.117 444.704V450H249.781ZM268.413 447.504V450H265.853V447.504H268.413ZM263.285 440.896C263.627 440.053 264.147 439.405 264.845 438.952C265.549 438.499 266.387 438.272 267.357 438.272C268.12 438.272 268.787 438.395 269.357 438.64C269.928 438.885 270.371 439.213 270.685 439.624C271.005 440.035 271.165 440.491 271.165 440.992C271.165 441.515 271.059 441.96 270.845 442.328C270.637 442.696 270.381 443.027 270.077 443.32C269.773 443.608 269.467 443.896 269.157 444.184C268.853 444.467 268.597 444.784 268.389 445.136C268.181 445.483 268.077 445.899 268.077 446.384H266.197C266.197 445.797 266.285 445.291 266.461 444.864C266.643 444.432 266.864 444.056 267.125 443.736C267.392 443.411 267.656 443.112 267.917 442.84C268.179 442.568 268.397 442.296 268.573 442.024C268.755 441.747 268.845 441.443 268.845 441.112C268.845 440.733 268.701 440.432 268.413 440.208C268.131 439.984 267.773 439.872 267.341 439.872C267.053 439.872 266.773 439.936 266.501 440.064C266.229 440.187 265.984 440.36 265.765 440.584C265.552 440.808 265.387 441.072 265.269 441.376L263.285 440.896ZM279.88 438.144C279.325 439.184 278.88 440.317 278.544 441.544C278.208 442.765 278.04 444.011 278.04 445.28C278.04 446.491 278.192 447.661 278.496 448.792C278.8 449.917 279.24 451.083 279.816 452.288H278.176C277.733 451.541 277.344 450.803 277.008 450.072C276.672 449.347 276.411 448.592 276.224 447.808C276.043 447.024 275.952 446.176 275.952 445.264C275.952 443.936 276.16 442.667 276.576 441.456C276.997 440.24 277.547 439.136 278.224 438.144H279.88ZM286.432 450.16C285.339 450.16 284.392 449.923 283.592 449.448C282.797 448.968 282.181 448.288 281.744 447.408C281.312 446.523 281.096 445.467 281.096 444.24C281.096 443.008 281.315 441.947 281.752 441.056C282.195 440.165 282.816 439.48 283.616 439C284.416 438.515 285.355 438.272 286.432 438.272C287.504 438.272 288.437 438.512 289.232 438.992C290.027 439.472 290.64 440.157 291.072 441.048C291.509 441.939 291.728 443.003 291.728 444.24C291.728 445.461 291.512 446.515 291.08 447.4C290.653 448.285 290.043 448.968 289.248 449.448C288.453 449.923 287.515 450.16 286.432 450.16ZM286.432 448.24C286.997 448.24 287.485 448.107 287.896 447.84C288.312 447.568 288.632 447.141 288.856 446.56C289.08 445.973 289.192 445.211 289.192 444.272C289.192 443.307 289.077 442.525 288.848 441.928C288.624 441.331 288.304 440.893 287.888 440.616C287.477 440.333 286.992 440.192 286.432 440.192C285.872 440.192 285.384 440.333 284.968 440.616C284.552 440.893 284.229 441.333 284 441.936C283.771 442.533 283.656 443.312 283.656 444.272C283.656 445.216 283.771 445.979 284 446.56C284.229 447.141 284.552 447.568 284.968 447.84C285.384 448.107 285.872 448.24 286.432 448.24ZM293.281 452.576V441.728H295.625L295.633 442.92C295.756 442.723 295.905 442.544 296.081 442.384C296.263 442.219 296.463 442.075 296.681 441.952C296.9 441.829 297.137 441.736 297.393 441.672C297.649 441.603 297.919 441.568 298.201 441.568C298.815 441.568 299.361 441.72 299.841 442.024C300.321 442.323 300.697 442.787 300.969 443.416C301.247 444.04 301.385 444.835 301.385 445.8C301.385 446.803 301.236 447.627 300.937 448.272C300.644 448.912 300.239 449.387 299.721 449.696C299.204 450.005 298.62 450.16 297.969 450.16C297.703 450.16 297.452 450.123 297.217 450.048C296.983 449.979 296.764 449.88 296.561 449.752C296.364 449.624 296.185 449.477 296.025 449.312C295.871 449.141 295.735 448.957 295.617 448.76V452.576H293.281ZM297.409 448.448C297.916 448.448 298.34 448.237 298.681 447.816C299.028 447.395 299.201 446.728 299.201 445.816C299.201 445.016 299.036 444.392 298.705 443.944C298.38 443.491 297.948 443.264 297.409 443.264C296.807 443.264 296.356 443.509 296.057 444C295.764 444.485 295.617 445.091 295.617 445.816C295.617 446.28 295.681 446.712 295.809 447.112C295.943 447.512 296.14 447.835 296.401 448.08C296.668 448.325 297.004 448.448 297.409 448.448ZM307.712 443.352H305.872L305.888 447.76C305.888 447.963 305.912 448.115 305.96 448.216C306.013 448.312 306.093 448.376 306.2 448.408C306.312 448.435 306.453 448.448 306.624 448.448H307.736V449.888C307.629 449.936 307.461 449.981 307.232 450.024C307.008 450.067 306.693 450.088 306.288 450.088C305.563 450.088 305 449.995 304.6 449.808C304.205 449.621 303.931 449.36 303.776 449.024C303.621 448.688 303.544 448.299 303.544 447.856V443.352H302.2V441.728H303.624L304.208 439.232H305.872V441.72H307.712V443.352ZM311.79 441.728V450H309.558V441.728H311.79ZM311.814 438.44V440.544H309.542V438.44H311.814ZM317.458 450.16C316.648 450.16 315.941 449.987 315.338 449.64C314.741 449.293 314.277 448.803 313.946 448.168C313.621 447.533 313.458 446.781 313.458 445.912C313.458 445.043 313.621 444.283 313.946 443.632C314.277 442.981 314.741 442.475 315.338 442.112C315.941 441.749 316.65 441.568 317.466 441.568C318.282 441.568 318.989 441.747 319.586 442.104C320.184 442.456 320.645 442.957 320.97 443.608C321.296 444.259 321.458 445.027 321.458 445.912C321.458 446.744 321.298 447.48 320.978 448.12C320.664 448.755 320.208 449.253 319.61 449.616C319.018 449.979 318.301 450.16 317.458 450.16ZM317.466 448.424C317.877 448.424 318.208 448.304 318.458 448.064C318.709 447.824 318.89 447.509 319.002 447.12C319.12 446.725 319.178 446.296 319.178 445.832C319.178 445.395 319.125 444.981 319.018 444.592C318.917 444.203 318.741 443.888 318.49 443.648C318.24 443.408 317.898 443.288 317.466 443.288C317.056 443.288 316.722 443.403 316.466 443.632C316.216 443.856 316.032 444.163 315.914 444.552C315.797 444.936 315.738 445.363 315.738 445.832C315.738 446.264 315.792 446.68 315.898 447.08C316.005 447.475 316.184 447.797 316.434 448.048C316.685 448.299 317.029 448.424 317.466 448.424ZM323.016 450V441.728H325.312V442.896C325.44 442.693 325.605 442.499 325.808 442.312C326.016 442.12 326.277 441.963 326.592 441.84C326.906 441.717 327.28 441.656 327.712 441.656C328.218 441.656 328.69 441.755 329.128 441.952C329.57 442.149 329.928 442.461 330.2 442.888C330.472 443.309 330.608 443.861 330.608 444.544V450H328.272V444.832C328.272 444.384 328.138 444.048 327.872 443.824C327.605 443.6 327.28 443.488 326.896 443.488C326.64 443.488 326.392 443.533 326.152 443.624C325.917 443.715 325.725 443.851 325.576 444.032C325.426 444.213 325.352 444.437 325.352 444.704V450H323.016ZM334.838 450.16C334.31 450.16 333.835 450.061 333.414 449.864C332.992 449.667 332.659 449.381 332.414 449.008C332.168 448.629 332.046 448.171 332.046 447.632C332.046 446.725 332.384 446.037 333.062 445.568C333.739 445.093 334.808 444.848 336.27 444.832L337.302 444.816V444.32C337.302 443.941 337.19 443.651 336.966 443.448C336.747 443.24 336.406 443.139 335.942 443.144C335.6 443.149 335.275 443.229 334.966 443.384C334.662 443.539 334.454 443.808 334.342 444.192H332.398C332.43 443.595 332.603 443.104 332.918 442.72C333.232 442.331 333.659 442.043 334.198 441.856C334.742 441.664 335.358 441.568 336.046 441.568C336.894 441.568 337.574 441.675 338.086 441.888C338.598 442.096 338.968 442.397 339.198 442.792C339.427 443.181 339.542 443.645 339.542 444.184V450H337.59L337.398 448.576C337.115 449.173 336.76 449.587 336.334 449.816C335.912 450.045 335.414 450.16 334.838 450.16ZM335.622 448.624C335.835 448.624 336.04 448.587 336.238 448.512C336.44 448.432 336.619 448.328 336.774 448.2C336.934 448.067 337.062 447.917 337.158 447.752C337.254 447.587 337.302 447.416 337.302 447.24V446.016L336.462 446.032C336.072 446.037 335.71 446.085 335.374 446.176C335.038 446.261 334.766 446.403 334.558 446.6C334.355 446.797 334.254 447.064 334.254 447.4C334.254 447.784 334.387 448.085 334.654 448.304C334.92 448.517 335.243 448.624 335.622 448.624ZM344.249 450.144C343.641 450.144 343.159 450.072 342.801 449.928C342.444 449.784 342.18 449.595 342.009 449.36C341.839 449.12 341.729 448.856 341.681 448.568C341.633 448.275 341.609 447.979 341.609 447.68V438.112H343.897V447.392C343.897 447.696 343.961 447.944 344.089 448.136C344.223 448.323 344.471 448.437 344.833 448.48L345.225 448.504V449.944C345.065 449.997 344.903 450.043 344.737 450.08C344.572 450.123 344.409 450.144 344.249 450.144ZM345.997 438.144C346.551 439.184 346.997 440.317 347.333 441.544C347.669 442.765 347.837 444.011 347.837 445.28C347.837 446.491 347.685 447.661 347.381 448.792C347.077 449.917 346.637 451.083 346.061 452.288H347.701C348.143 451.541 348.533 450.803 348.869 450.072C349.205 449.347 349.463 448.592 349.645 447.808C349.831 447.024 349.924 446.176 349.924 445.264C349.924 443.936 349.714 442.667 349.293 441.456C348.877 440.24 348.33 439.136 347.653 438.144H345.997Z" fill="#3E3E3E"/>
<defs>
<filter id="filter0_d_520_1505" x="77.5" y="820.5" width="279" height="71" filterUnits="userSpaceOnUse" color-interpolation-filters="sRGB">
<feFlood flood-opacity="0" result="BackgroundImageFix"/>
<feColorMatrix in="SourceAlpha" type="matrix" values="0 0 0 0 0 0 0 0 0 0 0 0 0 0 0 0 0 0 127 0" result="hardAlpha"/>
<feOffset dx="3" dy="4"/>
<feGaussianBlur stdDeviation="3.75"/>
<feComposite in2="hardAlpha" operator="out"/>
<feColorMatrix type="matrix" values="0 0 0 0 0.529412 0 0 0 0 0.462745 0 0 0 0 0.341176 0 0 0 0.3 0"/>
<feBlend mode="normal" in2="BackgroundImageFix" result="effect1_dropShadow_520_1505"/>
<feBlend mode="normal" in="SourceGraphic" in2="effect1_dropShadow_520_1505" result="shape"/>
</filter>
<clipPath id="clip0_520_1505">
<rect width="119" height="119" fill="white" transform="translate(155 22)"/>
</clipPath>
</defs>
</svg>
