<svg width="428" height="926" viewBox="0 0 428 926" fill="none" xmlns="http://www.w3.org/2000/svg">
<rect width="428" height="926" fill="#F8F2E9"/>
<g clip-path="url(#clip0_21_15)">
<mask id="path-1-outside-1_21_15" maskUnits="userSpaceOnUse" x="130.939" y="437.031" width="165" height="51" fill="black">
<rect fill="white" x="130.939" y="437.031" width="165" height="51"/>
<path d="M258.822 481.03C258.656 480.369 258.573 479.664 258.573 478.917C258.573 476.122 259.835 473.689 262.36 471.619C264.885 469.55 270.048 467.009 277.849 463.997V461.689C277.849 459.261 277.541 457.522 276.923 456.471C276.305 455.42 275.292 454.895 273.884 454.895C272.735 454.895 271.781 455.236 271.023 455.919C270.265 456.601 269.885 457.452 269.885 458.471C269.885 459.012 269.907 459.646 269.95 460.372C269.994 461.098 270.015 461.559 270.015 461.754C270.015 463.336 269.576 464.609 268.699 465.573C267.821 466.538 266.656 467.02 265.204 467.02C263.882 467.02 262.821 466.603 262.019 465.768C261.217 464.934 260.816 463.834 260.816 462.469C260.816 459.522 262.214 457.078 265.009 455.138C267.805 453.199 271.402 452.229 275.801 452.229C278.272 452.229 280.51 452.544 282.514 453.172C284.519 453.8 286.16 454.71 287.439 455.902C288.479 456.878 289.216 458.015 289.649 459.316C290.083 460.616 290.299 462.577 290.299 465.199V474.464C290.299 477.042 290.5 478.874 290.901 479.957C291.302 481.041 291.946 481.583 292.835 481.583C293.03 481.583 293.225 481.539 293.42 481.453C293.615 481.366 293.821 481.236 294.038 481.062V483.175C293.171 484.281 292.049 485.137 290.673 485.743C289.297 486.35 287.775 486.654 286.106 486.654C284.199 486.654 282.601 486.209 281.311 485.321C280.022 484.432 279.074 483.121 278.467 481.388C276.82 483.273 275.092 484.676 273.282 485.597C271.473 486.518 269.56 486.979 267.545 486.979C264.879 486.979 262.718 486.226 261.06 484.72C260.506 484.217 260.046 483.667 259.677 483.069C258.373 484.092 256.27 485.276 255.209 485.743C253.833 486.35 252.31 486.654 250.641 486.654C248.734 486.654 247.136 486.209 245.847 485.321C244.557 484.432 243.609 483.121 243.002 481.388C241.355 483.273 239.627 484.676 237.818 485.597C236.008 486.518 234.096 486.979 232.08 486.979C229.415 486.979 227.253 486.226 225.595 484.72C223.937 483.213 223.108 481.279 223.108 478.917C223.108 476.122 224.371 473.689 226.895 471.619C229.42 469.55 234.583 467.009 242.385 463.997V461.689C242.385 459.261 242.076 457.522 241.458 456.471C240.841 455.42 239.828 454.895 238.419 454.895C237.27 454.895 236.317 455.236 235.558 455.919C234.8 456.601 234.421 457.452 234.421 458.471C234.421 459.012 234.442 459.646 234.486 460.372C234.529 461.098 234.551 461.559 234.551 461.754C234.551 463.336 234.112 464.609 233.234 465.573C232.356 466.538 231.192 467.02 229.74 467.02C228.418 467.02 227.356 466.603 226.554 465.768C225.752 464.934 225.351 463.834 225.351 462.469C225.351 459.522 226.749 457.078 229.545 455.138C232.34 453.199 235.938 452.229 240.337 452.229C242.807 452.229 245.045 452.544 247.05 453.172C249.054 453.8 250.696 454.71 251.974 455.902C253.014 456.878 253.751 458.015 254.185 459.316C254.618 460.616 254.835 462.577 254.835 465.199V474.464C254.835 477.042 255.035 478.874 255.436 479.957C255.837 481.041 256.482 481.583 257.37 481.583C257.565 481.583 257.76 481.539 257.955 481.453C258.047 481.412 258.424 481.23 258.822 481.03ZM159.619 485.581L151.85 470.14V478.982C151.85 480.694 152.153 481.913 152.76 482.639C153.367 483.365 154.396 483.728 155.848 483.728H156.043V485.581H135.142V483.728H135.337C136.767 483.728 137.791 483.365 138.409 482.639C139.026 481.913 139.335 480.694 139.335 478.982V452.294C139.335 451.297 139.221 450.577 138.994 450.133C138.766 449.688 138.251 449.141 137.45 448.491L133.939 445.63C135.456 445.175 137.569 444.449 140.278 443.452C142.987 442.456 146.844 440.982 151.85 439.031V468.352C154.689 466.164 156.829 464.186 158.27 462.42C159.711 460.654 160.432 459.121 160.432 457.82C160.432 457.127 160.166 456.574 159.635 456.163C159.104 455.751 158.373 455.545 157.441 455.545H157.246V453.692H174.149V455.545H173.597C171.365 455.545 169.263 456.13 167.291 457.3C165.319 458.471 163.292 460.334 161.212 462.891L170.541 478.852C171.56 480.629 172.546 481.864 173.499 482.558C174.45 483.249 175.637 483.639 177.062 483.727C178.431 483.708 179.416 483.345 180.017 482.639C180.634 481.913 180.943 480.694 180.943 478.982V465.199C180.943 464.203 180.835 463.482 180.618 463.038C180.402 462.593 179.892 462.057 179.091 461.429L175.547 458.568C178.126 457.745 180.911 456.78 183.901 455.675C186.892 454.57 190.078 453.334 193.458 451.969V478.982C193.458 480.651 193.756 481.848 194.352 482.574C194.948 483.3 195.94 483.685 197.327 483.728H197.39C198.82 483.728 199.844 483.365 200.462 482.639C201.079 481.913 201.388 480.694 201.388 478.982V466.727C201.388 465.687 201.258 464.918 200.998 464.419C200.738 463.921 200.251 463.433 199.536 462.956L195.472 460.096C197.596 459.359 200.045 458.346 202.819 457.056C205.593 455.767 208.995 454.071 213.026 451.969V457.69C214.109 455.87 215.285 454.505 216.553 453.595C217.82 452.684 219.18 452.229 220.632 452.229C222.236 452.229 223.525 452.706 224.5 453.659C225.476 454.613 225.963 455.87 225.963 457.43C225.963 458.796 225.557 459.89 224.744 460.713C223.932 461.537 222.854 461.949 221.51 461.949C220.296 461.949 219.132 461.461 218.015 460.486C216.899 459.511 216.19 459.023 215.886 459.023C215.171 459.023 214.662 459.5 214.359 460.453C214.055 461.407 213.903 463.108 213.903 465.557V478.982C213.903 480.672 214.245 481.886 214.927 482.623C215.61 483.36 216.731 483.728 218.292 483.728H218.487V485.581H159.619ZM277.849 466.402C275.899 467.182 274.415 468.412 273.396 470.092C272.378 471.771 271.868 473.824 271.868 476.252C271.868 477.639 272.145 478.744 272.697 479.567C273.25 480.391 273.97 480.803 274.859 480.803C276.007 480.803 276.793 480.347 277.215 479.437C277.638 478.527 277.849 476.252 277.849 472.611V466.402ZM242.385 466.402C240.434 467.182 238.95 468.412 237.931 470.092C236.913 471.771 236.403 473.824 236.403 476.252C236.403 477.639 236.68 478.744 237.232 479.567C237.785 480.391 238.506 480.803 239.394 480.803C240.543 480.803 241.328 480.347 241.751 479.437C242.174 478.527 242.385 476.252 242.385 472.611V466.402ZM180.066 445.565C180.066 443.745 180.7 442.201 181.967 440.933C183.235 439.665 184.779 439.031 186.6 439.031C188.442 439.031 189.991 439.665 191.248 440.933C192.505 442.201 193.133 443.745 193.133 445.565C193.133 447.386 192.499 448.93 191.232 450.198C189.964 451.465 188.42 452.099 186.6 452.099C184.779 452.099 183.235 451.471 181.967 450.214C180.7 448.957 180.066 447.407 180.066 445.565Z"/>
</mask>
<path d="M258.822 481.03C258.656 480.369 258.573 479.664 258.573 478.917C258.573 476.122 259.835 473.689 262.36 471.619C264.885 469.55 270.048 467.009 277.849 463.997V461.689C277.849 459.261 277.541 457.522 276.923 456.471C276.305 455.42 275.292 454.895 273.884 454.895C272.735 454.895 271.781 455.236 271.023 455.919C270.265 456.601 269.885 457.452 269.885 458.471C269.885 459.012 269.907 459.646 269.95 460.372C269.994 461.098 270.015 461.559 270.015 461.754C270.015 463.336 269.576 464.609 268.699 465.573C267.821 466.538 266.656 467.02 265.204 467.02C263.882 467.02 262.821 466.603 262.019 465.768C261.217 464.934 260.816 463.834 260.816 462.469C260.816 459.522 262.214 457.078 265.009 455.138C267.805 453.199 271.402 452.229 275.801 452.229C278.272 452.229 280.51 452.544 282.514 453.172C284.519 453.8 286.16 454.71 287.439 455.902C288.479 456.878 289.216 458.015 289.649 459.316C290.083 460.616 290.299 462.577 290.299 465.199V474.464C290.299 477.042 290.5 478.874 290.901 479.957C291.302 481.041 291.946 481.583 292.835 481.583C293.03 481.583 293.225 481.539 293.42 481.453C293.615 481.366 293.821 481.236 294.038 481.062V483.175C293.171 484.281 292.049 485.137 290.673 485.743C289.297 486.35 287.775 486.654 286.106 486.654C284.199 486.654 282.601 486.209 281.311 485.321C280.022 484.432 279.074 483.121 278.467 481.388C276.82 483.273 275.092 484.676 273.282 485.597C271.473 486.518 269.56 486.979 267.545 486.979C264.879 486.979 262.718 486.226 261.06 484.72C260.506 484.217 260.046 483.667 259.677 483.069C258.373 484.092 256.27 485.276 255.209 485.743C253.833 486.35 252.31 486.654 250.641 486.654C248.734 486.654 247.136 486.209 245.847 485.321C244.557 484.432 243.609 483.121 243.002 481.388C241.355 483.273 239.627 484.676 237.818 485.597C236.008 486.518 234.096 486.979 232.08 486.979C229.415 486.979 227.253 486.226 225.595 484.72C223.937 483.213 223.108 481.279 223.108 478.917C223.108 476.122 224.371 473.689 226.895 471.619C229.42 469.55 234.583 467.009 242.385 463.997V461.689C242.385 459.261 242.076 457.522 241.458 456.471C240.841 455.42 239.828 454.895 238.419 454.895C237.27 454.895 236.317 455.236 235.558 455.919C234.8 456.601 234.421 457.452 234.421 458.471C234.421 459.012 234.442 459.646 234.486 460.372C234.529 461.098 234.551 461.559 234.551 461.754C234.551 463.336 234.112 464.609 233.234 465.573C232.356 466.538 231.192 467.02 229.74 467.02C228.418 467.02 227.356 466.603 226.554 465.768C225.752 464.934 225.351 463.834 225.351 462.469C225.351 459.522 226.749 457.078 229.545 455.138C232.34 453.199 235.938 452.229 240.337 452.229C242.807 452.229 245.045 452.544 247.05 453.172C249.054 453.8 250.696 454.71 251.974 455.902C253.014 456.878 253.751 458.015 254.185 459.316C254.618 460.616 254.835 462.577 254.835 465.199V474.464C254.835 477.042 255.035 478.874 255.436 479.957C255.837 481.041 256.482 481.583 257.37 481.583C257.565 481.583 257.76 481.539 257.955 481.453C258.047 481.412 258.424 481.23 258.822 481.03ZM159.619 485.581L151.85 470.14V478.982C151.85 480.694 152.153 481.913 152.76 482.639C153.367 483.365 154.396 483.728 155.848 483.728H156.043V485.581H135.142V483.728H135.337C136.767 483.728 137.791 483.365 138.409 482.639C139.026 481.913 139.335 480.694 139.335 478.982V452.294C139.335 451.297 139.221 450.577 138.994 450.133C138.766 449.688 138.251 449.141 137.45 448.491L133.939 445.63C135.456 445.175 137.569 444.449 140.278 443.452C142.987 442.456 146.844 440.982 151.85 439.031V468.352C154.689 466.164 156.829 464.186 158.27 462.42C159.711 460.654 160.432 459.121 160.432 457.82C160.432 457.127 160.166 456.574 159.635 456.163C159.104 455.751 158.373 455.545 157.441 455.545H157.246V453.692H174.149V455.545H173.597C171.365 455.545 169.263 456.13 167.291 457.3C165.319 458.471 163.292 460.334 161.212 462.891L170.541 478.852C171.56 480.629 172.546 481.864 173.499 482.558C174.45 483.249 175.637 483.639 177.062 483.727C178.431 483.708 179.416 483.345 180.017 482.639C180.634 481.913 180.943 480.694 180.943 478.982V465.199C180.943 464.203 180.835 463.482 180.618 463.038C180.402 462.593 179.892 462.057 179.091 461.429L175.547 458.568C178.126 457.745 180.911 456.78 183.901 455.675C186.892 454.57 190.078 453.334 193.458 451.969V478.982C193.458 480.651 193.756 481.848 194.352 482.574C194.948 483.3 195.94 483.685 197.327 483.728H197.39C198.82 483.728 199.844 483.365 200.462 482.639C201.079 481.913 201.388 480.694 201.388 478.982V466.727C201.388 465.687 201.258 464.918 200.998 464.419C200.738 463.921 200.251 463.433 199.536 462.956L195.472 460.096C197.596 459.359 200.045 458.346 202.819 457.056C205.593 455.767 208.995 454.071 213.026 451.969V457.69C214.109 455.87 215.285 454.505 216.553 453.595C217.82 452.684 219.18 452.229 220.632 452.229C222.236 452.229 223.525 452.706 224.5 453.659C225.476 454.613 225.963 455.87 225.963 457.43C225.963 458.796 225.557 459.89 224.744 460.713C223.932 461.537 222.854 461.949 221.51 461.949C220.296 461.949 219.132 461.461 218.015 460.486C216.899 459.511 216.19 459.023 215.886 459.023C215.171 459.023 214.662 459.5 214.359 460.453C214.055 461.407 213.903 463.108 213.903 465.557V478.982C213.903 480.672 214.245 481.886 214.927 482.623C215.61 483.36 216.731 483.728 218.292 483.728H218.487V485.581H159.619ZM277.849 466.402C275.899 467.182 274.415 468.412 273.396 470.092C272.378 471.771 271.868 473.824 271.868 476.252C271.868 477.639 272.145 478.744 272.697 479.567C273.25 480.391 273.97 480.803 274.859 480.803C276.007 480.803 276.793 480.347 277.215 479.437C277.638 478.527 277.849 476.252 277.849 472.611V466.402ZM242.385 466.402C240.434 467.182 238.95 468.412 237.931 470.092C236.913 471.771 236.403 473.824 236.403 476.252C236.403 477.639 236.68 478.744 237.232 479.567C237.785 480.391 238.506 480.803 239.394 480.803C240.543 480.803 241.328 480.347 241.751 479.437C242.174 478.527 242.385 476.252 242.385 472.611V466.402ZM180.066 445.565C180.066 443.745 180.7 442.201 181.967 440.933C183.235 439.665 184.779 439.031 186.6 439.031C188.442 439.031 189.991 439.665 191.248 440.933C192.505 442.201 193.133 443.745 193.133 445.565C193.133 447.386 192.499 448.93 191.232 450.198C189.964 451.465 188.42 452.099 186.6 452.099C184.779 452.099 183.235 451.471 181.967 450.214C180.7 448.957 180.066 447.407 180.066 445.565Z" stroke="#3E3E3E" stroke-width="2" mask="url(#path-1-outside-1_21_15)"/>
</g>
<defs>
<clipPath id="clip0_21_15">
<rect width="204" height="204" fill="white" transform="translate(112 361)"/>
</clipPath>
</defs>
</svg>
