<svg width="428" height="926" viewBox="0 0 428 926" fill="none" xmlns="http://www.w3.org/2000/svg">
<rect width="428" height="926" fill="#F8F2E9"/>
<rect x="23" y="176" width="382" height="50" rx="6" fill="#FCFCFC" stroke="white" stroke-width="4"/>
<path d="M365.5 210C371.299 210 376 205.299 376 199.5C376 193.701 371.299 189 365.5 189C359.701 189 355 193.701 355 199.5C355 205.299 359.701 210 365.5 210Z" stroke="#4A4A4A" stroke-width="2" stroke-linecap="round" stroke-linejoin="round"/>
<path d="M372.925 206.925L379 213" stroke="#4A4A4A" stroke-width="2" stroke-linecap="round" stroke-linejoin="round"/>
<path d="M25.134 258.878H32.022L32.015 260.586H27.192V263.127H31.371V264.8H27.192V269H25.134V258.878ZM33.7199 258.878H35.7569V269H33.7199V258.878ZM38.0266 258.878H40.0846V267.271H44.4806V269H38.0266V258.878ZM43.9672 260.698V258.878H52.0662V260.698H49.0772V269H47.0262V260.698H43.9672ZM53.4621 269V258.878H60.4131L60.4061 260.6H55.5131V263.057H59.7621V264.744H55.4991V267.257L60.4831 267.264V269H53.4621ZM70.2849 269H68.1639L66.5189 265.101H64.4679V269H62.4309V258.878H66.7009C67.5082 258.878 68.1685 259.006 68.6819 259.263C69.1952 259.52 69.5732 259.877 69.8159 260.334C70.0585 260.787 70.1799 261.309 70.1799 261.902C70.1799 262.434 70.0959 262.884 69.9279 263.253C69.7645 263.617 69.5475 263.92 69.2769 264.163C69.0109 264.406 68.7192 264.604 68.4019 264.758L70.2849 269ZM66.3369 263.526C66.8829 263.526 67.3145 263.379 67.6319 263.085C67.9539 262.791 68.1149 262.413 68.1149 261.951C68.1149 261.484 67.9609 261.116 67.6529 260.845C67.3449 260.574 66.9552 260.439 66.4839 260.439H64.4679V263.526H66.3369Z" fill="#4A4A4A"/>
<path d="M93.875 268.125H83.75" stroke="#4A4A4A" stroke-width="1.65" stroke-linecap="round" stroke-linejoin="round"/>
<path d="M100.25 268.125H97.625" stroke="#4A4A4A" stroke-width="1.65" stroke-linecap="round" stroke-linejoin="round"/>
<path d="M95.75 270C96.7855 270 97.625 269.161 97.625 268.125C97.625 267.089 96.7855 266.25 95.75 266.25C94.7145 266.25 93.875 267.089 93.875 268.125C93.875 269.161 94.7145 270 95.75 270Z" fill="#4A4A4A" stroke="#4A4A4A" stroke-width="1.5" stroke-linecap="round" stroke-linejoin="round"/>
<path d="M87.875 259.875H83.75" stroke="#4A4A4A" stroke-width="1.65" stroke-linecap="round" stroke-linejoin="round"/>
<path d="M100.25 259.875H91.625" stroke="#4A4A4A" stroke-width="1.65" stroke-linecap="round" stroke-linejoin="round"/>
<path d="M89.75 261.75C90.7855 261.75 91.625 260.911 91.625 259.875C91.625 258.839 90.7855 258 89.75 258C88.7145 258 87.875 258.839 87.875 259.875C87.875 260.911 88.7145 261.75 89.75 261.75Z" fill="#4A4A4A" stroke="#4A4A4A" stroke-width="1.5" stroke-linecap="round" stroke-linejoin="round"/>
<g filter="url(#filter0_d_676_2363)">
<rect x="82" y="824" width="264" height="56" rx="28" fill="#F8F2E9" shape-rendering="crispEdges"/>
<path d="M121 862V856C121 855.735 120.895 855.48 120.707 855.293C120.52 855.105 120.265 855 120 855H116C115.735 855 115.48 855.105 115.293 855.293C115.105 855.48 115 855.735 115 856V862C115 862.265 114.895 862.52 114.707 862.707C114.52 862.895 114.265 863 114 863H108C107.735 863 107.48 862.895 107.293 862.707C107.105 862.52 107 862.265 107 862V850.437C107.002 850.299 107.032 850.163 107.088 850.036C107.144 849.909 107.224 849.795 107.325 849.7L117.325 840.612C117.509 840.444 117.75 840.35 118 840.35C118.25 840.35 118.491 840.444 118.675 840.612L128.675 849.7C128.776 849.795 128.856 849.909 128.912 850.036C128.968 850.163 128.998 850.299 129 850.437V862C129 862.265 128.895 862.52 128.707 862.707C128.52 862.895 128.265 863 128 863H122C121.735 863 121.48 862.895 121.293 862.707C121.105 862.52 121 862.265 121 862Z" fill="#4A4A4A"/>
<path d="M178 845C178 843.939 178.421 842.922 179.172 842.172C179.922 841.421 180.939 841 182 841C183.061 841 184.078 841.421 184.828 842.172C185.579 842.922 186 843.939 186 845L168.4 858.2C168.232 858.326 168.108 858.501 168.045 858.702C167.983 858.902 167.985 859.117 168.051 859.316C168.118 859.515 168.245 859.689 168.415 859.811C168.586 859.934 168.79 860 169 860H195C195.21 860 195.414 859.934 195.585 859.811C195.755 859.689 195.882 859.515 195.949 859.316C196.015 859.117 196.017 858.902 195.955 858.702C195.892 858.501 195.768 858.326 195.6 858.2L182 848" stroke="#4A4A4A" stroke-width="2" stroke-linecap="round" stroke-linejoin="round"/>
<path d="M246 856C250.418 856 254 852.418 254 848C254 843.582 250.418 840 246 840C241.582 840 238 843.582 238 848C238 852.418 241.582 856 246 856Z" stroke="#4A4A4A" stroke-width="2" stroke-miterlimit="10"/>
<path d="M233.875 863C235.104 860.871 236.871 859.104 238.999 857.875C241.128 856.646 243.542 855.999 246 855.999C248.458 855.999 250.872 856.646 253.001 857.875C255.129 859.104 256.896 860.871 258.125 863" stroke="#4A4A4A" stroke-width="2" stroke-linecap="round" stroke-linejoin="round"/>
<path d="M305.954 841.143L306.937 838.606C307.103 838.176 307.394 837.807 307.774 837.546C308.153 837.285 308.602 837.144 309.063 837.143H310.937C311.397 837.144 311.847 837.285 312.226 837.546C312.605 837.807 312.897 838.176 313.063 838.606L314.046 841.143L317.383 843.063L320.08 842.651C320.529 842.59 320.986 842.664 321.393 842.864C321.8 843.063 322.139 843.379 322.366 843.771L323.28 845.371C323.514 845.77 323.622 846.23 323.589 846.691C323.557 847.152 323.385 847.593 323.097 847.954L321.428 850.08V853.92L323.143 856.046C323.431 856.407 323.603 856.848 323.635 857.309C323.668 857.77 323.56 858.23 323.326 858.629L322.411 860.229C322.184 860.621 321.846 860.937 321.439 861.136C321.032 861.336 320.575 861.41 320.126 861.349L317.428 860.937L314.091 862.857L313.108 865.394C312.943 865.824 312.651 866.193 312.272 866.454C311.892 866.715 311.443 866.856 310.983 866.857H309.063C308.602 866.856 308.153 866.715 307.774 866.454C307.394 866.193 307.103 865.824 306.937 865.394L305.954 862.857L302.617 860.937L299.92 861.349C299.471 861.41 299.014 861.336 298.607 861.136C298.2 860.937 297.861 860.621 297.634 860.229L296.72 858.629C296.486 858.23 296.378 857.77 296.41 857.309C296.443 856.848 296.615 856.407 296.903 856.046L298.571 853.92V850.08L296.857 847.954C296.569 847.593 296.397 847.152 296.365 846.691C296.332 846.23 296.44 845.77 296.674 845.371L297.588 843.771C297.815 843.379 298.154 843.063 298.561 842.864C298.968 842.664 299.425 842.59 299.874 842.651L302.571 843.063L305.954 841.143ZM305.428 852C305.428 852.904 305.697 853.788 306.199 854.54C306.701 855.292 307.415 855.877 308.25 856.223C309.086 856.569 310.005 856.66 310.892 856.484C311.778 856.307 312.593 855.872 313.232 855.232C313.872 854.593 314.307 853.779 314.483 852.892C314.66 852.005 314.569 851.086 314.223 850.251C313.877 849.415 313.291 848.701 312.54 848.199C311.788 847.697 310.904 847.429 310 847.429C308.787 847.429 307.625 847.91 306.767 848.768C305.91 849.625 305.428 850.788 305.428 852V852Z" stroke="#3E3E3E" stroke-width="2" stroke-linecap="round" stroke-linejoin="round"/>
</g>
<g clip-path="url(#clip0_676_2363)">
<path d="M240.646 92.0177C240.549 91.6317 240.501 91.2208 240.501 90.785C240.501 89.1542 241.237 87.7352 242.71 86.5279C244.183 85.3207 247.195 83.8385 251.746 82.0814V80.7351C251.746 79.3192 251.565 78.3047 251.205 77.6916C250.845 77.0785 250.254 76.7719 249.432 76.7719C248.762 76.7719 248.206 76.971 247.764 77.3692C247.321 77.7674 247.1 78.2636 247.1 78.8578C247.1 79.1738 247.113 79.5436 247.138 79.9671C247.163 80.3905 247.176 80.6592 247.176 80.773C247.176 81.6958 246.92 82.4384 246.408 83.001C245.896 83.5636 245.216 83.8448 244.369 83.8448C243.598 83.8448 242.979 83.6015 242.511 83.1148C242.043 82.628 241.809 81.9865 241.809 81.1902C241.809 79.4709 242.625 78.0456 244.256 76.9141C245.886 75.7827 247.985 75.217 250.551 75.217C251.992 75.217 253.297 75.4004 254.467 75.767C255.636 76.1336 256.594 76.6645 257.339 77.3598C257.946 77.9286 258.376 78.5923 258.629 79.3508C258.882 80.1092 259.008 81.2533 259.008 82.783V88.1871C259.008 89.6914 259.125 90.7597 259.359 91.3917C259.593 92.0238 259.969 92.3399 260.487 92.3399C260.601 92.3399 260.715 92.3146 260.828 92.264C260.942 92.2134 261.062 92.1377 261.189 92.0364V93.269C260.683 93.9137 260.029 94.413 259.226 94.767C258.423 95.121 257.535 95.298 256.562 95.298C255.45 95.298 254.517 95.0389 253.765 94.5205C253.013 94.0022 252.46 93.2375 252.106 92.2262C251.145 93.326 250.137 94.1445 249.081 94.6817C248.026 95.2189 246.91 95.4876 245.735 95.4876C244.18 95.4876 242.919 95.0483 241.952 94.1697C241.629 93.8766 241.36 93.5556 241.145 93.2066C240.384 93.8039 239.157 94.4941 238.538 94.767C237.736 95.121 236.848 95.298 235.874 95.298C234.762 95.298 233.829 95.0389 233.077 94.5205C232.325 94.0022 231.772 93.2375 231.418 92.2262C230.457 93.326 229.449 94.1445 228.394 94.6817C227.338 95.2189 226.223 95.4876 225.047 95.4876C223.492 95.4876 222.231 95.0483 221.264 94.1697C220.297 93.2911 219.813 92.1629 219.813 90.785C219.813 89.1542 220.55 87.7352 222.022 86.5279C223.495 85.3207 226.507 83.8385 231.058 82.0814V80.7351C231.058 79.3192 230.878 78.3047 230.517 77.6916C230.157 77.0785 229.566 76.7719 228.744 76.7719C228.075 76.7719 227.518 76.971 227.076 77.3692C226.633 77.7674 226.412 78.2636 226.412 78.8578C226.412 79.1738 226.425 79.5436 226.45 79.9671C226.475 80.3905 226.488 80.6592 226.488 80.773C226.488 81.6958 226.232 82.4384 225.72 83.001C225.208 83.5636 224.529 83.8448 223.682 83.8448C222.91 83.8448 222.291 83.6015 221.823 83.1148C221.356 82.628 221.122 81.9865 221.122 81.1902C221.122 79.4709 221.937 78.0456 223.568 76.9141C225.199 75.7827 227.297 75.217 229.863 75.217C231.304 75.217 232.61 75.4004 233.779 75.767C234.948 76.1336 235.906 76.6645 236.652 77.3598C237.258 77.9286 237.688 78.5923 237.941 79.3508C238.194 80.1092 238.32 81.2533 238.32 82.783V88.1871C238.32 89.6914 238.437 90.7597 238.671 91.3917C238.905 92.0238 239.281 92.3399 239.799 92.3399C239.913 92.3399 240.027 92.3146 240.141 92.264C240.194 92.2404 240.414 92.1343 240.646 92.0177ZM182.778 94.6723L178.246 85.6652V90.8229C178.246 91.8215 178.423 92.5327 178.777 92.9562C179.131 93.3796 179.731 93.5913 180.578 93.5913H180.692V94.6723H168.499V93.5913H168.613C169.448 93.5913 170.045 93.3796 170.405 92.9562C170.765 92.5327 170.946 91.8215 170.946 90.8229V75.2549C170.946 74.6734 170.879 74.2532 170.746 73.9941C170.614 73.7348 170.313 73.4156 169.846 73.0364L167.798 71.3678C168.683 71.1023 169.915 70.6788 171.495 70.0972C173.076 69.5158 175.326 68.6562 178.246 67.5184V84.6222C179.902 83.3454 181.15 82.1919 181.991 81.1616C182.832 80.1314 183.252 79.2371 183.252 78.4786C183.252 78.074 183.097 77.7516 182.787 77.5115C182.478 77.2713 182.051 77.1512 181.507 77.1512H181.394V76.0704H191.254V77.1512H190.932C189.63 77.1512 188.403 77.4925 187.253 78.1751C186.103 78.8578 184.921 79.9449 183.707 81.4367L189.149 90.747C189.743 91.7837 190.319 92.5043 190.875 92.9087C191.429 93.312 192.122 93.5394 192.953 93.5909C193.752 93.5796 194.326 93.3681 194.677 92.9562C195.037 92.5327 195.217 91.8215 195.217 90.8229V82.783C195.217 82.2015 195.154 81.7811 195.027 81.522C194.901 81.2629 194.604 80.95 194.136 80.5833L192.069 78.9147C193.574 78.4343 195.198 77.8718 196.943 77.227C198.687 76.5823 200.545 75.8618 202.518 75.0653V90.8229C202.518 91.7963 202.691 92.4947 203.039 92.9182C203.387 93.3416 203.965 93.5661 204.774 93.5913H204.811C205.645 93.5913 206.243 93.3796 206.603 92.9562C206.963 92.5327 207.143 91.8215 207.143 90.8229V83.6742C207.143 83.0673 207.067 82.6186 206.916 82.3279C206.764 82.0371 206.48 81.7526 206.063 81.4745L203.692 79.8059C204.931 79.376 206.36 78.7851 207.978 78.0329C209.596 77.2807 211.58 76.2916 213.932 75.0653V78.4027C214.564 77.3408 215.25 76.5445 215.989 76.0135C216.729 75.4825 217.522 75.217 218.369 75.217C219.304 75.217 220.057 75.4951 220.625 76.0514C221.194 76.6076 221.479 77.3408 221.479 78.251C221.479 79.0474 221.242 79.6858 220.768 80.1661C220.294 80.6466 219.665 80.8867 218.881 80.8867C218.173 80.8867 217.494 80.6023 216.842 80.0334C216.191 79.4645 215.777 79.1802 215.6 79.1802C215.183 79.1802 214.886 79.4583 214.709 80.0145C214.532 80.5707 214.444 81.563 214.444 82.9916V90.8229C214.444 91.8089 214.643 92.5169 215.041 92.9466C215.439 93.3765 216.093 93.5913 217.004 93.5913H217.117V94.6723H182.778ZM251.746 83.4845C250.608 83.9396 249.742 84.657 249.148 85.6367C248.554 86.6164 248.257 87.8143 248.257 89.2301C248.257 90.0392 248.418 90.6839 248.74 91.1642C249.062 91.6446 249.483 91.8848 250.001 91.8848C250.671 91.8848 251.129 91.6193 251.376 91.0883C251.622 90.5574 251.746 89.2301 251.746 87.1063V83.4845ZM231.058 83.4845C229.92 83.9396 229.054 84.657 228.46 85.6367C227.866 86.6164 227.569 87.8143 227.569 89.2301C227.569 90.0392 227.73 90.6839 228.052 91.1642C228.375 91.6446 228.795 91.8848 229.313 91.8848C229.983 91.8848 230.442 91.6193 230.688 91.0883C230.935 90.5574 231.058 89.2301 231.058 87.1063V83.4845ZM194.705 71.3298C194.705 70.268 195.075 69.3672 195.814 68.6277C196.554 67.8882 197.455 67.5184 198.517 67.5184C199.591 67.5184 200.495 67.8882 201.228 68.6277C201.961 69.3672 202.328 70.268 202.328 71.3298C202.328 72.3917 201.958 73.2923 201.219 74.0319C200.479 74.7714 199.578 75.1412 198.517 75.1412C197.455 75.1412 196.554 74.7746 195.814 74.0414C195.075 73.3082 194.705 72.4043 194.705 71.3298Z" fill="#3E3E3E"/>
</g>
<path d="M381 116H359C358.448 116 358 116.448 358 117V135C358 135.552 358.448 136 359 136H381C381.552 136 382 135.552 382 135V117C382 116.448 381.552 116 381 116Z" stroke="#3E3E3E" stroke-width="2" stroke-linecap="round" stroke-linejoin="round"/>
<path d="M375 121C375 122.326 374.473 123.598 373.536 124.536C372.598 125.473 371.326 126 370 126C368.674 126 367.402 125.473 366.464 124.536C365.527 123.598 365 122.326 365 121" stroke="#3E3E3E" stroke-width="2" stroke-linecap="round" stroke-linejoin="round"/>
<rect x="116.25" y="705.778" width="195.5" height="48.5" rx="2.75" fill="#616161"/>
<path d="M172.612 735.528L176.756 723.96H179.22L183.356 735.528H181.028L180.084 732.848H175.924L174.956 735.528H172.612ZM176.444 730.808H179.524L177.996 726.216L176.444 730.808ZM187.603 735.688C186.494 735.688 185.63 735.307 185.011 734.544C184.393 733.776 184.083 732.709 184.083 731.344C184.083 730.48 184.209 729.731 184.459 729.096C184.71 728.461 185.081 727.971 185.571 727.624C186.062 727.272 186.662 727.096 187.371 727.096C187.67 727.096 187.947 727.131 188.203 727.2C188.465 727.264 188.702 727.355 188.915 727.472C189.129 727.589 189.315 727.725 189.475 727.88C189.635 728.035 189.766 728.2 189.867 728.376V723.64H192.211V735.528H190.515L190.251 733.832C190.177 734.061 190.073 734.285 189.939 734.504C189.806 734.723 189.635 734.923 189.427 735.104C189.219 735.28 188.963 735.421 188.659 735.528C188.361 735.635 188.009 735.688 187.603 735.688ZM188.115 734.008C188.702 734.008 189.139 733.803 189.427 733.392C189.721 732.981 189.867 732.288 189.867 731.312C189.862 730.747 189.795 730.277 189.667 729.904C189.539 729.531 189.347 729.253 189.091 729.072C188.841 728.885 188.521 728.792 188.131 728.792C187.625 728.792 187.203 728.987 186.867 729.376C186.531 729.76 186.363 730.405 186.363 731.312C186.363 732.235 186.521 732.915 186.835 733.352C187.15 733.789 187.577 734.008 188.115 734.008ZM197.291 735.688C196.181 735.688 195.317 735.307 194.699 734.544C194.08 733.776 193.771 732.709 193.771 731.344C193.771 730.48 193.896 729.731 194.147 729.096C194.397 728.461 194.768 727.971 195.259 727.624C195.749 727.272 196.349 727.096 197.059 727.096C197.357 727.096 197.635 727.131 197.891 727.2C198.152 727.264 198.389 727.355 198.603 727.472C198.816 727.589 199.003 727.725 199.163 727.88C199.323 728.035 199.453 728.2 199.555 728.376V723.64H201.899V735.528H200.203L199.939 733.832C199.864 734.061 199.76 734.285 199.627 734.504C199.493 734.723 199.323 734.923 199.115 735.104C198.907 735.28 198.651 735.421 198.347 735.528C198.048 735.635 197.696 735.688 197.291 735.688ZM197.803 734.008C198.389 734.008 198.827 733.803 199.115 733.392C199.408 732.981 199.555 732.288 199.555 731.312C199.549 730.747 199.483 730.277 199.355 729.904C199.227 729.531 199.035 729.253 198.779 729.072C198.528 728.885 198.208 728.792 197.819 728.792C197.312 728.792 196.891 728.987 196.555 729.376C196.219 729.76 196.051 730.405 196.051 731.312C196.051 732.235 196.208 732.915 196.523 733.352C196.837 733.789 197.264 734.008 197.803 734.008ZM207.593 723.96H215.465L215.457 725.912H209.945V728.816H214.721V730.728H209.945V735.528H207.593V723.96ZM219.461 727.256V735.528H217.229V727.256H219.461ZM219.485 723.968V726.072H217.213V723.968H219.485ZM224.265 735.672C223.657 735.672 223.174 735.6 222.817 735.456C222.46 735.312 222.196 735.123 222.025 734.888C221.854 734.648 221.745 734.384 221.697 734.096C221.649 733.803 221.625 733.507 221.625 733.208V723.64H223.913V732.92C223.913 733.224 223.977 733.472 224.105 733.664C224.238 733.851 224.486 733.965 224.849 734.008L225.241 734.032V735.472C225.081 735.525 224.918 735.571 224.753 735.608C224.588 735.651 224.425 735.672 224.265 735.672ZM231.399 728.88H229.559L229.575 733.288C229.575 733.491 229.599 733.643 229.647 733.744C229.701 733.84 229.781 733.904 229.887 733.936C229.999 733.963 230.141 733.976 230.311 733.976H231.423V735.416C231.317 735.464 231.149 735.509 230.919 735.552C230.695 735.595 230.381 735.616 229.975 735.616C229.25 735.616 228.687 735.523 228.287 735.336C227.893 735.149 227.618 734.888 227.463 734.552C227.309 734.216 227.231 733.827 227.231 733.384V728.88H225.887V727.256H227.311L227.895 724.76H229.559V727.248H231.399V728.88ZM234.779 731.928C234.774 732.349 234.841 732.717 234.979 733.032C235.118 733.341 235.318 733.581 235.579 733.752C235.846 733.917 236.166 734 236.539 734C236.939 734 237.289 733.915 237.587 733.744C237.891 733.573 238.102 733.293 238.219 732.904H240.323C240.233 733.491 239.998 733.992 239.619 734.408C239.246 734.824 238.793 735.141 238.259 735.36C237.726 735.579 237.171 735.688 236.595 735.688C235.779 735.688 235.059 735.517 234.435 735.176C233.817 734.829 233.334 734.341 232.987 733.712C232.641 733.083 232.467 732.341 232.467 731.488C232.467 730.661 232.625 729.917 232.939 729.256C233.254 728.589 233.71 728.064 234.307 727.68C234.91 727.291 235.633 727.096 236.475 727.096C237.318 727.096 238.025 727.275 238.595 727.632C239.171 727.984 239.603 728.477 239.891 729.112C240.185 729.741 240.331 730.469 240.331 731.296V731.928H234.779ZM234.771 730.536H238.147C238.147 730.205 238.086 729.901 237.963 729.624C237.841 729.347 237.654 729.128 237.403 728.968C237.158 728.808 236.849 728.728 236.475 728.728C236.113 728.728 235.803 728.816 235.547 728.992C235.297 729.163 235.105 729.387 234.971 729.664C234.838 729.941 234.771 730.232 234.771 730.536ZM241.953 735.528V727.256H244.201V729.216C244.334 728.795 244.521 728.427 244.761 728.112C245.006 727.792 245.302 727.544 245.649 727.368C245.996 727.187 246.388 727.096 246.825 727.096C246.9 727.096 246.969 727.101 247.033 727.112C247.102 727.117 247.153 727.128 247.185 727.144V729.368C247.137 729.347 247.078 729.333 247.009 729.328C246.945 729.323 246.886 729.317 246.833 729.312C246.374 729.275 245.982 729.288 245.657 729.352C245.332 729.416 245.068 729.525 244.865 729.68C244.662 729.835 244.516 730.024 244.425 730.248C244.334 730.472 244.289 730.723 244.289 731V735.528H241.953ZM251.71 735.688C251.134 735.688 250.579 735.595 250.046 735.408C249.512 735.216 249.062 734.917 248.694 734.512C248.326 734.101 248.091 733.571 247.99 732.92H250.014C250.083 733.213 250.208 733.445 250.39 733.616C250.576 733.787 250.787 733.909 251.022 733.984C251.256 734.053 251.48 734.088 251.694 734.088C252.142 734.088 252.502 734.019 252.774 733.88C253.051 733.736 253.19 733.517 253.19 733.224C253.19 733 253.107 732.821 252.942 732.688C252.782 732.555 252.515 732.453 252.141 732.384L250.686 732.08C249.955 731.925 249.368 731.664 248.926 731.296C248.483 730.923 248.256 730.395 248.246 729.712C248.246 729.216 248.376 728.771 248.638 728.376C248.904 727.981 249.296 727.669 249.814 727.44C250.331 727.211 250.966 727.096 251.718 727.096C252.736 727.096 253.55 727.32 254.158 727.768C254.771 728.216 255.083 728.848 255.094 729.664H253.142C253.083 729.344 252.923 729.099 252.662 728.928C252.406 728.752 252.083 728.664 251.694 728.664C251.288 728.664 250.955 728.736 250.694 728.88C250.432 729.024 250.302 729.243 250.302 729.536C250.302 729.755 250.408 729.928 250.622 730.056C250.835 730.179 251.166 730.285 251.614 730.376L252.958 730.68C253.422 730.792 253.798 730.947 254.086 731.144C254.379 731.336 254.606 731.547 254.766 731.776C254.926 732.005 255.035 732.237 255.094 732.472C255.158 732.701 255.19 732.909 255.19 733.096C255.19 733.645 255.043 734.115 254.75 734.504C254.456 734.888 254.048 735.181 253.526 735.384C253.003 735.587 252.398 735.688 251.71 735.688Z" fill="white"/>
<rect x="116.25" y="705.778" width="195.5" height="48.5" rx="2.75" stroke="#4A4A4A" stroke-width="2.5"/>
<path d="M146 358.028H116C115.172 358.028 114.5 358.7 114.5 359.528V389.528C114.5 390.357 115.172 391.028 116 391.028H146C146.828 391.028 147.5 390.357 147.5 389.528V359.528C147.5 358.7 146.828 358.028 146 358.028Z" stroke="#4A4A4A" stroke-width="3" stroke-linecap="round" stroke-linejoin="round"/>
<path d="M140 355.028V361.028" stroke="#4A4A4A" stroke-width="3" stroke-linecap="round" stroke-linejoin="round"/>
<path d="M122 355.028V361.028" stroke="#4A4A4A" stroke-width="3" stroke-linecap="round" stroke-linejoin="round"/>
<path d="M114.5 367.028H147.5" stroke="#4A4A4A" stroke-width="3" stroke-linecap="round" stroke-linejoin="round"/>
<path d="M124.25 374.528H129.5L126.5 378.278C126.994 378.277 127.48 378.398 127.916 378.63C128.351 378.863 128.723 379.199 128.998 379.609C129.273 380.019 129.442 380.491 129.491 380.982C129.539 381.473 129.466 381.969 129.277 382.425C129.088 382.882 128.79 383.284 128.408 383.597C128.026 383.91 127.573 384.125 127.089 384.221C126.605 384.317 126.104 384.292 125.632 384.148C125.16 384.004 124.73 383.746 124.381 383.397" stroke="#4A4A4A" stroke-width="3" stroke-linecap="round" stroke-linejoin="round"/>
<path d="M134 376.778L137 374.528V384.278" stroke="#4A4A4A" stroke-width="3" stroke-linecap="round" stroke-linejoin="round"/>
<path d="M183.385 379.528L187.011 369.406H189.167L192.786 379.528H190.749L189.923 377.183H186.283L185.436 379.528H183.385ZM186.738 375.398H189.433L188.096 371.38L186.738 375.398ZM201.154 369.406L197.661 379.528H195.344L191.879 369.406H193.832L196.506 377.155L199.201 369.406H201.154ZM200.352 379.528L203.978 369.406H206.134L209.753 379.528H207.716L206.89 377.183H203.25L202.403 379.528H200.352ZM203.705 375.398H206.4L205.063 371.38L203.705 375.398ZM211.273 369.406H213.31V379.528H211.273V369.406ZM215.579 369.406H217.637V377.799H222.033V379.528H215.579V369.406ZM223.115 379.528L226.741 369.406H228.897L232.516 379.528H230.479L229.653 377.183H226.013L225.166 379.528H223.115ZM226.468 375.398H229.163L227.826 371.38L226.468 375.398ZM234.036 379.528V369.406H237.704C239.03 369.406 240.012 369.635 240.651 370.092C241.295 370.545 241.617 371.2 241.617 372.059C241.617 372.563 241.489 373.002 241.232 373.375C240.976 373.744 240.518 374.066 239.86 374.341C240.285 374.448 240.628 374.593 240.889 374.775C241.151 374.957 241.351 375.16 241.491 375.384C241.631 375.603 241.727 375.834 241.778 376.077C241.83 376.315 241.855 376.551 241.855 376.784C241.855 377.717 241.538 378.408 240.903 378.856C240.269 379.304 239.258 379.528 237.872 379.528H234.036ZM236.073 377.946H237.914C238.53 377.946 238.995 377.822 239.307 377.575C239.625 377.328 239.783 376.996 239.783 376.581C239.783 376.282 239.706 376.033 239.552 375.832C239.398 375.627 239.188 375.473 238.922 375.37C238.661 375.267 238.362 375.216 238.026 375.216H236.073V377.946ZM236.073 373.592H238.026C238.236 373.592 238.437 373.569 238.628 373.522C238.824 373.471 238.997 373.394 239.146 373.291C239.3 373.188 239.422 373.058 239.51 372.899C239.599 372.736 239.643 372.544 239.643 372.325C239.643 371.886 239.478 371.555 239.146 371.331C238.82 371.102 238.4 370.988 237.886 370.988H236.073V373.592ZM243.812 369.406H245.849V379.528H243.812V369.406ZM248.118 369.406H250.176V377.799H254.572V379.528H248.118V369.406ZM256.198 369.406H258.235V379.528H256.198V369.406ZM259.637 371.226V369.406H267.736V371.226H264.747V379.528H262.696V371.226H259.637ZM277.757 369.406L274.236 375.272V379.528H272.192V375.265L268.678 369.406H270.89L273.221 373.508L275.524 369.406H277.757Z" fill="#4A4A4A"/>
<path d="M131 478.528L119.6 469.978C119.415 469.837 119.264 469.656 119.16 469.448C119.056 469.24 119.001 469.011 119 468.778V462.028C119 461.63 119.158 461.249 119.439 460.967C119.721 460.686 120.102 460.528 120.5 460.528H141.5C141.898 460.528 142.279 460.686 142.561 460.967C142.842 461.249 143 461.63 143 462.028V468.703C142.999 468.936 142.944 469.165 142.84 469.373C142.736 469.581 142.585 469.762 142.4 469.903L131 478.528Z" stroke="#4A4A4A" stroke-width="3" stroke-linecap="round" stroke-linejoin="round"/>
<path d="M131 478.528L119.6 487.078C119.415 487.219 119.264 487.4 119.16 487.608C119.056 487.816 119.001 488.045 119 488.278V495.028C119 495.426 119.158 495.807 119.439 496.089C119.721 496.37 120.102 496.528 120.5 496.528H141.5C141.898 496.528 142.279 496.37 142.561 496.089C142.842 495.807 143 495.426 143 495.028V488.353C142.999 488.12 142.944 487.891 142.84 487.683C142.736 487.475 142.585 487.294 142.4 487.153L131 478.528Z" stroke="#4A4A4A" stroke-width="3" stroke-linecap="round" stroke-linejoin="round"/>
<path d="M121.006 471.028H140.918" stroke="#4A4A4A" stroke-width="3" stroke-linecap="round" stroke-linejoin="round"/>
<path d="M131 486.028V478.528" stroke="#4A4A4A" stroke-width="3" stroke-linecap="round" stroke-linejoin="round"/>
<path d="M184.134 473.406C184.185 473.406 184.328 473.406 184.561 473.406C184.799 473.406 185.077 473.406 185.394 473.406C185.716 473.406 186.036 473.408 186.353 473.413C186.675 473.413 186.943 473.415 187.158 473.42C188.385 473.448 189.386 473.667 190.161 474.078C190.936 474.489 191.503 475.063 191.862 475.8C192.226 476.537 192.408 477.41 192.408 478.418C192.408 479.468 192.217 480.376 191.834 481.141C191.451 481.902 190.866 482.49 190.077 482.905C189.293 483.32 188.297 483.528 187.088 483.528H184.134V473.406ZM186.192 475.058V481.876H187.13C187.709 481.876 188.234 481.764 188.705 481.54C189.181 481.316 189.561 480.95 189.846 480.441C190.131 479.932 190.273 479.253 190.273 478.404C190.273 477.615 190.147 476.976 189.895 476.486C189.643 475.991 189.284 475.63 188.817 475.401C188.35 475.172 187.797 475.058 187.158 475.058H186.192ZM202.309 479.671C202.309 480.488 202.176 481.197 201.91 481.799C201.644 482.396 201.213 482.858 200.615 483.185C200.023 483.507 199.236 483.668 198.256 483.668C197.272 483.668 196.483 483.505 195.89 483.178C195.298 482.847 194.868 482.378 194.602 481.771C194.341 481.164 194.21 480.441 194.21 479.601V473.406H196.289V479.755C196.289 480.511 196.471 481.064 196.835 481.414C197.199 481.759 197.673 481.932 198.256 481.932C198.644 481.932 198.987 481.857 199.285 481.708C199.584 481.554 199.817 481.318 199.985 481.001C200.158 480.679 200.244 480.264 200.244 479.755V473.406H202.309V479.671ZM212.195 483.528H210.074L208.429 479.629H206.378V483.528H204.341V473.406H208.611C209.418 473.406 210.079 473.534 210.592 473.791C211.105 474.048 211.483 474.405 211.726 474.862C211.969 475.315 212.09 475.837 212.09 476.43C212.09 476.962 212.006 477.412 211.838 477.781C211.675 478.145 211.458 478.448 211.187 478.691C210.921 478.934 210.629 479.132 210.312 479.286L212.195 483.528ZM208.247 478.054C208.793 478.054 209.225 477.907 209.542 477.613C209.864 477.319 210.025 476.941 210.025 476.479C210.025 476.012 209.871 475.644 209.563 475.373C209.255 475.102 208.865 474.967 208.394 474.967H206.378V478.054H208.247ZM213.436 483.528L217.062 473.406H219.218L222.837 483.528H220.8L219.974 481.183H216.334L215.487 483.528H213.436ZM216.789 479.398H219.484L218.147 475.38L216.789 479.398ZM222.668 475.226V473.406H230.767V475.226H227.778V483.528H225.727V475.226H222.668ZM232.163 473.406H234.2V483.528H232.163V473.406ZM240.677 483.668C239.72 483.668 238.892 483.46 238.192 483.045C237.497 482.625 236.958 482.03 236.575 481.26C236.197 480.485 236.008 479.561 236.008 478.488C236.008 477.41 236.199 476.481 236.582 475.702C236.969 474.923 237.513 474.323 238.213 473.903C238.913 473.478 239.734 473.266 240.677 473.266C241.615 473.266 242.432 473.476 243.127 473.896C243.822 474.316 244.359 474.916 244.737 475.695C245.12 476.474 245.311 477.405 245.311 478.488C245.311 479.557 245.122 480.478 244.744 481.253C244.371 482.028 243.836 482.625 243.141 483.045C242.446 483.46 241.624 483.668 240.677 483.668ZM240.677 481.988C241.172 481.988 241.599 481.871 241.958 481.638C242.322 481.4 242.602 481.027 242.798 480.518C242.994 480.005 243.092 479.337 243.092 478.516C243.092 477.671 242.992 476.988 242.791 476.465C242.595 475.942 242.315 475.56 241.951 475.317C241.592 475.07 241.167 474.946 240.677 474.946C240.187 474.946 239.76 475.07 239.396 475.317C239.032 475.56 238.75 475.945 238.549 476.472C238.348 476.995 238.248 477.676 238.248 478.516C238.248 479.342 238.348 480.009 238.549 480.518C238.75 481.027 239.032 481.4 239.396 481.638C239.76 481.871 240.187 481.988 240.677 481.988ZM253.763 473.406H255.807V483.528H253.966L249.157 476.563V483.528H247.12V473.406H249.143L253.763 480.105V473.406ZM265.245 483.668C264.289 483.668 263.46 483.46 262.76 483.045C262.065 482.625 261.526 482.03 261.143 481.26C260.765 480.485 260.576 479.561 260.576 478.488C260.576 477.41 260.768 476.481 261.15 475.702C261.538 474.923 262.081 474.323 262.781 473.903C263.481 473.478 264.303 473.266 265.245 473.266C266.183 473.266 267 473.476 267.695 473.896C268.391 474.316 268.927 474.916 269.305 475.695C269.688 476.474 269.879 477.405 269.879 478.488C269.879 479.557 269.69 480.478 269.312 481.253C268.939 482.028 268.405 482.625 267.709 483.045C267.014 483.46 266.193 483.668 265.245 483.668ZM265.245 481.988C265.74 481.988 266.167 481.871 266.526 481.638C266.89 481.4 267.17 481.027 267.366 480.518C267.562 480.005 267.66 479.337 267.66 478.516C267.66 477.671 267.56 476.988 267.359 476.465C267.163 475.942 266.883 475.56 266.519 475.317C266.16 475.07 265.735 474.946 265.245 474.946C264.755 474.946 264.328 475.07 263.964 475.317C263.6 475.56 263.318 475.945 263.117 476.472C262.917 476.995 262.816 477.676 262.816 478.516C262.816 479.342 262.917 480.009 263.117 480.518C263.318 481.027 263.6 481.4 263.964 481.638C264.328 481.871 264.755 481.988 265.245 481.988ZM271.689 473.406H278.577L278.57 475.114H273.747V477.655H277.926V479.328H273.747V483.528H271.689V473.406ZM291.095 483.528H288.974L287.329 479.629H285.278V483.528H283.241V473.406H287.511C288.319 473.406 288.979 473.534 289.492 473.791C290.006 474.048 290.384 474.405 290.626 474.862C290.869 475.315 290.99 475.837 290.99 476.43C290.99 476.962 290.906 477.412 290.738 477.781C290.575 478.145 290.358 478.448 290.087 478.691C289.821 478.934 289.53 479.132 289.212 479.286L291.095 483.528ZM287.147 478.054C287.693 478.054 288.125 477.907 288.442 477.613C288.764 477.319 288.925 476.941 288.925 476.479C288.925 476.012 288.771 475.644 288.463 475.373C288.155 475.102 287.766 474.967 287.294 474.967H285.278V478.054H287.147ZM292.989 483.528V473.406H299.94L299.933 475.128H295.04V477.585H299.289V479.272H295.026V481.785L300.01 481.792V483.528H292.989ZM308.601 473.406H310.645V483.528H308.804L303.995 476.563V483.528H301.958V473.406H303.981L308.601 480.105V473.406ZM312.041 475.226V473.406H320.14V475.226H317.151V483.528H315.1V475.226H312.041Z" fill="#4A4A4A"/>
<path d="M184.134 577.406H186.192V585.799H190.588V587.528H184.134V577.406ZM196.148 587.668C195.191 587.668 194.363 587.46 193.663 587.045C192.967 586.625 192.428 586.03 192.046 585.26C191.668 584.485 191.479 583.561 191.479 582.488C191.479 581.41 191.67 580.481 192.053 579.702C192.44 578.923 192.984 578.323 193.684 577.903C194.384 577.478 195.205 577.266 196.148 577.266C197.086 577.266 197.902 577.476 198.598 577.896C199.293 578.316 199.83 578.916 200.208 579.695C200.59 580.474 200.782 581.405 200.782 582.488C200.782 583.557 200.593 584.478 200.215 585.253C199.841 586.028 199.307 586.625 198.612 587.045C197.916 587.46 197.095 587.668 196.148 587.668ZM196.148 585.988C196.642 585.988 197.069 585.871 197.429 585.638C197.793 585.4 198.073 585.027 198.269 584.518C198.465 584.005 198.563 583.337 198.563 582.516C198.563 581.671 198.462 580.988 198.262 580.465C198.066 579.942 197.786 579.56 197.422 579.317C197.062 579.07 196.638 578.946 196.148 578.946C195.658 578.946 195.231 579.07 194.867 579.317C194.503 579.56 194.22 579.945 194.02 580.472C193.819 580.995 193.719 581.676 193.719 582.516C193.719 583.342 193.819 584.009 194.02 584.518C194.22 585.027 194.503 585.4 194.867 585.638C195.231 585.871 195.658 585.988 196.148 585.988ZM206.618 577.266C207.379 577.266 208.056 577.42 208.648 577.728C209.246 578.031 209.726 578.447 210.09 578.974C210.459 579.501 210.676 580.096 210.741 580.759H208.599C208.534 580.409 208.415 580.099 208.242 579.828C208.07 579.553 207.843 579.338 207.563 579.184C207.283 579.025 206.947 578.946 206.555 578.946C206.084 578.946 205.678 579.06 205.337 579.289C204.997 579.518 204.735 579.886 204.553 580.395C204.371 580.904 204.28 581.576 204.28 582.411C204.28 583.671 204.481 584.583 204.882 585.148C205.288 585.708 205.846 585.988 206.555 585.988C206.947 585.988 207.283 585.899 207.563 585.722C207.843 585.54 208.07 585.302 208.242 585.008C208.415 584.709 208.534 584.383 208.599 584.028H210.741C210.681 584.509 210.564 584.968 210.391 585.407C210.219 585.841 209.974 586.228 209.656 586.569C209.339 586.91 208.931 587.178 208.431 587.374C207.932 587.57 207.328 587.668 206.618 587.668C205.676 587.668 204.861 587.449 204.175 587.01C203.489 586.571 202.96 585.955 202.586 585.162C202.218 584.369 202.033 583.442 202.033 582.383C202.033 581.319 202.218 580.407 202.586 579.646C202.955 578.881 203.482 578.293 204.168 577.882C204.854 577.471 205.671 577.266 206.618 577.266ZM211.481 587.528L215.107 577.406H217.263L220.882 587.528H218.845L218.019 585.183H214.379L213.532 587.528H211.481ZM214.834 583.398H217.529L216.192 579.38L214.834 583.398ZM220.713 579.226V577.406H228.812V579.226H225.823V587.528H223.772V579.226H220.713ZM230.208 577.406H232.245V587.528H230.208V577.406ZM238.722 587.668C237.765 587.668 236.937 587.46 236.237 587.045C235.542 586.625 235.003 586.03 234.62 585.26C234.242 584.485 234.053 583.561 234.053 582.488C234.053 581.41 234.244 580.481 234.627 579.702C235.014 578.923 235.558 578.323 236.258 577.903C236.958 577.478 237.779 577.266 238.722 577.266C239.66 577.266 240.477 577.476 241.172 577.896C241.867 578.316 242.404 578.916 242.782 579.695C243.165 580.474 243.356 581.405 243.356 582.488C243.356 583.557 243.167 584.478 242.789 585.253C242.416 586.028 241.881 586.625 241.186 587.045C240.491 587.46 239.669 587.668 238.722 587.668ZM238.722 585.988C239.217 585.988 239.644 585.871 240.003 585.638C240.367 585.4 240.647 585.027 240.843 584.518C241.039 584.005 241.137 583.337 241.137 582.516C241.137 581.671 241.037 580.988 240.836 580.465C240.64 579.942 240.36 579.56 239.996 579.317C239.637 579.07 239.212 578.946 238.722 578.946C238.232 578.946 237.805 579.07 237.441 579.317C237.077 579.56 236.795 579.945 236.594 580.472C236.393 580.995 236.293 581.676 236.293 582.516C236.293 583.342 236.393 584.009 236.594 584.518C236.795 585.027 237.077 585.4 237.441 585.638C237.805 585.871 238.232 585.988 238.722 585.988ZM251.808 577.406H253.852V587.528H252.011L247.202 580.563V587.528H245.165V577.406H247.188L251.808 584.105V577.406Z" fill="#4A4A4A"/>
<path d="M131 584.028C134.314 584.028 137 581.342 137 578.028C137 574.714 134.314 572.028 131 572.028C127.686 572.028 125 574.714 125 578.028C125 581.342 127.686 584.028 131 584.028Z" stroke="#4A4A4A" stroke-width="3" stroke-linecap="round" stroke-linejoin="round"/>
<path d="M146 578.028C146 591.528 131 602.028 131 602.028C131 602.028 116 591.528 116 578.028C116 574.05 117.58 570.235 120.393 567.421C123.206 564.608 127.022 563.028 131 563.028C134.978 563.028 138.794 564.608 141.607 567.421C144.42 570.235 146 574.05 146 578.028V578.028Z" stroke="#4A4A4A" stroke-width="3" stroke-linecap="round" stroke-linejoin="round"/>
<path d="M38.6188 321.238L33 315.619L38.6188 310" stroke="#3E3E3E" stroke-width="2.65192" stroke-linecap="round" stroke-linejoin="round"/>
<path d="M33 315.619H46.2596" stroke="#3E3E3E" stroke-width="2.65192" stroke-linecap="round" stroke-linejoin="round"/>
<defs>
<filter id="filter0_d_676_2363" x="77.5" y="820.5" width="279" height="71" filterUnits="userSpaceOnUse" color-interpolation-filters="sRGB">
<feFlood flood-opacity="0" result="BackgroundImageFix"/>
<feColorMatrix in="SourceAlpha" type="matrix" values="0 0 0 0 0 0 0 0 0 0 0 0 0 0 0 0 0 0 127 0" result="hardAlpha"/>
<feOffset dx="3" dy="4"/>
<feGaussianBlur stdDeviation="3.75"/>
<feComposite in2="hardAlpha" operator="out"/>
<feColorMatrix type="matrix" values="0 0 0 0 0.529412 0 0 0 0 0.462745 0 0 0 0 0.341176 0 0 0 0.3 0"/>
<feBlend mode="normal" in2="BackgroundImageFix" result="effect1_dropShadow_676_2363"/>
<feBlend mode="normal" in="SourceGraphic" in2="effect1_dropShadow_676_2363" result="shape"/>
</filter>
<clipPath id="clip0_676_2363">
<rect width="119" height="119" fill="white" transform="translate(155 22)"/>
</clipPath>
</defs>
</svg>
