<svg width="428" height="926" viewBox="0 0 428 926" fill="none" xmlns="http://www.w3.org/2000/svg">
<rect width="428" height="926" fill="#F8F2E9"/>
<g filter="url(#filter0_d_520_899)">
<rect x="82" y="824" width="264" height="56" rx="28" fill="#F8F2E9" shape-rendering="crispEdges"/>
<path d="M121 862V856C121 855.735 120.895 855.48 120.707 855.293C120.52 855.105 120.265 855 120 855H116C115.735 855 115.48 855.105 115.293 855.293C115.105 855.48 115 855.735 115 856V862C115 862.265 114.895 862.52 114.707 862.707C114.52 862.895 114.265 863 114 863H108C107.735 863 107.48 862.895 107.293 862.707C107.105 862.52 107 862.265 107 862V850.438C107.002 850.299 107.032 850.163 107.088 850.036C107.144 849.909 107.224 849.795 107.325 849.7L117.325 840.613C117.509 840.444 117.75 840.35 118 840.35C118.25 840.35 118.491 840.444 118.675 840.613L128.675 849.7C128.776 849.795 128.856 849.909 128.912 850.036C128.968 850.163 128.998 850.299 129 850.438V862C129 862.265 128.895 862.52 128.707 862.707C128.52 862.895 128.265 863 128 863H122C121.735 863 121.48 862.895 121.293 862.707C121.105 862.52 121 862.265 121 862Z" fill="#4A4A4A"/>
<path d="M178 845C178 843.939 178.421 842.922 179.172 842.172C179.922 841.421 180.939 841 182 841C183.061 841 184.078 841.421 184.828 842.172C185.579 842.922 186 843.939 186 845L168.4 858.2C168.232 858.326 168.108 858.501 168.045 858.702C167.983 858.902 167.985 859.117 168.051 859.316C168.118 859.515 168.245 859.689 168.415 859.811C168.586 859.934 168.79 860 169 860H195C195.21 860 195.414 859.934 195.585 859.811C195.755 859.689 195.882 859.515 195.949 859.316C196.015 859.117 196.017 858.902 195.955 858.702C195.892 858.501 195.768 858.326 195.6 858.2L182 848" stroke="#4A4A4A" stroke-width="2" stroke-linecap="round" stroke-linejoin="round"/>
<path d="M246 856C250.418 856 254 852.418 254 848C254 843.582 250.418 840 246 840C241.582 840 238 843.582 238 848C238 852.418 241.582 856 246 856Z" stroke="#4A4A4A" stroke-width="2" stroke-miterlimit="10"/>
<path d="M233.875 863C235.104 860.871 236.871 859.104 238.999 857.875C241.128 856.646 243.542 855.999 246 855.999C248.458 855.999 250.872 856.646 253.001 857.875C255.129 859.104 256.896 860.871 258.125 863" stroke="#4A4A4A" stroke-width="2" stroke-linecap="round" stroke-linejoin="round"/>
<path d="M305.954 841.143L306.937 838.606C307.103 838.176 307.394 837.807 307.774 837.546C308.153 837.285 308.602 837.144 309.063 837.143H310.937C311.397 837.144 311.847 837.285 312.226 837.546C312.605 837.807 312.897 838.176 313.063 838.606L314.046 841.143L317.383 843.063L320.08 842.651C320.529 842.59 320.986 842.664 321.393 842.864C321.8 843.063 322.139 843.379 322.366 843.771L323.28 845.371C323.514 845.77 323.622 846.23 323.589 846.691C323.557 847.152 323.385 847.593 323.097 847.954L321.428 850.08V853.92L323.143 856.046C323.431 856.407 323.603 856.848 323.635 857.309C323.668 857.77 323.56 858.23 323.326 858.629L322.411 860.229C322.184 860.621 321.846 860.937 321.439 861.136C321.032 861.336 320.575 861.409 320.126 861.349L317.428 860.937L314.091 862.857L313.108 865.394C312.943 865.824 312.651 866.193 312.272 866.454C311.892 866.715 311.443 866.856 310.983 866.857H309.063C308.602 866.856 308.153 866.715 307.774 866.454C307.394 866.193 307.103 865.824 306.937 865.394L305.954 862.857L302.617 860.937L299.92 861.349C299.471 861.409 299.014 861.336 298.607 861.136C298.2 860.937 297.861 860.621 297.634 860.229L296.72 858.629C296.486 858.23 296.378 857.77 296.41 857.309C296.443 856.848 296.615 856.407 296.903 856.046L298.571 853.92V850.08L296.857 847.954C296.569 847.593 296.397 847.152 296.365 846.691C296.332 846.23 296.44 845.77 296.674 845.371L297.588 843.771C297.815 843.379 298.154 843.063 298.561 842.864C298.968 842.664 299.425 842.59 299.874 842.651L302.571 843.063L305.954 841.143ZM305.428 852C305.428 852.904 305.697 853.788 306.199 854.54C306.701 855.291 307.415 855.877 308.25 856.223C309.086 856.569 310.005 856.66 310.892 856.484C311.778 856.307 312.593 855.872 313.232 855.232C313.872 854.593 314.307 853.779 314.483 852.892C314.66 852.005 314.569 851.086 314.223 850.251C313.877 849.415 313.291 848.701 312.54 848.199C311.788 847.697 310.904 847.429 310 847.429C308.787 847.429 307.625 847.91 306.767 848.767C305.91 849.625 305.428 850.788 305.428 852V852Z" stroke="#3E3E3E" stroke-width="2" stroke-linecap="round" stroke-linejoin="round"/>
</g>
<g clip-path="url(#clip0_520_899)">
<path d="M240.646 92.0176C240.549 91.6316 240.501 91.2208 240.501 90.7849C240.501 89.1541 241.237 87.7352 242.71 86.5279C244.183 85.3207 247.195 83.8385 251.746 82.0813V80.735C251.746 79.3191 251.565 78.3046 251.205 77.6915C250.845 77.0784 250.254 76.7719 249.432 76.7719C248.762 76.7719 248.206 76.9709 247.764 77.3692C247.321 77.7674 247.1 78.2635 247.1 78.8578C247.1 79.1737 247.113 79.5435 247.138 79.967C247.163 80.3905 247.176 80.6592 247.176 80.7729C247.176 81.6957 246.92 82.4384 246.408 83.001C245.896 83.5635 245.216 83.8447 244.369 83.8447C243.598 83.8447 242.979 83.6014 242.511 83.1147C242.043 82.628 241.809 81.9864 241.809 81.1901C241.809 79.4708 242.625 78.0455 244.256 76.9141C245.886 75.7826 247.985 75.217 250.551 75.217C251.992 75.217 253.297 75.4003 254.467 75.7669C255.636 76.1336 256.594 76.6644 257.339 77.3597C257.946 77.9286 258.376 78.5923 258.629 79.3507C258.882 80.1092 259.008 81.2532 259.008 82.7829V88.1871C259.008 89.6914 259.125 90.7597 259.359 91.3916C259.593 92.0237 259.969 92.3398 260.487 92.3398C260.601 92.3398 260.715 92.3146 260.828 92.264C260.942 92.2133 261.062 92.1376 261.189 92.0363V93.2689C260.683 93.9136 260.029 94.413 259.226 94.7669C258.423 95.1209 257.535 95.2979 256.562 95.2979C255.45 95.2979 254.517 95.0388 253.765 94.5205C253.013 94.0021 252.46 93.2374 252.106 92.2261C251.145 93.3259 250.137 94.1444 249.081 94.6816C248.026 95.2188 246.91 95.4875 245.735 95.4875C244.18 95.4875 242.919 95.0482 241.952 94.1697C241.629 93.8765 241.36 93.5555 241.145 93.2066C240.384 93.8039 239.157 94.494 238.538 94.7669C237.736 95.1209 236.848 95.2979 235.874 95.2979C234.762 95.2979 233.829 95.0388 233.077 94.5205C232.325 94.0021 231.772 93.2374 231.418 92.2261C230.457 93.3259 229.449 94.1444 228.394 94.6816C227.338 95.2188 226.223 95.4875 225.047 95.4875C223.492 95.4875 222.231 95.0482 221.264 94.1697C220.297 93.2911 219.813 92.1628 219.813 90.7849C219.813 89.1541 220.55 87.7352 222.022 86.5279C223.495 85.3207 226.507 83.8385 231.058 82.0813V80.735C231.058 79.3191 230.878 78.3046 230.517 77.6915C230.157 77.0784 229.566 76.7719 228.744 76.7719C228.075 76.7719 227.518 76.9709 227.076 77.3692C226.633 77.7674 226.412 78.2635 226.412 78.8578C226.412 79.1737 226.425 79.5435 226.45 79.967C226.475 80.3905 226.488 80.6592 226.488 80.7729C226.488 81.6957 226.232 82.4384 225.72 83.001C225.208 83.5635 224.529 83.8447 223.682 83.8447C222.91 83.8447 222.291 83.6014 221.823 83.1147C221.356 82.628 221.122 81.9864 221.122 81.1901C221.122 79.4708 221.937 78.0455 223.568 76.9141C225.199 75.7826 227.297 75.217 229.863 75.217C231.304 75.217 232.61 75.4003 233.779 75.7669C234.948 76.1336 235.906 76.6644 236.652 77.3597C237.258 77.9286 237.688 78.5923 237.941 79.3507C238.194 80.1092 238.32 81.2532 238.32 82.7829V88.1871C238.32 89.6914 238.437 90.7597 238.671 91.3916C238.905 92.0237 239.281 92.3398 239.799 92.3398C239.913 92.3398 240.027 92.3146 240.141 92.264C240.194 92.2403 240.414 92.1343 240.646 92.0176ZM182.778 94.6722L178.246 85.6651V90.8228C178.246 91.8215 178.423 92.5326 178.777 92.9561C179.131 93.3796 179.731 93.5913 180.578 93.5913H180.692V94.6722H168.499V93.5913H168.613C169.448 93.5913 170.045 93.3796 170.405 92.9561C170.765 92.5326 170.946 91.8215 170.946 90.8228V75.2548C170.946 74.6734 170.879 74.2531 170.746 73.994C170.614 73.7348 170.313 73.4156 169.846 73.0364L167.798 71.3677C168.683 71.1022 169.915 70.6788 171.495 70.0972C173.076 69.5157 175.326 68.6561 178.246 67.5183V84.6222C179.902 83.3454 181.15 82.1919 181.991 81.1616C182.832 80.1314 183.252 79.237 183.252 78.4785C183.252 78.0739 183.097 77.7516 182.787 77.5115C182.478 77.2712 182.051 77.1511 181.507 77.1511H181.394V76.0703H191.254V77.1511H190.932C189.63 77.1511 188.403 77.4925 187.253 78.175C186.103 78.8578 184.921 79.9448 183.707 81.4366L189.149 90.7469C189.743 91.7836 190.319 92.5042 190.875 92.9087C191.429 93.3119 192.122 93.5393 192.953 93.5909C193.752 93.5796 194.326 93.368 194.677 92.9561C195.037 92.5326 195.217 91.8215 195.217 90.8228V82.7829C195.217 82.2014 195.154 81.781 195.027 81.5219C194.901 81.2628 194.604 80.9499 194.136 80.5833L192.069 78.9146C193.574 78.4343 195.198 77.8717 196.943 77.227C198.687 76.5823 200.545 75.8617 202.518 75.0652V90.8228C202.518 91.7962 202.691 92.4946 203.039 92.9181C203.387 93.3416 203.965 93.566 204.774 93.5913H204.811C205.645 93.5913 206.243 93.3796 206.603 92.9561C206.963 92.5326 207.143 91.8215 207.143 90.8228V83.6741C207.143 83.0673 207.067 82.6185 206.916 82.3278C206.764 82.0371 206.48 81.7526 206.063 81.4745L203.692 79.8058C204.931 79.376 206.36 78.7851 207.978 78.0329C209.596 77.2807 211.58 76.2915 213.932 75.0652V78.4027C214.564 77.3407 215.25 76.5444 215.989 76.0134C216.729 75.4825 217.522 75.217 218.369 75.217C219.304 75.217 220.057 75.4951 220.625 76.0513C221.194 76.6075 221.479 77.3407 221.479 78.2509C221.479 79.0474 221.242 79.6857 220.768 80.1661C220.294 80.6465 219.665 80.8866 218.881 80.8866C218.173 80.8866 217.494 80.6023 216.842 80.0333C216.191 79.4645 215.777 79.1801 215.6 79.1801C215.183 79.1801 214.886 79.4582 214.709 80.0144C214.532 80.5707 214.444 81.563 214.444 82.9915V90.8228C214.444 91.8089 214.643 92.5168 215.041 92.9465C215.439 93.3764 216.093 93.5913 217.004 93.5913H217.117V94.6722H182.778ZM251.746 83.4845C250.608 83.9396 249.742 84.657 249.148 85.6367C248.554 86.6164 248.257 87.8142 248.257 89.23C248.257 90.0391 248.418 90.6838 248.74 91.1642C249.062 91.6445 249.483 91.8847 250.001 91.8847C250.671 91.8847 251.129 91.6192 251.376 91.0883C251.622 90.5573 251.746 89.23 251.746 87.1063V83.4845ZM231.058 83.4845C229.92 83.9396 229.054 84.657 228.46 85.6367C227.866 86.6164 227.569 87.8142 227.569 89.23C227.569 90.0391 227.73 90.6838 228.052 91.1642C228.375 91.6445 228.795 91.8847 229.313 91.8847C229.983 91.8847 230.442 91.6192 230.688 91.0883C230.935 90.5573 231.058 89.23 231.058 87.1063V83.4845ZM194.705 71.3297C194.705 70.2679 195.075 69.3671 195.814 68.6277C196.554 67.8881 197.455 67.5183 198.517 67.5183C199.591 67.5183 200.495 67.8881 201.228 68.6277C201.961 69.3671 202.328 70.2679 202.328 71.3297C202.328 72.3917 201.958 73.2923 201.219 74.0319C200.479 74.7713 199.578 75.1411 198.517 75.1411C197.455 75.1411 196.554 74.7745 195.814 74.0413C195.075 73.3081 194.705 72.4043 194.705 71.3297Z" fill="#3E3E3E"/>
</g>
<path d="M381 116H359C358.448 116 358 116.448 358 117V135C358 135.552 358.448 136 359 136H381C381.552 136 382 135.552 382 135V117C382 116.448 381.552 116 381 116Z" fill="#3E3E3E"/>
<path d="M375 121C375 122.326 374.473 123.598 373.536 124.536C372.598 125.473 371.326 126 370 126C368.674 126 367.402 125.473 366.464 124.536C365.527 123.598 365 122.326 365 121" stroke="#F8F2E9" stroke-width="2" stroke-linecap="round" stroke-linejoin="round"/>
<rect x="116.25" y="738.25" width="195.5" height="48.5" rx="2.75" fill="#616161"/>
<path d="M204.482 756.432H206.818V768H204.714L199.218 760.04V768H196.89V756.432H199.202L204.482 764.088V756.432ZM210.811 764.4C210.805 764.821 210.872 765.189 211.011 765.504C211.149 765.813 211.349 766.053 211.611 766.224C211.877 766.389 212.197 766.472 212.571 766.472C212.971 766.472 213.32 766.387 213.619 766.216C213.923 766.045 214.133 765.765 214.251 765.376H216.355C216.264 765.963 216.029 766.464 215.651 766.88C215.277 767.296 214.824 767.613 214.291 767.832C213.757 768.051 213.203 768.16 212.627 768.16C211.811 768.16 211.091 767.989 210.467 767.648C209.848 767.301 209.365 766.813 209.019 766.184C208.672 765.555 208.499 764.813 208.499 763.96C208.499 763.133 208.656 762.389 208.971 761.728C209.285 761.061 209.741 760.536 210.339 760.152C210.941 759.763 211.664 759.568 212.507 759.568C213.349 759.568 214.056 759.747 214.627 760.104C215.203 760.456 215.635 760.949 215.923 761.584C216.216 762.213 216.363 762.941 216.363 763.768V764.4H210.811ZM210.803 763.008H214.179C214.179 762.677 214.117 762.373 213.995 762.096C213.872 761.819 213.685 761.6 213.435 761.44C213.189 761.28 212.88 761.2 212.507 761.2C212.144 761.2 211.835 761.288 211.579 761.464C211.328 761.635 211.136 761.859 211.003 762.136C210.869 762.413 210.803 762.704 210.803 763.008ZM225.448 768H223.008L221.032 765.304L219.048 768H216.6L219.784 763.688L216.88 759.728H219.32L221.04 762.048L222.752 759.728H225.2L222.272 763.688L225.448 768ZM231.681 761.352H229.841L229.857 765.76C229.857 765.963 229.881 766.115 229.929 766.216C229.982 766.312 230.062 766.376 230.169 766.408C230.281 766.435 230.422 766.448 230.593 766.448H231.705V767.888C231.598 767.936 231.43 767.981 231.201 768.024C230.977 768.067 230.662 768.088 230.257 768.088C229.531 768.088 228.969 767.995 228.569 767.808C228.174 767.621 227.899 767.36 227.745 767.024C227.59 766.688 227.513 766.299 227.513 765.856V761.352H226.169V759.728H227.593L228.177 757.232H229.841V759.72H231.681V761.352Z" fill="white"/>
<rect x="116.25" y="738.25" width="195.5" height="48.5" rx="2.75" stroke="#4A4A4A" stroke-width="2.5"/>
<rect x="95.25" y="655.25" width="237.5" height="48.5" rx="2.75" fill="#40923A"/>
<path d="M115.068 684.64C114.578 684.64 114.1 684.579 113.633 684.458C113.166 684.332 112.742 684.148 112.359 683.905C111.981 683.658 111.666 683.352 111.414 682.988C111.162 682.619 111.008 682.19 110.952 681.7H112.716C112.791 682.041 112.938 682.328 113.157 682.561C113.376 682.794 113.649 682.972 113.976 683.093C114.307 683.214 114.669 683.275 115.061 683.275C115.481 683.275 115.859 683.219 116.195 683.107C116.536 682.995 116.804 682.832 117 682.617C117.201 682.402 117.301 682.139 117.301 681.826C117.301 681.551 117.229 681.317 117.084 681.126C116.939 680.935 116.736 680.778 116.475 680.657C116.218 680.531 115.917 680.431 115.572 680.356L113.71 679.95C112.959 679.796 112.364 679.497 111.925 679.054C111.486 678.611 111.262 678.02 111.253 677.283C111.248 676.672 111.409 676.14 111.736 675.687C112.067 675.23 112.518 674.877 113.087 674.63C113.656 674.378 114.3 674.252 115.019 674.252C115.859 674.252 116.566 674.39 117.14 674.665C117.719 674.936 118.155 675.3 118.449 675.757C118.748 676.214 118.899 676.716 118.904 677.262H117.182C117.14 676.861 117.019 676.541 116.818 676.303C116.622 676.065 116.37 675.895 116.062 675.792C115.754 675.689 115.413 675.638 115.04 675.638C114.76 675.638 114.499 675.671 114.256 675.736C114.013 675.801 113.801 675.897 113.619 676.023C113.437 676.149 113.295 676.303 113.192 676.485C113.094 676.662 113.045 676.865 113.045 677.094C113.045 677.421 113.152 677.687 113.367 677.892C113.586 678.093 113.995 678.263 114.592 678.403L116.412 678.809C116.977 678.921 117.432 679.089 117.777 679.313C118.122 679.537 118.386 679.794 118.568 680.083C118.75 680.368 118.871 680.659 118.932 680.958C118.993 681.257 119.023 681.541 119.023 681.812C119.023 682.339 118.86 682.818 118.533 683.247C118.211 683.676 117.754 684.017 117.161 684.269C116.573 684.516 115.875 684.64 115.068 684.64ZM122.736 684.64C122.274 684.64 121.858 684.556 121.49 684.388C121.126 684.215 120.839 683.97 120.629 683.653C120.423 683.331 120.321 682.941 120.321 682.484C120.321 681.686 120.608 681.084 121.182 680.678C121.76 680.272 122.682 680.06 123.947 680.041L125.025 680.013V679.523C125.025 679.14 124.91 678.842 124.682 678.627C124.458 678.408 124.108 678.3 123.632 678.305C123.282 678.31 122.96 678.394 122.666 678.557C122.376 678.716 122.185 678.984 122.092 679.362H120.643C120.671 678.867 120.813 678.454 121.07 678.123C121.331 677.787 121.688 677.537 122.141 677.374C122.593 677.206 123.116 677.122 123.709 677.122C124.399 677.122 124.962 677.213 125.396 677.395C125.83 677.577 126.149 677.841 126.355 678.186C126.56 678.527 126.663 678.94 126.663 679.425V684.5H125.228L125.095 683.198C124.833 683.744 124.502 684.122 124.101 684.332C123.704 684.537 123.249 684.64 122.736 684.64ZM123.289 683.485C123.499 683.485 123.706 683.448 123.912 683.373C124.117 683.294 124.304 683.189 124.472 683.058C124.64 682.923 124.773 682.773 124.871 682.61C124.973 682.447 125.025 682.276 125.025 682.099V680.958L124.136 680.972C123.697 680.977 123.314 681.023 122.988 681.112C122.661 681.201 122.404 681.343 122.218 681.539C122.036 681.73 121.945 681.987 121.945 682.309C121.945 682.678 122.073 682.967 122.33 683.177C122.586 683.382 122.906 683.485 123.289 683.485ZM134.373 677.262L131.706 684.5H130.362L127.688 677.262H129.249L130.985 682.33H131.076L132.805 677.262H134.373ZM136.651 681.273C136.646 681.684 136.711 682.048 136.847 682.365C136.982 682.682 137.183 682.932 137.449 683.114C137.715 683.291 138.044 683.38 138.436 683.38C138.837 683.38 139.185 683.291 139.479 683.114C139.777 682.932 139.976 682.657 140.074 682.288H141.635C141.551 682.792 141.35 683.219 141.033 683.569C140.715 683.919 140.33 684.185 139.878 684.367C139.43 684.549 138.963 684.64 138.478 684.64C137.778 684.64 137.162 684.493 136.63 684.199C136.102 683.9 135.689 683.476 135.391 682.925C135.097 682.374 134.95 681.719 134.95 680.958C134.95 680.216 135.085 679.558 135.356 678.984C135.626 678.405 136.016 677.95 136.525 677.619C137.038 677.288 137.654 677.122 138.373 677.122C139.087 677.122 139.686 677.274 140.172 677.577C140.662 677.88 141.03 678.305 141.278 678.851C141.53 679.392 141.656 680.027 141.656 680.755V681.273H136.651ZM136.651 680.216H140.046C140.046 679.866 139.985 679.551 139.864 679.271C139.742 678.986 139.556 678.762 139.304 678.599C139.056 678.431 138.744 678.347 138.366 678.347C137.992 678.347 137.677 678.438 137.421 678.62C137.164 678.802 136.97 679.038 136.84 679.327C136.709 679.612 136.646 679.908 136.651 680.216ZM150.312 678.466H148.695L148.702 682.617C148.702 682.832 148.726 682.99 148.772 683.093C148.824 683.191 148.903 683.256 149.01 683.289C149.122 683.317 149.272 683.331 149.458 683.331H150.347V684.409C150.254 684.446 150.112 684.479 149.92 684.507C149.734 684.54 149.482 684.556 149.164 684.556C148.59 684.556 148.145 684.481 147.827 684.332C147.515 684.178 147.298 683.961 147.176 683.681C147.055 683.401 146.994 683.067 146.994 682.68V678.466H145.818V677.262H147.043L147.47 675.113H148.695V677.255H150.312V678.466ZM151.98 684.5V674.098H153.66V678.312C153.776 678.13 153.93 677.955 154.122 677.787C154.313 677.614 154.546 677.474 154.822 677.367C155.102 677.255 155.435 677.199 155.823 677.199C156.285 677.199 156.707 677.288 157.09 677.465C157.472 677.642 157.778 677.899 158.007 678.235C158.235 678.566 158.35 678.963 158.35 679.425V684.5H156.642V679.712C156.642 679.339 156.509 679.049 156.243 678.844C155.981 678.639 155.65 678.536 155.249 678.536C154.983 678.536 154.728 678.583 154.486 678.676C154.243 678.769 154.047 678.909 153.898 679.096C153.753 679.278 153.681 679.507 153.681 679.782V684.5H151.98ZM161.506 681.273C161.501 681.684 161.567 682.048 161.702 682.365C161.837 682.682 162.038 682.932 162.304 683.114C162.57 683.291 162.899 683.38 163.291 683.38C163.692 683.38 164.04 683.291 164.334 683.114C164.633 682.932 164.831 682.657 164.929 682.288H166.49C166.406 682.792 166.205 683.219 165.888 683.569C165.571 683.919 165.186 684.185 164.733 684.367C164.285 684.549 163.818 684.64 163.333 684.64C162.633 684.64 162.017 684.493 161.485 684.199C160.958 683.9 160.545 683.476 160.246 682.925C159.952 682.374 159.805 681.719 159.805 680.958C159.805 680.216 159.94 679.558 160.211 678.984C160.482 678.405 160.871 677.95 161.38 677.619C161.893 677.288 162.509 677.122 163.228 677.122C163.942 677.122 164.542 677.274 165.027 677.577C165.517 677.88 165.886 678.305 166.133 678.851C166.385 679.392 166.511 680.027 166.511 680.755V681.273H161.506ZM161.506 680.216H164.901C164.901 679.866 164.84 679.551 164.719 679.271C164.598 678.986 164.411 678.762 164.159 678.599C163.912 678.431 163.599 678.347 163.221 678.347C162.848 678.347 162.533 678.438 162.276 678.62C162.019 678.802 161.826 679.038 161.695 679.327C161.564 679.612 161.501 679.908 161.506 680.216ZM170.794 684.64C170.29 684.64 169.812 684.561 169.359 684.402C168.911 684.239 168.533 683.984 168.225 683.639C167.922 683.294 167.731 682.848 167.651 682.302H169.149C169.215 682.568 169.329 682.785 169.492 682.953C169.66 683.121 169.859 683.245 170.087 683.324C170.316 683.399 170.549 683.436 170.787 683.436C171.221 683.436 171.571 683.361 171.837 683.212C172.108 683.063 172.243 682.832 172.243 682.519C172.243 682.29 172.169 682.108 172.019 681.973C171.87 681.838 171.632 681.735 171.305 681.665L169.926 681.35C169.315 681.215 168.823 680.991 168.449 680.678C168.081 680.365 167.894 679.924 167.889 679.355C167.885 678.926 167.992 678.543 168.211 678.207C168.431 677.871 168.757 677.607 169.191 677.416C169.625 677.22 170.162 677.122 170.801 677.122C171.646 677.122 172.323 677.311 172.831 677.689C173.34 678.062 173.601 678.597 173.615 679.292H172.166C172.115 678.979 171.968 678.737 171.725 678.564C171.483 678.387 171.168 678.298 170.78 678.298C170.379 678.298 170.05 678.375 169.793 678.529C169.537 678.683 169.408 678.919 169.408 679.236C169.408 679.455 169.506 679.628 169.702 679.754C169.898 679.88 170.192 679.987 170.584 680.076L171.886 680.391C172.26 680.484 172.565 680.61 172.803 680.769C173.041 680.928 173.228 681.103 173.363 681.294C173.499 681.481 173.592 681.674 173.643 681.875C173.699 682.071 173.727 682.253 173.727 682.421C173.727 682.888 173.606 683.287 173.363 683.618C173.125 683.945 172.787 684.197 172.348 684.374C171.91 684.551 171.392 684.64 170.794 684.64ZM176.668 681.273C176.664 681.684 176.729 682.048 176.864 682.365C177 682.682 177.2 682.932 177.466 683.114C177.732 683.291 178.061 683.38 178.453 683.38C178.855 683.38 179.202 683.291 179.496 683.114C179.795 682.932 179.993 682.657 180.091 682.288H181.652C181.568 682.792 181.368 683.219 181.05 683.569C180.733 683.919 180.348 684.185 179.895 684.367C179.447 684.549 178.981 684.64 178.495 684.64C177.795 684.64 177.179 684.493 176.647 684.199C176.12 683.9 175.707 683.476 175.408 682.925C175.114 682.374 174.967 681.719 174.967 680.958C174.967 680.216 175.103 679.558 175.373 678.984C175.644 678.405 176.034 677.95 176.542 677.619C177.056 677.288 177.672 677.122 178.39 677.122C179.104 677.122 179.704 677.274 180.189 677.577C180.679 677.88 181.048 678.305 181.295 678.851C181.547 679.392 181.673 680.027 181.673 680.755V681.273H176.668ZM176.668 680.216H180.063C180.063 679.866 180.003 679.551 179.881 679.271C179.76 678.986 179.573 678.762 179.321 678.599C179.074 678.431 178.761 678.347 178.383 678.347C178.01 678.347 177.695 678.438 177.438 678.62C177.182 678.802 176.988 679.038 176.857 679.327C176.727 679.612 176.664 679.908 176.668 680.216ZM188.812 684.64C187.856 684.64 187.104 684.311 186.558 683.653C186.012 682.995 185.739 682.059 185.739 680.846C185.739 680.09 185.849 679.434 186.068 678.879C186.292 678.319 186.619 677.887 187.048 677.584C187.482 677.276 188.019 677.122 188.658 677.122C188.957 677.122 189.228 677.159 189.47 677.234C189.718 677.304 189.937 677.397 190.128 677.514C190.32 677.631 190.481 677.759 190.611 677.899C190.747 678.039 190.852 678.179 190.926 678.319V674.098H192.634V684.5H191.374L191.185 683.016C191.129 683.189 191.045 683.371 190.933 683.562C190.826 683.749 190.679 683.924 190.492 684.087C190.31 684.25 190.082 684.383 189.806 684.486C189.531 684.589 189.2 684.64 188.812 684.64ZM189.162 683.387C189.774 683.387 190.219 683.189 190.499 682.792C190.784 682.391 190.926 681.728 190.926 680.804C190.922 680.277 190.856 679.833 190.73 679.474C190.609 679.115 190.42 678.844 190.163 678.662C189.911 678.48 189.585 678.389 189.183 678.389C188.67 678.389 188.248 678.578 187.916 678.956C187.585 679.334 187.419 679.95 187.419 680.804C187.419 681.653 187.571 682.297 187.874 682.736C188.178 683.17 188.607 683.387 189.162 683.387ZM195.905 681.273C195.9 681.684 195.965 682.048 196.101 682.365C196.236 682.682 196.437 682.932 196.703 683.114C196.969 683.291 197.298 683.38 197.69 683.38C198.091 683.38 198.439 683.291 198.733 683.114C199.031 682.932 199.23 682.657 199.328 682.288H200.889C200.805 682.792 200.604 683.219 200.287 683.569C199.969 683.919 199.584 684.185 199.132 684.367C198.684 684.549 198.217 684.64 197.732 684.64C197.032 684.64 196.416 684.493 195.884 684.199C195.356 683.9 194.943 683.476 194.645 682.925C194.351 682.374 194.204 681.719 194.204 680.958C194.204 680.216 194.339 679.558 194.61 678.984C194.88 678.405 195.27 677.95 195.779 677.619C196.292 677.288 196.908 677.122 197.627 677.122C198.341 677.122 198.94 677.274 199.426 677.577C199.916 677.88 200.284 678.305 200.532 678.851C200.784 679.392 200.91 680.027 200.91 680.755V681.273H195.905ZM195.905 680.216H199.3C199.3 679.866 199.239 679.551 199.118 679.271C198.996 678.986 198.81 678.762 198.558 678.599C198.31 678.431 197.998 678.347 197.62 678.347C197.246 678.347 196.931 678.438 196.675 678.62C196.418 678.802 196.224 679.038 196.094 679.327C195.963 679.612 195.9 679.908 195.905 680.216ZM206.34 678.466H204.723L204.73 682.617C204.73 682.832 204.753 682.99 204.8 683.093C204.851 683.191 204.93 683.256 205.038 683.289C205.15 683.317 205.299 683.331 205.486 683.331H206.375V684.409C206.281 684.446 206.139 684.479 205.948 684.507C205.761 684.54 205.509 684.556 205.192 684.556C204.618 684.556 204.172 684.481 203.855 684.332C203.542 684.178 203.325 683.961 203.204 683.681C203.082 683.401 203.022 683.067 203.022 682.68V678.466H201.846V677.262H203.071L203.498 675.113H204.723V677.255H206.34V678.466ZM210.031 684.64C209.569 684.64 209.153 684.556 208.785 684.388C208.421 684.215 208.134 683.97 207.924 683.653C207.718 683.331 207.616 682.941 207.616 682.484C207.616 681.686 207.903 681.084 208.477 680.678C209.055 680.272 209.977 680.06 211.242 680.041L212.32 680.013V679.523C212.32 679.14 212.205 678.842 211.977 678.627C211.753 678.408 211.403 678.3 210.927 678.305C210.577 678.31 210.255 678.394 209.961 678.557C209.671 678.716 209.48 678.984 209.387 679.362H207.938C207.966 678.867 208.108 678.454 208.365 678.123C208.626 677.787 208.983 677.537 209.436 677.374C209.888 677.206 210.411 677.122 211.004 677.122C211.694 677.122 212.257 677.213 212.691 677.395C213.125 677.577 213.444 677.841 213.65 678.186C213.855 678.527 213.958 678.94 213.958 679.425V684.5H212.523L212.39 683.198C212.128 683.744 211.797 684.122 211.396 684.332C210.999 684.537 210.544 684.64 210.031 684.64ZM210.584 683.485C210.794 683.485 211.001 683.448 211.207 683.373C211.412 683.294 211.599 683.189 211.767 683.058C211.935 682.923 212.068 682.773 212.166 682.61C212.268 682.447 212.32 682.276 212.32 682.099V680.958L211.431 680.972C210.992 680.977 210.609 681.023 210.283 681.112C209.956 681.201 209.699 681.343 209.513 681.539C209.331 681.73 209.24 681.987 209.24 682.309C209.24 682.678 209.368 682.967 209.625 683.177C209.881 683.382 210.201 683.485 210.584 683.485ZM217.707 677.262V684.5H216.069V677.262H217.707ZM217.728 674.385V675.995H216.041V674.385H217.728ZM221.919 684.605C221.453 684.605 221.079 684.547 220.799 684.43C220.519 684.313 220.309 684.157 220.169 683.961C220.029 683.765 219.938 683.546 219.896 683.303C219.854 683.056 219.833 682.804 219.833 682.547V674.098H221.499V682.351C221.499 682.664 221.562 682.906 221.688 683.079C221.819 683.252 222.029 683.352 222.318 683.38L222.682 683.394V684.465C222.556 684.502 222.428 684.535 222.297 684.563C222.167 684.591 222.041 684.605 221.919 684.605ZM226.767 684.64C226.263 684.64 225.785 684.561 225.332 684.402C224.884 684.239 224.506 683.984 224.198 683.639C223.895 683.294 223.703 682.848 223.624 682.302H225.122C225.187 682.568 225.302 682.785 225.465 682.953C225.633 683.121 225.831 683.245 226.06 683.324C226.289 683.399 226.522 683.436 226.76 683.436C227.194 683.436 227.544 683.361 227.81 683.212C228.081 683.063 228.216 682.832 228.216 682.519C228.216 682.29 228.141 682.108 227.992 681.973C227.843 681.838 227.605 681.735 227.278 681.665L225.899 681.35C225.288 681.215 224.795 680.991 224.422 680.678C224.053 680.365 223.867 679.924 223.862 679.355C223.857 678.926 223.965 678.543 224.184 678.207C224.403 677.871 224.73 677.607 225.164 677.416C225.598 677.22 226.135 677.122 226.774 677.122C227.619 677.122 228.295 677.311 228.804 677.689C229.313 678.062 229.574 678.597 229.588 679.292H228.139C228.088 678.979 227.941 678.737 227.698 678.564C227.455 678.387 227.14 678.298 226.753 678.298C226.352 678.298 226.023 678.375 225.766 678.529C225.509 678.683 225.381 678.919 225.381 679.236C225.381 679.455 225.479 679.628 225.675 679.754C225.871 679.88 226.165 679.987 226.557 680.076L227.859 680.391C228.232 680.484 228.538 680.61 228.776 680.769C229.014 680.928 229.201 681.103 229.336 681.294C229.471 681.481 229.565 681.674 229.616 681.875C229.672 682.071 229.7 682.253 229.7 682.421C229.7 682.888 229.579 683.287 229.336 683.618C229.098 683.945 228.76 684.197 228.321 684.374C227.882 684.551 227.364 684.64 226.767 684.64ZM238.588 677.262V678.466H236.957V684.5H235.256V678.466H233.828V677.262H235.256V676.184C235.256 675.605 235.415 675.16 235.732 674.847C236.054 674.534 236.519 674.378 237.125 674.378H238.651L238.658 675.54H237.65C237.375 675.54 237.186 675.612 237.083 675.757C236.981 675.897 236.929 676.119 236.929 676.422V677.262H238.588ZM242.907 684.64C242.216 684.64 241.614 684.493 241.101 684.199C240.587 683.9 240.188 683.473 239.904 682.918C239.624 682.363 239.484 681.695 239.484 680.916C239.484 680.16 239.619 679.497 239.89 678.928C240.165 678.359 240.559 677.915 241.073 677.598C241.586 677.281 242.2 677.122 242.914 677.122C243.604 677.122 244.204 677.274 244.713 677.577C245.221 677.88 245.613 678.314 245.889 678.879C246.169 679.444 246.309 680.123 246.309 680.916C246.309 681.649 246.176 682.295 245.91 682.855C245.648 683.41 245.263 683.847 244.755 684.164C244.251 684.481 243.635 684.64 242.907 684.64ZM242.914 683.345C243.306 683.345 243.628 683.238 243.88 683.023C244.136 682.808 244.325 682.514 244.447 682.141C244.573 681.768 244.636 681.343 244.636 680.867C244.636 680.424 244.58 680.015 244.468 679.642C244.36 679.269 244.178 678.97 243.922 678.746C243.67 678.517 243.334 678.403 242.914 678.403C242.517 678.403 242.188 678.508 241.927 678.718C241.67 678.923 241.476 679.213 241.346 679.586C241.22 679.955 241.157 680.382 241.157 680.867C241.157 681.306 241.213 681.714 241.325 682.092C241.441 682.465 241.628 682.769 241.885 683.002C242.141 683.231 242.484 683.345 242.914 683.345ZM247.82 684.5V677.262H249.451V678.83C249.567 678.471 249.733 678.165 249.948 677.913C250.167 677.656 250.424 677.46 250.718 677.325C251.012 677.19 251.331 677.122 251.677 677.122C251.761 677.122 251.842 677.127 251.922 677.136C252.001 677.145 252.059 677.162 252.097 677.185V678.816C252.045 678.793 251.978 678.776 251.894 678.767C251.814 678.758 251.744 678.753 251.684 678.753C251.334 678.725 251.023 678.739 250.753 678.795C250.487 678.851 250.26 678.947 250.074 679.082C249.892 679.213 249.754 679.381 249.661 679.586C249.567 679.787 249.521 680.022 249.521 680.293V684.5H247.82ZM256.487 684.5V677.262H258.153V678.298C258.265 678.111 258.417 677.932 258.608 677.759C258.804 677.586 259.045 677.446 259.329 677.339C259.614 677.232 259.948 677.178 260.33 677.178C260.778 677.178 261.194 677.267 261.576 677.444C261.964 677.621 262.274 677.899 262.507 678.277C262.745 678.655 262.864 679.143 262.864 679.74V684.5H261.156V679.943C261.156 679.467 261.026 679.115 260.764 678.886C260.503 678.653 260.174 678.536 259.777 678.536C259.507 678.536 259.25 678.583 259.007 678.676C258.765 678.765 258.566 678.902 258.412 679.089C258.263 679.271 258.188 679.5 258.188 679.775V684.5H256.487ZM266.028 681.273C266.023 681.684 266.088 682.048 266.224 682.365C266.359 682.682 266.56 682.932 266.826 683.114C267.092 683.291 267.421 683.38 267.813 683.38C268.214 683.38 268.562 683.291 268.856 683.114C269.154 682.932 269.353 682.657 269.451 682.288H271.012C270.928 682.792 270.727 683.219 270.41 683.569C270.092 683.919 269.707 684.185 269.255 684.367C268.807 684.549 268.34 684.64 267.855 684.64C267.155 684.64 266.539 684.493 266.007 684.199C265.479 683.9 265.066 683.476 264.768 682.925C264.474 682.374 264.327 681.719 264.327 680.958C264.327 680.216 264.462 679.558 264.733 678.984C265.003 678.405 265.393 677.95 265.902 677.619C266.415 677.288 267.031 677.122 267.75 677.122C268.464 677.122 269.063 677.274 269.549 677.577C270.039 677.88 270.407 678.305 270.655 678.851C270.907 679.392 271.033 680.027 271.033 680.755V681.273H266.028ZM266.028 680.216H269.423C269.423 679.866 269.362 679.551 269.241 679.271C269.119 678.986 268.933 678.762 268.681 678.599C268.433 678.431 268.121 678.347 267.743 678.347C267.369 678.347 267.054 678.438 266.798 678.62C266.541 678.802 266.347 679.038 266.217 679.327C266.086 679.612 266.023 679.908 266.028 680.216ZM278.863 684.5H277.057L275.153 681.924L273.256 684.5H271.45L274.229 680.734L271.681 677.262H273.487L275.16 679.523L276.833 677.262H278.646L276.077 680.734L278.863 684.5ZM284.133 678.466H282.516L282.523 682.617C282.523 682.832 282.546 682.99 282.593 683.093C282.644 683.191 282.723 683.256 282.831 683.289C282.943 683.317 283.092 683.331 283.279 683.331H284.168V684.409C284.074 684.446 283.932 684.479 283.741 684.507C283.554 684.54 283.302 684.556 282.985 684.556C282.411 684.556 281.965 684.481 281.648 684.332C281.335 684.178 281.118 683.961 280.997 683.681C280.875 683.401 280.815 683.067 280.815 682.68V678.466H279.639V677.262H280.864L281.291 675.113H282.516V677.255H284.133V678.466ZM292.937 678.466H291.32L291.327 682.617C291.327 682.832 291.351 682.99 291.397 683.093C291.449 683.191 291.528 683.256 291.635 683.289C291.747 683.317 291.897 683.331 292.083 683.331H292.972V684.409C292.879 684.446 292.737 684.479 292.545 684.507C292.359 684.54 292.107 684.556 291.789 684.556C291.215 684.556 290.77 684.481 290.452 684.332C290.14 684.178 289.923 683.961 289.801 683.681C289.68 683.401 289.619 683.067 289.619 682.68V678.466H288.443V677.262H289.668L290.095 675.113H291.32V677.255H292.937V678.466ZM296.362 677.262V684.5H294.724V677.262H296.362ZM296.383 674.385V675.995H294.696V674.385H296.383ZM298.487 684.5V677.262H300.146V678.298C300.356 677.981 300.641 677.705 301 677.472C301.364 677.239 301.826 677.122 302.386 677.122C302.643 677.122 302.902 677.166 303.163 677.255C303.429 677.344 303.674 677.474 303.898 677.647C304.127 677.82 304.309 678.034 304.444 678.291C304.673 677.95 304.976 677.67 305.354 677.451C305.737 677.232 306.166 677.122 306.642 677.122C306.904 677.122 307.172 677.164 307.447 677.248C307.727 677.332 307.984 677.472 308.217 677.668C308.451 677.864 308.64 678.132 308.784 678.473C308.929 678.809 309.001 679.231 309.001 679.74V684.5H307.3V679.943C307.3 679.584 307.237 679.301 307.111 679.096C306.985 678.891 306.822 678.746 306.621 678.662C306.425 678.573 306.215 678.529 305.991 678.529C305.791 678.529 305.581 678.569 305.361 678.648C305.147 678.727 304.962 678.858 304.808 679.04C304.659 679.222 304.584 679.467 304.584 679.775V684.5H302.883V679.67C302.883 679.418 302.818 679.208 302.687 679.04C302.557 678.872 302.391 678.746 302.19 678.662C301.994 678.573 301.794 678.529 301.588 678.529C301.378 678.529 301.164 678.573 300.944 678.662C300.73 678.751 300.55 678.886 300.405 679.068C300.261 679.25 300.188 679.486 300.188 679.775V684.5H298.487ZM312.17 681.273C312.166 681.684 312.231 682.048 312.366 682.365C312.502 682.682 312.702 682.932 312.968 683.114C313.234 683.291 313.563 683.38 313.955 683.38C314.357 683.38 314.704 683.291 314.998 683.114C315.297 682.932 315.495 682.657 315.593 682.288H317.154C317.07 682.792 316.87 683.219 316.552 683.569C316.235 683.919 315.85 684.185 315.397 684.367C314.949 684.549 314.483 684.64 313.997 684.64C313.297 684.64 312.681 684.493 312.149 684.199C311.622 683.9 311.209 683.476 310.91 682.925C310.616 682.374 310.469 681.719 310.469 680.958C310.469 680.216 310.605 679.558 310.875 678.984C311.146 678.405 311.536 677.95 312.044 677.619C312.558 677.288 313.174 677.122 313.892 677.122C314.606 677.122 315.206 677.274 315.691 677.577C316.181 677.88 316.55 678.305 316.797 678.851C317.049 679.392 317.175 680.027 317.175 680.755V681.273H312.17ZM312.17 680.216H315.565C315.565 679.866 315.505 679.551 315.383 679.271C315.262 678.986 315.075 678.762 314.823 678.599C314.576 678.431 314.263 678.347 313.885 678.347C313.512 678.347 313.197 678.438 312.94 678.62C312.684 678.802 312.49 679.038 312.359 679.327C312.229 679.612 312.166 679.908 312.17 680.216Z" fill="white"/>
<rect x="95.25" y="655.25" width="237.5" height="48.5" rx="2.75" stroke="#21671C" stroke-width="2.5"/>
<path d="M45.458 257.986C45.524 257.986 45.707 257.986 46.007 257.986C46.313 257.986 46.67 257.986 47.078 257.986C47.492 257.986 47.903 257.989 48.311 257.995C48.725 257.995 49.07 257.998 49.346 258.004C50.924 258.04 52.211 258.322 53.207 258.85C54.203 259.378 54.932 260.116 55.394 261.064C55.862 262.012 56.096 263.134 56.096 264.43C56.096 265.78 55.85 266.947 55.358 267.931C54.866 268.909 54.113 269.665 53.099 270.199C52.091 270.733 50.81 271 49.256 271H45.458V257.986ZM48.104 260.11V268.876H49.31C50.054 268.876 50.729 268.732 51.335 268.444C51.947 268.156 52.436 267.685 52.802 267.031C53.168 266.377 53.351 265.504 53.351 264.412C53.351 263.398 53.189 262.576 52.865 261.946C52.541 261.31 52.079 260.845 51.479 260.551C50.879 260.257 50.168 260.11 49.346 260.11H48.104ZM60.2401 266.95C60.2341 267.424 60.3091 267.838 60.4651 268.192C60.6211 268.54 60.8461 268.81 61.1401 269.002C61.4401 269.188 61.8001 269.281 62.2201 269.281C62.6701 269.281 63.0631 269.185 63.3991 268.993C63.7411 268.801 63.9781 268.486 64.1101 268.048H66.4771C66.3751 268.708 66.1111 269.272 65.6851 269.74C65.2651 270.208 64.7551 270.565 64.1551 270.811C63.5551 271.057 62.9311 271.18 62.2831 271.18C61.3651 271.18 60.5551 270.988 59.8531 270.604C59.1571 270.214 58.6141 269.665 58.2241 268.957C57.8341 268.249 57.6391 267.415 57.6391 266.455C57.6391 265.525 57.8161 264.688 58.1701 263.944C58.5241 263.194 59.0371 262.603 59.7091 262.171C60.3871 261.733 61.2001 261.514 62.1481 261.514C63.0961 261.514 63.8911 261.715 64.5331 262.117C65.1811 262.513 65.6671 263.068 65.9911 263.782C66.3211 264.49 66.4861 265.309 66.4861 266.239V266.95H60.2401ZM60.2311 265.384H64.0291C64.0291 265.012 63.9601 264.67 63.8221 264.358C63.6841 264.046 63.4741 263.8 63.1921 263.62C62.9161 263.44 62.5681 263.35 62.1481 263.35C61.7401 263.35 61.3921 263.449 61.1041 263.647C60.8221 263.839 60.6061 264.091 60.4561 264.403C60.3061 264.715 60.2311 265.042 60.2311 265.384ZM71.2805 271.162C70.5965 271.162 70.0535 271.081 69.6515 270.919C69.2495 270.757 68.9525 270.544 68.7605 270.28C68.5685 270.01 68.4455 269.713 68.3915 269.389C68.3375 269.059 68.3105 268.726 68.3105 268.39V257.626H70.8845V268.066C70.8845 268.408 70.9565 268.687 71.1005 268.903C71.2505 269.113 71.5295 269.242 71.9375 269.29L72.3785 269.317V270.937C72.1985 270.997 72.0155 271.048 71.8295 271.09C71.6435 271.138 71.4605 271.162 71.2805 271.162ZM76.7398 261.694V271H74.2288V261.694H76.7398ZM76.7668 257.995V260.362H74.2108V257.995H76.7668ZM87.1221 261.694L83.6301 271H81.7311L78.2301 261.694H80.6061L82.6401 267.625H82.7121L84.7191 261.694H87.1221ZM90.2459 266.95C90.2399 267.424 90.3149 267.838 90.4709 268.192C90.6269 268.54 90.8519 268.81 91.1459 269.002C91.4459 269.188 91.8059 269.281 92.2259 269.281C92.6759 269.281 93.0689 269.185 93.4049 268.993C93.7469 268.801 93.9839 268.486 94.1159 268.048H96.4829C96.3809 268.708 96.1169 269.272 95.6909 269.74C95.2709 270.208 94.7609 270.565 94.1609 270.811C93.5609 271.057 92.9369 271.18 92.2889 271.18C91.3709 271.18 90.5609 270.988 89.8589 270.604C89.1629 270.214 88.6199 269.665 88.2299 268.957C87.8399 268.249 87.6449 267.415 87.6449 266.455C87.6449 265.525 87.8219 264.688 88.1759 263.944C88.5299 263.194 89.0429 262.603 89.7149 262.171C90.3929 261.733 91.2059 261.514 92.1539 261.514C93.1019 261.514 93.8969 261.715 94.5389 262.117C95.1869 262.513 95.6729 263.068 95.9969 263.782C96.3269 264.49 96.4919 265.309 96.4919 266.239V266.95H90.2459ZM90.2369 265.384H94.0349C94.0349 265.012 93.9659 264.67 93.8279 264.358C93.6899 264.046 93.4799 263.8 93.1979 263.62C92.9219 263.44 92.5739 263.35 92.1539 263.35C91.7459 263.35 91.3979 263.449 91.1099 263.647C90.8279 263.839 90.6119 264.091 90.4619 264.403C90.3119 264.715 90.2369 265.042 90.2369 265.384ZM98.3164 271V261.694H100.845V263.899C100.995 263.425 101.205 263.011 101.475 262.657C101.751 262.297 102.084 262.018 102.474 261.82C102.864 261.616 103.305 261.514 103.797 261.514C103.881 261.514 103.959 261.52 104.031 261.532C104.109 261.538 104.166 261.55 104.202 261.568V264.07C104.148 264.046 104.082 264.031 104.004 264.025C103.932 264.019 103.866 264.013 103.806 264.007C103.29 263.965 102.849 263.98 102.483 264.052C102.117 264.124 101.82 264.247 101.592 264.421C101.364 264.595 101.199 264.808 101.097 265.06C100.995 265.312 100.944 265.594 100.944 265.906V271H98.3164ZM107.465 273.97C106.829 273.97 106.379 273.916 106.115 273.808C105.857 273.706 105.728 273.655 105.728 273.655V271.981L106.646 272.017C107.048 272.041 107.372 272.02 107.618 271.954C107.864 271.894 108.05 271.813 108.176 271.711C108.308 271.609 108.401 271.501 108.455 271.387C108.509 271.279 108.548 271.192 108.572 271.126L108.743 270.613L105.125 261.694H107.726L109.958 267.76L112.217 261.694H114.782L111.011 271.054C110.687 271.846 110.345 272.452 109.985 272.872C109.625 273.292 109.235 273.58 108.815 273.736C108.401 273.892 107.951 273.97 107.465 273.97ZM120.165 257.986C120.231 257.986 120.414 257.986 120.714 257.986C121.02 257.986 121.377 257.986 121.785 257.986C122.199 257.986 122.61 257.989 123.018 257.995C123.432 257.995 123.777 257.998 124.053 258.004C125.631 258.04 126.918 258.322 127.914 258.85C128.91 259.378 129.639 260.116 130.101 261.064C130.569 262.012 130.803 263.134 130.803 264.43C130.803 265.78 130.557 266.947 130.065 267.931C129.573 268.909 128.82 269.665 127.806 270.199C126.798 270.733 125.517 271 123.963 271H120.165V257.986ZM122.811 260.11V268.876H124.017C124.761 268.876 125.436 268.732 126.042 268.444C126.654 268.156 127.143 267.685 127.509 267.031C127.875 266.377 128.058 265.504 128.058 264.412C128.058 263.398 127.896 262.576 127.572 261.946C127.248 261.31 126.786 260.845 126.186 260.551C125.586 260.257 124.875 260.11 124.053 260.11H122.811ZM134.947 266.95C134.941 267.424 135.016 267.838 135.172 268.192C135.328 268.54 135.553 268.81 135.847 269.002C136.147 269.188 136.507 269.281 136.927 269.281C137.377 269.281 137.77 269.185 138.106 268.993C138.448 268.801 138.685 268.486 138.817 268.048H141.184C141.082 268.708 140.818 269.272 140.392 269.74C139.972 270.208 139.462 270.565 138.862 270.811C138.262 271.057 137.638 271.18 136.99 271.18C136.072 271.18 135.262 270.988 134.56 270.604C133.864 270.214 133.321 269.665 132.931 268.957C132.541 268.249 132.346 267.415 132.346 266.455C132.346 265.525 132.523 264.688 132.877 263.944C133.231 263.194 133.744 262.603 134.416 262.171C135.094 261.733 135.907 261.514 136.855 261.514C137.803 261.514 138.598 261.715 139.24 262.117C139.888 262.513 140.374 263.068 140.698 263.782C141.028 264.49 141.193 265.309 141.193 266.239V266.95H134.947ZM134.938 265.384H138.736C138.736 265.012 138.667 264.67 138.529 264.358C138.391 264.046 138.181 263.8 137.899 263.62C137.623 263.44 137.275 263.35 136.855 263.35C136.447 263.35 136.099 263.449 135.811 263.647C135.529 263.839 135.313 264.091 135.163 264.403C135.013 264.715 134.938 265.042 134.938 265.384ZM148.389 263.521H146.319L146.337 268.48C146.337 268.708 146.364 268.879 146.418 268.993C146.478 269.101 146.568 269.173 146.688 269.209C146.814 269.239 146.973 269.254 147.165 269.254H148.416V270.874C148.296 270.928 148.107 270.979 147.849 271.027C147.597 271.075 147.243 271.099 146.787 271.099C145.971 271.099 145.338 270.994 144.888 270.784C144.444 270.574 144.135 270.28 143.961 269.902C143.787 269.524 143.7 269.086 143.7 268.588V263.521H142.188V261.694H143.79L144.447 258.886H146.319V261.685H148.389V263.521ZM153.013 271.18C152.419 271.18 151.885 271.069 151.411 270.847C150.937 270.625 150.562 270.304 150.286 269.884C150.01 269.458 149.872 268.942 149.872 268.336C149.872 267.316 150.253 266.542 151.015 266.014C151.777 265.48 152.98 265.204 154.624 265.186L155.785 265.168V264.61C155.785 264.184 155.659 263.857 155.407 263.629C155.161 263.395 154.777 263.281 154.255 263.287C153.871 263.293 153.505 263.383 153.157 263.557C152.815 263.731 152.581 264.034 152.455 264.466H150.268C150.304 263.794 150.499 263.242 150.853 262.81C151.207 262.372 151.687 262.048 152.293 261.838C152.905 261.622 153.598 261.514 154.372 261.514C155.326 261.514 156.091 261.634 156.667 261.874C157.243 262.108 157.66 262.447 157.918 262.891C158.176 263.329 158.305 263.851 158.305 264.457V271H156.109L155.893 269.398C155.575 270.07 155.176 270.535 154.696 270.793C154.222 271.051 153.661 271.18 153.013 271.18ZM153.895 269.452C154.135 269.452 154.366 269.41 154.588 269.326C154.816 269.236 155.017 269.119 155.191 268.975C155.371 268.825 155.515 268.657 155.623 268.471C155.731 268.285 155.785 268.093 155.785 267.895V266.518L154.84 266.536C154.402 266.542 153.994 266.596 153.616 266.698C153.238 266.794 152.932 266.953 152.698 267.175C152.47 267.397 152.356 267.697 152.356 268.075C152.356 268.507 152.506 268.846 152.806 269.092C153.106 269.332 153.469 269.452 153.895 269.452ZM163.277 261.694V271H160.766V261.694H163.277ZM163.304 257.995V260.362H160.748V257.995H163.304ZM168.681 271.162C167.997 271.162 167.454 271.081 167.052 270.919C166.65 270.757 166.353 270.544 166.161 270.28C165.969 270.01 165.846 269.713 165.792 269.389C165.738 269.059 165.711 268.726 165.711 268.39V257.626H168.285V268.066C168.285 268.408 168.357 268.687 168.501 268.903C168.651 269.113 168.93 269.242 169.338 269.29L169.779 269.317V270.937C169.599 270.997 169.416 271.048 169.23 271.09C169.044 271.138 168.861 271.162 168.681 271.162ZM175.087 271.18C174.439 271.18 173.815 271.075 173.215 270.865C172.615 270.649 172.108 270.313 171.694 269.857C171.28 269.395 171.016 268.798 170.902 268.066H173.179C173.257 268.396 173.398 268.657 173.602 268.849C173.812 269.041 174.049 269.179 174.313 269.263C174.577 269.341 174.829 269.38 175.069 269.38C175.573 269.38 175.978 269.302 176.284 269.146C176.596 268.984 176.752 268.738 176.752 268.408C176.752 268.156 176.659 267.955 176.473 267.805C176.293 267.655 175.993 267.541 175.573 267.463L173.935 267.121C173.113 266.947 172.453 266.653 171.955 266.239C171.457 265.819 171.202 265.225 171.19 264.457C171.19 263.899 171.337 263.398 171.631 262.954C171.931 262.51 172.372 262.159 172.954 261.901C173.536 261.643 174.25 261.514 175.096 261.514C176.242 261.514 177.157 261.766 177.841 262.27C178.531 262.774 178.882 263.485 178.894 264.403H176.698C176.632 264.043 176.452 263.767 176.158 263.575C175.87 263.377 175.507 263.278 175.069 263.278C174.613 263.278 174.238 263.359 173.944 263.521C173.65 263.683 173.503 263.929 173.503 264.259C173.503 264.505 173.623 264.7 173.863 264.844C174.103 264.982 174.475 265.102 174.979 265.204L176.491 265.546C177.013 265.672 177.436 265.846 177.76 266.068C178.09 266.284 178.345 266.521 178.525 266.779C178.705 267.037 178.828 267.298 178.894 267.562C178.966 267.82 179.002 268.054 179.002 268.264C179.002 268.882 178.837 269.41 178.507 269.848C178.177 270.28 177.718 270.61 177.13 270.838C176.542 271.066 175.861 271.18 175.087 271.18Z" fill="#3E3E3E"/>
<rect x="44" y="336" width="326" height="50" rx="6" fill="#FCFCFC" stroke="white" stroke-width="4"/>
<path d="M42.44 318L46.584 306.432H49.048L53.184 318H50.856L49.912 315.32H45.752L44.784 318H42.44ZM46.272 313.28H49.352L47.824 308.688L46.272 313.28ZM57.4314 318.16C56.322 318.16 55.458 317.779 54.8394 317.016C54.2207 316.248 53.9114 315.181 53.9114 313.816C53.9114 312.952 54.0367 312.203 54.2874 311.568C54.538 310.933 54.9087 310.443 55.3994 310.096C55.89 309.744 56.49 309.568 57.1994 309.568C57.498 309.568 57.7754 309.603 58.0314 309.672C58.2927 309.736 58.53 309.827 58.7434 309.944C58.9567 310.061 59.1434 310.197 59.3034 310.352C59.4634 310.507 59.594 310.672 59.6954 310.848V306.112H62.0394V318H60.3434L60.0794 316.304C60.0047 316.533 59.9007 316.757 59.7674 316.976C59.634 317.195 59.4634 317.395 59.2554 317.576C59.0474 317.752 58.7914 317.893 58.4874 318C58.1887 318.107 57.8367 318.16 57.4314 318.16ZM57.9434 316.48C58.53 316.48 58.9674 316.275 59.2554 315.864C59.5487 315.453 59.6954 314.76 59.6954 313.784C59.69 313.219 59.6234 312.749 59.4954 312.376C59.3674 312.003 59.1754 311.725 58.9194 311.544C58.6687 311.357 58.3487 311.264 57.9594 311.264C57.4527 311.264 57.0314 311.459 56.6954 311.848C56.3594 312.232 56.1914 312.877 56.1914 313.784C56.1914 314.707 56.3487 315.387 56.6634 315.824C56.978 316.261 57.4047 316.48 57.9434 316.48ZM67.1189 318.16C66.0095 318.16 65.1455 317.779 64.5269 317.016C63.9082 316.248 63.5989 315.181 63.5989 313.816C63.5989 312.952 63.7242 312.203 63.9749 311.568C64.2255 310.933 64.5962 310.443 65.0869 310.096C65.5775 309.744 66.1775 309.568 66.8869 309.568C67.1855 309.568 67.4629 309.603 67.7189 309.672C67.9802 309.736 68.2175 309.827 68.4309 309.944C68.6442 310.061 68.8309 310.197 68.9909 310.352C69.1509 310.507 69.2815 310.672 69.3829 310.848V306.112H71.7269V318H70.0309L69.7669 316.304C69.6922 316.533 69.5882 316.757 69.4549 316.976C69.3215 317.195 69.1509 317.395 68.9429 317.576C68.7349 317.752 68.4789 317.893 68.1749 318C67.8762 318.107 67.5242 318.16 67.1189 318.16ZM67.6309 316.48C68.2175 316.48 68.6549 316.275 68.9429 315.864C69.2362 315.453 69.3829 314.76 69.3829 313.784C69.3775 313.219 69.3109 312.749 69.1829 312.376C69.0549 312.003 68.8629 311.725 68.6069 311.544C68.3562 311.357 68.0362 311.264 67.6469 311.264C67.1402 311.264 66.7189 311.459 66.3829 311.848C66.0469 312.232 65.8789 312.877 65.8789 313.784C65.8789 314.707 66.0362 315.387 66.3509 315.824C66.6655 316.261 67.0922 316.48 67.6309 316.48ZM73.7812 318V309.728H76.0293V311.688C76.1626 311.267 76.3493 310.899 76.5893 310.584C76.8346 310.264 77.1306 310.016 77.4773 309.84C77.8239 309.659 78.2159 309.568 78.6533 309.568C78.7279 309.568 78.7973 309.573 78.8613 309.584C78.9306 309.589 78.9813 309.6 79.0133 309.616V311.84C78.9653 311.819 78.9066 311.805 78.8373 311.8C78.7733 311.795 78.7146 311.789 78.6613 311.784C78.2026 311.747 77.8106 311.76 77.4852 311.824C77.1599 311.888 76.8959 311.997 76.6933 312.152C76.4906 312.307 76.3439 312.496 76.2533 312.72C76.1626 312.944 76.1173 313.195 76.1173 313.472V318H73.7812ZM82.17 314.4C82.1647 314.821 82.2313 315.189 82.37 315.504C82.5087 315.813 82.7087 316.053 82.97 316.224C83.2367 316.389 83.5567 316.472 83.93 316.472C84.33 316.472 84.6793 316.387 84.978 316.216C85.282 316.045 85.4927 315.765 85.61 315.376H87.714C87.6233 315.963 87.3887 316.464 87.01 316.88C86.6367 317.296 86.1833 317.613 85.65 317.832C85.1167 318.051 84.562 318.16 83.986 318.16C83.17 318.16 82.45 317.989 81.826 317.648C81.2073 317.301 80.7247 316.813 80.378 316.184C80.0313 315.555 79.858 314.813 79.858 313.96C79.858 313.133 80.0153 312.389 80.33 311.728C80.6447 311.061 81.1007 310.536 81.698 310.152C82.3007 309.763 83.0233 309.568 83.866 309.568C84.7087 309.568 85.4153 309.747 85.986 310.104C86.562 310.456 86.994 310.949 87.282 311.584C87.5753 312.213 87.722 312.941 87.722 313.768V314.4H82.17ZM82.162 313.008H85.538C85.538 312.677 85.4767 312.373 85.354 312.096C85.2313 311.819 85.0447 311.6 84.794 311.44C84.5487 311.28 84.2393 311.2 83.866 311.2C83.5033 311.2 83.194 311.288 82.938 311.464C82.6873 311.635 82.4953 311.859 82.362 312.136C82.2287 312.413 82.162 312.704 82.162 313.008ZM92.6001 318.16C92.0241 318.16 91.4695 318.067 90.9361 317.88C90.4028 317.688 89.9521 317.389 89.5841 316.984C89.2161 316.573 88.9815 316.043 88.8801 315.392H90.9041C90.9735 315.685 91.0988 315.917 91.2801 316.088C91.4668 316.259 91.6775 316.381 91.9121 316.456C92.1468 316.525 92.3708 316.56 92.5841 316.56C93.0321 316.56 93.3921 316.491 93.6641 316.352C93.9415 316.208 94.0801 315.989 94.0801 315.696C94.0801 315.472 93.9975 315.293 93.8321 315.16C93.6721 315.027 93.4055 314.925 93.0321 314.856L91.5761 314.552C90.8455 314.397 90.2588 314.136 89.8161 313.768C89.3735 313.395 89.1468 312.867 89.1361 312.184C89.1361 311.688 89.2668 311.243 89.5281 310.848C89.7948 310.453 90.1868 310.141 90.7041 309.912C91.2215 309.683 91.8561 309.568 92.6081 309.568C93.6268 309.568 94.4401 309.792 95.0481 310.24C95.6615 310.688 95.9735 311.32 95.9841 312.136H94.0321C93.9735 311.816 93.8135 311.571 93.5521 311.4C93.2961 311.224 92.9735 311.136 92.5841 311.136C92.1788 311.136 91.8455 311.208 91.5841 311.352C91.3228 311.496 91.1921 311.715 91.1921 312.008C91.1921 312.227 91.2988 312.4 91.5121 312.528C91.7255 312.651 92.0561 312.757 92.5041 312.848L93.8481 313.152C94.3121 313.264 94.6881 313.419 94.9761 313.616C95.2695 313.808 95.4961 314.019 95.6561 314.248C95.8161 314.477 95.9255 314.709 95.9841 314.944C96.0481 315.173 96.0801 315.381 96.0801 315.568C96.0801 316.117 95.9335 316.587 95.6401 316.976C95.3468 317.36 94.9388 317.653 94.4161 317.856C93.8935 318.059 93.2881 318.16 92.6001 318.16ZM100.897 318.16C100.321 318.16 99.7663 318.067 99.233 317.88C98.6997 317.688 98.249 317.389 97.881 316.984C97.513 316.573 97.2783 316.043 97.177 315.392H99.201C99.2703 315.685 99.3957 315.917 99.577 316.088C99.7637 316.259 99.9743 316.381 100.209 316.456C100.444 316.525 100.668 316.56 100.881 316.56C101.329 316.56 101.689 316.491 101.961 316.352C102.238 316.208 102.377 315.989 102.377 315.696C102.377 315.472 102.294 315.293 102.129 315.16C101.969 315.027 101.702 314.925 101.329 314.856L99.873 314.552C99.1423 314.397 98.5557 314.136 98.113 313.768C97.6703 313.395 97.4437 312.867 97.433 312.184C97.433 311.688 97.5637 311.243 97.825 310.848C98.0917 310.453 98.4837 310.141 99.001 309.912C99.5183 309.683 100.153 309.568 100.905 309.568C101.924 309.568 102.737 309.792 103.345 310.24C103.958 310.688 104.27 311.32 104.281 312.136H102.329C102.27 311.816 102.11 311.571 101.849 311.4C101.593 311.224 101.27 311.136 100.881 311.136C100.476 311.136 100.142 311.208 99.881 311.352C99.6197 311.496 99.489 311.715 99.489 312.008C99.489 312.227 99.5957 312.4 99.809 312.528C100.022 312.651 100.353 312.757 100.801 312.848L102.145 313.152C102.609 313.264 102.985 313.419 103.273 313.616C103.566 313.808 103.793 314.019 103.953 314.248C104.113 314.477 104.222 314.709 104.281 314.944C104.345 315.173 104.377 315.381 104.377 315.568C104.377 316.117 104.23 316.587 103.937 316.976C103.644 317.36 103.236 317.653 102.713 317.856C102.19 318.059 101.585 318.16 100.897 318.16ZM109.593 306.432H111.945V316.024H116.969V318H109.593V306.432ZM120.883 309.728V318H118.651V309.728H120.883ZM120.907 306.44V308.544H118.635V306.44H120.907ZM123.047 318V309.728H125.343V310.896C125.471 310.693 125.636 310.499 125.839 310.312C126.047 310.12 126.308 309.963 126.623 309.84C126.938 309.717 127.311 309.656 127.743 309.656C128.25 309.656 128.722 309.755 129.159 309.952C129.602 310.149 129.959 310.461 130.231 310.888C130.503 311.309 130.639 311.861 130.639 312.544V318H128.303V312.832C128.303 312.384 128.17 312.048 127.903 311.824C127.636 311.6 127.311 311.488 126.927 311.488C126.671 311.488 126.423 311.533 126.183 311.624C125.948 311.715 125.756 311.851 125.607 312.032C125.458 312.213 125.383 312.437 125.383 312.704V318H123.047ZM134.451 314.4C134.446 314.821 134.513 315.189 134.651 315.504C134.79 315.813 134.99 316.053 135.251 316.224C135.518 316.389 135.838 316.472 136.211 316.472C136.611 316.472 136.961 316.387 137.259 316.216C137.563 316.045 137.774 315.765 137.891 315.376H139.995C139.905 315.963 139.67 316.464 139.291 316.88C138.918 317.296 138.465 317.613 137.931 317.832C137.398 318.051 136.843 318.16 136.267 318.16C135.451 318.16 134.731 317.989 134.107 317.648C133.489 317.301 133.006 316.813 132.659 316.184C132.313 315.555 132.139 314.813 132.139 313.96C132.139 313.133 132.297 312.389 132.611 311.728C132.926 311.061 133.382 310.536 133.979 310.152C134.582 309.763 135.305 309.568 136.147 309.568C136.99 309.568 137.697 309.747 138.267 310.104C138.843 310.456 139.275 310.949 139.563 311.584C139.857 312.213 140.003 312.941 140.003 313.768V314.4H134.451ZM134.443 313.008H137.819C137.819 312.677 137.758 312.373 137.635 312.096C137.513 311.819 137.326 311.6 137.075 311.44C136.83 311.28 136.521 311.2 136.147 311.2C135.785 311.2 135.475 311.288 135.219 311.464C134.969 311.635 134.777 311.859 134.643 312.136C134.51 312.413 134.443 312.704 134.443 313.008ZM146.721 318V309.336H144.657V308.016C145.318 308.016 145.851 307.955 146.257 307.832C146.667 307.704 146.974 307.523 147.177 307.288C147.379 307.048 147.499 306.763 147.537 306.432H149.089V318H146.721Z" fill="#3E3E3E"/>
<rect x="44" y="445" width="326" height="50" rx="6" fill="#FCFCFC" stroke="white" stroke-width="4"/>
<path d="M42.44 427L46.584 415.432H49.048L53.184 427H50.856L49.912 424.32H45.752L44.784 427H42.44ZM46.272 422.28H49.352L47.824 417.688L46.272 422.28ZM57.4314 427.16C56.322 427.16 55.458 426.779 54.8394 426.016C54.2207 425.248 53.9114 424.181 53.9114 422.816C53.9114 421.952 54.0367 421.203 54.2874 420.568C54.538 419.933 54.9087 419.443 55.3994 419.096C55.89 418.744 56.49 418.568 57.1994 418.568C57.498 418.568 57.7754 418.603 58.0314 418.672C58.2927 418.736 58.53 418.827 58.7434 418.944C58.9567 419.061 59.1434 419.197 59.3034 419.352C59.4634 419.507 59.594 419.672 59.6954 419.848V415.112H62.0394V427H60.3434L60.0794 425.304C60.0047 425.533 59.9007 425.757 59.7674 425.976C59.634 426.195 59.4634 426.395 59.2554 426.576C59.0474 426.752 58.7914 426.893 58.4874 427C58.1887 427.107 57.8367 427.16 57.4314 427.16ZM57.9434 425.48C58.53 425.48 58.9674 425.275 59.2554 424.864C59.5487 424.453 59.6954 423.76 59.6954 422.784C59.69 422.219 59.6234 421.749 59.4954 421.376C59.3674 421.003 59.1754 420.725 58.9194 420.544C58.6687 420.357 58.3487 420.264 57.9594 420.264C57.4527 420.264 57.0314 420.459 56.6954 420.848C56.3594 421.232 56.1914 421.877 56.1914 422.784C56.1914 423.707 56.3487 424.387 56.6634 424.824C56.978 425.261 57.4047 425.48 57.9434 425.48ZM67.1189 427.16C66.0095 427.16 65.1455 426.779 64.5269 426.016C63.9082 425.248 63.5989 424.181 63.5989 422.816C63.5989 421.952 63.7242 421.203 63.9749 420.568C64.2255 419.933 64.5962 419.443 65.0869 419.096C65.5775 418.744 66.1775 418.568 66.8869 418.568C67.1855 418.568 67.4629 418.603 67.7189 418.672C67.9802 418.736 68.2175 418.827 68.4309 418.944C68.6442 419.061 68.8309 419.197 68.9909 419.352C69.1509 419.507 69.2815 419.672 69.3829 419.848V415.112H71.7269V427H70.0309L69.7669 425.304C69.6922 425.533 69.5882 425.757 69.4549 425.976C69.3215 426.195 69.1509 426.395 68.9429 426.576C68.7349 426.752 68.4789 426.893 68.1749 427C67.8762 427.107 67.5242 427.16 67.1189 427.16ZM67.6309 425.48C68.2175 425.48 68.6549 425.275 68.9429 424.864C69.2362 424.453 69.3829 423.76 69.3829 422.784C69.3775 422.219 69.3109 421.749 69.1829 421.376C69.0549 421.003 68.8629 420.725 68.6069 420.544C68.3562 420.357 68.0362 420.264 67.6469 420.264C67.1402 420.264 66.7189 420.459 66.3829 420.848C66.0469 421.232 65.8789 421.877 65.8789 422.784C65.8789 423.707 66.0362 424.387 66.3509 424.824C66.6655 425.261 67.0922 425.48 67.6309 425.48ZM73.7812 427V418.728H76.0293V420.688C76.1626 420.267 76.3493 419.899 76.5893 419.584C76.8346 419.264 77.1306 419.016 77.4773 418.84C77.8239 418.659 78.2159 418.568 78.6533 418.568C78.7279 418.568 78.7973 418.573 78.8613 418.584C78.9306 418.589 78.9813 418.6 79.0133 418.616V420.84C78.9653 420.819 78.9066 420.805 78.8373 420.8C78.7733 420.795 78.7146 420.789 78.6613 420.784C78.2026 420.747 77.8106 420.76 77.4852 420.824C77.1599 420.888 76.8959 420.997 76.6933 421.152C76.4906 421.307 76.3439 421.496 76.2533 421.72C76.1626 421.944 76.1173 422.195 76.1173 422.472V427H73.7812ZM82.17 423.4C82.1647 423.821 82.2313 424.189 82.37 424.504C82.5087 424.813 82.7087 425.053 82.97 425.224C83.2367 425.389 83.5567 425.472 83.93 425.472C84.33 425.472 84.6793 425.387 84.978 425.216C85.282 425.045 85.4927 424.765 85.61 424.376H87.714C87.6233 424.963 87.3887 425.464 87.01 425.88C86.6367 426.296 86.1833 426.613 85.65 426.832C85.1167 427.051 84.562 427.16 83.986 427.16C83.17 427.16 82.45 426.989 81.826 426.648C81.2073 426.301 80.7247 425.813 80.378 425.184C80.0313 424.555 79.858 423.813 79.858 422.96C79.858 422.133 80.0153 421.389 80.33 420.728C80.6447 420.061 81.1007 419.536 81.698 419.152C82.3007 418.763 83.0233 418.568 83.866 418.568C84.7087 418.568 85.4153 418.747 85.986 419.104C86.562 419.456 86.994 419.949 87.282 420.584C87.5753 421.213 87.722 421.941 87.722 422.768V423.4H82.17ZM82.162 422.008H85.538C85.538 421.677 85.4767 421.373 85.354 421.096C85.2313 420.819 85.0447 420.6 84.794 420.44C84.5487 420.28 84.2393 420.2 83.866 420.2C83.5033 420.2 83.194 420.288 82.938 420.464C82.6873 420.635 82.4953 420.859 82.362 421.136C82.2287 421.413 82.162 421.704 82.162 422.008ZM92.6001 427.16C92.0241 427.16 91.4695 427.067 90.9361 426.88C90.4028 426.688 89.9521 426.389 89.5841 425.984C89.2161 425.573 88.9815 425.043 88.8801 424.392H90.9041C90.9735 424.685 91.0988 424.917 91.2801 425.088C91.4668 425.259 91.6775 425.381 91.9121 425.456C92.1468 425.525 92.3708 425.56 92.5841 425.56C93.0321 425.56 93.3921 425.491 93.6641 425.352C93.9415 425.208 94.0801 424.989 94.0801 424.696C94.0801 424.472 93.9975 424.293 93.8321 424.16C93.6721 424.027 93.4055 423.925 93.0321 423.856L91.5761 423.552C90.8455 423.397 90.2588 423.136 89.8161 422.768C89.3735 422.395 89.1468 421.867 89.1361 421.184C89.1361 420.688 89.2668 420.243 89.5281 419.848C89.7948 419.453 90.1868 419.141 90.7041 418.912C91.2215 418.683 91.8561 418.568 92.6081 418.568C93.6268 418.568 94.4401 418.792 95.0481 419.24C95.6615 419.688 95.9735 420.32 95.9841 421.136H94.0321C93.9735 420.816 93.8135 420.571 93.5521 420.4C93.2961 420.224 92.9735 420.136 92.5841 420.136C92.1788 420.136 91.8455 420.208 91.5841 420.352C91.3228 420.496 91.1921 420.715 91.1921 421.008C91.1921 421.227 91.2988 421.4 91.5121 421.528C91.7255 421.651 92.0561 421.757 92.5041 421.848L93.8481 422.152C94.3121 422.264 94.6881 422.419 94.9761 422.616C95.2695 422.808 95.4961 423.019 95.6561 423.248C95.8161 423.477 95.9255 423.709 95.9841 423.944C96.0481 424.173 96.0801 424.381 96.0801 424.568C96.0801 425.117 95.9335 425.587 95.6401 425.976C95.3468 426.36 94.9388 426.653 94.4161 426.856C93.8935 427.059 93.2881 427.16 92.6001 427.16ZM100.897 427.16C100.321 427.16 99.7663 427.067 99.233 426.88C98.6997 426.688 98.249 426.389 97.881 425.984C97.513 425.573 97.2783 425.043 97.177 424.392H99.201C99.2703 424.685 99.3957 424.917 99.577 425.088C99.7637 425.259 99.9743 425.381 100.209 425.456C100.444 425.525 100.668 425.56 100.881 425.56C101.329 425.56 101.689 425.491 101.961 425.352C102.238 425.208 102.377 424.989 102.377 424.696C102.377 424.472 102.294 424.293 102.129 424.16C101.969 424.027 101.702 423.925 101.329 423.856L99.873 423.552C99.1423 423.397 98.5557 423.136 98.113 422.768C97.6703 422.395 97.4437 421.867 97.433 421.184C97.433 420.688 97.5637 420.243 97.825 419.848C98.0917 419.453 98.4837 419.141 99.001 418.912C99.5183 418.683 100.153 418.568 100.905 418.568C101.924 418.568 102.737 418.792 103.345 419.24C103.958 419.688 104.27 420.32 104.281 421.136H102.329C102.27 420.816 102.11 420.571 101.849 420.4C101.593 420.224 101.27 420.136 100.881 420.136C100.476 420.136 100.142 420.208 99.881 420.352C99.6197 420.496 99.489 420.715 99.489 421.008C99.489 421.227 99.5957 421.4 99.809 421.528C100.022 421.651 100.353 421.757 100.801 421.848L102.145 422.152C102.609 422.264 102.985 422.419 103.273 422.616C103.566 422.808 103.793 423.019 103.953 423.248C104.113 423.477 104.222 423.709 104.281 423.944C104.345 424.173 104.377 424.381 104.377 424.568C104.377 425.117 104.23 425.587 103.937 425.976C103.644 426.36 103.236 426.653 102.713 426.856C102.19 427.059 101.585 427.16 100.897 427.16ZM109.593 415.432H111.945V425.024H116.969V427H109.593V415.432ZM120.883 418.728V427H118.651V418.728H120.883ZM120.907 415.44V417.544H118.635V415.44H120.907ZM123.047 427V418.728H125.343V419.896C125.471 419.693 125.636 419.499 125.839 419.312C126.047 419.12 126.308 418.963 126.623 418.84C126.938 418.717 127.311 418.656 127.743 418.656C128.25 418.656 128.722 418.755 129.159 418.952C129.602 419.149 129.959 419.461 130.231 419.888C130.503 420.309 130.639 420.861 130.639 421.544V427H128.303V421.832C128.303 421.384 128.17 421.048 127.903 420.824C127.636 420.6 127.311 420.488 126.927 420.488C126.671 420.488 126.423 420.533 126.183 420.624C125.948 420.715 125.756 420.851 125.607 421.032C125.458 421.213 125.383 421.437 125.383 421.704V427H123.047ZM134.451 423.4C134.446 423.821 134.513 424.189 134.651 424.504C134.79 424.813 134.99 425.053 135.251 425.224C135.518 425.389 135.838 425.472 136.211 425.472C136.611 425.472 136.961 425.387 137.259 425.216C137.563 425.045 137.774 424.765 137.891 424.376H139.995C139.905 424.963 139.67 425.464 139.291 425.88C138.918 426.296 138.465 426.613 137.931 426.832C137.398 427.051 136.843 427.16 136.267 427.16C135.451 427.16 134.731 426.989 134.107 426.648C133.489 426.301 133.006 425.813 132.659 425.184C132.313 424.555 132.139 423.813 132.139 422.96C132.139 422.133 132.297 421.389 132.611 420.728C132.926 420.061 133.382 419.536 133.979 419.152C134.582 418.763 135.305 418.568 136.147 418.568C136.99 418.568 137.697 418.747 138.267 419.104C138.843 419.456 139.275 419.949 139.563 420.584C139.857 421.213 140.003 421.941 140.003 422.768V423.4H134.451ZM134.443 422.008H137.819C137.819 421.677 137.758 421.373 137.635 421.096C137.513 420.819 137.326 420.6 137.075 420.44C136.83 420.28 136.521 420.2 136.147 420.2C135.785 420.2 135.475 420.288 135.219 420.464C134.969 420.635 134.777 420.859 134.643 421.136C134.51 421.413 134.443 421.704 134.443 422.008ZM144.873 427V425.848V425.256C144.873 424.669 144.982 424.163 145.201 423.736C145.419 423.304 145.707 422.931 146.065 422.616C146.427 422.296 146.822 422.016 147.249 421.776C147.681 421.536 148.113 421.309 148.545 421.096C148.977 420.883 149.371 420.669 149.729 420.456C150.091 420.237 150.382 419.995 150.601 419.728C150.819 419.461 150.929 419.147 150.929 418.784C150.929 418.32 150.766 417.941 150.441 417.648C150.121 417.355 149.681 417.208 149.121 417.208C148.539 417.208 148.046 417.376 147.641 417.712C147.235 418.048 146.985 418.555 146.889 419.232H144.657C144.667 418.496 144.838 417.829 145.169 417.232C145.505 416.629 146.006 416.152 146.673 415.8C147.339 415.448 148.177 415.272 149.185 415.272C150.049 415.272 150.793 415.419 151.417 415.712C152.046 416.005 152.531 416.413 152.873 416.936C153.214 417.459 153.385 418.069 153.385 418.768C153.385 419.349 153.278 419.851 153.065 420.272C152.851 420.693 152.569 421.053 152.217 421.352C151.865 421.651 151.478 421.912 151.057 422.136C150.635 422.36 150.214 422.568 149.793 422.76C149.377 422.952 148.993 423.149 148.641 423.352C148.289 423.549 148.006 423.773 147.793 424.024C147.579 424.275 147.473 424.576 147.473 424.928V425.032H153.369V427H144.873Z" fill="#3E3E3E"/>
<rect x="44" y="554" width="326" height="50" rx="6" fill="#FCFCFC" stroke="white" stroke-width="4"/>
<path d="M43.296 536V524.432H47.552C48.3947 524.432 49.1493 524.579 49.816 524.872C50.4827 525.16 51.008 525.587 51.392 526.152C51.7813 526.717 51.976 527.408 51.976 528.224C51.976 528.992 51.8053 529.648 51.464 530.192C51.1227 530.736 50.6427 531.152 50.024 531.44C49.4107 531.728 48.688 531.872 47.856 531.872H45.648V536H43.296ZM45.624 530.064H47.792C48.3787 530.064 48.8587 529.877 49.232 529.504C49.6053 529.125 49.792 528.659 49.792 528.104C49.792 527.528 49.5947 527.072 49.2 526.736C48.8053 526.395 48.3253 526.224 47.76 526.224H45.624V530.064ZM56.6458 536.16C55.8351 536.16 55.1284 535.987 54.5258 535.64C53.9284 535.293 53.4644 534.803 53.1338 534.168C52.8084 533.533 52.6458 532.781 52.6458 531.912C52.6458 531.043 52.8084 530.283 53.1338 529.632C53.4644 528.981 53.9284 528.475 54.5258 528.112C55.1284 527.749 55.8378 527.568 56.6538 527.568C57.4698 527.568 58.1764 527.747 58.7738 528.104C59.3711 528.456 59.8324 528.957 60.1578 529.608C60.4831 530.259 60.6458 531.027 60.6458 531.912C60.6458 532.744 60.4858 533.48 60.1658 534.12C59.8511 534.755 59.3951 535.253 58.7978 535.616C58.2058 535.979 57.4884 536.16 56.6458 536.16ZM56.6538 534.424C57.0644 534.424 57.3951 534.304 57.6458 534.064C57.8964 533.824 58.0778 533.509 58.1898 533.12C58.3071 532.725 58.3658 532.296 58.3658 531.832C58.3658 531.395 58.3124 530.981 58.2058 530.592C58.1044 530.203 57.9284 529.888 57.6778 529.648C57.4271 529.408 57.0858 529.288 56.6538 529.288C56.2431 529.288 55.9098 529.403 55.6538 529.632C55.4031 529.856 55.2191 530.163 55.1018 530.552C54.9844 530.936 54.9258 531.363 54.9258 531.832C54.9258 532.264 54.9791 532.68 55.0858 533.08C55.1924 533.475 55.3711 533.797 55.6218 534.048C55.8724 534.299 56.2164 534.424 56.6538 534.424ZM65.4595 536.16C64.8835 536.16 64.3288 536.067 63.7955 535.88C63.2622 535.688 62.8115 535.389 62.4435 534.984C62.0755 534.573 61.8408 534.043 61.7395 533.392H63.7635C63.8328 533.685 63.9582 533.917 64.1395 534.088C64.3262 534.259 64.5368 534.381 64.7715 534.456C65.0062 534.525 65.2302 534.56 65.4435 534.56C65.8915 534.56 66.2515 534.491 66.5235 534.352C66.8008 534.208 66.9395 533.989 66.9395 533.696C66.9395 533.472 66.8568 533.293 66.6915 533.16C66.5315 533.027 66.2648 532.925 65.8915 532.856L64.4355 532.552C63.7048 532.397 63.1182 532.136 62.6755 531.768C62.2328 531.395 62.0062 530.867 61.9955 530.184C61.9955 529.688 62.1262 529.243 62.3875 528.848C62.6542 528.453 63.0462 528.141 63.5635 527.912C64.0808 527.683 64.7155 527.568 65.4675 527.568C66.4862 527.568 67.2995 527.792 67.9075 528.24C68.5208 528.688 68.8328 529.32 68.8435 530.136H66.8915C66.8328 529.816 66.6728 529.571 66.4115 529.4C66.1555 529.224 65.8328 529.136 65.4435 529.136C65.0382 529.136 64.7048 529.208 64.4435 529.352C64.1822 529.496 64.0515 529.715 64.0515 530.008C64.0515 530.227 64.1582 530.4 64.3715 530.528C64.5848 530.651 64.9155 530.757 65.3635 530.848L66.7075 531.152C67.1715 531.264 67.5475 531.419 67.8355 531.616C68.1288 531.808 68.3555 532.019 68.5155 532.248C68.6755 532.477 68.7848 532.709 68.8435 532.944C68.9075 533.173 68.9395 533.381 68.9395 533.568C68.9395 534.117 68.7928 534.587 68.4995 534.976C68.2062 535.36 67.7982 535.653 67.2755 535.856C66.7528 536.059 66.1475 536.16 65.4595 536.16ZM75.5244 529.352H73.6844L73.7004 533.76C73.7004 533.963 73.7244 534.115 73.7724 534.216C73.8257 534.312 73.9057 534.376 74.0124 534.408C74.1244 534.435 74.2657 534.448 74.4364 534.448H75.5484V535.888C75.4417 535.936 75.2737 535.981 75.0444 536.024C74.8204 536.067 74.5057 536.088 74.1004 536.088C73.375 536.088 72.8124 535.995 72.4124 535.808C72.0177 535.621 71.743 535.36 71.5884 535.024C71.4337 534.688 71.3564 534.299 71.3564 533.856V529.352H70.0124V527.728H71.4364L72.0204 525.232H73.6844V527.72H75.5244V529.352ZM80.5284 527.568C81.2217 527.568 81.819 527.709 82.3204 527.992C82.827 528.275 83.2244 528.656 83.5124 529.136C83.8057 529.616 83.9737 530.152 84.0164 530.744H82.0724C82.035 530.525 81.9577 530.309 81.8404 530.096C81.723 529.877 81.5577 529.699 81.3444 529.56C81.131 529.416 80.8644 529.344 80.5444 529.344C80.0004 529.344 79.5577 529.555 79.2164 529.976C78.8804 530.392 78.7124 531.027 78.7124 531.88C78.7124 532.685 78.8777 533.325 79.2084 533.8C79.539 534.269 80.0004 534.504 80.5924 534.504C80.907 534.504 81.1684 534.427 81.3764 534.272C81.5897 534.117 81.755 533.933 81.8724 533.72C81.9897 533.501 82.0644 533.299 82.0964 533.112H83.9924C83.955 533.683 83.7897 534.2 83.4964 534.664C83.203 535.123 82.803 535.488 82.2964 535.76C81.795 536.027 81.2057 536.16 80.5284 536.16C79.7604 536.16 79.075 535.989 78.4724 535.648C77.8697 535.307 77.395 534.819 77.0484 534.184C76.707 533.544 76.5364 532.781 76.5364 531.896C76.5364 531.043 76.7017 530.291 77.0324 529.64C77.363 528.989 77.827 528.483 78.4244 528.12C79.027 527.752 79.7284 527.568 80.5284 527.568ZM89.177 536.16C88.3663 536.16 87.6597 535.987 87.057 535.64C86.4597 535.293 85.9957 534.803 85.665 534.168C85.3397 533.533 85.177 532.781 85.177 531.912C85.177 531.043 85.3397 530.283 85.665 529.632C85.9957 528.981 86.4597 528.475 87.057 528.112C87.6597 527.749 88.369 527.568 89.185 527.568C90.001 527.568 90.7077 527.747 91.305 528.104C91.9023 528.456 92.3637 528.957 92.689 529.608C93.0143 530.259 93.177 531.027 93.177 531.912C93.177 532.744 93.017 533.48 92.697 534.12C92.3823 534.755 91.9263 535.253 91.329 535.616C90.737 535.979 90.0197 536.16 89.177 536.16ZM89.185 534.424C89.5957 534.424 89.9263 534.304 90.177 534.064C90.4277 533.824 90.609 533.509 90.721 533.12C90.8383 532.725 90.897 532.296 90.897 531.832C90.897 531.395 90.8437 530.981 90.737 530.592C90.6357 530.203 90.4597 529.888 90.209 529.648C89.9583 529.408 89.617 529.288 89.185 529.288C88.7743 529.288 88.441 529.403 88.185 529.632C87.9343 529.856 87.7503 530.163 87.633 530.552C87.5157 530.936 87.457 531.363 87.457 531.832C87.457 532.264 87.5103 532.68 87.617 533.08C87.7237 533.475 87.9023 533.797 88.153 534.048C88.4037 534.299 88.7477 534.424 89.185 534.424ZM97.8064 536.16C96.697 536.16 95.833 535.779 95.2144 535.016C94.5957 534.248 94.2864 533.181 94.2864 531.816C94.2864 530.952 94.4117 530.203 94.6624 529.568C94.913 528.933 95.2837 528.443 95.7744 528.096C96.265 527.744 96.865 527.568 97.5744 527.568C97.873 527.568 98.1504 527.603 98.4064 527.672C98.6677 527.736 98.905 527.827 99.1184 527.944C99.3317 528.061 99.5184 528.197 99.6784 528.352C99.8384 528.507 99.969 528.672 100.07 528.848V524.112H102.414V536H100.718L100.454 534.304C100.38 534.533 100.276 534.757 100.142 534.976C100.009 535.195 99.8384 535.395 99.6304 535.576C99.4224 535.752 99.1664 535.893 98.8624 536C98.5637 536.107 98.2117 536.16 97.8064 536.16ZM98.3184 534.48C98.905 534.48 99.3424 534.275 99.6304 533.864C99.9237 533.453 100.07 532.76 100.07 531.784C100.065 531.219 99.9984 530.749 99.8704 530.376C99.7424 530.003 99.5504 529.725 99.2944 529.544C99.0437 529.357 98.7237 529.264 98.3344 529.264C97.8277 529.264 97.4064 529.459 97.0704 529.848C96.7344 530.232 96.5664 530.877 96.5664 531.784C96.5664 532.707 96.7237 533.387 97.0384 533.824C97.353 534.261 97.7797 534.48 98.3184 534.48ZM106.342 532.4C106.337 532.821 106.403 533.189 106.542 533.504C106.681 533.813 106.881 534.053 107.142 534.224C107.409 534.389 107.729 534.472 108.102 534.472C108.502 534.472 108.851 534.387 109.15 534.216C109.454 534.045 109.665 533.765 109.782 533.376H111.886C111.795 533.963 111.561 534.464 111.182 534.88C110.809 535.296 110.355 535.613 109.822 535.832C109.289 536.051 108.734 536.16 108.158 536.16C107.342 536.16 106.622 535.989 105.998 535.648C105.379 535.301 104.897 534.813 104.55 534.184C104.203 533.555 104.03 532.813 104.03 531.96C104.03 531.133 104.187 530.389 104.502 529.728C104.817 529.061 105.273 528.536 105.87 528.152C106.473 527.763 107.195 527.568 108.038 527.568C108.881 527.568 109.587 527.747 110.158 528.104C110.734 528.456 111.166 528.949 111.454 529.584C111.747 530.213 111.894 530.941 111.894 531.768V532.4H106.342ZM106.334 531.008H109.71C109.71 530.677 109.649 530.373 109.526 530.096C109.403 529.819 109.217 529.6 108.966 529.44C108.721 529.28 108.411 529.2 108.038 529.2C107.675 529.2 107.366 529.288 107.11 529.464C106.859 529.635 106.667 529.859 106.534 530.136C106.401 530.413 106.334 530.704 106.334 531.008Z" fill="#3E3E3E"/>
<path d="M56.6188 195.238L51 189.619L56.6188 184" stroke="#3E3E3E" stroke-width="2.65192" stroke-linecap="round" stroke-linejoin="round"/>
<path d="M51 189.619H64.2596" stroke="#3E3E3E" stroke-width="2.65192" stroke-linecap="round" stroke-linejoin="round"/>
<defs>
<filter id="filter0_d_520_899" x="77.5" y="820.5" width="279" height="71" filterUnits="userSpaceOnUse" color-interpolation-filters="sRGB">
<feFlood flood-opacity="0" result="BackgroundImageFix"/>
<feColorMatrix in="SourceAlpha" type="matrix" values="0 0 0 0 0 0 0 0 0 0 0 0 0 0 0 0 0 0 127 0" result="hardAlpha"/>
<feOffset dx="3" dy="4"/>
<feGaussianBlur stdDeviation="3.75"/>
<feComposite in2="hardAlpha" operator="out"/>
<feColorMatrix type="matrix" values="0 0 0 0 0.529412 0 0 0 0 0.462745 0 0 0 0 0.341176 0 0 0 0.3 0"/>
<feBlend mode="normal" in2="BackgroundImageFix" result="effect1_dropShadow_520_899"/>
<feBlend mode="normal" in="SourceGraphic" in2="effect1_dropShadow_520_899" result="shape"/>
</filter>
<clipPath id="clip0_520_899">
<rect width="119" height="119" fill="white" transform="translate(155 22)"/>
</clipPath>
</defs>
</svg>
