<svg width="428" height="926" viewBox="0 0 428 926" fill="none" xmlns="http://www.w3.org/2000/svg">
<rect width="428" height="926" fill="#F8F2E9"/>
<g filter="url(#filter0_d_520_1278)">
<rect x="66" y="824" width="296" height="61.2863" rx="30.6432" fill="#F8F2E9"/>
</g>
<path d="M112 865V859C112 858.735 111.895 858.48 111.707 858.293C111.52 858.105 111.265 858 111 858H107C106.735 858 106.48 858.105 106.293 858.293C106.105 858.48 106 858.735 106 859V865C106 865.265 105.895 865.52 105.707 865.707C105.52 865.895 105.265 866 105 866H99C98.7348 866 98.4804 865.895 98.2929 865.707C98.1054 865.52 98 865.265 98 865V853.438C98.0022 853.299 98.0321 853.163 98.088 853.036C98.1438 852.909 98.2244 852.795 98.325 852.7L108.325 843.613C108.509 843.444 108.75 843.35 109 843.35C109.25 843.35 109.491 843.444 109.675 843.613L119.675 852.7C119.776 852.795 119.856 852.909 119.912 853.036C119.968 853.163 119.998 853.299 120 853.438V865C120 865.265 119.895 865.52 119.707 865.707C119.52 865.895 119.265 866 119 866H113C112.735 866 112.48 865.895 112.293 865.707C112.105 865.52 112 865.265 112 865Z" fill="#4A4A4A"/>
<path d="M177.5 864C183.299 864 188 859.299 188 853.5C188 847.701 183.299 843 177.5 843C171.701 843 167 847.701 167 853.5C167 859.299 171.701 864 177.5 864Z" stroke="#4A4A4A" stroke-width="2" stroke-linecap="round" stroke-linejoin="round"/>
<path d="M184.925 860.925L191 867" stroke="#4A4A4A" stroke-width="2" stroke-linecap="round" stroke-linejoin="round"/>
<path d="M245 848C245 846.939 245.421 845.922 246.172 845.172C246.922 844.421 247.939 844 249 844C250.061 844 251.078 844.421 251.828 845.172C252.579 845.922 253 846.939 253 848L235.4 861.2C235.232 861.326 235.108 861.501 235.045 861.702C234.983 861.902 234.985 862.117 235.051 862.316C235.118 862.515 235.245 862.689 235.415 862.811C235.586 862.934 235.79 863 236 863H262C262.21 863 262.414 862.934 262.585 862.811C262.755 862.689 262.882 862.515 262.949 862.316C263.015 862.117 263.017 861.902 262.955 861.702C262.892 861.501 262.768 861.326 262.6 861.2L249 851" stroke="#4A4A4A" stroke-width="2" stroke-linecap="round" stroke-linejoin="round"/>
<path d="M319 859C323.418 859 327 855.418 327 851C327 846.582 323.418 843 319 843C314.582 843 311 846.582 311 851C311 855.418 314.582 859 319 859Z" stroke="#4A4A4A" stroke-width="2" stroke-miterlimit="10"/>
<path d="M306.875 866C308.104 863.871 309.871 862.104 311.999 860.875C314.128 859.646 316.542 858.999 319 858.999C321.458 858.999 323.872 859.646 326.001 860.875C328.129 862.104 329.896 863.871 331.125 866" stroke="#4A4A4A" stroke-width="2" stroke-linecap="round" stroke-linejoin="round"/>
<g clip-path="url(#clip0_520_1278)">
<path d="M240.646 92.0176C240.549 91.6316 240.501 91.2208 240.501 90.7849C240.501 89.1541 241.237 87.7352 242.71 86.5279C244.183 85.3207 247.195 83.8385 251.746 82.0813V80.735C251.746 79.3191 251.565 78.3046 251.205 77.6915C250.845 77.0784 250.254 76.7719 249.432 76.7719C248.762 76.7719 248.206 76.9709 247.764 77.3692C247.321 77.7674 247.1 78.2635 247.1 78.8578C247.1 79.1737 247.113 79.5435 247.138 79.967C247.163 80.3905 247.176 80.6592 247.176 80.7729C247.176 81.6957 246.92 82.4384 246.408 83.001C245.896 83.5635 245.216 83.8447 244.369 83.8447C243.598 83.8447 242.979 83.6014 242.511 83.1147C242.043 82.628 241.809 81.9864 241.809 81.1901C241.809 79.4708 242.625 78.0455 244.256 76.9141C245.886 75.7826 247.985 75.217 250.551 75.217C251.992 75.217 253.297 75.4003 254.467 75.7669C255.636 76.1336 256.594 76.6644 257.339 77.3597C257.946 77.9286 258.376 78.5923 258.629 79.3507C258.882 80.1092 259.008 81.2532 259.008 82.7829V88.1871C259.008 89.6914 259.125 90.7597 259.359 91.3916C259.593 92.0237 259.969 92.3398 260.487 92.3398C260.601 92.3398 260.715 92.3146 260.828 92.264C260.942 92.2133 261.062 92.1376 261.189 92.0363V93.2689C260.683 93.9136 260.029 94.413 259.226 94.7669C258.423 95.1209 257.535 95.2979 256.562 95.2979C255.45 95.2979 254.517 95.0388 253.765 94.5205C253.013 94.0021 252.46 93.2374 252.106 92.2261C251.145 93.3259 250.137 94.1444 249.081 94.6816C248.026 95.2188 246.91 95.4875 245.735 95.4875C244.18 95.4875 242.919 95.0482 241.952 94.1697C241.629 93.8765 241.36 93.5555 241.145 93.2066C240.384 93.8039 239.157 94.494 238.538 94.7669C237.736 95.1209 236.848 95.2979 235.874 95.2979C234.762 95.2979 233.829 95.0388 233.077 94.5205C232.325 94.0021 231.772 93.2374 231.418 92.2261C230.457 93.3259 229.449 94.1444 228.394 94.6816C227.338 95.2188 226.223 95.4875 225.047 95.4875C223.492 95.4875 222.231 95.0482 221.264 94.1697C220.297 93.2911 219.813 92.1628 219.813 90.7849C219.813 89.1541 220.55 87.7352 222.022 86.5279C223.495 85.3207 226.507 83.8385 231.058 82.0813V80.735C231.058 79.3191 230.878 78.3046 230.517 77.6915C230.157 77.0784 229.566 76.7719 228.744 76.7719C228.075 76.7719 227.518 76.9709 227.076 77.3692C226.633 77.7674 226.412 78.2635 226.412 78.8578C226.412 79.1737 226.425 79.5435 226.45 79.967C226.475 80.3905 226.488 80.6592 226.488 80.7729C226.488 81.6957 226.232 82.4384 225.72 83.001C225.208 83.5635 224.529 83.8447 223.682 83.8447C222.91 83.8447 222.291 83.6014 221.823 83.1147C221.356 82.628 221.122 81.9864 221.122 81.1901C221.122 79.4708 221.937 78.0455 223.568 76.9141C225.199 75.7826 227.297 75.217 229.863 75.217C231.304 75.217 232.61 75.4003 233.779 75.7669C234.948 76.1336 235.906 76.6644 236.652 77.3597C237.258 77.9286 237.688 78.5923 237.941 79.3507C238.194 80.1092 238.32 81.2532 238.32 82.7829V88.1871C238.32 89.6914 238.437 90.7597 238.671 91.3916C238.905 92.0237 239.281 92.3398 239.799 92.3398C239.913 92.3398 240.027 92.3146 240.141 92.264C240.194 92.2403 240.414 92.1343 240.646 92.0176ZM182.778 94.6722L178.246 85.6651V90.8228C178.246 91.8215 178.423 92.5326 178.777 92.9561C179.131 93.3796 179.731 93.5913 180.578 93.5913H180.692V94.6722H168.499V93.5913H168.613C169.448 93.5913 170.045 93.3796 170.405 92.9561C170.765 92.5326 170.946 91.8215 170.946 90.8228V75.2548C170.946 74.6734 170.879 74.2531 170.746 73.994C170.614 73.7348 170.313 73.4156 169.846 73.0364L167.798 71.3677C168.683 71.1022 169.915 70.6788 171.495 70.0972C173.076 69.5157 175.326 68.6561 178.246 67.5183V84.6222C179.902 83.3454 181.15 82.1919 181.991 81.1616C182.832 80.1314 183.252 79.237 183.252 78.4785C183.252 78.0739 183.097 77.7516 182.787 77.5115C182.478 77.2712 182.051 77.1511 181.507 77.1511H181.394V76.0703H191.254V77.1511H190.932C189.63 77.1511 188.403 77.4925 187.253 78.175C186.103 78.8578 184.921 79.9448 183.707 81.4366L189.149 90.7469C189.743 91.7836 190.319 92.5042 190.875 92.9087C191.429 93.3119 192.122 93.5393 192.953 93.5909C193.752 93.5796 194.326 93.368 194.677 92.9561C195.037 92.5326 195.217 91.8215 195.217 90.8228V82.7829C195.217 82.2014 195.154 81.781 195.027 81.5219C194.901 81.2628 194.604 80.9499 194.136 80.5833L192.069 78.9146C193.574 78.4343 195.198 77.8717 196.943 77.227C198.687 76.5823 200.545 75.8617 202.518 75.0652V90.8228C202.518 91.7962 202.691 92.4946 203.039 92.9181C203.387 93.3416 203.965 93.566 204.774 93.5913H204.811C205.645 93.5913 206.243 93.3796 206.603 92.9561C206.963 92.5326 207.143 91.8215 207.143 90.8228V83.6741C207.143 83.0673 207.067 82.6185 206.916 82.3278C206.764 82.0371 206.48 81.7526 206.063 81.4745L203.692 79.8058C204.931 79.376 206.36 78.7851 207.978 78.0329C209.596 77.2807 211.58 76.2915 213.932 75.0652V78.4027C214.564 77.3407 215.25 76.5444 215.989 76.0134C216.729 75.4825 217.522 75.217 218.369 75.217C219.304 75.217 220.057 75.4951 220.625 76.0513C221.194 76.6075 221.479 77.3407 221.479 78.2509C221.479 79.0474 221.242 79.6857 220.768 80.1661C220.294 80.6465 219.665 80.8866 218.881 80.8866C218.173 80.8866 217.494 80.6023 216.842 80.0333C216.191 79.4645 215.777 79.1801 215.6 79.1801C215.183 79.1801 214.886 79.4582 214.709 80.0144C214.532 80.5707 214.444 81.563 214.444 82.9915V90.8228C214.444 91.8089 214.643 92.5168 215.041 92.9465C215.439 93.3764 216.093 93.5913 217.004 93.5913H217.117V94.6722H182.778ZM251.746 83.4845C250.608 83.9396 249.742 84.657 249.148 85.6367C248.554 86.6164 248.257 87.8142 248.257 89.23C248.257 90.0391 248.418 90.6838 248.74 91.1642C249.062 91.6445 249.483 91.8847 250.001 91.8847C250.671 91.8847 251.129 91.6192 251.376 91.0883C251.622 90.5573 251.746 89.23 251.746 87.1063V83.4845ZM231.058 83.4845C229.92 83.9396 229.054 84.657 228.46 85.6367C227.866 86.6164 227.569 87.8142 227.569 89.23C227.569 90.0391 227.73 90.6838 228.052 91.1642C228.375 91.6445 228.795 91.8847 229.313 91.8847C229.983 91.8847 230.442 91.6192 230.688 91.0883C230.935 90.5573 231.058 89.23 231.058 87.1063V83.4845ZM194.705 71.3297C194.705 70.2679 195.075 69.3671 195.814 68.6277C196.554 67.8881 197.455 67.5183 198.517 67.5183C199.591 67.5183 200.495 67.8881 201.228 68.6277C201.961 69.3671 202.328 70.2679 202.328 71.3297C202.328 72.3917 201.958 73.2923 201.219 74.0319C200.479 74.7713 199.578 75.1411 198.517 75.1411C197.455 75.1411 196.554 74.7745 195.814 74.0413C195.075 73.3081 194.705 72.4043 194.705 71.3297Z" fill="#3E3E3E"/>
</g>
<path d="M381 116H359C358.448 116 358 116.448 358 117V135C358 135.552 358.448 136 359 136H381C381.552 136 382 135.552 382 135V117C382 116.448 381.552 116 381 116Z" stroke="#3E3E3E" stroke-width="2" stroke-linecap="round" stroke-linejoin="round"/>
<path d="M375 121C375 122.326 374.473 123.598 373.536 124.536C372.598 125.473 371.326 126 370 126C368.674 126 367.402 125.473 366.464 124.536C365.527 123.598 365 122.326 365 121" stroke="#3E3E3E" stroke-width="2" stroke-linecap="round" stroke-linejoin="round"/>
<path d="M56.6188 195.238L51 189.619L56.6188 184" stroke="#3E3E3E" stroke-width="2.65192" stroke-linecap="round" stroke-linejoin="round"/>
<path d="M51 189.619H64.2596" stroke="#3E3E3E" stroke-width="2.65192" stroke-linecap="round" stroke-linejoin="round"/>
<path d="M161.33 384.432H163.274V396H161.33V384.432ZM170.363 389.104H168.515L168.523 393.848C168.523 394.093 168.549 394.275 168.603 394.392C168.661 394.504 168.752 394.579 168.875 394.616C169.003 394.648 169.173 394.664 169.387 394.664H170.403V395.896C170.296 395.939 170.133 395.976 169.915 396.008C169.701 396.045 169.413 396.064 169.051 396.064C168.395 396.064 167.885 395.979 167.523 395.808C167.165 395.632 166.917 395.384 166.779 395.064C166.64 394.744 166.571 394.363 166.571 393.92V389.104H165.227V387.728H166.627L167.115 385.272H168.515V387.72H170.363V389.104ZM171.964 388.6L172.868 386.512L172.116 386.456V384.432H174.244V386.208L172.748 388.6H171.964ZM178.349 396.16C177.773 396.16 177.226 396.069 176.709 395.888C176.197 395.701 175.765 395.411 175.413 395.016C175.066 394.621 174.847 394.112 174.757 393.488H176.469C176.543 393.792 176.674 394.04 176.861 394.232C177.053 394.424 177.279 394.565 177.541 394.656C177.802 394.741 178.069 394.784 178.341 394.784C178.837 394.784 179.237 394.699 179.541 394.528C179.85 394.357 180.005 394.093 180.005 393.736C180.005 393.475 179.919 393.267 179.749 393.112C179.578 392.957 179.306 392.84 178.933 392.76L177.357 392.4C176.658 392.245 176.095 391.989 175.669 391.632C175.247 391.275 175.034 390.771 175.029 390.12C175.023 389.629 175.146 389.192 175.397 388.808C175.647 388.424 176.021 388.123 176.517 387.904C177.013 387.68 177.626 387.568 178.357 387.568C179.322 387.568 180.095 387.784 180.677 388.216C181.258 388.643 181.557 389.253 181.573 390.048H179.917C179.858 389.691 179.69 389.413 179.413 389.216C179.135 389.013 178.775 388.912 178.333 388.912C177.874 388.912 177.498 389 177.205 389.176C176.911 389.352 176.765 389.621 176.765 389.984C176.765 390.235 176.877 390.432 177.101 390.576C177.325 390.72 177.661 390.843 178.109 390.944L179.597 391.304C180.023 391.411 180.373 391.555 180.645 391.736C180.917 391.917 181.13 392.117 181.285 392.336C181.439 392.549 181.546 392.771 181.605 393C181.669 393.224 181.701 393.432 181.701 393.624C181.701 394.157 181.562 394.613 181.285 394.992C181.013 395.365 180.626 395.653 180.125 395.856C179.623 396.059 179.031 396.16 178.349 396.16ZM188.995 387.728V396H187.123V387.728H188.995ZM189.019 384.44V386.28H187.091V384.44H189.019ZM191.424 396V387.728H193.328V388.912C193.456 388.699 193.63 388.493 193.848 388.296C194.072 388.099 194.347 387.939 194.672 387.816C194.998 387.693 195.379 387.632 195.816 387.632C196.328 387.632 196.803 387.733 197.24 387.936C197.683 388.139 198.038 388.456 198.304 388.888C198.576 389.32 198.712 389.877 198.712 390.56V396H196.76V390.792C196.76 390.248 196.611 389.845 196.312 389.584C196.014 389.317 195.638 389.184 195.184 389.184C194.875 389.184 194.582 389.237 194.304 389.344C194.027 389.445 193.8 389.603 193.624 389.816C193.454 390.024 193.368 390.285 193.368 390.6V396H191.424ZM208.956 389.104H207.108L207.116 393.848C207.116 394.093 207.143 394.275 207.196 394.392C207.255 394.504 207.346 394.579 207.468 394.616C207.596 394.648 207.767 394.664 207.98 394.664H208.996V395.896C208.89 395.939 208.727 395.976 208.508 396.008C208.295 396.045 208.007 396.064 207.644 396.064C206.988 396.064 206.479 395.979 206.116 395.808C205.759 395.632 205.511 395.384 205.372 395.064C205.234 394.744 205.164 394.363 205.164 393.92V389.104H203.82V387.728H205.22L205.708 385.272H207.108V387.72H208.956V389.104ZM210.862 396V384.112H212.782V388.928C212.915 388.72 213.091 388.52 213.31 388.328C213.528 388.131 213.795 387.971 214.11 387.848C214.43 387.72 214.811 387.656 215.254 387.656C215.782 387.656 216.264 387.757 216.702 387.96C217.139 388.163 217.488 388.456 217.75 388.84C218.011 389.219 218.142 389.672 218.142 390.2V396H216.19V390.528C216.19 390.101 216.038 389.771 215.734 389.536C215.435 389.301 215.056 389.184 214.598 389.184C214.294 389.184 214.003 389.237 213.726 389.344C213.448 389.451 213.224 389.611 213.054 389.824C212.888 390.032 212.806 390.293 212.806 390.608V396H210.862ZM221.749 392.312C221.744 392.781 221.819 393.197 221.973 393.56C222.128 393.923 222.357 394.208 222.661 394.416C222.965 394.619 223.341 394.72 223.789 394.72C224.248 394.72 224.645 394.619 224.981 394.416C225.323 394.208 225.549 393.893 225.661 393.472H227.445C227.349 394.048 227.12 394.536 226.757 394.936C226.395 395.336 225.955 395.64 225.437 395.848C224.925 396.056 224.392 396.16 223.837 396.16C223.037 396.16 222.333 395.992 221.725 395.656C221.123 395.315 220.651 394.829 220.309 394.2C219.973 393.571 219.805 392.821 219.805 391.952C219.805 391.104 219.96 390.352 220.269 389.696C220.579 389.035 221.024 388.515 221.605 388.136C222.192 387.757 222.896 387.568 223.717 387.568C224.533 387.568 225.219 387.741 225.773 388.088C226.333 388.435 226.755 388.92 227.037 389.544C227.325 390.163 227.469 390.888 227.469 391.72V392.312H221.749ZM221.749 391.104H225.629C225.629 390.704 225.56 390.344 225.421 390.024C225.283 389.699 225.069 389.443 224.781 389.256C224.499 389.064 224.141 388.968 223.709 388.968C223.283 388.968 222.923 389.072 222.629 389.28C222.336 389.488 222.115 389.757 221.965 390.088C221.816 390.413 221.744 390.752 221.749 391.104ZM237.105 396.16C236.662 396.16 236.283 396.101 235.969 395.984C235.654 395.867 235.39 395.715 235.177 395.528C234.969 395.341 234.801 395.141 234.673 394.928C234.55 394.709 234.457 394.501 234.393 394.304L234.169 396H232.737V384.112H234.689V388.936C234.774 388.776 234.891 388.616 235.041 388.456C235.195 388.296 235.382 388.149 235.601 388.016C235.819 387.883 236.067 387.776 236.345 387.696C236.627 387.611 236.939 387.568 237.281 387.568C238.31 387.568 239.123 387.933 239.721 388.664C240.318 389.395 240.617 390.448 240.617 391.824C240.617 392.693 240.483 393.453 240.217 394.104C239.955 394.755 239.563 395.261 239.041 395.624C238.523 395.981 237.878 396.16 237.105 396.16ZM236.705 394.728C237.286 394.728 237.763 394.496 238.137 394.032C238.51 393.568 238.697 392.816 238.697 391.776C238.697 390.869 238.521 390.184 238.169 389.72C237.817 389.251 237.321 389.016 236.681 389.016C236.222 389.016 235.846 389.12 235.553 389.328C235.265 389.536 235.049 389.845 234.905 390.256C234.766 390.667 234.694 391.173 234.689 391.776C234.689 392.832 234.849 393.589 235.169 394.048C235.494 394.501 236.006 394.728 236.705 394.728ZM244.612 396.16C244.084 396.16 243.609 396.064 243.188 395.872C242.772 395.675 242.444 395.395 242.204 395.032C241.969 394.664 241.852 394.219 241.852 393.696C241.852 392.784 242.18 392.096 242.836 391.632C243.497 391.168 244.551 390.925 245.996 390.904L247.228 390.872V390.312C247.228 389.875 247.097 389.533 246.836 389.288C246.58 389.037 246.18 388.915 245.636 388.92C245.236 388.925 244.868 389.021 244.532 389.208C244.201 389.389 243.983 389.696 243.876 390.128H242.22C242.252 389.563 242.415 389.091 242.708 388.712C243.007 388.328 243.415 388.043 243.932 387.856C244.449 387.664 245.047 387.568 245.724 387.568C246.513 387.568 247.156 387.672 247.652 387.88C248.148 388.088 248.513 388.389 248.748 388.784C248.983 389.173 249.1 389.645 249.1 390.2V396H247.46L247.308 394.512C247.009 395.136 246.631 395.568 246.172 395.808C245.719 396.043 245.199 396.16 244.612 396.16ZM245.244 394.84C245.484 394.84 245.721 394.797 245.956 394.712C246.191 394.621 246.404 394.501 246.596 394.352C246.788 394.197 246.94 394.027 247.052 393.84C247.169 393.653 247.228 393.459 247.228 393.256V391.952L246.212 391.968C245.711 391.973 245.273 392.027 244.9 392.128C244.527 392.229 244.233 392.392 244.02 392.616C243.812 392.835 243.708 393.128 243.708 393.496C243.708 393.917 243.855 394.248 244.148 394.488C244.441 394.723 244.807 394.84 245.244 394.84ZM255.049 398.736C253.657 398.736 252.588 398.549 251.841 398.176C251.095 397.803 250.721 397.291 250.721 396.64C250.721 396.347 250.793 396.101 250.937 395.904C251.081 395.707 251.252 395.544 251.449 395.416C251.647 395.288 251.828 395.189 251.993 395.12C252.159 395.051 252.265 395 252.313 394.968C252.223 394.915 252.103 394.845 251.953 394.76C251.804 394.675 251.668 394.557 251.545 394.408C251.428 394.259 251.369 394.064 251.369 393.824C251.369 393.547 251.5 393.291 251.761 393.056C252.028 392.821 252.425 392.653 252.953 392.552C252.436 392.301 252.039 391.963 251.761 391.536C251.484 391.109 251.345 390.667 251.345 390.208C251.345 389.664 251.503 389.197 251.817 388.808C252.137 388.419 252.58 388.12 253.145 387.912C253.716 387.704 254.375 387.6 255.121 387.6C255.676 387.6 256.135 387.661 256.497 387.784C256.86 387.907 257.199 388.072 257.513 388.28C257.62 388.237 257.769 388.179 257.961 388.104C258.159 388.024 258.372 387.939 258.601 387.848C258.831 387.752 259.049 387.661 259.257 387.576C259.471 387.485 259.652 387.411 259.801 387.352L259.785 388.96L258.353 389.216C258.423 389.371 258.476 389.539 258.513 389.72C258.556 389.901 258.577 390.061 258.577 390.2C258.577 390.68 258.441 391.125 258.169 391.536C257.903 391.941 257.5 392.267 256.961 392.512C256.428 392.757 255.761 392.88 254.961 392.88C254.881 392.88 254.772 392.877 254.633 392.872C254.495 392.867 254.383 392.861 254.297 392.856C253.865 392.872 253.569 392.923 253.409 393.008C253.249 393.093 253.169 393.187 253.169 393.288C253.169 393.432 253.289 393.528 253.529 393.576C253.769 393.624 254.153 393.667 254.681 393.704C254.868 393.715 255.113 393.728 255.417 393.744C255.721 393.76 256.06 393.781 256.433 393.808C257.377 393.867 258.092 394.104 258.577 394.52C259.063 394.931 259.305 395.464 259.305 396.12C259.305 396.883 258.953 397.509 258.249 398C257.545 398.491 256.479 398.736 255.049 398.736ZM255.377 397.592C256.076 397.592 256.593 397.496 256.929 397.304C257.265 397.112 257.433 396.829 257.433 396.456C257.433 396.168 257.319 395.933 257.089 395.752C256.86 395.571 256.519 395.464 256.065 395.432L253.977 395.304C253.748 395.288 253.529 395.331 253.321 395.432C253.119 395.528 252.953 395.664 252.825 395.84C252.697 396.011 252.633 396.2 252.633 396.408C252.633 396.797 252.857 397.091 253.305 397.288C253.753 397.491 254.444 397.592 255.377 397.592ZM255.025 391.736C255.532 391.736 255.943 391.608 256.257 391.352C256.572 391.091 256.729 390.723 256.729 390.248C256.729 389.757 256.572 389.376 256.257 389.104C255.943 388.827 255.532 388.688 255.025 388.688C254.508 388.688 254.089 388.827 253.769 389.104C253.455 389.381 253.297 389.763 253.297 390.248C253.297 390.707 253.449 391.069 253.753 391.336C254.057 391.603 254.481 391.736 255.025 391.736ZM263.434 393.792V396H261.242V393.792H263.434ZM263.49 384.432L262.978 392.72H261.73L261.194 384.432H263.49ZM105.806 422.432L102.406 434H100.766L98.43 425.8L96.062 434H94.462L91.086 422.432H93.006L95.35 430.784L97.702 422.432H99.158L101.526 430.784L103.878 422.432H105.806ZM107.991 430.312C107.986 430.781 108.061 431.197 108.215 431.56C108.37 431.923 108.599 432.208 108.903 432.416C109.207 432.619 109.583 432.72 110.031 432.72C110.49 432.72 110.887 432.619 111.223 432.416C111.565 432.208 111.791 431.893 111.903 431.472H113.687C113.591 432.048 113.362 432.536 112.999 432.936C112.637 433.336 112.197 433.64 111.679 433.848C111.167 434.056 110.634 434.16 110.079 434.16C109.279 434.16 108.575 433.992 107.967 433.656C107.365 433.315 106.893 432.829 106.551 432.2C106.215 431.571 106.047 430.821 106.047 429.952C106.047 429.104 106.202 428.352 106.511 427.696C106.821 427.035 107.266 426.515 107.847 426.136C108.434 425.757 109.138 425.568 109.959 425.568C110.775 425.568 111.461 425.741 112.015 426.088C112.575 426.435 112.997 426.92 113.279 427.544C113.567 428.163 113.711 428.888 113.711 429.72V430.312H107.991ZM107.991 429.104H111.871C111.871 428.704 111.802 428.344 111.663 428.024C111.525 427.699 111.311 427.443 111.023 427.256C110.741 427.064 110.383 426.968 109.951 426.968C109.525 426.968 109.165 427.072 108.871 427.28C108.578 427.488 108.357 427.757 108.207 428.088C108.058 428.413 107.986 428.752 107.991 429.104ZM114.597 426.6L115.501 424.512L114.749 424.456V422.432H116.877V424.208L115.381 426.6H114.597ZM120.894 434.12C120.361 434.12 119.934 434.053 119.614 433.92C119.294 433.787 119.054 433.608 118.894 433.384C118.734 433.16 118.63 432.909 118.582 432.632C118.534 432.349 118.51 432.061 118.51 431.768V422.112H120.414V431.544C120.414 431.901 120.486 432.179 120.63 432.376C120.78 432.573 121.02 432.688 121.35 432.72L121.766 432.736V433.96C121.622 434.003 121.476 434.04 121.326 434.072C121.177 434.104 121.033 434.12 120.894 434.12ZM125.66 434.12C125.127 434.12 124.7 434.053 124.38 433.92C124.06 433.787 123.82 433.608 123.66 433.384C123.5 433.16 123.396 432.909 123.348 432.632C123.3 432.349 123.276 432.061 123.276 431.768V422.112H125.18V431.544C125.18 431.901 125.252 432.179 125.396 432.376C125.545 432.573 125.785 432.688 126.116 432.72L126.532 432.736V433.96C126.388 434.003 126.241 434.04 126.092 434.072C125.943 434.104 125.799 434.12 125.66 434.12ZM131.807 434V425.728H133.671V427.52C133.804 427.109 133.994 426.76 134.239 426.472C134.49 426.179 134.783 425.955 135.119 425.8C135.455 425.645 135.82 425.568 136.215 425.568C136.311 425.568 136.404 425.573 136.495 425.584C136.586 425.595 136.652 425.613 136.695 425.64V427.504C136.636 427.477 136.559 427.459 136.463 427.448C136.372 427.437 136.292 427.432 136.223 427.432C135.823 427.4 135.468 427.416 135.159 427.48C134.855 427.544 134.596 427.653 134.383 427.808C134.175 427.957 134.018 428.149 133.911 428.384C133.804 428.613 133.751 428.883 133.751 429.192V434H131.807ZM139.616 430.312C139.611 430.781 139.686 431.197 139.84 431.56C139.995 431.923 140.224 432.208 140.528 432.416C140.832 432.619 141.208 432.72 141.656 432.72C142.115 432.72 142.512 432.619 142.848 432.416C143.19 432.208 143.416 431.893 143.528 431.472H145.312C145.216 432.048 144.987 432.536 144.624 432.936C144.262 433.336 143.822 433.64 143.304 433.848C142.792 434.056 142.259 434.16 141.704 434.16C140.904 434.16 140.2 433.992 139.592 433.656C138.99 433.315 138.518 432.829 138.176 432.2C137.84 431.571 137.672 430.821 137.672 429.952C137.672 429.104 137.827 428.352 138.136 427.696C138.446 427.035 138.891 426.515 139.472 426.136C140.059 425.757 140.763 425.568 141.584 425.568C142.4 425.568 143.086 425.741 143.64 426.088C144.2 426.435 144.622 426.92 144.904 427.544C145.192 428.163 145.336 428.888 145.336 429.72V430.312H139.616ZM139.616 429.104H143.496C143.496 428.704 143.427 428.344 143.288 428.024C143.15 427.699 142.936 427.443 142.648 427.256C142.366 427.064 142.008 426.968 141.576 426.968C141.15 426.968 140.79 427.072 140.496 427.28C140.203 427.488 139.982 427.757 139.832 428.088C139.683 428.413 139.611 428.752 139.616 429.104ZM150.232 434.16C149.656 434.16 149.109 434.069 148.592 433.888C148.08 433.701 147.648 433.411 147.296 433.016C146.949 432.621 146.73 432.112 146.64 431.488H148.352C148.426 431.792 148.557 432.04 148.744 432.232C148.936 432.424 149.162 432.565 149.424 432.656C149.685 432.741 149.952 432.784 150.224 432.784C150.72 432.784 151.12 432.699 151.424 432.528C151.733 432.357 151.888 432.093 151.888 431.736C151.888 431.475 151.802 431.267 151.632 431.112C151.461 430.957 151.189 430.84 150.816 430.76L149.24 430.4C148.541 430.245 147.978 429.989 147.552 429.632C147.13 429.275 146.917 428.771 146.912 428.12C146.906 427.629 147.029 427.192 147.28 426.808C147.53 426.424 147.904 426.123 148.4 425.904C148.896 425.68 149.509 425.568 150.24 425.568C151.205 425.568 151.978 425.784 152.56 426.216C153.141 426.643 153.44 427.253 153.456 428.048H151.8C151.741 427.691 151.573 427.413 151.296 427.216C151.018 427.013 150.658 426.912 150.216 426.912C149.757 426.912 149.381 427 149.088 427.176C148.794 427.352 148.648 427.621 148.648 427.984C148.648 428.235 148.76 428.432 148.984 428.576C149.208 428.72 149.544 428.843 149.992 428.944L151.48 429.304C151.906 429.411 152.256 429.555 152.528 429.736C152.8 429.917 153.013 430.117 153.168 430.336C153.322 430.549 153.429 430.771 153.488 431C153.552 431.224 153.584 431.432 153.584 431.624C153.584 432.157 153.445 432.613 153.168 432.992C152.896 433.365 152.509 433.653 152.008 433.856C151.506 434.059 150.914 434.16 150.232 434.16ZM156.945 430.312C156.939 430.781 157.014 431.197 157.169 431.56C157.323 431.923 157.553 432.208 157.857 432.416C158.161 432.619 158.537 432.72 158.985 432.72C159.443 432.72 159.841 432.619 160.177 432.416C160.518 432.208 160.745 431.893 160.857 431.472H162.641C162.545 432.048 162.315 432.536 161.953 432.936C161.59 433.336 161.15 433.64 160.633 433.848C160.121 434.056 159.587 434.16 159.033 434.16C158.233 434.16 157.529 433.992 156.921 433.656C156.318 433.315 155.846 432.829 155.505 432.2C155.169 431.571 155.001 430.821 155.001 429.952C155.001 429.104 155.155 428.352 155.465 427.696C155.774 427.035 156.219 426.515 156.801 426.136C157.387 425.757 158.091 425.568 158.913 425.568C159.729 425.568 160.414 425.741 160.969 426.088C161.529 426.435 161.95 426.92 162.233 427.544C162.521 428.163 162.665 428.888 162.665 429.72V430.312H156.945ZM156.945 429.104H160.825C160.825 428.704 160.755 428.344 160.617 428.024C160.478 427.699 160.265 427.443 159.977 427.256C159.694 427.064 159.337 426.968 158.905 426.968C158.478 426.968 158.118 427.072 157.825 427.28C157.531 427.488 157.31 427.757 157.161 428.088C157.011 428.413 156.939 428.752 156.945 429.104ZM164.479 434V425.728H166.343V427.52C166.476 427.109 166.666 426.76 166.911 426.472C167.162 426.179 167.455 425.955 167.791 425.8C168.127 425.645 168.492 425.568 168.887 425.568C168.983 425.568 169.076 425.573 169.167 425.584C169.258 425.595 169.324 425.613 169.367 425.64V427.504C169.308 427.477 169.231 427.459 169.135 427.448C169.044 427.437 168.964 427.432 168.895 427.432C168.495 427.4 168.14 427.416 167.831 427.48C167.527 427.544 167.268 427.653 167.055 427.808C166.847 427.957 166.69 428.149 166.583 428.384C166.476 428.613 166.423 428.883 166.423 429.192V434H164.479ZM178.029 425.728L174.981 434H173.445L170.389 425.728H172.173L174.157 431.52H174.261L176.237 425.728H178.029ZM180.632 430.312C180.627 430.781 180.701 431.197 180.856 431.56C181.011 431.923 181.24 432.208 181.544 432.416C181.848 432.619 182.224 432.72 182.672 432.72C183.131 432.72 183.528 432.619 183.864 432.416C184.205 432.208 184.432 431.893 184.544 431.472H186.328C186.232 432.048 186.003 432.536 185.64 432.936C185.277 433.336 184.837 433.64 184.32 433.848C183.808 434.056 183.275 434.16 182.72 434.16C181.92 434.16 181.216 433.992 180.608 433.656C180.005 433.315 179.533 432.829 179.192 432.2C178.856 431.571 178.688 430.821 178.688 429.952C178.688 429.104 178.843 428.352 179.152 427.696C179.461 427.035 179.907 426.515 180.488 426.136C181.075 425.757 181.779 425.568 182.6 425.568C183.416 425.568 184.101 425.741 184.656 426.088C185.216 426.435 185.637 426.92 185.92 427.544C186.208 428.163 186.352 428.888 186.352 429.72V430.312H180.632ZM180.632 429.104H184.512C184.512 428.704 184.443 428.344 184.304 428.024C184.165 427.699 183.952 427.443 183.664 427.256C183.381 427.064 183.024 426.968 182.592 426.968C182.165 426.968 181.805 427.072 181.512 427.28C181.219 427.488 180.997 427.757 180.848 428.088C180.699 428.413 180.627 428.752 180.632 429.104ZM196.246 427.104H194.398L194.406 431.848C194.406 432.093 194.432 432.275 194.486 432.392C194.544 432.504 194.635 432.579 194.758 432.616C194.886 432.648 195.056 432.664 195.27 432.664H196.286V433.896C196.179 433.939 196.016 433.976 195.798 434.008C195.584 434.045 195.296 434.064 194.934 434.064C194.278 434.064 193.768 433.979 193.406 433.808C193.048 433.632 192.8 433.384 192.662 433.064C192.523 432.744 192.454 432.363 192.454 431.92V427.104H191.11V425.728H192.51L192.998 423.272H194.398V425.72H196.246V427.104ZM198.151 434V422.112H200.071V426.928C200.204 426.72 200.38 426.52 200.599 426.328C200.818 426.131 201.084 425.971 201.399 425.848C201.719 425.72 202.1 425.656 202.543 425.656C203.071 425.656 203.554 425.757 203.991 425.96C204.428 426.163 204.778 426.456 205.039 426.84C205.3 427.219 205.431 427.672 205.431 428.2V434H203.479V428.528C203.479 428.101 203.327 427.771 203.023 427.536C202.724 427.301 202.346 427.184 201.887 427.184C201.583 427.184 201.292 427.237 201.015 427.344C200.738 427.451 200.514 427.611 200.343 427.824C200.178 428.032 200.095 428.293 200.095 428.608V434H198.151ZM209.518 425.728V434H207.646V425.728H209.518ZM209.542 422.44V424.28H207.614V422.44H209.542ZM214.982 434.16C214.406 434.16 213.859 434.069 213.342 433.888C212.83 433.701 212.398 433.411 212.046 433.016C211.699 432.621 211.48 432.112 211.39 431.488H213.102C213.176 431.792 213.307 432.04 213.494 432.232C213.686 432.424 213.912 432.565 214.174 432.656C214.435 432.741 214.702 432.784 214.974 432.784C215.47 432.784 215.87 432.699 216.174 432.528C216.483 432.357 216.638 432.093 216.638 431.736C216.638 431.475 216.552 431.267 216.382 431.112C216.211 430.957 215.939 430.84 215.566 430.76L213.99 430.4C213.291 430.245 212.728 429.989 212.302 429.632C211.88 429.275 211.667 428.771 211.662 428.12C211.656 427.629 211.779 427.192 212.03 426.808C212.28 426.424 212.654 426.123 213.15 425.904C213.646 425.68 214.259 425.568 214.99 425.568C215.955 425.568 216.728 425.784 217.31 426.216C217.891 426.643 218.19 427.253 218.206 428.048H216.55C216.491 427.691 216.323 427.413 216.046 427.216C215.768 427.013 215.408 426.912 214.966 426.912C214.507 426.912 214.131 427 213.838 427.176C213.544 427.352 213.398 427.621 213.398 427.984C213.398 428.235 213.51 428.432 213.734 428.576C213.958 428.72 214.294 428.843 214.742 428.944L216.23 429.304C216.656 429.411 217.006 429.555 217.278 429.736C217.55 429.917 217.763 430.117 217.918 430.336C218.072 430.549 218.179 430.771 218.238 431C218.302 431.224 218.334 431.432 218.334 431.624C218.334 432.157 218.195 432.613 217.918 432.992C217.646 433.365 217.259 433.653 216.758 433.856C216.256 434.059 215.664 434.16 214.982 434.16ZM225.628 425.728V434H223.756V425.728H225.628ZM225.652 422.44V424.28H223.724V422.44H225.652ZM232.683 427.104H230.835L230.843 431.848C230.843 432.093 230.87 432.275 230.923 432.392C230.982 432.504 231.072 432.579 231.195 432.616C231.323 432.648 231.494 432.664 231.707 432.664H232.723V433.896C232.616 433.939 232.454 433.976 232.235 434.008C232.022 434.045 231.734 434.064 231.371 434.064C230.715 434.064 230.206 433.979 229.843 433.808C229.486 433.632 229.238 433.384 229.099 433.064C228.96 432.744 228.891 432.363 228.891 431.92V427.104H227.547V425.728H228.947L229.435 423.272H230.835V425.72H232.683V427.104ZM235.882 430.312C235.877 430.781 235.951 431.197 236.106 431.56C236.261 431.923 236.49 432.208 236.794 432.416C237.098 432.619 237.474 432.72 237.922 432.72C238.381 432.72 238.778 432.619 239.114 432.416C239.455 432.208 239.682 431.893 239.794 431.472H241.578C241.482 432.048 241.253 432.536 240.89 432.936C240.527 433.336 240.087 433.64 239.57 433.848C239.058 434.056 238.525 434.16 237.97 434.16C237.17 434.16 236.466 433.992 235.858 433.656C235.255 433.315 234.783 432.829 234.442 432.2C234.106 431.571 233.938 430.821 233.938 429.952C233.938 429.104 234.093 428.352 234.402 427.696C234.711 427.035 235.157 426.515 235.738 426.136C236.325 425.757 237.029 425.568 237.85 425.568C238.666 425.568 239.351 425.741 239.906 426.088C240.466 426.435 240.887 426.92 241.17 427.544C241.458 428.163 241.602 428.888 241.602 429.72V430.312H235.882ZM235.882 429.104H239.762C239.762 428.704 239.693 428.344 239.554 428.024C239.415 427.699 239.202 427.443 238.914 427.256C238.631 427.064 238.274 426.968 237.842 426.968C237.415 426.968 237.055 427.072 236.762 427.28C236.469 427.488 236.247 427.757 236.098 428.088C235.949 428.413 235.877 428.752 235.882 429.104ZM243.417 434V425.728H245.313V426.912C245.553 426.549 245.878 426.235 246.289 425.968C246.705 425.701 247.233 425.568 247.873 425.568C248.166 425.568 248.462 425.619 248.761 425.72C249.065 425.821 249.345 425.971 249.601 426.168C249.862 426.365 250.07 426.611 250.225 426.904C250.486 426.515 250.833 426.195 251.265 425.944C251.702 425.693 252.193 425.568 252.737 425.568C253.035 425.568 253.342 425.616 253.657 425.712C253.977 425.808 254.27 425.968 254.537 426.192C254.803 426.416 255.019 426.723 255.185 427.112C255.35 427.496 255.433 427.979 255.433 428.56V434H253.489V428.792C253.489 428.381 253.417 428.059 253.273 427.824C253.129 427.589 252.942 427.424 252.713 427.328C252.489 427.227 252.249 427.176 251.993 427.176C251.763 427.176 251.523 427.221 251.273 427.312C251.027 427.403 250.817 427.552 250.641 427.76C250.47 427.968 250.385 428.248 250.385 428.6V434H248.441V428.48C248.441 428.192 248.366 427.952 248.217 427.76C248.067 427.568 247.878 427.424 247.649 427.328C247.425 427.227 247.195 427.176 246.961 427.176C246.721 427.176 246.475 427.227 246.225 427.328C245.979 427.429 245.774 427.584 245.609 427.792C245.443 428 245.361 428.269 245.361 428.6V434H243.417ZM265.929 425.728V427.104H264.065V434H262.121V427.104H260.489V425.728H262.121V424.496C262.121 423.835 262.302 423.325 262.665 422.968C263.033 422.611 263.564 422.432 264.257 422.432H266.001L266.009 423.76H264.857C264.542 423.76 264.326 423.843 264.209 424.008C264.092 424.168 264.033 424.421 264.033 424.768V425.728H265.929ZM270.864 434.16C270.075 434.16 269.387 433.992 268.8 433.656C268.213 433.315 267.757 432.827 267.432 432.192C267.112 431.557 266.952 430.795 266.952 429.904C266.952 429.04 267.107 428.283 267.416 427.632C267.731 426.981 268.181 426.475 268.768 426.112C269.355 425.749 270.056 425.568 270.872 425.568C271.661 425.568 272.347 425.741 272.928 426.088C273.509 426.435 273.957 426.931 274.272 427.576C274.592 428.221 274.752 428.997 274.752 429.904C274.752 430.741 274.6 431.48 274.296 432.12C273.997 432.755 273.557 433.253 272.976 433.616C272.4 433.979 271.696 434.16 270.864 434.16ZM270.872 432.68C271.32 432.68 271.688 432.557 271.976 432.312C272.269 432.067 272.485 431.731 272.624 431.304C272.768 430.877 272.84 430.392 272.84 429.848C272.84 429.341 272.776 428.875 272.648 428.448C272.525 428.021 272.317 427.68 272.024 427.424C271.736 427.163 271.352 427.032 270.872 427.032C270.419 427.032 270.043 427.152 269.744 427.392C269.451 427.627 269.229 427.957 269.08 428.384C268.936 428.805 268.864 429.293 268.864 429.848C268.864 430.349 268.928 430.816 269.056 431.248C269.189 431.675 269.403 432.021 269.696 432.288C269.989 432.549 270.381 432.68 270.872 432.68ZM276.479 434V425.728H278.343V427.52C278.476 427.109 278.666 426.76 278.911 426.472C279.162 426.179 279.455 425.955 279.791 425.8C280.127 425.645 280.492 425.568 280.887 425.568C280.983 425.568 281.076 425.573 281.167 425.584C281.258 425.595 281.324 425.613 281.367 425.64V427.504C281.308 427.477 281.231 427.459 281.135 427.448C281.044 427.437 280.964 427.432 280.895 427.432C280.495 427.4 280.14 427.416 279.831 427.48C279.527 427.544 279.268 427.653 279.055 427.808C278.847 427.957 278.69 428.149 278.583 428.384C278.476 428.613 278.423 428.883 278.423 429.192V434H276.479ZM287.379 436.64C286.851 436.64 286.48 436.597 286.267 436.512C286.059 436.432 285.955 436.392 285.955 436.392V435.144L286.787 435.168C287.123 435.184 287.395 435.165 287.603 435.112C287.816 435.059 287.982 434.984 288.099 434.888C288.216 434.797 288.302 434.699 288.355 434.592C288.414 434.491 288.459 434.403 288.491 434.328L288.707 433.72L285.483 425.728H287.427L289.619 431.576L291.811 425.728H293.715L290.307 434.304C290.051 434.928 289.774 435.408 289.475 435.744C289.182 436.085 288.859 436.32 288.507 436.448C288.16 436.576 287.784 436.64 287.379 436.64ZM298.224 434.16C297.434 434.16 296.746 433.992 296.16 433.656C295.573 433.315 295.117 432.827 294.792 432.192C294.472 431.557 294.312 430.795 294.312 429.904C294.312 429.04 294.466 428.283 294.776 427.632C295.09 426.981 295.541 426.475 296.128 426.112C296.714 425.749 297.416 425.568 298.232 425.568C299.021 425.568 299.706 425.741 300.288 426.088C300.869 426.435 301.317 426.931 301.632 427.576C301.952 428.221 302.112 428.997 302.112 429.904C302.112 430.741 301.96 431.48 301.656 432.12C301.357 432.755 300.917 433.253 300.336 433.616C299.76 433.979 299.056 434.16 298.224 434.16ZM298.232 432.68C298.68 432.68 299.048 432.557 299.336 432.312C299.629 432.067 299.845 431.731 299.984 431.304C300.128 430.877 300.2 430.392 300.2 429.848C300.2 429.341 300.136 428.875 300.008 428.448C299.885 428.021 299.677 427.68 299.384 427.424C299.096 427.163 298.712 427.032 298.232 427.032C297.778 427.032 297.402 427.152 297.104 427.392C296.81 427.627 296.589 427.957 296.44 428.384C296.296 428.805 296.224 429.293 296.224 429.848C296.224 430.349 296.288 430.816 296.416 431.248C296.549 431.675 296.762 432.021 297.056 432.288C297.349 432.549 297.741 432.68 298.232 432.68ZM306.769 434.16C306.364 434.16 305.972 434.101 305.593 433.984C305.22 433.861 304.884 433.685 304.585 433.456C304.286 433.221 304.049 432.933 303.873 432.592C303.697 432.251 303.609 431.853 303.609 431.4V425.728H305.561V431.176C305.561 431.624 305.702 431.992 305.985 432.28C306.273 432.568 306.705 432.712 307.281 432.712C307.804 432.712 308.222 432.576 308.537 432.304C308.852 432.027 309.009 431.629 309.009 431.112V425.728H310.945V434H309.449L309.233 432.384C309.132 432.837 308.953 433.195 308.697 433.456C308.446 433.712 308.15 433.893 307.809 434C307.473 434.107 307.126 434.16 306.769 434.16ZM321.429 425.728V427.104H319.565V434H317.621V427.104H315.989V425.728H317.621V424.496C317.621 423.835 317.802 423.325 318.165 422.968C318.533 422.611 319.064 422.432 319.757 422.432H321.501L321.509 423.76H320.357C320.042 423.76 319.826 423.843 319.709 424.008C319.592 424.168 319.533 424.421 319.533 424.768V425.728H321.429ZM326.364 434.16C325.575 434.16 324.887 433.992 324.3 433.656C323.713 433.315 323.257 432.827 322.932 432.192C322.612 431.557 322.452 430.795 322.452 429.904C322.452 429.04 322.607 428.283 322.916 427.632C323.231 426.981 323.681 426.475 324.268 426.112C324.855 425.749 325.556 425.568 326.372 425.568C327.161 425.568 327.847 425.741 328.428 426.088C329.009 426.435 329.457 426.931 329.772 427.576C330.092 428.221 330.252 428.997 330.252 429.904C330.252 430.741 330.1 431.48 329.796 432.12C329.497 432.755 329.057 433.253 328.476 433.616C327.9 433.979 327.196 434.16 326.364 434.16ZM326.372 432.68C326.82 432.68 327.188 432.557 327.476 432.312C327.769 432.067 327.985 431.731 328.124 431.304C328.268 430.877 328.34 430.392 328.34 429.848C328.34 429.341 328.276 428.875 328.148 428.448C328.025 428.021 327.817 427.68 327.524 427.424C327.236 427.163 326.852 427.032 326.372 427.032C325.919 427.032 325.543 427.152 325.244 427.392C324.951 427.627 324.729 427.957 324.58 428.384C324.436 428.805 324.364 429.293 324.364 429.848C324.364 430.349 324.428 430.816 324.556 431.248C324.689 431.675 324.903 432.021 325.196 432.288C325.489 432.549 325.881 432.68 326.372 432.68ZM331.979 434V425.728H333.843V427.52C333.976 427.109 334.166 426.76 334.411 426.472C334.662 426.179 334.955 425.955 335.291 425.8C335.627 425.645 335.992 425.568 336.387 425.568C336.483 425.568 336.576 425.573 336.667 425.584C336.758 425.595 336.824 425.613 336.867 425.64V427.504C336.808 427.477 336.731 427.459 336.635 427.448C336.544 427.437 336.464 427.432 336.395 427.432C335.995 427.4 335.64 427.416 335.331 427.48C335.027 427.544 334.768 427.653 334.555 427.808C334.347 427.957 334.19 428.149 334.083 428.384C333.976 428.613 333.923 428.883 333.923 429.192V434H331.979ZM184.552 453.16C183.762 453.16 183.074 452.992 182.488 452.656C181.901 452.315 181.445 451.827 181.12 451.192C180.8 450.557 180.64 449.795 180.64 448.904C180.64 448.04 180.794 447.283 181.104 446.632C181.418 445.981 181.869 445.475 182.456 445.112C183.042 444.749 183.744 444.568 184.56 444.568C185.349 444.568 186.034 444.741 186.616 445.088C187.197 445.435 187.645 445.931 187.96 446.576C188.28 447.221 188.44 447.997 188.44 448.904C188.44 449.741 188.288 450.48 187.984 451.12C187.685 451.755 187.245 452.253 186.664 452.616C186.088 452.979 185.384 453.16 184.552 453.16ZM184.56 451.68C185.008 451.68 185.376 451.557 185.664 451.312C185.957 451.067 186.173 450.731 186.312 450.304C186.456 449.877 186.528 449.392 186.528 448.848C186.528 448.341 186.464 447.875 186.336 447.448C186.213 447.021 186.005 446.68 185.712 446.424C185.424 446.163 185.04 446.032 184.56 446.032C184.106 446.032 183.73 446.152 183.432 446.392C183.138 446.627 182.917 446.957 182.768 447.384C182.624 447.805 182.552 448.293 182.552 448.848C182.552 449.349 182.616 449.816 182.744 450.248C182.877 450.675 183.09 451.021 183.384 451.288C183.677 451.549 184.069 451.68 184.56 451.68ZM190.167 453V444.728H192.071V445.912C192.199 445.699 192.372 445.493 192.591 445.296C192.815 445.099 193.089 444.939 193.415 444.816C193.74 444.693 194.121 444.632 194.559 444.632C195.071 444.632 195.545 444.733 195.983 444.936C196.425 445.139 196.78 445.456 197.047 445.888C197.319 446.32 197.455 446.877 197.455 447.56V453H195.503V447.792C195.503 447.248 195.353 446.845 195.055 446.584C194.756 446.317 194.38 446.184 193.927 446.184C193.617 446.184 193.324 446.237 193.047 446.344C192.769 446.445 192.543 446.603 192.367 446.816C192.196 447.024 192.111 447.285 192.111 447.6V453H190.167ZM201.07 449.312C201.064 449.781 201.139 450.197 201.294 450.56C201.448 450.923 201.678 451.208 201.982 451.416C202.286 451.619 202.662 451.72 203.11 451.72C203.568 451.72 203.966 451.619 204.302 451.416C204.643 451.208 204.87 450.893 204.982 450.472H206.766C206.67 451.048 206.44 451.536 206.078 451.936C205.715 452.336 205.275 452.64 204.758 452.848C204.246 453.056 203.712 453.16 203.158 453.16C202.358 453.16 201.654 452.992 201.046 452.656C200.443 452.315 199.971 451.829 199.63 451.2C199.294 450.571 199.126 449.821 199.126 448.952C199.126 448.104 199.28 447.352 199.59 446.696C199.899 446.035 200.344 445.515 200.926 445.136C201.512 444.757 202.216 444.568 203.038 444.568C203.854 444.568 204.539 444.741 205.094 445.088C205.654 445.435 206.075 445.92 206.358 446.544C206.646 447.163 206.79 447.888 206.79 448.72V449.312H201.07ZM201.07 448.104H204.95C204.95 447.704 204.88 447.344 204.742 447.024C204.603 446.699 204.39 446.443 204.102 446.256C203.819 446.064 203.462 445.968 203.03 445.968C202.603 445.968 202.243 446.072 201.95 446.28C201.656 446.488 201.435 446.757 201.286 447.088C201.136 447.413 201.064 447.752 201.07 448.104ZM212.057 453V441.112H213.977V445.928C214.11 445.72 214.286 445.52 214.505 445.328C214.724 445.131 214.99 444.971 215.305 444.848C215.625 444.72 216.006 444.656 216.449 444.656C216.977 444.656 217.46 444.757 217.897 444.96C218.334 445.163 218.684 445.456 218.945 445.84C219.206 446.219 219.337 446.672 219.337 447.2V453H217.385V447.528C217.385 447.101 217.233 446.771 216.929 446.536C216.63 446.301 216.252 446.184 215.793 446.184C215.489 446.184 215.198 446.237 214.921 446.344C214.644 446.451 214.42 446.611 214.249 446.824C214.084 447.032 214.001 447.293 214.001 447.608V453H212.057ZM224.849 453.16C224.059 453.16 223.371 452.992 222.785 452.656C222.198 452.315 221.742 451.827 221.417 451.192C221.097 450.557 220.937 449.795 220.937 448.904C220.937 448.04 221.091 447.283 221.401 446.632C221.715 445.981 222.166 445.475 222.753 445.112C223.339 444.749 224.041 444.568 224.857 444.568C225.646 444.568 226.331 444.741 226.913 445.088C227.494 445.435 227.942 445.931 228.257 446.576C228.577 447.221 228.737 447.997 228.737 448.904C228.737 449.741 228.585 450.48 228.281 451.12C227.982 451.755 227.542 452.253 226.961 452.616C226.385 452.979 225.681 453.16 224.849 453.16ZM224.857 451.68C225.305 451.68 225.673 451.557 225.961 451.312C226.254 451.067 226.47 450.731 226.609 450.304C226.753 449.877 226.825 449.392 226.825 448.848C226.825 448.341 226.761 447.875 226.633 447.448C226.51 447.021 226.302 446.68 226.009 446.424C225.721 446.163 225.337 446.032 224.857 446.032C224.403 446.032 224.027 446.152 223.729 446.392C223.435 446.627 223.214 446.957 223.065 447.384C222.921 447.805 222.849 448.293 222.849 448.848C222.849 449.349 222.913 449.816 223.041 450.248C223.174 450.675 223.387 451.021 223.681 451.288C223.974 451.549 224.366 451.68 224.857 451.68ZM233.394 453.16C232.989 453.16 232.597 453.101 232.218 452.984C231.845 452.861 231.509 452.685 231.21 452.456C230.911 452.221 230.674 451.933 230.498 451.592C230.322 451.251 230.234 450.853 230.234 450.4V444.728H232.186V450.176C232.186 450.624 232.327 450.992 232.61 451.28C232.898 451.568 233.33 451.712 233.906 451.712C234.429 451.712 234.847 451.576 235.162 451.304C235.477 451.027 235.634 450.629 235.634 450.112V444.728H237.57V453H236.074L235.858 451.384C235.757 451.837 235.578 452.195 235.322 452.456C235.071 452.712 234.775 452.893 234.434 453C234.098 453.107 233.751 453.16 233.394 453.16ZM239.729 453V444.728H241.593V446.52C241.726 446.109 241.916 445.76 242.161 445.472C242.412 445.179 242.705 444.955 243.041 444.8C243.377 444.645 243.742 444.568 244.137 444.568C244.233 444.568 244.326 444.573 244.417 444.584C244.508 444.595 244.574 444.613 244.617 444.64V446.504C244.558 446.477 244.481 446.459 244.385 446.448C244.294 446.437 244.214 446.432 244.145 446.432C243.745 446.4 243.39 446.416 243.081 446.48C242.777 446.544 242.518 446.653 242.305 446.808C242.097 446.957 241.94 447.149 241.833 447.384C241.726 447.613 241.673 447.883 241.673 448.192V453H239.729ZM244.832 453V450.76H247.032V453H244.832Z" fill="#4A4A4A"/>
<rect x="147.5" y="514" width="133" height="42" rx="3.5" fill="#3E3E3E"/>
<path d="M177.904 528.932L173.912 540.5H171.264L167.304 528.932H169.536L172.592 537.788L175.672 528.932H177.904ZM181.555 532.228V540.5H179.323V532.228H181.555ZM181.579 528.94V531.044H179.307V528.94H181.579ZM185.592 536.9C185.587 537.321 185.653 537.689 185.792 538.004C185.931 538.313 186.131 538.553 186.392 538.724C186.659 538.889 186.979 538.972 187.352 538.972C187.752 538.972 188.101 538.887 188.4 538.716C188.704 538.545 188.915 538.265 189.032 537.876H191.136C191.045 538.463 190.811 538.964 190.432 539.38C190.059 539.796 189.605 540.113 189.072 540.332C188.539 540.551 187.984 540.66 187.408 540.66C186.592 540.66 185.872 540.489 185.248 540.148C184.629 539.801 184.147 539.313 183.8 538.684C183.453 538.055 183.28 537.313 183.28 536.46C183.28 535.633 183.437 534.889 183.752 534.228C184.067 533.561 184.523 533.036 185.12 532.652C185.723 532.263 186.445 532.068 187.288 532.068C188.131 532.068 188.837 532.247 189.408 532.604C189.984 532.956 190.416 533.449 190.704 534.084C190.997 534.713 191.144 535.441 191.144 536.268V536.9H185.592ZM185.584 535.508H188.96C188.96 535.177 188.899 534.873 188.776 534.596C188.653 534.319 188.467 534.1 188.216 533.94C187.971 533.78 187.661 533.7 187.288 533.7C186.925 533.7 186.616 533.788 186.36 533.964C186.109 534.135 185.917 534.359 185.784 534.636C185.651 534.913 185.584 535.204 185.584 535.508ZM203.83 532.228L201.11 540.5H199.254L197.71 535.492L196.174 540.5H194.366L191.686 532.228H193.75L195.334 537.356H195.398L196.918 532.228H198.582L200.118 537.356H200.182L201.718 532.228H203.83ZM208.655 540.5V528.932H212.847C214.362 528.932 215.485 529.193 216.215 529.716C216.951 530.233 217.319 530.983 217.319 531.964C217.319 532.54 217.173 533.041 216.879 533.468C216.586 533.889 216.063 534.257 215.311 534.572C215.797 534.695 216.189 534.86 216.487 535.068C216.786 535.276 217.015 535.508 217.175 535.764C217.335 536.015 217.445 536.279 217.503 536.556C217.562 536.828 217.591 537.097 217.591 537.364C217.591 538.431 217.229 539.22 216.503 539.732C215.778 540.244 214.623 540.5 213.039 540.5H208.655ZM210.983 538.692H213.087C213.791 538.692 214.322 538.551 214.679 538.268C215.042 537.985 215.223 537.607 215.223 537.132C215.223 536.791 215.135 536.505 214.959 536.276C214.783 536.041 214.543 535.865 214.239 535.748C213.941 535.631 213.599 535.572 213.215 535.572H210.983V538.692ZM210.983 533.716H213.215C213.455 533.716 213.685 533.689 213.903 533.636C214.127 533.577 214.325 533.489 214.495 533.372C214.671 533.255 214.81 533.105 214.911 532.924C215.013 532.737 215.063 532.519 215.063 532.268C215.063 531.767 214.874 531.388 214.495 531.132C214.122 530.871 213.642 530.74 213.055 530.74H210.983V533.716ZM221.713 540.66C221.185 540.66 220.71 540.561 220.289 540.364C219.867 540.167 219.534 539.881 219.289 539.508C219.043 539.129 218.921 538.671 218.921 538.132C218.921 537.225 219.259 536.537 219.937 536.068C220.614 535.593 221.683 535.348 223.145 535.332L224.177 535.316V534.82C224.177 534.441 224.065 534.151 223.841 533.948C223.622 533.74 223.281 533.639 222.817 533.644C222.475 533.649 222.15 533.729 221.841 533.884C221.537 534.039 221.329 534.308 221.217 534.692H219.273C219.305 534.095 219.478 533.604 219.793 533.22C220.107 532.831 220.534 532.543 221.073 532.356C221.617 532.164 222.233 532.068 222.921 532.068C223.769 532.068 224.449 532.175 224.961 532.388C225.473 532.596 225.843 532.897 226.073 533.292C226.302 533.681 226.417 534.145 226.417 534.684V540.5H224.465L224.273 539.076C223.99 539.673 223.635 540.087 223.209 540.316C222.787 540.545 222.289 540.66 221.713 540.66ZM222.497 539.124C222.71 539.124 222.915 539.087 223.113 539.012C223.315 538.932 223.494 538.828 223.649 538.7C223.809 538.567 223.937 538.417 224.033 538.252C224.129 538.087 224.177 537.916 224.177 537.74V536.516L223.337 536.532C222.947 536.537 222.585 536.585 222.249 536.676C221.913 536.761 221.641 536.903 221.433 537.1C221.23 537.297 221.129 537.564 221.129 537.9C221.129 538.284 221.262 538.585 221.529 538.804C221.795 539.017 222.118 539.124 222.497 539.124ZM231.663 540.66C231.087 540.66 230.532 540.567 229.999 540.38C229.465 540.188 229.015 539.889 228.647 539.484C228.279 539.073 228.044 538.543 227.943 537.892H229.967C230.036 538.185 230.161 538.417 230.343 538.588C230.529 538.759 230.74 538.881 230.975 538.956C231.209 539.025 231.433 539.06 231.647 539.06C232.095 539.06 232.455 538.991 232.727 538.852C233.004 538.708 233.143 538.489 233.143 538.196C233.143 537.972 233.06 537.793 232.895 537.66C232.735 537.527 232.468 537.425 232.095 537.356L230.639 537.052C229.908 536.897 229.321 536.636 228.879 536.268C228.436 535.895 228.209 535.367 228.199 534.684C228.199 534.188 228.329 533.743 228.591 533.348C228.857 532.953 229.249 532.641 229.767 532.412C230.284 532.183 230.919 532.068 231.671 532.068C232.689 532.068 233.503 532.292 234.111 532.74C234.724 533.188 235.036 533.82 235.047 534.636H233.095C233.036 534.316 232.876 534.071 232.615 533.9C232.359 533.724 232.036 533.636 231.647 533.636C231.241 533.636 230.908 533.708 230.647 533.852C230.385 533.996 230.255 534.215 230.255 534.508C230.255 534.727 230.361 534.9 230.575 535.028C230.788 535.151 231.119 535.257 231.567 535.348L232.911 535.652C233.375 535.764 233.751 535.919 234.039 536.116C234.332 536.308 234.559 536.519 234.719 536.748C234.879 536.977 234.988 537.209 235.047 537.444C235.111 537.673 235.143 537.881 235.143 538.068C235.143 538.617 234.996 539.087 234.703 539.476C234.409 539.86 234.001 540.153 233.479 540.356C232.956 540.559 232.351 540.66 231.663 540.66ZM244.773 540.5H242.445L240.213 536.932L239.117 538.1V540.5H236.781V528.612H239.117V535.66L242.157 532.228H244.669L241.661 535.524L244.773 540.5ZM247.576 536.9C247.571 537.321 247.638 537.689 247.776 538.004C247.915 538.313 248.115 538.553 248.376 538.724C248.643 538.889 248.963 538.972 249.336 538.972C249.736 538.972 250.086 538.887 250.384 538.716C250.688 538.545 250.899 538.265 251.016 537.876H253.12C253.03 538.463 252.795 538.964 252.416 539.38C252.043 539.796 251.59 540.113 251.056 540.332C250.523 540.551 249.968 540.66 249.392 540.66C248.576 540.66 247.856 540.489 247.232 540.148C246.614 539.801 246.131 539.313 245.784 538.684C245.438 538.055 245.264 537.313 245.264 536.46C245.264 535.633 245.422 534.889 245.736 534.228C246.051 533.561 246.507 533.036 247.104 532.652C247.707 532.263 248.43 532.068 249.272 532.068C250.115 532.068 250.822 532.247 251.392 532.604C251.968 532.956 252.4 533.449 252.688 534.084C252.982 534.713 253.128 535.441 253.128 536.268V536.9H247.576ZM247.568 535.508H250.944C250.944 535.177 250.883 534.873 250.76 534.596C250.638 534.319 250.451 534.1 250.2 533.94C249.955 533.78 249.646 533.7 249.272 533.7C248.91 533.7 248.6 533.788 248.344 533.964C248.094 534.135 247.902 534.359 247.768 534.636C247.635 534.913 247.568 535.204 247.568 535.508ZM259.524 533.852H257.684L257.7 538.26C257.7 538.463 257.724 538.615 257.772 538.716C257.826 538.812 257.906 538.876 258.012 538.908C258.124 538.935 258.266 538.948 258.436 538.948H259.548V540.388C259.442 540.436 259.274 540.481 259.044 540.524C258.82 540.567 258.506 540.588 258.1 540.588C257.375 540.588 256.812 540.495 256.412 540.308C256.018 540.121 255.743 539.86 255.588 539.524C255.434 539.188 255.356 538.799 255.356 538.356V533.852H254.012V532.228H255.436L256.02 529.732H257.684V532.22H259.524V533.852Z" fill="#F8F2E9"/>
<rect x="147.5" y="514" width="133" height="42" rx="3.5" stroke="#3E3E3E"/>
<defs>
<filter id="filter0_d_520_1278" x="61.5" y="820.5" width="311" height="76.2864" filterUnits="userSpaceOnUse" color-interpolation-filters="sRGB">
<feFlood flood-opacity="0" result="BackgroundImageFix"/>
<feColorMatrix in="SourceAlpha" type="matrix" values="0 0 0 0 0 0 0 0 0 0 0 0 0 0 0 0 0 0 127 0" result="hardAlpha"/>
<feOffset dx="3" dy="4"/>
<feGaussianBlur stdDeviation="3.75"/>
<feComposite in2="hardAlpha" operator="out"/>
<feColorMatrix type="matrix" values="0 0 0 0 0.529412 0 0 0 0 0.462745 0 0 0 0 0.341176 0 0 0 0.3 0"/>
<feBlend mode="normal" in2="BackgroundImageFix" result="effect1_dropShadow_520_1278"/>
<feBlend mode="normal" in="SourceGraphic" in2="effect1_dropShadow_520_1278" result="shape"/>
</filter>
<clipPath id="clip0_520_1278">
<rect width="119" height="119" fill="white" transform="translate(155 22)"/>
</clipPath>
</defs>
</svg>
