<svg width="428" height="926" viewBox="0 0 428 926" fill="none" xmlns="http://www.w3.org/2000/svg">
<rect width="428" height="926" fill="#F8F2E9"/>
<g clip-path="url(#clip0_520_1984)">
<path d="M240.646 92.0176C240.549 91.6316 240.501 91.2208 240.501 90.7849C240.501 89.1541 241.237 87.7352 242.71 86.5279C244.183 85.3207 247.195 83.8385 251.746 82.0813V80.735C251.746 79.3191 251.565 78.3046 251.205 77.6915C250.845 77.0784 250.254 76.7719 249.432 76.7719C248.762 76.7719 248.206 76.9709 247.764 77.3692C247.321 77.7674 247.1 78.2635 247.1 78.8578C247.1 79.1737 247.113 79.5435 247.138 79.967C247.163 80.3905 247.176 80.6592 247.176 80.7729C247.176 81.6957 246.92 82.4384 246.408 83.001C245.896 83.5635 245.216 83.8447 244.369 83.8447C243.598 83.8447 242.979 83.6014 242.511 83.1147C242.043 82.628 241.809 81.9864 241.809 81.1901C241.809 79.4708 242.625 78.0455 244.256 76.9141C245.886 75.7826 247.985 75.217 250.551 75.217C251.992 75.217 253.297 75.4003 254.467 75.7669C255.636 76.1336 256.594 76.6644 257.339 77.3597C257.946 77.9286 258.376 78.5923 258.629 79.3507C258.882 80.1092 259.008 81.2532 259.008 82.7829V88.1871C259.008 89.6914 259.125 90.7597 259.359 91.3916C259.593 92.0237 259.969 92.3398 260.487 92.3398C260.601 92.3398 260.715 92.3146 260.828 92.264C260.942 92.2133 261.062 92.1376 261.189 92.0363V93.2689C260.683 93.9136 260.029 94.413 259.226 94.7669C258.423 95.1209 257.535 95.2979 256.562 95.2979C255.45 95.2979 254.517 95.0388 253.765 94.5205C253.013 94.0021 252.46 93.2374 252.106 92.2261C251.145 93.3259 250.137 94.1444 249.081 94.6816C248.026 95.2188 246.91 95.4875 245.735 95.4875C244.18 95.4875 242.919 95.0482 241.952 94.1697C241.629 93.8765 241.36 93.5555 241.145 93.2066C240.384 93.8039 239.157 94.494 238.538 94.7669C237.736 95.1209 236.848 95.2979 235.874 95.2979C234.762 95.2979 233.829 95.0388 233.077 94.5205C232.325 94.0021 231.772 93.2374 231.418 92.2261C230.457 93.3259 229.449 94.1444 228.394 94.6816C227.338 95.2188 226.223 95.4875 225.047 95.4875C223.492 95.4875 222.231 95.0482 221.264 94.1697C220.297 93.2911 219.813 92.1628 219.813 90.7849C219.813 89.1541 220.55 87.7352 222.022 86.5279C223.495 85.3207 226.507 83.8385 231.058 82.0813V80.735C231.058 79.3191 230.878 78.3046 230.517 77.6915C230.157 77.0784 229.566 76.7719 228.744 76.7719C228.075 76.7719 227.518 76.9709 227.076 77.3692C226.633 77.7674 226.412 78.2635 226.412 78.8578C226.412 79.1737 226.425 79.5435 226.45 79.967C226.475 80.3905 226.488 80.6592 226.488 80.7729C226.488 81.6957 226.232 82.4384 225.72 83.001C225.208 83.5635 224.529 83.8447 223.682 83.8447C222.91 83.8447 222.291 83.6014 221.823 83.1147C221.356 82.628 221.122 81.9864 221.122 81.1901C221.122 79.4708 221.937 78.0455 223.568 76.9141C225.199 75.7826 227.297 75.217 229.863 75.217C231.304 75.217 232.61 75.4003 233.779 75.7669C234.948 76.1336 235.906 76.6644 236.652 77.3597C237.258 77.9286 237.688 78.5923 237.941 79.3507C238.194 80.1092 238.32 81.2532 238.32 82.7829V88.1871C238.32 89.6914 238.437 90.7597 238.671 91.3916C238.905 92.0237 239.281 92.3398 239.799 92.3398C239.913 92.3398 240.027 92.3146 240.141 92.264C240.194 92.2403 240.414 92.1343 240.646 92.0176ZM182.778 94.6722L178.246 85.6651V90.8228C178.246 91.8215 178.423 92.5326 178.777 92.9561C179.131 93.3796 179.731 93.5913 180.578 93.5913H180.692V94.6722H168.499V93.5913H168.613C169.448 93.5913 170.045 93.3796 170.405 92.9561C170.765 92.5326 170.946 91.8215 170.946 90.8228V75.2548C170.946 74.6734 170.879 74.2531 170.746 73.994C170.614 73.7348 170.313 73.4156 169.846 73.0364L167.798 71.3677C168.683 71.1022 169.915 70.6788 171.495 70.0972C173.076 69.5157 175.326 68.6561 178.246 67.5183V84.6222C179.902 83.3454 181.15 82.1919 181.991 81.1616C182.832 80.1314 183.252 79.237 183.252 78.4785C183.252 78.0739 183.097 77.7516 182.787 77.5115C182.478 77.2712 182.051 77.1511 181.507 77.1511H181.394V76.0703H191.254V77.1511H190.932C189.63 77.1511 188.403 77.4925 187.253 78.175C186.103 78.8578 184.921 79.9448 183.707 81.4366L189.149 90.7469C189.743 91.7836 190.319 92.5042 190.875 92.9087C191.429 93.3119 192.122 93.5393 192.953 93.5909C193.752 93.5796 194.326 93.368 194.677 92.9561C195.037 92.5326 195.217 91.8215 195.217 90.8228V82.7829C195.217 82.2014 195.154 81.781 195.027 81.5219C194.901 81.2628 194.604 80.9499 194.136 80.5833L192.069 78.9146C193.574 78.4343 195.198 77.8717 196.943 77.227C198.687 76.5823 200.545 75.8617 202.518 75.0652V90.8228C202.518 91.7962 202.691 92.4946 203.039 92.9181C203.387 93.3416 203.965 93.566 204.774 93.5913H204.811C205.645 93.5913 206.243 93.3796 206.603 92.9561C206.963 92.5326 207.143 91.8215 207.143 90.8228V83.6741C207.143 83.0673 207.067 82.6185 206.916 82.3278C206.764 82.0371 206.48 81.7526 206.063 81.4745L203.692 79.8058C204.931 79.376 206.36 78.7851 207.978 78.0329C209.596 77.2807 211.58 76.2915 213.932 75.0652V78.4027C214.564 77.3407 215.25 76.5444 215.989 76.0134C216.729 75.4825 217.522 75.217 218.369 75.217C219.304 75.217 220.057 75.4951 220.625 76.0513C221.194 76.6075 221.479 77.3407 221.479 78.2509C221.479 79.0474 221.242 79.6857 220.768 80.1661C220.294 80.6465 219.665 80.8866 218.881 80.8866C218.173 80.8866 217.494 80.6023 216.842 80.0333C216.191 79.4645 215.777 79.1801 215.6 79.1801C215.183 79.1801 214.886 79.4582 214.709 80.0144C214.532 80.5707 214.444 81.563 214.444 82.9915V90.8228C214.444 91.8089 214.643 92.5168 215.041 92.9465C215.439 93.3764 216.093 93.5913 217.004 93.5913H217.117V94.6722H182.778ZM251.746 83.4845C250.608 83.9396 249.742 84.657 249.148 85.6367C248.554 86.6164 248.257 87.8142 248.257 89.23C248.257 90.0391 248.418 90.6838 248.74 91.1642C249.062 91.6445 249.483 91.8847 250.001 91.8847C250.671 91.8847 251.129 91.6192 251.376 91.0883C251.622 90.5573 251.746 89.23 251.746 87.1063V83.4845ZM231.058 83.4845C229.92 83.9396 229.054 84.657 228.46 85.6367C227.866 86.6164 227.569 87.8142 227.569 89.23C227.569 90.0391 227.73 90.6838 228.052 91.1642C228.375 91.6445 228.795 91.8847 229.313 91.8847C229.983 91.8847 230.442 91.6192 230.688 91.0883C230.935 90.5573 231.058 89.23 231.058 87.1063V83.4845ZM194.705 71.3297C194.705 70.2679 195.075 69.3671 195.814 68.6277C196.554 67.8881 197.455 67.5183 198.517 67.5183C199.591 67.5183 200.495 67.8881 201.228 68.6277C201.961 69.3671 202.328 70.2679 202.328 71.3297C202.328 72.3917 201.958 73.2923 201.219 74.0319C200.479 74.7713 199.578 75.1411 198.517 75.1411C197.455 75.1411 196.554 74.7745 195.814 74.0413C195.075 73.3081 194.705 72.4043 194.705 71.3297Z" fill="#3E3E3E"/>
</g>
<g filter="url(#filter0_d_520_1984)">
<rect x="82" y="824" width="264" height="56" rx="28" fill="#F8F2E9" shape-rendering="crispEdges"/>
<path d="M121 862V856C121 855.735 120.895 855.48 120.707 855.293C120.52 855.105 120.265 855 120 855H116C115.735 855 115.48 855.105 115.293 855.293C115.105 855.48 115 855.735 115 856V862C115 862.265 114.895 862.52 114.707 862.707C114.52 862.895 114.265 863 114 863H108C107.735 863 107.48 862.895 107.293 862.707C107.105 862.52 107 862.265 107 862V850.438C107.002 850.299 107.032 850.163 107.088 850.036C107.144 849.909 107.224 849.795 107.325 849.7L117.325 840.613C117.509 840.444 117.75 840.35 118 840.35C118.25 840.35 118.491 840.444 118.675 840.613L128.675 849.7C128.776 849.795 128.856 849.909 128.912 850.036C128.968 850.163 128.998 850.299 129 850.438V862C129 862.265 128.895 862.52 128.707 862.707C128.52 862.895 128.265 863 128 863H122C121.735 863 121.48 862.895 121.293 862.707C121.105 862.52 121 862.265 121 862Z" stroke="#4A4A4A" stroke-width="2" stroke-linecap="round" stroke-linejoin="round"/>
<path d="M178 845C178 843.939 178.421 842.922 179.172 842.172C179.922 841.421 180.939 841 182 841C183.061 841 184.078 841.421 184.828 842.172C185.579 842.922 186 843.939 186 845L168.4 858.2C168.232 858.326 168.108 858.501 168.045 858.702C167.983 858.902 167.985 859.117 168.051 859.316C168.118 859.515 168.245 859.689 168.415 859.811C168.586 859.934 168.79 860 169 860H195C195.21 860 195.414 859.934 195.585 859.811C195.755 859.689 195.882 859.515 195.949 859.316C196.015 859.117 196.017 858.902 195.955 858.702C195.892 858.501 195.768 858.326 195.6 858.2L182 848" stroke="#4A4A4A" stroke-width="2" stroke-linecap="round" stroke-linejoin="round"/>
<path d="M246 856C250.418 856 254 852.418 254 848C254 843.582 250.418 840 246 840C241.582 840 238 843.582 238 848C238 852.418 241.582 856 246 856Z" fill="#4A4A4A"/>
<path d="M234 863C235.216 860.264 236.965 857.991 239.072 856.412C241.178 854.832 243.568 854 246 854C248.432 854 250.822 854.832 252.928 856.412C255.035 857.991 256.784 860.264 258 863" fill="#4A4A4A"/>
<path d="M305.955 841.143L306.938 838.606C307.103 838.176 307.395 837.807 307.774 837.546C308.154 837.285 308.603 837.144 309.063 837.143H310.938C311.398 837.144 311.847 837.285 312.227 837.546C312.606 837.807 312.897 838.176 313.063 838.606L314.046 841.143L317.383 843.063L320.08 842.651C320.529 842.59 320.987 842.664 321.394 842.864C321.801 843.063 322.139 843.379 322.366 843.771L323.28 845.371C323.515 845.77 323.623 846.23 323.59 846.691C323.557 847.152 323.386 847.593 323.098 847.954L321.429 850.08V853.92L323.143 856.046C323.431 856.407 323.603 856.848 323.636 857.309C323.668 857.77 323.56 858.23 323.326 858.629L322.412 860.229C322.185 860.621 321.846 860.937 321.439 861.136C321.032 861.336 320.575 861.409 320.126 861.349L317.429 860.937L314.092 862.857L313.109 865.394C312.943 865.824 312.652 866.193 312.272 866.454C311.893 866.715 311.444 866.856 310.983 866.857H309.063C308.603 866.856 308.154 866.715 307.774 866.454C307.395 866.193 307.103 865.824 306.938 865.394L305.955 862.857L302.618 860.937L299.92 861.349C299.471 861.409 299.014 861.336 298.607 861.136C298.2 860.937 297.862 860.621 297.635 860.229L296.72 858.629C296.486 858.23 296.378 857.77 296.411 857.309C296.443 856.848 296.615 856.407 296.903 856.046L298.572 853.92V850.08L296.858 847.954C296.569 847.593 296.398 847.152 296.365 846.691C296.332 846.23 296.44 845.77 296.675 845.371L297.589 843.771C297.816 843.379 298.154 843.063 298.561 842.864C298.968 842.664 299.426 842.59 299.875 842.651L302.572 843.063L305.955 841.143ZM305.429 852C305.429 852.904 305.697 853.788 306.199 854.54C306.702 855.291 307.416 855.877 308.251 856.223C309.086 856.569 310.005 856.66 310.892 856.484C311.779 856.307 312.594 855.872 313.233 855.232C313.872 854.593 314.308 853.779 314.484 852.892C314.66 852.005 314.57 851.086 314.224 850.251C313.878 849.415 313.292 848.701 312.54 848.199C311.788 847.697 310.905 847.429 310 847.429C308.788 847.429 307.625 847.91 306.768 848.767C305.911 849.625 305.429 850.788 305.429 852V852Z" stroke="#3E3E3E" stroke-width="2" stroke-linecap="round" stroke-linejoin="round"/>
</g>
<path d="M381 116H359C358.448 116 358 116.448 358 117V135C358 135.552 358.448 136 359 136H381C381.552 136 382 135.552 382 135V117C382 116.448 381.552 116 381 116Z" stroke="#3E3E3E" stroke-width="2" stroke-linecap="round" stroke-linejoin="round"/>
<path d="M375 121C375 122.326 374.473 123.598 373.536 124.536C372.598 125.473 371.326 126 370 126C368.674 126 367.402 125.473 366.464 124.536C365.527 123.598 365 122.326 365 121" stroke="#3E3E3E" stroke-width="2" stroke-linecap="round" stroke-linejoin="round"/>
<path d="M56.6188 195.238L51 189.619L56.6188 184" stroke="#3E3E3E" stroke-width="2.65192" stroke-linecap="round" stroke-linejoin="round"/>
<path d="M51 189.619H64.2596" stroke="#3E3E3E" stroke-width="2.65192" stroke-linecap="round" stroke-linejoin="round"/>
<path d="M155.84 273H152.81L150.46 267.43H147.53V273H144.62V258.54H150.72C151.873 258.54 152.817 258.723 153.55 259.09C154.283 259.457 154.823 259.967 155.17 260.62C155.517 261.267 155.69 262.013 155.69 262.86C155.69 263.62 155.57 264.263 155.33 264.79C155.097 265.31 154.787 265.743 154.4 266.09C154.02 266.437 153.603 266.72 153.15 266.94L155.84 273ZM150.2 265.18C150.98 265.18 151.597 264.97 152.05 264.55C152.51 264.13 152.74 263.59 152.74 262.93C152.74 262.263 152.52 261.737 152.08 261.35C151.64 260.963 151.083 260.77 150.41 260.77H147.53V265.18H150.2ZM160.205 268.5C160.198 269.027 160.281 269.487 160.455 269.88C160.628 270.267 160.878 270.567 161.205 270.78C161.538 270.987 161.938 271.09 162.405 271.09C162.905 271.09 163.341 270.983 163.715 270.77C164.095 270.557 164.358 270.207 164.505 269.72H167.135C167.021 270.453 166.728 271.08 166.255 271.6C165.788 272.12 165.221 272.517 164.555 272.79C163.888 273.063 163.195 273.2 162.475 273.2C161.455 273.2 160.555 272.987 159.775 272.56C159.001 272.127 158.398 271.517 157.965 270.73C157.531 269.943 157.315 269.017 157.315 267.95C157.315 266.917 157.511 265.987 157.905 265.16C158.298 264.327 158.868 263.67 159.615 263.19C160.368 262.703 161.271 262.46 162.325 262.46C163.378 262.46 164.261 262.683 164.975 263.13C165.695 263.57 166.235 264.187 166.595 264.98C166.961 265.767 167.145 266.677 167.145 267.71V268.5H160.205ZM160.195 266.76H164.415C164.415 266.347 164.338 265.967 164.185 265.62C164.031 265.273 163.798 265 163.485 264.8C163.178 264.6 162.791 264.5 162.325 264.5C161.871 264.5 161.485 264.61 161.165 264.83C160.851 265.043 160.611 265.323 160.445 265.67C160.278 266.017 160.195 266.38 160.195 266.76ZM175.189 262.66V264.69H173.009V273H170.089V264.69H168.179V262.66H170.089V261.17C170.089 260.337 170.332 259.69 170.819 259.23C171.312 258.77 172.009 258.54 172.909 258.54H175.279L175.289 260.48H173.929C173.556 260.48 173.299 260.573 173.159 260.76C173.026 260.94 172.959 261.24 172.959 261.66V262.66H175.189ZM179.248 268.5C179.241 269.027 179.324 269.487 179.498 269.88C179.671 270.267 179.921 270.567 180.248 270.78C180.581 270.987 180.981 271.09 181.448 271.09C181.948 271.09 182.384 270.983 182.758 270.77C183.138 270.557 183.401 270.207 183.548 269.72H186.178C186.064 270.453 185.771 271.08 185.298 271.6C184.831 272.12 184.264 272.517 183.598 272.79C182.931 273.063 182.238 273.2 181.518 273.2C180.498 273.2 179.598 272.987 178.818 272.56C178.044 272.127 177.441 271.517 177.008 270.73C176.574 269.943 176.358 269.017 176.358 267.95C176.358 266.917 176.554 265.987 176.948 265.16C177.341 264.327 177.911 263.67 178.658 263.19C179.411 262.703 180.314 262.46 181.368 262.46C182.421 262.46 183.304 262.683 184.018 263.13C184.738 263.57 185.278 264.187 185.638 264.98C186.004 265.767 186.188 266.677 186.188 267.71V268.5H179.248ZM179.238 266.76H183.458C183.458 266.347 183.381 265.967 183.228 265.62C183.074 265.273 182.841 265 182.528 264.8C182.221 264.6 181.834 264.5 181.368 264.5C180.914 264.5 180.528 264.61 180.208 264.83C179.894 265.043 179.654 265.323 179.488 265.67C179.321 266.017 179.238 266.38 179.238 266.76ZM188.215 273V262.66H191.025V265.11C191.192 264.583 191.425 264.123 191.725 263.73C192.032 263.33 192.402 263.02 192.835 262.8C193.268 262.573 193.758 262.46 194.305 262.46C194.398 262.46 194.485 262.467 194.565 262.48C194.652 262.487 194.715 262.5 194.755 262.52V265.3C194.695 265.273 194.622 265.257 194.535 265.25C194.455 265.243 194.382 265.237 194.315 265.23C193.742 265.183 193.252 265.2 192.845 265.28C192.438 265.36 192.108 265.497 191.855 265.69C191.602 265.883 191.418 266.12 191.305 266.4C191.192 266.68 191.135 266.993 191.135 267.34V273H188.215ZM196.34 273V262.66H199.15V265.11C199.317 264.583 199.55 264.123 199.85 263.73C200.157 263.33 200.527 263.02 200.96 262.8C201.393 262.573 201.883 262.46 202.43 262.46C202.523 262.46 202.61 262.467 202.69 262.48C202.777 262.487 202.84 262.5 202.88 262.52V265.3C202.82 265.273 202.747 265.257 202.66 265.25C202.58 265.243 202.507 265.237 202.44 265.23C201.867 265.183 201.377 265.2 200.97 265.28C200.563 265.36 200.233 265.497 199.98 265.69C199.727 265.883 199.543 266.12 199.43 266.4C199.317 266.68 199.26 266.993 199.26 267.34V273H196.34ZM207.348 273.2C206.688 273.2 206.094 273.077 205.568 272.83C205.041 272.583 204.624 272.227 204.318 271.76C204.011 271.287 203.858 270.713 203.858 270.04C203.858 268.907 204.281 268.047 205.128 267.46C205.974 266.867 207.311 266.56 209.138 266.54L210.428 266.52V265.9C210.428 265.427 210.288 265.063 210.008 264.81C209.734 264.55 209.308 264.423 208.728 264.43C208.301 264.437 207.894 264.537 207.508 264.73C207.128 264.923 206.868 265.26 206.728 265.74H204.298C204.338 264.993 204.554 264.38 204.948 263.9C205.341 263.413 205.874 263.053 206.548 262.82C207.228 262.58 207.998 262.46 208.858 262.46C209.918 262.46 210.768 262.593 211.408 262.86C212.048 263.12 212.511 263.497 212.798 263.99C213.084 264.477 213.228 265.057 213.228 265.73V273H210.788L210.548 271.22C210.194 271.967 209.751 272.483 209.218 272.77C208.691 273.057 208.068 273.2 207.348 273.2ZM208.328 271.28C208.594 271.28 208.851 271.233 209.098 271.14C209.351 271.04 209.574 270.91 209.768 270.75C209.968 270.583 210.128 270.397 210.248 270.19C210.368 269.983 210.428 269.77 210.428 269.55V268.02L209.378 268.04C208.891 268.047 208.438 268.107 208.018 268.22C207.598 268.327 207.258 268.503 206.998 268.75C206.744 268.997 206.618 269.33 206.618 269.75C206.618 270.23 206.784 270.607 207.118 270.88C207.451 271.147 207.854 271.28 208.328 271.28ZM219.113 273.18C218.353 273.18 217.749 273.09 217.303 272.91C216.856 272.73 216.526 272.493 216.313 272.2C216.099 271.9 215.963 271.57 215.903 271.21C215.843 270.843 215.812 270.473 215.812 270.1V258.14H218.673V269.74C218.673 270.12 218.753 270.43 218.913 270.67C219.079 270.903 219.389 271.047 219.842 271.1L220.333 271.13V272.93C220.133 272.997 219.929 273.053 219.723 273.1C219.516 273.153 219.313 273.18 219.113 273.18ZM232.815 258.34C233.901 258.34 234.868 258.56 235.715 259C236.568 259.433 237.255 260.027 237.775 260.78C238.301 261.533 238.611 262.383 238.705 263.33H235.645C235.551 262.83 235.381 262.387 235.135 262C234.888 261.607 234.565 261.3 234.165 261.08C233.765 260.853 233.285 260.74 232.725 260.74C232.051 260.74 231.471 260.903 230.985 261.23C230.498 261.557 230.125 262.083 229.865 262.81C229.605 263.537 229.475 264.497 229.475 265.69C229.475 267.49 229.761 268.793 230.335 269.6C230.915 270.4 231.711 270.8 232.725 270.8C233.285 270.8 233.765 270.673 234.165 270.42C234.565 270.16 234.888 269.82 235.135 269.4C235.381 268.973 235.551 268.507 235.645 268H238.705C238.618 268.687 238.451 269.343 238.205 269.97C237.958 270.59 237.608 271.143 237.155 271.63C236.701 272.117 236.118 272.5 235.405 272.78C234.691 273.06 233.828 273.2 232.815 273.2C231.468 273.2 230.305 272.887 229.325 272.26C228.345 271.633 227.588 270.753 227.055 269.62C226.528 268.487 226.265 267.163 226.265 265.65C226.265 264.13 226.528 262.827 227.055 261.74C227.581 260.647 228.335 259.807 229.315 259.22C230.295 258.633 231.461 258.34 232.815 258.34ZM240.91 273V262.66H243.72V265.11C243.887 264.583 244.12 264.123 244.42 263.73C244.727 263.33 245.097 263.02 245.53 262.8C245.963 262.573 246.453 262.46 247 262.46C247.093 262.46 247.18 262.467 247.26 262.48C247.347 262.487 247.41 262.5 247.45 262.52V265.3C247.39 265.273 247.317 265.257 247.23 265.25C247.15 265.243 247.077 265.237 247.01 265.23C246.437 265.183 245.947 265.2 245.54 265.28C245.133 265.36 244.803 265.497 244.55 265.69C244.297 265.883 244.113 266.12 244 266.4C243.887 266.68 243.83 266.993 243.83 267.34V273H240.91ZM251.396 268.5C251.389 269.027 251.473 269.487 251.646 269.88C251.819 270.267 252.069 270.567 252.396 270.78C252.729 270.987 253.129 271.09 253.596 271.09C254.096 271.09 254.533 270.983 254.906 270.77C255.286 270.557 255.549 270.207 255.696 269.72H258.326C258.213 270.453 257.919 271.08 257.446 271.6C256.979 272.12 256.413 272.517 255.746 272.79C255.079 273.063 254.386 273.2 253.666 273.2C252.646 273.2 251.746 272.987 250.966 272.56C250.193 272.127 249.589 271.517 249.156 270.73C248.723 269.943 248.506 269.017 248.506 267.95C248.506 266.917 248.703 265.987 249.096 265.16C249.489 264.327 250.059 263.67 250.806 263.19C251.559 262.703 252.463 262.46 253.516 262.46C254.569 262.46 255.453 262.683 256.166 263.13C256.886 263.57 257.426 264.187 257.786 264.98C258.153 265.767 258.336 266.677 258.336 267.71V268.5H251.396ZM251.386 266.76H255.606C255.606 266.347 255.529 265.967 255.376 265.62C255.223 265.273 254.989 265 254.676 264.8C254.369 264.6 253.983 264.5 253.516 264.5C253.063 264.5 252.676 264.61 252.356 264.83C252.043 265.043 251.803 265.323 251.636 265.67C251.469 266.017 251.386 266.38 251.386 266.76ZM264.203 273.2C262.817 273.2 261.737 272.723 260.963 271.77C260.19 270.81 259.803 269.477 259.803 267.77C259.803 266.69 259.96 265.753 260.273 264.96C260.587 264.167 261.05 263.553 261.663 263.12C262.277 262.68 263.027 262.46 263.913 262.46C264.287 262.46 264.633 262.503 264.953 262.59C265.28 262.67 265.577 262.783 265.843 262.93C266.11 263.077 266.343 263.247 266.543 263.44C266.743 263.633 266.907 263.84 267.033 264.06V258.14H269.963V273H267.843L267.513 270.88C267.42 271.167 267.29 271.447 267.123 271.72C266.957 271.993 266.743 272.243 266.483 272.47C266.223 272.69 265.903 272.867 265.523 273C265.15 273.133 264.71 273.2 264.203 273.2ZM264.843 271.1C265.577 271.1 266.123 270.843 266.483 270.33C266.85 269.817 267.033 268.95 267.033 267.73C267.027 267.023 266.943 266.437 266.783 265.97C266.623 265.503 266.383 265.157 266.063 264.93C265.75 264.697 265.35 264.58 264.863 264.58C264.23 264.58 263.703 264.823 263.283 265.31C262.863 265.79 262.653 266.597 262.653 267.73C262.653 268.883 262.85 269.733 263.243 270.28C263.637 270.827 264.17 271.1 264.843 271.1ZM275.471 262.66V273H272.681V262.66H275.471ZM275.501 258.55V261.18H272.661V258.55H275.501ZM284.417 264.69H282.117L282.137 270.2C282.137 270.453 282.167 270.643 282.227 270.77C282.294 270.89 282.394 270.97 282.527 271.01C282.667 271.043 282.844 271.06 283.057 271.06H284.447V272.86C284.314 272.92 284.104 272.977 283.817 273.03C283.537 273.083 283.144 273.11 282.637 273.11C281.731 273.11 281.027 272.993 280.527 272.76C280.034 272.527 279.691 272.2 279.497 271.78C279.304 271.36 279.207 270.873 279.207 270.32V264.69H277.527V262.66H279.307L280.037 259.54H282.117V262.65H284.417V264.69Z" fill="#4A4A4A"/>
<path d="M121.008 444.272C121.877 444.272 122.651 444.448 123.328 444.8C124.011 445.147 124.56 445.621 124.976 446.224C125.397 446.827 125.645 447.507 125.72 448.264H123.272C123.197 447.864 123.061 447.509 122.864 447.2C122.667 446.885 122.408 446.64 122.088 446.464C121.768 446.283 121.384 446.192 120.936 446.192C120.397 446.192 119.933 446.323 119.544 446.584C119.155 446.845 118.856 447.267 118.648 447.848C118.44 448.429 118.336 449.197 118.336 450.152C118.336 451.592 118.565 452.635 119.024 453.28C119.488 453.92 120.125 454.24 120.936 454.24C121.384 454.24 121.768 454.139 122.088 453.936C122.408 453.728 122.667 453.456 122.864 453.12C123.061 452.779 123.197 452.405 123.272 452H125.72C125.651 452.549 125.517 453.075 125.32 453.576C125.123 454.072 124.843 454.515 124.48 454.904C124.117 455.293 123.651 455.6 123.08 455.824C122.509 456.048 121.819 456.16 121.008 456.16C119.931 456.16 119 455.909 118.216 455.408C117.432 454.907 116.827 454.203 116.4 453.296C115.979 452.389 115.768 451.331 115.768 450.12C115.768 448.904 115.979 447.861 116.4 446.992C116.821 446.117 117.424 445.445 118.208 444.976C118.992 444.507 119.925 444.272 121.008 444.272ZM127.484 456V447.728H129.732V449.688C129.866 449.267 130.052 448.899 130.292 448.584C130.538 448.264 130.834 448.016 131.18 447.84C131.527 447.659 131.919 447.568 132.356 447.568C132.431 447.568 132.5 447.573 132.564 447.584C132.634 447.589 132.684 447.6 132.716 447.616V449.84C132.668 449.819 132.61 449.805 132.54 449.8C132.476 449.795 132.418 449.789 132.364 449.784C131.906 449.747 131.514 449.76 131.188 449.824C130.863 449.888 130.599 449.997 130.396 450.152C130.194 450.307 130.047 450.496 129.956 450.72C129.866 450.944 129.82 451.195 129.82 451.472V456H127.484ZM135.873 452.4C135.868 452.821 135.934 453.189 136.073 453.504C136.212 453.813 136.412 454.053 136.673 454.224C136.94 454.389 137.26 454.472 137.633 454.472C138.033 454.472 138.382 454.387 138.681 454.216C138.985 454.045 139.196 453.765 139.313 453.376H141.417C141.326 453.963 141.092 454.464 140.713 454.88C140.34 455.296 139.886 455.613 139.353 455.832C138.82 456.051 138.265 456.16 137.689 456.16C136.873 456.16 136.153 455.989 135.529 455.648C134.91 455.301 134.428 454.813 134.081 454.184C133.734 453.555 133.561 452.813 133.561 451.96C133.561 451.133 133.718 450.389 134.033 449.728C134.348 449.061 134.804 448.536 135.401 448.152C136.004 447.763 136.726 447.568 137.569 447.568C138.412 447.568 139.118 447.747 139.689 448.104C140.265 448.456 140.697 448.949 140.985 449.584C141.278 450.213 141.425 450.941 141.425 451.768V452.4H135.873ZM135.865 451.008H139.241C139.241 450.677 139.18 450.373 139.057 450.096C138.934 449.819 138.748 449.6 138.497 449.44C138.252 449.28 137.942 449.2 137.569 449.2C137.206 449.2 136.897 449.288 136.641 449.464C136.39 449.635 136.198 449.859 136.065 450.136C135.932 450.413 135.865 450.704 135.865 451.008ZM146.119 456.16C145.01 456.16 144.146 455.779 143.527 455.016C142.908 454.248 142.599 453.181 142.599 451.816C142.599 450.952 142.724 450.203 142.975 449.568C143.226 448.933 143.596 448.443 144.087 448.096C144.578 447.744 145.178 447.568 145.887 447.568C146.186 447.568 146.463 447.603 146.719 447.672C146.98 447.736 147.218 447.827 147.431 447.944C147.644 448.061 147.831 448.197 147.991 448.352C148.151 448.507 148.282 448.672 148.383 448.848V444.112H150.727V456H149.031L148.767 454.304C148.692 454.533 148.588 454.757 148.455 454.976C148.322 455.195 148.151 455.395 147.943 455.576C147.735 455.752 147.479 455.893 147.175 456C146.876 456.107 146.524 456.16 146.119 456.16ZM146.631 454.48C147.218 454.48 147.655 454.275 147.943 453.864C148.236 453.453 148.383 452.76 148.383 451.784C148.378 451.219 148.311 450.749 148.183 450.376C148.055 450.003 147.863 449.725 147.607 449.544C147.356 449.357 147.036 449.264 146.647 449.264C146.14 449.264 145.719 449.459 145.383 449.848C145.047 450.232 144.879 450.877 144.879 451.784C144.879 452.707 145.036 453.387 145.351 453.824C145.666 454.261 146.092 454.48 146.631 454.48ZM155.133 447.728V456H152.901V447.728H155.133ZM155.157 444.44V446.544H152.885V444.44H155.157ZM162.29 449.352H160.45L160.466 453.76C160.466 453.963 160.49 454.115 160.538 454.216C160.591 454.312 160.671 454.376 160.778 454.408C160.89 454.435 161.031 454.448 161.202 454.448H162.314V455.888C162.207 455.936 162.039 455.981 161.81 456.024C161.586 456.067 161.271 456.088 160.866 456.088C160.141 456.088 159.578 455.995 159.178 455.808C158.783 455.621 158.509 455.36 158.354 455.024C158.199 454.688 158.122 454.299 158.122 453.856V449.352H156.778V447.728H158.202L158.786 445.232H160.45V447.72H162.29V449.352ZM177.045 444.432L173.053 456H170.405L166.445 444.432H168.677L171.733 453.288L174.813 444.432H177.045ZM181.052 456.16C180.241 456.16 179.535 455.987 178.932 455.64C178.335 455.293 177.871 454.803 177.54 454.168C177.215 453.533 177.052 452.781 177.052 451.912C177.052 451.043 177.215 450.283 177.54 449.632C177.871 448.981 178.335 448.475 178.932 448.112C179.535 447.749 180.244 447.568 181.06 447.568C181.876 447.568 182.583 447.747 183.18 448.104C183.777 448.456 184.239 448.957 184.564 449.608C184.889 450.259 185.052 451.027 185.052 451.912C185.052 452.744 184.892 453.48 184.572 454.12C184.257 454.755 183.801 455.253 183.204 455.616C182.612 455.979 181.895 456.16 181.052 456.16ZM181.06 454.424C181.471 454.424 181.801 454.304 182.052 454.064C182.303 453.824 182.484 453.509 182.596 453.12C182.713 452.725 182.772 452.296 182.772 451.832C182.772 451.395 182.719 450.981 182.612 450.592C182.511 450.203 182.335 449.888 182.084 449.648C181.833 449.408 181.492 449.288 181.06 449.288C180.649 449.288 180.316 449.403 180.06 449.632C179.809 449.856 179.625 450.163 179.508 450.552C179.391 450.936 179.332 451.363 179.332 451.832C179.332 452.264 179.385 452.68 179.492 453.08C179.599 453.475 179.777 453.797 180.028 454.048C180.279 454.299 180.623 454.424 181.06 454.424ZM189.564 456.16C189.18 456.16 188.801 456.101 188.428 455.984C188.06 455.867 187.724 455.693 187.42 455.464C187.116 455.235 186.87 454.952 186.684 454.616C186.502 454.28 186.412 453.891 186.412 453.448V447.728H188.748V453.152C188.748 453.536 188.873 453.851 189.124 454.096C189.374 454.341 189.742 454.464 190.228 454.464C190.686 454.464 191.049 454.347 191.316 454.112C191.588 453.872 191.724 453.539 191.724 453.112V447.728H194.036V456H192.276L192.004 454.36C191.908 454.845 191.726 455.219 191.46 455.48C191.198 455.736 190.897 455.912 190.556 456.008C190.22 456.109 189.889 456.16 189.564 456.16ZM199.482 447.568C200.175 447.568 200.772 447.709 201.274 447.992C201.78 448.275 202.178 448.656 202.466 449.136C202.759 449.616 202.927 450.152 202.97 450.744H201.026C200.988 450.525 200.911 450.309 200.794 450.096C200.676 449.877 200.511 449.699 200.298 449.56C200.084 449.416 199.818 449.344 199.498 449.344C198.954 449.344 198.511 449.555 198.17 449.976C197.834 450.392 197.666 451.027 197.666 451.88C197.666 452.685 197.831 453.325 198.162 453.8C198.492 454.269 198.954 454.504 199.546 454.504C199.86 454.504 200.122 454.427 200.33 454.272C200.543 454.117 200.708 453.933 200.826 453.72C200.943 453.501 201.018 453.299 201.05 453.112H202.946C202.908 453.683 202.743 454.2 202.45 454.664C202.156 455.123 201.756 455.488 201.25 455.76C200.748 456.027 200.159 456.16 199.482 456.16C198.714 456.16 198.028 455.989 197.426 455.648C196.823 455.307 196.348 454.819 196.002 454.184C195.66 453.544 195.49 452.781 195.49 451.896C195.49 451.043 195.655 450.291 195.986 449.64C196.316 448.989 196.78 448.483 197.378 448.12C197.98 447.752 198.682 447.568 199.482 447.568ZM204.578 456V444.112H206.898V448.92C207.031 448.728 207.199 448.539 207.402 448.352C207.605 448.16 207.858 448 208.162 447.872C208.466 447.744 208.837 447.68 209.274 447.68C209.802 447.68 210.282 447.784 210.714 447.992C211.151 448.195 211.501 448.491 211.762 448.88C212.029 449.269 212.162 449.744 212.162 450.304V456H209.818V450.648C209.818 450.275 209.682 449.989 209.41 449.792C209.143 449.589 208.818 449.488 208.434 449.488C208.183 449.488 207.941 449.533 207.706 449.624C207.471 449.715 207.279 449.853 207.13 450.04C206.986 450.221 206.914 450.448 206.914 450.72V456H204.578ZM215.983 452.4C215.977 452.821 216.044 453.189 216.183 453.504C216.321 453.813 216.521 454.053 216.783 454.224C217.049 454.389 217.369 454.472 217.743 454.472C218.143 454.472 218.492 454.387 218.791 454.216C219.095 454.045 219.305 453.765 219.423 453.376H221.527C221.436 453.963 221.201 454.464 220.823 454.88C220.449 455.296 219.996 455.613 219.463 455.832C218.929 456.051 218.375 456.16 217.799 456.16C216.983 456.16 216.263 455.989 215.639 455.648C215.02 455.301 214.537 454.813 214.191 454.184C213.844 453.555 213.671 452.813 213.671 451.96C213.671 451.133 213.828 450.389 214.143 449.728C214.457 449.061 214.913 448.536 215.511 448.152C216.113 447.763 216.836 447.568 217.679 447.568C218.521 447.568 219.228 447.747 219.799 448.104C220.375 448.456 220.807 448.949 221.095 449.584C221.388 450.213 221.535 450.941 221.535 451.768V452.4H215.983ZM215.975 451.008H219.351C219.351 450.677 219.289 450.373 219.167 450.096C219.044 449.819 218.857 449.6 218.607 449.44C218.361 449.28 218.052 449.2 217.679 449.2C217.316 449.2 217.007 449.288 216.751 449.464C216.5 449.635 216.308 449.859 216.175 450.136C216.041 450.413 215.975 450.704 215.975 451.008ZM223.156 456V447.728H225.404V449.688C225.538 449.267 225.724 448.899 225.964 448.584C226.21 448.264 226.506 448.016 226.852 447.84C227.199 447.659 227.591 447.568 228.028 447.568C228.103 447.568 228.172 447.573 228.236 447.584C228.306 447.589 228.356 447.6 228.388 447.616V449.84C228.34 449.819 228.282 449.805 228.212 449.8C228.148 449.795 228.09 449.789 228.036 449.784C227.578 449.747 227.186 449.76 226.86 449.824C226.535 449.888 226.271 449.997 226.068 450.152C225.866 450.307 225.719 450.496 225.628 450.72C225.538 450.944 225.492 451.195 225.492 451.472V456H223.156ZM232.913 456.16C232.337 456.16 231.782 456.067 231.249 455.88C230.715 455.688 230.265 455.389 229.897 454.984C229.529 454.573 229.294 454.043 229.193 453.392H231.217C231.286 453.685 231.411 453.917 231.593 454.088C231.779 454.259 231.99 454.381 232.225 454.456C232.459 454.525 232.683 454.56 232.897 454.56C233.345 454.56 233.705 454.491 233.977 454.352C234.254 454.208 234.393 453.989 234.393 453.696C234.393 453.472 234.31 453.293 234.145 453.16C233.985 453.027 233.718 452.925 233.345 452.856L231.889 452.552C231.158 452.397 230.571 452.136 230.129 451.768C229.686 451.395 229.459 450.867 229.449 450.184C229.449 449.688 229.579 449.243 229.841 448.848C230.107 448.453 230.499 448.141 231.017 447.912C231.534 447.683 232.169 447.568 232.921 447.568C233.939 447.568 234.753 447.792 235.361 448.24C235.974 448.688 236.286 449.32 236.297 450.136H234.345C234.286 449.816 234.126 449.571 233.865 449.4C233.609 449.224 233.286 449.136 232.897 449.136C232.491 449.136 232.158 449.208 231.897 449.352C231.635 449.496 231.505 449.715 231.505 450.008C231.505 450.227 231.611 450.4 231.825 450.528C232.038 450.651 232.369 450.757 232.817 450.848L234.161 451.152C234.625 451.264 235.001 451.419 235.289 451.616C235.582 451.808 235.809 452.019 235.969 452.248C236.129 452.477 236.238 452.709 236.297 452.944C236.361 453.173 236.393 453.381 236.393 453.568C236.393 454.117 236.246 454.587 235.953 454.976C235.659 455.36 235.251 455.653 234.729 455.856C234.206 456.059 233.601 456.16 232.913 456.16Z" fill="#3E3E3E"/>
<path d="M125.904 558.432L121.912 570H119.264L115.304 558.432H117.536L120.592 567.288L123.672 558.432H125.904ZM129.911 570.16C129.101 570.16 128.394 569.987 127.791 569.64C127.194 569.293 126.73 568.803 126.399 568.168C126.074 567.533 125.911 566.781 125.911 565.912C125.911 565.043 126.074 564.283 126.399 563.632C126.73 562.981 127.194 562.475 127.791 562.112C128.394 561.749 129.103 561.568 129.919 561.568C130.735 561.568 131.442 561.747 132.039 562.104C132.637 562.456 133.098 562.957 133.423 563.608C133.749 564.259 133.911 565.027 133.911 565.912C133.911 566.744 133.751 567.48 133.431 568.12C133.117 568.755 132.661 569.253 132.063 569.616C131.471 569.979 130.754 570.16 129.911 570.16ZM129.919 568.424C130.33 568.424 130.661 568.304 130.911 568.064C131.162 567.824 131.343 567.509 131.455 567.12C131.573 566.725 131.631 566.296 131.631 565.832C131.631 565.395 131.578 564.981 131.471 564.592C131.37 564.203 131.194 563.888 130.943 563.648C130.693 563.408 130.351 563.288 129.919 563.288C129.509 563.288 129.175 563.403 128.919 563.632C128.669 563.856 128.485 564.163 128.367 564.552C128.25 564.936 128.191 565.363 128.191 565.832C128.191 566.264 128.245 566.68 128.351 567.08C128.458 567.475 128.637 567.797 128.887 568.048C129.138 568.299 129.482 568.424 129.919 568.424ZM138.423 570.16C138.039 570.16 137.66 570.101 137.287 569.984C136.919 569.867 136.583 569.693 136.279 569.464C135.975 569.235 135.73 568.952 135.543 568.616C135.362 568.28 135.271 567.891 135.271 567.448V561.728H137.607V567.152C137.607 567.536 137.732 567.851 137.983 568.096C138.234 568.341 138.602 568.464 139.087 568.464C139.546 568.464 139.908 568.347 140.175 568.112C140.447 567.872 140.583 567.539 140.583 567.112V561.728H142.895V570H141.135L140.863 568.36C140.767 568.845 140.586 569.219 140.319 569.48C140.058 569.736 139.756 569.912 139.415 570.008C139.079 570.109 138.748 570.16 138.423 570.16ZM148.341 561.568C149.034 561.568 149.632 561.709 150.133 561.992C150.64 562.275 151.037 562.656 151.325 563.136C151.618 563.616 151.786 564.152 151.829 564.744H149.885C149.848 564.525 149.77 564.309 149.653 564.096C149.536 563.877 149.37 563.699 149.157 563.56C148.944 563.416 148.677 563.344 148.357 563.344C147.813 563.344 147.37 563.555 147.029 563.976C146.693 564.392 146.525 565.027 146.525 565.88C146.525 566.685 146.69 567.325 147.021 567.8C147.352 568.269 147.813 568.504 148.405 568.504C148.72 568.504 148.981 568.427 149.189 568.272C149.402 568.117 149.568 567.933 149.685 567.72C149.802 567.501 149.877 567.299 149.909 567.112H151.805C151.768 567.683 151.602 568.2 151.309 568.664C151.016 569.123 150.616 569.488 150.109 569.76C149.608 570.027 149.018 570.16 148.341 570.16C147.573 570.16 146.888 569.989 146.285 569.648C145.682 569.307 145.208 568.819 144.861 568.184C144.52 567.544 144.349 566.781 144.349 565.896C144.349 565.043 144.514 564.291 144.845 563.64C145.176 562.989 145.64 562.483 146.237 562.12C146.84 561.752 147.541 561.568 148.341 561.568ZM153.438 570V558.112H155.758V562.92C155.891 562.728 156.059 562.539 156.262 562.352C156.464 562.16 156.718 562 157.022 561.872C157.326 561.744 157.696 561.68 158.134 561.68C158.662 561.68 159.142 561.784 159.574 561.992C160.011 562.195 160.36 562.491 160.622 562.88C160.888 563.269 161.022 563.744 161.022 564.304V570H158.678V564.648C158.678 564.275 158.542 563.989 158.27 563.792C158.003 563.589 157.678 563.488 157.294 563.488C157.043 563.488 156.8 563.533 156.566 563.624C156.331 563.715 156.139 563.853 155.99 564.04C155.846 564.221 155.774 564.448 155.774 564.72V570H153.438ZM164.842 566.4C164.837 566.821 164.903 567.189 165.042 567.504C165.181 567.813 165.381 568.053 165.642 568.224C165.909 568.389 166.229 568.472 166.602 568.472C167.002 568.472 167.351 568.387 167.65 568.216C167.954 568.045 168.165 567.765 168.282 567.376H170.386C170.295 567.963 170.061 568.464 169.682 568.88C169.309 569.296 168.855 569.613 168.322 569.832C167.789 570.051 167.234 570.16 166.658 570.16C165.842 570.16 165.122 569.989 164.498 569.648C163.879 569.301 163.397 568.813 163.05 568.184C162.703 567.555 162.53 566.813 162.53 565.96C162.53 565.133 162.687 564.389 163.002 563.728C163.317 563.061 163.773 562.536 164.37 562.152C164.973 561.763 165.695 561.568 166.538 561.568C167.381 561.568 168.087 561.747 168.658 562.104C169.234 562.456 169.666 562.949 169.954 563.584C170.247 564.213 170.394 564.941 170.394 565.768V566.4H164.842ZM164.834 565.008H168.21C168.21 564.677 168.149 564.373 168.026 564.096C167.903 563.819 167.717 563.6 167.466 563.44C167.221 563.28 166.911 563.2 166.538 563.2C166.175 563.2 165.866 563.288 165.61 563.464C165.359 563.635 165.167 563.859 165.034 564.136C164.901 564.413 164.834 564.704 164.834 565.008ZM172.016 570V561.728H174.264V563.688C174.397 563.267 174.584 562.899 174.824 562.584C175.069 562.264 175.365 562.016 175.712 561.84C176.058 561.659 176.45 561.568 176.888 561.568C176.962 561.568 177.032 561.573 177.096 561.584C177.165 561.589 177.216 561.6 177.248 561.616V563.84C177.2 563.819 177.141 563.805 177.072 563.8C177.008 563.795 176.949 563.789 176.896 563.784C176.437 563.747 176.045 563.76 175.72 563.824C175.394 563.888 175.13 563.997 174.928 564.152C174.725 564.307 174.578 564.496 174.488 564.72C174.397 564.944 174.352 565.195 174.352 565.472V570H172.016ZM186.914 558.272C187.784 558.272 188.557 558.448 189.234 558.8C189.917 559.147 190.466 559.621 190.882 560.224C191.304 560.827 191.552 561.507 191.626 562.264H189.178C189.104 561.864 188.968 561.509 188.77 561.2C188.573 560.885 188.314 560.64 187.994 560.464C187.674 560.283 187.29 560.192 186.842 560.192C186.304 560.192 185.84 560.323 185.45 560.584C185.061 560.845 184.762 561.267 184.554 561.848C184.346 562.429 184.242 563.197 184.242 564.152C184.242 565.592 184.472 566.635 184.93 567.28C185.394 567.92 186.032 568.24 186.842 568.24C187.29 568.24 187.674 568.139 187.994 567.936C188.314 567.728 188.573 567.456 188.77 567.12C188.968 566.779 189.104 566.405 189.178 566H191.626C191.557 566.549 191.424 567.075 191.226 567.576C191.029 568.072 190.749 568.515 190.386 568.904C190.024 569.293 189.557 569.6 188.986 569.824C188.416 570.048 187.725 570.16 186.914 570.16C185.837 570.16 184.906 569.909 184.122 569.408C183.338 568.907 182.733 568.203 182.306 567.296C181.885 566.389 181.674 565.331 181.674 564.12C181.674 562.904 181.885 561.861 182.306 560.992C182.728 560.117 183.33 559.445 184.114 558.976C184.898 558.507 185.832 558.272 186.914 558.272ZM196.974 570.16C196.163 570.16 195.457 569.987 194.854 569.64C194.257 569.293 193.793 568.803 193.462 568.168C193.137 567.533 192.974 566.781 192.974 565.912C192.974 565.043 193.137 564.283 193.462 563.632C193.793 562.981 194.257 562.475 194.854 562.112C195.457 561.749 196.166 561.568 196.982 561.568C197.798 561.568 198.505 561.747 199.102 562.104C199.699 562.456 200.161 562.957 200.486 563.608C200.811 564.259 200.974 565.027 200.974 565.912C200.974 566.744 200.814 567.48 200.494 568.12C200.179 568.755 199.723 569.253 199.126 569.616C198.534 569.979 197.817 570.16 196.974 570.16ZM196.982 568.424C197.393 568.424 197.723 568.304 197.974 568.064C198.225 567.824 198.406 567.509 198.518 567.12C198.635 566.725 198.694 566.296 198.694 565.832C198.694 565.395 198.641 564.981 198.534 564.592C198.433 564.203 198.257 563.888 198.006 563.648C197.755 563.408 197.414 563.288 196.982 563.288C196.571 563.288 196.238 563.403 195.982 563.632C195.731 563.856 195.547 564.163 195.43 564.552C195.313 564.936 195.254 565.363 195.254 565.832C195.254 566.264 195.307 566.68 195.414 567.08C195.521 567.475 195.699 567.797 195.95 568.048C196.201 568.299 196.545 568.424 196.982 568.424ZM205.603 570.16C204.494 570.16 203.63 569.779 203.011 569.016C202.393 568.248 202.083 567.181 202.083 565.816C202.083 564.952 202.209 564.203 202.459 563.568C202.71 562.933 203.081 562.443 203.571 562.096C204.062 561.744 204.662 561.568 205.371 561.568C205.67 561.568 205.947 561.603 206.203 561.672C206.465 561.736 206.702 561.827 206.915 561.944C207.129 562.061 207.315 562.197 207.475 562.352C207.635 562.507 207.766 562.672 207.867 562.848V558.112H210.211V570H208.515L208.251 568.304C208.177 568.533 208.073 568.757 207.939 568.976C207.806 569.195 207.635 569.395 207.427 569.576C207.219 569.752 206.963 569.893 206.659 570C206.361 570.107 206.009 570.16 205.603 570.16ZM206.115 568.48C206.702 568.48 207.139 568.275 207.427 567.864C207.721 567.453 207.867 566.76 207.867 565.784C207.862 565.219 207.795 564.749 207.667 564.376C207.539 564.003 207.347 563.725 207.091 563.544C206.841 563.357 206.521 563.264 206.131 563.264C205.625 563.264 205.203 563.459 204.867 563.848C204.531 564.232 204.363 564.877 204.363 565.784C204.363 566.707 204.521 567.387 204.835 567.824C205.15 568.261 205.577 568.48 206.115 568.48ZM214.139 566.4C214.133 566.821 214.2 567.189 214.339 567.504C214.477 567.813 214.677 568.053 214.939 568.224C215.205 568.389 215.525 568.472 215.899 568.472C216.299 568.472 216.648 568.387 216.947 568.216C217.251 568.045 217.461 567.765 217.579 567.376H219.683C219.592 567.963 219.357 568.464 218.979 568.88C218.605 569.296 218.152 569.613 217.619 569.832C217.085 570.051 216.531 570.16 215.955 570.16C215.139 570.16 214.419 569.989 213.795 569.648C213.176 569.301 212.693 568.813 212.347 568.184C212 567.555 211.827 566.813 211.827 565.96C211.827 565.133 211.984 564.389 212.299 563.728C212.613 563.061 213.069 562.536 213.667 562.152C214.269 561.763 214.992 561.568 215.835 561.568C216.677 561.568 217.384 561.747 217.955 562.104C218.531 562.456 218.963 562.949 219.251 563.584C219.544 564.213 219.691 564.941 219.691 565.768V566.4H214.139ZM214.131 565.008H217.507C217.507 564.677 217.445 564.373 217.323 564.096C217.2 563.819 217.013 563.6 216.763 563.44C216.517 563.28 216.208 563.2 215.835 563.2C215.472 563.2 215.163 563.288 214.907 563.464C214.656 563.635 214.464 563.859 214.331 564.136C214.197 564.413 214.131 564.704 214.131 565.008ZM224.569 570.16C223.993 570.16 223.438 570.067 222.905 569.88C222.372 569.688 221.921 569.389 221.553 568.984C221.185 568.573 220.95 568.043 220.849 567.392H222.873C222.942 567.685 223.068 567.917 223.249 568.088C223.436 568.259 223.646 568.381 223.881 568.456C224.116 568.525 224.34 568.56 224.553 568.56C225.001 568.56 225.361 568.491 225.633 568.352C225.91 568.208 226.049 567.989 226.049 567.696C226.049 567.472 225.966 567.293 225.801 567.16C225.641 567.027 225.374 566.925 225.001 566.856L223.545 566.552C222.814 566.397 222.228 566.136 221.785 565.768C221.342 565.395 221.116 564.867 221.105 564.184C221.105 563.688 221.236 563.243 221.497 562.848C221.764 562.453 222.156 562.141 222.673 561.912C223.19 561.683 223.825 561.568 224.577 561.568C225.596 561.568 226.409 561.792 227.017 562.24C227.63 562.688 227.942 563.32 227.953 564.136H226.001C225.942 563.816 225.782 563.571 225.521 563.4C225.265 563.224 224.942 563.136 224.553 563.136C224.148 563.136 223.814 563.208 223.553 563.352C223.292 563.496 223.161 563.715 223.161 564.008C223.161 564.227 223.268 564.4 223.481 564.528C223.694 564.651 224.025 564.757 224.473 564.848L225.817 565.152C226.281 565.264 226.657 565.419 226.945 565.616C227.238 565.808 227.465 566.019 227.625 566.248C227.785 566.477 227.894 566.709 227.953 566.944C228.017 567.173 228.049 567.381 228.049 567.568C228.049 568.117 227.902 568.587 227.609 568.976C227.316 569.36 226.908 569.653 226.385 569.856C225.862 570.059 225.257 570.16 224.569 570.16Z" fill="#3E3E3E"/>
<rect x="115.5" y="594.5" width="109" height="38" rx="11.5" fill="#FCFCFC"/>
<path d="M126.296 619V607.432H129.688L132.336 615.68L135.008 607.432H138.392V619H136.032V610.152L133.248 619H131.416L128.648 610.192V619H126.296ZM140.128 619L144.272 607.432H146.736L150.872 619H148.543L147.6 616.32H143.44L142.472 619H140.128ZM143.96 614.28H147.04L145.512 609.688L143.96 614.28ZM160.201 607.432H162.537V619H160.433L154.937 611.04V619H152.609V607.432H154.921L160.201 615.088V607.432ZM172.716 607.432H175.052V619H172.948L167.452 611.04V619H165.124V607.432H167.436L172.716 615.088V607.432ZM186.872 607.432L182.848 614.136V619H180.512V614.128L176.496 607.432H179.024L181.688 612.12L184.32 607.432H186.872ZM189.783 619V610.336H187.719V609.016C188.381 609.016 188.914 608.955 189.319 608.832C189.73 608.704 190.037 608.523 190.239 608.288C190.442 608.048 190.562 607.763 190.599 607.432H192.151V619H189.783ZM194.779 619V617.848V617.256C194.779 616.669 194.888 616.163 195.107 615.736C195.326 615.304 195.614 614.931 195.971 614.616C196.334 614.296 196.728 614.016 197.155 613.776C197.587 613.536 198.019 613.309 198.451 613.096C198.883 612.883 199.278 612.669 199.635 612.456C199.998 612.237 200.288 611.995 200.507 611.728C200.726 611.461 200.835 611.147 200.835 610.784C200.835 610.32 200.672 609.941 200.347 609.648C200.027 609.355 199.587 609.208 199.027 609.208C198.446 609.208 197.952 609.376 197.547 609.712C197.142 610.048 196.891 610.555 196.795 611.232H194.563C194.574 610.496 194.744 609.829 195.075 609.232C195.411 608.629 195.912 608.152 196.579 607.8C197.246 607.448 198.083 607.272 199.091 607.272C199.955 607.272 200.699 607.419 201.323 607.712C201.952 608.005 202.438 608.413 202.779 608.936C203.12 609.459 203.291 610.069 203.291 610.768C203.291 611.349 203.184 611.851 202.971 612.272C202.758 612.693 202.475 613.053 202.123 613.352C201.771 613.651 201.384 613.912 200.963 614.136C200.542 614.36 200.12 614.568 199.699 614.76C199.283 614.952 198.899 615.149 198.547 615.352C198.195 615.549 197.912 615.773 197.699 616.024C197.486 616.275 197.379 616.576 197.379 616.928V617.032H203.275V619H194.779ZM204.807 610.992C204.807 610.16 205.002 609.469 205.391 608.92C205.786 608.371 206.317 607.96 206.983 607.688C207.65 607.411 208.391 607.272 209.207 607.272C210.071 607.272 210.839 607.384 211.511 607.608C212.189 607.832 212.722 608.173 213.111 608.632C213.501 609.091 213.695 609.672 213.695 610.376C213.695 610.947 213.53 611.451 213.199 611.888C212.869 612.32 212.33 612.664 211.583 612.92C212.01 613.037 212.405 613.216 212.767 613.456C213.13 613.696 213.421 614.003 213.639 614.376C213.858 614.749 213.967 615.197 213.967 615.72C213.967 616.285 213.842 616.784 213.591 617.216C213.341 617.648 212.994 618.011 212.551 618.304C212.109 618.597 211.597 618.816 211.015 618.96C210.434 619.104 209.813 619.176 209.151 619.176C208.223 619.171 207.431 619.019 206.775 618.72C206.125 618.416 205.623 617.984 205.271 617.424C204.925 616.864 204.746 616.197 204.735 615.424H206.983C207.095 616.08 207.351 616.555 207.751 616.848C208.151 617.141 208.626 617.288 209.175 617.288C209.655 617.288 210.066 617.219 210.407 617.08C210.754 616.941 211.018 616.749 211.199 616.504C211.386 616.253 211.479 615.968 211.479 615.648C211.479 615.317 211.383 615.032 211.191 614.792C211.005 614.552 210.743 614.365 210.407 614.232C210.071 614.093 209.687 614.019 209.255 614.008L208.151 613.968V612.112L209.143 612.056C209.559 612.04 209.922 611.963 210.231 611.824C210.541 611.685 210.781 611.501 210.951 611.272C211.127 611.037 211.215 610.773 211.215 610.48C211.215 610.197 211.127 609.952 210.951 609.744C210.775 609.536 210.533 609.373 210.223 609.256C209.914 609.139 209.559 609.08 209.159 609.08C208.791 609.08 208.453 609.141 208.143 609.264C207.834 609.387 207.581 609.589 207.383 609.872C207.186 610.149 207.071 610.523 207.039 610.992H204.807Z" fill="#3E3E3E"/>
<rect x="115.5" y="594.5" width="109" height="38" rx="11.5" stroke="black" stroke-dasharray="2 2"/>
<rect x="115.5" y="480.5" width="30" height="38" rx="11.5" fill="#FCFCFC"/>
<path d="M125.904 505V503.848V503.256C125.904 502.669 126.013 502.163 126.232 501.736C126.451 501.304 126.739 500.931 127.096 500.616C127.459 500.296 127.853 500.016 128.28 499.776C128.712 499.536 129.144 499.309 129.576 499.096C130.008 498.883 130.403 498.669 130.76 498.456C131.123 498.237 131.413 497.995 131.632 497.728C131.851 497.461 131.96 497.147 131.96 496.784C131.96 496.32 131.797 495.941 131.472 495.648C131.152 495.355 130.712 495.208 130.152 495.208C129.571 495.208 129.077 495.376 128.672 495.712C128.267 496.048 128.016 496.555 127.92 497.232H125.688C125.699 496.496 125.869 495.829 126.2 495.232C126.536 494.629 127.037 494.152 127.704 493.8C128.371 493.448 129.208 493.272 130.216 493.272C131.08 493.272 131.824 493.419 132.448 493.712C133.077 494.005 133.563 494.413 133.904 494.936C134.245 495.459 134.416 496.069 134.416 496.768C134.416 497.349 134.309 497.851 134.096 498.272C133.883 498.693 133.6 499.053 133.248 499.352C132.896 499.651 132.509 499.912 132.088 500.136C131.667 500.36 131.245 500.568 130.824 500.76C130.408 500.952 130.024 501.149 129.672 501.352C129.32 501.549 129.037 501.773 128.824 502.024C128.611 502.275 128.504 502.576 128.504 502.928V503.032H134.4V505H125.904Z" fill="#3E3E3E"/>
<rect x="115.5" y="480.5" width="30" height="38" rx="11.5" stroke="black" stroke-dasharray="2 2"/>
<rect x="115.5" y="653.5" width="114" height="38" rx="11.5" fill="#FCFCFC"/>
<path d="M125.768 672.24C125.768 671.003 125.987 669.939 126.424 669.048C126.867 668.157 127.485 667.472 128.28 666.992C129.08 666.512 130.019 666.272 131.096 666.272C132.179 666.272 133.117 666.512 133.912 666.992C134.707 667.472 135.323 668.157 135.76 669.048C136.197 669.939 136.416 671.003 136.416 672.24C136.416 673.296 136.256 674.224 135.936 675.024C135.621 675.824 135.139 676.493 134.488 677.032C134.616 677.352 134.853 677.608 135.2 677.8C135.552 677.992 135.941 678.091 136.368 678.096V679.968C135.867 679.968 135.389 679.925 134.936 679.84C134.488 679.755 134.056 679.573 133.64 679.296C133.224 679.024 132.816 678.608 132.416 678.048C132.149 678.085 131.915 678.112 131.712 678.128C131.515 678.149 131.309 678.16 131.096 678.16C130.013 678.16 129.072 677.925 128.272 677.456C127.477 676.981 126.861 676.304 126.424 675.424C125.987 674.539 125.768 673.477 125.768 672.24ZM128.336 672.272C128.336 673.685 128.579 674.701 129.064 675.32C129.549 675.933 130.227 676.24 131.096 676.24C131.971 676.24 132.651 675.933 133.136 675.32C133.621 674.701 133.864 673.683 133.864 672.264C133.864 670.829 133.621 669.792 133.136 669.152C132.651 668.512 131.971 668.192 131.096 668.192C130.227 668.192 129.549 668.515 129.064 669.16C128.579 669.8 128.336 670.837 128.336 672.272ZM147.786 673.592C147.786 674.525 147.634 675.336 147.33 676.024C147.026 676.707 146.533 677.235 145.85 677.608C145.173 677.976 144.274 678.16 143.154 678.16C142.029 678.16 141.128 677.973 140.45 677.6C139.773 677.221 139.282 676.685 138.978 675.992C138.68 675.299 138.53 674.472 138.53 673.512V666.432H140.906V673.688C140.906 674.552 141.114 675.184 141.53 675.584C141.946 675.979 142.488 676.176 143.154 676.176C143.597 676.176 143.989 676.091 144.33 675.92C144.672 675.744 144.938 675.475 145.13 675.112C145.328 674.744 145.426 674.269 145.426 673.688V666.432H147.786V673.592ZM150.109 666.432H152.437V678H150.109V666.432ZM162.622 666.432H164.958V678H162.854L157.358 670.04V678H155.03V666.432H157.342L162.622 674.088V666.432ZM172.258 666.272C173.127 666.272 173.901 666.448 174.578 666.8C175.261 667.147 175.81 667.621 176.226 668.224C176.647 668.827 176.895 669.507 176.97 670.264H174.522C174.447 669.864 174.311 669.509 174.114 669.2C173.917 668.885 173.658 668.64 173.338 668.464C173.018 668.283 172.634 668.192 172.186 668.192C171.647 668.192 171.183 668.323 170.794 668.584C170.405 668.845 170.106 669.267 169.898 669.848C169.69 670.429 169.586 671.197 169.586 672.152C169.586 673.592 169.815 674.635 170.274 675.28C170.738 675.92 171.375 676.24 172.186 676.24C172.634 676.24 173.018 676.139 173.338 675.936C173.658 675.728 173.917 675.456 174.114 675.12C174.311 674.779 174.447 674.405 174.522 674H176.97C176.901 674.549 176.767 675.075 176.57 675.576C176.373 676.072 176.093 676.515 175.73 676.904C175.367 677.293 174.901 677.6 174.33 677.824C173.759 678.048 173.069 678.16 172.258 678.16C171.181 678.16 170.25 677.909 169.466 677.408C168.682 676.907 168.077 676.203 167.65 675.296C167.229 674.389 167.018 673.331 167.018 672.12C167.018 670.904 167.229 669.861 167.65 668.992C168.071 668.117 168.674 667.445 169.458 666.976C170.242 666.507 171.175 666.272 172.258 666.272ZM179.03 678V666.432H186.974L186.966 668.4H181.374V671.208H186.23V673.136H181.358V676.008L187.054 676.016V678H179.03ZM193.851 666.432H196.147V673.48H197.931V675.44H196.147V678H193.899L193.907 675.44H188.579V673.52L193.851 666.432ZM190.739 673.48H193.907V669.24L190.739 673.48ZM200.115 666.432H207.547L207.459 668.344H201.963L201.739 671.136C202.166 670.896 202.571 670.723 202.955 670.616C203.344 670.509 203.771 670.456 204.235 670.456C205.008 670.456 205.699 670.603 206.307 670.896C206.92 671.184 207.406 671.608 207.763 672.168C208.12 672.728 208.299 673.411 208.299 674.216C208.299 675.032 208.115 675.736 207.747 676.328C207.379 676.92 206.856 677.376 206.179 677.696C205.507 678.016 204.71 678.176 203.787 678.176C203.03 678.176 202.326 678.059 201.675 677.824C201.024 677.589 200.462 677.269 199.987 676.864C199.512 676.453 199.152 675.984 198.907 675.456L200.731 674.376C200.939 674.739 201.174 675.067 201.435 675.36C201.696 675.648 201.998 675.877 202.339 676.048C202.686 676.213 203.088 676.296 203.547 676.296C204.24 676.296 204.798 676.112 205.219 675.744C205.64 675.376 205.851 674.896 205.851 674.304C205.851 673.931 205.755 673.597 205.563 673.304C205.376 673.005 205.118 672.771 204.787 672.6C204.456 672.429 204.07 672.344 203.627 672.344C203.392 672.344 203.168 672.365 202.955 672.408C202.747 672.445 202.534 672.52 202.315 672.632C202.102 672.739 201.864 672.893 201.603 673.096C201.528 673.128 201.475 673.144 201.443 673.144C201.416 673.144 201.363 673.125 201.283 673.088L199.587 672.304L200.115 666.432ZM214.56 666.272C215.285 666.272 215.955 666.405 216.568 666.672C217.181 666.933 217.68 667.315 218.064 667.816C218.453 668.312 218.667 668.909 218.704 669.608H216.568C216.429 669.123 216.195 668.755 215.864 668.504C215.533 668.248 215.115 668.12 214.608 668.12C214.053 668.12 213.592 668.277 213.224 668.592C212.856 668.907 212.592 669.347 212.432 669.912C212.272 670.477 212.229 671.136 212.304 671.888C212.48 671.632 212.704 671.416 212.976 671.24C213.248 671.059 213.552 670.92 213.888 670.824C214.224 670.728 214.573 670.68 214.936 670.68C215.72 670.68 216.405 670.827 216.992 671.12C217.579 671.408 218.037 671.819 218.368 672.352C218.699 672.885 218.864 673.509 218.864 674.224C218.864 674.981 218.677 675.659 218.304 676.256C217.936 676.848 217.421 677.317 216.76 677.664C216.099 678.005 215.333 678.176 214.464 678.176C213.483 678.176 212.635 677.939 211.92 677.464C211.205 676.989 210.656 676.323 210.272 675.464C209.893 674.605 209.704 673.597 209.704 672.44C209.704 671.171 209.896 670.075 210.28 669.152C210.669 668.229 211.227 667.52 211.952 667.024C212.677 666.523 213.547 666.272 214.56 666.272ZM214.392 672.424C214.061 672.424 213.741 672.499 213.432 672.648C213.128 672.792 212.877 672.979 212.68 673.208C212.488 673.432 212.392 673.661 212.392 673.896C212.387 674.413 212.467 674.859 212.632 675.232C212.803 675.6 213.037 675.885 213.336 676.088C213.64 676.285 213.989 676.384 214.384 676.384C214.757 676.384 215.093 676.299 215.392 676.128C215.696 675.952 215.939 675.709 216.12 675.4C216.301 675.091 216.392 674.736 216.392 674.336C216.392 673.909 216.304 673.555 216.128 673.272C215.952 672.989 215.712 672.779 215.408 672.64C215.109 672.496 214.771 672.424 214.392 672.424Z" fill="#3E3E3E"/>
<rect x="115.5" y="653.5" width="114" height="38" rx="11.5" stroke="black" stroke-dasharray="2 2"/>
<path d="M126.799 323H125.021L123.278 318.891H120.926V323H119.225V312.878H123.334C124.109 312.878 124.746 312.999 125.245 313.242C125.749 313.48 126.122 313.818 126.365 314.257C126.608 314.691 126.729 315.2 126.729 315.783C126.729 316.324 126.64 316.779 126.463 317.148C126.286 317.512 126.055 317.811 125.77 318.044C125.49 318.273 125.189 318.459 124.867 318.604L126.799 323ZM122.949 317.54C123.593 317.54 124.095 317.391 124.454 317.092C124.818 316.793 125 316.378 125 315.846C125 315.323 124.832 314.92 124.496 314.635C124.16 314.35 123.717 314.208 123.166 314.208H120.926V317.54H122.949ZM129.668 319.773C129.664 320.184 129.729 320.548 129.864 320.865C130 321.182 130.2 321.432 130.466 321.614C130.732 321.791 131.061 321.88 131.453 321.88C131.855 321.88 132.202 321.791 132.496 321.614C132.795 321.432 132.993 321.157 133.091 320.788H134.652C134.568 321.292 134.368 321.719 134.05 322.069C133.733 322.419 133.348 322.685 132.895 322.867C132.447 323.049 131.981 323.14 131.495 323.14C130.795 323.14 130.179 322.993 129.647 322.699C129.12 322.4 128.707 321.976 128.408 321.425C128.114 320.874 127.967 320.219 127.967 319.458C127.967 318.716 128.103 318.058 128.373 317.484C128.644 316.905 129.034 316.45 129.542 316.119C130.056 315.788 130.672 315.622 131.39 315.622C132.104 315.622 132.704 315.774 133.189 316.077C133.679 316.38 134.048 316.805 134.295 317.351C134.547 317.892 134.673 318.527 134.673 319.255V319.773H129.668ZM129.668 318.716H133.063C133.063 318.366 133.003 318.051 132.881 317.771C132.76 317.486 132.573 317.262 132.321 317.099C132.074 316.931 131.761 316.847 131.383 316.847C131.01 316.847 130.695 316.938 130.438 317.12C130.182 317.302 129.988 317.538 129.857 317.827C129.727 318.112 129.664 318.408 129.668 318.716ZM140.278 315.762V316.966H138.647V323H136.946V316.966H135.518V315.762H136.946V314.684C136.946 314.105 137.104 313.66 137.422 313.347C137.744 313.034 138.208 312.878 138.815 312.878H140.341L140.348 314.04H139.34C139.064 314.04 138.875 314.112 138.773 314.257C138.67 314.397 138.619 314.619 138.619 314.922V315.762H140.278ZM142.93 319.773C142.925 320.184 142.991 320.548 143.126 320.865C143.261 321.182 143.462 321.432 143.728 321.614C143.994 321.791 144.323 321.88 144.715 321.88C145.116 321.88 145.464 321.791 145.758 321.614C146.057 321.432 146.255 321.157 146.353 320.788H147.914C147.83 321.292 147.629 321.719 147.312 322.069C146.995 322.419 146.61 322.685 146.157 322.867C145.709 323.049 145.242 323.14 144.757 323.14C144.057 323.14 143.441 322.993 142.909 322.699C142.382 322.4 141.969 321.976 141.67 321.425C141.376 320.874 141.229 320.219 141.229 319.458C141.229 318.716 141.364 318.058 141.635 317.484C141.906 316.905 142.295 316.45 142.804 316.119C143.317 315.788 143.933 315.622 144.652 315.622C145.366 315.622 145.966 315.774 146.451 316.077C146.941 316.38 147.31 316.805 147.557 317.351C147.809 317.892 147.935 318.527 147.935 319.255V319.773H142.93ZM142.93 318.716H146.325C146.325 318.366 146.264 318.051 146.143 317.771C146.022 317.486 145.835 317.262 145.583 317.099C145.336 316.931 145.023 316.847 144.645 316.847C144.272 316.847 143.957 316.938 143.7 317.12C143.443 317.302 143.25 317.538 143.119 317.827C142.988 318.112 142.925 318.408 142.93 318.716ZM149.523 323V315.762H151.154V317.33C151.27 316.971 151.436 316.665 151.651 316.413C151.87 316.156 152.127 315.96 152.421 315.825C152.715 315.69 153.034 315.622 153.38 315.622C153.464 315.622 153.545 315.627 153.625 315.636C153.704 315.645 153.762 315.662 153.8 315.685V317.316C153.748 317.293 153.681 317.276 153.597 317.267C153.517 317.258 153.447 317.253 153.387 317.253C153.037 317.225 152.726 317.239 152.456 317.295C152.19 317.351 151.963 317.447 151.777 317.582C151.595 317.713 151.457 317.881 151.364 318.086C151.27 318.287 151.224 318.522 151.224 318.793V323H149.523ZM159.06 325.31C158.598 325.31 158.274 325.273 158.087 325.198C157.905 325.128 157.814 325.093 157.814 325.093V324.001L158.542 324.022C158.836 324.036 159.074 324.02 159.256 323.973C159.443 323.926 159.588 323.861 159.69 323.777C159.793 323.698 159.868 323.611 159.914 323.518C159.966 323.429 160.005 323.352 160.033 323.287L160.222 322.755L157.401 315.762H159.102L161.02 320.879L162.938 315.762H164.604L161.622 323.266C161.398 323.812 161.156 324.232 160.894 324.526C160.638 324.825 160.355 325.03 160.047 325.142C159.744 325.254 159.415 325.31 159.06 325.31ZM168.549 323.14C167.858 323.14 167.256 322.993 166.743 322.699C166.23 322.4 165.831 321.973 165.546 321.418C165.266 320.863 165.126 320.195 165.126 319.416C165.126 318.66 165.261 317.997 165.532 317.428C165.807 316.859 166.202 316.415 166.715 316.098C167.228 315.781 167.842 315.622 168.556 315.622C169.247 315.622 169.846 315.774 170.355 316.077C170.864 316.38 171.256 316.814 171.531 317.379C171.811 317.944 171.951 318.623 171.951 319.416C171.951 320.149 171.818 320.795 171.552 321.355C171.291 321.91 170.906 322.347 170.397 322.664C169.893 322.981 169.277 323.14 168.549 323.14ZM168.556 321.845C168.948 321.845 169.27 321.738 169.522 321.523C169.779 321.308 169.968 321.014 170.089 320.641C170.215 320.268 170.278 319.843 170.278 319.367C170.278 318.924 170.222 318.515 170.11 318.142C170.003 317.769 169.821 317.47 169.564 317.246C169.312 317.017 168.976 316.903 168.556 316.903C168.159 316.903 167.83 317.008 167.569 317.218C167.312 317.423 167.119 317.713 166.988 318.086C166.862 318.455 166.799 318.882 166.799 319.367C166.799 319.806 166.855 320.214 166.967 320.592C167.084 320.965 167.27 321.269 167.527 321.502C167.784 321.731 168.127 321.845 168.556 321.845ZM176.026 323.14C175.672 323.14 175.329 323.089 174.997 322.986C174.671 322.879 174.377 322.725 174.115 322.524C173.854 322.319 173.646 322.067 173.492 321.768C173.338 321.469 173.261 321.122 173.261 320.725V315.762H174.969V320.529C174.969 320.921 175.093 321.243 175.34 321.495C175.592 321.747 175.97 321.873 176.474 321.873C176.932 321.873 177.298 321.754 177.573 321.516C177.849 321.273 177.986 320.926 177.986 320.473V315.762H179.68V323H178.371L178.182 321.586C178.094 321.983 177.937 322.295 177.713 322.524C177.494 322.748 177.235 322.907 176.936 323C176.642 323.093 176.339 323.14 176.026 323.14ZM181.57 323V315.762H183.201V317.33C183.317 316.971 183.483 316.665 183.698 316.413C183.917 316.156 184.174 315.96 184.468 315.825C184.762 315.69 185.081 315.622 185.427 315.622C185.511 315.622 185.592 315.627 185.672 315.636C185.751 315.645 185.809 315.662 185.847 315.685V317.316C185.795 317.293 185.728 317.276 185.644 317.267C185.564 317.258 185.494 317.253 185.434 317.253C185.084 317.225 184.773 317.239 184.503 317.295C184.237 317.351 184.01 317.447 183.824 317.582C183.642 317.713 183.504 317.881 183.411 318.086C183.317 318.287 183.271 318.522 183.271 318.793V323H181.57ZM194.5 315.762V316.966H192.869V323H191.168V316.966H189.74V315.762H191.168V314.684C191.168 314.105 191.327 313.66 191.644 313.347C191.966 313.034 192.431 312.878 193.037 312.878H194.563L194.57 314.04H193.562C193.287 314.04 193.098 314.112 192.995 314.257C192.893 314.397 192.841 314.619 192.841 314.922V315.762H194.5ZM195.884 323V315.762H197.515V317.33C197.632 316.971 197.797 316.665 198.012 316.413C198.231 316.156 198.488 315.96 198.782 315.825C199.076 315.69 199.396 315.622 199.741 315.622C199.825 315.622 199.907 315.627 199.986 315.636C200.065 315.645 200.124 315.662 200.161 315.685V317.316C200.11 317.293 200.042 317.276 199.958 317.267C199.879 317.258 199.809 317.253 199.748 317.253C199.398 317.225 199.088 317.239 198.817 317.295C198.551 317.351 198.325 317.447 198.138 317.582C197.956 317.713 197.818 317.881 197.725 318.086C197.632 318.287 197.585 318.522 197.585 318.793V323H195.884ZM203.219 315.762V323H201.581V315.762H203.219ZM203.24 312.885V314.495H201.553V312.885H203.24ZM206.614 319.773C206.609 320.184 206.674 320.548 206.81 320.865C206.945 321.182 207.146 321.432 207.412 321.614C207.678 321.791 208.007 321.88 208.399 321.88C208.8 321.88 209.148 321.791 209.442 321.614C209.74 321.432 209.939 321.157 210.037 320.788H211.598C211.514 321.292 211.313 321.719 210.996 322.069C210.678 322.419 210.293 322.685 209.841 322.867C209.393 323.049 208.926 323.14 208.441 323.14C207.741 323.14 207.125 322.993 206.593 322.699C206.065 322.4 205.652 321.976 205.354 321.425C205.06 320.874 204.913 320.219 204.913 319.458C204.913 318.716 205.048 318.058 205.319 317.484C205.589 316.905 205.979 316.45 206.488 316.119C207.001 315.788 207.617 315.622 208.336 315.622C209.05 315.622 209.649 315.774 210.135 316.077C210.625 316.38 210.993 316.805 211.241 317.351C211.493 317.892 211.619 318.527 211.619 319.255V319.773H206.614ZM206.614 318.716H210.009C210.009 318.366 209.948 318.051 209.827 317.771C209.705 317.486 209.519 317.262 209.267 317.099C209.019 316.931 208.707 316.847 208.329 316.847C207.955 316.847 207.64 316.938 207.384 317.12C207.127 317.302 206.933 317.538 206.803 317.827C206.672 318.112 206.609 318.408 206.614 318.716ZM213.206 323V315.762H214.872V316.798C214.984 316.611 215.136 316.432 215.327 316.259C215.523 316.086 215.764 315.946 216.048 315.839C216.333 315.732 216.667 315.678 217.049 315.678C217.497 315.678 217.913 315.767 218.295 315.944C218.683 316.121 218.993 316.399 219.226 316.777C219.464 317.155 219.583 317.643 219.583 318.24V323H217.875V318.443C217.875 317.967 217.745 317.615 217.483 317.386C217.222 317.153 216.893 317.036 216.496 317.036C216.226 317.036 215.969 317.083 215.726 317.176C215.484 317.265 215.285 317.402 215.131 317.589C214.982 317.771 214.907 318 214.907 318.275V323H213.206ZM224.062 323.14C223.106 323.14 222.354 322.811 221.808 322.153C221.262 321.495 220.989 320.559 220.989 319.346C220.989 318.59 221.099 317.934 221.318 317.379C221.542 316.819 221.869 316.387 222.298 316.084C222.732 315.776 223.269 315.622 223.908 315.622C224.207 315.622 224.478 315.659 224.72 315.734C224.968 315.804 225.187 315.897 225.378 316.014C225.57 316.131 225.731 316.259 225.861 316.399C225.997 316.539 226.102 316.679 226.176 316.819V312.598H227.884V323H226.624L226.435 321.516C226.379 321.689 226.295 321.871 226.183 322.062C226.076 322.249 225.929 322.424 225.742 322.587C225.56 322.75 225.332 322.883 225.056 322.986C224.781 323.089 224.45 323.14 224.062 323.14ZM224.412 321.887C225.024 321.887 225.469 321.689 225.749 321.292C226.034 320.891 226.176 320.228 226.176 319.304C226.172 318.777 226.106 318.333 225.98 317.974C225.859 317.615 225.67 317.344 225.413 317.162C225.161 316.98 224.835 316.889 224.433 316.889C223.92 316.889 223.498 317.078 223.166 317.456C222.835 317.834 222.669 318.45 222.669 319.304C222.669 320.153 222.821 320.797 223.124 321.236C223.428 321.67 223.857 321.887 224.412 321.887ZM232.541 323.14C232.037 323.14 231.558 323.061 231.106 322.902C230.658 322.739 230.28 322.484 229.972 322.139C229.668 321.794 229.477 321.348 229.398 320.802H230.896C230.961 321.068 231.075 321.285 231.239 321.453C231.407 321.621 231.605 321.745 231.834 321.824C232.062 321.899 232.296 321.936 232.534 321.936C232.968 321.936 233.318 321.861 233.584 321.712C233.854 321.563 233.99 321.332 233.99 321.019C233.99 320.79 233.915 320.608 233.766 320.473C233.616 320.338 233.378 320.235 233.052 320.165L231.673 319.85C231.061 319.715 230.569 319.491 230.196 319.178C229.827 318.865 229.64 318.424 229.636 317.855C229.631 317.426 229.738 317.043 229.958 316.707C230.177 316.371 230.504 316.107 230.938 315.916C231.372 315.72 231.908 315.622 232.548 315.622C233.392 315.622 234.069 315.811 234.578 316.189C235.086 316.562 235.348 317.097 235.362 317.792H233.913C233.861 317.479 233.714 317.237 233.472 317.064C233.229 316.887 232.914 316.798 232.527 316.798C232.125 316.798 231.796 316.875 231.54 317.029C231.283 317.183 231.155 317.419 231.155 317.736C231.155 317.955 231.253 318.128 231.449 318.254C231.645 318.38 231.939 318.487 232.331 318.576L233.633 318.891C234.006 318.984 234.312 319.11 234.55 319.269C234.788 319.428 234.974 319.603 235.11 319.794C235.245 319.981 235.338 320.174 235.39 320.375C235.446 320.571 235.474 320.753 235.474 320.921C235.474 321.388 235.352 321.787 235.11 322.118C234.872 322.445 234.533 322.697 234.095 322.874C233.656 323.051 233.138 323.14 232.541 323.14ZM244.362 315.762V316.966H242.731V323H241.03V316.966H239.602V315.762H241.03V314.684C241.03 314.105 241.188 313.66 241.506 313.347C241.828 313.034 242.292 312.878 242.899 312.878H244.425L244.432 314.04H243.424C243.148 314.04 242.959 314.112 242.857 314.257C242.754 314.397 242.703 314.619 242.703 314.922V315.762H244.362ZM248.68 323.14C247.989 323.14 247.387 322.993 246.874 322.699C246.361 322.4 245.962 321.973 245.677 321.418C245.397 320.863 245.257 320.195 245.257 319.416C245.257 318.66 245.392 317.997 245.663 317.428C245.938 316.859 246.333 316.415 246.846 316.098C247.359 315.781 247.973 315.622 248.687 315.622C249.378 315.622 249.977 315.774 250.486 316.077C250.995 316.38 251.387 316.814 251.662 317.379C251.942 317.944 252.082 318.623 252.082 319.416C252.082 320.149 251.949 320.795 251.683 321.355C251.422 321.91 251.037 322.347 250.528 322.664C250.024 322.981 249.408 323.14 248.68 323.14ZM248.687 321.845C249.079 321.845 249.401 321.738 249.653 321.523C249.91 321.308 250.099 321.014 250.22 320.641C250.346 320.268 250.409 319.843 250.409 319.367C250.409 318.924 250.353 318.515 250.241 318.142C250.134 317.769 249.952 317.47 249.695 317.246C249.443 317.017 249.107 316.903 248.687 316.903C248.29 316.903 247.961 317.008 247.7 317.218C247.443 317.423 247.25 317.713 247.119 318.086C246.993 318.455 246.93 318.882 246.93 319.367C246.93 319.806 246.986 320.214 247.098 320.592C247.215 320.965 247.401 321.269 247.658 321.502C247.915 321.731 248.258 321.845 248.687 321.845ZM253.593 323V315.762H255.224V317.33C255.341 316.971 255.506 316.665 255.721 316.413C255.94 316.156 256.197 315.96 256.491 315.825C256.785 315.69 257.105 315.622 257.45 315.622C257.534 315.622 257.616 315.627 257.695 315.636C257.774 315.645 257.833 315.662 257.87 315.685V317.316C257.819 317.293 257.751 317.276 257.667 317.267C257.588 317.258 257.518 317.253 257.457 317.253C257.107 317.225 256.797 317.239 256.526 317.295C256.26 317.351 256.034 317.447 255.847 317.582C255.665 317.713 255.527 317.881 255.434 318.086C255.341 318.287 255.294 318.522 255.294 318.793V323H253.593ZM263.794 323V315.202H261.918V314.187C262.511 314.187 262.98 314.138 263.325 314.04C263.675 313.937 263.929 313.788 264.088 313.592C264.251 313.396 264.345 313.158 264.368 312.878H265.53V323H263.794ZM271.577 312.738C272.734 312.738 273.649 313.184 274.321 314.075C274.998 314.962 275.336 316.257 275.336 317.96C275.336 319.654 275 320.944 274.328 321.831C273.661 322.713 272.741 323.154 271.57 323.154C270.399 323.154 269.477 322.713 268.805 321.831C268.138 320.949 267.804 319.663 267.804 317.974C267.804 316.835 267.958 315.879 268.266 315.104C268.574 314.325 269.01 313.737 269.575 313.34C270.14 312.939 270.807 312.738 271.577 312.738ZM271.577 321.733C272.235 321.733 272.725 321.441 273.047 320.858C273.369 320.275 273.53 319.311 273.53 317.967C273.53 316.595 273.367 315.61 273.04 315.013C272.713 314.416 272.223 314.117 271.57 314.117C270.917 314.117 270.422 314.418 270.086 315.02C269.755 315.622 269.589 316.604 269.589 317.967C269.589 319.306 269.755 320.27 270.086 320.858C270.422 321.441 270.919 321.733 271.577 321.733ZM279.164 312.724C279.63 312.724 280.05 312.85 280.424 313.102C280.797 313.349 281.091 313.69 281.306 314.124C281.52 314.558 281.628 315.057 281.628 315.622C281.628 316.182 281.52 316.677 281.306 317.106C281.096 317.535 280.804 317.874 280.431 318.121C280.057 318.364 279.635 318.485 279.164 318.485C278.688 318.485 278.261 318.364 277.883 318.121C277.509 317.874 277.213 317.535 276.994 317.106C276.779 316.677 276.672 316.182 276.672 315.622C276.672 315.057 276.781 314.558 277.001 314.124C277.22 313.69 277.516 313.349 277.89 313.102C278.268 312.85 278.692 312.724 279.164 312.724ZM279.15 317.582C279.551 317.582 279.852 317.407 280.053 317.057C280.253 316.702 280.354 316.224 280.354 315.622C280.354 315.006 280.251 314.518 280.046 314.159C279.845 313.795 279.546 313.613 279.15 313.613C278.888 313.613 278.667 313.697 278.485 313.865C278.307 314.028 278.172 314.262 278.079 314.565C277.985 314.864 277.939 315.216 277.939 315.622C277.939 316.219 278.041 316.695 278.247 317.05C278.452 317.405 278.753 317.582 279.15 317.582ZM285.667 317.365C286.138 317.365 286.56 317.491 286.934 317.743C287.307 317.995 287.601 318.34 287.816 318.779C288.03 319.213 288.138 319.708 288.138 320.263C288.138 320.828 288.03 321.327 287.816 321.761C287.606 322.19 287.314 322.529 286.941 322.776C286.567 323.019 286.143 323.14 285.667 323.14C285.191 323.14 284.764 323.019 284.386 322.776C284.008 322.529 283.711 322.19 283.497 321.761C283.282 321.327 283.175 320.828 283.175 320.263C283.175 319.708 283.282 319.213 283.497 318.779C283.716 318.34 284.015 317.995 284.393 317.743C284.771 317.491 285.195 317.365 285.667 317.365ZM285.653 322.23C285.914 322.23 286.133 322.148 286.311 321.985C286.493 321.822 286.628 321.595 286.717 321.306C286.81 321.012 286.857 320.669 286.857 320.277C286.857 319.876 286.81 319.526 286.717 319.227C286.623 318.924 286.486 318.688 286.304 318.52C286.126 318.352 285.909 318.268 285.653 318.268C285.396 318.268 285.179 318.354 285.002 318.527C284.824 318.695 284.687 318.931 284.589 319.234C284.495 319.533 284.449 319.88 284.449 320.277C284.449 320.669 284.495 321.012 284.589 321.306C284.682 321.595 284.817 321.822 284.995 321.985C285.172 322.148 285.391 322.23 285.653 322.23ZM286.248 312.766L279.444 323.056L278.387 323.042L285.219 312.766H286.248ZM295.834 323.14C295.144 323.14 294.542 322.993 294.028 322.699C293.515 322.4 293.116 321.973 292.831 321.418C292.551 320.863 292.411 320.195 292.411 319.416C292.411 318.66 292.547 317.997 292.817 317.428C293.093 316.859 293.487 316.415 294 316.098C294.514 315.781 295.127 315.622 295.841 315.622C296.532 315.622 297.132 315.774 297.64 316.077C298.149 316.38 298.541 316.814 298.816 317.379C299.096 317.944 299.236 318.623 299.236 319.416C299.236 320.149 299.103 320.795 298.837 321.355C298.576 321.91 298.191 322.347 297.682 322.664C297.178 322.981 296.562 323.14 295.834 323.14ZM295.841 321.845C296.233 321.845 296.555 321.738 296.807 321.523C297.064 321.308 297.253 321.014 297.374 320.641C297.5 320.268 297.563 319.843 297.563 319.367C297.563 318.924 297.507 318.515 297.395 318.142C297.288 317.769 297.106 317.47 296.849 317.246C296.597 317.017 296.261 316.903 295.841 316.903C295.445 316.903 295.116 317.008 294.854 317.218C294.598 317.423 294.404 317.713 294.273 318.086C294.147 318.455 294.084 318.882 294.084 319.367C294.084 319.806 294.14 320.214 294.252 320.592C294.369 320.965 294.556 321.269 294.812 321.502C295.069 321.731 295.412 321.845 295.841 321.845ZM304.764 315.762V316.966H303.133V323H301.432V316.966H300.004V315.762H301.432V314.684C301.432 314.105 301.591 313.66 301.908 313.347C302.23 313.034 302.694 312.878 303.301 312.878H304.827L304.834 314.04H303.826C303.551 314.04 303.362 314.112 303.259 314.257C303.156 314.397 303.105 314.619 303.105 314.922V315.762H304.764ZM310.247 315.762V316.966H308.616V323H306.915V316.966H305.487V315.762H306.915V314.684C306.915 314.105 307.073 313.66 307.391 313.347C307.713 313.034 308.177 312.878 308.784 312.878H310.31L310.317 314.04H309.309C309.033 314.04 308.844 314.112 308.742 314.257C308.639 314.397 308.588 314.619 308.588 314.922V315.762H310.247Z" fill="#40923A"/>
<rect x="116.25" y="343.25" width="195.5" height="48.5" rx="2.75" fill="#40923A"/>
<path d="M175.085 373H172.661L170.781 368.544H168.437V373H166.109V361.432H170.989C171.911 361.432 172.666 361.579 173.253 361.872C173.839 362.165 174.271 362.573 174.549 363.096C174.826 363.613 174.965 364.211 174.965 364.888C174.965 365.496 174.869 366.011 174.677 366.432C174.49 366.848 174.242 367.195 173.933 367.472C173.629 367.749 173.295 367.976 172.933 368.152L175.085 373ZM170.573 366.744C171.197 366.744 171.69 366.576 172.053 366.24C172.421 365.904 172.605 365.472 172.605 364.944C172.605 364.411 172.429 363.989 172.077 363.68C171.725 363.371 171.279 363.216 170.741 363.216H168.437V366.744H170.573ZM178.576 369.4C178.571 369.821 178.638 370.189 178.776 370.504C178.915 370.813 179.115 371.053 179.376 371.224C179.643 371.389 179.963 371.472 180.336 371.472C180.736 371.472 181.086 371.387 181.384 371.216C181.688 371.045 181.899 370.765 182.016 370.376H184.12C184.03 370.963 183.795 371.464 183.416 371.88C183.043 372.296 182.59 372.613 182.056 372.832C181.523 373.051 180.968 373.16 180.392 373.16C179.576 373.16 178.856 372.989 178.232 372.648C177.614 372.301 177.131 371.813 176.784 371.184C176.438 370.555 176.264 369.813 176.264 368.96C176.264 368.133 176.422 367.389 176.736 366.728C177.051 366.061 177.507 365.536 178.104 365.152C178.707 364.763 179.43 364.568 180.272 364.568C181.115 364.568 181.822 364.747 182.392 365.104C182.968 365.456 183.4 365.949 183.688 366.584C183.982 367.213 184.128 367.941 184.128 368.768V369.4H178.576ZM178.568 368.008H181.944C181.944 367.677 181.883 367.373 181.76 367.096C181.638 366.819 181.451 366.6 181.2 366.44C180.955 366.28 180.646 366.2 180.272 366.2C179.91 366.2 179.6 366.288 179.344 366.464C179.094 366.635 178.902 366.859 178.768 367.136C178.635 367.413 178.568 367.704 178.568 368.008ZM190.564 364.728V366.352H188.82V373H186.484V366.352H184.956V364.728H186.484V363.536C186.484 362.869 186.678 362.352 187.068 361.984C187.462 361.616 188.02 361.432 188.74 361.432H190.636L190.644 362.984H189.556C189.257 362.984 189.052 363.059 188.94 363.208C188.833 363.352 188.78 363.592 188.78 363.928V364.728H190.564ZM193.811 369.4C193.805 369.821 193.872 370.189 194.011 370.504C194.149 370.813 194.349 371.053 194.611 371.224C194.877 371.389 195.197 371.472 195.571 371.472C195.971 371.472 196.32 371.387 196.619 371.216C196.923 371.045 197.133 370.765 197.251 370.376H199.355C199.264 370.963 199.029 371.464 198.651 371.88C198.277 372.296 197.824 372.613 197.291 372.832C196.757 373.051 196.203 373.16 195.627 373.16C194.811 373.16 194.091 372.989 193.467 372.648C192.848 372.301 192.365 371.813 192.019 371.184C191.672 370.555 191.499 369.813 191.499 368.96C191.499 368.133 191.656 367.389 191.971 366.728C192.285 366.061 192.741 365.536 193.339 365.152C193.941 364.763 194.664 364.568 195.507 364.568C196.349 364.568 197.056 364.747 197.627 365.104C198.203 365.456 198.635 365.949 198.923 366.584C199.216 367.213 199.363 367.941 199.363 368.768V369.4H193.811ZM193.803 368.008H197.179C197.179 367.677 197.117 367.373 196.995 367.096C196.872 366.819 196.685 366.6 196.435 366.44C196.189 366.28 195.88 366.2 195.507 366.2C195.144 366.2 194.835 366.288 194.579 366.464C194.328 366.635 194.136 366.859 194.003 367.136C193.869 367.413 193.803 367.704 193.803 368.008ZM200.984 373V364.728H203.232V366.688C203.366 366.267 203.552 365.899 203.792 365.584C204.038 365.264 204.334 365.016 204.68 364.84C205.027 364.659 205.419 364.568 205.856 364.568C205.931 364.568 206 364.573 206.064 364.584C206.134 364.589 206.184 364.6 206.216 364.616V366.84C206.168 366.819 206.11 366.805 206.04 366.8C205.976 366.795 205.918 366.789 205.864 366.784C205.406 366.747 205.014 366.76 204.688 366.824C204.363 366.888 204.099 366.997 203.896 367.152C203.694 367.307 203.547 367.496 203.456 367.72C203.366 367.944 203.32 368.195 203.32 368.472V373H200.984ZM207.484 373V364.728H209.732V366.688C209.866 366.267 210.052 365.899 210.292 365.584C210.538 365.264 210.834 365.016 211.18 364.84C211.527 364.659 211.919 364.568 212.356 364.568C212.431 364.568 212.5 364.573 212.564 364.584C212.634 364.589 212.684 364.6 212.716 364.616V366.84C212.668 366.819 212.61 366.805 212.54 366.8C212.476 366.795 212.418 366.789 212.364 366.784C211.906 366.747 211.514 366.76 211.188 366.824C210.863 366.888 210.599 366.997 210.396 367.152C210.194 367.307 210.047 367.496 209.956 367.72C209.866 367.944 209.82 368.195 209.82 368.472V373H207.484ZM216.291 373.16C215.763 373.16 215.288 373.061 214.867 372.864C214.445 372.667 214.112 372.381 213.867 372.008C213.621 371.629 213.499 371.171 213.499 370.632C213.499 369.725 213.837 369.037 214.515 368.568C215.192 368.093 216.261 367.848 217.723 367.832L218.755 367.816V367.32C218.755 366.941 218.643 366.651 218.419 366.448C218.2 366.24 217.859 366.139 217.395 366.144C217.053 366.149 216.728 366.229 216.419 366.384C216.115 366.539 215.907 366.808 215.795 367.192H213.851C213.883 366.595 214.056 366.104 214.371 365.72C214.685 365.331 215.112 365.043 215.651 364.856C216.195 364.664 216.811 364.568 217.499 364.568C218.347 364.568 219.027 364.675 219.539 364.888C220.051 365.096 220.421 365.397 220.651 365.792C220.88 366.181 220.995 366.645 220.995 367.184V373H219.043L218.851 371.576C218.568 372.173 218.213 372.587 217.787 372.816C217.365 373.045 216.867 373.16 216.291 373.16ZM217.075 371.624C217.288 371.624 217.493 371.587 217.691 371.512C217.893 371.432 218.072 371.328 218.227 371.2C218.387 371.067 218.515 370.917 218.611 370.752C218.707 370.587 218.755 370.416 218.755 370.24V369.016L217.915 369.032C217.525 369.037 217.163 369.085 216.827 369.176C216.491 369.261 216.219 369.403 216.011 369.6C215.808 369.797 215.707 370.064 215.707 370.4C215.707 370.784 215.84 371.085 216.107 371.304C216.373 371.517 216.696 371.624 217.075 371.624ZM225.703 373.144C225.095 373.144 224.612 373.072 224.255 372.928C223.897 372.784 223.633 372.595 223.463 372.36C223.292 372.12 223.183 371.856 223.135 371.568C223.087 371.275 223.062 370.979 223.062 370.68V361.112H225.351V370.392C225.351 370.696 225.415 370.944 225.543 371.136C225.676 371.323 225.924 371.437 226.286 371.48L226.679 371.504V372.944C226.519 372.997 226.356 373.043 226.191 373.08C226.025 373.123 225.863 373.144 225.703 373.144ZM231.952 361.432H234.304V371.024H239.328V373H231.952V361.432ZM243.243 364.728V373H241.011V364.728H243.243ZM243.267 361.44V363.544H240.995V361.44H243.267ZM245.406 373V364.728H247.702V365.896C247.83 365.693 247.996 365.499 248.198 365.312C248.406 365.12 248.668 364.963 248.982 364.84C249.297 364.717 249.67 364.656 250.102 364.656C250.609 364.656 251.081 364.755 251.518 364.952C251.961 365.149 252.318 365.461 252.59 365.888C252.862 366.309 252.998 366.861 252.998 367.544V373H250.662V367.832C250.662 367.384 250.529 367.048 250.262 366.824C249.996 366.6 249.67 366.488 249.286 366.488C249.03 366.488 248.782 366.533 248.542 366.624C248.308 366.715 248.116 366.851 247.966 367.032C247.817 367.213 247.742 367.437 247.742 367.704V373H245.406ZM262.883 373H260.555L258.323 369.432L257.227 370.6V373H254.891V361.112H257.227V368.16L260.267 364.728H262.779L259.771 368.024L262.883 373Z" fill="white"/>
<rect x="116.25" y="343.25" width="195.5" height="48.5" rx="2.75" stroke="#21671C" stroke-width="2.5"/>
<defs>
<filter id="filter0_d_520_1984" x="77.5" y="820.5" width="279" height="71" filterUnits="userSpaceOnUse" color-interpolation-filters="sRGB">
<feFlood flood-opacity="0" result="BackgroundImageFix"/>
<feColorMatrix in="SourceAlpha" type="matrix" values="0 0 0 0 0 0 0 0 0 0 0 0 0 0 0 0 0 0 127 0" result="hardAlpha"/>
<feOffset dx="3" dy="4"/>
<feGaussianBlur stdDeviation="3.75"/>
<feComposite in2="hardAlpha" operator="out"/>
<feColorMatrix type="matrix" values="0 0 0 0 0.529412 0 0 0 0 0.462745 0 0 0 0 0.341176 0 0 0 0.3 0"/>
<feBlend mode="normal" in2="BackgroundImageFix" result="effect1_dropShadow_520_1984"/>
<feBlend mode="normal" in="SourceGraphic" in2="effect1_dropShadow_520_1984" result="shape"/>
</filter>
<clipPath id="clip0_520_1984">
<rect width="119" height="119" fill="white" transform="translate(155 22)"/>
</clipPath>
</defs>
</svg>
