<svg width="428" height="926" viewBox="0 0 428 926" fill="none" xmlns="http://www.w3.org/2000/svg">
<rect width="428" height="926" fill="#F8F2E9"/>
<g clip-path="url(#clip0_520_1714)">
<path d="M240.646 92.0176C240.549 91.6316 240.501 91.2208 240.501 90.7849C240.501 89.1541 241.237 87.7352 242.71 86.5279C244.183 85.3207 247.195 83.8385 251.746 82.0813V80.735C251.746 79.3191 251.565 78.3046 251.205 77.6915C250.845 77.0784 250.254 76.7719 249.432 76.7719C248.762 76.7719 248.206 76.9709 247.764 77.3692C247.321 77.7674 247.1 78.2635 247.1 78.8578C247.1 79.1737 247.113 79.5435 247.138 79.967C247.163 80.3905 247.176 80.6592 247.176 80.7729C247.176 81.6957 246.92 82.4384 246.408 83.001C245.896 83.5635 245.216 83.8447 244.369 83.8447C243.598 83.8447 242.979 83.6014 242.511 83.1147C242.043 82.628 241.809 81.9864 241.809 81.1901C241.809 79.4708 242.625 78.0455 244.256 76.9141C245.886 75.7826 247.985 75.217 250.551 75.217C251.992 75.217 253.297 75.4003 254.467 75.7669C255.636 76.1336 256.594 76.6644 257.339 77.3597C257.946 77.9286 258.376 78.5923 258.629 79.3507C258.882 80.1092 259.008 81.2532 259.008 82.7829V88.1871C259.008 89.6914 259.125 90.7597 259.359 91.3916C259.593 92.0237 259.969 92.3398 260.487 92.3398C260.601 92.3398 260.715 92.3146 260.828 92.264C260.942 92.2133 261.062 92.1376 261.189 92.0363V93.2689C260.683 93.9136 260.029 94.413 259.226 94.7669C258.423 95.1209 257.535 95.2979 256.562 95.2979C255.45 95.2979 254.517 95.0388 253.765 94.5205C253.013 94.0021 252.46 93.2374 252.106 92.2261C251.145 93.3259 250.137 94.1444 249.081 94.6816C248.026 95.2188 246.91 95.4875 245.735 95.4875C244.18 95.4875 242.919 95.0482 241.952 94.1697C241.629 93.8765 241.36 93.5555 241.145 93.2066C240.384 93.8039 239.157 94.494 238.538 94.7669C237.736 95.1209 236.848 95.2979 235.874 95.2979C234.762 95.2979 233.829 95.0388 233.077 94.5205C232.325 94.0021 231.772 93.2374 231.418 92.2261C230.457 93.3259 229.449 94.1444 228.394 94.6816C227.338 95.2188 226.223 95.4875 225.047 95.4875C223.492 95.4875 222.231 95.0482 221.264 94.1697C220.297 93.2911 219.813 92.1628 219.813 90.7849C219.813 89.1541 220.55 87.7352 222.022 86.5279C223.495 85.3207 226.507 83.8385 231.058 82.0813V80.735C231.058 79.3191 230.878 78.3046 230.517 77.6915C230.157 77.0784 229.566 76.7719 228.744 76.7719C228.075 76.7719 227.518 76.9709 227.076 77.3692C226.633 77.7674 226.412 78.2635 226.412 78.8578C226.412 79.1737 226.425 79.5435 226.45 79.967C226.475 80.3905 226.488 80.6592 226.488 80.7729C226.488 81.6957 226.232 82.4384 225.72 83.001C225.208 83.5635 224.529 83.8447 223.682 83.8447C222.91 83.8447 222.291 83.6014 221.823 83.1147C221.356 82.628 221.122 81.9864 221.122 81.1901C221.122 79.4708 221.937 78.0455 223.568 76.9141C225.199 75.7826 227.297 75.217 229.863 75.217C231.304 75.217 232.61 75.4003 233.779 75.7669C234.948 76.1336 235.906 76.6644 236.652 77.3597C237.258 77.9286 237.688 78.5923 237.941 79.3507C238.194 80.1092 238.32 81.2532 238.32 82.7829V88.1871C238.32 89.6914 238.437 90.7597 238.671 91.3916C238.905 92.0237 239.281 92.3398 239.799 92.3398C239.913 92.3398 240.027 92.3146 240.141 92.264C240.194 92.2403 240.414 92.1343 240.646 92.0176ZM182.778 94.6722L178.246 85.6651V90.8228C178.246 91.8215 178.423 92.5326 178.777 92.9561C179.131 93.3796 179.731 93.5913 180.578 93.5913H180.692V94.6722H168.499V93.5913H168.613C169.448 93.5913 170.045 93.3796 170.405 92.9561C170.765 92.5326 170.946 91.8215 170.946 90.8228V75.2548C170.946 74.6734 170.879 74.2531 170.746 73.994C170.614 73.7348 170.313 73.4156 169.846 73.0364L167.798 71.3677C168.683 71.1022 169.915 70.6788 171.495 70.0972C173.076 69.5157 175.326 68.6561 178.246 67.5183V84.6222C179.902 83.3454 181.15 82.1919 181.991 81.1616C182.832 80.1314 183.252 79.237 183.252 78.4785C183.252 78.0739 183.097 77.7516 182.787 77.5115C182.478 77.2712 182.051 77.1511 181.507 77.1511H181.394V76.0703H191.254V77.1511H190.932C189.63 77.1511 188.403 77.4925 187.253 78.175C186.103 78.8578 184.921 79.9448 183.707 81.4366L189.149 90.7469C189.743 91.7836 190.319 92.5042 190.875 92.9087C191.429 93.3119 192.122 93.5393 192.953 93.5909C193.752 93.5796 194.326 93.368 194.677 92.9561C195.037 92.5326 195.217 91.8215 195.217 90.8228V82.7829C195.217 82.2014 195.154 81.781 195.027 81.5219C194.901 81.2628 194.604 80.9499 194.136 80.5833L192.069 78.9146C193.574 78.4343 195.198 77.8717 196.943 77.227C198.687 76.5823 200.545 75.8617 202.518 75.0652V90.8228C202.518 91.7962 202.691 92.4946 203.039 92.9181C203.387 93.3416 203.965 93.566 204.774 93.5913H204.811C205.645 93.5913 206.243 93.3796 206.603 92.9561C206.963 92.5326 207.143 91.8215 207.143 90.8228V83.6741C207.143 83.0673 207.067 82.6185 206.916 82.3278C206.764 82.0371 206.48 81.7526 206.063 81.4745L203.692 79.8058C204.931 79.376 206.36 78.7851 207.978 78.0329C209.596 77.2807 211.58 76.2915 213.932 75.0652V78.4027C214.564 77.3407 215.25 76.5444 215.989 76.0134C216.729 75.4825 217.522 75.217 218.369 75.217C219.304 75.217 220.057 75.4951 220.625 76.0513C221.194 76.6075 221.479 77.3407 221.479 78.2509C221.479 79.0474 221.242 79.6857 220.768 80.1661C220.294 80.6465 219.665 80.8866 218.881 80.8866C218.173 80.8866 217.494 80.6023 216.842 80.0333C216.191 79.4645 215.777 79.1801 215.6 79.1801C215.183 79.1801 214.886 79.4582 214.709 80.0144C214.532 80.5707 214.444 81.563 214.444 82.9915V90.8228C214.444 91.8089 214.643 92.5168 215.041 92.9465C215.439 93.3764 216.093 93.5913 217.004 93.5913H217.117V94.6722H182.778ZM251.746 83.4845C250.608 83.9396 249.742 84.657 249.148 85.6367C248.554 86.6164 248.257 87.8142 248.257 89.23C248.257 90.0391 248.418 90.6838 248.74 91.1642C249.062 91.6445 249.483 91.8847 250.001 91.8847C250.671 91.8847 251.129 91.6192 251.376 91.0883C251.622 90.5573 251.746 89.23 251.746 87.1063V83.4845ZM231.058 83.4845C229.92 83.9396 229.054 84.657 228.46 85.6367C227.866 86.6164 227.569 87.8142 227.569 89.23C227.569 90.0391 227.73 90.6838 228.052 91.1642C228.375 91.6445 228.795 91.8847 229.313 91.8847C229.983 91.8847 230.442 91.6192 230.688 91.0883C230.935 90.5573 231.058 89.23 231.058 87.1063V83.4845ZM194.705 71.3297C194.705 70.2679 195.075 69.3671 195.814 68.6277C196.554 67.8881 197.455 67.5183 198.517 67.5183C199.591 67.5183 200.495 67.8881 201.228 68.6277C201.961 69.3671 202.328 70.2679 202.328 71.3297C202.328 72.3917 201.958 73.2923 201.219 74.0319C200.479 74.7713 199.578 75.1411 198.517 75.1411C197.455 75.1411 196.554 74.7745 195.814 74.0413C195.075 73.3081 194.705 72.4043 194.705 71.3297Z" fill="#3E3E3E"/>
</g>
<g filter="url(#filter0_d_520_1714)">
<rect x="82" y="824" width="264" height="56" rx="28" fill="#F8F2E9" shape-rendering="crispEdges"/>
<path d="M121 862V856C121 855.735 120.895 855.48 120.707 855.293C120.52 855.105 120.265 855 120 855H116C115.735 855 115.48 855.105 115.293 855.293C115.105 855.48 115 855.735 115 856V862C115 862.265 114.895 862.52 114.707 862.707C114.52 862.895 114.265 863 114 863H108C107.735 863 107.48 862.895 107.293 862.707C107.105 862.52 107 862.265 107 862V850.438C107.002 850.299 107.032 850.163 107.088 850.036C107.144 849.909 107.224 849.795 107.325 849.7L117.325 840.613C117.509 840.444 117.75 840.35 118 840.35C118.25 840.35 118.491 840.444 118.675 840.613L128.675 849.7C128.776 849.795 128.856 849.909 128.912 850.036C128.968 850.163 128.998 850.299 129 850.438V862C129 862.265 128.895 862.52 128.707 862.707C128.52 862.895 128.265 863 128 863H122C121.735 863 121.48 862.895 121.293 862.707C121.105 862.52 121 862.265 121 862Z" stroke="#4A4A4A" stroke-width="2" stroke-linecap="round" stroke-linejoin="round"/>
<path d="M178 845C178 843.939 178.421 842.922 179.172 842.172C179.922 841.421 180.939 841 182 841C183.061 841 184.078 841.421 184.828 842.172C185.579 842.922 186 843.939 186 845L168.4 858.2C168.232 858.326 168.108 858.501 168.045 858.702C167.983 858.902 167.985 859.117 168.051 859.316C168.118 859.515 168.245 859.689 168.415 859.811C168.586 859.934 168.79 860 169 860H195C195.21 860 195.414 859.934 195.585 859.811C195.755 859.689 195.882 859.515 195.949 859.316C196.015 859.117 196.017 858.902 195.955 858.702C195.892 858.501 195.768 858.326 195.6 858.2L182 848" stroke="#4A4A4A" stroke-width="2" stroke-linecap="round" stroke-linejoin="round"/>
<path d="M246 856C250.418 856 254 852.418 254 848C254 843.582 250.418 840 246 840C241.582 840 238 843.582 238 848C238 852.418 241.582 856 246 856Z" fill="#4A4A4A"/>
<path d="M234 863C235.216 860.264 236.965 857.991 239.072 856.412C241.178 854.832 243.568 854 246 854C248.432 854 250.822 854.832 252.928 856.412C255.035 857.991 256.784 860.264 258 863" fill="#4A4A4A"/>
<path d="M305.954 841.143L306.937 838.606C307.103 838.176 307.394 837.807 307.774 837.546C308.153 837.285 308.602 837.144 309.063 837.143H310.937C311.397 837.144 311.847 837.285 312.226 837.546C312.605 837.807 312.897 838.176 313.063 838.606L314.046 841.143L317.383 843.063L320.08 842.651C320.529 842.59 320.986 842.664 321.393 842.864C321.8 843.063 322.139 843.379 322.366 843.771L323.28 845.371C323.514 845.77 323.622 846.23 323.589 846.691C323.557 847.152 323.385 847.593 323.097 847.954L321.428 850.08V853.92L323.143 856.046C323.431 856.407 323.603 856.848 323.635 857.309C323.668 857.77 323.56 858.23 323.326 858.629L322.411 860.229C322.184 860.621 321.846 860.937 321.439 861.136C321.032 861.336 320.575 861.409 320.126 861.349L317.428 860.937L314.091 862.857L313.108 865.394C312.943 865.824 312.651 866.193 312.272 866.454C311.892 866.715 311.443 866.856 310.983 866.857H309.063C308.602 866.856 308.153 866.715 307.774 866.454C307.394 866.193 307.103 865.824 306.937 865.394L305.954 862.857L302.617 860.937L299.92 861.349C299.471 861.409 299.014 861.336 298.607 861.136C298.2 860.937 297.861 860.621 297.634 860.229L296.72 858.629C296.486 858.23 296.378 857.77 296.41 857.309C296.443 856.848 296.615 856.407 296.903 856.046L298.571 853.92V850.08L296.857 847.954C296.569 847.593 296.397 847.152 296.365 846.691C296.332 846.23 296.44 845.77 296.674 845.371L297.588 843.771C297.815 843.379 298.154 843.063 298.561 842.864C298.968 842.664 299.425 842.59 299.874 842.651L302.571 843.063L305.954 841.143ZM305.428 852C305.428 852.904 305.697 853.788 306.199 854.54C306.701 855.291 307.415 855.877 308.25 856.223C309.086 856.569 310.005 856.66 310.892 856.484C311.778 856.307 312.593 855.872 313.232 855.232C313.872 854.593 314.307 853.779 314.483 852.892C314.66 852.005 314.569 851.086 314.223 850.251C313.877 849.415 313.291 848.701 312.54 848.199C311.788 847.697 310.904 847.429 310 847.429C308.787 847.429 307.625 847.91 306.767 848.767C305.91 849.625 305.428 850.788 305.428 852V852Z" stroke="#3E3E3E" stroke-width="2" stroke-linecap="round" stroke-linejoin="round"/>
</g>
<path d="M381 116H359C358.448 116 358 116.448 358 117V135C358 135.552 358.448 136 359 136H381C381.552 136 382 135.552 382 135V117C382 116.448 381.552 116 381 116Z" stroke="#3E3E3E" stroke-width="2" stroke-linecap="round" stroke-linejoin="round"/>
<path d="M375 121C375 122.326 374.473 123.598 373.536 124.536C372.598 125.473 371.326 126 370 126C368.674 126 367.402 125.473 366.464 124.536C365.527 123.598 365 122.326 365 121" stroke="#3E3E3E" stroke-width="2" stroke-linecap="round" stroke-linejoin="round"/>
<path d="M56.6188 195.238L51 189.619L56.6188 184" stroke="#3E3E3E" stroke-width="2.65192" stroke-linecap="round" stroke-linejoin="round"/>
<path d="M51 189.619H64.2596" stroke="#3E3E3E" stroke-width="2.65192" stroke-linecap="round" stroke-linejoin="round"/>
<path d="M118.62 273V258.54H123.94C124.993 258.54 125.937 258.723 126.77 259.09C127.603 259.45 128.26 259.983 128.74 260.69C129.227 261.397 129.47 262.26 129.47 263.28C129.47 264.24 129.257 265.06 128.83 265.74C128.403 266.42 127.803 266.94 127.03 267.3C126.263 267.66 125.36 267.84 124.32 267.84H121.56V273H118.62ZM121.53 265.58H124.24C124.973 265.58 125.573 265.347 126.04 264.88C126.507 264.407 126.74 263.823 126.74 263.13C126.74 262.41 126.493 261.84 126 261.42C125.507 260.993 124.907 260.78 124.2 260.78H121.53V265.58ZM131.297 273V262.66H134.107V265.11C134.274 264.583 134.507 264.123 134.807 263.73C135.114 263.33 135.484 263.02 135.917 262.8C136.35 262.573 136.84 262.46 137.387 262.46C137.48 262.46 137.567 262.467 137.647 262.48C137.734 262.487 137.797 262.5 137.837 262.52V265.3C137.777 265.273 137.704 265.257 137.617 265.25C137.537 265.243 137.464 265.237 137.397 265.23C136.824 265.183 136.334 265.2 135.927 265.28C135.52 265.36 135.19 265.497 134.937 265.69C134.684 265.883 134.5 266.12 134.387 266.4C134.274 266.68 134.217 266.993 134.217 267.34V273H131.297ZM143.823 273.2C142.809 273.2 141.926 272.983 141.173 272.55C140.426 272.117 139.846 271.503 139.433 270.71C139.026 269.917 138.823 268.977 138.823 267.89C138.823 266.803 139.026 265.853 139.433 265.04C139.846 264.227 140.426 263.593 141.173 263.14C141.926 262.687 142.813 262.46 143.833 262.46C144.853 262.46 145.736 262.683 146.483 263.13C147.229 263.57 147.806 264.197 148.213 265.01C148.619 265.823 148.823 266.783 148.823 267.89C148.823 268.93 148.623 269.85 148.223 270.65C147.829 271.443 147.259 272.067 146.513 272.52C145.773 272.973 144.876 273.2 143.823 273.2ZM143.833 271.03C144.346 271.03 144.759 270.88 145.073 270.58C145.386 270.28 145.613 269.887 145.753 269.4C145.899 268.907 145.973 268.37 145.973 267.79C145.973 267.243 145.906 266.727 145.773 266.24C145.646 265.753 145.426 265.36 145.113 265.06C144.799 264.76 144.373 264.61 143.833 264.61C143.319 264.61 142.903 264.753 142.583 265.04C142.269 265.32 142.039 265.703 141.893 266.19C141.746 266.67 141.673 267.203 141.673 267.79C141.673 268.33 141.739 268.85 141.873 269.35C142.006 269.843 142.229 270.247 142.543 270.56C142.856 270.873 143.286 271.03 143.833 271.03ZM156.748 262.66V264.69H154.568V273H151.648V264.69H149.738V262.66H151.648V261.17C151.648 260.337 151.891 259.69 152.378 259.23C152.871 258.77 153.568 258.54 154.467 258.54H156.838L156.848 260.48H155.488C155.114 260.48 154.858 260.573 154.718 260.76C154.584 260.94 154.518 261.24 154.518 261.66V262.66H156.748ZM161.398 262.66V273H158.608V262.66H161.398ZM161.428 258.55V261.18H158.588V258.55H161.428ZM167.409 273.18C166.649 273.18 166.046 273.09 165.599 272.91C165.153 272.73 164.823 272.493 164.609 272.2C164.396 271.9 164.259 271.57 164.199 271.21C164.139 270.843 164.109 270.473 164.109 270.1V258.14H166.969V269.74C166.969 270.12 167.049 270.43 167.209 270.67C167.376 270.903 167.686 271.047 168.139 271.1L168.629 271.13V272.93C168.429 272.997 168.226 273.053 168.019 273.1C167.813 273.153 167.609 273.18 167.409 273.18ZM172.896 268.5C172.889 269.027 172.973 269.487 173.146 269.88C173.319 270.267 173.569 270.567 173.896 270.78C174.229 270.987 174.629 271.09 175.096 271.09C175.596 271.09 176.033 270.983 176.406 270.77C176.786 270.557 177.049 270.207 177.196 269.72H179.826C179.713 270.453 179.419 271.08 178.946 271.6C178.479 272.12 177.913 272.517 177.246 272.79C176.579 273.063 175.886 273.2 175.166 273.2C174.146 273.2 173.246 272.987 172.466 272.56C171.693 272.127 171.089 271.517 170.656 270.73C170.223 269.943 170.006 269.017 170.006 267.95C170.006 266.917 170.203 265.987 170.596 265.16C170.989 264.327 171.559 263.67 172.306 263.19C173.059 262.703 173.963 262.46 175.016 262.46C176.069 262.46 176.953 262.683 177.666 263.13C178.386 263.57 178.926 264.187 179.286 264.98C179.653 265.767 179.836 266.677 179.836 267.71V268.5H172.896ZM172.886 266.76H177.106C177.106 266.347 177.029 265.967 176.876 265.62C176.723 265.273 176.489 265 176.176 264.8C175.869 264.6 175.483 264.5 175.016 264.5C174.563 264.5 174.176 264.61 173.856 264.83C173.543 265.043 173.303 265.323 173.136 265.67C172.969 266.017 172.886 266.38 172.886 266.76ZM186.413 273V258.54H190.653L193.963 268.85L197.303 258.54H201.533V273H198.583V261.94L195.103 273H192.813L189.353 261.99V273H186.413ZM207.383 273.2C206.723 273.2 206.129 273.077 205.603 272.83C205.076 272.583 204.659 272.227 204.353 271.76C204.046 271.287 203.893 270.713 203.893 270.04C203.893 268.907 204.316 268.047 205.163 267.46C206.009 266.867 207.346 266.56 209.173 266.54L210.463 266.52V265.9C210.463 265.427 210.323 265.063 210.043 264.81C209.769 264.55 209.343 264.423 208.763 264.43C208.336 264.437 207.929 264.537 207.543 264.73C207.163 264.923 206.903 265.26 206.763 265.74H204.333C204.373 264.993 204.589 264.38 204.983 263.9C205.376 263.413 205.909 263.053 206.583 262.82C207.263 262.58 208.033 262.46 208.893 262.46C209.953 262.46 210.803 262.593 211.443 262.86C212.083 263.12 212.546 263.497 212.833 263.99C213.119 264.477 213.263 265.057 213.263 265.73V273H210.823L210.583 271.22C210.229 271.967 209.786 272.483 209.253 272.77C208.726 273.057 208.103 273.2 207.383 273.2ZM208.363 271.28C208.629 271.28 208.886 271.233 209.133 271.14C209.386 271.04 209.609 270.91 209.803 270.75C210.003 270.583 210.163 270.397 210.283 270.19C210.403 269.983 210.463 269.77 210.463 269.55V268.02L209.413 268.04C208.926 268.047 208.473 268.107 208.053 268.22C207.633 268.327 207.293 268.503 207.033 268.75C206.779 268.997 206.653 269.33 206.653 269.75C206.653 270.23 206.819 270.607 207.153 270.88C207.486 271.147 207.889 271.28 208.363 271.28ZM215.848 273V262.66H218.718V264.12C218.878 263.867 219.084 263.623 219.338 263.39C219.598 263.15 219.924 262.953 220.318 262.8C220.711 262.647 221.178 262.57 221.718 262.57C222.351 262.57 222.941 262.693 223.488 262.94C224.041 263.187 224.488 263.577 224.828 264.11C225.168 264.637 225.338 265.327 225.338 266.18V273H222.418V266.54C222.418 265.98 222.251 265.56 221.918 265.28C221.584 265 221.178 264.86 220.698 264.86C220.378 264.86 220.068 264.917 219.768 265.03C219.474 265.143 219.234 265.313 219.048 265.54C218.861 265.767 218.768 266.047 218.768 266.38V273H215.848ZM230.625 273.2C229.965 273.2 229.372 273.077 228.845 272.83C228.318 272.583 227.902 272.227 227.595 271.76C227.288 271.287 227.135 270.713 227.135 270.04C227.135 268.907 227.558 268.047 228.405 267.46C229.252 266.867 230.588 266.56 232.415 266.54L233.705 266.52V265.9C233.705 265.427 233.565 265.063 233.285 264.81C233.012 264.55 232.585 264.423 232.005 264.43C231.578 264.437 231.172 264.537 230.785 264.73C230.405 264.923 230.145 265.26 230.005 265.74H227.575C227.615 264.993 227.832 264.38 228.225 263.9C228.618 263.413 229.152 263.053 229.825 262.82C230.505 262.58 231.275 262.46 232.135 262.46C233.195 262.46 234.045 262.593 234.685 262.86C235.325 263.12 235.788 263.497 236.075 263.99C236.362 264.477 236.505 265.057 236.505 265.73V273H234.065L233.825 271.22C233.472 271.967 233.028 272.483 232.495 272.77C231.968 273.057 231.345 273.2 230.625 273.2ZM231.605 271.28C231.872 271.28 232.128 271.233 232.375 271.14C232.628 271.04 232.852 270.91 233.045 270.75C233.245 270.583 233.405 270.397 233.525 270.19C233.645 269.983 233.705 269.77 233.705 269.55V268.02L232.655 268.04C232.168 268.047 231.715 268.107 231.295 268.22C230.875 268.327 230.535 268.503 230.275 268.75C230.022 268.997 229.895 269.33 229.895 269.75C229.895 270.23 230.062 270.607 230.395 270.88C230.728 271.147 231.132 271.28 231.605 271.28ZM243.88 276.42C242.04 276.42 240.64 276.187 239.68 275.72C238.727 275.253 238.25 274.64 238.25 273.88C238.25 273.527 238.343 273.23 238.53 272.99C238.717 272.75 238.933 272.56 239.18 272.42C239.433 272.273 239.663 272.163 239.87 272.09C240.083 272.01 240.213 271.957 240.26 271.93C240.153 271.87 240 271.783 239.8 271.67C239.6 271.55 239.413 271.39 239.24 271.19C239.073 270.983 238.99 270.717 238.99 270.39C238.99 270.023 239.163 269.683 239.51 269.37C239.863 269.057 240.397 268.84 241.11 268.72C240.43 268.4 239.913 267.967 239.56 267.42C239.207 266.873 239.03 266.313 239.03 265.74C239.03 265.06 239.243 264.477 239.67 263.99C240.097 263.503 240.677 263.133 241.41 262.88C242.15 262.627 242.987 262.5 243.92 262.5C244.633 262.5 245.217 262.577 245.67 262.73C246.123 262.877 246.543 263.07 246.93 263.31C247.083 263.25 247.287 263.173 247.54 263.08C247.793 262.98 248.067 262.873 248.36 262.76C248.653 262.64 248.94 262.523 249.22 262.41C249.5 262.29 249.75 262.183 249.97 262.09L249.96 264.35L248.17 264.64C248.243 264.82 248.3 265.013 248.34 265.22C248.38 265.427 248.4 265.597 248.4 265.73C248.4 266.33 248.223 266.89 247.87 267.41C247.523 267.93 247 268.35 246.3 268.67C245.607 268.99 244.747 269.15 243.72 269.15C243.593 269.15 243.423 269.147 243.21 269.14C243.003 269.133 242.833 269.123 242.7 269.11C242.307 269.13 242.037 269.18 241.89 269.26C241.743 269.34 241.67 269.433 241.67 269.54C241.67 269.7 241.82 269.807 242.12 269.86C242.42 269.907 242.873 269.95 243.48 269.99C243.693 270.003 243.99 270.02 244.37 270.04C244.75 270.06 245.17 270.087 245.63 270.12C246.897 270.207 247.84 270.52 248.46 271.06C249.087 271.593 249.4 272.267 249.4 273.08C249.4 274.047 248.94 274.843 248.02 275.47C247.107 276.103 245.727 276.42 243.88 276.42ZM244.35 274.79C245.163 274.79 245.743 274.69 246.09 274.49C246.437 274.29 246.61 274.003 246.61 273.63C246.61 273.317 246.477 273.063 246.21 272.87C245.943 272.67 245.553 272.553 245.04 272.52L242.67 272.36C242.363 272.347 242.09 272.393 241.85 272.5C241.617 272.607 241.433 272.753 241.3 272.94C241.173 273.127 241.11 273.327 241.11 273.54C241.11 273.973 241.373 274.29 241.9 274.49C242.427 274.69 243.243 274.79 244.35 274.79ZM243.8 267.52C244.353 267.52 244.797 267.37 245.13 267.07C245.47 266.763 245.64 266.35 245.64 265.83C245.64 265.29 245.47 264.857 245.13 264.53C244.797 264.203 244.353 264.04 243.8 264.04C243.253 264.04 242.807 264.203 242.46 264.53C242.12 264.857 241.95 265.29 241.95 265.83C241.95 266.343 242.113 266.753 242.44 267.06C242.773 267.367 243.227 267.52 243.8 267.52ZM253.795 268.5C253.788 269.027 253.871 269.487 254.045 269.88C254.218 270.267 254.468 270.567 254.795 270.78C255.128 270.987 255.528 271.09 255.995 271.09C256.495 271.09 256.931 270.983 257.305 270.77C257.685 270.557 257.948 270.207 258.095 269.72H260.725C260.611 270.453 260.318 271.08 259.845 271.6C259.378 272.12 258.811 272.517 258.145 272.79C257.478 273.063 256.785 273.2 256.065 273.2C255.045 273.2 254.145 272.987 253.365 272.56C252.591 272.127 251.988 271.517 251.555 270.73C251.121 269.943 250.905 269.017 250.905 267.95C250.905 266.917 251.101 265.987 251.495 265.16C251.888 264.327 252.458 263.67 253.205 263.19C253.958 262.703 254.861 262.46 255.915 262.46C256.968 262.46 257.851 262.683 258.565 263.13C259.285 263.57 259.825 264.187 260.185 264.98C260.551 265.767 260.735 266.677 260.735 267.71V268.5H253.795ZM253.785 266.76H258.005C258.005 266.347 257.928 265.967 257.775 265.62C257.621 265.273 257.388 265 257.075 264.8C256.768 264.6 256.381 264.5 255.915 264.5C255.461 264.5 255.075 264.61 254.755 264.83C254.441 265.043 254.201 265.323 254.035 265.67C253.868 266.017 253.785 266.38 253.785 266.76ZM262.762 273V262.66H265.622V264.12C265.935 263.667 266.355 263.277 266.882 262.95C267.415 262.623 268.085 262.46 268.892 262.46C269.245 262.46 269.605 262.523 269.972 262.65C270.338 262.777 270.682 262.963 271.002 263.21C271.328 263.45 271.592 263.753 271.792 264.12C272.125 263.647 272.562 263.253 273.102 262.94C273.648 262.62 274.255 262.46 274.922 262.46C275.308 262.46 275.698 262.523 276.092 262.65C276.492 262.777 276.858 262.983 277.192 263.27C277.525 263.557 277.792 263.94 277.992 264.42C278.198 264.893 278.302 265.48 278.302 266.18V273H275.382V266.54C275.382 266.127 275.298 265.797 275.132 265.55C274.972 265.297 274.765 265.117 274.512 265.01C274.265 264.897 274.002 264.84 273.722 264.84C273.462 264.84 273.198 264.893 272.932 265C272.665 265.1 272.438 265.263 272.252 265.49C272.065 265.717 271.972 266.013 271.972 266.38V273H269.062V266.28C269.062 265.967 268.978 265.703 268.812 265.49C268.645 265.277 268.435 265.117 268.182 265.01C267.935 264.897 267.682 264.84 267.422 264.84C267.155 264.84 266.888 264.897 266.622 265.01C266.355 265.117 266.132 265.287 265.952 265.52C265.772 265.747 265.682 266.033 265.682 266.38V273H262.762ZM283.072 268.5C283.065 269.027 283.149 269.487 283.322 269.88C283.495 270.267 283.745 270.567 284.072 270.78C284.405 270.987 284.805 271.09 285.272 271.09C285.772 271.09 286.209 270.983 286.582 270.77C286.962 270.557 287.225 270.207 287.372 269.72H290.002C289.889 270.453 289.595 271.08 289.122 271.6C288.655 272.12 288.089 272.517 287.422 272.79C286.755 273.063 286.062 273.2 285.342 273.2C284.322 273.2 283.422 272.987 282.642 272.56C281.869 272.127 281.265 271.517 280.832 270.73C280.399 269.943 280.182 269.017 280.182 267.95C280.182 266.917 280.379 265.987 280.772 265.16C281.165 264.327 281.735 263.67 282.482 263.19C283.235 262.703 284.139 262.46 285.192 262.46C286.245 262.46 287.129 262.683 287.842 263.13C288.562 263.57 289.102 264.187 289.462 264.98C289.829 265.767 290.012 266.677 290.012 267.71V268.5H283.072ZM283.062 266.76H287.282C287.282 266.347 287.205 265.967 287.052 265.62C286.899 265.273 286.665 265 286.352 264.8C286.045 264.6 285.659 264.5 285.192 264.5C284.739 264.5 284.352 264.61 284.032 264.83C283.719 265.043 283.479 265.323 283.312 265.67C283.145 266.017 283.062 266.38 283.062 266.76ZM292.039 273V262.66H294.909V264.12C295.069 263.867 295.276 263.623 295.529 263.39C295.789 263.15 296.116 262.953 296.509 262.8C296.902 262.647 297.369 262.57 297.909 262.57C298.542 262.57 299.132 262.693 299.679 262.94C300.232 263.187 300.679 263.577 301.019 264.11C301.359 264.637 301.529 265.327 301.529 266.18V273H298.609V266.54C298.609 265.98 298.442 265.56 298.109 265.28C297.776 265 297.369 264.86 296.889 264.86C296.569 264.86 296.259 264.917 295.959 265.03C295.666 265.143 295.426 265.313 295.239 265.54C295.052 265.767 294.959 266.047 294.959 266.38V273H292.039ZM309.745 264.69H307.445L307.465 270.2C307.465 270.453 307.495 270.643 307.555 270.77C307.622 270.89 307.722 270.97 307.855 271.01C307.995 271.043 308.172 271.06 308.385 271.06H309.775V272.86C309.642 272.92 309.432 272.977 309.145 273.03C308.865 273.083 308.472 273.11 307.965 273.11C307.059 273.11 306.355 272.993 305.855 272.76C305.362 272.527 305.019 272.2 304.825 271.78C304.632 271.36 304.535 270.873 304.535 270.32V264.69H302.855V262.66H304.635L305.365 259.54H307.445V262.65H309.745V264.69Z" fill="#4A4A4A"/>
<path d="M127.888 343.432H130.224V355H128.12L122.624 347.04V355H120.296V343.432H122.608L127.888 351.088V343.432ZM134.9 355.16C134.372 355.16 133.897 355.061 133.476 354.864C133.055 354.667 132.721 354.381 132.476 354.008C132.231 353.629 132.108 353.171 132.108 352.632C132.108 351.725 132.447 351.037 133.124 350.568C133.801 350.093 134.871 349.848 136.332 349.832L137.364 349.816V349.32C137.364 348.941 137.252 348.651 137.028 348.448C136.809 348.24 136.468 348.139 136.004 348.144C135.663 348.149 135.337 348.229 135.028 348.384C134.724 348.539 134.516 348.808 134.404 349.192H132.46C132.492 348.595 132.665 348.104 132.98 347.72C133.295 347.331 133.721 347.043 134.26 346.856C134.804 346.664 135.42 346.568 136.108 346.568C136.956 346.568 137.636 346.675 138.148 346.888C138.66 347.096 139.031 347.397 139.26 347.792C139.489 348.181 139.604 348.645 139.604 349.184V355H137.652L137.46 353.576C137.177 354.173 136.823 354.587 136.396 354.816C135.975 355.045 135.476 355.16 134.9 355.16ZM135.684 353.624C135.897 353.624 136.103 353.587 136.3 353.512C136.503 353.432 136.681 353.328 136.836 353.2C136.996 353.067 137.124 352.917 137.22 352.752C137.316 352.587 137.364 352.416 137.364 352.24V351.016L136.524 351.032C136.135 351.037 135.772 351.085 135.436 351.176C135.1 351.261 134.828 351.403 134.62 351.6C134.417 351.797 134.316 352.064 134.316 352.4C134.316 352.784 134.449 353.085 134.716 353.304C134.983 353.517 135.305 353.624 135.684 353.624ZM141.672 355V346.728H143.96V347.896C144.211 347.533 144.547 347.221 144.968 346.96C145.395 346.699 145.931 346.568 146.576 346.568C146.859 346.568 147.147 346.619 147.44 346.72C147.733 346.821 148.008 346.971 148.264 347.168C148.525 347.36 148.736 347.603 148.896 347.896C149.163 347.517 149.512 347.203 149.944 346.952C150.381 346.696 150.867 346.568 151.4 346.568C151.709 346.568 152.021 346.619 152.336 346.72C152.656 346.821 152.949 346.987 153.216 347.216C153.483 347.445 153.696 347.752 153.856 348.136C154.021 348.515 154.104 348.984 154.104 349.544V355H151.768V349.832C151.768 349.501 151.701 349.237 151.568 349.04C151.44 348.837 151.275 348.693 151.072 348.608C150.875 348.517 150.664 348.472 150.44 348.472C150.232 348.472 150.021 348.515 149.808 348.6C149.595 348.68 149.413 348.811 149.264 348.992C149.115 349.173 149.04 349.411 149.04 349.704V355H146.712V349.624C146.712 349.373 146.645 349.163 146.512 348.992C146.379 348.821 146.211 348.693 146.008 348.608C145.811 348.517 145.608 348.472 145.4 348.472C145.187 348.472 144.973 348.517 144.76 348.608C144.547 348.693 144.368 348.829 144.224 349.016C144.08 349.197 144.008 349.427 144.008 349.704V355H141.672ZM157.92 351.4C157.915 351.821 157.981 352.189 158.12 352.504C158.259 352.813 158.459 353.053 158.72 353.224C158.987 353.389 159.307 353.472 159.68 353.472C160.08 353.472 160.429 353.387 160.728 353.216C161.032 353.045 161.243 352.765 161.36 352.376H163.464C163.373 352.963 163.139 353.464 162.76 353.88C162.387 354.296 161.933 354.613 161.4 354.832C160.867 355.051 160.312 355.16 159.736 355.16C158.92 355.16 158.2 354.989 157.576 354.648C156.957 354.301 156.475 353.813 156.128 353.184C155.781 352.555 155.608 351.813 155.608 350.96C155.608 350.133 155.765 349.389 156.08 348.728C156.395 348.061 156.851 347.536 157.448 347.152C158.051 346.763 158.773 346.568 159.616 346.568C160.459 346.568 161.165 346.747 161.736 347.104C162.312 347.456 162.744 347.949 163.032 348.584C163.325 349.213 163.472 349.941 163.472 350.768V351.4H157.92ZM157.912 350.008H161.288C161.288 349.677 161.227 349.373 161.104 349.096C160.981 348.819 160.795 348.6 160.544 348.44C160.299 348.28 159.989 348.2 159.616 348.2C159.253 348.2 158.944 348.288 158.688 348.464C158.437 348.635 158.245 348.859 158.112 349.136C157.979 349.413 157.912 349.704 157.912 350.008Z" fill="#3E3E3E"/>
<path d="M293 355C295.761 355 298 352.761 298 350C298 347.239 295.761 345 293 345C290.239 345 288 347.239 288 350C288 352.761 290.239 355 293 355Z" stroke="#3E3E3E" stroke-width="2" stroke-linecap="round" stroke-linejoin="round"/>
<path d="M299.638 360C297.41 361.479 294.753 362.172 292.087 361.968C289.421 361.765 286.899 360.677 284.922 358.877C282.945 357.077 281.626 354.669 281.173 352.034C280.721 349.399 281.161 346.688 282.425 344.332C283.688 341.976 285.702 340.109 288.148 339.028C290.593 337.947 293.329 337.713 295.922 338.364C298.515 339.015 300.817 340.514 302.461 342.622C304.106 344.73 304.999 347.327 305 350C305 352.763 304 355 301.5 355C299 355 298 352.763 298 350V345" stroke="#3E3E3E" stroke-width="2" stroke-linecap="round" stroke-linejoin="round"/>
<path d="M120.296 407.432C120.355 407.432 120.517 407.432 120.784 407.432C121.056 407.432 121.373 407.432 121.736 407.432C122.104 407.432 122.469 407.435 122.832 407.44C123.2 407.44 123.507 407.443 123.752 407.448C125.155 407.48 126.299 407.731 127.184 408.2C128.069 408.669 128.717 409.325 129.128 410.168C129.544 411.011 129.752 412.008 129.752 413.16C129.752 414.36 129.533 415.397 129.096 416.272C128.659 417.141 127.989 417.813 127.088 418.288C126.192 418.763 125.053 419 123.672 419H120.296V407.432ZM122.648 409.32V417.112H123.72C124.381 417.112 124.981 416.984 125.52 416.728C126.064 416.472 126.499 416.053 126.824 415.472C127.149 414.891 127.312 414.115 127.312 413.144C127.312 412.243 127.168 411.512 126.88 410.952C126.592 410.387 126.181 409.973 125.648 409.712C125.115 409.451 124.483 409.32 123.752 409.32H122.648ZM133.436 415.4C133.43 415.821 133.497 416.189 133.636 416.504C133.774 416.813 133.974 417.053 134.236 417.224C134.502 417.389 134.822 417.472 135.196 417.472C135.596 417.472 135.945 417.387 136.244 417.216C136.548 417.045 136.758 416.765 136.876 416.376H138.98C138.889 416.963 138.654 417.464 138.276 417.88C137.902 418.296 137.449 418.613 136.916 418.832C136.382 419.051 135.828 419.16 135.252 419.16C134.436 419.16 133.716 418.989 133.092 418.648C132.473 418.301 131.99 417.813 131.644 417.184C131.297 416.555 131.124 415.813 131.124 414.96C131.124 414.133 131.281 413.389 131.596 412.728C131.91 412.061 132.366 411.536 132.964 411.152C133.566 410.763 134.289 410.568 135.132 410.568C135.974 410.568 136.681 410.747 137.252 411.104C137.828 411.456 138.26 411.949 138.548 412.584C138.841 413.213 138.988 413.941 138.988 414.768V415.4H133.436ZM133.428 414.008H136.804C136.804 413.677 136.742 413.373 136.62 413.096C136.497 412.819 136.31 412.6 136.06 412.44C135.814 412.28 135.505 412.2 135.132 412.2C134.769 412.2 134.46 412.288 134.204 412.464C133.953 412.635 133.761 412.859 133.628 413.136C133.494 413.413 133.428 413.704 133.428 414.008ZM143.249 419.144C142.641 419.144 142.159 419.072 141.801 418.928C141.444 418.784 141.18 418.595 141.009 418.36C140.839 418.12 140.729 417.856 140.681 417.568C140.633 417.275 140.609 416.979 140.609 416.68V407.112H142.897V416.392C142.897 416.696 142.961 416.944 143.089 417.136C143.223 417.323 143.471 417.437 143.833 417.48L144.225 417.504V418.944C144.065 418.997 143.903 419.043 143.737 419.08C143.572 419.123 143.409 419.144 143.249 419.144ZM148.102 410.728V419H145.87V410.728H148.102ZM148.126 407.44V409.544H145.854V407.44H148.126ZM157.331 410.728L154.227 419H152.539L149.427 410.728H151.539L153.347 416H153.411L155.195 410.728H157.331ZM160.108 415.4C160.102 415.821 160.169 416.189 160.308 416.504C160.446 416.813 160.646 417.053 160.908 417.224C161.174 417.389 161.494 417.472 161.868 417.472C162.268 417.472 162.617 417.387 162.916 417.216C163.22 417.045 163.43 416.765 163.548 416.376H165.652C165.561 416.963 165.326 417.464 164.948 417.88C164.574 418.296 164.121 418.613 163.588 418.832C163.054 419.051 162.5 419.16 161.924 419.16C161.108 419.16 160.388 418.989 159.764 418.648C159.145 418.301 158.662 417.813 158.316 417.184C157.969 416.555 157.796 415.813 157.796 414.96C157.796 414.133 157.953 413.389 158.268 412.728C158.582 412.061 159.038 411.536 159.636 411.152C160.238 410.763 160.961 410.568 161.804 410.568C162.646 410.568 163.353 410.747 163.924 411.104C164.5 411.456 164.932 411.949 165.22 412.584C165.513 413.213 165.66 413.941 165.66 414.768V415.4H160.108ZM160.1 414.008H163.476C163.476 413.677 163.414 413.373 163.292 413.096C163.169 412.819 162.982 412.6 162.732 412.44C162.486 412.28 162.177 412.2 161.804 412.2C161.441 412.2 161.132 412.288 160.876 412.464C160.625 412.635 160.433 412.859 160.3 413.136C160.166 413.413 160.1 413.704 160.1 414.008ZM167.281 419V410.728H169.529V412.688C169.663 412.267 169.849 411.899 170.089 411.584C170.335 411.264 170.631 411.016 170.977 410.84C171.324 410.659 171.716 410.568 172.153 410.568C172.228 410.568 172.297 410.573 172.361 410.584C172.431 410.589 172.481 410.6 172.513 410.616V412.84C172.465 412.819 172.407 412.805 172.337 412.8C172.273 412.795 172.215 412.789 172.161 412.784C171.703 412.747 171.311 412.76 170.985 412.824C170.66 412.888 170.396 412.997 170.193 413.152C169.991 413.307 169.844 413.496 169.753 413.72C169.663 413.944 169.617 414.195 169.617 414.472V419H167.281ZM175.413 421.64C174.848 421.64 174.448 421.592 174.213 421.496C173.984 421.405 173.869 421.36 173.869 421.36V419.872L174.685 419.904C175.042 419.925 175.33 419.907 175.549 419.848C175.768 419.795 175.933 419.723 176.045 419.632C176.162 419.541 176.245 419.445 176.293 419.344C176.341 419.248 176.376 419.171 176.397 419.112L176.549 418.656L173.333 410.728H175.645L177.629 416.12L179.637 410.728H181.917L178.565 419.048C178.277 419.752 177.973 420.291 177.653 420.664C177.333 421.037 176.986 421.293 176.613 421.432C176.245 421.571 175.845 421.64 175.413 421.64ZM186.702 407.432C186.761 407.432 186.924 407.432 187.19 407.432C187.462 407.432 187.78 407.432 188.142 407.432C188.51 407.432 188.876 407.435 189.238 407.44C189.606 407.44 189.913 407.443 190.158 407.448C191.561 407.48 192.705 407.731 193.59 408.2C194.476 408.669 195.124 409.325 195.534 410.168C195.95 411.011 196.158 412.008 196.158 413.16C196.158 414.36 195.94 415.397 195.502 416.272C195.065 417.141 194.396 417.813 193.494 418.288C192.598 418.763 191.46 419 190.078 419H186.702V407.432ZM189.054 409.32V417.112H190.126C190.788 417.112 191.388 416.984 191.926 416.728C192.47 416.472 192.905 416.053 193.23 415.472C193.556 414.891 193.718 414.115 193.718 413.144C193.718 412.243 193.574 411.512 193.286 410.952C192.998 410.387 192.588 409.973 192.054 409.712C191.521 409.451 190.889 409.32 190.158 409.32H189.054ZM199.842 415.4C199.837 415.821 199.903 416.189 200.042 416.504C200.181 416.813 200.381 417.053 200.642 417.224C200.909 417.389 201.229 417.472 201.602 417.472C202.002 417.472 202.351 417.387 202.65 417.216C202.954 417.045 203.165 416.765 203.282 416.376H205.386C205.295 416.963 205.061 417.464 204.682 417.88C204.309 418.296 203.855 418.613 203.322 418.832C202.789 419.051 202.234 419.16 201.658 419.16C200.842 419.16 200.122 418.989 199.498 418.648C198.879 418.301 198.397 417.813 198.05 417.184C197.703 416.555 197.53 415.813 197.53 414.96C197.53 414.133 197.687 413.389 198.002 412.728C198.317 412.061 198.773 411.536 199.37 411.152C199.973 410.763 200.695 410.568 201.538 410.568C202.381 410.568 203.087 410.747 203.658 411.104C204.234 411.456 204.666 411.949 204.954 412.584C205.247 413.213 205.394 413.941 205.394 414.768V415.4H199.842ZM199.834 414.008H203.21C203.21 413.677 203.149 413.373 203.026 413.096C202.903 412.819 202.717 412.6 202.466 412.44C202.221 412.28 201.911 412.2 201.538 412.2C201.175 412.2 200.866 412.288 200.61 412.464C200.359 412.635 200.167 412.859 200.034 413.136C199.901 413.413 199.834 413.704 199.834 414.008ZM211.79 412.352H209.95L209.966 416.76C209.966 416.963 209.99 417.115 210.038 417.216C210.091 417.312 210.171 417.376 210.278 417.408C210.39 417.435 210.531 417.448 210.702 417.448H211.814V418.888C211.707 418.936 211.539 418.981 211.31 419.024C211.086 419.067 210.771 419.088 210.366 419.088C209.641 419.088 209.078 418.995 208.678 418.808C208.283 418.621 208.009 418.36 207.854 418.024C207.699 417.688 207.622 417.299 207.622 416.856V412.352H206.278V410.728H207.702L208.286 408.232H209.95V410.72H211.79V412.352ZM215.9 419.16C215.372 419.16 214.897 419.061 214.476 418.864C214.055 418.667 213.721 418.381 213.476 418.008C213.231 417.629 213.108 417.171 213.108 416.632C213.108 415.725 213.447 415.037 214.124 414.568C214.801 414.093 215.871 413.848 217.332 413.832L218.364 413.816V413.32C218.364 412.941 218.252 412.651 218.028 412.448C217.809 412.24 217.468 412.139 217.004 412.144C216.663 412.149 216.337 412.229 216.028 412.384C215.724 412.539 215.516 412.808 215.404 413.192H213.46C213.492 412.595 213.665 412.104 213.98 411.72C214.295 411.331 214.721 411.043 215.26 410.856C215.804 410.664 216.42 410.568 217.108 410.568C217.956 410.568 218.636 410.675 219.148 410.888C219.66 411.096 220.031 411.397 220.26 411.792C220.489 412.181 220.604 412.645 220.604 413.184V419H218.652L218.46 417.576C218.177 418.173 217.823 418.587 217.396 418.816C216.975 419.045 216.476 419.16 215.9 419.16ZM216.684 417.624C216.897 417.624 217.103 417.587 217.3 417.512C217.503 417.432 217.681 417.328 217.836 417.2C217.996 417.067 218.124 416.917 218.22 416.752C218.316 416.587 218.364 416.416 218.364 416.24V415.016L217.524 415.032C217.135 415.037 216.772 415.085 216.436 415.176C216.1 415.261 215.828 415.403 215.62 415.6C215.417 415.797 215.316 416.064 215.316 416.4C215.316 416.784 215.449 417.085 215.716 417.304C215.983 417.517 216.305 417.624 216.684 417.624ZM225.024 410.728V419H222.792V410.728H225.024ZM225.048 407.44V409.544H222.776V407.44H225.048ZM229.828 419.144C229.22 419.144 228.737 419.072 228.38 418.928C228.022 418.784 227.758 418.595 227.588 418.36C227.417 418.12 227.308 417.856 227.26 417.568C227.212 417.275 227.188 416.979 227.188 416.68V407.112H229.476V416.392C229.476 416.696 229.54 416.944 229.668 417.136C229.801 417.323 230.049 417.437 230.411 417.48L230.804 417.504V418.944C230.644 418.997 230.481 419.043 230.316 419.08C230.15 419.123 229.988 419.144 229.828 419.144ZM235.522 419.16C234.946 419.16 234.391 419.067 233.858 418.88C233.325 418.688 232.874 418.389 232.506 417.984C232.138 417.573 231.903 417.043 231.802 416.392H233.826C233.895 416.685 234.021 416.917 234.202 417.088C234.389 417.259 234.599 417.381 234.834 417.456C235.069 417.525 235.293 417.56 235.506 417.56C235.954 417.56 236.314 417.491 236.586 417.352C236.863 417.208 237.002 416.989 237.002 416.696C237.002 416.472 236.919 416.293 236.754 416.16C236.594 416.027 236.327 415.925 235.954 415.856L234.498 415.552C233.767 415.397 233.181 415.136 232.738 414.768C232.295 414.395 232.069 413.867 232.058 413.184C232.058 412.688 232.189 412.243 232.45 411.848C232.717 411.453 233.109 411.141 233.626 410.912C234.143 410.683 234.778 410.568 235.53 410.568C236.549 410.568 237.362 410.792 237.97 411.24C238.583 411.688 238.895 412.32 238.906 413.136H236.954C236.895 412.816 236.735 412.571 236.474 412.4C236.218 412.224 235.895 412.136 235.506 412.136C235.101 412.136 234.767 412.208 234.506 412.352C234.245 412.496 234.114 412.715 234.114 413.008C234.114 413.227 234.221 413.4 234.434 413.528C234.647 413.651 234.978 413.757 235.426 413.848L236.77 414.152C237.234 414.264 237.61 414.419 237.898 414.616C238.191 414.808 238.418 415.019 238.578 415.248C238.738 415.477 238.847 415.709 238.906 415.944C238.97 416.173 239.002 416.381 239.002 416.568C239.002 417.117 238.855 417.587 238.562 417.976C238.269 418.36 237.861 418.653 237.338 418.856C236.815 419.059 236.21 419.16 235.522 419.16Z" fill="#3E3E3E"/>
<path d="M305 420.162V407.837C304.999 407.659 304.951 407.485 304.861 407.331C304.771 407.178 304.642 407.05 304.487 406.962L293.487 400.775C293.339 400.689 293.171 400.644 293 400.644C292.829 400.644 292.661 400.689 292.512 400.775L281.512 406.962C281.358 407.05 281.229 407.178 281.139 407.331C281.049 407.485 281.001 407.659 281 407.837V420.162C281.001 420.34 281.049 420.515 281.139 420.669C281.229 420.822 281.358 420.949 281.512 421.037L292.512 427.225C292.661 427.31 292.829 427.356 293 427.356C293.171 427.356 293.339 427.31 293.487 427.225L304.487 421.037C304.642 420.949 304.771 420.822 304.861 420.669C304.951 420.515 304.999 420.34 305 420.162V420.162Z" stroke="#3E3E3E" stroke-width="2" stroke-linecap="round" stroke-linejoin="round"/>
<path d="M299.125 417.062V410.562L287 403.875" stroke="#3E3E3E" stroke-width="2" stroke-linecap="round" stroke-linejoin="round"/>
<path d="M304.863 407.325L293.113 414L281.138 407.325" stroke="#3E3E3E" stroke-width="2" stroke-linecap="round" stroke-linejoin="round"/>
<path d="M293.112 414L293 427.35" stroke="#3E3E3E" stroke-width="2" stroke-linecap="round" stroke-linejoin="round"/>
<path d="M119.44 547L123.584 535.432H126.048L130.184 547H127.856L126.912 544.32H122.752L121.784 547H119.44ZM123.272 542.28H126.352L124.824 537.688L123.272 542.28ZM134.903 538.568C135.597 538.568 136.194 538.709 136.695 538.992C137.202 539.275 137.599 539.656 137.887 540.136C138.181 540.616 138.349 541.152 138.391 541.744H136.447C136.41 541.525 136.333 541.309 136.215 541.096C136.098 540.877 135.933 540.699 135.719 540.56C135.506 540.416 135.239 540.344 134.919 540.344C134.375 540.344 133.933 540.555 133.591 540.976C133.255 541.392 133.087 542.027 133.087 542.88C133.087 543.685 133.253 544.325 133.583 544.8C133.914 545.269 134.375 545.504 134.967 545.504C135.282 545.504 135.543 545.427 135.751 545.272C135.965 545.117 136.13 544.933 136.247 544.72C136.365 544.501 136.439 544.299 136.471 544.112H138.367C138.33 544.683 138.165 545.2 137.871 545.664C137.578 546.123 137.178 546.488 136.671 546.76C136.17 547.027 135.581 547.16 134.903 547.16C134.135 547.16 133.45 546.989 132.847 546.648C132.245 546.307 131.77 545.819 131.423 545.184C131.082 544.544 130.911 543.781 130.911 542.896C130.911 542.043 131.077 541.291 131.407 540.64C131.738 539.989 132.202 539.483 132.799 539.12C133.402 538.752 134.103 538.568 134.903 538.568ZM143.544 538.568C144.237 538.568 144.835 538.709 145.336 538.992C145.843 539.275 146.24 539.656 146.528 540.136C146.821 540.616 146.989 541.152 147.032 541.744H145.088C145.051 541.525 144.973 541.309 144.856 541.096C144.739 540.877 144.573 540.699 144.36 540.56C144.147 540.416 143.88 540.344 143.56 540.344C143.016 540.344 142.573 540.555 142.232 540.976C141.896 541.392 141.728 542.027 141.728 542.88C141.728 543.685 141.893 544.325 142.224 544.8C142.555 545.269 143.016 545.504 143.608 545.504C143.923 545.504 144.184 545.427 144.392 545.272C144.605 545.117 144.771 544.933 144.888 544.72C145.005 544.501 145.08 544.299 145.112 544.112H147.008C146.971 544.683 146.805 545.2 146.512 545.664C146.219 546.123 145.819 546.488 145.312 546.76C144.811 547.027 144.221 547.16 143.544 547.16C142.776 547.16 142.091 546.989 141.488 546.648C140.885 546.307 140.411 545.819 140.064 545.184C139.723 544.544 139.552 543.781 139.552 542.896C139.552 542.043 139.717 541.291 140.048 540.64C140.379 539.989 140.843 539.483 141.44 539.12C142.043 538.752 142.744 538.568 143.544 538.568ZM152.193 547.16C151.382 547.16 150.675 546.987 150.073 546.64C149.475 546.293 149.011 545.803 148.681 545.168C148.355 544.533 148.193 543.781 148.193 542.912C148.193 542.043 148.355 541.283 148.681 540.632C149.011 539.981 149.475 539.475 150.073 539.112C150.675 538.749 151.385 538.568 152.201 538.568C153.017 538.568 153.723 538.747 154.321 539.104C154.918 539.456 155.379 539.957 155.705 540.608C156.03 541.259 156.193 542.027 156.193 542.912C156.193 543.744 156.033 544.48 155.713 545.12C155.398 545.755 154.942 546.253 154.345 546.616C153.753 546.979 153.035 547.16 152.193 547.16ZM152.201 545.424C152.611 545.424 152.942 545.304 153.193 545.064C153.443 544.824 153.625 544.509 153.737 544.12C153.854 543.725 153.913 543.296 153.913 542.832C153.913 542.395 153.859 541.981 153.753 541.592C153.651 541.203 153.475 540.888 153.225 540.648C152.974 540.408 152.633 540.288 152.201 540.288C151.79 540.288 151.457 540.403 151.201 540.632C150.95 540.856 150.766 541.163 150.649 541.552C150.531 541.936 150.473 542.363 150.473 542.832C150.473 543.264 150.526 543.68 150.633 544.08C150.739 544.475 150.918 544.797 151.169 545.048C151.419 545.299 151.763 545.424 152.201 545.424ZM160.704 547.16C160.32 547.16 159.942 547.101 159.568 546.984C159.2 546.867 158.864 546.693 158.56 546.464C158.256 546.235 158.011 545.952 157.824 545.616C157.643 545.28 157.552 544.891 157.552 544.448V538.728H159.888V544.152C159.888 544.536 160.014 544.851 160.264 545.096C160.515 545.341 160.883 545.464 161.368 545.464C161.827 545.464 162.19 545.347 162.456 545.112C162.728 544.872 162.864 544.539 162.864 544.112V538.728H165.176V547H163.416L163.144 545.36C163.048 545.845 162.867 546.219 162.6 546.48C162.339 546.736 162.038 546.912 161.696 547.008C161.36 547.109 161.03 547.16 160.704 547.16ZM167.125 547V538.728H169.421V539.896C169.549 539.693 169.714 539.499 169.917 539.312C170.125 539.12 170.386 538.963 170.701 538.84C171.016 538.717 171.389 538.656 171.821 538.656C172.328 538.656 172.8 538.755 173.237 538.952C173.68 539.149 174.037 539.461 174.309 539.888C174.581 540.309 174.717 540.861 174.717 541.544V547H172.381V541.832C172.381 541.384 172.248 541.048 171.981 540.824C171.714 540.6 171.389 540.488 171.005 540.488C170.749 540.488 170.501 540.533 170.261 540.624C170.026 540.715 169.834 540.851 169.685 541.032C169.536 541.213 169.461 541.437 169.461 541.704V547H167.125ZM181.29 540.352H179.45L179.466 544.76C179.466 544.963 179.49 545.115 179.538 545.216C179.591 545.312 179.671 545.376 179.778 545.408C179.89 545.435 180.031 545.448 180.202 545.448H181.314V546.888C181.207 546.936 181.039 546.981 180.81 547.024C180.586 547.067 180.271 547.088 179.866 547.088C179.141 547.088 178.578 546.995 178.178 546.808C177.783 546.621 177.509 546.36 177.354 546.024C177.199 545.688 177.122 545.299 177.122 544.856V540.352H175.778V538.728H177.202L177.786 536.232H179.45V538.72H181.29V540.352ZM191.046 547.16C190.476 547.16 189.916 547.088 189.366 546.944C188.817 546.8 188.316 546.584 187.862 546.296C187.409 546.008 187.033 545.648 186.734 545.216C186.441 544.784 186.265 544.277 186.206 543.696H188.598C188.678 544.048 188.83 544.344 189.054 544.584C189.278 544.824 189.561 545.008 189.902 545.136C190.244 545.264 190.622 545.328 191.038 545.328C191.465 545.328 191.854 545.275 192.206 545.168C192.558 545.061 192.841 544.901 193.054 544.688C193.268 544.469 193.374 544.197 193.374 543.872C193.374 543.579 193.286 543.339 193.11 543.152C192.94 542.965 192.708 542.813 192.414 542.696C192.121 542.579 191.788 542.483 191.414 542.408L189.414 542C188.54 541.835 187.846 541.488 187.334 540.96C186.822 540.427 186.558 539.717 186.542 538.832C186.537 538.107 186.729 537.48 187.118 536.952C187.513 536.419 188.046 536.008 188.718 535.72C189.396 535.432 190.153 535.288 190.99 535.288C191.988 535.288 192.825 535.445 193.502 535.76C194.185 536.069 194.702 536.491 195.054 537.024C195.412 537.552 195.596 538.141 195.606 538.792H193.262C193.22 538.387 193.097 538.064 192.894 537.824C192.692 537.584 192.43 537.411 192.11 537.304C191.796 537.197 191.436 537.144 191.03 537.144C190.721 537.144 190.438 537.179 190.182 537.248C189.932 537.317 189.718 537.416 189.542 537.544C189.366 537.667 189.23 537.813 189.134 537.984C189.038 538.155 188.99 538.347 188.99 538.56C188.99 538.896 189.102 539.168 189.326 539.376C189.55 539.584 189.969 539.755 190.582 539.888L192.566 540.296C193.276 540.435 193.838 540.64 194.254 540.912C194.676 541.184 194.99 541.491 195.198 541.832C195.412 542.173 195.55 542.523 195.614 542.88C195.684 543.232 195.718 543.557 195.718 543.856C195.718 544.48 195.521 545.043 195.126 545.544C194.737 546.04 194.193 546.435 193.494 546.728C192.796 547.016 191.98 547.16 191.046 547.16ZM202.306 540.352H200.466L200.482 544.76C200.482 544.963 200.506 545.115 200.554 545.216C200.607 545.312 200.687 545.376 200.794 545.408C200.906 545.435 201.047 545.448 201.218 545.448H202.33V546.888C202.223 546.936 202.055 546.981 201.826 547.024C201.602 547.067 201.287 547.088 200.882 547.088C200.156 547.088 199.594 546.995 199.194 546.808C198.799 546.621 198.524 546.36 198.37 546.024C198.215 545.688 198.138 545.299 198.138 544.856V540.352H196.794V538.728H198.218L198.802 536.232H200.466V538.72H202.306V540.352ZM206.416 547.16C205.888 547.16 205.413 547.061 204.992 546.864C204.57 546.667 204.237 546.381 203.992 546.008C203.746 545.629 203.624 545.171 203.624 544.632C203.624 543.725 203.962 543.037 204.64 542.568C205.317 542.093 206.386 541.848 207.848 541.832L208.88 541.816V541.32C208.88 540.941 208.768 540.651 208.544 540.448C208.325 540.24 207.984 540.139 207.52 540.144C207.178 540.149 206.853 540.229 206.544 540.384C206.24 540.539 206.032 540.808 205.92 541.192H203.976C204.008 540.595 204.181 540.104 204.496 539.72C204.81 539.331 205.237 539.043 205.776 538.856C206.32 538.664 206.936 538.568 207.624 538.568C208.472 538.568 209.152 538.675 209.664 538.888C210.176 539.096 210.546 539.397 210.776 539.792C211.005 540.181 211.12 540.645 211.12 541.184V547H209.168L208.976 545.576C208.693 546.173 208.338 546.587 207.912 546.816C207.49 547.045 206.992 547.16 206.416 547.16ZM207.2 545.624C207.413 545.624 207.618 545.587 207.816 545.512C208.018 545.432 208.197 545.328 208.352 545.2C208.512 545.067 208.64 544.917 208.736 544.752C208.832 544.587 208.88 544.416 208.88 544.24V543.016L208.04 543.032C207.65 543.037 207.288 543.085 206.952 543.176C206.616 543.261 206.344 543.403 206.136 543.6C205.933 543.797 205.832 544.064 205.832 544.4C205.832 544.784 205.965 545.085 206.232 545.304C206.498 545.517 206.821 545.624 207.2 545.624ZM217.868 540.352H216.028L216.044 544.76C216.044 544.963 216.068 545.115 216.116 545.216C216.169 545.312 216.249 545.376 216.356 545.408C216.468 545.435 216.609 545.448 216.78 545.448H217.892V546.888C217.785 546.936 217.617 546.981 217.388 547.024C217.164 547.067 216.849 547.088 216.444 547.088C215.719 547.088 215.156 546.995 214.756 546.808C214.361 546.621 214.087 546.36 213.932 546.024C213.777 545.688 213.7 545.299 213.7 544.856V540.352H212.356V538.728H213.78L214.364 536.232H216.028V538.72H217.868V540.352ZM222.564 547.16C222.18 547.16 221.801 547.101 221.428 546.984C221.06 546.867 220.724 546.693 220.42 546.464C220.116 546.235 219.87 545.952 219.684 545.616C219.502 545.28 219.412 544.891 219.412 544.448V538.728H221.748V544.152C221.748 544.536 221.873 544.851 222.124 545.096C222.374 545.341 222.742 545.464 223.228 545.464C223.686 545.464 224.049 545.347 224.316 545.112C224.588 544.872 224.724 544.539 224.724 544.112V538.728H227.036V547H225.276L225.004 545.36C224.908 545.845 224.726 546.219 224.46 546.48C224.198 546.736 223.897 546.912 223.556 547.008C223.22 547.109 222.889 547.16 222.564 547.16ZM232.21 547.16C231.634 547.16 231.079 547.067 230.546 546.88C230.012 546.688 229.562 546.389 229.194 545.984C228.826 545.573 228.591 545.043 228.49 544.392H230.514C230.583 544.685 230.708 544.917 230.89 545.088C231.076 545.259 231.287 545.381 231.522 545.456C231.756 545.525 231.98 545.56 232.194 545.56C232.642 545.56 233.002 545.491 233.274 545.352C233.551 545.208 233.69 544.989 233.69 544.696C233.69 544.472 233.607 544.293 233.442 544.16C233.282 544.027 233.015 543.925 232.641 543.856L231.186 543.552C230.455 543.397 229.868 543.136 229.426 542.768C228.983 542.395 228.756 541.867 228.746 541.184C228.746 540.688 228.876 540.243 229.138 539.848C229.404 539.453 229.796 539.141 230.314 538.912C230.831 538.683 231.466 538.568 232.218 538.568C233.236 538.568 234.05 538.792 234.658 539.24C235.271 539.688 235.583 540.32 235.594 541.136H233.642C233.583 540.816 233.423 540.571 233.162 540.4C232.906 540.224 232.583 540.136 232.194 540.136C231.788 540.136 231.455 540.208 231.194 540.352C230.932 540.496 230.802 540.715 230.802 541.008C230.802 541.227 230.908 541.4 231.122 541.528C231.335 541.651 231.666 541.757 232.114 541.848L233.458 542.152C233.922 542.264 234.298 542.419 234.586 542.616C234.879 542.808 235.106 543.019 235.266 543.248C235.426 543.477 235.535 543.709 235.594 543.944C235.658 544.173 235.69 544.381 235.69 544.568C235.69 545.117 235.543 545.587 235.25 545.976C234.956 546.36 234.548 546.653 234.026 546.856C233.503 547.059 232.898 547.16 232.21 547.16Z" fill="#3E3E3E"/>
<path d="M293 554C299.627 554 305 548.627 305 542C305 535.373 299.627 530 293 530C286.373 530 281 535.373 281 542C281 548.627 286.373 554 293 554Z" stroke="#3E3E3E" stroke-width="2" stroke-linecap="round" stroke-linejoin="round"/>
<path d="M293 546C295.761 546 298 543.761 298 541C298 538.239 295.761 536 293 536C290.239 536 288 538.239 288 541C288 543.761 290.239 546 293 546Z" stroke="#3E3E3E" stroke-width="2" stroke-linecap="round" stroke-linejoin="round"/>
<path d="M284.975 550.925C285.727 549.443 286.876 548.198 288.292 547.329C289.709 546.459 291.338 545.999 293 545.999C294.662 545.999 296.292 546.459 297.708 547.329C299.125 548.198 300.273 549.443 301.025 550.925" stroke="#3E3E3E" stroke-width="2" stroke-linecap="round" stroke-linejoin="round"/>
<path d="M129.272 483H126.848L124.968 478.544H122.624V483H120.296V471.432H125.176C126.099 471.432 126.853 471.579 127.44 471.872C128.027 472.165 128.459 472.573 128.736 473.096C129.013 473.613 129.152 474.211 129.152 474.888C129.152 475.496 129.056 476.011 128.864 476.432C128.677 476.848 128.429 477.195 128.12 477.472C127.816 477.749 127.483 477.976 127.12 478.152L129.272 483ZM124.76 476.744C125.384 476.744 125.877 476.576 126.24 476.24C126.608 475.904 126.792 475.472 126.792 474.944C126.792 474.411 126.616 473.989 126.264 473.68C125.912 473.371 125.467 473.216 124.928 473.216H122.624V476.744H124.76ZM132.764 479.4C132.758 479.821 132.825 480.189 132.964 480.504C133.102 480.813 133.302 481.053 133.564 481.224C133.83 481.389 134.15 481.472 134.524 481.472C134.924 481.472 135.273 481.387 135.572 481.216C135.876 481.045 136.086 480.765 136.204 480.376H138.308C138.217 480.963 137.982 481.464 137.604 481.88C137.23 482.296 136.777 482.613 136.244 482.832C135.71 483.051 135.156 483.16 134.58 483.16C133.764 483.16 133.044 482.989 132.42 482.648C131.801 482.301 131.318 481.813 130.972 481.184C130.625 480.555 130.452 479.813 130.452 478.96C130.452 478.133 130.609 477.389 130.924 476.728C131.238 476.061 131.694 475.536 132.292 475.152C132.894 474.763 133.617 474.568 134.46 474.568C135.302 474.568 136.009 474.747 136.58 475.104C137.156 475.456 137.588 475.949 137.876 476.584C138.169 477.213 138.316 477.941 138.316 478.768V479.4H132.764ZM132.756 478.008H136.132C136.132 477.677 136.07 477.373 135.948 477.096C135.825 476.819 135.638 476.6 135.388 476.44C135.142 476.28 134.833 476.2 134.46 476.2C134.097 476.2 133.788 476.288 133.532 476.464C133.281 476.635 133.089 476.859 132.956 477.136C132.822 477.413 132.756 477.704 132.756 478.008ZM144.751 474.728V476.352H143.007V483H140.671V476.352H139.143V474.728H140.671V473.536C140.671 472.869 140.866 472.352 141.255 471.984C141.65 471.616 142.207 471.432 142.927 471.432H144.823L144.831 472.984H143.743C143.444 472.984 143.239 473.059 143.127 473.208C143.02 473.352 142.967 473.592 142.967 473.928V474.728H144.751ZM147.998 479.4C147.993 479.821 148.059 480.189 148.198 480.504C148.337 480.813 148.537 481.053 148.798 481.224C149.065 481.389 149.385 481.472 149.758 481.472C150.158 481.472 150.507 481.387 150.806 481.216C151.11 481.045 151.321 480.765 151.438 480.376H153.542C153.451 480.963 153.217 481.464 152.838 481.88C152.465 482.296 152.011 482.613 151.478 482.832C150.945 483.051 150.39 483.16 149.814 483.16C148.998 483.16 148.278 482.989 147.654 482.648C147.035 482.301 146.553 481.813 146.206 481.184C145.859 480.555 145.686 479.813 145.686 478.96C145.686 478.133 145.843 477.389 146.158 476.728C146.473 476.061 146.929 475.536 147.526 475.152C148.129 474.763 148.851 474.568 149.694 474.568C150.537 474.568 151.243 474.747 151.814 475.104C152.39 475.456 152.822 475.949 153.11 476.584C153.403 477.213 153.55 477.941 153.55 478.768V479.4H147.998ZM147.99 478.008H151.366C151.366 477.677 151.305 477.373 151.182 477.096C151.059 476.819 150.873 476.6 150.622 476.44C150.377 476.28 150.067 476.2 149.694 476.2C149.331 476.2 149.022 476.288 148.766 476.464C148.515 476.635 148.323 476.859 148.19 477.136C148.057 477.413 147.99 477.704 147.99 478.008ZM155.172 483V474.728H157.42V476.688C157.553 476.267 157.74 475.899 157.98 475.584C158.225 475.264 158.521 475.016 158.868 474.84C159.215 474.659 159.607 474.568 160.044 474.568C160.119 474.568 160.188 474.573 160.252 474.584C160.321 474.589 160.372 474.6 160.404 474.616V476.84C160.356 476.819 160.297 476.805 160.228 476.8C160.164 476.795 160.105 476.789 160.052 476.784C159.593 476.747 159.201 476.76 158.876 476.824C158.551 476.888 158.287 476.997 158.084 477.152C157.881 477.307 157.735 477.496 157.644 477.72C157.553 477.944 157.508 478.195 157.508 478.472V483H155.172ZM161.672 483V474.728H163.92V476.688C164.053 476.267 164.24 475.899 164.48 475.584C164.725 475.264 165.021 475.016 165.368 474.84C165.715 474.659 166.107 474.568 166.544 474.568C166.619 474.568 166.688 474.573 166.752 474.584C166.821 474.589 166.872 474.6 166.904 474.616V476.84C166.856 476.819 166.797 476.805 166.728 476.8C166.664 476.795 166.605 476.789 166.552 476.784C166.093 476.747 165.701 476.76 165.376 476.824C165.051 476.888 164.787 476.997 164.584 477.152C164.381 477.307 164.235 477.496 164.144 477.72C164.053 477.944 164.008 478.195 164.008 478.472V483H161.672ZM170.478 483.16C169.95 483.16 169.475 483.061 169.054 482.864C168.633 482.667 168.299 482.381 168.054 482.008C167.809 481.629 167.686 481.171 167.686 480.632C167.686 479.725 168.025 479.037 168.702 478.568C169.379 478.093 170.449 477.848 171.91 477.832L172.942 477.816V477.32C172.942 476.941 172.83 476.651 172.606 476.448C172.387 476.24 172.046 476.139 171.582 476.144C171.241 476.149 170.915 476.229 170.606 476.384C170.302 476.539 170.094 476.808 169.982 477.192H168.038C168.07 476.595 168.243 476.104 168.558 475.72C168.873 475.331 169.299 475.043 169.838 474.856C170.382 474.664 170.998 474.568 171.686 474.568C172.534 474.568 173.214 474.675 173.726 474.888C174.238 475.096 174.609 475.397 174.838 475.792C175.067 476.181 175.182 476.645 175.182 477.184V483H173.23L173.038 481.576C172.755 482.173 172.401 482.587 171.974 482.816C171.553 483.045 171.054 483.16 170.478 483.16ZM171.262 481.624C171.475 481.624 171.681 481.587 171.878 481.512C172.081 481.432 172.259 481.328 172.414 481.2C172.574 481.067 172.702 480.917 172.798 480.752C172.894 480.587 172.942 480.416 172.942 480.24V479.016L172.102 479.032C171.713 479.037 171.35 479.085 171.014 479.176C170.678 479.261 170.406 479.403 170.198 479.6C169.995 479.797 169.894 480.064 169.894 480.4C169.894 480.784 170.027 481.085 170.294 481.304C170.561 481.517 170.883 481.624 171.262 481.624ZM179.89 483.144C179.282 483.144 178.799 483.072 178.442 482.928C178.085 482.784 177.821 482.595 177.65 482.36C177.479 482.12 177.37 481.856 177.322 481.568C177.274 481.275 177.25 480.979 177.25 480.68V471.112H179.538V480.392C179.538 480.696 179.602 480.944 179.73 481.136C179.863 481.323 180.111 481.437 180.474 481.48L180.866 481.504V482.944C180.706 482.997 180.543 483.043 180.378 483.08C180.213 483.123 180.05 483.144 179.89 483.144ZM190.852 471.272C191.721 471.272 192.494 471.448 193.172 471.8C193.854 472.147 194.404 472.621 194.82 473.224C195.241 473.827 195.489 474.507 195.564 475.264H193.116C193.041 474.864 192.905 474.509 192.708 474.2C192.51 473.885 192.252 473.64 191.932 473.464C191.612 473.283 191.228 473.192 190.78 473.192C190.241 473.192 189.777 473.323 189.388 473.584C188.998 473.845 188.7 474.267 188.492 474.848C188.284 475.429 188.18 476.197 188.18 477.152C188.18 478.592 188.409 479.635 188.868 480.28C189.332 480.92 189.969 481.24 190.78 481.24C191.228 481.24 191.612 481.139 191.932 480.936C192.252 480.728 192.51 480.456 192.708 480.12C192.905 479.779 193.041 479.405 193.116 479H195.564C195.494 479.549 195.361 480.075 195.164 480.576C194.966 481.072 194.686 481.515 194.324 481.904C193.961 482.293 193.494 482.6 192.924 482.824C192.353 483.048 191.662 483.16 190.852 483.16C189.774 483.16 188.844 482.909 188.06 482.408C187.276 481.907 186.67 481.203 186.244 480.296C185.822 479.389 185.612 478.331 185.612 477.12C185.612 475.904 185.822 474.861 186.244 473.992C186.665 473.117 187.268 472.445 188.052 471.976C188.836 471.507 189.769 471.272 190.852 471.272ZM197.328 483V474.728H199.576V476.688C199.709 476.267 199.896 475.899 200.136 475.584C200.381 475.264 200.677 475.016 201.024 474.84C201.371 474.659 201.763 474.568 202.2 474.568C202.275 474.568 202.344 474.573 202.408 474.584C202.477 474.589 202.528 474.6 202.56 474.616V476.84C202.512 476.819 202.453 476.805 202.384 476.8C202.32 476.795 202.261 476.789 202.208 476.784C201.749 476.747 201.357 476.76 201.032 476.824C200.707 476.888 200.443 476.997 200.24 477.152C200.037 477.307 199.891 477.496 199.8 477.72C199.709 477.944 199.664 478.195 199.664 478.472V483H197.328ZM205.717 479.4C205.712 479.821 205.778 480.189 205.917 480.504C206.056 480.813 206.256 481.053 206.517 481.224C206.784 481.389 207.104 481.472 207.477 481.472C207.877 481.472 208.226 481.387 208.525 481.216C208.829 481.045 209.04 480.765 209.157 480.376H211.261C211.17 480.963 210.936 481.464 210.557 481.88C210.184 482.296 209.73 482.613 209.197 482.832C208.664 483.051 208.109 483.16 207.533 483.16C206.717 483.16 205.997 482.989 205.373 482.648C204.754 482.301 204.272 481.813 203.925 481.184C203.578 480.555 203.405 479.813 203.405 478.96C203.405 478.133 203.562 477.389 203.877 476.728C204.192 476.061 204.648 475.536 205.245 475.152C205.848 474.763 206.57 474.568 207.413 474.568C208.256 474.568 208.962 474.747 209.533 475.104C210.109 475.456 210.541 475.949 210.829 476.584C211.122 477.213 211.269 477.941 211.269 478.768V479.4H205.717ZM205.709 478.008H209.085C209.085 477.677 209.024 477.373 208.901 477.096C208.778 476.819 208.592 476.6 208.341 476.44C208.096 476.28 207.786 476.2 207.413 476.2C207.05 476.2 206.741 476.288 206.485 476.464C206.234 476.635 206.042 476.859 205.909 477.136C205.776 477.413 205.709 477.704 205.709 478.008ZM215.963 483.16C214.853 483.16 213.989 482.779 213.371 482.016C212.752 481.248 212.443 480.181 212.443 478.816C212.443 477.952 212.568 477.203 212.819 476.568C213.069 475.933 213.44 475.443 213.931 475.096C214.421 474.744 215.021 474.568 215.731 474.568C216.029 474.568 216.307 474.603 216.563 474.672C216.824 474.736 217.061 474.827 217.275 474.944C217.488 475.061 217.675 475.197 217.835 475.352C217.995 475.507 218.125 475.672 218.227 475.848V471.112H220.571V483H218.875L218.611 481.304C218.536 481.533 218.432 481.757 218.299 481.976C218.165 482.195 217.995 482.395 217.787 482.576C217.579 482.752 217.323 482.893 217.019 483C216.72 483.107 216.368 483.16 215.963 483.16ZM216.475 481.48C217.061 481.48 217.499 481.275 217.787 480.864C218.08 480.453 218.227 479.76 218.227 478.784C218.221 478.219 218.155 477.749 218.027 477.376C217.899 477.003 217.707 476.725 217.451 476.544C217.2 476.357 216.88 476.264 216.491 476.264C215.984 476.264 215.563 476.459 215.227 476.848C214.891 477.232 214.723 477.877 214.723 478.784C214.723 479.707 214.88 480.387 215.195 480.824C215.509 481.261 215.936 481.48 216.475 481.48ZM224.977 474.728V483H222.745V474.728H224.977ZM225.001 471.44V473.544H222.729V471.44H225.001ZM232.134 476.352H230.294L230.31 480.76C230.31 480.963 230.334 481.115 230.382 481.216C230.435 481.312 230.515 481.376 230.622 481.408C230.734 481.435 230.875 481.448 231.046 481.448H232.158V482.888C232.051 482.936 231.883 482.981 231.654 483.024C231.43 483.067 231.115 483.088 230.71 483.088C229.984 483.088 229.422 482.995 229.022 482.808C228.627 482.621 228.352 482.36 228.198 482.024C228.043 481.688 227.966 481.299 227.966 480.856V476.352H226.622V474.728H228.046L228.63 472.232H230.294V474.72H232.134V476.352Z" fill="#3E3E3E"/>
<path d="M284 478.5H294" stroke="#3E3E3E" stroke-width="2" stroke-linecap="round" stroke-linejoin="round"/>
<path d="M300 488H284C285.193 488 286.338 487.526 287.182 486.682C288.026 485.838 288.5 484.694 288.5 483.5V472.5C288.5 471.041 289.079 469.642 290.111 468.611C291.142 467.58 292.541 467 294 467C294.723 466.997 295.439 467.138 296.106 467.415C296.774 467.692 297.379 468.099 297.888 468.613" stroke="#3E3E3E" stroke-width="2" stroke-linecap="round" stroke-linejoin="round"/>
<defs>
<filter id="filter0_d_520_1714" x="77.5" y="820.5" width="279" height="71" filterUnits="userSpaceOnUse" color-interpolation-filters="sRGB">
<feFlood flood-opacity="0" result="BackgroundImageFix"/>
<feColorMatrix in="SourceAlpha" type="matrix" values="0 0 0 0 0 0 0 0 0 0 0 0 0 0 0 0 0 0 127 0" result="hardAlpha"/>
<feOffset dx="3" dy="4"/>
<feGaussianBlur stdDeviation="3.75"/>
<feComposite in2="hardAlpha" operator="out"/>
<feColorMatrix type="matrix" values="0 0 0 0 0.529412 0 0 0 0 0.462745 0 0 0 0 0.341176 0 0 0 0.3 0"/>
<feBlend mode="normal" in2="BackgroundImageFix" result="effect1_dropShadow_520_1714"/>
<feBlend mode="normal" in="SourceGraphic" in2="effect1_dropShadow_520_1714" result="shape"/>
</filter>
<clipPath id="clip0_520_1714">
<rect width="119" height="119" fill="white" transform="translate(155 22)"/>
</clipPath>
</defs>
</svg>
