<svg width="428" height="926" viewBox="0 0 428 926" fill="none" xmlns="http://www.w3.org/2000/svg">
<rect width="428" height="926" fill="#F8F2E9"/>
<g clip-path="url(#clip0_520_2090)">
<path d="M240.646 92.0176C240.549 91.6316 240.501 91.2208 240.501 90.7849C240.501 89.1541 241.237 87.7352 242.71 86.5279C244.183 85.3207 247.195 83.8385 251.746 82.0813V80.735C251.746 79.3191 251.565 78.3046 251.205 77.6915C250.845 77.0784 250.254 76.7719 249.432 76.7719C248.762 76.7719 248.206 76.9709 247.764 77.3692C247.321 77.7674 247.1 78.2635 247.1 78.8578C247.1 79.1737 247.113 79.5435 247.138 79.967C247.163 80.3905 247.176 80.6592 247.176 80.7729C247.176 81.6957 246.92 82.4384 246.408 83.001C245.896 83.5635 245.216 83.8447 244.369 83.8447C243.598 83.8447 242.979 83.6014 242.511 83.1147C242.043 82.628 241.809 81.9864 241.809 81.1901C241.809 79.4708 242.625 78.0455 244.256 76.9141C245.886 75.7826 247.985 75.217 250.551 75.217C251.992 75.217 253.297 75.4003 254.467 75.7669C255.636 76.1336 256.594 76.6644 257.339 77.3597C257.946 77.9286 258.376 78.5923 258.629 79.3507C258.882 80.1092 259.008 81.2532 259.008 82.7829V88.1871C259.008 89.6914 259.125 90.7597 259.359 91.3916C259.593 92.0237 259.969 92.3398 260.487 92.3398C260.601 92.3398 260.715 92.3146 260.828 92.264C260.942 92.2133 261.062 92.1376 261.189 92.0363V93.2689C260.683 93.9136 260.029 94.413 259.226 94.7669C258.423 95.1209 257.535 95.2979 256.562 95.2979C255.45 95.2979 254.517 95.0388 253.765 94.5205C253.013 94.0021 252.46 93.2374 252.106 92.2261C251.145 93.3259 250.137 94.1444 249.081 94.6816C248.026 95.2188 246.91 95.4875 245.735 95.4875C244.18 95.4875 242.919 95.0482 241.952 94.1697C241.629 93.8765 241.36 93.5555 241.145 93.2066C240.384 93.8039 239.157 94.494 238.538 94.7669C237.736 95.1209 236.848 95.2979 235.874 95.2979C234.762 95.2979 233.829 95.0388 233.077 94.5205C232.325 94.0021 231.772 93.2374 231.418 92.2261C230.457 93.3259 229.449 94.1444 228.394 94.6816C227.338 95.2188 226.223 95.4875 225.047 95.4875C223.492 95.4875 222.231 95.0482 221.264 94.1697C220.297 93.2911 219.813 92.1628 219.813 90.7849C219.813 89.1541 220.55 87.7352 222.022 86.5279C223.495 85.3207 226.507 83.8385 231.058 82.0813V80.735C231.058 79.3191 230.878 78.3046 230.517 77.6915C230.157 77.0784 229.566 76.7719 228.744 76.7719C228.075 76.7719 227.518 76.9709 227.076 77.3692C226.633 77.7674 226.412 78.2635 226.412 78.8578C226.412 79.1737 226.425 79.5435 226.45 79.967C226.475 80.3905 226.488 80.6592 226.488 80.7729C226.488 81.6957 226.232 82.4384 225.72 83.001C225.208 83.5635 224.529 83.8447 223.682 83.8447C222.91 83.8447 222.291 83.6014 221.823 83.1147C221.356 82.628 221.122 81.9864 221.122 81.1901C221.122 79.4708 221.937 78.0455 223.568 76.9141C225.199 75.7826 227.297 75.217 229.863 75.217C231.304 75.217 232.61 75.4003 233.779 75.7669C234.948 76.1336 235.906 76.6644 236.652 77.3597C237.258 77.9286 237.688 78.5923 237.941 79.3507C238.194 80.1092 238.32 81.2532 238.32 82.7829V88.1871C238.32 89.6914 238.437 90.7597 238.671 91.3916C238.905 92.0237 239.281 92.3398 239.799 92.3398C239.913 92.3398 240.027 92.3146 240.141 92.264C240.194 92.2403 240.414 92.1343 240.646 92.0176ZM182.778 94.6722L178.246 85.6651V90.8228C178.246 91.8215 178.423 92.5326 178.777 92.9561C179.131 93.3796 179.731 93.5913 180.578 93.5913H180.692V94.6722H168.499V93.5913H168.613C169.448 93.5913 170.045 93.3796 170.405 92.9561C170.765 92.5326 170.946 91.8215 170.946 90.8228V75.2548C170.946 74.6734 170.879 74.2531 170.746 73.994C170.614 73.7348 170.313 73.4156 169.846 73.0364L167.798 71.3677C168.683 71.1022 169.915 70.6788 171.495 70.0972C173.076 69.5157 175.326 68.6561 178.246 67.5183V84.6222C179.902 83.3454 181.15 82.1919 181.991 81.1616C182.832 80.1314 183.252 79.237 183.252 78.4785C183.252 78.0739 183.097 77.7516 182.787 77.5115C182.478 77.2712 182.051 77.1511 181.507 77.1511H181.394V76.0703H191.254V77.1511H190.932C189.63 77.1511 188.403 77.4925 187.253 78.175C186.103 78.8578 184.921 79.9448 183.707 81.4366L189.149 90.7469C189.743 91.7836 190.319 92.5042 190.875 92.9087C191.429 93.3119 192.122 93.5393 192.953 93.5909C193.752 93.5796 194.326 93.368 194.677 92.9561C195.037 92.5326 195.217 91.8215 195.217 90.8228V82.7829C195.217 82.2014 195.154 81.781 195.027 81.5219C194.901 81.2628 194.604 80.9499 194.136 80.5833L192.069 78.9146C193.574 78.4343 195.198 77.8717 196.943 77.227C198.687 76.5823 200.545 75.8617 202.518 75.0652V90.8228C202.518 91.7962 202.691 92.4946 203.039 92.9181C203.387 93.3416 203.965 93.566 204.774 93.5913H204.811C205.645 93.5913 206.243 93.3796 206.603 92.9561C206.963 92.5326 207.143 91.8215 207.143 90.8228V83.6741C207.143 83.0673 207.067 82.6185 206.916 82.3278C206.764 82.0371 206.48 81.7526 206.063 81.4745L203.692 79.8058C204.931 79.376 206.36 78.7851 207.978 78.0329C209.596 77.2807 211.58 76.2915 213.932 75.0652V78.4027C214.564 77.3407 215.25 76.5444 215.989 76.0134C216.729 75.4825 217.522 75.217 218.369 75.217C219.304 75.217 220.057 75.4951 220.625 76.0513C221.194 76.6075 221.479 77.3407 221.479 78.2509C221.479 79.0474 221.242 79.6857 220.768 80.1661C220.294 80.6465 219.665 80.8866 218.881 80.8866C218.173 80.8866 217.494 80.6023 216.842 80.0333C216.191 79.4645 215.777 79.1801 215.6 79.1801C215.183 79.1801 214.886 79.4582 214.709 80.0144C214.532 80.5707 214.444 81.563 214.444 82.9915V90.8228C214.444 91.8089 214.643 92.5168 215.041 92.9465C215.439 93.3764 216.093 93.5913 217.004 93.5913H217.117V94.6722H182.778ZM251.746 83.4845C250.608 83.9396 249.742 84.657 249.148 85.6367C248.554 86.6164 248.257 87.8142 248.257 89.23C248.257 90.0391 248.418 90.6838 248.74 91.1642C249.062 91.6445 249.483 91.8847 250.001 91.8847C250.671 91.8847 251.129 91.6192 251.376 91.0883C251.622 90.5573 251.746 89.23 251.746 87.1063V83.4845ZM231.058 83.4845C229.92 83.9396 229.054 84.657 228.46 85.6367C227.866 86.6164 227.569 87.8142 227.569 89.23C227.569 90.0391 227.73 90.6838 228.052 91.1642C228.375 91.6445 228.795 91.8847 229.313 91.8847C229.983 91.8847 230.442 91.6192 230.688 91.0883C230.935 90.5573 231.058 89.23 231.058 87.1063V83.4845ZM194.705 71.3297C194.705 70.2679 195.075 69.3671 195.814 68.6277C196.554 67.8881 197.455 67.5183 198.517 67.5183C199.591 67.5183 200.495 67.8881 201.228 68.6277C201.961 69.3671 202.328 70.2679 202.328 71.3297C202.328 72.3917 201.958 73.2923 201.219 74.0319C200.479 74.7713 199.578 75.1411 198.517 75.1411C197.455 75.1411 196.554 74.7745 195.814 74.0413C195.075 73.3081 194.705 72.4043 194.705 71.3297Z" fill="#3E3E3E"/>
</g>
<g filter="url(#filter0_d_520_2090)">
<rect x="82" y="824" width="264" height="56" rx="28" fill="#F8F2E9" shape-rendering="crispEdges"/>
<path d="M121 862V856C121 855.735 120.895 855.48 120.707 855.293C120.52 855.105 120.265 855 120 855H116C115.735 855 115.48 855.105 115.293 855.293C115.105 855.48 115 855.735 115 856V862C115 862.265 114.895 862.52 114.707 862.707C114.52 862.895 114.265 863 114 863H108C107.735 863 107.48 862.895 107.293 862.707C107.105 862.52 107 862.265 107 862V850.438C107.002 850.299 107.032 850.163 107.088 850.036C107.144 849.909 107.224 849.795 107.325 849.7L117.325 840.613C117.509 840.444 117.75 840.35 118 840.35C118.25 840.35 118.491 840.444 118.675 840.613L128.675 849.7C128.776 849.795 128.856 849.909 128.912 850.036C128.968 850.163 128.998 850.299 129 850.438V862C129 862.265 128.895 862.52 128.707 862.707C128.52 862.895 128.265 863 128 863H122C121.735 863 121.48 862.895 121.293 862.707C121.105 862.52 121 862.265 121 862Z" stroke="#4A4A4A" stroke-width="2" stroke-linecap="round" stroke-linejoin="round"/>
<path d="M178 845C178 843.939 178.421 842.922 179.172 842.172C179.922 841.421 180.939 841 182 841C183.061 841 184.078 841.421 184.828 842.172C185.579 842.922 186 843.939 186 845L168.4 858.2C168.232 858.326 168.108 858.501 168.045 858.702C167.983 858.902 167.985 859.117 168.051 859.316C168.118 859.515 168.245 859.689 168.415 859.811C168.586 859.934 168.79 860 169 860H195C195.21 860 195.414 859.934 195.585 859.811C195.755 859.689 195.882 859.515 195.949 859.316C196.015 859.117 196.017 858.902 195.955 858.702C195.892 858.501 195.768 858.326 195.6 858.2L182 848" stroke="#4A4A4A" stroke-width="2" stroke-linecap="round" stroke-linejoin="round"/>
<path d="M246 856C250.418 856 254 852.418 254 848C254 843.582 250.418 840 246 840C241.582 840 238 843.582 238 848C238 852.418 241.582 856 246 856Z" fill="#4A4A4A"/>
<path d="M234 863C235.216 860.264 236.965 857.991 239.072 856.412C241.178 854.832 243.568 854 246 854C248.432 854 250.822 854.832 252.928 856.412C255.035 857.991 256.784 860.264 258 863" fill="#4A4A4A"/>
<path d="M305.955 841.143L306.938 838.606C307.103 838.176 307.395 837.807 307.774 837.546C308.154 837.285 308.603 837.144 309.063 837.143H310.938C311.398 837.144 311.847 837.285 312.227 837.546C312.606 837.807 312.897 838.176 313.063 838.606L314.046 841.143L317.383 843.063L320.08 842.651C320.529 842.59 320.987 842.664 321.394 842.864C321.801 843.063 322.139 843.379 322.366 843.771L323.28 845.371C323.515 845.77 323.623 846.23 323.59 846.691C323.557 847.152 323.386 847.593 323.098 847.954L321.429 850.08V853.92L323.143 856.046C323.431 856.407 323.603 856.848 323.636 857.309C323.668 857.77 323.56 858.23 323.326 858.629L322.412 860.229C322.185 860.621 321.846 860.937 321.439 861.136C321.032 861.336 320.575 861.409 320.126 861.349L317.429 860.937L314.092 862.857L313.109 865.394C312.943 865.824 312.652 866.193 312.272 866.454C311.893 866.715 311.444 866.856 310.983 866.857H309.063C308.603 866.856 308.154 866.715 307.774 866.454C307.395 866.193 307.103 865.824 306.938 865.394L305.955 862.857L302.618 860.937L299.92 861.349C299.471 861.409 299.014 861.336 298.607 861.136C298.2 860.937 297.862 860.621 297.635 860.229L296.72 858.629C296.486 858.23 296.378 857.77 296.411 857.309C296.443 856.848 296.615 856.407 296.903 856.046L298.572 853.92V850.08L296.858 847.954C296.569 847.593 296.398 847.152 296.365 846.691C296.332 846.23 296.44 845.77 296.675 845.371L297.589 843.771C297.816 843.379 298.154 843.063 298.561 842.864C298.968 842.664 299.426 842.59 299.875 842.651L302.572 843.063L305.955 841.143ZM305.429 852C305.429 852.904 305.697 853.788 306.199 854.54C306.702 855.291 307.416 855.877 308.251 856.223C309.086 856.569 310.005 856.66 310.892 856.484C311.779 856.307 312.594 855.872 313.233 855.232C313.872 854.593 314.308 853.779 314.484 852.892C314.66 852.005 314.57 851.086 314.224 850.251C313.878 849.415 313.292 848.701 312.54 848.199C311.788 847.697 310.905 847.429 310 847.429C308.788 847.429 307.625 847.91 306.768 848.767C305.911 849.625 305.429 850.788 305.429 852V852Z" stroke="#3E3E3E" stroke-width="2" stroke-linecap="round" stroke-linejoin="round"/>
</g>
<path d="M381 116H359C358.448 116 358 116.448 358 117V135C358 135.552 358.448 136 359 136H381C381.552 136 382 135.552 382 135V117C382 116.448 381.552 116 381 116Z" stroke="#3E3E3E" stroke-width="2" stroke-linecap="round" stroke-linejoin="round"/>
<path d="M375 121C375 122.326 374.473 123.598 373.536 124.536C372.598 125.473 371.326 126 370 126C368.674 126 367.402 125.473 366.464 124.536C365.527 123.598 365 122.326 365 121" stroke="#3E3E3E" stroke-width="2" stroke-linecap="round" stroke-linejoin="round"/>
<path d="M56.6188 195.238L51 189.619L56.6188 184" stroke="#3E3E3E" stroke-width="2.65192" stroke-linecap="round" stroke-linejoin="round"/>
<path d="M51 189.619H64.2596" stroke="#3E3E3E" stroke-width="2.65192" stroke-linecap="round" stroke-linejoin="round"/>
<path d="M197.11 258.54H200.03V273H197.4L190.53 263.05V273H187.62V258.54H190.51L197.11 268.11V258.54ZM205.875 273.2C205.215 273.2 204.622 273.077 204.095 272.83C203.568 272.583 203.152 272.227 202.845 271.76C202.538 271.287 202.385 270.713 202.385 270.04C202.385 268.907 202.808 268.047 203.655 267.46C204.502 266.867 205.838 266.56 207.665 266.54L208.955 266.52V265.9C208.955 265.427 208.815 265.063 208.535 264.81C208.262 264.55 207.835 264.423 207.255 264.43C206.828 264.437 206.422 264.537 206.035 264.73C205.655 264.923 205.395 265.26 205.255 265.74H202.825C202.865 264.993 203.082 264.38 203.475 263.9C203.868 263.413 204.402 263.053 205.075 262.82C205.755 262.58 206.525 262.46 207.385 262.46C208.445 262.46 209.295 262.593 209.935 262.86C210.575 263.12 211.038 263.497 211.325 263.99C211.612 264.477 211.755 265.057 211.755 265.73V273H209.315L209.075 271.22C208.722 271.967 208.278 272.483 207.745 272.77C207.218 273.057 206.595 273.2 205.875 273.2ZM206.855 271.28C207.122 271.28 207.378 271.233 207.625 271.14C207.878 271.04 208.102 270.91 208.295 270.75C208.495 270.583 208.655 270.397 208.775 270.19C208.895 269.983 208.955 269.77 208.955 269.55V268.02L207.905 268.04C207.418 268.047 206.965 268.107 206.545 268.22C206.125 268.327 205.785 268.503 205.525 268.75C205.272 268.997 205.145 269.33 205.145 269.75C205.145 270.23 205.312 270.607 205.645 270.88C205.978 271.147 206.382 271.28 206.855 271.28ZM214.34 273V262.66H217.2V264.12C217.513 263.667 217.933 263.277 218.46 262.95C218.993 262.623 219.663 262.46 220.47 262.46C220.823 262.46 221.183 262.523 221.55 262.65C221.917 262.777 222.26 262.963 222.58 263.21C222.907 263.45 223.17 263.753 223.37 264.12C223.703 263.647 224.14 263.253 224.68 262.94C225.227 262.62 225.833 262.46 226.5 262.46C226.887 262.46 227.277 262.523 227.67 262.65C228.07 262.777 228.437 262.983 228.77 263.27C229.103 263.557 229.37 263.94 229.57 264.42C229.777 264.893 229.88 265.48 229.88 266.18V273H226.96V266.54C226.96 266.127 226.877 265.797 226.71 265.55C226.55 265.297 226.343 265.117 226.09 265.01C225.843 264.897 225.58 264.84 225.3 264.84C225.04 264.84 224.777 264.893 224.51 265C224.243 265.1 224.017 265.263 223.83 265.49C223.643 265.717 223.55 266.013 223.55 266.38V273H220.64V266.28C220.64 265.967 220.557 265.703 220.39 265.49C220.223 265.277 220.013 265.117 219.76 265.01C219.513 264.897 219.26 264.84 219 264.84C218.733 264.84 218.467 264.897 218.2 265.01C217.933 265.117 217.71 265.287 217.53 265.52C217.35 265.747 217.26 266.033 217.26 266.38V273H214.34ZM234.65 268.5C234.643 269.027 234.727 269.487 234.9 269.88C235.073 270.267 235.323 270.567 235.65 270.78C235.983 270.987 236.383 271.09 236.85 271.09C237.35 271.09 237.787 270.983 238.16 270.77C238.54 270.557 238.803 270.207 238.95 269.72H241.58C241.467 270.453 241.173 271.08 240.7 271.6C240.233 272.12 239.667 272.517 239 272.79C238.333 273.063 237.64 273.2 236.92 273.2C235.9 273.2 235 272.987 234.22 272.56C233.447 272.127 232.843 271.517 232.41 270.73C231.977 269.943 231.76 269.017 231.76 267.95C231.76 266.917 231.957 265.987 232.35 265.16C232.743 264.327 233.313 263.67 234.06 263.19C234.813 262.703 235.717 262.46 236.77 262.46C237.823 262.46 238.707 262.683 239.42 263.13C240.14 263.57 240.68 264.187 241.04 264.98C241.407 265.767 241.59 266.677 241.59 267.71V268.5H234.65ZM234.64 266.76H238.86C238.86 266.347 238.783 265.967 238.63 265.62C238.477 265.273 238.243 265 237.93 264.8C237.623 264.6 237.237 264.5 236.77 264.5C236.317 264.5 235.93 264.61 235.61 264.83C235.297 265.043 235.057 265.323 234.89 265.67C234.723 266.017 234.64 266.38 234.64 266.76Z" fill="#4A4A4A"/>
<path d="M52.458 351V337.986H61.395L61.386 340.2H55.095V343.359H60.558V345.528H55.077V348.759L61.485 348.768V351H52.458ZM66.954 351.18C65.706 351.18 64.734 350.751 64.038 349.893C63.342 349.029 62.994 347.829 62.994 346.293C62.994 345.321 63.135 344.478 63.417 343.764C63.699 343.05 64.116 342.498 64.668 342.108C65.22 341.712 65.895 341.514 66.693 341.514C67.029 341.514 67.341 341.553 67.629 341.631C67.923 341.703 68.19 341.805 68.43 341.937C68.67 342.069 68.88 342.222 69.06 342.396C69.24 342.57 69.387 342.756 69.501 342.954V337.626H72.138V351H70.23L69.933 349.092C69.849 349.35 69.732 349.602 69.582 349.848C69.432 350.094 69.24 350.319 69.006 350.523C68.772 350.721 68.484 350.88 68.142 351C67.806 351.12 67.41 351.18 66.954 351.18ZM67.53 349.29C68.19 349.29 68.682 349.059 69.006 348.597C69.336 348.135 69.501 347.355 69.501 346.257C69.495 345.621 69.42 345.093 69.276 344.673C69.132 344.253 68.916 343.941 68.628 343.737C68.346 343.527 67.986 343.422 67.548 343.422C66.978 343.422 66.504 343.641 66.126 344.079C65.748 344.511 65.559 345.237 65.559 346.257C65.559 347.295 65.736 348.06 66.09 348.552C66.444 349.044 66.924 349.29 67.53 349.29ZM77.0952 341.694V351H74.5842V341.694H77.0952ZM77.1222 337.995V340.362H74.5662V337.995H77.1222ZM85.1466 343.521H83.0766L83.0946 348.48C83.0946 348.708 83.1216 348.879 83.1756 348.993C83.2356 349.101 83.3256 349.173 83.4456 349.209C83.5716 349.239 83.7306 349.254 83.9226 349.254H85.1736V350.874C85.0536 350.928 84.8646 350.979 84.6066 351.027C84.3546 351.075 84.0006 351.099 83.5446 351.099C82.7286 351.099 82.0956 350.994 81.6456 350.784C81.2016 350.574 80.8926 350.28 80.7186 349.902C80.5446 349.524 80.4576 349.086 80.4576 348.588V343.521H78.9456V341.694H80.5476L81.2046 338.886H83.0766V341.685H85.1466V343.521ZM99.7763 337.986H102.404V351H100.037L93.8543 342.045V351H91.2353V337.986H93.8363L99.7763 346.599V337.986ZM107.665 351.18C107.071 351.18 106.537 351.069 106.063 350.847C105.589 350.625 105.214 350.304 104.938 349.884C104.662 349.458 104.524 348.942 104.524 348.336C104.524 347.316 104.905 346.542 105.667 346.014C106.429 345.48 107.632 345.204 109.276 345.186L110.437 345.168V344.61C110.437 344.184 110.311 343.857 110.059 343.629C109.813 343.395 109.429 343.281 108.907 343.287C108.523 343.293 108.157 343.383 107.809 343.557C107.467 343.731 107.233 344.034 107.107 344.466H104.92C104.956 343.794 105.151 343.242 105.505 342.81C105.859 342.372 106.339 342.048 106.945 341.838C107.557 341.622 108.25 341.514 109.024 341.514C109.978 341.514 110.743 341.634 111.319 341.874C111.895 342.108 112.312 342.447 112.57 342.891C112.828 343.329 112.957 343.851 112.957 344.457V351H110.761L110.545 349.398C110.227 350.07 109.828 350.535 109.348 350.793C108.874 351.051 108.313 351.18 107.665 351.18ZM108.547 349.452C108.787 349.452 109.018 349.41 109.24 349.326C109.468 349.236 109.669 349.119 109.843 348.975C110.023 348.825 110.167 348.657 110.275 348.471C110.383 348.285 110.437 348.093 110.437 347.895V346.518L109.492 346.536C109.054 346.542 108.646 346.596 108.268 346.698C107.89 346.794 107.584 346.953 107.35 347.175C107.122 347.397 107.008 347.697 107.008 348.075C107.008 348.507 107.158 348.846 107.458 349.092C107.758 349.332 108.121 349.452 108.547 349.452ZM115.283 351V341.694H117.857V343.008C118.139 342.6 118.517 342.249 118.991 341.955C119.471 341.661 120.074 341.514 120.8 341.514C121.118 341.514 121.442 341.571 121.772 341.685C122.102 341.799 122.411 341.967 122.699 342.189C122.993 342.405 123.23 342.678 123.41 343.008C123.71 342.582 124.103 342.228 124.589 341.946C125.081 341.658 125.627 341.514 126.227 341.514C126.575 341.514 126.926 341.571 127.28 341.685C127.64 341.799 127.97 341.985 128.27 342.243C128.57 342.501 128.81 342.846 128.99 343.278C129.176 343.704 129.269 344.232 129.269 344.862V351H126.641V345.186C126.641 344.814 126.566 344.517 126.416 344.295C126.272 344.067 126.086 343.905 125.858 343.809C125.636 343.707 125.399 343.656 125.147 343.656C124.913 343.656 124.676 343.704 124.436 343.8C124.196 343.89 123.992 344.037 123.824 344.241C123.656 344.445 123.572 344.712 123.572 345.042V351H120.953V344.952C120.953 344.67 120.878 344.433 120.728 344.241C120.578 344.049 120.389 343.905 120.161 343.809C119.939 343.707 119.711 343.656 119.477 343.656C119.237 343.656 118.997 343.707 118.757 343.809C118.517 343.905 118.316 344.058 118.154 344.268C117.992 344.472 117.911 344.73 117.911 345.042V351H115.283ZM133.562 346.95C133.556 347.424 133.631 347.838 133.787 348.192C133.943 348.54 134.168 348.81 134.462 349.002C134.762 349.188 135.122 349.281 135.542 349.281C135.992 349.281 136.385 349.185 136.721 348.993C137.063 348.801 137.3 348.486 137.432 348.048H139.799C139.697 348.708 139.433 349.272 139.007 349.74C138.587 350.208 138.077 350.565 137.477 350.811C136.877 351.057 136.253 351.18 135.605 351.18C134.687 351.18 133.877 350.988 133.175 350.604C132.479 350.214 131.936 349.665 131.546 348.957C131.156 348.249 130.961 347.415 130.961 346.455C130.961 345.525 131.138 344.688 131.492 343.944C131.846 343.194 132.359 342.603 133.031 342.171C133.709 341.733 134.522 341.514 135.47 341.514C136.418 341.514 137.213 341.715 137.855 342.117C138.503 342.513 138.989 343.068 139.313 343.782C139.643 344.49 139.808 345.309 139.808 346.239V346.95H133.562ZM133.553 345.384H137.351C137.351 345.012 137.282 344.67 137.144 344.358C137.006 344.046 136.796 343.8 136.514 343.62C136.238 343.44 135.89 343.35 135.47 343.35C135.062 343.35 134.714 343.449 134.426 343.647C134.144 343.839 133.928 344.091 133.778 344.403C133.628 344.715 133.553 345.042 133.553 345.384Z" fill="#3E3E3E"/>
<rect x="51" y="416" width="326" height="50" rx="6" fill="#FCFCFC" stroke="white" stroke-width="4"/>
<path d="M59.512 398.552C59.1067 398.877 58.5707 399.16 57.904 399.4C57.2427 399.64 56.4907 399.76 55.648 399.76C54.6933 399.76 53.8373 399.608 53.08 399.304C52.328 399 51.688 398.579 51.16 398.04C50.6373 397.507 50.2373 396.888 49.96 396.184C49.688 395.48 49.552 394.728 49.552 393.928C49.552 393.085 49.6987 392.291 49.992 391.544C50.2907 390.792 50.72 390.128 51.28 389.552C51.84 388.971 52.512 388.517 53.296 388.192C54.0853 387.861 54.9707 387.696 55.952 387.696C56.656 387.696 57.3413 387.792 58.008 387.984C58.68 388.176 59.2827 388.475 59.816 388.88C60.3547 389.285 60.7813 389.805 61.096 390.44C61.416 391.069 61.576 391.827 61.576 392.712C61.576 393.501 61.4453 394.2 61.184 394.808C60.928 395.411 60.568 395.883 60.104 396.224C59.64 396.565 59.1067 396.736 58.504 396.736C58.0507 396.736 57.7093 396.659 57.48 396.504C57.2507 396.349 57.0907 396.179 57 395.992C56.9627 395.928 56.9333 395.899 56.912 395.904C56.8907 395.904 56.8533 395.933 56.8 395.992C56.5707 396.269 56.28 396.501 55.928 396.688C55.576 396.869 55.1733 396.96 54.72 396.96C54.2773 396.96 53.8773 396.848 53.52 396.624C53.1627 396.395 52.8773 396.072 52.664 395.656C52.456 395.24 52.3547 394.755 52.36 394.2C52.36 393.56 52.488 392.965 52.744 392.416C53.0053 391.867 53.3707 391.427 53.84 391.096C54.3147 390.76 54.872 390.592 55.512 390.592C55.9493 390.592 56.296 390.669 56.552 390.824C56.808 390.979 57.0267 391.168 57.208 391.392C57.2293 391.419 57.2533 391.429 57.28 391.424C57.3067 391.413 57.3227 391.384 57.328 391.336L57.416 390.992H58.76L58.184 394.432C58.12 394.811 58.136 395.069 58.232 395.208C58.328 395.347 58.472 395.416 58.664 395.416C58.9147 395.416 59.1547 395.32 59.384 395.128C59.6133 394.931 59.8 394.64 59.944 394.256C60.0933 393.867 60.168 393.384 60.168 392.808C60.168 392.088 60.048 391.485 59.808 391C59.5733 390.509 59.256 390.117 58.856 389.824C58.456 389.525 58.0027 389.309 57.496 389.176C56.9947 389.043 56.48 388.976 55.952 388.976C55.0987 388.976 54.36 389.107 53.736 389.368C53.112 389.629 52.5973 389.989 52.192 390.448C51.792 390.901 51.4907 391.424 51.288 392.016C51.0907 392.608 50.992 393.237 50.992 393.904C50.992 394.624 51.104 395.272 51.328 395.848C51.552 396.419 51.8747 396.907 52.296 397.312C52.7227 397.717 53.24 398.024 53.848 398.232C54.456 398.445 55.1413 398.552 55.904 398.552C56.384 398.552 56.7893 398.509 57.12 398.424C57.456 398.339 57.7547 398.224 58.016 398.08C58.2773 397.936 58.5387 397.776 58.8 397.6L59.512 398.552ZM54.016 394.04C54.016 394.456 54.1067 394.811 54.288 395.104C54.4747 395.397 54.7547 395.544 55.128 395.544C55.432 395.544 55.7067 395.456 55.952 395.28C56.1973 395.099 56.3947 394.867 56.544 394.584C56.6987 394.296 56.7867 393.992 56.808 393.672C56.8347 393.341 56.8 393.051 56.704 392.8C56.608 392.549 56.4667 392.352 56.28 392.208C56.0933 392.064 55.8773 391.992 55.632 391.992C55.328 391.992 55.0533 392.085 54.808 392.272C54.568 392.453 54.376 392.699 54.232 393.008C54.088 393.317 54.016 393.661 54.016 394.04ZM74.3568 386.432H76.6928V398H74.5888L69.0928 390.04V398H66.7648V386.432H69.0768L74.3568 394.088V386.432ZM81.3688 398.16C80.8408 398.16 80.3661 398.061 79.9448 397.864C79.5234 397.667 79.1901 397.381 78.9448 397.008C78.6994 396.629 78.5768 396.171 78.5768 395.632C78.5768 394.725 78.9154 394.037 79.5928 393.568C80.2701 393.093 81.3394 392.848 82.8008 392.832L83.8328 392.816V392.32C83.8328 391.941 83.7208 391.651 83.4968 391.448C83.2781 391.24 82.9368 391.139 82.4728 391.144C82.1314 391.149 81.8061 391.229 81.4968 391.384C81.1928 391.539 80.9848 391.808 80.8728 392.192H78.9288C78.9608 391.595 79.1341 391.104 79.4488 390.72C79.7634 390.331 80.1901 390.043 80.7288 389.856C81.2728 389.664 81.8888 389.568 82.5768 389.568C83.4248 389.568 84.1048 389.675 84.6168 389.888C85.1288 390.096 85.4994 390.397 85.7288 390.792C85.9581 391.181 86.0728 391.645 86.0728 392.184V398H84.1208L83.9288 396.576C83.6461 397.173 83.2914 397.587 82.8648 397.816C82.4434 398.045 81.9448 398.16 81.3688 398.16ZM82.1528 396.624C82.3661 396.624 82.5714 396.587 82.7688 396.512C82.9714 396.432 83.1501 396.328 83.3048 396.2C83.4648 396.067 83.5928 395.917 83.6888 395.752C83.7848 395.587 83.8328 395.416 83.8328 395.24V394.016L82.9928 394.032C82.6034 394.037 82.2408 394.085 81.9048 394.176C81.5688 394.261 81.2968 394.403 81.0888 394.6C80.8861 394.797 80.7848 395.064 80.7848 395.4C80.7848 395.784 80.9181 396.085 81.1848 396.304C81.4514 396.517 81.7741 396.624 82.1528 396.624ZM88.1406 398V389.728H90.4286V390.896C90.6793 390.533 91.0153 390.221 91.4366 389.96C91.8633 389.699 92.3993 389.568 93.0446 389.568C93.3273 389.568 93.6153 389.619 93.9086 389.72C94.202 389.821 94.4766 389.971 94.7326 390.168C94.994 390.36 95.2046 390.603 95.3646 390.896C95.6313 390.517 95.9806 390.203 96.4126 389.952C96.85 389.696 97.3353 389.568 97.8686 389.568C98.178 389.568 98.49 389.619 98.8046 389.72C99.1246 389.821 99.418 389.987 99.6846 390.216C99.9513 390.445 100.165 390.752 100.325 391.136C100.49 391.515 100.573 391.984 100.573 392.544V398H98.2366V392.832C98.2366 392.501 98.17 392.237 98.0366 392.04C97.9086 391.837 97.7433 391.693 97.5406 391.608C97.3433 391.517 97.1326 391.472 96.9086 391.472C96.7006 391.472 96.49 391.515 96.2766 391.6C96.0633 391.68 95.882 391.811 95.7326 391.992C95.5833 392.173 95.5086 392.411 95.5086 392.704V398H93.1806V392.624C93.1806 392.373 93.114 392.163 92.9806 391.992C92.8473 391.821 92.6793 391.693 92.4766 391.608C92.2793 391.517 92.0766 391.472 91.8686 391.472C91.6553 391.472 91.442 391.517 91.2286 391.608C91.0153 391.693 90.8366 391.829 90.6926 392.016C90.5486 392.197 90.4766 392.427 90.4766 392.704V398H88.1406ZM104.389 394.4C104.383 394.821 104.45 395.189 104.589 395.504C104.727 395.813 104.927 396.053 105.189 396.224C105.455 396.389 105.775 396.472 106.149 396.472C106.549 396.472 106.898 396.387 107.197 396.216C107.501 396.045 107.711 395.765 107.829 395.376H109.933C109.842 395.963 109.607 396.464 109.229 396.88C108.855 397.296 108.402 397.613 107.869 397.832C107.335 398.051 106.781 398.16 106.205 398.16C105.389 398.16 104.669 397.989 104.045 397.648C103.426 397.301 102.943 396.813 102.597 396.184C102.25 395.555 102.077 394.813 102.077 393.96C102.077 393.133 102.234 392.389 102.549 391.728C102.863 391.061 103.319 390.536 103.917 390.152C104.519 389.763 105.242 389.568 106.085 389.568C106.927 389.568 107.634 389.747 108.205 390.104C108.781 390.456 109.213 390.949 109.501 391.584C109.794 392.213 109.941 392.941 109.941 393.768V394.4H104.389ZM104.381 393.008H107.757C107.757 392.677 107.695 392.373 107.573 392.096C107.45 391.819 107.263 391.6 107.013 391.44C106.767 391.28 106.458 391.2 106.085 391.2C105.722 391.2 105.413 391.288 105.157 391.464C104.906 391.635 104.714 391.859 104.581 392.136C104.447 392.413 104.381 392.704 104.381 393.008Z" fill="#3E3E3E"/>
<rect x="51" y="525" width="326" height="50" rx="6" fill="#FCFCFC" stroke="white" stroke-width="4"/>
<path d="M54.976 507.16C53.9147 507.16 52.992 506.92 52.208 506.44C51.4293 505.955 50.8267 505.269 50.4 504.384C49.9787 503.499 49.768 502.453 49.768 501.248C49.768 500.021 49.9893 498.963 50.432 498.072C50.88 497.176 51.504 496.485 52.304 496C53.104 495.515 54.0373 495.272 55.104 495.272C55.792 495.272 56.4187 495.381 56.984 495.6C57.5493 495.819 58.04 496.117 58.456 496.496C58.8773 496.875 59.2053 497.304 59.44 497.784C59.68 498.259 59.8107 498.752 59.832 499.264H57.368C57.2987 498.896 57.16 498.56 56.952 498.256C56.7493 497.952 56.488 497.709 56.168 497.528C55.848 497.341 55.4747 497.248 55.048 497.248C54.536 497.248 54.072 497.381 53.656 497.648C53.24 497.909 52.912 498.328 52.672 498.904C52.432 499.48 52.312 500.24 52.312 501.184C52.312 501.947 52.3893 502.581 52.544 503.088C52.704 503.595 52.9173 503.997 53.184 504.296C53.4507 504.589 53.7547 504.797 54.096 504.92C54.4373 505.043 54.7867 505.104 55.144 505.104C55.4853 505.104 55.7893 505.048 56.056 504.936C56.328 504.819 56.56 504.669 56.752 504.488C56.944 504.307 57.096 504.109 57.208 503.896C57.32 503.677 57.392 503.464 57.424 503.256L57.512 502.552H55.12V500.936L59.96 500.96V507H58.368V505.488C58.1707 505.749 57.9253 506.011 57.632 506.272C57.344 506.528 56.984 506.741 56.552 506.912C56.1253 507.077 55.6 507.16 54.976 507.16ZM64.4926 498.728V507H62.2606V498.728H64.4926ZM64.5166 495.44V497.544H62.2446V495.44H64.5166ZM73.7214 498.728L70.6174 507H68.9294L65.8174 498.728H67.9294L69.7374 504H69.8014L71.5854 498.728H73.7214ZM76.4981 503.4C76.4928 503.821 76.5595 504.189 76.6981 504.504C76.8368 504.813 77.0368 505.053 77.2981 505.224C77.5648 505.389 77.8848 505.472 78.2581 505.472C78.6581 505.472 79.0075 505.387 79.3061 505.216C79.6101 505.045 79.8208 504.765 79.9381 504.376H82.0421C81.9515 504.963 81.7168 505.464 81.3381 505.88C80.9648 506.296 80.5115 506.613 79.9781 506.832C79.4448 507.051 78.8901 507.16 78.3141 507.16C77.4981 507.16 76.7781 506.989 76.1541 506.648C75.5355 506.301 75.0528 505.813 74.7061 505.184C74.3595 504.555 74.1861 503.813 74.1861 502.96C74.1861 502.133 74.3435 501.389 74.6581 500.728C74.9728 500.061 75.4288 499.536 76.0261 499.152C76.6288 498.763 77.3515 498.568 78.1941 498.568C79.0368 498.568 79.7435 498.747 80.3141 499.104C80.8901 499.456 81.3221 499.949 81.6101 500.584C81.9035 501.213 82.0501 501.941 82.0501 502.768V503.4H76.4981ZM76.4901 502.008H79.8661C79.8661 501.677 79.8048 501.373 79.6821 501.096C79.5595 500.819 79.3728 500.6 79.1221 500.44C78.8768 500.28 78.5675 500.2 78.1941 500.2C77.8315 500.2 77.5221 500.288 77.2661 500.464C77.0155 500.635 76.8235 500.859 76.6901 501.136C76.5568 501.413 76.4901 501.704 76.4901 502.008ZM83.6719 507V498.728H85.9679V499.896C86.0959 499.693 86.2612 499.499 86.4639 499.312C86.6719 499.12 86.9332 498.963 87.2479 498.84C87.5625 498.717 87.9359 498.656 88.3679 498.656C88.8745 498.656 89.3465 498.755 89.7839 498.952C90.2265 499.149 90.5839 499.461 90.8559 499.888C91.1279 500.309 91.2639 500.861 91.2639 501.544V507H88.9279V501.832C88.9279 501.384 88.7945 501.048 88.5279 500.824C88.2612 500.6 87.9359 500.488 87.5519 500.488C87.2959 500.488 87.0479 500.533 86.8079 500.624C86.5732 500.715 86.3812 500.851 86.2319 501.032C86.0825 501.213 86.0079 501.437 86.0079 501.704V507H83.6719ZM104.435 495.432H106.771V507H104.667L99.1709 499.04V507H96.8429V495.432H99.1549L104.435 503.088V495.432ZM111.447 507.16C110.919 507.16 110.444 507.061 110.023 506.864C109.602 506.667 109.268 506.381 109.023 506.008C108.778 505.629 108.655 505.171 108.655 504.632C108.655 503.725 108.994 503.037 109.671 502.568C110.348 502.093 111.418 501.848 112.879 501.832L113.911 501.816V501.32C113.911 500.941 113.799 500.651 113.575 500.448C113.356 500.24 113.015 500.139 112.551 500.144C112.21 500.149 111.884 500.229 111.575 500.384C111.271 500.539 111.063 500.808 110.951 501.192H109.007C109.039 500.595 109.212 500.104 109.527 499.72C109.842 499.331 110.268 499.043 110.807 498.856C111.351 498.664 111.967 498.568 112.655 498.568C113.503 498.568 114.183 498.675 114.695 498.888C115.207 499.096 115.578 499.397 115.807 499.792C116.036 500.181 116.151 500.645 116.151 501.184V507H114.199L114.007 505.576C113.724 506.173 113.37 506.587 112.943 506.816C112.522 507.045 112.023 507.16 111.447 507.16ZM112.231 505.624C112.444 505.624 112.65 505.587 112.847 505.512C113.05 505.432 113.228 505.328 113.383 505.2C113.543 505.067 113.671 504.917 113.767 504.752C113.863 504.587 113.911 504.416 113.911 504.24V503.016L113.071 503.032C112.682 503.037 112.319 503.085 111.983 503.176C111.647 503.261 111.375 503.403 111.167 503.6C110.964 503.797 110.863 504.064 110.863 504.4C110.863 504.784 110.996 505.085 111.263 505.304C111.53 505.517 111.852 505.624 112.231 505.624ZM118.219 507V498.728H120.507V499.896C120.757 499.533 121.093 499.221 121.515 498.96C121.941 498.699 122.477 498.568 123.123 498.568C123.405 498.568 123.693 498.619 123.987 498.72C124.28 498.821 124.555 498.971 124.811 499.168C125.072 499.36 125.283 499.603 125.443 499.896C125.709 499.517 126.059 499.203 126.491 498.952C126.928 498.696 127.413 498.568 127.947 498.568C128.256 498.568 128.568 498.619 128.883 498.72C129.203 498.821 129.496 498.987 129.763 499.216C130.029 499.445 130.243 499.752 130.403 500.136C130.568 500.515 130.651 500.984 130.651 501.544V507H128.315V501.832C128.315 501.501 128.248 501.237 128.115 501.04C127.987 500.837 127.821 500.693 127.619 500.608C127.421 500.517 127.211 500.472 126.987 500.472C126.779 500.472 126.568 500.515 126.355 500.6C126.141 500.68 125.96 500.811 125.811 500.992C125.661 501.173 125.587 501.411 125.587 501.704V507H123.259V501.624C123.259 501.373 123.192 501.163 123.059 500.992C122.925 500.821 122.757 500.693 122.555 500.608C122.357 500.517 122.155 500.472 121.947 500.472C121.733 500.472 121.52 500.517 121.307 500.608C121.093 500.693 120.915 500.829 120.771 501.016C120.627 501.197 120.555 501.427 120.555 501.704V507H118.219ZM134.467 503.4C134.462 503.821 134.528 504.189 134.667 504.504C134.806 504.813 135.006 505.053 135.267 505.224C135.534 505.389 135.854 505.472 136.227 505.472C136.627 505.472 136.976 505.387 137.275 505.216C137.579 505.045 137.79 504.765 137.907 504.376H140.011C139.92 504.963 139.686 505.464 139.307 505.88C138.934 506.296 138.48 506.613 137.947 506.832C137.414 507.051 136.859 507.16 136.283 507.16C135.467 507.16 134.747 506.989 134.123 506.648C133.504 506.301 133.022 505.813 132.675 505.184C132.328 504.555 132.155 503.813 132.155 502.96C132.155 502.133 132.312 501.389 132.627 500.728C132.942 500.061 133.398 499.536 133.995 499.152C134.598 498.763 135.32 498.568 136.163 498.568C137.006 498.568 137.712 498.747 138.283 499.104C138.859 499.456 139.291 499.949 139.579 500.584C139.872 501.213 140.019 501.941 140.019 502.768V503.4H134.467ZM134.459 502.008H137.835C137.835 501.677 137.774 501.373 137.651 501.096C137.528 500.819 137.342 500.6 137.091 500.44C136.846 500.28 136.536 500.2 136.163 500.2C135.8 500.2 135.491 500.288 135.235 500.464C134.984 500.635 134.792 500.859 134.659 501.136C134.526 501.413 134.459 501.704 134.459 502.008Z" fill="#3E3E3E"/>
<rect x="51" y="634" width="326" height="50" rx="6" fill="#FCFCFC" stroke="white" stroke-width="4"/>
<path d="M54.64 616.16C54.0693 616.16 53.5093 616.088 52.96 615.944C52.4107 615.8 51.9093 615.584 51.456 615.296C51.0027 615.008 50.6267 614.648 50.328 614.216C50.0347 613.784 49.8587 613.277 49.8 612.696H52.192C52.272 613.048 52.424 613.344 52.648 613.584C52.872 613.824 53.1547 614.008 53.496 614.136C53.8373 614.264 54.216 614.328 54.632 614.328C55.0587 614.328 55.448 614.275 55.8 614.168C56.152 614.061 56.4347 613.901 56.648 613.688C56.8613 613.469 56.968 613.197 56.968 612.872C56.968 612.579 56.88 612.339 56.704 612.152C56.5333 611.965 56.3013 611.813 56.008 611.696C55.7147 611.579 55.3813 611.483 55.008 611.408L53.008 611C52.1333 610.835 51.44 610.488 50.928 609.96C50.416 609.427 50.152 608.717 50.136 607.832C50.1307 607.107 50.3227 606.48 50.712 605.952C51.1067 605.419 51.64 605.008 52.312 604.72C52.9893 604.432 53.7467 604.288 54.584 604.288C55.5813 604.288 56.4187 604.445 57.096 604.76C57.7787 605.069 58.296 605.491 58.648 606.024C59.0053 606.552 59.1893 607.141 59.2 607.792H56.856C56.8133 607.387 56.6907 607.064 56.488 606.824C56.2853 606.584 56.024 606.411 55.704 606.304C55.3893 606.197 55.0293 606.144 54.624 606.144C54.3147 606.144 54.032 606.179 53.776 606.248C53.5253 606.317 53.312 606.416 53.136 606.544C52.96 606.667 52.824 606.813 52.728 606.984C52.632 607.155 52.584 607.347 52.584 607.56C52.584 607.896 52.696 608.168 52.92 608.376C53.144 608.584 53.5627 608.755 54.176 608.888L56.16 609.296C56.8693 609.435 57.432 609.64 57.848 609.912C58.2693 610.184 58.584 610.491 58.792 610.832C59.0053 611.173 59.144 611.523 59.208 611.88C59.2773 612.232 59.312 612.557 59.312 612.856C59.312 613.48 59.1147 614.043 58.72 614.544C58.3307 615.04 57.7867 615.435 57.088 615.728C56.3893 616.016 55.5733 616.16 54.64 616.16ZM64.1418 616.16C63.7578 616.16 63.3791 616.101 63.0058 615.984C62.6378 615.867 62.3018 615.693 61.9978 615.464C61.6938 615.235 61.4484 614.952 61.2618 614.616C61.0804 614.28 60.9898 613.891 60.9898 613.448V607.728H63.3258V613.152C63.3258 613.536 63.4511 613.851 63.7018 614.096C63.9524 614.341 64.3204 614.464 64.8058 614.464C65.2644 614.464 65.6271 614.347 65.8938 614.112C66.1658 613.872 66.3018 613.539 66.3018 613.112V607.728H68.6138V616H66.8538L66.5818 614.36C66.4858 614.845 66.3044 615.219 66.0378 615.48C65.7764 615.736 65.4751 615.912 65.1338 616.008C64.7978 616.109 64.4671 616.16 64.1418 616.16ZM70.5625 616V607.728H72.8105V609.688C72.9438 609.267 73.1305 608.899 73.3705 608.584C73.6158 608.264 73.9118 608.016 74.2585 607.84C74.6052 607.659 74.9972 607.568 75.4345 607.568C75.5092 607.568 75.5785 607.573 75.6425 607.584C75.7118 607.589 75.7625 607.6 75.7945 607.616V609.84C75.7465 609.819 75.6878 609.805 75.6185 609.8C75.5545 609.795 75.4958 609.789 75.4425 609.784C74.9838 609.747 74.5918 609.76 74.2665 609.824C73.9412 609.888 73.6772 609.997 73.4745 610.152C73.2718 610.307 73.1252 610.496 73.0345 610.72C72.9438 610.944 72.8985 611.195 72.8985 611.472V616H70.5625ZM77.0625 616V607.728H79.3585V608.896C79.4865 608.693 79.6518 608.499 79.8545 608.312C80.0625 608.12 80.3238 607.963 80.6385 607.84C80.9532 607.717 81.3265 607.656 81.7585 607.656C82.2652 607.656 82.7372 607.755 83.1745 607.952C83.6172 608.149 83.9745 608.461 84.2465 608.888C84.5185 609.309 84.6545 609.861 84.6545 610.544V616H82.3185V610.832C82.3185 610.384 82.1852 610.048 81.9185 609.824C81.6518 609.6 81.3265 609.488 80.9425 609.488C80.6865 609.488 80.4385 609.533 80.1985 609.624C79.9638 609.715 79.7718 609.851 79.6225 610.032C79.4732 610.213 79.3985 610.437 79.3985 610.704V616H77.0625ZM88.8844 616.16C88.3564 616.16 87.8817 616.061 87.4604 615.864C87.039 615.667 86.7057 615.381 86.4604 615.008C86.215 614.629 86.0924 614.171 86.0924 613.632C86.0924 612.725 86.431 612.037 87.1084 611.568C87.7857 611.093 88.855 610.848 90.3164 610.832L91.3484 610.816V610.32C91.3484 609.941 91.2364 609.651 91.0124 609.448C90.7937 609.24 90.4524 609.139 89.9884 609.144C89.647 609.149 89.3217 609.229 89.0124 609.384C88.7084 609.539 88.5004 609.808 88.3884 610.192H86.4444C86.4764 609.595 86.6497 609.104 86.9644 608.72C87.279 608.331 87.7057 608.043 88.2444 607.856C88.7884 607.664 89.4044 607.568 90.0924 607.568C90.9404 607.568 91.6204 607.675 92.1324 607.888C92.6444 608.096 93.015 608.397 93.2444 608.792C93.4737 609.181 93.5884 609.645 93.5884 610.184V616H91.6364L91.4444 614.576C91.1617 615.173 90.807 615.587 90.3804 615.816C89.959 616.045 89.4604 616.16 88.8844 616.16ZM89.6684 614.624C89.8817 614.624 90.087 614.587 90.2844 614.512C90.487 614.432 90.6657 614.328 90.8204 614.2C90.9804 614.067 91.1084 613.917 91.2044 613.752C91.3004 613.587 91.3484 613.416 91.3484 613.24V612.016L90.5084 612.032C90.119 612.037 89.7564 612.085 89.4204 612.176C89.0844 612.261 88.8124 612.403 88.6044 612.6C88.4017 612.797 88.3004 613.064 88.3004 613.4C88.3004 613.784 88.4337 614.085 88.7004 614.304C88.967 614.517 89.2897 614.624 89.6684 614.624ZM95.6562 616V607.728H97.9443V608.896C98.1949 608.533 98.5309 608.221 98.9523 607.96C99.3789 607.699 99.9149 607.568 100.56 607.568C100.843 607.568 101.131 607.619 101.424 607.72C101.718 607.821 101.992 607.971 102.248 608.168C102.51 608.36 102.72 608.603 102.88 608.896C103.147 608.517 103.496 608.203 103.928 607.952C104.366 607.696 104.851 607.568 105.384 607.568C105.694 607.568 106.006 607.619 106.32 607.72C106.64 607.821 106.934 607.987 107.2 608.216C107.467 608.445 107.68 608.752 107.84 609.136C108.006 609.515 108.088 609.984 108.088 610.544V616H105.752V610.832C105.752 610.501 105.686 610.237 105.552 610.04C105.424 609.837 105.259 609.693 105.056 609.608C104.859 609.517 104.648 609.472 104.424 609.472C104.216 609.472 104.006 609.515 103.792 609.6C103.579 609.68 103.398 609.811 103.248 609.992C103.099 610.173 103.024 610.411 103.024 610.704V616H100.696V610.624C100.696 610.373 100.63 610.163 100.496 609.992C100.363 609.821 100.195 609.693 99.9923 609.608C99.7949 609.517 99.5923 609.472 99.3843 609.472C99.1709 609.472 98.9576 609.517 98.7443 609.608C98.5309 609.693 98.3523 609.829 98.2083 610.016C98.0643 610.197 97.9923 610.427 97.9923 610.704V616H95.6562ZM111.904 612.4C111.899 612.821 111.966 613.189 112.104 613.504C112.243 613.813 112.443 614.053 112.704 614.224C112.971 614.389 113.291 614.472 113.664 614.472C114.064 614.472 114.414 614.387 114.712 614.216C115.016 614.045 115.227 613.765 115.344 613.376H117.448C117.358 613.963 117.123 614.464 116.744 614.88C116.371 615.296 115.918 615.613 115.384 615.832C114.851 616.051 114.296 616.16 113.72 616.16C112.904 616.16 112.184 615.989 111.56 615.648C110.942 615.301 110.459 614.813 110.112 614.184C109.766 613.555 109.592 612.813 109.592 611.96C109.592 611.133 109.75 610.389 110.064 609.728C110.379 609.061 110.835 608.536 111.432 608.152C112.035 607.763 112.758 607.568 113.6 607.568C114.443 607.568 115.15 607.747 115.72 608.104C116.296 608.456 116.728 608.949 117.016 609.584C117.31 610.213 117.456 610.941 117.456 611.768V612.4H111.904ZM111.896 611.008H115.272C115.272 610.677 115.211 610.373 115.088 610.096C114.966 609.819 114.779 609.6 114.528 609.44C114.283 609.28 113.974 609.2 113.6 609.2C113.238 609.2 112.928 609.288 112.672 609.464C112.422 609.635 112.23 609.859 112.096 610.136C111.963 610.413 111.896 610.704 111.896 611.008Z" fill="#3E3E3E"/>
<defs>
<filter id="filter0_d_520_2090" x="77.5" y="820.5" width="279" height="71" filterUnits="userSpaceOnUse" color-interpolation-filters="sRGB">
<feFlood flood-opacity="0" result="BackgroundImageFix"/>
<feColorMatrix in="SourceAlpha" type="matrix" values="0 0 0 0 0 0 0 0 0 0 0 0 0 0 0 0 0 0 127 0" result="hardAlpha"/>
<feOffset dx="3" dy="4"/>
<feGaussianBlur stdDeviation="3.75"/>
<feComposite in2="hardAlpha" operator="out"/>
<feColorMatrix type="matrix" values="0 0 0 0 0.529412 0 0 0 0 0.462745 0 0 0 0 0.341176 0 0 0 0.3 0"/>
<feBlend mode="normal" in2="BackgroundImageFix" result="effect1_dropShadow_520_2090"/>
<feBlend mode="normal" in="SourceGraphic" in2="effect1_dropShadow_520_2090" result="shape"/>
</filter>
<clipPath id="clip0_520_2090">
<rect width="119" height="119" fill="white" transform="translate(155 22)"/>
</clipPath>
</defs>
</svg>
