<svg width="428" height="926" viewBox="0 0 428 926" fill="none" xmlns="http://www.w3.org/2000/svg">
<rect width="428" height="926" fill="#F8F2E9"/>
<g clip-path="url(#clip0_676_1660)">
<path d="M240.646 92.0177C240.549 91.6317 240.501 91.2208 240.501 90.785C240.501 89.1542 241.237 87.7352 242.71 86.5279C244.183 85.3207 247.195 83.8385 251.746 82.0814V80.7351C251.746 79.3192 251.565 78.3047 251.205 77.6916C250.845 77.0785 250.254 76.7719 249.432 76.7719C248.762 76.7719 248.206 76.971 247.764 77.3692C247.321 77.7674 247.1 78.2636 247.1 78.8578C247.1 79.1738 247.113 79.5436 247.138 79.9671C247.163 80.3905 247.176 80.6592 247.176 80.773C247.176 81.6958 246.92 82.4384 246.408 83.001C245.896 83.5636 245.216 83.8448 244.369 83.8448C243.598 83.8448 242.979 83.6015 242.511 83.1148C242.043 82.628 241.809 81.9865 241.809 81.1902C241.809 79.4709 242.625 78.0456 244.256 76.9141C245.886 75.7827 247.985 75.217 250.551 75.217C251.992 75.217 253.297 75.4004 254.467 75.767C255.636 76.1336 256.594 76.6645 257.339 77.3598C257.946 77.9286 258.376 78.5923 258.629 79.3508C258.882 80.1092 259.008 81.2533 259.008 82.783V88.1871C259.008 89.6914 259.125 90.7597 259.359 91.3917C259.593 92.0238 259.969 92.3399 260.487 92.3399C260.601 92.3399 260.715 92.3146 260.828 92.264C260.942 92.2134 261.062 92.1377 261.189 92.0364V93.269C260.683 93.9137 260.029 94.413 259.226 94.767C258.423 95.121 257.535 95.298 256.562 95.298C255.45 95.298 254.517 95.0389 253.765 94.5205C253.013 94.0022 252.46 93.2375 252.106 92.2262C251.145 93.326 250.137 94.1445 249.081 94.6817C248.026 95.2189 246.91 95.4876 245.735 95.4876C244.18 95.4876 242.919 95.0483 241.952 94.1697C241.629 93.8766 241.36 93.5556 241.145 93.2066C240.384 93.8039 239.157 94.4941 238.538 94.767C237.736 95.121 236.848 95.298 235.874 95.298C234.762 95.298 233.829 95.0389 233.077 94.5205C232.325 94.0022 231.772 93.2375 231.418 92.2262C230.457 93.326 229.449 94.1445 228.394 94.6817C227.338 95.2189 226.223 95.4876 225.047 95.4876C223.492 95.4876 222.231 95.0483 221.264 94.1697C220.297 93.2911 219.813 92.1629 219.813 90.785C219.813 89.1542 220.55 87.7352 222.022 86.5279C223.495 85.3207 226.507 83.8385 231.058 82.0814V80.7351C231.058 79.3192 230.878 78.3047 230.517 77.6916C230.157 77.0785 229.566 76.7719 228.744 76.7719C228.075 76.7719 227.518 76.971 227.076 77.3692C226.633 77.7674 226.412 78.2636 226.412 78.8578C226.412 79.1738 226.425 79.5436 226.45 79.9671C226.475 80.3905 226.488 80.6592 226.488 80.773C226.488 81.6958 226.232 82.4384 225.72 83.001C225.208 83.5636 224.529 83.8448 223.682 83.8448C222.91 83.8448 222.291 83.6015 221.823 83.1148C221.356 82.628 221.122 81.9865 221.122 81.1902C221.122 79.4709 221.937 78.0456 223.568 76.9141C225.199 75.7827 227.297 75.217 229.863 75.217C231.304 75.217 232.61 75.4004 233.779 75.767C234.948 76.1336 235.906 76.6645 236.652 77.3598C237.258 77.9286 237.688 78.5923 237.941 79.3508C238.194 80.1092 238.32 81.2533 238.32 82.783V88.1871C238.32 89.6914 238.437 90.7597 238.671 91.3917C238.905 92.0238 239.281 92.3399 239.799 92.3399C239.913 92.3399 240.027 92.3146 240.141 92.264C240.194 92.2404 240.414 92.1343 240.646 92.0177ZM182.778 94.6723L178.246 85.6652V90.8229C178.246 91.8215 178.423 92.5327 178.777 92.9562C179.131 93.3796 179.731 93.5913 180.578 93.5913H180.692V94.6723H168.499V93.5913H168.613C169.448 93.5913 170.045 93.3796 170.405 92.9562C170.765 92.5327 170.946 91.8215 170.946 90.8229V75.2549C170.946 74.6734 170.879 74.2532 170.746 73.9941C170.614 73.7348 170.313 73.4156 169.846 73.0364L167.798 71.3678C168.683 71.1023 169.915 70.6788 171.495 70.0972C173.076 69.5158 175.326 68.6562 178.246 67.5184V84.6222C179.902 83.3454 181.15 82.1919 181.991 81.1616C182.832 80.1314 183.252 79.2371 183.252 78.4786C183.252 78.074 183.097 77.7516 182.787 77.5115C182.478 77.2713 182.051 77.1512 181.507 77.1512H181.394V76.0704H191.254V77.1512H190.932C189.63 77.1512 188.403 77.4925 187.253 78.1751C186.103 78.8578 184.921 79.9449 183.707 81.4367L189.149 90.747C189.743 91.7837 190.319 92.5043 190.875 92.9087C191.429 93.312 192.122 93.5394 192.953 93.5909C193.752 93.5796 194.326 93.3681 194.677 92.9562C195.037 92.5327 195.217 91.8215 195.217 90.8229V82.783C195.217 82.2015 195.154 81.7811 195.027 81.522C194.901 81.2629 194.604 80.95 194.136 80.5833L192.069 78.9147C193.574 78.4343 195.198 77.8718 196.943 77.227C198.687 76.5823 200.545 75.8618 202.518 75.0653V90.8229C202.518 91.7963 202.691 92.4947 203.039 92.9182C203.387 93.3416 203.965 93.5661 204.774 93.5913H204.811C205.645 93.5913 206.243 93.3796 206.603 92.9562C206.963 92.5327 207.143 91.8215 207.143 90.8229V83.6742C207.143 83.0673 207.067 82.6186 206.916 82.3279C206.764 82.0371 206.48 81.7526 206.063 81.4745L203.692 79.8059C204.931 79.376 206.36 78.7851 207.978 78.0329C209.596 77.2807 211.58 76.2916 213.932 75.0653V78.4027C214.564 77.3408 215.25 76.5445 215.989 76.0135C216.729 75.4825 217.522 75.217 218.369 75.217C219.304 75.217 220.057 75.4951 220.625 76.0514C221.194 76.6076 221.479 77.3408 221.479 78.251C221.479 79.0474 221.242 79.6858 220.768 80.1661C220.294 80.6466 219.665 80.8867 218.881 80.8867C218.173 80.8867 217.494 80.6023 216.842 80.0334C216.191 79.4645 215.777 79.1802 215.6 79.1802C215.183 79.1802 214.886 79.4583 214.709 80.0145C214.532 80.5707 214.444 81.563 214.444 82.9916V90.8229C214.444 91.8089 214.643 92.5169 215.041 92.9466C215.439 93.3765 216.093 93.5913 217.004 93.5913H217.117V94.6723H182.778ZM251.746 83.4845C250.608 83.9396 249.742 84.657 249.148 85.6367C248.554 86.6164 248.257 87.8143 248.257 89.2301C248.257 90.0392 248.418 90.6839 248.74 91.1642C249.062 91.6446 249.483 91.8848 250.001 91.8848C250.671 91.8848 251.129 91.6193 251.376 91.0883C251.622 90.5574 251.746 89.2301 251.746 87.1063V83.4845ZM231.058 83.4845C229.92 83.9396 229.054 84.657 228.46 85.6367C227.866 86.6164 227.569 87.8143 227.569 89.2301C227.569 90.0392 227.73 90.6839 228.052 91.1642C228.375 91.6446 228.795 91.8848 229.313 91.8848C229.983 91.8848 230.442 91.6193 230.688 91.0883C230.935 90.5574 231.058 89.2301 231.058 87.1063V83.4845ZM194.705 71.3298C194.705 70.268 195.075 69.3672 195.814 68.6277C196.554 67.8882 197.455 67.5184 198.517 67.5184C199.591 67.5184 200.495 67.8882 201.228 68.6277C201.961 69.3672 202.328 70.268 202.328 71.3298C202.328 72.3917 201.958 73.2923 201.219 74.0319C200.479 74.7714 199.578 75.1412 198.517 75.1412C197.455 75.1412 196.554 74.7746 195.814 74.0414C195.075 73.3082 194.705 72.4043 194.705 71.3298Z" fill="#3E3E3E"/>
</g>
<path d="M56.6188 195.238L51 189.619L56.6188 184" stroke="#3E3E3E" stroke-width="2.65192" stroke-linecap="round" stroke-linejoin="round"/>
<path d="M51 189.619H64.2596" stroke="#3E3E3E" stroke-width="2.65192" stroke-linecap="round" stroke-linejoin="round"/>
<path d="M114.86 215.79H108.53V222H105.62V207.54H108.53V213.34H114.86V207.54H117.78V222H114.86V215.79ZM124.807 222.2C123.794 222.2 122.911 221.983 122.157 221.55C121.411 221.117 120.831 220.503 120.417 219.71C120.011 218.917 119.807 217.977 119.807 216.89C119.807 215.803 120.011 214.853 120.417 214.04C120.831 213.227 121.411 212.593 122.157 212.14C122.911 211.687 123.797 211.46 124.817 211.46C125.837 211.46 126.721 211.683 127.467 212.13C128.214 212.57 128.791 213.197 129.197 214.01C129.604 214.823 129.807 215.783 129.807 216.89C129.807 217.93 129.607 218.85 129.207 219.65C128.814 220.443 128.244 221.067 127.497 221.52C126.757 221.973 125.861 222.2 124.807 222.2ZM124.817 220.03C125.331 220.03 125.744 219.88 126.057 219.58C126.371 219.28 126.597 218.887 126.737 218.4C126.884 217.907 126.957 217.37 126.957 216.79C126.957 216.243 126.891 215.727 126.757 215.24C126.631 214.753 126.411 214.36 126.097 214.06C125.784 213.76 125.357 213.61 124.817 213.61C124.304 213.61 123.887 213.753 123.567 214.04C123.254 214.32 123.024 214.703 122.877 215.19C122.731 215.67 122.657 216.203 122.657 216.79C122.657 217.33 122.724 217.85 122.857 218.35C122.991 218.843 123.214 219.247 123.527 219.56C123.841 219.873 124.271 220.03 124.817 220.03ZM145.584 211.66L142.184 222H139.864L137.934 215.74L136.014 222H133.754L130.404 211.66H132.984L134.964 218.07H135.044L136.944 211.66H139.024L140.944 218.07H141.024L142.944 211.66H145.584ZM154.969 222.2C153.582 222.2 152.502 221.723 151.729 220.77C150.956 219.81 150.569 218.477 150.569 216.77C150.569 215.69 150.726 214.753 151.039 213.96C151.352 213.167 151.816 212.553 152.429 212.12C153.042 211.68 153.792 211.46 154.679 211.46C155.052 211.46 155.399 211.503 155.719 211.59C156.046 211.67 156.342 211.783 156.609 211.93C156.876 212.077 157.109 212.247 157.309 212.44C157.509 212.633 157.672 212.84 157.799 213.06V207.14H160.729V222H158.609L158.279 219.88C158.186 220.167 158.056 220.447 157.889 220.72C157.722 220.993 157.509 221.243 157.249 221.47C156.989 221.69 156.669 221.867 156.289 222C155.916 222.133 155.476 222.2 154.969 222.2ZM155.609 220.1C156.342 220.1 156.889 219.843 157.249 219.33C157.616 218.817 157.799 217.95 157.799 216.73C157.792 216.023 157.709 215.437 157.549 214.97C157.389 214.503 157.149 214.157 156.829 213.93C156.516 213.697 156.116 213.58 155.629 213.58C154.996 213.58 154.469 213.823 154.049 214.31C153.629 214.79 153.419 215.597 153.419 216.73C153.419 217.883 153.616 218.733 154.009 219.28C154.402 219.827 154.936 220.1 155.609 220.1ZM167.678 222.2C166.665 222.2 165.782 221.983 165.028 221.55C164.282 221.117 163.702 220.503 163.288 219.71C162.882 218.917 162.678 217.977 162.678 216.89C162.678 215.803 162.882 214.853 163.288 214.04C163.702 213.227 164.282 212.593 165.028 212.14C165.782 211.687 166.668 211.46 167.688 211.46C168.708 211.46 169.592 211.683 170.338 212.13C171.085 212.57 171.662 213.197 172.068 214.01C172.475 214.823 172.678 215.783 172.678 216.89C172.678 217.93 172.478 218.85 172.078 219.65C171.685 220.443 171.115 221.067 170.368 221.52C169.628 221.973 168.732 222.2 167.678 222.2ZM167.688 220.03C168.202 220.03 168.615 219.88 168.928 219.58C169.242 219.28 169.468 218.887 169.608 218.4C169.755 217.907 169.828 217.37 169.828 216.79C169.828 216.243 169.762 215.727 169.628 215.24C169.502 214.753 169.282 214.36 168.968 214.06C168.655 213.76 168.228 213.61 167.688 213.61C167.175 213.61 166.758 213.753 166.438 214.04C166.125 214.32 165.895 214.703 165.748 215.19C165.602 215.67 165.528 216.203 165.528 216.79C165.528 217.33 165.595 217.85 165.728 218.35C165.862 218.843 166.085 219.247 166.398 219.56C166.712 219.873 167.142 220.03 167.688 220.03ZM177.025 217.5C177.018 218.027 177.102 218.487 177.275 218.88C177.448 219.267 177.698 219.567 178.025 219.78C178.358 219.987 178.758 220.09 179.225 220.09C179.725 220.09 180.162 219.983 180.535 219.77C180.915 219.557 181.178 219.207 181.325 218.72H183.955C183.842 219.453 183.548 220.08 183.075 220.6C182.608 221.12 182.042 221.517 181.375 221.79C180.708 222.063 180.015 222.2 179.295 222.2C178.275 222.2 177.375 221.987 176.595 221.56C175.822 221.127 175.218 220.517 174.785 219.73C174.352 218.943 174.135 218.017 174.135 216.95C174.135 215.917 174.332 214.987 174.725 214.16C175.118 213.327 175.688 212.67 176.435 212.19C177.188 211.703 178.092 211.46 179.145 211.46C180.198 211.46 181.082 211.683 181.795 212.13C182.515 212.57 183.055 213.187 183.415 213.98C183.782 214.767 183.965 215.677 183.965 216.71V217.5H177.025ZM177.015 215.76H181.235C181.235 215.347 181.158 214.967 181.005 214.62C180.852 214.273 180.618 214 180.305 213.8C179.998 213.6 179.612 213.5 179.145 213.5C178.692 213.5 178.305 213.61 177.985 213.83C177.672 214.043 177.432 214.323 177.265 214.67C177.098 215.017 177.015 215.38 177.015 215.76ZM190.063 222.2C189.343 222.2 188.649 222.083 187.983 221.85C187.316 221.61 186.753 221.237 186.293 220.73C185.833 220.217 185.539 219.553 185.413 218.74H187.943C188.029 219.107 188.186 219.397 188.413 219.61C188.646 219.823 188.909 219.977 189.203 220.07C189.496 220.157 189.776 220.2 190.043 220.2C190.603 220.2 191.053 220.113 191.393 219.94C191.739 219.76 191.913 219.487 191.913 219.12C191.913 218.84 191.809 218.617 191.603 218.45C191.403 218.283 191.069 218.157 190.603 218.07L188.783 217.69C187.869 217.497 187.136 217.17 186.583 216.71C186.029 216.243 185.746 215.583 185.733 214.73C185.733 214.11 185.896 213.553 186.223 213.06C186.556 212.567 187.046 212.177 187.693 211.89C188.339 211.603 189.133 211.46 190.073 211.46C191.346 211.46 192.363 211.74 193.123 212.3C193.889 212.86 194.279 213.65 194.293 214.67H191.853C191.779 214.27 191.579 213.963 191.253 213.75C190.933 213.53 190.529 213.42 190.043 213.42C189.536 213.42 189.119 213.51 188.793 213.69C188.466 213.87 188.303 214.143 188.303 214.51C188.303 214.783 188.436 215 188.703 215.16C188.969 215.313 189.383 215.447 189.943 215.56L191.623 215.94C192.203 216.08 192.673 216.273 193.033 216.52C193.399 216.76 193.683 217.023 193.883 217.31C194.083 217.597 194.219 217.887 194.293 218.18C194.373 218.467 194.413 218.727 194.413 218.96C194.413 219.647 194.229 220.233 193.863 220.72C193.496 221.2 192.986 221.567 192.333 221.82C191.679 222.073 190.923 222.2 190.063 222.2ZM213.113 222H209.933L206.103 215.27L203.963 217.85V222H200.933V207.54H203.963V214.16L209.233 207.54H212.583L208.193 213.14L213.113 222ZM215.268 207.54H218.178V222H215.268V207.54ZM232.641 222H229.611L227.261 216.43H224.331V222H221.421V207.54H227.521C228.674 207.54 229.617 207.723 230.351 208.09C231.084 208.457 231.624 208.967 231.971 209.62C232.317 210.267 232.491 211.013 232.491 211.86C232.491 212.62 232.371 213.263 232.131 213.79C231.897 214.31 231.587 214.743 231.201 215.09C230.821 215.437 230.404 215.72 229.951 215.94L232.641 222ZM227.001 214.18C227.781 214.18 228.397 213.97 228.851 213.55C229.311 213.13 229.541 212.59 229.541 211.93C229.541 211.263 229.321 210.737 228.881 210.35C228.441 209.963 227.884 209.77 227.211 209.77H224.331V214.18H227.001ZM234.413 222L239.593 207.54H242.673L247.843 222H244.933L243.753 218.65H238.553L237.343 222H234.413ZM239.203 216.1H243.053L241.143 210.36L239.203 216.1ZM249.296 222L254.476 207.54H257.556L262.726 222H259.816L258.636 218.65H253.436L252.226 222H249.296ZM254.086 216.1H257.936L256.026 210.36L254.086 216.1ZM282.967 211.66L279.567 222H277.247L275.317 215.74L273.397 222H271.137L267.787 211.66H270.367L272.347 218.07H272.427L274.327 211.66H276.407L278.327 218.07H278.407L280.327 211.66H282.967ZM288.538 222.2C287.524 222.2 286.641 221.983 285.888 221.55C285.141 221.117 284.561 220.503 284.148 219.71C283.741 218.917 283.538 217.977 283.538 216.89C283.538 215.803 283.741 214.853 284.148 214.04C284.561 213.227 285.141 212.593 285.888 212.14C286.641 211.687 287.528 211.46 288.548 211.46C289.568 211.46 290.451 211.683 291.198 212.13C291.944 212.57 292.521 213.197 292.928 214.01C293.334 214.823 293.538 215.783 293.538 216.89C293.538 217.93 293.338 218.85 292.938 219.65C292.544 220.443 291.974 221.067 291.228 221.52C290.488 221.973 289.591 222.2 288.538 222.2ZM288.548 220.03C289.061 220.03 289.474 219.88 289.788 219.58C290.101 219.28 290.328 218.887 290.468 218.4C290.614 217.907 290.688 217.37 290.688 216.79C290.688 216.243 290.621 215.727 290.488 215.24C290.361 214.753 290.141 214.36 289.828 214.06C289.514 213.76 289.088 213.61 288.548 213.61C288.034 213.61 287.618 213.753 287.298 214.04C286.984 214.32 286.754 214.703 286.608 215.19C286.461 215.67 286.388 216.203 286.388 216.79C286.388 217.33 286.454 217.85 286.588 218.35C286.721 218.843 286.944 219.247 287.258 219.56C287.571 219.873 288.001 220.03 288.548 220.03ZM295.484 222V211.66H298.294V214.11C298.461 213.583 298.694 213.123 298.994 212.73C299.301 212.33 299.671 212.02 300.104 211.8C300.538 211.573 301.028 211.46 301.574 211.46C301.668 211.46 301.754 211.467 301.834 211.48C301.921 211.487 301.984 211.5 302.024 211.52V214.3C301.964 214.273 301.891 214.257 301.804 214.25C301.724 214.243 301.651 214.237 301.584 214.23C301.011 214.183 300.521 214.2 300.114 214.28C299.708 214.36 299.378 214.497 299.124 214.69C298.871 214.883 298.688 215.12 298.574 215.4C298.461 215.68 298.404 215.993 298.404 216.34V222H295.484ZM313.599 222H310.689L307.899 217.54L306.529 219V222H303.609V207.14H306.529V215.95L310.329 211.66H313.469L309.709 215.78L313.599 222ZM320.552 218.88V222H317.352V218.88H320.552ZM314.142 210.62C314.569 209.567 315.219 208.757 316.092 208.19C316.972 207.623 318.019 207.34 319.232 207.34C320.185 207.34 321.019 207.493 321.732 207.8C322.445 208.107 322.999 208.517 323.392 209.03C323.792 209.543 323.992 210.113 323.992 210.74C323.992 211.393 323.859 211.95 323.592 212.41C323.332 212.87 323.012 213.283 322.632 213.65C322.252 214.01 321.869 214.37 321.482 214.73C321.102 215.083 320.782 215.48 320.522 215.92C320.262 216.353 320.132 216.873 320.132 217.48H317.782C317.782 216.747 317.892 216.113 318.112 215.58C318.339 215.04 318.615 214.57 318.942 214.17C319.275 213.763 319.605 213.39 319.932 213.05C320.259 212.71 320.532 212.37 320.752 212.03C320.979 211.683 321.092 211.303 321.092 210.89C321.092 210.417 320.912 210.04 320.552 209.76C320.199 209.48 319.752 209.34 319.212 209.34C318.852 209.34 318.502 209.42 318.162 209.58C317.822 209.733 317.515 209.95 317.242 210.23C316.975 210.51 316.769 210.84 316.622 211.22L314.142 210.62Z" fill="#3E3E3E"/>
<path d="M153.688 292.032H148.624V297H146.296V285.432H148.624V290.072H153.688V285.432H156.024V297H153.688V292.032ZM161.646 297.16C160.835 297.16 160.128 296.987 159.526 296.64C158.928 296.293 158.464 295.803 158.134 295.168C157.808 294.533 157.646 293.781 157.646 292.912C157.646 292.043 157.808 291.283 158.134 290.632C158.464 289.981 158.928 289.475 159.526 289.112C160.128 288.749 160.838 288.568 161.654 288.568C162.47 288.568 163.176 288.747 163.774 289.104C164.371 289.456 164.832 289.957 165.158 290.608C165.483 291.259 165.646 292.027 165.646 292.912C165.646 293.744 165.486 294.48 165.166 295.12C164.851 295.755 164.395 296.253 163.798 296.616C163.206 296.979 162.488 297.16 161.646 297.16ZM161.654 295.424C162.064 295.424 162.395 295.304 162.646 295.064C162.896 294.824 163.078 294.509 163.19 294.12C163.307 293.725 163.366 293.296 163.366 292.832C163.366 292.395 163.312 291.981 163.206 291.592C163.104 291.203 162.928 290.888 162.678 290.648C162.427 290.408 162.086 290.288 161.654 290.288C161.243 290.288 160.91 290.403 160.654 290.632C160.403 290.856 160.219 291.163 160.102 291.552C159.984 291.936 159.926 292.363 159.926 292.832C159.926 293.264 159.979 293.68 160.086 294.08C160.192 294.475 160.371 294.797 160.622 295.048C160.872 295.299 161.216 295.424 161.654 295.424ZM178.267 288.728L175.547 297H173.691L172.147 291.992L170.611 297H168.803L166.123 288.728H168.187L169.771 293.856H169.835L171.355 288.728H173.019L174.555 293.856H174.619L176.155 288.728H178.267ZM187.79 290.352H185.95L185.966 294.76C185.966 294.963 185.99 295.115 186.038 295.216C186.091 295.312 186.171 295.376 186.278 295.408C186.39 295.435 186.531 295.448 186.702 295.448H187.814V296.888C187.707 296.936 187.539 296.981 187.31 297.024C187.086 297.067 186.771 297.088 186.366 297.088C185.641 297.088 185.078 296.995 184.678 296.808C184.283 296.621 184.009 296.36 183.854 296.024C183.699 295.688 183.622 295.299 183.622 294.856V290.352H182.278V288.728H183.702L184.286 286.232H185.95V288.72H187.79V290.352ZM192.802 297.16C191.991 297.16 191.285 296.987 190.682 296.64C190.085 296.293 189.621 295.803 189.29 295.168C188.965 294.533 188.802 293.781 188.802 292.912C188.802 292.043 188.965 291.283 189.29 290.632C189.621 289.981 190.085 289.475 190.682 289.112C191.285 288.749 191.994 288.568 192.81 288.568C193.626 288.568 194.333 288.747 194.93 289.104C195.527 289.456 195.989 289.957 196.314 290.608C196.639 291.259 196.802 292.027 196.802 292.912C196.802 293.744 196.642 294.48 196.322 295.12C196.007 295.755 195.551 296.253 194.954 296.616C194.362 296.979 193.645 297.16 192.802 297.16ZM192.81 295.424C193.221 295.424 193.551 295.304 193.802 295.064C194.053 294.824 194.234 294.509 194.346 294.12C194.463 293.725 194.522 293.296 194.522 292.832C194.522 292.395 194.469 291.981 194.362 291.592C194.261 291.203 194.085 290.888 193.834 290.648C193.583 290.408 193.242 290.288 192.81 290.288C192.399 290.288 192.066 290.403 191.81 290.632C191.559 290.856 191.375 291.163 191.258 291.552C191.141 291.936 191.082 292.363 191.082 292.832C191.082 293.264 191.135 293.68 191.242 294.08C191.349 294.475 191.527 294.797 191.778 295.048C192.029 295.299 192.373 295.424 192.81 295.424ZM210.975 297H208.551L206.671 292.544H204.327V297H201.999V285.432H206.879C207.802 285.432 208.556 285.579 209.143 285.872C209.73 286.165 210.162 286.573 210.439 287.096C210.716 287.613 210.855 288.211 210.855 288.888C210.855 289.496 210.759 290.011 210.567 290.432C210.38 290.848 210.132 291.195 209.823 291.472C209.519 291.749 209.186 291.976 208.823 292.152L210.975 297ZM206.463 290.744C207.087 290.744 207.58 290.576 207.943 290.24C208.311 289.904 208.495 289.472 208.495 288.944C208.495 288.411 208.319 287.989 207.967 287.68C207.615 287.371 207.17 287.216 206.631 287.216H204.327V290.744H206.463ZM214.467 293.4C214.462 293.821 214.528 294.189 214.667 294.504C214.806 294.813 215.006 295.053 215.267 295.224C215.534 295.389 215.854 295.472 216.227 295.472C216.627 295.472 216.976 295.387 217.275 295.216C217.579 295.045 217.79 294.765 217.907 294.376H220.011C219.92 294.963 219.686 295.464 219.307 295.88C218.934 296.296 218.48 296.613 217.947 296.832C217.414 297.051 216.859 297.16 216.283 297.16C215.467 297.16 214.747 296.989 214.123 296.648C213.504 296.301 213.022 295.813 212.675 295.184C212.328 294.555 212.155 293.813 212.155 292.96C212.155 292.133 212.312 291.389 212.627 290.728C212.942 290.061 213.398 289.536 213.995 289.152C214.598 288.763 215.32 288.568 216.163 288.568C217.006 288.568 217.712 288.747 218.283 289.104C218.859 289.456 219.291 289.949 219.579 290.584C219.872 291.213 220.019 291.941 220.019 292.768V293.4H214.467ZM214.459 292.008H217.835C217.835 291.677 217.774 291.373 217.651 291.096C217.528 290.819 217.342 290.6 217.091 290.44C216.846 290.28 216.536 290.2 216.163 290.2C215.8 290.2 215.491 290.288 215.235 290.464C214.984 290.635 214.792 290.859 214.659 291.136C214.526 291.413 214.459 291.704 214.459 292.008ZM221.641 297V288.728H223.937V289.896C224.065 289.693 224.23 289.499 224.433 289.312C224.641 289.12 224.902 288.963 225.217 288.84C225.531 288.717 225.905 288.656 226.337 288.656C226.843 288.656 227.315 288.755 227.753 288.952C228.195 289.149 228.553 289.461 228.825 289.888C229.097 290.309 229.233 290.861 229.233 291.544V297H226.897V291.832C226.897 291.384 226.763 291.048 226.497 290.824C226.23 290.6 225.905 290.488 225.521 290.488C225.265 290.488 225.017 290.533 224.777 290.624C224.542 290.715 224.35 290.851 224.201 291.032C224.051 291.213 223.977 291.437 223.977 291.704V297H221.641ZM235.806 290.352H233.966L233.982 294.76C233.982 294.963 234.006 295.115 234.054 295.216C234.107 295.312 234.187 295.376 234.294 295.408C234.406 295.435 234.547 295.448 234.718 295.448H235.83V296.888C235.723 296.936 235.555 296.981 235.326 297.024C235.102 297.067 234.787 297.088 234.382 297.088C233.656 297.088 233.094 296.995 232.694 296.808C232.299 296.621 232.024 296.36 231.87 296.024C231.715 295.688 231.638 295.299 231.638 294.856V290.352H230.294V288.728H231.718L232.302 286.232H233.966V288.72H235.806V290.352Z" fill="#4A4A4A"/>
<path d="M264 284C264 282.939 264.421 281.922 265.172 281.172C265.922 280.421 266.939 280 268 280C269.061 280 270.078 280.421 270.828 281.172C271.579 281.922 272 282.939 272 284L254.4 297.2C254.232 297.326 254.108 297.501 254.045 297.702C253.983 297.902 253.985 298.117 254.051 298.316C254.118 298.515 254.245 298.689 254.415 298.811C254.586 298.934 254.79 299 255 299H281C281.21 299 281.414 298.934 281.585 298.811C281.755 298.689 281.882 298.515 281.949 298.316C282.015 298.117 282.017 297.902 281.955 297.702C281.892 297.501 281.768 297.326 281.6 297.2L268 287" stroke="#3E3E3E" stroke-width="2" stroke-linecap="round" stroke-linejoin="round"/>
<path d="M153.688 348.032H148.624V353H146.296V341.432H148.624V346.072H153.688V341.432H156.024V353H153.688V348.032ZM161.646 353.16C160.835 353.16 160.128 352.987 159.526 352.64C158.928 352.293 158.464 351.803 158.134 351.168C157.808 350.533 157.646 349.781 157.646 348.912C157.646 348.043 157.808 347.283 158.134 346.632C158.464 345.981 158.928 345.475 159.526 345.112C160.128 344.749 160.838 344.568 161.654 344.568C162.47 344.568 163.176 344.747 163.774 345.104C164.371 345.456 164.832 345.957 165.158 346.608C165.483 347.259 165.646 348.027 165.646 348.912C165.646 349.744 165.486 350.48 165.166 351.12C164.851 351.755 164.395 352.253 163.798 352.616C163.206 352.979 162.488 353.16 161.646 353.16ZM161.654 351.424C162.064 351.424 162.395 351.304 162.646 351.064C162.896 350.824 163.078 350.509 163.19 350.12C163.307 349.725 163.366 349.296 163.366 348.832C163.366 348.395 163.312 347.981 163.206 347.592C163.104 347.203 162.928 346.888 162.678 346.648C162.427 346.408 162.086 346.288 161.654 346.288C161.243 346.288 160.91 346.403 160.654 346.632C160.403 346.856 160.219 347.163 160.102 347.552C159.984 347.936 159.926 348.363 159.926 348.832C159.926 349.264 159.979 349.68 160.086 350.08C160.192 350.475 160.371 350.797 160.622 351.048C160.872 351.299 161.216 351.424 161.654 351.424ZM178.267 344.728L175.547 353H173.691L172.147 347.992L170.611 353H168.803L166.123 344.728H168.187L169.771 349.856H169.835L171.355 344.728H173.019L174.555 349.856H174.619L176.155 344.728H178.267ZM187.79 346.352H185.95L185.966 350.76C185.966 350.963 185.99 351.115 186.038 351.216C186.091 351.312 186.171 351.376 186.278 351.408C186.39 351.435 186.531 351.448 186.702 351.448H187.814V352.888C187.707 352.936 187.539 352.981 187.31 353.024C187.086 353.067 186.771 353.088 186.366 353.088C185.641 353.088 185.078 352.995 184.678 352.808C184.283 352.621 184.009 352.36 183.854 352.024C183.699 351.688 183.622 351.299 183.622 350.856V346.352H182.278V344.728H183.702L184.286 342.232H185.95V344.72H187.79V346.352ZM192.802 353.16C191.991 353.16 191.285 352.987 190.682 352.64C190.085 352.293 189.621 351.803 189.29 351.168C188.965 350.533 188.802 349.781 188.802 348.912C188.802 348.043 188.965 347.283 189.29 346.632C189.621 345.981 190.085 345.475 190.682 345.112C191.285 344.749 191.994 344.568 192.81 344.568C193.626 344.568 194.333 344.747 194.93 345.104C195.527 345.456 195.989 345.957 196.314 346.608C196.639 347.259 196.802 348.027 196.802 348.912C196.802 349.744 196.642 350.48 196.322 351.12C196.007 351.755 195.551 352.253 194.954 352.616C194.362 352.979 193.645 353.16 192.802 353.16ZM192.81 351.424C193.221 351.424 193.551 351.304 193.802 351.064C194.053 350.824 194.234 350.509 194.346 350.12C194.463 349.725 194.522 349.296 194.522 348.832C194.522 348.395 194.469 347.981 194.362 347.592C194.261 347.203 194.085 346.888 193.834 346.648C193.583 346.408 193.242 346.288 192.81 346.288C192.399 346.288 192.066 346.403 191.81 346.632C191.559 346.856 191.375 347.163 191.258 347.552C191.141 347.936 191.082 348.363 191.082 348.832C191.082 349.264 191.135 349.68 191.242 350.08C191.349 350.475 191.527 350.797 191.778 351.048C192.029 351.299 192.373 351.424 192.81 351.424ZM201.999 353V341.432H209.943L209.935 343.4H204.343V346.208H209.199V348.136H204.327V351.008L210.023 351.016V353H201.999ZM214.213 353.16C213.685 353.16 213.21 353.061 212.789 352.864C212.367 352.667 212.034 352.381 211.789 352.008C211.543 351.629 211.421 351.171 211.421 350.632C211.421 349.725 211.759 349.037 212.437 348.568C213.114 348.093 214.183 347.848 215.645 347.832L216.677 347.816V347.32C216.677 346.941 216.565 346.651 216.341 346.448C216.122 346.24 215.781 346.139 215.317 346.144C214.975 346.149 214.65 346.229 214.341 346.384C214.037 346.539 213.829 346.808 213.717 347.192H211.773C211.805 346.595 211.978 346.104 212.293 345.72C212.607 345.331 213.034 345.043 213.573 344.856C214.117 344.664 214.733 344.568 215.421 344.568C216.269 344.568 216.949 344.675 217.461 344.888C217.973 345.096 218.343 345.397 218.573 345.792C218.802 346.181 218.917 346.645 218.917 347.184V353H216.965L216.773 351.576C216.49 352.173 216.135 352.587 215.709 352.816C215.287 353.045 214.789 353.16 214.213 353.16ZM214.997 351.624C215.21 351.624 215.415 351.587 215.613 351.512C215.815 351.432 215.994 351.328 216.149 351.2C216.309 351.067 216.437 350.917 216.533 350.752C216.629 350.587 216.677 350.416 216.677 350.24V349.016L215.837 349.032C215.447 349.037 215.085 349.085 214.749 349.176C214.413 349.261 214.141 349.403 213.933 349.6C213.73 349.797 213.629 350.064 213.629 350.4C213.629 350.784 213.762 351.085 214.029 351.304C214.295 351.517 214.618 351.624 214.997 351.624ZM220.984 353V344.728H223.232V346.688C223.366 346.267 223.552 345.899 223.792 345.584C224.038 345.264 224.334 345.016 224.68 344.84C225.027 344.659 225.419 344.568 225.856 344.568C225.931 344.568 226 344.573 226.064 344.584C226.134 344.589 226.184 344.6 226.216 344.616V346.84C226.168 346.819 226.11 346.805 226.04 346.8C225.976 346.795 225.918 346.789 225.864 346.784C225.406 346.747 225.014 346.76 224.688 346.824C224.363 346.888 224.099 346.997 223.896 347.152C223.694 347.307 223.547 347.496 223.456 347.72C223.366 347.944 223.32 348.195 223.32 348.472V353H220.984ZM227.484 353V344.728H229.78V345.896C229.908 345.693 230.074 345.499 230.276 345.312C230.484 345.12 230.746 344.963 231.06 344.84C231.375 344.717 231.748 344.656 232.18 344.656C232.687 344.656 233.159 344.755 233.596 344.952C234.039 345.149 234.396 345.461 234.668 345.888C234.94 346.309 235.076 346.861 235.076 347.544V353H232.74V347.832C232.74 347.384 232.607 347.048 232.34 346.824C232.074 346.6 231.748 346.488 231.364 346.488C231.108 346.488 230.86 346.533 230.62 346.624C230.386 346.715 230.194 346.851 230.044 347.032C229.895 347.213 229.82 347.437 229.82 347.704V353H227.484Z" fill="#4A4A4A"/>
<path d="M268 340V342" stroke="#3E3E3E" stroke-width="2" stroke-linecap="round" stroke-linejoin="round"/>
<path d="M268 352V354" stroke="#3E3E3E" stroke-width="2" stroke-linecap="round" stroke-linejoin="round"/>
<path d="M268 359C274.627 359 280 353.627 280 347C280 340.373 274.627 335 268 335C261.373 335 256 340.373 256 347C256 353.627 261.373 359 268 359Z" stroke="#3E3E3E" stroke-width="2" stroke-linecap="round" stroke-linejoin="round"/>
<path d="M265 352H269.5C270.163 352 270.799 351.737 271.268 351.268C271.737 350.799 272 350.163 272 349.5C272 348.837 271.737 348.201 271.268 347.732C270.799 347.263 270.163 347 269.5 347H266.5C265.837 347 265.201 346.737 264.732 346.268C264.263 345.799 264 345.163 264 344.5C264 343.837 264.263 343.201 264.732 342.732C265.201 342.263 265.837 342 266.5 342H271" stroke="#3E3E3E" stroke-width="2" stroke-linecap="round" stroke-linejoin="round"/>
<g filter="url(#filter0_d_676_1660)">
<rect x="82" y="824" width="264" height="56" rx="28" fill="#F8F2E9" shape-rendering="crispEdges"/>
<path d="M121 862V856C121 855.735 120.895 855.48 120.707 855.293C120.52 855.105 120.265 855 120 855H116C115.735 855 115.48 855.105 115.293 855.293C115.105 855.48 115 855.735 115 856V862C115 862.265 114.895 862.52 114.707 862.707C114.52 862.895 114.265 863 114 863H108C107.735 863 107.48 862.895 107.293 862.707C107.105 862.52 107 862.265 107 862V850.438C107.002 850.299 107.032 850.163 107.088 850.036C107.144 849.909 107.224 849.795 107.325 849.7L117.325 840.613C117.509 840.444 117.75 840.35 118 840.35C118.25 840.35 118.491 840.444 118.675 840.613L128.675 849.7C128.776 849.795 128.856 849.909 128.912 850.036C128.968 850.163 128.998 850.299 129 850.438V862C129 862.265 128.895 862.52 128.707 862.707C128.52 862.895 128.265 863 128 863H122C121.735 863 121.48 862.895 121.293 862.707C121.105 862.52 121 862.265 121 862Z" stroke="#4A4A4A" stroke-width="2" stroke-linecap="round" stroke-linejoin="round"/>
<path d="M178 845C178 843.939 178.421 842.922 179.172 842.172C179.922 841.421 180.939 841 182 841C183.061 841 184.078 841.421 184.828 842.172C185.579 842.922 186 843.939 186 845L168.4 858.2C168.232 858.326 168.108 858.501 168.045 858.702C167.983 858.902 167.985 859.117 168.051 859.316C168.118 859.515 168.245 859.689 168.415 859.811C168.586 859.934 168.79 860 169 860H195C195.21 860 195.414 859.934 195.585 859.811C195.755 859.689 195.882 859.515 195.949 859.316C196.015 859.117 196.017 858.902 195.955 858.702C195.892 858.501 195.768 858.326 195.6 858.2L182 848" stroke="#4A4A4A" stroke-width="2" stroke-linecap="round" stroke-linejoin="round"/>
<path d="M246 856C250.418 856 254 852.418 254 848C254 843.582 250.418 840 246 840C241.582 840 238 843.582 238 848C238 852.418 241.582 856 246 856Z" stroke="#4A4A4A" stroke-width="2" stroke-miterlimit="10"/>
<path d="M233.875 863C235.104 860.871 236.871 859.104 238.999 857.875C241.128 856.646 243.542 855.999 246 855.999C248.458 855.999 250.872 856.646 253.001 857.875C255.129 859.104 256.896 860.871 258.125 863" stroke="#4A4A4A" stroke-width="2" stroke-linecap="round" stroke-linejoin="round"/>
<path d="M305.955 841.143L306.938 838.606C307.103 838.176 307.395 837.807 307.774 837.546C308.154 837.285 308.603 837.144 309.063 837.143H310.938C311.398 837.144 311.847 837.285 312.227 837.546C312.606 837.807 312.897 838.176 313.063 838.606L314.046 841.143L317.383 843.063L320.08 842.651C320.529 842.59 320.987 842.664 321.394 842.864C321.801 843.063 322.139 843.379 322.366 843.771L323.28 845.371C323.515 845.77 323.623 846.23 323.59 846.691C323.557 847.152 323.386 847.593 323.098 847.954L321.429 850.08V853.92L323.143 856.046C323.431 856.407 323.603 856.848 323.636 857.309C323.668 857.77 323.56 858.23 323.326 858.629L322.412 860.229C322.185 860.621 321.846 860.937 321.439 861.136C321.032 861.336 320.575 861.409 320.126 861.349L317.429 860.937L314.092 862.857L313.109 865.394C312.943 865.824 312.652 866.193 312.272 866.454C311.893 866.715 311.444 866.856 310.983 866.857H309.063C308.603 866.856 308.154 866.715 307.774 866.454C307.395 866.193 307.103 865.824 306.938 865.394L305.955 862.857L302.618 860.937L299.92 861.349C299.471 861.409 299.014 861.336 298.607 861.136C298.2 860.937 297.862 860.621 297.635 860.229L296.72 858.629C296.486 858.23 296.378 857.77 296.411 857.309C296.443 856.848 296.615 856.407 296.903 856.046L298.572 853.92V850.08L296.858 847.954C296.569 847.593 296.398 847.152 296.365 846.691C296.332 846.23 296.44 845.77 296.675 845.371L297.589 843.771C297.816 843.379 298.154 843.063 298.561 842.864C298.968 842.664 299.426 842.59 299.875 842.651L302.572 843.063L305.955 841.143ZM305.429 852C305.429 852.904 305.697 853.788 306.199 854.54C306.702 855.291 307.416 855.877 308.251 856.223C309.086 856.569 310.005 856.66 310.892 856.484C311.779 856.307 312.594 855.872 313.233 855.232C313.872 854.593 314.308 853.779 314.484 852.892C314.66 852.005 314.57 851.086 314.224 850.251C313.878 849.415 313.292 848.701 312.54 848.199C311.788 847.697 310.905 847.429 310 847.429C308.788 847.429 307.625 847.91 306.768 848.767C305.911 849.625 305.429 850.788 305.429 852Z" fill="#3E3E3E"/>
</g>
<defs>
<filter id="filter0_d_676_1660" x="77.5" y="820.5" width="279" height="71" filterUnits="userSpaceOnUse" color-interpolation-filters="sRGB">
<feFlood flood-opacity="0" result="BackgroundImageFix"/>
<feColorMatrix in="SourceAlpha" type="matrix" values="0 0 0 0 0 0 0 0 0 0 0 0 0 0 0 0 0 0 127 0" result="hardAlpha"/>
<feOffset dx="3" dy="4"/>
<feGaussianBlur stdDeviation="3.75"/>
<feComposite in2="hardAlpha" operator="out"/>
<feColorMatrix type="matrix" values="0 0 0 0 0.529412 0 0 0 0 0.462745 0 0 0 0 0.341176 0 0 0 0.3 0"/>
<feBlend mode="normal" in2="BackgroundImageFix" result="effect1_dropShadow_676_1660"/>
<feBlend mode="normal" in="SourceGraphic" in2="effect1_dropShadow_676_1660" result="shape"/>
</filter>
<clipPath id="clip0_676_1660">
<rect width="119" height="119" fill="white" transform="translate(155 22)"/>
</clipPath>
</defs>
</svg>
