<svg width="428" height="926" viewBox="0 0 428 926" fill="none" xmlns="http://www.w3.org/2000/svg">
<rect width="428" height="926" fill="#F8F2E9"/>
<g clip-path="url(#clip0_617_3126)">
<path d="M240.646 92.0176C240.549 91.6316 240.501 91.2208 240.501 90.7849C240.501 89.1541 241.237 87.7352 242.71 86.5279C244.183 85.3207 247.195 83.8385 251.746 82.0813V80.735C251.746 79.3191 251.565 78.3046 251.205 77.6915C250.845 77.0784 250.254 76.7719 249.432 76.7719C248.762 76.7719 248.206 76.9709 247.764 77.3692C247.321 77.7674 247.1 78.2635 247.1 78.8578C247.1 79.1737 247.113 79.5435 247.138 79.967C247.163 80.3905 247.176 80.6592 247.176 80.7729C247.176 81.6957 246.92 82.4384 246.408 83.001C245.896 83.5635 245.216 83.8447 244.369 83.8447C243.598 83.8447 242.979 83.6014 242.511 83.1147C242.043 82.628 241.809 81.9864 241.809 81.1901C241.809 79.4708 242.625 78.0455 244.256 76.9141C245.886 75.7826 247.985 75.217 250.551 75.217C251.992 75.217 253.297 75.4003 254.467 75.7669C255.636 76.1336 256.594 76.6644 257.339 77.3597C257.946 77.9286 258.376 78.5923 258.629 79.3507C258.882 80.1092 259.008 81.2532 259.008 82.7829V88.1871C259.008 89.6914 259.125 90.7597 259.359 91.3916C259.593 92.0237 259.969 92.3398 260.487 92.3398C260.601 92.3398 260.715 92.3146 260.828 92.264C260.942 92.2133 261.062 92.1376 261.189 92.0363V93.2689C260.683 93.9136 260.029 94.413 259.226 94.7669C258.423 95.1209 257.535 95.2979 256.562 95.2979C255.45 95.2979 254.517 95.0388 253.765 94.5205C253.013 94.0021 252.46 93.2374 252.106 92.2261C251.145 93.3259 250.137 94.1444 249.081 94.6816C248.026 95.2188 246.91 95.4875 245.735 95.4875C244.18 95.4875 242.919 95.0482 241.952 94.1697C241.629 93.8765 241.36 93.5555 241.145 93.2066C240.384 93.8039 239.157 94.494 238.538 94.7669C237.736 95.1209 236.848 95.2979 235.874 95.2979C234.762 95.2979 233.829 95.0388 233.077 94.5205C232.325 94.0021 231.772 93.2374 231.418 92.2261C230.457 93.3259 229.449 94.1444 228.394 94.6816C227.338 95.2188 226.223 95.4875 225.047 95.4875C223.492 95.4875 222.231 95.0482 221.264 94.1697C220.297 93.2911 219.813 92.1628 219.813 90.7849C219.813 89.1541 220.55 87.7352 222.022 86.5279C223.495 85.3207 226.507 83.8385 231.058 82.0813V80.735C231.058 79.3191 230.878 78.3046 230.517 77.6915C230.157 77.0784 229.566 76.7719 228.744 76.7719C228.075 76.7719 227.518 76.9709 227.076 77.3692C226.633 77.7674 226.412 78.2635 226.412 78.8578C226.412 79.1737 226.425 79.5435 226.45 79.967C226.475 80.3905 226.488 80.6592 226.488 80.7729C226.488 81.6957 226.232 82.4384 225.72 83.001C225.208 83.5635 224.529 83.8447 223.682 83.8447C222.91 83.8447 222.291 83.6014 221.823 83.1147C221.356 82.628 221.122 81.9864 221.122 81.1901C221.122 79.4708 221.937 78.0455 223.568 76.9141C225.199 75.7826 227.297 75.217 229.863 75.217C231.304 75.217 232.61 75.4003 233.779 75.7669C234.948 76.1336 235.906 76.6644 236.652 77.3597C237.258 77.9286 237.688 78.5923 237.941 79.3507C238.194 80.1092 238.32 81.2532 238.32 82.7829V88.1871C238.32 89.6914 238.437 90.7597 238.671 91.3916C238.905 92.0237 239.281 92.3398 239.799 92.3398C239.913 92.3398 240.027 92.3146 240.141 92.264C240.194 92.2403 240.414 92.1343 240.646 92.0176ZM182.778 94.6722L178.246 85.6651V90.8228C178.246 91.8215 178.423 92.5326 178.777 92.9561C179.131 93.3796 179.731 93.5913 180.578 93.5913H180.692V94.6722H168.499V93.5913H168.613C169.448 93.5913 170.045 93.3796 170.405 92.9561C170.765 92.5326 170.946 91.8215 170.946 90.8228V75.2548C170.946 74.6734 170.879 74.2531 170.746 73.994C170.614 73.7348 170.313 73.4156 169.846 73.0364L167.798 71.3677C168.683 71.1022 169.915 70.6788 171.495 70.0972C173.076 69.5157 175.326 68.6561 178.246 67.5183V84.6222C179.902 83.3454 181.15 82.1919 181.991 81.1616C182.832 80.1314 183.252 79.237 183.252 78.4785C183.252 78.0739 183.097 77.7516 182.787 77.5115C182.478 77.2712 182.051 77.1511 181.507 77.1511H181.394V76.0703H191.254V77.1511H190.932C189.63 77.1511 188.403 77.4925 187.253 78.175C186.103 78.8578 184.921 79.9448 183.707 81.4366L189.149 90.7469C189.743 91.7836 190.319 92.5042 190.875 92.9087C191.429 93.3119 192.122 93.5393 192.953 93.5909C193.752 93.5796 194.326 93.368 194.677 92.9561C195.037 92.5326 195.217 91.8215 195.217 90.8228V82.7829C195.217 82.2014 195.154 81.781 195.027 81.5219C194.901 81.2628 194.604 80.9499 194.136 80.5833L192.069 78.9146C193.574 78.4343 195.198 77.8717 196.943 77.227C198.687 76.5823 200.545 75.8617 202.518 75.0652V90.8228C202.518 91.7962 202.691 92.4946 203.039 92.9181C203.387 93.3416 203.965 93.566 204.774 93.5913H204.811C205.645 93.5913 206.243 93.3796 206.603 92.9561C206.963 92.5326 207.143 91.8215 207.143 90.8228V83.6741C207.143 83.0673 207.067 82.6185 206.916 82.3278C206.764 82.0371 206.48 81.7526 206.063 81.4745L203.692 79.8058C204.931 79.376 206.36 78.7851 207.978 78.0329C209.596 77.2807 211.58 76.2915 213.932 75.0652V78.4027C214.564 77.3407 215.25 76.5444 215.989 76.0134C216.729 75.4825 217.522 75.217 218.369 75.217C219.304 75.217 220.057 75.4951 220.625 76.0513C221.194 76.6075 221.479 77.3407 221.479 78.2509C221.479 79.0474 221.242 79.6857 220.768 80.1661C220.294 80.6465 219.665 80.8866 218.881 80.8866C218.173 80.8866 217.494 80.6023 216.842 80.0333C216.191 79.4645 215.777 79.1801 215.6 79.1801C215.183 79.1801 214.886 79.4582 214.709 80.0144C214.532 80.5707 214.444 81.563 214.444 82.9915V90.8228C214.444 91.8089 214.643 92.5168 215.041 92.9465C215.439 93.3764 216.093 93.5913 217.004 93.5913H217.117V94.6722H182.778ZM251.746 83.4845C250.608 83.9396 249.742 84.657 249.148 85.6367C248.554 86.6164 248.257 87.8142 248.257 89.23C248.257 90.0391 248.418 90.6838 248.74 91.1642C249.062 91.6445 249.483 91.8847 250.001 91.8847C250.671 91.8847 251.129 91.6192 251.376 91.0883C251.622 90.5573 251.746 89.23 251.746 87.1063V83.4845ZM231.058 83.4845C229.92 83.9396 229.054 84.657 228.46 85.6367C227.866 86.6164 227.569 87.8142 227.569 89.23C227.569 90.0391 227.73 90.6838 228.052 91.1642C228.375 91.6445 228.795 91.8847 229.313 91.8847C229.983 91.8847 230.442 91.6192 230.688 91.0883C230.935 90.5573 231.058 89.23 231.058 87.1063V83.4845ZM194.705 71.3297C194.705 70.2679 195.075 69.3671 195.814 68.6277C196.554 67.8881 197.455 67.5183 198.517 67.5183C199.591 67.5183 200.495 67.8881 201.228 68.6277C201.961 69.3671 202.328 70.2679 202.328 71.3297C202.328 72.3917 201.958 73.2923 201.219 74.0319C200.479 74.7713 199.578 75.1411 198.517 75.1411C197.455 75.1411 196.554 74.7745 195.814 74.0413C195.075 73.3081 194.705 72.4043 194.705 71.3297Z" fill="#3E3E3E"/>
</g>
<g filter="url(#filter0_d_617_3126)">
<rect x="82" y="824" width="264" height="56" rx="28" fill="#F8F2E9" shape-rendering="crispEdges"/>
<path d="M121 862V856C121 855.735 120.895 855.48 120.707 855.293C120.52 855.105 120.265 855 120 855H116C115.735 855 115.48 855.105 115.293 855.293C115.105 855.48 115 855.735 115 856V862C115 862.265 114.895 862.52 114.707 862.707C114.52 862.895 114.265 863 114 863H108C107.735 863 107.48 862.895 107.293 862.707C107.105 862.52 107 862.265 107 862V850.438C107.002 850.299 107.032 850.163 107.088 850.036C107.144 849.909 107.224 849.795 107.325 849.7L117.325 840.613C117.509 840.444 117.75 840.35 118 840.35C118.25 840.35 118.491 840.444 118.675 840.613L128.675 849.7C128.776 849.795 128.856 849.909 128.912 850.036C128.968 850.163 128.998 850.299 129 850.438V862C129 862.265 128.895 862.52 128.707 862.707C128.52 862.895 128.265 863 128 863H122C121.735 863 121.48 862.895 121.293 862.707C121.105 862.52 121 862.265 121 862Z" stroke="#4A4A4A" stroke-width="2" stroke-linecap="round" stroke-linejoin="round"/>
<path d="M178 845C178 843.939 178.421 842.922 179.172 842.172C179.922 841.421 180.939 841 182 841C183.061 841 184.078 841.421 184.828 842.172C185.579 842.922 186 843.939 186 845L168.4 858.2C168.232 858.326 168.108 858.501 168.045 858.702C167.983 858.902 167.985 859.117 168.051 859.316C168.118 859.515 168.245 859.689 168.415 859.811C168.586 859.934 168.79 860 169 860H195C195.21 860 195.414 859.934 195.585 859.811C195.755 859.689 195.882 859.515 195.949 859.316C196.015 859.117 196.017 858.902 195.955 858.702C195.892 858.501 195.768 858.326 195.6 858.2L182 848" stroke="#4A4A4A" stroke-width="2" stroke-linecap="round" stroke-linejoin="round"/>
<path d="M246 856C250.418 856 254 852.418 254 848C254 843.582 250.418 840 246 840C241.582 840 238 843.582 238 848C238 852.418 241.582 856 246 856Z" fill="#4A4A4A"/>
<path d="M234 863C235.216 860.264 236.965 857.991 239.072 856.412C241.178 854.832 243.568 854 246 854C248.432 854 250.822 854.832 252.928 856.412C255.035 857.991 256.784 860.264 258 863" fill="#4A4A4A"/>
<path d="M305.955 841.143L306.938 838.606C307.103 838.176 307.395 837.807 307.774 837.546C308.154 837.285 308.603 837.144 309.063 837.143H310.938C311.398 837.144 311.847 837.285 312.227 837.546C312.606 837.807 312.897 838.176 313.063 838.606L314.046 841.143L317.383 843.063L320.08 842.651C320.529 842.59 320.987 842.664 321.394 842.864C321.801 843.063 322.139 843.379 322.366 843.771L323.28 845.371C323.515 845.77 323.623 846.23 323.59 846.691C323.557 847.152 323.386 847.593 323.098 847.954L321.429 850.08V853.92L323.143 856.046C323.431 856.407 323.603 856.848 323.636 857.309C323.668 857.77 323.56 858.23 323.326 858.629L322.412 860.229C322.185 860.621 321.846 860.937 321.439 861.136C321.032 861.336 320.575 861.409 320.126 861.349L317.429 860.937L314.092 862.857L313.109 865.394C312.943 865.824 312.652 866.193 312.272 866.454C311.893 866.715 311.444 866.856 310.983 866.857H309.063C308.603 866.856 308.154 866.715 307.774 866.454C307.395 866.193 307.103 865.824 306.938 865.394L305.955 862.857L302.618 860.937L299.92 861.349C299.471 861.409 299.014 861.336 298.607 861.136C298.2 860.937 297.862 860.621 297.635 860.229L296.72 858.629C296.486 858.23 296.378 857.77 296.411 857.309C296.443 856.848 296.615 856.407 296.903 856.046L298.572 853.92V850.08L296.858 847.954C296.569 847.593 296.398 847.152 296.365 846.691C296.332 846.23 296.44 845.77 296.675 845.371L297.589 843.771C297.816 843.379 298.154 843.063 298.561 842.864C298.968 842.664 299.426 842.59 299.875 842.651L302.572 843.063L305.955 841.143ZM305.429 852C305.429 852.904 305.697 853.788 306.199 854.54C306.702 855.291 307.416 855.877 308.251 856.223C309.086 856.569 310.005 856.66 310.892 856.484C311.779 856.307 312.594 855.872 313.233 855.232C313.872 854.593 314.308 853.779 314.484 852.892C314.66 852.005 314.57 851.086 314.224 850.251C313.878 849.415 313.292 848.701 312.54 848.199C311.788 847.697 310.905 847.429 310 847.429C308.788 847.429 307.625 847.91 306.768 848.767C305.911 849.625 305.429 850.788 305.429 852V852Z" stroke="#3E3E3E" stroke-width="2" stroke-linecap="round" stroke-linejoin="round"/>
</g>
<path d="M381 116H359C358.448 116 358 116.448 358 117V135C358 135.552 358.448 136 359 136H381C381.552 136 382 135.552 382 135V117C382 116.448 381.552 116 381 116Z" stroke="#3E3E3E" stroke-width="2" stroke-linecap="round" stroke-linejoin="round"/>
<path d="M375 121C375 122.326 374.473 123.598 373.536 124.536C372.598 125.473 371.326 126 370 126C368.674 126 367.402 125.473 366.464 124.536C365.527 123.598 365 122.326 365 121" stroke="#3E3E3E" stroke-width="2" stroke-linecap="round" stroke-linejoin="round"/>
<path d="M56.6188 195.238L51 189.619L56.6188 184" stroke="#3E3E3E" stroke-width="2.65192" stroke-linecap="round" stroke-linejoin="round"/>
<path d="M51 189.619H64.2596" stroke="#3E3E3E" stroke-width="2.65192" stroke-linecap="round" stroke-linejoin="round"/>
<path d="M141.55 273L146.73 258.54H149.81L154.98 273H152.07L150.89 269.65H145.69L144.48 273H141.55ZM146.34 267.1H150.19L148.28 261.36L146.34 267.1ZM160.879 262.46C161.746 262.46 162.493 262.637 163.119 262.99C163.753 263.343 164.249 263.82 164.609 264.42C164.976 265.02 165.186 265.69 165.239 266.43H162.809C162.763 266.157 162.666 265.887 162.519 265.62C162.373 265.347 162.166 265.123 161.899 264.95C161.633 264.77 161.299 264.68 160.899 264.68C160.219 264.68 159.666 264.943 159.239 265.47C158.819 265.99 158.609 266.783 158.609 267.85C158.609 268.857 158.816 269.657 159.229 270.25C159.643 270.837 160.219 271.13 160.959 271.13C161.353 271.13 161.679 271.033 161.939 270.84C162.206 270.647 162.413 270.417 162.559 270.15C162.706 269.877 162.799 269.623 162.839 269.39H165.209C165.163 270.103 164.956 270.75 164.589 271.33C164.223 271.903 163.723 272.36 163.089 272.7C162.463 273.033 161.726 273.2 160.879 273.2C159.919 273.2 159.063 272.987 158.309 272.56C157.556 272.133 156.963 271.523 156.529 270.73C156.103 269.93 155.889 268.977 155.889 267.87C155.889 266.803 156.096 265.863 156.509 265.05C156.923 264.237 157.503 263.603 158.249 263.15C159.003 262.69 159.879 262.46 160.879 262.46ZM171.68 262.46C172.547 262.46 173.293 262.637 173.92 262.99C174.553 263.343 175.05 263.82 175.41 264.42C175.777 265.02 175.987 265.69 176.04 266.43H173.61C173.563 266.157 173.467 265.887 173.32 265.62C173.173 265.347 172.967 265.123 172.7 264.95C172.433 264.77 172.1 264.68 171.7 264.68C171.02 264.68 170.467 264.943 170.04 265.47C169.62 265.99 169.41 266.783 169.41 267.85C169.41 268.857 169.617 269.657 170.03 270.25C170.443 270.837 171.02 271.13 171.76 271.13C172.153 271.13 172.48 271.033 172.74 270.84C173.007 270.647 173.213 270.417 173.36 270.15C173.507 269.877 173.6 269.623 173.64 269.39H176.01C175.963 270.103 175.757 270.75 175.39 271.33C175.023 271.903 174.523 272.36 173.89 272.7C173.263 273.033 172.527 273.2 171.68 273.2C170.72 273.2 169.863 272.987 169.11 272.56C168.357 272.133 167.763 271.523 167.33 270.73C166.903 269.93 166.69 268.977 166.69 267.87C166.69 266.803 166.897 265.863 167.31 265.05C167.723 264.237 168.303 263.603 169.05 263.15C169.803 262.69 170.68 262.46 171.68 262.46ZM182.491 273.2C181.477 273.2 180.594 272.983 179.841 272.55C179.094 272.117 178.514 271.503 178.101 270.71C177.694 269.917 177.491 268.977 177.491 267.89C177.491 266.803 177.694 265.853 178.101 265.04C178.514 264.227 179.094 263.593 179.841 263.14C180.594 262.687 181.481 262.46 182.501 262.46C183.521 262.46 184.404 262.683 185.151 263.13C185.897 263.57 186.474 264.197 186.881 265.01C187.287 265.823 187.491 266.783 187.491 267.89C187.491 268.93 187.291 269.85 186.891 270.65C186.497 271.443 185.927 272.067 185.181 272.52C184.441 272.973 183.544 273.2 182.491 273.2ZM182.501 271.03C183.014 271.03 183.427 270.88 183.741 270.58C184.054 270.28 184.281 269.887 184.421 269.4C184.567 268.907 184.641 268.37 184.641 267.79C184.641 267.243 184.574 266.727 184.441 266.24C184.314 265.753 184.094 265.36 183.781 265.06C183.467 264.76 183.041 264.61 182.501 264.61C181.987 264.61 181.571 264.753 181.251 265.04C180.937 265.32 180.707 265.703 180.561 266.19C180.414 266.67 180.341 267.203 180.341 267.79C180.341 268.33 180.407 268.85 180.541 269.35C180.674 269.843 180.897 270.247 181.211 270.56C181.524 270.873 181.954 271.03 182.501 271.03ZM193.13 273.2C192.65 273.2 192.177 273.127 191.71 272.98C191.25 272.833 190.83 272.617 190.45 272.33C190.07 272.043 189.764 271.69 189.53 271.27C189.304 270.85 189.19 270.363 189.19 269.81V262.66H192.11V269.44C192.11 269.92 192.267 270.313 192.58 270.62C192.894 270.927 193.354 271.08 193.96 271.08C194.534 271.08 194.987 270.933 195.32 270.64C195.66 270.34 195.83 269.923 195.83 269.39V262.66H198.72V273H196.52L196.18 270.95C196.06 271.557 195.834 272.023 195.5 272.35C195.174 272.67 194.797 272.89 194.37 273.01C193.95 273.137 193.537 273.2 193.13 273.2ZM201.156 273V262.66H204.026V264.12C204.186 263.867 204.393 263.623 204.646 263.39C204.906 263.15 205.233 262.953 205.626 262.8C206.02 262.647 206.486 262.57 207.026 262.57C207.66 262.57 208.25 262.693 208.796 262.94C209.35 263.187 209.796 263.577 210.136 264.11C210.476 264.637 210.646 265.327 210.646 266.18V273H207.726V266.54C207.726 265.98 207.56 265.56 207.226 265.28C206.893 265 206.486 264.86 206.006 264.86C205.686 264.86 205.376 264.917 205.076 265.03C204.783 265.143 204.543 265.313 204.356 265.54C204.17 265.767 204.076 266.047 204.076 266.38V273H201.156ZM218.863 264.69H216.563L216.583 270.2C216.583 270.453 216.613 270.643 216.673 270.77C216.739 270.89 216.839 270.97 216.973 271.01C217.113 271.043 217.289 271.06 217.503 271.06H218.893V272.86C218.759 272.92 218.549 272.977 218.263 273.03C217.983 273.083 217.589 273.11 217.083 273.11C216.176 273.11 215.473 272.993 214.973 272.76C214.479 272.527 214.136 272.2 213.943 271.78C213.749 271.36 213.653 270.873 213.653 270.32V264.69H211.972V262.66H213.753L214.483 259.54H216.563V262.65H218.863V264.69ZM231.058 273.2C230.344 273.2 229.644 273.11 228.958 272.93C228.271 272.75 227.644 272.48 227.078 272.12C226.511 271.76 226.041 271.31 225.668 270.77C225.301 270.23 225.081 269.597 225.008 268.87H227.998C228.098 269.31 228.288 269.68 228.568 269.98C228.848 270.28 229.201 270.51 229.628 270.67C230.054 270.83 230.528 270.91 231.048 270.91C231.581 270.91 232.068 270.843 232.508 270.71C232.948 270.577 233.301 270.377 233.568 270.11C233.834 269.837 233.968 269.497 233.968 269.09C233.968 268.723 233.858 268.423 233.638 268.19C233.424 267.957 233.134 267.767 232.768 267.62C232.401 267.473 231.984 267.353 231.518 267.26L229.018 266.75C227.924 266.543 227.058 266.11 226.418 265.45C225.778 264.783 225.448 263.897 225.428 262.79C225.421 261.883 225.661 261.1 226.148 260.44C226.641 259.773 227.308 259.26 228.148 258.9C228.994 258.54 229.941 258.36 230.988 258.36C232.234 258.36 233.281 258.557 234.128 258.95C234.981 259.337 235.628 259.863 236.068 260.53C236.514 261.19 236.744 261.927 236.758 262.74H233.828C233.774 262.233 233.621 261.83 233.368 261.53C233.114 261.23 232.788 261.013 232.388 260.88C231.994 260.747 231.544 260.68 231.038 260.68C230.651 260.68 230.298 260.723 229.978 260.81C229.664 260.897 229.398 261.02 229.178 261.18C228.958 261.333 228.788 261.517 228.668 261.73C228.548 261.943 228.488 262.183 228.488 262.45C228.488 262.87 228.628 263.21 228.908 263.47C229.188 263.73 229.711 263.943 230.478 264.11L232.958 264.62C233.844 264.793 234.548 265.05 235.068 265.39C235.594 265.73 235.988 266.113 236.248 266.54C236.514 266.967 236.688 267.403 236.768 267.85C236.854 268.29 236.898 268.697 236.898 269.07C236.898 269.85 236.651 270.553 236.158 271.18C235.671 271.8 234.991 272.293 234.118 272.66C233.244 273.02 232.224 273.2 231.058 273.2ZM245.132 264.69H242.832L242.852 270.2C242.852 270.453 242.882 270.643 242.942 270.77C243.009 270.89 243.109 270.97 243.242 271.01C243.382 271.043 243.559 271.06 243.772 271.06H245.162V272.86C245.029 272.92 244.819 272.977 244.532 273.03C244.252 273.083 243.859 273.11 243.352 273.11C242.445 273.11 241.742 272.993 241.242 272.76C240.749 272.527 240.405 272.2 240.212 271.78C240.019 271.36 239.922 270.873 239.922 270.32V264.69H238.242V262.66H240.022L240.752 259.54H242.832V262.65H245.132V264.69ZM250.27 273.2C249.61 273.2 249.016 273.077 248.49 272.83C247.963 272.583 247.546 272.227 247.24 271.76C246.933 271.287 246.78 270.713 246.78 270.04C246.78 268.907 247.203 268.047 248.05 267.46C248.896 266.867 250.233 266.56 252.06 266.54L253.35 266.52V265.9C253.35 265.427 253.21 265.063 252.93 264.81C252.656 264.55 252.23 264.423 251.65 264.43C251.223 264.437 250.816 264.537 250.43 264.73C250.05 264.923 249.79 265.26 249.65 265.74H247.22C247.26 264.993 247.476 264.38 247.87 263.9C248.263 263.413 248.796 263.053 249.47 262.82C250.15 262.58 250.92 262.46 251.78 262.46C252.84 262.46 253.69 262.593 254.33 262.86C254.97 263.12 255.433 263.497 255.72 263.99C256.006 264.477 256.15 265.057 256.15 265.73V273H253.71L253.47 271.22C253.116 271.967 252.673 272.483 252.14 272.77C251.613 273.057 250.99 273.2 250.27 273.2ZM251.25 271.28C251.516 271.28 251.773 271.233 252.02 271.14C252.273 271.04 252.496 270.91 252.69 270.75C252.89 270.583 253.05 270.397 253.17 270.19C253.29 269.983 253.35 269.77 253.35 269.55V268.02L252.3 268.04C251.813 268.047 251.36 268.107 250.94 268.22C250.52 268.327 250.18 268.503 249.92 268.75C249.666 268.997 249.54 269.33 249.54 269.75C249.54 270.23 249.706 270.607 250.04 270.88C250.373 271.147 250.776 271.28 251.25 271.28ZM264.585 264.69H262.285L262.305 270.2C262.305 270.453 262.335 270.643 262.395 270.77C262.462 270.89 262.562 270.97 262.695 271.01C262.835 271.043 263.012 271.06 263.225 271.06H264.615V272.86C264.482 272.92 264.272 272.977 263.985 273.03C263.705 273.083 263.312 273.11 262.805 273.11C261.898 273.11 261.195 272.993 260.695 272.76C260.202 272.527 259.858 272.2 259.665 271.78C259.472 271.36 259.375 270.873 259.375 270.32V264.69H257.695V262.66H259.475L260.205 259.54H262.285V262.65H264.585V264.69ZM270.455 273.2C269.975 273.2 269.501 273.127 269.035 272.98C268.575 272.833 268.155 272.617 267.775 272.33C267.395 272.043 267.088 271.69 266.855 271.27C266.628 270.85 266.515 270.363 266.515 269.81V262.66H269.435V269.44C269.435 269.92 269.591 270.313 269.905 270.62C270.218 270.927 270.678 271.08 271.285 271.08C271.858 271.08 272.311 270.933 272.645 270.64C272.985 270.34 273.155 269.923 273.155 269.39V262.66H276.045V273H273.845L273.505 270.95C273.385 271.557 273.158 272.023 272.825 272.35C272.498 272.67 272.121 272.89 271.695 273.01C271.275 273.137 270.861 273.2 270.455 273.2ZM282.512 273.2C281.792 273.2 281.099 273.083 280.432 272.85C279.765 272.61 279.202 272.237 278.742 271.73C278.282 271.217 277.989 270.553 277.862 269.74H280.392C280.479 270.107 280.635 270.397 280.862 270.61C281.095 270.823 281.359 270.977 281.652 271.07C281.945 271.157 282.225 271.2 282.492 271.2C283.052 271.2 283.502 271.113 283.842 270.94C284.189 270.76 284.362 270.487 284.362 270.12C284.362 269.84 284.259 269.617 284.052 269.45C283.852 269.283 283.519 269.157 283.052 269.07L281.232 268.69C280.319 268.497 279.585 268.17 279.032 267.71C278.479 267.243 278.195 266.583 278.182 265.73C278.182 265.11 278.345 264.553 278.672 264.06C279.005 263.567 279.495 263.177 280.142 262.89C280.789 262.603 281.582 262.46 282.522 262.46C283.795 262.46 284.812 262.74 285.572 263.3C286.339 263.86 286.729 264.65 286.742 265.67H284.302C284.229 265.27 284.029 264.963 283.702 264.75C283.382 264.53 282.979 264.42 282.492 264.42C281.985 264.42 281.569 264.51 281.242 264.69C280.915 264.87 280.752 265.143 280.752 265.51C280.752 265.783 280.885 266 281.152 266.16C281.419 266.313 281.832 266.447 282.392 266.56L284.072 266.94C284.652 267.08 285.122 267.273 285.482 267.52C285.849 267.76 286.132 268.023 286.332 268.31C286.532 268.597 286.669 268.887 286.742 269.18C286.822 269.467 286.862 269.727 286.862 269.96C286.862 270.647 286.679 271.233 286.312 271.72C285.945 272.2 285.435 272.567 284.782 272.82C284.129 273.073 283.372 273.2 282.512 273.2Z" fill="#4A4A4A"/>
<path d="M110.813 312.878L107.334 318.723V323H105.633V318.716L102.147 312.878H103.995L106.494 317.232L108.951 312.878H110.813ZM113.789 323.14C113.099 323.14 112.497 322.993 111.983 322.699C111.47 322.4 111.071 321.973 110.786 321.418C110.506 320.863 110.366 320.195 110.366 319.416C110.366 318.66 110.502 317.997 110.772 317.428C111.048 316.859 111.442 316.415 111.955 316.098C112.469 315.781 113.082 315.622 113.796 315.622C114.487 315.622 115.087 315.774 115.595 316.077C116.104 316.38 116.496 316.814 116.771 317.379C117.051 317.944 117.191 318.623 117.191 319.416C117.191 320.149 117.058 320.795 116.792 321.355C116.531 321.91 116.146 322.347 115.637 322.664C115.133 322.981 114.517 323.14 113.789 323.14ZM113.796 321.845C114.188 321.845 114.51 321.738 114.762 321.523C115.019 321.308 115.208 321.014 115.329 320.641C115.455 320.268 115.518 319.843 115.518 319.367C115.518 318.924 115.462 318.515 115.35 318.142C115.243 317.769 115.061 317.47 114.804 317.246C114.552 317.017 114.216 316.903 113.796 316.903C113.4 316.903 113.071 317.008 112.809 317.218C112.553 317.423 112.359 317.713 112.228 318.086C112.102 318.455 112.039 318.882 112.039 319.367C112.039 319.806 112.095 320.214 112.207 320.592C112.324 320.965 112.511 321.269 112.767 321.502C113.024 321.731 113.367 321.845 113.796 321.845ZM121.267 323.14C120.912 323.14 120.569 323.089 120.238 322.986C119.911 322.879 119.617 322.725 119.356 322.524C119.094 322.319 118.887 322.067 118.733 321.768C118.579 321.469 118.502 321.122 118.502 320.725V315.762H120.21V320.529C120.21 320.921 120.333 321.243 120.581 321.495C120.833 321.747 121.211 321.873 121.715 321.873C122.172 321.873 122.538 321.754 122.814 321.516C123.089 321.273 123.227 320.926 123.227 320.473V315.762H124.921V323H123.612L123.423 321.586C123.334 321.983 123.178 322.295 122.954 322.524C122.734 322.748 122.475 322.907 122.177 323C121.883 323.093 121.579 323.14 121.267 323.14ZM126.81 323V315.762H128.441V317.33C128.557 316.971 128.723 316.665 128.938 316.413C129.157 316.156 129.414 315.96 129.708 315.825C130.002 315.69 130.321 315.622 130.667 315.622C130.751 315.622 130.832 315.627 130.912 315.636C130.991 315.645 131.049 315.662 131.087 315.685V317.316C131.035 317.293 130.968 317.276 130.884 317.267C130.804 317.258 130.734 317.253 130.674 317.253C130.324 317.225 130.013 317.239 129.743 317.295C129.477 317.351 129.25 317.447 129.064 317.582C128.882 317.713 128.744 317.881 128.651 318.086C128.557 318.287 128.511 318.522 128.511 318.793V323H126.81ZM137.529 323.14C137.067 323.14 136.651 323.056 136.283 322.888C135.919 322.715 135.632 322.47 135.422 322.153C135.216 321.831 135.114 321.441 135.114 320.984C135.114 320.186 135.401 319.584 135.975 319.178C136.553 318.772 137.475 318.56 138.74 318.541L139.818 318.513V318.023C139.818 317.64 139.703 317.342 139.475 317.127C139.251 316.908 138.901 316.8 138.425 316.805C138.075 316.81 137.753 316.894 137.459 317.057C137.169 317.216 136.978 317.484 136.885 317.862H135.436C135.464 317.367 135.606 316.954 135.863 316.623C136.124 316.287 136.481 316.037 136.934 315.874C137.386 315.706 137.909 315.622 138.502 315.622C139.192 315.622 139.755 315.713 140.189 315.895C140.623 316.077 140.942 316.341 141.148 316.686C141.353 317.027 141.456 317.44 141.456 317.925V323H140.021L139.888 321.698C139.626 322.244 139.295 322.622 138.894 322.832C138.497 323.037 138.042 323.14 137.529 323.14ZM138.082 321.985C138.292 321.985 138.499 321.948 138.705 321.873C138.91 321.794 139.097 321.689 139.265 321.558C139.433 321.423 139.566 321.273 139.664 321.11C139.766 320.947 139.818 320.776 139.818 320.599V319.458L138.929 319.472C138.49 319.477 138.107 319.523 137.781 319.612C137.454 319.701 137.197 319.843 137.011 320.039C136.829 320.23 136.738 320.487 136.738 320.809C136.738 321.178 136.866 321.467 137.123 321.677C137.379 321.882 137.699 321.985 138.082 321.985ZM146.451 315.622C147.016 315.622 147.513 315.734 147.942 315.958C148.372 316.182 148.715 316.492 148.971 316.889C149.233 317.286 149.389 317.736 149.44 318.24H147.984C147.952 318.021 147.872 317.813 147.746 317.617C147.62 317.416 147.45 317.255 147.235 317.134C147.021 317.008 146.762 316.945 146.458 316.945C145.917 316.945 145.476 317.146 145.135 317.547C144.799 317.948 144.631 318.564 144.631 319.395C144.631 320.16 144.792 320.769 145.114 321.222C145.436 321.675 145.896 321.901 146.493 321.901C146.792 321.901 147.046 321.836 147.256 321.705C147.471 321.57 147.639 321.404 147.76 321.208C147.886 321.007 147.968 320.807 148.005 320.606H149.419C149.377 321.096 149.223 321.532 148.957 321.915C148.696 322.298 148.351 322.599 147.921 322.818C147.497 323.033 147.007 323.14 146.451 323.14C145.789 323.14 145.198 322.995 144.68 322.706C144.167 322.412 143.763 321.987 143.469 321.432C143.175 320.872 143.028 320.198 143.028 319.409C143.028 318.658 143.166 318 143.441 317.435C143.717 316.866 144.111 316.422 144.624 316.105C145.138 315.783 145.747 315.622 146.451 315.622ZM154.012 315.622C154.577 315.622 155.074 315.734 155.503 315.958C155.932 316.182 156.275 316.492 156.532 316.889C156.793 317.286 156.95 317.736 157.001 318.24H155.545C155.512 318.021 155.433 317.813 155.307 317.617C155.181 317.416 155.011 317.255 154.796 317.134C154.581 317.008 154.322 316.945 154.019 316.945C153.478 316.945 153.037 317.146 152.696 317.547C152.36 317.948 152.192 318.564 152.192 319.395C152.192 320.16 152.353 320.769 152.675 321.222C152.997 321.675 153.457 321.901 154.054 321.901C154.353 321.901 154.607 321.836 154.817 321.705C155.032 321.57 155.2 321.404 155.321 321.208C155.447 321.007 155.529 320.807 155.566 320.606H156.98C156.938 321.096 156.784 321.532 156.518 321.915C156.257 322.298 155.911 322.599 155.482 322.818C155.057 323.033 154.567 323.14 154.012 323.14C153.349 323.14 152.759 322.995 152.241 322.706C151.728 322.412 151.324 321.987 151.03 321.432C150.736 320.872 150.589 320.198 150.589 319.409C150.589 318.658 150.727 318 151.002 317.435C151.277 316.866 151.672 316.422 152.185 316.105C152.698 315.783 153.307 315.622 154.012 315.622ZM161.573 323.14C160.882 323.14 160.28 322.993 159.767 322.699C159.253 322.4 158.854 321.973 158.57 321.418C158.29 320.863 158.15 320.195 158.15 319.416C158.15 318.66 158.285 317.997 158.556 317.428C158.831 316.859 159.225 316.415 159.739 316.098C160.252 315.781 160.866 315.622 161.58 315.622C162.27 315.622 162.87 315.774 163.379 316.077C163.887 316.38 164.279 316.814 164.555 317.379C164.835 317.944 164.975 318.623 164.975 319.416C164.975 320.149 164.842 320.795 164.576 321.355C164.314 321.91 163.929 322.347 163.421 322.664C162.917 322.981 162.301 323.14 161.573 323.14ZM161.58 321.845C161.972 321.845 162.294 321.738 162.546 321.523C162.802 321.308 162.991 321.014 163.113 320.641C163.239 320.268 163.302 319.843 163.302 319.367C163.302 318.924 163.246 318.515 163.134 318.142C163.026 317.769 162.844 317.47 162.588 317.246C162.336 317.017 162 316.903 161.58 316.903C161.183 316.903 160.854 317.008 160.593 317.218C160.336 317.423 160.142 317.713 160.012 318.086C159.886 318.455 159.823 318.882 159.823 319.367C159.823 319.806 159.879 320.214 159.991 320.592C160.107 320.965 160.294 321.269 160.551 321.502C160.807 321.731 161.15 321.845 161.58 321.845ZM169.05 323.14C168.695 323.14 168.352 323.089 168.021 322.986C167.694 322.879 167.4 322.725 167.139 322.524C166.877 322.319 166.67 322.067 166.516 321.768C166.362 321.469 166.285 321.122 166.285 320.725V315.762H167.993V320.529C167.993 320.921 168.116 321.243 168.364 321.495C168.616 321.747 168.994 321.873 169.498 321.873C169.955 321.873 170.321 321.754 170.597 321.516C170.872 321.273 171.01 320.926 171.01 320.473V315.762H172.704V323H171.395L171.206 321.586C171.117 321.983 170.961 322.295 170.737 322.524C170.517 322.748 170.258 322.907 169.96 323C169.666 323.093 169.362 323.14 169.05 323.14ZM174.593 323V315.762H176.259V316.798C176.371 316.611 176.523 316.432 176.714 316.259C176.91 316.086 177.15 315.946 177.435 315.839C177.72 315.732 178.053 315.678 178.436 315.678C178.884 315.678 179.299 315.767 179.682 315.944C180.069 316.121 180.38 316.399 180.613 316.777C180.851 317.155 180.97 317.643 180.97 318.24V323H179.262V318.443C179.262 317.967 179.131 317.615 178.87 317.386C178.609 317.153 178.28 317.036 177.883 317.036C177.612 317.036 177.356 317.083 177.113 317.176C176.87 317.265 176.672 317.402 176.518 317.589C176.369 317.771 176.294 318 176.294 318.275V323H174.593ZM186.543 316.966H184.926L184.933 321.117C184.933 321.332 184.956 321.49 185.003 321.593C185.054 321.691 185.134 321.756 185.241 321.789C185.353 321.817 185.502 321.831 185.689 321.831H186.578V322.909C186.485 322.946 186.342 322.979 186.151 323.007C185.964 323.04 185.712 323.056 185.395 323.056C184.821 323.056 184.375 322.981 184.058 322.832C183.745 322.678 183.528 322.461 183.407 322.181C183.286 321.901 183.225 321.567 183.225 321.18V316.966H182.049V315.762H183.274L183.701 313.613H184.926V315.755H186.543V316.966ZM191.3 323V312.598H192.98V316.812C193.097 316.63 193.251 316.455 193.442 316.287C193.633 316.114 193.867 315.974 194.142 315.867C194.422 315.755 194.756 315.699 195.143 315.699C195.605 315.699 196.027 315.788 196.41 315.965C196.793 316.142 197.098 316.399 197.327 316.735C197.556 317.066 197.67 317.463 197.67 317.925V323H195.962V318.212C195.962 317.839 195.829 317.549 195.563 317.344C195.302 317.139 194.97 317.036 194.569 317.036C194.303 317.036 194.049 317.083 193.806 317.176C193.563 317.269 193.367 317.409 193.218 317.596C193.073 317.778 193.001 318.007 193.001 318.282V323H191.3ZM201.499 323.14C201.037 323.14 200.622 323.056 200.253 322.888C199.889 322.715 199.602 322.47 199.392 322.153C199.187 321.831 199.084 321.441 199.084 320.984C199.084 320.186 199.371 319.584 199.945 319.178C200.524 318.772 201.446 318.56 202.71 318.541L203.788 318.513V318.023C203.788 317.64 203.674 317.342 203.445 317.127C203.221 316.908 202.871 316.8 202.395 316.805C202.045 316.81 201.723 316.894 201.429 317.057C201.14 317.216 200.949 317.484 200.855 317.862H199.406C199.434 317.367 199.577 316.954 199.833 316.623C200.095 316.287 200.452 316.037 200.904 315.874C201.357 315.706 201.88 315.622 202.472 315.622C203.163 315.622 203.725 315.713 204.159 315.895C204.593 316.077 204.913 316.341 205.118 316.686C205.324 317.027 205.426 317.44 205.426 317.925V323H203.991L203.858 321.698C203.597 322.244 203.266 322.622 202.864 322.832C202.468 323.037 202.013 323.14 201.499 323.14ZM202.052 321.985C202.262 321.985 202.47 321.948 202.675 321.873C202.881 321.794 203.067 321.689 203.235 321.558C203.403 321.423 203.536 321.273 203.634 321.11C203.737 320.947 203.788 320.776 203.788 320.599V319.458L202.899 319.472C202.461 319.477 202.078 319.523 201.751 319.612C201.425 319.701 201.168 319.843 200.981 320.039C200.799 320.23 200.708 320.487 200.708 320.809C200.708 321.178 200.837 321.467 201.093 321.677C201.35 321.882 201.67 321.985 202.052 321.985ZM210.046 323.14C209.542 323.14 209.064 323.061 208.611 322.902C208.163 322.739 207.785 322.484 207.477 322.139C207.174 321.794 206.983 321.348 206.903 320.802H208.401C208.467 321.068 208.581 321.285 208.744 321.453C208.912 321.621 209.111 321.745 209.339 321.824C209.568 321.899 209.801 321.936 210.039 321.936C210.473 321.936 210.823 321.861 211.089 321.712C211.36 321.563 211.495 321.332 211.495 321.019C211.495 320.79 211.421 320.608 211.271 320.473C211.122 320.338 210.884 320.235 210.557 320.165L209.178 319.85C208.567 319.715 208.075 319.491 207.701 319.178C207.333 318.865 207.146 318.424 207.141 317.855C207.137 317.426 207.244 317.043 207.463 316.707C207.683 316.371 208.009 316.107 208.443 315.916C208.877 315.72 209.414 315.622 210.053 315.622C210.898 315.622 211.575 315.811 212.083 316.189C212.592 316.562 212.853 317.097 212.867 317.792H211.418C211.367 317.479 211.22 317.237 210.977 317.064C210.735 316.887 210.42 316.798 210.032 316.798C209.631 316.798 209.302 316.875 209.045 317.029C208.789 317.183 208.66 317.419 208.66 317.736C208.66 317.955 208.758 318.128 208.954 318.254C209.15 318.38 209.444 318.487 209.836 318.576L211.138 318.891C211.512 318.984 211.817 319.11 212.055 319.269C212.293 319.428 212.48 319.603 212.615 319.794C212.751 319.981 212.844 320.174 212.895 320.375C212.951 320.571 212.979 320.753 212.979 320.921C212.979 321.388 212.858 321.787 212.615 322.118C212.377 322.445 212.039 322.697 211.6 322.874C211.162 323.051 210.644 323.14 210.046 323.14ZM217.605 323V315.762H219.271V316.798C219.383 316.611 219.534 316.432 219.726 316.259C219.922 316.086 220.162 315.946 220.447 315.839C220.731 315.732 221.065 315.678 221.448 315.678C221.896 315.678 222.311 315.767 222.694 315.944C223.081 316.121 223.391 316.399 223.625 316.777C223.863 317.155 223.982 317.643 223.982 318.24V323H222.274V318.443C222.274 317.967 222.143 317.615 221.882 317.386C221.62 317.153 221.291 317.036 220.895 317.036C220.624 317.036 220.367 317.083 220.125 317.176C219.882 317.265 219.684 317.402 219.53 317.589C219.38 317.771 219.306 318 219.306 318.275V323H217.605ZM228.811 323.14C228.12 323.14 227.518 322.993 227.005 322.699C226.491 322.4 226.092 321.973 225.808 321.418C225.528 320.863 225.388 320.195 225.388 319.416C225.388 318.66 225.523 317.997 225.794 317.428C226.069 316.859 226.463 316.415 226.977 316.098C227.49 315.781 228.104 315.622 228.818 315.622C229.508 315.622 230.108 315.774 230.617 316.077C231.125 316.38 231.517 316.814 231.793 317.379C232.073 317.944 232.213 318.623 232.213 319.416C232.213 320.149 232.08 320.795 231.814 321.355C231.552 321.91 231.167 322.347 230.659 322.664C230.155 322.981 229.539 323.14 228.811 323.14ZM228.818 321.845C229.21 321.845 229.532 321.738 229.784 321.523C230.04 321.308 230.229 321.014 230.351 320.641C230.477 320.268 230.54 319.843 230.54 319.367C230.54 318.924 230.484 318.515 230.372 318.142C230.264 317.769 230.082 317.47 229.826 317.246C229.574 317.017 229.238 316.903 228.818 316.903C228.421 316.903 228.092 317.008 227.831 317.218C227.574 317.423 227.38 317.713 227.25 318.086C227.124 318.455 227.061 318.882 227.061 319.367C227.061 319.806 227.117 320.214 227.229 320.592C227.345 320.965 227.532 321.269 227.789 321.502C228.045 321.731 228.388 321.845 228.818 321.845ZM237.566 316.966H235.949L235.956 321.117C235.956 321.332 235.98 321.49 236.026 321.593C236.078 321.691 236.157 321.756 236.264 321.789C236.376 321.817 236.526 321.831 236.712 321.831H237.601V322.909C237.508 322.946 237.366 322.979 237.174 323.007C236.988 323.04 236.736 323.056 236.418 323.056C235.844 323.056 235.399 322.981 235.081 322.832C234.769 322.678 234.552 322.461 234.43 322.181C234.309 321.901 234.248 321.567 234.248 321.18V316.966H233.072V315.762H234.297L234.724 313.613H235.949V315.755H237.566V316.966ZM246.145 323.14C245.758 323.14 245.427 323.089 245.151 322.986C244.876 322.883 244.645 322.75 244.458 322.587C244.276 322.424 244.129 322.249 244.017 322.062C243.91 321.871 243.828 321.689 243.772 321.516L243.576 323H242.323V312.598H244.031V316.819C244.106 316.679 244.209 316.539 244.339 316.399C244.475 316.259 244.638 316.131 244.829 316.014C245.021 315.897 245.238 315.804 245.48 315.734C245.728 315.659 246.001 315.622 246.299 315.622C247.2 315.622 247.912 315.942 248.434 316.581C248.957 317.22 249.218 318.142 249.218 319.346C249.218 320.107 249.102 320.772 248.868 321.341C248.64 321.91 248.297 322.354 247.839 322.671C247.387 322.984 246.822 323.14 246.145 323.14ZM245.795 321.887C246.304 321.887 246.722 321.684 247.048 321.278C247.375 320.872 247.538 320.214 247.538 319.304C247.538 318.511 247.384 317.911 247.076 317.505C246.768 317.094 246.334 316.889 245.774 316.889C245.373 316.889 245.044 316.98 244.787 317.162C244.535 317.344 244.346 317.615 244.22 317.974C244.099 318.333 244.036 318.777 244.031 319.304C244.031 320.228 244.171 320.891 244.451 321.292C244.736 321.689 245.184 321.887 245.795 321.887ZM252.069 319.773C252.064 320.184 252.129 320.548 252.265 320.865C252.4 321.182 252.601 321.432 252.867 321.614C253.133 321.791 253.462 321.88 253.854 321.88C254.255 321.88 254.603 321.791 254.897 321.614C255.195 321.432 255.394 321.157 255.492 320.788H257.053C256.969 321.292 256.768 321.719 256.451 322.069C256.133 322.419 255.748 322.685 255.296 322.867C254.848 323.049 254.381 323.14 253.896 323.14C253.196 323.14 252.58 322.993 252.048 322.699C251.52 322.4 251.107 321.976 250.809 321.425C250.515 320.874 250.368 320.219 250.368 319.458C250.368 318.716 250.503 318.058 250.774 317.484C251.044 316.905 251.434 316.45 251.943 316.119C252.456 315.788 253.072 315.622 253.791 315.622C254.505 315.622 255.104 315.774 255.59 316.077C256.08 316.38 256.448 316.805 256.696 317.351C256.948 317.892 257.074 318.527 257.074 319.255V319.773H252.069ZM252.069 318.716H255.464C255.464 318.366 255.403 318.051 255.282 317.771C255.16 317.486 254.974 317.262 254.722 317.099C254.474 316.931 254.162 316.847 253.784 316.847C253.41 316.847 253.095 316.938 252.839 317.12C252.582 317.302 252.388 317.538 252.258 317.827C252.127 318.112 252.064 318.408 252.069 318.716ZM259.998 319.773C259.994 320.184 260.059 320.548 260.194 320.865C260.33 321.182 260.53 321.432 260.796 321.614C261.062 321.791 261.391 321.88 261.783 321.88C262.185 321.88 262.532 321.791 262.826 321.614C263.125 321.432 263.323 321.157 263.421 320.788H264.982C264.898 321.292 264.698 321.719 264.38 322.069C264.063 322.419 263.678 322.685 263.225 322.867C262.777 323.049 262.311 323.14 261.825 323.14C261.125 323.14 260.509 322.993 259.977 322.699C259.45 322.4 259.037 321.976 258.738 321.425C258.444 320.874 258.297 320.219 258.297 319.458C258.297 318.716 258.433 318.058 258.703 317.484C258.974 316.905 259.364 316.45 259.872 316.119C260.386 315.788 261.002 315.622 261.72 315.622C262.434 315.622 263.034 315.774 263.519 316.077C264.009 316.38 264.378 316.805 264.625 317.351C264.877 317.892 265.003 318.527 265.003 319.255V319.773H259.998ZM259.998 318.716H263.393C263.393 318.366 263.333 318.051 263.211 317.771C263.09 317.486 262.903 317.262 262.651 317.099C262.404 316.931 262.091 316.847 261.713 316.847C261.34 316.847 261.025 316.938 260.768 317.12C260.512 317.302 260.318 317.538 260.187 317.827C260.057 318.112 259.994 318.408 259.998 318.716ZM266.591 323V315.762H268.257V316.798C268.369 316.611 268.521 316.432 268.712 316.259C268.908 316.086 269.148 315.946 269.433 315.839C269.718 315.732 270.051 315.678 270.434 315.678C270.882 315.678 271.297 315.767 271.68 315.944C272.067 316.121 272.378 316.399 272.611 316.777C272.849 317.155 272.968 317.643 272.968 318.24V323H271.26V318.443C271.26 317.967 271.129 317.615 270.868 317.386C270.607 317.153 270.278 317.036 269.881 317.036C269.61 317.036 269.354 317.083 269.111 317.176C268.868 317.265 268.67 317.402 268.516 317.589C268.367 317.771 268.292 318 268.292 318.275V323H266.591ZM283.78 315.762L281.113 323H279.769L277.095 315.762H278.656L280.392 320.83H280.483L282.212 315.762H283.78ZM286.057 319.773C286.052 320.184 286.118 320.548 286.253 320.865C286.388 321.182 286.589 321.432 286.855 321.614C287.121 321.791 287.45 321.88 287.842 321.88C288.243 321.88 288.591 321.791 288.885 321.614C289.184 321.432 289.382 321.157 289.48 320.788H291.041C290.957 321.292 290.756 321.719 290.439 322.069C290.122 322.419 289.737 322.685 289.284 322.867C288.836 323.049 288.369 323.14 287.884 323.14C287.184 323.14 286.568 322.993 286.036 322.699C285.509 322.4 285.096 321.976 284.797 321.425C284.503 320.874 284.356 320.219 284.356 319.458C284.356 318.716 284.491 318.058 284.762 317.484C285.033 316.905 285.422 316.45 285.931 316.119C286.444 315.788 287.06 315.622 287.779 315.622C288.493 315.622 289.093 315.774 289.578 316.077C290.068 316.38 290.437 316.805 290.684 317.351C290.936 317.892 291.062 318.527 291.062 319.255V319.773H286.057ZM286.057 318.716H289.452C289.452 318.366 289.391 318.051 289.27 317.771C289.149 317.486 288.962 317.262 288.71 317.099C288.463 316.931 288.15 316.847 287.772 316.847C287.399 316.847 287.084 316.938 286.827 317.12C286.57 317.302 286.377 317.538 286.246 317.827C286.115 318.112 286.052 318.408 286.057 318.716ZM292.65 323V315.762H294.281V317.33C294.397 316.971 294.563 316.665 294.778 316.413C294.997 316.156 295.254 315.96 295.548 315.825C295.842 315.69 296.161 315.622 296.507 315.622C296.591 315.622 296.672 315.627 296.752 315.636C296.831 315.645 296.889 315.662 296.927 315.685V317.316C296.875 317.293 296.808 317.276 296.724 317.267C296.644 317.258 296.574 317.253 296.514 317.253C296.164 317.225 295.853 317.239 295.583 317.295C295.317 317.351 295.09 317.447 294.904 317.582C294.722 317.713 294.584 317.881 294.491 318.086C294.397 318.287 294.351 318.522 294.351 318.793V323H292.65ZM299.985 315.762V323H298.347V315.762H299.985ZM300.006 312.885V314.495H298.319V312.885H300.006ZM306.305 315.762V316.966H304.674V323H302.973V316.966H301.545V315.762H302.973V314.684C302.973 314.105 303.132 313.66 303.449 313.347C303.771 313.034 304.236 312.878 304.842 312.878H306.368L306.375 314.04H305.367C305.092 314.04 304.903 314.112 304.8 314.257C304.698 314.397 304.646 314.619 304.646 314.922V315.762H306.305ZM309.448 315.762V323H307.81V315.762H309.448ZM309.469 312.885V314.495H307.782V312.885H309.469ZM312.826 319.773C312.822 320.184 312.887 320.548 313.022 320.865C313.158 321.182 313.358 321.432 313.624 321.614C313.89 321.791 314.219 321.88 314.611 321.88C315.013 321.88 315.36 321.791 315.654 321.614C315.953 321.432 316.151 321.157 316.249 320.788H317.81C317.726 321.292 317.526 321.719 317.208 322.069C316.891 322.419 316.506 322.685 316.053 322.867C315.605 323.049 315.139 323.14 314.653 323.14C313.953 323.14 313.337 322.993 312.805 322.699C312.278 322.4 311.865 321.976 311.566 321.425C311.272 320.874 311.125 320.219 311.125 319.458C311.125 318.716 311.261 318.058 311.531 317.484C311.802 316.905 312.192 316.45 312.7 316.119C313.214 315.788 313.83 315.622 314.548 315.622C315.262 315.622 315.862 315.774 316.347 316.077C316.837 316.38 317.206 316.805 317.453 317.351C317.705 317.892 317.831 318.527 317.831 319.255V319.773H312.826ZM312.826 318.716H316.221C316.221 318.366 316.161 318.051 316.039 317.771C315.918 317.486 315.731 317.262 315.479 317.099C315.232 316.931 314.919 316.847 314.541 316.847C314.168 316.847 313.853 316.938 313.596 317.12C313.34 317.302 313.146 317.538 313.015 317.827C312.885 318.112 312.822 318.408 312.826 318.716ZM322.072 323.14C321.115 323.14 320.364 322.811 319.818 322.153C319.272 321.495 318.999 320.559 318.999 319.346C318.999 318.59 319.109 317.934 319.328 317.379C319.552 316.819 319.879 316.387 320.308 316.084C320.742 315.776 321.279 315.622 321.918 315.622C322.217 315.622 322.487 315.659 322.73 315.734C322.977 315.804 323.197 315.897 323.388 316.014C323.579 316.131 323.74 316.259 323.871 316.399C324.006 316.539 324.111 316.679 324.186 316.819V312.598H325.894V323H324.634L324.445 321.516C324.389 321.689 324.305 321.871 324.193 322.062C324.086 322.249 323.939 322.424 323.752 322.587C323.57 322.75 323.341 322.883 323.066 322.986C322.791 323.089 322.459 323.14 322.072 323.14ZM322.422 321.887C323.033 321.887 323.479 321.689 323.759 321.292C324.044 320.891 324.186 320.228 324.186 319.304C324.181 318.777 324.116 318.333 323.99 317.974C323.869 317.615 323.68 317.344 323.423 317.162C323.171 316.98 322.844 316.889 322.443 316.889C321.93 316.889 321.507 317.078 321.176 317.456C320.845 317.834 320.679 318.45 320.679 319.304C320.679 320.153 320.831 320.797 321.134 321.236C321.437 321.67 321.867 321.887 322.422 321.887Z" fill="#F45D5D"/>
<rect x="98.25" y="343.25" width="231.5" height="48.5" rx="2.75" fill="#F45D5D"/>
<path d="M131.319 373H128.895L127.015 368.544H124.671V373H122.343V361.432H127.223C128.146 361.432 128.9 361.579 129.487 361.872C130.074 362.165 130.506 362.573 130.783 363.096C131.06 363.613 131.199 364.211 131.199 364.888C131.199 365.496 131.103 366.011 130.911 366.432C130.724 366.848 130.476 367.195 130.167 367.472C129.863 367.749 129.53 367.976 129.167 368.152L131.319 373ZM126.807 366.744C127.431 366.744 127.924 366.576 128.287 366.24C128.655 365.904 128.839 365.472 128.839 364.944C128.839 364.411 128.663 363.989 128.311 363.68C127.959 363.371 127.514 363.216 126.975 363.216H124.671V366.744H126.807ZM134.811 369.4C134.805 369.821 134.872 370.189 135.011 370.504C135.149 370.813 135.349 371.053 135.611 371.224C135.877 371.389 136.197 371.472 136.571 371.472C136.971 371.472 137.32 371.387 137.619 371.216C137.923 371.045 138.133 370.765 138.251 370.376H140.355C140.264 370.963 140.029 371.464 139.651 371.88C139.277 372.296 138.824 372.613 138.291 372.832C137.757 373.051 137.203 373.16 136.627 373.16C135.811 373.16 135.091 372.989 134.467 372.648C133.848 372.301 133.365 371.813 133.019 371.184C132.672 370.555 132.499 369.813 132.499 368.96C132.499 368.133 132.656 367.389 132.971 366.728C133.285 366.061 133.741 365.536 134.339 365.152C134.941 364.763 135.664 364.568 136.507 364.568C137.349 364.568 138.056 364.747 138.627 365.104C139.203 365.456 139.635 365.949 139.923 366.584C140.216 367.213 140.363 367.941 140.363 368.768V369.4H134.811ZM134.803 368.008H138.179C138.179 367.677 138.117 367.373 137.995 367.096C137.872 366.819 137.685 366.6 137.435 366.44C137.189 366.28 136.88 366.2 136.507 366.2C136.144 366.2 135.835 366.288 135.579 366.464C135.328 366.635 135.136 366.859 135.003 367.136C134.869 367.413 134.803 367.704 134.803 368.008ZM145.241 373.16C144.665 373.16 144.11 373.067 143.577 372.88C143.043 372.688 142.593 372.389 142.225 371.984C141.857 371.573 141.622 371.043 141.521 370.392H143.545C143.614 370.685 143.739 370.917 143.921 371.088C144.107 371.259 144.318 371.381 144.553 371.456C144.787 371.525 145.011 371.56 145.225 371.56C145.673 371.56 146.033 371.491 146.305 371.352C146.582 371.208 146.721 370.989 146.721 370.696C146.721 370.472 146.638 370.293 146.473 370.16C146.313 370.027 146.046 369.925 145.673 369.856L144.217 369.552C143.486 369.397 142.899 369.136 142.457 368.768C142.014 368.395 141.787 367.867 141.777 367.184C141.777 366.688 141.907 366.243 142.169 365.848C142.435 365.453 142.827 365.141 143.345 364.912C143.862 364.683 144.497 364.568 145.249 364.568C146.267 364.568 147.081 364.792 147.689 365.24C148.302 365.688 148.614 366.32 148.625 367.136H146.673C146.614 366.816 146.454 366.571 146.193 366.4C145.937 366.224 145.614 366.136 145.225 366.136C144.819 366.136 144.486 366.208 144.225 366.352C143.963 366.496 143.833 366.715 143.833 367.008C143.833 367.227 143.939 367.4 144.153 367.528C144.366 367.651 144.697 367.757 145.145 367.848L146.489 368.152C146.953 368.264 147.329 368.419 147.617 368.616C147.91 368.808 148.137 369.019 148.297 369.248C148.457 369.477 148.566 369.709 148.625 369.944C148.689 370.173 148.721 370.381 148.721 370.568C148.721 371.117 148.574 371.587 148.281 371.976C147.987 372.36 147.579 372.653 147.057 372.856C146.534 373.059 145.929 373.16 145.241 373.16ZM152.279 369.4C152.274 369.821 152.341 370.189 152.479 370.504C152.618 370.813 152.818 371.053 153.079 371.224C153.346 371.389 153.666 371.472 154.039 371.472C154.439 371.472 154.789 371.387 155.087 371.216C155.391 371.045 155.602 370.765 155.719 370.376H157.823C157.733 370.963 157.498 371.464 157.119 371.88C156.746 372.296 156.293 372.613 155.759 372.832C155.226 373.051 154.671 373.16 154.095 373.16C153.279 373.16 152.559 372.989 151.935 372.648C151.317 372.301 150.834 371.813 150.487 371.184C150.141 370.555 149.967 369.813 149.967 368.96C149.967 368.133 150.125 367.389 150.439 366.728C150.754 366.061 151.21 365.536 151.807 365.152C152.41 364.763 153.133 364.568 153.975 364.568C154.818 364.568 155.525 364.747 156.095 365.104C156.671 365.456 157.103 365.949 157.391 366.584C157.685 367.213 157.831 367.941 157.831 368.768V369.4H152.279ZM152.271 368.008H155.647C155.647 367.677 155.586 367.373 155.463 367.096C155.341 366.819 155.154 366.6 154.903 366.44C154.658 366.28 154.349 366.2 153.975 366.2C153.613 366.2 153.303 366.288 153.047 366.464C152.797 366.635 152.605 366.859 152.471 367.136C152.338 367.413 152.271 367.704 152.271 368.008ZM159.453 373V364.728H161.749V365.896C161.877 365.693 162.042 365.499 162.245 365.312C162.453 365.12 162.714 364.963 163.029 364.84C163.344 364.717 163.717 364.656 164.149 364.656C164.656 364.656 165.128 364.755 165.565 364.952C166.008 365.149 166.365 365.461 166.637 365.888C166.909 366.309 167.045 366.861 167.045 367.544V373H164.709V367.832C164.709 367.384 164.576 367.048 164.309 366.824C164.042 366.6 163.717 366.488 163.333 366.488C163.077 366.488 162.829 366.533 162.589 366.624C162.354 366.715 162.162 366.851 162.013 367.032C161.864 367.213 161.789 367.437 161.789 367.704V373H159.453ZM172.01 373.16C170.9 373.16 170.036 372.779 169.418 372.016C168.799 371.248 168.49 370.181 168.49 368.816C168.49 367.952 168.615 367.203 168.866 366.568C169.116 365.933 169.487 365.443 169.978 365.096C170.468 364.744 171.068 364.568 171.778 364.568C172.076 364.568 172.354 364.603 172.61 364.672C172.871 364.736 173.108 364.827 173.322 364.944C173.535 365.061 173.722 365.197 173.882 365.352C174.042 365.507 174.172 365.672 174.274 365.848V361.112H176.618V373H174.922L174.658 371.304C174.583 371.533 174.479 371.757 174.346 371.976C174.212 372.195 174.042 372.395 173.834 372.576C173.626 372.752 173.37 372.893 173.066 373C172.767 373.107 172.415 373.16 172.01 373.16ZM172.522 371.48C173.108 371.48 173.546 371.275 173.834 370.864C174.127 370.453 174.274 369.76 174.274 368.784C174.268 368.219 174.202 367.749 174.074 367.376C173.946 367.003 173.754 366.725 173.498 366.544C173.247 366.357 172.927 366.264 172.538 366.264C172.031 366.264 171.61 366.459 171.274 366.848C170.938 367.232 170.77 367.877 170.77 368.784C170.77 369.707 170.927 370.387 171.242 370.824C171.556 371.261 171.983 371.48 172.522 371.48ZM189.081 364.728L185.977 373H184.289L181.177 364.728H183.289L185.097 370H185.161L186.945 364.728H189.081ZM191.858 369.4C191.852 369.821 191.919 370.189 192.058 370.504C192.196 370.813 192.396 371.053 192.658 371.224C192.924 371.389 193.244 371.472 193.618 371.472C194.018 371.472 194.367 371.387 194.666 371.216C194.97 371.045 195.18 370.765 195.298 370.376H197.402C197.311 370.963 197.076 371.464 196.698 371.88C196.324 372.296 195.871 372.613 195.338 372.832C194.804 373.051 194.25 373.16 193.674 373.16C192.858 373.16 192.138 372.989 191.514 372.648C190.895 372.301 190.412 371.813 190.066 371.184C189.719 370.555 189.546 369.813 189.546 368.96C189.546 368.133 189.703 367.389 190.018 366.728C190.332 366.061 190.788 365.536 191.386 365.152C191.988 364.763 192.711 364.568 193.554 364.568C194.396 364.568 195.103 364.747 195.674 365.104C196.25 365.456 196.682 365.949 196.97 366.584C197.263 367.213 197.41 367.941 197.41 368.768V369.4H191.858ZM191.85 368.008H195.226C195.226 367.677 195.164 367.373 195.042 367.096C194.919 366.819 194.732 366.6 194.482 366.44C194.236 366.28 193.927 366.2 193.554 366.2C193.191 366.2 192.882 366.288 192.626 366.464C192.375 366.635 192.183 366.859 192.05 367.136C191.916 367.413 191.85 367.704 191.85 368.008ZM199.031 373V364.728H201.279V366.688C201.413 366.267 201.599 365.899 201.839 365.584C202.085 365.264 202.381 365.016 202.727 364.84C203.074 364.659 203.466 364.568 203.903 364.568C203.978 364.568 204.047 364.573 204.111 364.584C204.181 364.589 204.231 364.6 204.263 364.616V366.84C204.215 366.819 204.157 366.805 204.087 366.8C204.023 366.795 203.965 366.789 203.911 366.784C203.453 366.747 203.061 366.76 202.735 366.824C202.41 366.888 202.146 366.997 201.943 367.152C201.741 367.307 201.594 367.496 201.503 367.72C201.413 367.944 201.367 368.195 201.367 368.472V373H199.031ZM207.883 364.728V373H205.651V364.728H207.883ZM207.907 361.44V363.544H205.635V361.44H207.907ZM215.048 364.728V366.352H213.304V373H210.968V366.352H209.44V364.728H210.968V363.536C210.968 362.869 211.163 362.352 211.552 361.984C211.947 361.616 212.504 361.432 213.224 361.432H215.12L215.128 362.984H214.04C213.741 362.984 213.536 363.059 213.424 363.208C213.317 363.352 213.264 363.592 213.264 363.928V364.728H215.048ZM218.768 364.728V373H216.536V364.728H218.768ZM218.792 361.44V363.544H216.52V361.44H218.792ZM224.435 364.568C225.128 364.568 225.725 364.709 226.227 364.992C226.733 365.275 227.131 365.656 227.419 366.136C227.712 366.616 227.88 367.152 227.923 367.744H225.979C225.941 367.525 225.864 367.309 225.747 367.096C225.629 366.877 225.464 366.699 225.251 366.56C225.037 366.416 224.771 366.344 224.451 366.344C223.907 366.344 223.464 366.555 223.123 366.976C222.787 367.392 222.619 368.027 222.619 368.88C222.619 369.685 222.784 370.325 223.115 370.8C223.445 371.269 223.907 371.504 224.499 371.504C224.813 371.504 225.075 371.427 225.283 371.272C225.496 371.117 225.661 370.933 225.779 370.72C225.896 370.501 225.971 370.299 226.003 370.112H227.899C227.861 370.683 227.696 371.2 227.403 371.664C227.109 372.123 226.709 372.488 226.203 372.76C225.701 373.027 225.112 373.16 224.435 373.16C223.667 373.16 222.981 372.989 222.379 372.648C221.776 372.307 221.301 371.819 220.955 371.184C220.613 370.544 220.443 369.781 220.443 368.896C220.443 368.043 220.608 367.291 220.939 366.64C221.269 365.989 221.733 365.483 222.331 365.12C222.933 364.752 223.635 364.568 224.435 364.568ZM231.884 373.16C231.356 373.16 230.882 373.061 230.46 372.864C230.039 372.667 229.706 372.381 229.46 372.008C229.215 371.629 229.092 371.171 229.092 370.632C229.092 369.725 229.431 369.037 230.108 368.568C230.786 368.093 231.855 367.848 233.316 367.832L234.348 367.816V367.32C234.348 366.941 234.236 366.651 234.012 366.448C233.794 366.24 233.452 366.139 232.988 366.144C232.647 366.149 232.322 366.229 232.012 366.384C231.708 366.539 231.5 366.808 231.388 367.192H229.444C229.476 366.595 229.65 366.104 229.964 365.72C230.279 365.331 230.706 365.043 231.244 364.856C231.788 364.664 232.404 364.568 233.092 364.568C233.94 364.568 234.62 364.675 235.132 364.888C235.644 365.096 236.015 365.397 236.244 365.792C236.474 366.181 236.588 366.645 236.588 367.184V373H234.636L234.444 371.576C234.162 372.173 233.807 372.587 233.38 372.816C232.959 373.045 232.46 373.16 231.884 373.16ZM232.668 371.624C232.882 371.624 233.087 371.587 233.284 371.512C233.487 371.432 233.666 371.328 233.82 371.2C233.98 371.067 234.108 370.917 234.204 370.752C234.3 370.587 234.348 370.416 234.348 370.24V369.016L233.508 369.032C233.119 369.037 232.756 369.085 232.42 369.176C232.084 369.261 231.812 369.403 231.604 369.6C231.402 369.797 231.3 370.064 231.3 370.4C231.3 370.784 231.434 371.085 231.7 371.304C231.967 371.517 232.29 371.624 232.668 371.624ZM243.337 366.352H241.497L241.513 370.76C241.513 370.963 241.537 371.115 241.585 371.216C241.638 371.312 241.718 371.376 241.825 371.408C241.937 371.435 242.078 371.448 242.249 371.448H243.361V372.888C243.254 372.936 243.086 372.981 242.857 373.024C242.633 373.067 242.318 373.088 241.913 373.088C241.188 373.088 240.625 372.995 240.225 372.808C239.83 372.621 239.556 372.36 239.401 372.024C239.246 371.688 239.169 371.299 239.169 370.856V366.352H237.825V364.728H239.249L239.833 362.232H241.497V364.72H243.337V366.352ZM247.415 364.728V373H245.183V364.728H247.415ZM247.439 361.44V363.544H245.167V361.44H247.439ZM253.083 373.16C252.273 373.16 251.566 372.987 250.963 372.64C250.366 372.293 249.902 371.803 249.571 371.168C249.246 370.533 249.083 369.781 249.083 368.912C249.083 368.043 249.246 367.283 249.571 366.632C249.902 365.981 250.366 365.475 250.963 365.112C251.566 364.749 252.275 364.568 253.091 364.568C253.907 364.568 254.614 364.747 255.211 365.104C255.809 365.456 256.27 365.957 256.595 366.608C256.921 367.259 257.083 368.027 257.083 368.912C257.083 369.744 256.923 370.48 256.603 371.12C256.289 371.755 255.833 372.253 255.235 372.616C254.643 372.979 253.926 373.16 253.083 373.16ZM253.091 371.424C253.502 371.424 253.833 371.304 254.083 371.064C254.334 370.824 254.515 370.509 254.627 370.12C254.745 369.725 254.803 369.296 254.803 368.832C254.803 368.395 254.75 367.981 254.643 367.592C254.542 367.203 254.366 366.888 254.115 366.648C253.865 366.408 253.523 366.288 253.091 366.288C252.681 366.288 252.347 366.403 252.091 366.632C251.841 366.856 251.657 367.163 251.539 367.552C251.422 367.936 251.363 368.363 251.363 368.832C251.363 369.264 251.417 369.68 251.523 370.08C251.63 370.475 251.809 370.797 252.059 371.048C252.31 371.299 252.654 371.424 253.091 371.424ZM258.641 373V364.728H260.937V365.896C261.065 365.693 261.23 365.499 261.433 365.312C261.641 365.12 261.902 364.963 262.217 364.84C262.531 364.717 262.905 364.656 263.337 364.656C263.843 364.656 264.315 364.755 264.753 364.952C265.195 365.149 265.553 365.461 265.825 365.888C266.097 366.309 266.233 366.861 266.233 367.544V373H263.897V367.832C263.897 367.384 263.763 367.048 263.497 366.824C263.23 366.6 262.905 366.488 262.521 366.488C262.265 366.488 262.017 366.533 261.777 366.624C261.542 366.715 261.35 366.851 261.201 367.032C261.051 367.213 260.977 367.437 260.977 367.704V373H258.641ZM274.966 364.568C275.659 364.568 276.257 364.709 276.758 364.992C277.265 365.275 277.662 365.656 277.95 366.136C278.243 366.616 278.411 367.152 278.454 367.744H276.51C276.473 367.525 276.395 367.309 276.278 367.096C276.161 366.877 275.995 366.699 275.782 366.56C275.569 366.416 275.302 366.344 274.982 366.344C274.438 366.344 273.995 366.555 273.654 366.976C273.318 367.392 273.15 368.027 273.15 368.88C273.15 369.685 273.315 370.325 273.646 370.8C273.977 371.269 274.438 371.504 275.03 371.504C275.345 371.504 275.606 371.427 275.814 371.272C276.027 371.117 276.193 370.933 276.31 370.72C276.427 370.501 276.502 370.299 276.534 370.112H278.43C278.393 370.683 278.227 371.2 277.934 371.664C277.641 372.123 277.241 372.488 276.734 372.76C276.233 373.027 275.643 373.16 274.966 373.16C274.198 373.16 273.513 372.989 272.91 372.648C272.307 372.307 271.833 371.819 271.486 371.184C271.145 370.544 270.974 369.781 270.974 368.896C270.974 368.043 271.139 367.291 271.47 366.64C271.801 365.989 272.265 365.483 272.862 365.12C273.465 364.752 274.166 364.568 274.966 364.568ZM283.615 373.16C282.804 373.16 282.097 372.987 281.495 372.64C280.897 372.293 280.433 371.803 280.103 371.168C279.777 370.533 279.615 369.781 279.615 368.912C279.615 368.043 279.777 367.283 280.103 366.632C280.433 365.981 280.897 365.475 281.495 365.112C282.097 364.749 282.807 364.568 283.623 364.568C284.439 364.568 285.145 364.747 285.743 365.104C286.34 365.456 286.801 365.957 287.127 366.608C287.452 367.259 287.615 368.027 287.615 368.912C287.615 369.744 287.455 370.48 287.135 371.12C286.82 371.755 286.364 372.253 285.767 372.616C285.175 372.979 284.457 373.16 283.615 373.16ZM283.623 371.424C284.033 371.424 284.364 371.304 284.615 371.064C284.865 370.824 285.047 370.509 285.159 370.12C285.276 369.725 285.335 369.296 285.335 368.832C285.335 368.395 285.281 367.981 285.175 367.592C285.073 367.203 284.897 366.888 284.647 366.648C284.396 366.408 284.055 366.288 283.623 366.288C283.212 366.288 282.879 366.403 282.623 366.632C282.372 366.856 282.188 367.163 282.071 367.552C281.953 367.936 281.895 368.363 281.895 368.832C281.895 369.264 281.948 369.68 282.055 370.08C282.161 370.475 282.34 370.797 282.591 371.048C282.841 371.299 283.185 371.424 283.623 371.424ZM292.244 373.16C291.135 373.16 290.271 372.779 289.652 372.016C289.033 371.248 288.724 370.181 288.724 368.816C288.724 367.952 288.849 367.203 289.1 366.568C289.351 365.933 289.721 365.443 290.212 365.096C290.703 364.744 291.303 364.568 292.012 364.568C292.311 364.568 292.588 364.603 292.844 364.672C293.105 364.736 293.343 364.827 293.556 364.944C293.769 365.061 293.956 365.197 294.116 365.352C294.276 365.507 294.407 365.672 294.508 365.848V361.112H296.852V373H295.156L294.892 371.304C294.817 371.533 294.713 371.757 294.58 371.976C294.447 372.195 294.276 372.395 294.068 372.576C293.86 372.752 293.604 372.893 293.3 373C293.001 373.107 292.649 373.16 292.244 373.16ZM292.756 371.48C293.343 371.48 293.78 371.275 294.068 370.864C294.361 370.453 294.508 369.76 294.508 368.784C294.503 368.219 294.436 367.749 294.308 367.376C294.18 367.003 293.988 366.725 293.732 366.544C293.481 366.357 293.161 366.264 292.772 366.264C292.265 366.264 291.844 366.459 291.508 366.848C291.172 367.232 291.004 367.877 291.004 368.784C291.004 369.707 291.161 370.387 291.476 370.824C291.791 371.261 292.217 371.48 292.756 371.48ZM300.779 369.4C300.774 369.821 300.841 370.189 300.979 370.504C301.118 370.813 301.318 371.053 301.579 371.224C301.846 371.389 302.166 371.472 302.539 371.472C302.939 371.472 303.289 371.387 303.587 371.216C303.891 371.045 304.102 370.765 304.219 370.376H306.323C306.233 370.963 305.998 371.464 305.619 371.88C305.246 372.296 304.793 372.613 304.259 372.832C303.726 373.051 303.171 373.16 302.595 373.16C301.779 373.16 301.059 372.989 300.435 372.648C299.817 372.301 299.334 371.813 298.987 371.184C298.641 370.555 298.467 369.813 298.467 368.96C298.467 368.133 298.625 367.389 298.939 366.728C299.254 366.061 299.71 365.536 300.307 365.152C300.91 364.763 301.633 364.568 302.475 364.568C303.318 364.568 304.025 364.747 304.595 365.104C305.171 365.456 305.603 365.949 305.891 366.584C306.185 367.213 306.331 367.941 306.331 368.768V369.4H300.779ZM300.771 368.008H304.147C304.147 367.677 304.086 367.373 303.963 367.096C303.841 366.819 303.654 366.6 303.403 366.44C303.158 366.28 302.849 366.2 302.475 366.2C302.113 366.2 301.803 366.288 301.547 366.464C301.297 366.635 301.105 366.859 300.971 367.136C300.838 367.413 300.771 367.704 300.771 368.008Z" fill="white"/>
<rect x="98.25" y="343.25" width="231.5" height="48.5" rx="2.75" stroke="#C73313" stroke-width="2.5"/>
<defs>
<filter id="filter0_d_617_3126" x="77.5" y="820.5" width="279" height="71" filterUnits="userSpaceOnUse" color-interpolation-filters="sRGB">
<feFlood flood-opacity="0" result="BackgroundImageFix"/>
<feColorMatrix in="SourceAlpha" type="matrix" values="0 0 0 0 0 0 0 0 0 0 0 0 0 0 0 0 0 0 127 0" result="hardAlpha"/>
<feOffset dx="3" dy="4"/>
<feGaussianBlur stdDeviation="3.75"/>
<feComposite in2="hardAlpha" operator="out"/>
<feColorMatrix type="matrix" values="0 0 0 0 0.529412 0 0 0 0 0.462745 0 0 0 0 0.341176 0 0 0 0.3 0"/>
<feBlend mode="normal" in2="BackgroundImageFix" result="effect1_dropShadow_617_3126"/>
<feBlend mode="normal" in="SourceGraphic" in2="effect1_dropShadow_617_3126" result="shape"/>
</filter>
<clipPath id="clip0_617_3126">
<rect width="119" height="119" fill="white" transform="translate(155 22)"/>
</clipPath>
</defs>
</svg>
