<svg width="428" height="926" viewBox="0 0 428 926" fill="none" xmlns="http://www.w3.org/2000/svg">
<rect width="428" height="926" fill="#F8F2E9"/>
<g clip-path="url(#clip0_520_2402)">
<path d="M240.646 92.0177C240.549 91.6317 240.501 91.2208 240.501 90.785C240.501 89.1542 241.237 87.7352 242.71 86.5279C244.183 85.3207 247.195 83.8385 251.746 82.0814V80.7351C251.746 79.3192 251.565 78.3047 251.205 77.6916C250.845 77.0785 250.254 76.7719 249.432 76.7719C248.762 76.7719 248.206 76.971 247.764 77.3692C247.321 77.7674 247.1 78.2636 247.1 78.8578C247.1 79.1738 247.113 79.5436 247.138 79.9671C247.163 80.3905 247.176 80.6592 247.176 80.773C247.176 81.6958 246.92 82.4384 246.408 83.001C245.896 83.5636 245.216 83.8448 244.369 83.8448C243.598 83.8448 242.979 83.6015 242.511 83.1148C242.043 82.628 241.809 81.9865 241.809 81.1902C241.809 79.4709 242.625 78.0456 244.256 76.9141C245.886 75.7827 247.985 75.217 250.551 75.217C251.992 75.217 253.297 75.4004 254.467 75.767C255.636 76.1336 256.594 76.6645 257.339 77.3598C257.946 77.9286 258.376 78.5923 258.629 79.3508C258.882 80.1092 259.008 81.2533 259.008 82.783V88.1871C259.008 89.6914 259.125 90.7597 259.359 91.3917C259.593 92.0238 259.969 92.3399 260.487 92.3399C260.601 92.3399 260.715 92.3146 260.828 92.264C260.942 92.2134 261.062 92.1377 261.189 92.0364V93.269C260.683 93.9137 260.029 94.413 259.226 94.767C258.423 95.121 257.535 95.298 256.562 95.298C255.45 95.298 254.517 95.0389 253.765 94.5205C253.013 94.0022 252.46 93.2375 252.106 92.2262C251.145 93.326 250.137 94.1445 249.081 94.6817C248.026 95.2189 246.91 95.4876 245.735 95.4876C244.18 95.4876 242.919 95.0483 241.952 94.1697C241.629 93.8766 241.36 93.5556 241.145 93.2066C240.384 93.8039 239.157 94.4941 238.538 94.767C237.736 95.121 236.848 95.298 235.874 95.298C234.762 95.298 233.829 95.0389 233.077 94.5205C232.325 94.0022 231.772 93.2375 231.418 92.2262C230.457 93.326 229.449 94.1445 228.394 94.6817C227.338 95.2189 226.223 95.4876 225.047 95.4876C223.492 95.4876 222.231 95.0483 221.264 94.1697C220.297 93.2911 219.813 92.1629 219.813 90.785C219.813 89.1542 220.55 87.7352 222.022 86.5279C223.495 85.3207 226.507 83.8385 231.058 82.0814V80.7351C231.058 79.3192 230.878 78.3047 230.517 77.6916C230.157 77.0785 229.566 76.7719 228.744 76.7719C228.075 76.7719 227.518 76.971 227.076 77.3692C226.633 77.7674 226.412 78.2636 226.412 78.8578C226.412 79.1738 226.425 79.5436 226.45 79.9671C226.475 80.3905 226.488 80.6592 226.488 80.773C226.488 81.6958 226.232 82.4384 225.72 83.001C225.208 83.5636 224.529 83.8448 223.682 83.8448C222.91 83.8448 222.291 83.6015 221.823 83.1148C221.356 82.628 221.122 81.9865 221.122 81.1902C221.122 79.4709 221.937 78.0456 223.568 76.9141C225.199 75.7827 227.297 75.217 229.863 75.217C231.304 75.217 232.61 75.4004 233.779 75.767C234.948 76.1336 235.906 76.6645 236.652 77.3598C237.258 77.9286 237.688 78.5923 237.941 79.3508C238.194 80.1092 238.32 81.2533 238.32 82.783V88.1871C238.32 89.6914 238.437 90.7597 238.671 91.3917C238.905 92.0238 239.281 92.3399 239.799 92.3399C239.913 92.3399 240.027 92.3146 240.141 92.264C240.194 92.2404 240.414 92.1343 240.646 92.0177ZM182.778 94.6723L178.246 85.6652V90.8229C178.246 91.8215 178.423 92.5327 178.777 92.9562C179.131 93.3796 179.731 93.5913 180.578 93.5913H180.692V94.6723H168.499V93.5913H168.613C169.448 93.5913 170.045 93.3796 170.405 92.9562C170.765 92.5327 170.946 91.8215 170.946 90.8229V75.2549C170.946 74.6734 170.879 74.2532 170.746 73.9941C170.614 73.7348 170.313 73.4156 169.846 73.0364L167.798 71.3678C168.683 71.1023 169.915 70.6788 171.495 70.0972C173.076 69.5158 175.326 68.6562 178.246 67.5184V84.6222C179.902 83.3454 181.15 82.1919 181.991 81.1616C182.832 80.1314 183.252 79.2371 183.252 78.4786C183.252 78.074 183.097 77.7516 182.787 77.5115C182.478 77.2713 182.051 77.1512 181.507 77.1512H181.394V76.0704H191.254V77.1512H190.932C189.63 77.1512 188.403 77.4925 187.253 78.1751C186.103 78.8578 184.921 79.9449 183.707 81.4367L189.149 90.747C189.743 91.7837 190.319 92.5043 190.875 92.9087C191.429 93.312 192.122 93.5394 192.953 93.5909C193.752 93.5796 194.326 93.3681 194.677 92.9562C195.037 92.5327 195.217 91.8215 195.217 90.8229V82.783C195.217 82.2015 195.154 81.7811 195.027 81.522C194.901 81.2629 194.604 80.95 194.136 80.5833L192.069 78.9147C193.574 78.4343 195.198 77.8718 196.943 77.227C198.687 76.5823 200.545 75.8618 202.518 75.0653V90.8229C202.518 91.7963 202.691 92.4947 203.039 92.9182C203.387 93.3416 203.965 93.5661 204.774 93.5913H204.811C205.645 93.5913 206.243 93.3796 206.603 92.9562C206.963 92.5327 207.143 91.8215 207.143 90.8229V83.6742C207.143 83.0673 207.067 82.6186 206.916 82.3279C206.764 82.0371 206.48 81.7526 206.063 81.4745L203.692 79.8059C204.931 79.376 206.36 78.7851 207.978 78.0329C209.596 77.2807 211.58 76.2916 213.932 75.0653V78.4027C214.564 77.3408 215.25 76.5445 215.989 76.0135C216.729 75.4825 217.522 75.217 218.369 75.217C219.304 75.217 220.057 75.4951 220.625 76.0514C221.194 76.6076 221.479 77.3408 221.479 78.251C221.479 79.0474 221.242 79.6858 220.768 80.1661C220.294 80.6466 219.665 80.8867 218.881 80.8867C218.173 80.8867 217.494 80.6023 216.842 80.0334C216.191 79.4645 215.777 79.1802 215.6 79.1802C215.183 79.1802 214.886 79.4583 214.709 80.0145C214.532 80.5707 214.444 81.563 214.444 82.9916V90.8229C214.444 91.8089 214.643 92.5169 215.041 92.9466C215.439 93.3765 216.093 93.5913 217.004 93.5913H217.117V94.6723H182.778ZM251.746 83.4845C250.608 83.9396 249.742 84.657 249.148 85.6367C248.554 86.6164 248.257 87.8143 248.257 89.2301C248.257 90.0392 248.418 90.6839 248.74 91.1642C249.062 91.6446 249.483 91.8848 250.001 91.8848C250.671 91.8848 251.129 91.6193 251.376 91.0883C251.622 90.5574 251.746 89.2301 251.746 87.1063V83.4845ZM231.058 83.4845C229.92 83.9396 229.054 84.657 228.46 85.6367C227.866 86.6164 227.569 87.8143 227.569 89.2301C227.569 90.0392 227.73 90.6839 228.052 91.1642C228.375 91.6446 228.795 91.8848 229.313 91.8848C229.983 91.8848 230.442 91.6193 230.688 91.0883C230.935 90.5574 231.058 89.2301 231.058 87.1063V83.4845ZM194.705 71.3298C194.705 70.268 195.075 69.3672 195.814 68.6277C196.554 67.8882 197.455 67.5184 198.517 67.5184C199.591 67.5184 200.495 67.8882 201.228 68.6277C201.961 69.3672 202.328 70.268 202.328 71.3298C202.328 72.3917 201.958 73.2923 201.219 74.0319C200.479 74.7714 199.578 75.1412 198.517 75.1412C197.455 75.1412 196.554 74.7746 195.814 74.0414C195.075 73.3082 194.705 72.4043 194.705 71.3298Z" fill="#3E3E3E"/>
</g>
<g filter="url(#filter0_d_520_2402)">
<rect x="82" y="824" width="264" height="56" rx="28" fill="#F8F2E9" shape-rendering="crispEdges"/>
<path d="M121 862V856C121 855.735 120.895 855.48 120.707 855.293C120.52 855.105 120.265 855 120 855H116C115.735 855 115.48 855.105 115.293 855.293C115.105 855.48 115 855.735 115 856V862C115 862.265 114.895 862.52 114.707 862.707C114.52 862.895 114.265 863 114 863H108C107.735 863 107.48 862.895 107.293 862.707C107.105 862.52 107 862.265 107 862V850.437C107.002 850.299 107.032 850.163 107.088 850.036C107.144 849.909 107.224 849.795 107.325 849.7L117.325 840.612C117.509 840.444 117.75 840.35 118 840.35C118.25 840.35 118.491 840.444 118.675 840.612L128.675 849.7C128.776 849.795 128.856 849.909 128.912 850.036C128.968 850.163 128.998 850.299 129 850.437V862C129 862.265 128.895 862.52 128.707 862.707C128.52 862.895 128.265 863 128 863H122C121.735 863 121.48 862.895 121.293 862.707C121.105 862.52 121 862.265 121 862Z" stroke="#4A4A4A" stroke-width="2" stroke-linecap="round" stroke-linejoin="round"/>
<path d="M178 845C178 843.939 178.421 842.922 179.172 842.172C179.922 841.421 180.939 841 182 841C183.061 841 184.078 841.421 184.828 842.172C185.579 842.922 186 843.939 186 845L168.4 858.2C168.232 858.326 168.108 858.501 168.045 858.702C167.983 858.902 167.985 859.117 168.051 859.316C168.118 859.515 168.245 859.689 168.415 859.811C168.586 859.934 168.79 860 169 860H195C195.21 860 195.414 859.934 195.585 859.811C195.755 859.689 195.882 859.515 195.949 859.316C196.015 859.117 196.017 858.902 195.955 858.702C195.892 858.501 195.768 858.326 195.6 858.2L182 848" stroke="#4A4A4A" stroke-width="2" stroke-linecap="round" stroke-linejoin="round"/>
<path d="M246 856C250.418 856 254 852.418 254 848C254 843.582 250.418 840 246 840C241.582 840 238 843.582 238 848C238 852.418 241.582 856 246 856Z" stroke="#4A4A4A" stroke-width="2" stroke-miterlimit="10"/>
<path d="M233.875 863C235.104 860.871 236.871 859.104 238.999 857.875C241.128 856.646 243.542 855.999 246 855.999C248.458 855.999 250.872 856.646 253.001 857.875C255.129 859.104 256.896 860.871 258.125 863" stroke="#4A4A4A" stroke-width="2" stroke-linecap="round" stroke-linejoin="round"/>
<path d="M305.955 841.143L306.938 838.606C307.103 838.176 307.395 837.807 307.774 837.546C308.154 837.285 308.603 837.144 309.063 837.143H310.938C311.398 837.144 311.847 837.285 312.227 837.546C312.606 837.807 312.897 838.176 313.063 838.606L314.046 841.143L317.383 843.063L320.08 842.651C320.529 842.59 320.987 842.664 321.394 842.864C321.801 843.063 322.139 843.379 322.366 843.771L323.28 845.371C323.515 845.77 323.623 846.23 323.59 846.691C323.557 847.152 323.386 847.593 323.098 847.954L321.429 850.08V853.92L323.143 856.046C323.431 856.407 323.603 856.848 323.636 857.309C323.668 857.77 323.56 858.23 323.326 858.629L322.412 860.229C322.185 860.621 321.846 860.937 321.439 861.136C321.032 861.336 320.575 861.409 320.126 861.349L317.429 860.937L314.092 862.857L313.109 865.394C312.943 865.824 312.652 866.193 312.272 866.454C311.893 866.715 311.444 866.856 310.983 866.857H309.063C308.603 866.856 308.154 866.715 307.774 866.454C307.395 866.193 307.103 865.824 306.938 865.394L305.955 862.857L302.618 860.937L299.92 861.349C299.471 861.409 299.014 861.336 298.607 861.136C298.2 860.937 297.862 860.621 297.635 860.229L296.72 858.629C296.486 858.23 296.378 857.77 296.411 857.309C296.443 856.848 296.615 856.407 296.903 856.046L298.572 853.92V850.08L296.858 847.954C296.569 847.593 296.398 847.152 296.365 846.691C296.332 846.23 296.44 845.77 296.675 845.371L297.589 843.771C297.816 843.379 298.154 843.063 298.561 842.864C298.968 842.664 299.426 842.59 299.875 842.651L302.572 843.063L305.955 841.143ZM305.429 852C305.429 852.904 305.697 853.788 306.199 854.54C306.702 855.291 307.416 855.877 308.251 856.223C309.086 856.569 310.005 856.66 310.892 856.484C311.779 856.307 312.594 855.872 313.233 855.232C313.872 854.593 314.308 853.779 314.484 852.892C314.66 852.005 314.57 851.086 314.224 850.251C313.878 849.415 313.292 848.701 312.54 848.199C311.788 847.697 310.905 847.429 310 847.429C308.788 847.429 307.625 847.91 306.768 848.767C305.911 849.625 305.429 850.788 305.429 852Z" fill="#3E3E3E"/>
</g>
<path d="M381 116H359C358.448 116 358 116.448 358 117V135C358 135.552 358.448 136 359 136H381C381.552 136 382 135.552 382 135V117C382 116.448 381.552 116 381 116Z" stroke="#3E3E3E" stroke-width="2" stroke-linecap="round" stroke-linejoin="round"/>
<path d="M375 121C375 122.326 374.473 123.598 373.536 124.536C372.598 125.473 371.326 126 370 126C368.674 126 367.402 125.473 366.464 124.536C365.527 123.598 365 122.326 365 121" stroke="#3E3E3E" stroke-width="2" stroke-linecap="round" stroke-linejoin="round"/>
<path d="M56.6188 195.238L51 189.619L56.6188 184" stroke="#3E3E3E" stroke-width="2.65192" stroke-linecap="round" stroke-linejoin="round"/>
<path d="M51 189.619H64.2596" stroke="#3E3E3E" stroke-width="2.65192" stroke-linecap="round" stroke-linejoin="round"/>
<path d="M142.62 207.54C142.693 207.54 142.897 207.54 143.23 207.54C143.57 207.54 143.967 207.54 144.42 207.54C144.88 207.54 145.337 207.543 145.79 207.55C146.25 207.55 146.633 207.553 146.94 207.56C148.693 207.6 150.123 207.913 151.23 208.5C152.337 209.087 153.147 209.907 153.66 210.96C154.18 212.013 154.44 213.26 154.44 214.7C154.44 216.2 154.167 217.497 153.62 218.59C153.073 219.677 152.237 220.517 151.11 221.11C149.99 221.703 148.567 222 146.84 222H142.62V207.54ZM145.56 209.9V219.64H146.9C147.727 219.64 148.477 219.48 149.15 219.16C149.83 218.84 150.373 218.317 150.78 217.59C151.187 216.863 151.39 215.893 151.39 214.68C151.39 213.553 151.21 212.64 150.85 211.94C150.49 211.233 149.977 210.717 149.31 210.39C148.643 210.063 147.853 209.9 146.94 209.9H145.56ZM159.045 217.5C159.038 218.027 159.121 218.487 159.295 218.88C159.468 219.267 159.718 219.567 160.045 219.78C160.378 219.987 160.778 220.09 161.245 220.09C161.745 220.09 162.181 219.983 162.555 219.77C162.935 219.557 163.198 219.207 163.345 218.72H165.975C165.861 219.453 165.568 220.08 165.095 220.6C164.628 221.12 164.061 221.517 163.395 221.79C162.728 222.063 162.035 222.2 161.315 222.2C160.295 222.2 159.395 221.987 158.615 221.56C157.841 221.127 157.238 220.517 156.805 219.73C156.371 218.943 156.155 218.017 156.155 216.95C156.155 215.917 156.351 214.987 156.745 214.16C157.138 213.327 157.708 212.67 158.455 212.19C159.208 211.703 160.111 211.46 161.165 211.46C162.218 211.46 163.101 211.683 163.815 212.13C164.535 212.57 165.075 213.187 165.435 213.98C165.801 214.767 165.985 215.677 165.985 216.71V217.5H159.045ZM159.035 215.76H163.255C163.255 215.347 163.178 214.967 163.025 214.62C162.871 214.273 162.638 214 162.325 213.8C162.018 213.6 161.631 213.5 161.165 213.5C160.711 213.5 160.325 213.61 160.005 213.83C159.691 214.043 159.451 214.323 159.285 214.67C159.118 215.017 159.035 215.38 159.035 215.76ZM171.312 222.18C170.552 222.18 169.948 222.09 169.502 221.91C169.055 221.73 168.725 221.493 168.512 221.2C168.298 220.9 168.162 220.57 168.102 220.21C168.042 219.843 168.012 219.473 168.012 219.1V207.14H170.872V218.74C170.872 219.12 170.952 219.43 171.112 219.67C171.278 219.903 171.588 220.047 172.042 220.1L172.532 220.13V221.93C172.332 221.997 172.128 222.053 171.922 222.1C171.715 222.153 171.512 222.18 171.312 222.18ZM176.798 217.5C176.792 218.027 176.875 218.487 177.048 218.88C177.222 219.267 177.472 219.567 177.798 219.78C178.132 219.987 178.532 220.09 178.998 220.09C179.498 220.09 179.935 219.983 180.308 219.77C180.688 219.557 180.952 219.207 181.098 218.72H183.728C183.615 219.453 183.322 220.08 182.848 220.6C182.382 221.12 181.815 221.517 181.148 221.79C180.482 222.063 179.788 222.2 179.068 222.2C178.048 222.2 177.148 221.987 176.368 221.56C175.595 221.127 174.992 220.517 174.558 219.73C174.125 218.943 173.908 218.017 173.908 216.95C173.908 215.917 174.105 214.987 174.498 214.16C174.892 213.327 175.462 212.67 176.208 212.19C176.962 211.703 177.865 211.46 178.918 211.46C179.972 211.46 180.855 211.683 181.568 212.13C182.288 212.57 182.828 213.187 183.188 213.98C183.555 214.767 183.738 215.677 183.738 216.71V217.5H176.798ZM176.788 215.76H181.008C181.008 215.347 180.932 214.967 180.778 214.62C180.625 214.273 180.392 214 180.078 213.8C179.772 213.6 179.385 213.5 178.918 213.5C178.465 213.5 178.078 213.61 177.758 213.83C177.445 214.043 177.205 214.323 177.038 214.67C176.872 215.017 176.788 215.38 176.788 215.76ZM191.734 213.69H189.434L189.454 219.2C189.454 219.453 189.484 219.643 189.544 219.77C189.61 219.89 189.71 219.97 189.844 220.01C189.984 220.043 190.16 220.06 190.374 220.06H191.764V221.86C191.63 221.92 191.42 221.977 191.134 222.03C190.854 222.083 190.46 222.11 189.954 222.11C189.047 222.11 188.344 221.993 187.844 221.76C187.35 221.527 187.007 221.2 186.814 220.78C186.62 220.36 186.524 219.873 186.524 219.32V213.69H184.844V211.66H186.624L187.354 208.54H189.434V211.65H191.734V213.69ZM195.959 217.5C195.952 218.027 196.035 218.487 196.209 218.88C196.382 219.267 196.632 219.567 196.959 219.78C197.292 219.987 197.692 220.09 198.159 220.09C198.659 220.09 199.095 219.983 199.469 219.77C199.849 219.557 200.112 219.207 200.259 218.72H202.889C202.775 219.453 202.482 220.08 202.009 220.6C201.542 221.12 200.975 221.517 200.309 221.79C199.642 222.063 198.949 222.2 198.229 222.2C197.209 222.2 196.309 221.987 195.529 221.56C194.755 221.127 194.152 220.517 193.719 219.73C193.285 218.943 193.069 218.017 193.069 216.95C193.069 215.917 193.265 214.987 193.659 214.16C194.052 213.327 194.622 212.67 195.369 212.19C196.122 211.703 197.025 211.46 198.079 211.46C199.132 211.46 200.015 211.683 200.729 212.13C201.449 212.57 201.989 213.187 202.349 213.98C202.715 214.767 202.899 215.677 202.899 216.71V217.5H195.959ZM195.949 215.76H200.169C200.169 215.347 200.092 214.967 199.939 214.62C199.785 214.273 199.552 214 199.239 213.8C198.932 213.6 198.545 213.5 198.079 213.5C197.625 213.5 197.239 213.61 196.919 213.83C196.605 214.043 196.365 214.323 196.199 214.67C196.032 215.017 195.949 215.38 195.949 215.76ZM208.405 222L213.585 207.54H216.665L221.835 222H218.925L217.745 218.65H212.545L211.335 222H208.405ZM213.195 216.1H217.045L215.135 210.36L213.195 216.1ZM227.735 211.46C228.601 211.46 229.348 211.637 229.975 211.99C230.608 212.343 231.105 212.82 231.465 213.42C231.831 214.02 232.041 214.69 232.095 215.43H229.665C229.618 215.157 229.521 214.887 229.375 214.62C229.228 214.347 229.021 214.123 228.755 213.95C228.488 213.77 228.155 213.68 227.755 213.68C227.075 213.68 226.521 213.943 226.095 214.47C225.675 214.99 225.465 215.783 225.465 216.85C225.465 217.857 225.671 218.657 226.085 219.25C226.498 219.837 227.075 220.13 227.815 220.13C228.208 220.13 228.535 220.033 228.795 219.84C229.061 219.647 229.268 219.417 229.415 219.15C229.561 218.877 229.655 218.623 229.695 218.39H232.065C232.018 219.103 231.811 219.75 231.445 220.33C231.078 220.903 230.578 221.36 229.945 221.7C229.318 222.033 228.581 222.2 227.735 222.2C226.775 222.2 225.918 221.987 225.165 221.56C224.411 221.133 223.818 220.523 223.385 219.73C222.958 218.93 222.745 217.977 222.745 216.87C222.745 215.803 222.951 214.863 223.365 214.05C223.778 213.237 224.358 212.603 225.105 212.15C225.858 211.69 226.735 211.46 227.735 211.46ZM238.535 211.46C239.402 211.46 240.149 211.637 240.775 211.99C241.409 212.343 241.905 212.82 242.265 213.42C242.632 214.02 242.842 214.69 242.895 215.43H240.465C240.419 215.157 240.322 214.887 240.175 214.62C240.029 214.347 239.822 214.123 239.555 213.95C239.289 213.77 238.955 213.68 238.555 213.68C237.875 213.68 237.322 213.943 236.895 214.47C236.475 214.99 236.265 215.783 236.265 216.85C236.265 217.857 236.472 218.657 236.885 219.25C237.299 219.837 237.875 220.13 238.615 220.13C239.009 220.13 239.335 220.033 239.595 219.84C239.862 219.647 240.069 219.417 240.215 219.15C240.362 218.877 240.455 218.623 240.495 218.39H242.865C242.819 219.103 242.612 219.75 242.245 220.33C241.879 220.903 241.379 221.36 240.745 221.7C240.119 222.033 239.382 222.2 238.535 222.2C237.575 222.2 236.719 221.987 235.965 221.56C235.212 221.133 234.619 220.523 234.185 219.73C233.759 218.93 233.545 217.977 233.545 216.87C233.545 215.803 233.752 214.863 234.165 214.05C234.579 213.237 235.159 212.603 235.905 212.15C236.659 211.69 237.535 211.46 238.535 211.46ZM249.346 222.2C248.333 222.2 247.45 221.983 246.696 221.55C245.95 221.117 245.37 220.503 244.956 219.71C244.55 218.917 244.346 217.977 244.346 216.89C244.346 215.803 244.55 214.853 244.956 214.04C245.37 213.227 245.95 212.593 246.696 212.14C247.45 211.687 248.336 211.46 249.356 211.46C250.376 211.46 251.26 211.683 252.006 212.13C252.753 212.57 253.33 213.197 253.736 214.01C254.143 214.823 254.346 215.783 254.346 216.89C254.346 217.93 254.146 218.85 253.746 219.65C253.353 220.443 252.783 221.067 252.036 221.52C251.296 221.973 250.4 222.2 249.346 222.2ZM249.356 220.03C249.87 220.03 250.283 219.88 250.596 219.58C250.91 219.28 251.136 218.887 251.276 218.4C251.423 217.907 251.496 217.37 251.496 216.79C251.496 216.243 251.43 215.727 251.296 215.24C251.17 214.753 250.95 214.36 250.636 214.06C250.323 213.76 249.896 213.61 249.356 213.61C248.843 213.61 248.426 213.753 248.106 214.04C247.793 214.32 247.563 214.703 247.416 215.19C247.27 215.67 247.196 216.203 247.196 216.79C247.196 217.33 247.263 217.85 247.396 218.35C247.53 218.843 247.753 219.247 248.066 219.56C248.38 219.873 248.81 220.03 249.356 220.03ZM259.986 222.2C259.506 222.2 259.032 222.127 258.566 221.98C258.106 221.833 257.686 221.617 257.306 221.33C256.926 221.043 256.619 220.69 256.386 220.27C256.159 219.85 256.046 219.363 256.046 218.81V211.66H258.966V218.44C258.966 218.92 259.122 219.313 259.436 219.62C259.749 219.927 260.209 220.08 260.816 220.08C261.389 220.08 261.842 219.933 262.176 219.64C262.516 219.34 262.686 218.923 262.686 218.39V211.66H265.576V222H263.376L263.036 219.95C262.916 220.557 262.689 221.023 262.356 221.35C262.029 221.67 261.652 221.89 261.226 222.01C260.806 222.137 260.392 222.2 259.986 222.2ZM268.012 222V211.66H270.882V213.12C271.042 212.867 271.248 212.623 271.502 212.39C271.762 212.15 272.088 211.953 272.482 211.8C272.875 211.647 273.342 211.57 273.882 211.57C274.515 211.57 275.105 211.693 275.652 211.94C276.205 212.187 276.652 212.577 276.992 213.11C277.332 213.637 277.502 214.327 277.502 215.18V222H274.582V215.54C274.582 214.98 274.415 214.56 274.082 214.28C273.748 214 273.342 213.86 272.862 213.86C272.542 213.86 272.232 213.917 271.932 214.03C271.638 214.143 271.398 214.313 271.212 214.54C271.025 214.767 270.932 215.047 270.932 215.38V222H268.012ZM285.718 213.69H283.418L283.438 219.2C283.438 219.453 283.468 219.643 283.528 219.77C283.595 219.89 283.695 219.97 283.828 220.01C283.968 220.043 284.145 220.06 284.358 220.06H285.748V221.86C285.615 221.92 285.405 221.977 285.118 222.03C284.838 222.083 284.445 222.11 283.938 222.11C283.031 222.11 282.328 221.993 281.828 221.76C281.335 221.527 280.991 221.2 280.798 220.78C280.605 220.36 280.508 219.873 280.508 219.32V213.69H278.828V211.66H280.608L281.338 208.54H283.418V211.65H285.718V213.69Z" fill="#4A4A4A"/>
<path d="M130.056 286.432L126.656 298H125.016L122.68 289.8L120.312 298H118.712L115.336 286.432H117.256L119.6 294.784L121.952 286.432H123.408L125.776 294.784L128.128 286.432H130.056ZM132.241 294.312C132.236 294.781 132.311 295.197 132.465 295.56C132.62 295.923 132.849 296.208 133.153 296.416C133.457 296.619 133.833 296.72 134.281 296.72C134.74 296.72 135.137 296.619 135.473 296.416C135.815 296.208 136.041 295.893 136.153 295.472H137.937C137.841 296.048 137.612 296.536 137.249 296.936C136.887 297.336 136.447 297.64 135.929 297.848C135.417 298.056 134.884 298.16 134.329 298.16C133.529 298.16 132.825 297.992 132.217 297.656C131.615 297.315 131.143 296.829 130.801 296.2C130.465 295.571 130.297 294.821 130.297 293.952C130.297 293.104 130.452 292.352 130.761 291.696C131.071 291.035 131.516 290.515 132.097 290.136C132.684 289.757 133.388 289.568 134.209 289.568C135.025 289.568 135.711 289.741 136.265 290.088C136.825 290.435 137.247 290.92 137.529 291.544C137.817 292.163 137.961 292.888 137.961 293.72V294.312H132.241ZM132.241 293.104H136.121C136.121 292.704 136.052 292.344 135.913 292.024C135.775 291.699 135.561 291.443 135.273 291.256C134.991 291.064 134.633 290.968 134.201 290.968C133.775 290.968 133.415 291.072 133.121 291.28C132.828 291.488 132.607 291.757 132.457 292.088C132.308 292.413 132.236 292.752 132.241 293.104ZM138.847 290.6L139.751 288.512L138.999 288.456V286.432H141.127V288.208L139.631 290.6H138.847ZM142.76 298V289.728H144.624V291.52C144.758 291.109 144.947 290.76 145.192 290.472C145.443 290.179 145.736 289.955 146.072 289.8C146.408 289.645 146.774 289.568 147.168 289.568C147.264 289.568 147.358 289.573 147.448 289.584C147.539 289.595 147.606 289.613 147.648 289.64V291.504C147.59 291.477 147.512 291.459 147.416 291.448C147.326 291.437 147.246 291.432 147.176 291.432C146.776 291.4 146.422 291.416 146.112 291.48C145.808 291.544 145.55 291.653 145.336 291.808C145.128 291.957 144.971 292.149 144.864 292.384C144.758 292.613 144.704 292.883 144.704 293.192V298H142.76ZM150.57 294.312C150.564 294.781 150.639 295.197 150.794 295.56C150.948 295.923 151.178 296.208 151.482 296.416C151.786 296.619 152.162 296.72 152.61 296.72C153.068 296.72 153.466 296.619 153.802 296.416C154.143 296.208 154.37 295.893 154.482 295.472H156.266C156.17 296.048 155.94 296.536 155.578 296.936C155.215 297.336 154.775 297.64 154.258 297.848C153.746 298.056 153.212 298.16 152.658 298.16C151.858 298.16 151.154 297.992 150.546 297.656C149.943 297.315 149.471 296.829 149.13 296.2C148.794 295.571 148.626 294.821 148.626 293.952C148.626 293.104 148.78 292.352 149.09 291.696C149.399 291.035 149.844 290.515 150.426 290.136C151.012 289.757 151.716 289.568 152.538 289.568C153.354 289.568 154.039 289.741 154.594 290.088C155.154 290.435 155.575 290.92 155.858 291.544C156.146 292.163 156.29 292.888 156.29 293.72V294.312H150.57ZM150.57 293.104H154.45C154.45 292.704 154.38 292.344 154.242 292.024C154.103 291.699 153.89 291.443 153.602 291.256C153.319 291.064 152.962 290.968 152.53 290.968C152.103 290.968 151.743 291.072 151.45 291.28C151.156 291.488 150.935 291.757 150.786 292.088C150.636 292.413 150.564 292.752 150.57 293.104ZM164.669 298.16C164.093 298.16 163.546 298.069 163.029 297.888C162.517 297.701 162.085 297.411 161.733 297.016C161.386 296.621 161.168 296.112 161.077 295.488H162.789C162.864 295.792 162.994 296.04 163.181 296.232C163.373 296.424 163.6 296.565 163.861 296.656C164.122 296.741 164.389 296.784 164.661 296.784C165.157 296.784 165.557 296.699 165.861 296.528C166.17 296.357 166.325 296.093 166.325 295.736C166.325 295.475 166.24 295.267 166.069 295.112C165.898 294.957 165.626 294.84 165.253 294.76L163.677 294.4C162.978 294.245 162.416 293.989 161.989 293.632C161.568 293.275 161.354 292.771 161.349 292.12C161.344 291.629 161.466 291.192 161.717 290.808C161.968 290.424 162.341 290.123 162.837 289.904C163.333 289.68 163.946 289.568 164.677 289.568C165.642 289.568 166.416 289.784 166.997 290.216C167.578 290.643 167.877 291.253 167.893 292.048H166.237C166.178 291.691 166.01 291.413 165.733 291.216C165.456 291.013 165.096 290.912 164.653 290.912C164.194 290.912 163.818 291 163.525 291.176C163.232 291.352 163.085 291.621 163.085 291.984C163.085 292.235 163.197 292.432 163.421 292.576C163.645 292.72 163.981 292.843 164.429 292.944L165.917 293.304C166.344 293.411 166.693 293.555 166.965 293.736C167.237 293.917 167.45 294.117 167.605 294.336C167.76 294.549 167.866 294.771 167.925 295C167.989 295.224 168.021 295.432 168.021 295.624C168.021 296.157 167.882 296.613 167.605 296.992C167.333 297.365 166.946 297.653 166.445 297.856C165.944 298.059 165.352 298.16 164.669 298.16ZM173.286 298.16C172.497 298.16 171.809 297.992 171.222 297.656C170.635 297.315 170.179 296.827 169.854 296.192C169.534 295.557 169.374 294.795 169.374 293.904C169.374 293.04 169.529 292.283 169.838 291.632C170.153 290.981 170.603 290.475 171.19 290.112C171.777 289.749 172.478 289.568 173.294 289.568C174.083 289.568 174.769 289.741 175.35 290.088C175.931 290.435 176.379 290.931 176.694 291.576C177.014 292.221 177.174 292.997 177.174 293.904C177.174 294.741 177.022 295.48 176.718 296.12C176.419 296.755 175.979 297.253 175.398 297.616C174.822 297.979 174.118 298.16 173.286 298.16ZM173.294 296.68C173.742 296.68 174.11 296.557 174.398 296.312C174.691 296.067 174.907 295.731 175.046 295.304C175.19 294.877 175.262 294.392 175.262 293.848C175.262 293.341 175.198 292.875 175.07 292.448C174.947 292.021 174.739 291.68 174.446 291.424C174.158 291.163 173.774 291.032 173.294 291.032C172.841 291.032 172.465 291.152 172.166 291.392C171.873 291.627 171.651 291.957 171.502 292.384C171.358 292.805 171.286 293.293 171.286 293.848C171.286 294.349 171.35 294.816 171.478 295.248C171.611 295.675 171.825 296.021 172.118 296.288C172.411 296.549 172.803 296.68 173.294 296.68ZM178.901 298V289.728H180.765V291.52C180.898 291.109 181.088 290.76 181.333 290.472C181.584 290.179 181.877 289.955 182.213 289.8C182.549 289.645 182.914 289.568 183.309 289.568C183.405 289.568 183.498 289.573 183.589 289.584C183.68 289.595 183.746 289.613 183.789 289.64V291.504C183.73 291.477 183.653 291.459 183.557 291.448C183.466 291.437 183.386 291.432 183.317 291.432C182.917 291.4 182.562 291.416 182.253 291.48C181.949 291.544 181.69 291.653 181.477 291.808C181.269 291.957 181.112 292.149 181.005 292.384C180.898 292.613 180.845 292.883 180.845 293.192V298H178.901ZM185.276 298V289.728H187.14V291.52C187.273 291.109 187.463 290.76 187.708 290.472C187.959 290.179 188.252 289.955 188.588 289.8C188.924 289.645 189.289 289.568 189.684 289.568C189.78 289.568 189.873 289.573 189.964 289.584C190.055 289.595 190.121 289.613 190.164 289.64V291.504C190.105 291.477 190.028 291.459 189.932 291.448C189.841 291.437 189.761 291.432 189.692 291.432C189.292 291.4 188.937 291.416 188.628 291.48C188.324 291.544 188.065 291.653 187.852 291.808C187.644 291.957 187.487 292.149 187.38 292.384C187.273 292.613 187.22 292.883 187.22 293.192V298H185.276ZM193.082 300.64C192.554 300.64 192.184 300.597 191.97 300.512C191.762 300.432 191.658 300.392 191.658 300.392V299.144L192.49 299.168C192.826 299.184 193.098 299.165 193.306 299.112C193.52 299.059 193.685 298.984 193.802 298.888C193.92 298.797 194.005 298.699 194.058 298.592C194.117 298.491 194.162 298.403 194.194 298.328L194.41 297.72L191.186 289.728H193.13L195.322 295.576L197.514 289.728H199.418L196.01 298.304C195.754 298.928 195.477 299.408 195.178 299.744C194.885 300.085 194.562 300.32 194.21 300.448C193.864 300.576 193.488 300.64 193.082 300.64ZM208.886 291.104H207.038L207.046 295.848C207.046 296.093 207.073 296.275 207.126 296.392C207.185 296.504 207.275 296.579 207.398 296.616C207.526 296.648 207.697 296.664 207.91 296.664H208.926V297.896C208.819 297.939 208.657 297.976 208.438 298.008C208.225 298.045 207.937 298.064 207.574 298.064C206.918 298.064 206.409 297.979 206.046 297.808C205.689 297.632 205.441 297.384 205.302 297.064C205.163 296.744 205.094 296.363 205.094 295.92V291.104H203.75V289.728H205.15L205.638 287.272H207.038V289.72H208.886V291.104ZM213.989 298.16C213.2 298.16 212.512 297.992 211.925 297.656C211.338 297.315 210.882 296.827 210.557 296.192C210.237 295.557 210.077 294.795 210.077 293.904C210.077 293.04 210.232 292.283 210.541 291.632C210.856 290.981 211.306 290.475 211.893 290.112C212.48 289.749 213.181 289.568 213.997 289.568C214.786 289.568 215.472 289.741 216.053 290.088C216.634 290.435 217.082 290.931 217.397 291.576C217.717 292.221 217.877 292.997 217.877 293.904C217.877 294.741 217.725 295.48 217.421 296.12C217.122 296.755 216.682 297.253 216.101 297.616C215.525 297.979 214.821 298.16 213.989 298.16ZM213.997 296.68C214.445 296.68 214.813 296.557 215.101 296.312C215.394 296.067 215.61 295.731 215.749 295.304C215.893 294.877 215.965 294.392 215.965 293.848C215.965 293.341 215.901 292.875 215.773 292.448C215.65 292.021 215.442 291.68 215.149 291.424C214.861 291.163 214.477 291.032 213.997 291.032C213.544 291.032 213.168 291.152 212.869 291.392C212.576 291.627 212.354 291.957 212.205 292.384C212.061 292.805 211.989 293.293 211.989 293.848C211.989 294.349 212.053 294.816 212.181 295.248C212.314 295.675 212.528 296.021 212.821 296.288C213.114 296.549 213.506 296.68 213.997 296.68ZM226.169 298.16C225.593 298.16 225.046 298.069 224.529 297.888C224.017 297.701 223.585 297.411 223.233 297.016C222.886 296.621 222.668 296.112 222.577 295.488H224.289C224.364 295.792 224.494 296.04 224.681 296.232C224.873 296.424 225.1 296.565 225.361 296.656C225.622 296.741 225.889 296.784 226.161 296.784C226.657 296.784 227.057 296.699 227.361 296.528C227.67 296.357 227.825 296.093 227.825 295.736C227.825 295.475 227.74 295.267 227.569 295.112C227.398 294.957 227.126 294.84 226.753 294.76L225.177 294.4C224.478 294.245 223.916 293.989 223.489 293.632C223.068 293.275 222.854 292.771 222.849 292.12C222.844 291.629 222.966 291.192 223.217 290.808C223.468 290.424 223.841 290.123 224.337 289.904C224.833 289.68 225.446 289.568 226.177 289.568C227.142 289.568 227.916 289.784 228.497 290.216C229.078 290.643 229.377 291.253 229.393 292.048H227.737C227.678 291.691 227.51 291.413 227.233 291.216C226.956 291.013 226.596 290.912 226.153 290.912C225.694 290.912 225.318 291 225.025 291.176C224.732 291.352 224.585 291.621 224.585 291.984C224.585 292.235 224.697 292.432 224.921 292.576C225.145 292.72 225.481 292.843 225.929 292.944L227.417 293.304C227.844 293.411 228.193 293.555 228.465 293.736C228.737 293.917 228.95 294.117 229.105 294.336C229.26 294.549 229.366 294.771 229.425 295C229.489 295.224 229.521 295.432 229.521 295.624C229.521 296.157 229.382 296.613 229.105 296.992C228.833 297.365 228.446 297.653 227.945 297.856C227.444 298.059 226.852 298.16 226.169 298.16ZM232.882 294.312C232.877 294.781 232.951 295.197 233.106 295.56C233.261 295.923 233.49 296.208 233.794 296.416C234.098 296.619 234.474 296.72 234.922 296.72C235.381 296.72 235.778 296.619 236.114 296.416C236.455 296.208 236.682 295.893 236.794 295.472H238.578C238.482 296.048 238.253 296.536 237.89 296.936C237.527 297.336 237.087 297.64 236.57 297.848C236.058 298.056 235.525 298.16 234.97 298.16C234.17 298.16 233.466 297.992 232.858 297.656C232.255 297.315 231.783 296.829 231.442 296.2C231.106 295.571 230.938 294.821 230.938 293.952C230.938 293.104 231.093 292.352 231.402 291.696C231.711 291.035 232.157 290.515 232.738 290.136C233.325 289.757 234.029 289.568 234.85 289.568C235.666 289.568 236.351 289.741 236.906 290.088C237.466 290.435 237.887 290.92 238.17 291.544C238.458 292.163 238.602 292.888 238.602 293.72V294.312H232.882ZM232.882 293.104H236.762C236.762 292.704 236.693 292.344 236.554 292.024C236.415 291.699 236.202 291.443 235.914 291.256C235.631 291.064 235.274 290.968 234.842 290.968C234.415 290.968 234.055 291.072 233.762 291.28C233.469 291.488 233.247 291.757 233.098 292.088C232.949 292.413 232.877 292.752 232.882 293.104ZM241.945 294.312C241.939 294.781 242.014 295.197 242.169 295.56C242.323 295.923 242.553 296.208 242.857 296.416C243.161 296.619 243.537 296.72 243.985 296.72C244.443 296.72 244.841 296.619 245.177 296.416C245.518 296.208 245.745 295.893 245.857 295.472H247.641C247.545 296.048 247.315 296.536 246.953 296.936C246.59 297.336 246.15 297.64 245.633 297.848C245.121 298.056 244.587 298.16 244.033 298.16C243.233 298.16 242.529 297.992 241.921 297.656C241.318 297.315 240.846 296.829 240.505 296.2C240.169 295.571 240.001 294.821 240.001 293.952C240.001 293.104 240.155 292.352 240.465 291.696C240.774 291.035 241.219 290.515 241.801 290.136C242.387 289.757 243.091 289.568 243.913 289.568C244.729 289.568 245.414 289.741 245.969 290.088C246.529 290.435 246.95 290.92 247.233 291.544C247.521 292.163 247.665 292.888 247.665 293.72V294.312H241.945ZM241.945 293.104H245.825C245.825 292.704 245.755 292.344 245.617 292.024C245.478 291.699 245.265 291.443 244.977 291.256C244.694 291.064 244.337 290.968 243.905 290.968C243.478 290.968 243.118 291.072 242.825 291.28C242.531 291.488 242.31 291.757 242.161 292.088C242.011 292.413 241.939 292.752 241.945 293.104ZM253.926 300.64C253.398 300.64 253.027 300.597 252.814 300.512C252.606 300.432 252.502 300.392 252.502 300.392V299.144L253.334 299.168C253.67 299.184 253.942 299.165 254.15 299.112C254.363 299.059 254.529 298.984 254.646 298.888C254.763 298.797 254.849 298.699 254.902 298.592C254.961 298.491 255.006 298.403 255.038 298.328L255.254 297.72L252.03 289.728H253.974L256.166 295.576L258.358 289.728H260.262L256.854 298.304C256.598 298.928 256.321 299.408 256.022 299.744C255.729 300.085 255.406 300.32 255.054 300.448C254.707 300.576 254.331 300.64 253.926 300.64ZM264.77 298.16C263.981 298.16 263.293 297.992 262.706 297.656C262.12 297.315 261.664 296.827 261.338 296.192C261.018 295.557 260.858 294.795 260.858 293.904C260.858 293.04 261.013 292.283 261.322 291.632C261.637 290.981 262.088 290.475 262.674 290.112C263.261 289.749 263.962 289.568 264.778 289.568C265.568 289.568 266.253 289.741 266.834 290.088C267.416 290.435 267.864 290.931 268.178 291.576C268.498 292.221 268.658 292.997 268.658 293.904C268.658 294.741 268.506 295.48 268.202 296.12C267.904 296.755 267.464 297.253 266.882 297.616C266.306 297.979 265.602 298.16 264.77 298.16ZM264.778 296.68C265.226 296.68 265.594 296.557 265.882 296.312C266.176 296.067 266.392 295.731 266.53 295.304C266.674 294.877 266.746 294.392 266.746 293.848C266.746 293.341 266.682 292.875 266.554 292.448C266.432 292.021 266.224 291.68 265.93 291.424C265.642 291.163 265.258 291.032 264.778 291.032C264.325 291.032 263.949 291.152 263.65 291.392C263.357 291.627 263.136 291.957 262.986 292.384C262.842 292.805 262.77 293.293 262.77 293.848C262.77 294.349 262.834 294.816 262.962 295.248C263.096 295.675 263.309 296.021 263.602 296.288C263.896 296.549 264.288 296.68 264.778 296.68ZM273.316 298.16C272.911 298.16 272.519 298.101 272.14 297.984C271.767 297.861 271.431 297.685 271.132 297.456C270.833 297.221 270.596 296.933 270.42 296.592C270.244 296.251 270.156 295.853 270.156 295.4V289.728H272.108V295.176C272.108 295.624 272.249 295.992 272.532 296.28C272.82 296.568 273.252 296.712 273.828 296.712C274.351 296.712 274.769 296.576 275.084 296.304C275.399 296.027 275.556 295.629 275.556 295.112V289.728H277.492V298H275.996L275.78 296.384C275.679 296.837 275.5 297.195 275.244 297.456C274.993 297.712 274.697 297.893 274.356 298C274.02 298.107 273.673 298.16 273.316 298.16ZM286.776 300.736C285.384 300.736 284.315 300.549 283.568 300.176C282.821 299.803 282.448 299.291 282.448 298.64C282.448 298.347 282.52 298.101 282.664 297.904C282.808 297.707 282.979 297.544 283.176 297.416C283.373 297.288 283.555 297.189 283.72 297.12C283.885 297.051 283.992 297 284.04 296.968C283.949 296.915 283.829 296.845 283.68 296.76C283.531 296.675 283.395 296.557 283.272 296.408C283.155 296.259 283.096 296.064 283.096 295.824C283.096 295.547 283.227 295.291 283.488 295.056C283.755 294.821 284.152 294.653 284.68 294.552C284.163 294.301 283.765 293.963 283.488 293.536C283.211 293.109 283.072 292.667 283.072 292.208C283.072 291.664 283.229 291.197 283.544 290.808C283.864 290.419 284.307 290.12 284.872 289.912C285.443 289.704 286.101 289.6 286.848 289.6C287.403 289.6 287.861 289.661 288.224 289.784C288.587 289.907 288.925 290.072 289.24 290.28C289.347 290.237 289.496 290.179 289.688 290.104C289.885 290.024 290.099 289.939 290.328 289.848C290.557 289.752 290.776 289.661 290.984 289.576C291.197 289.485 291.379 289.411 291.528 289.352L291.512 290.96L290.08 291.216C290.149 291.371 290.203 291.539 290.24 291.72C290.283 291.901 290.304 292.061 290.304 292.2C290.304 292.68 290.168 293.125 289.896 293.536C289.629 293.941 289.227 294.267 288.688 294.512C288.155 294.757 287.488 294.88 286.688 294.88C286.608 294.88 286.499 294.877 286.36 294.872C286.221 294.867 286.109 294.861 286.024 294.856C285.592 294.872 285.296 294.923 285.136 295.008C284.976 295.093 284.896 295.187 284.896 295.288C284.896 295.432 285.016 295.528 285.256 295.576C285.496 295.624 285.88 295.667 286.408 295.704C286.595 295.715 286.84 295.728 287.144 295.744C287.448 295.76 287.787 295.781 288.16 295.808C289.104 295.867 289.819 296.104 290.304 296.52C290.789 296.931 291.032 297.464 291.032 298.12C291.032 298.883 290.68 299.509 289.976 300C289.272 300.491 288.205 300.736 286.776 300.736ZM287.104 299.592C287.803 299.592 288.32 299.496 288.656 299.304C288.992 299.112 289.16 298.829 289.16 298.456C289.16 298.168 289.045 297.933 288.816 297.752C288.587 297.571 288.245 297.464 287.792 297.432L285.704 297.304C285.475 297.288 285.256 297.331 285.048 297.432C284.845 297.528 284.68 297.664 284.552 297.84C284.424 298.011 284.36 298.2 284.36 298.408C284.36 298.797 284.584 299.091 285.032 299.288C285.48 299.491 286.171 299.592 287.104 299.592ZM286.752 293.736C287.259 293.736 287.669 293.608 287.984 293.352C288.299 293.091 288.456 292.723 288.456 292.248C288.456 291.757 288.299 291.376 287.984 291.104C287.669 290.827 287.259 290.688 286.752 290.688C286.235 290.688 285.816 290.827 285.496 291.104C285.181 291.381 285.024 291.763 285.024 292.248C285.024 292.707 285.176 293.069 285.48 293.336C285.784 293.603 286.208 293.736 286.752 293.736ZM296.286 298.16C295.497 298.16 294.809 297.992 294.222 297.656C293.635 297.315 293.179 296.827 292.854 296.192C292.534 295.557 292.374 294.795 292.374 293.904C292.374 293.04 292.529 292.283 292.838 291.632C293.153 290.981 293.603 290.475 294.19 290.112C294.777 289.749 295.478 289.568 296.294 289.568C297.083 289.568 297.769 289.741 298.35 290.088C298.931 290.435 299.379 290.931 299.694 291.576C300.014 292.221 300.174 292.997 300.174 293.904C300.174 294.741 300.022 295.48 299.718 296.12C299.419 296.755 298.979 297.253 298.398 297.616C297.822 297.979 297.118 298.16 296.286 298.16ZM296.294 296.68C296.742 296.68 297.11 296.557 297.398 296.312C297.691 296.067 297.907 295.731 298.046 295.304C298.19 294.877 298.262 294.392 298.262 293.848C298.262 293.341 298.198 292.875 298.07 292.448C297.947 292.021 297.739 291.68 297.446 291.424C297.158 291.163 296.774 291.032 296.294 291.032C295.841 291.032 295.465 291.152 295.166 291.392C294.873 291.627 294.651 291.957 294.502 292.384C294.358 292.805 294.286 293.293 294.286 293.848C294.286 294.349 294.35 294.816 294.478 295.248C294.611 295.675 294.825 296.021 295.118 296.288C295.411 296.549 295.803 296.68 296.294 296.68ZM307.282 289.984V292.208H305.082V289.984H307.282ZM307.282 295.744V297.952H305.082V295.744H307.282ZM312.898 286.008C312.354 287.043 311.909 288.173 311.562 289.4C311.221 290.621 311.05 291.869 311.05 293.144C311.05 294.349 311.2 295.517 311.498 296.648C311.802 297.779 312.24 298.947 312.81 300.152H311.458C311.016 299.4 310.629 298.661 310.298 297.936C309.968 297.205 309.712 296.448 309.53 295.664C309.349 294.88 309.258 294.035 309.258 293.128C309.258 291.8 309.469 290.528 309.89 289.312C310.312 288.096 310.861 286.995 311.538 286.008H312.898Z" fill="#3E3E3E"/>
<rect x="121.25" y="351.25" width="186.5" height="48.5" rx="2.75" fill="#F45D5D"/>
<path d="M145.484 369.432C145.542 369.432 145.705 369.432 145.972 369.432C146.244 369.432 146.561 369.432 146.924 369.432C147.292 369.432 147.657 369.435 148.02 369.44C148.388 369.44 148.694 369.443 148.94 369.448C150.342 369.48 151.486 369.731 152.372 370.2C153.257 370.669 153.905 371.325 154.316 372.168C154.732 373.011 154.94 374.008 154.94 375.16C154.94 376.36 154.721 377.397 154.284 378.272C153.846 379.141 153.177 379.813 152.276 380.288C151.38 380.763 150.241 381 148.86 381H145.484V369.432ZM147.836 371.32V379.112H148.908C149.569 379.112 150.169 378.984 150.708 378.728C151.252 378.472 151.686 378.053 152.012 377.472C152.337 376.891 152.5 376.115 152.5 375.144C152.5 374.243 152.356 373.512 152.068 372.952C151.78 372.387 151.369 371.973 150.836 371.712C150.302 371.451 149.67 371.32 148.94 371.32H147.836ZM158.623 377.4C158.618 377.821 158.684 378.189 158.823 378.504C158.962 378.813 159.162 379.053 159.423 379.224C159.69 379.389 160.01 379.472 160.383 379.472C160.783 379.472 161.132 379.387 161.431 379.216C161.735 379.045 161.946 378.765 162.063 378.376H164.167C164.076 378.963 163.842 379.464 163.463 379.88C163.09 380.296 162.636 380.613 162.103 380.832C161.57 381.051 161.015 381.16 160.439 381.16C159.623 381.16 158.903 380.989 158.279 380.648C157.66 380.301 157.178 379.813 156.831 379.184C156.484 378.555 156.311 377.813 156.311 376.96C156.311 376.133 156.468 375.389 156.783 374.728C157.098 374.061 157.554 373.536 158.151 373.152C158.754 372.763 159.476 372.568 160.319 372.568C161.162 372.568 161.868 372.747 162.439 373.104C163.015 373.456 163.447 373.949 163.735 374.584C164.028 375.213 164.175 375.941 164.175 376.768V377.4H158.623ZM158.615 376.008H161.991C161.991 375.677 161.93 375.373 161.807 375.096C161.684 374.819 161.498 374.6 161.247 374.44C161.002 374.28 160.692 374.2 160.319 374.2C159.956 374.2 159.647 374.288 159.391 374.464C159.14 374.635 158.948 374.859 158.815 375.136C158.682 375.413 158.615 375.704 158.615 376.008ZM168.437 381.144C167.829 381.144 167.346 381.072 166.989 380.928C166.632 380.784 166.368 380.595 166.197 380.36C166.026 380.12 165.917 379.856 165.869 379.568C165.821 379.275 165.797 378.979 165.797 378.68V369.112H168.085V378.392C168.085 378.696 168.149 378.944 168.277 379.136C168.41 379.323 168.658 379.437 169.021 379.48L169.413 379.504V380.944C169.253 380.997 169.09 381.043 168.925 381.08C168.76 381.123 168.597 381.144 168.437 381.144ZM172.826 377.4C172.821 377.821 172.888 378.189 173.026 378.504C173.165 378.813 173.365 379.053 173.626 379.224C173.893 379.389 174.213 379.472 174.586 379.472C174.986 379.472 175.336 379.387 175.634 379.216C175.938 379.045 176.149 378.765 176.266 378.376H178.37C178.28 378.963 178.045 379.464 177.666 379.88C177.293 380.296 176.84 380.613 176.306 380.832C175.773 381.051 175.218 381.16 174.642 381.16C173.826 381.16 173.106 380.989 172.482 380.648C171.864 380.301 171.381 379.813 171.034 379.184C170.688 378.555 170.514 377.813 170.514 376.96C170.514 376.133 170.672 375.389 170.986 374.728C171.301 374.061 171.757 373.536 172.354 373.152C172.957 372.763 173.68 372.568 174.522 372.568C175.365 372.568 176.072 372.747 176.642 373.104C177.218 373.456 177.65 373.949 177.938 374.584C178.232 375.213 178.378 375.941 178.378 376.768V377.4H172.826ZM172.818 376.008H176.194C176.194 375.677 176.133 375.373 176.01 375.096C175.888 374.819 175.701 374.6 175.45 374.44C175.205 374.28 174.896 374.2 174.522 374.2C174.16 374.2 173.85 374.288 173.594 374.464C173.344 374.635 173.152 374.859 173.018 375.136C172.885 375.413 172.818 375.704 172.818 376.008ZM184.774 374.352H182.934L182.95 378.76C182.95 378.963 182.974 379.115 183.022 379.216C183.076 379.312 183.156 379.376 183.262 379.408C183.374 379.435 183.516 379.448 183.686 379.448H184.798V380.888C184.692 380.936 184.524 380.981 184.294 381.024C184.07 381.067 183.756 381.088 183.35 381.088C182.625 381.088 182.062 380.995 181.662 380.808C181.268 380.621 180.993 380.36 180.838 380.024C180.684 379.688 180.606 379.299 180.606 378.856V374.352H179.262V372.728H180.686L181.27 370.232H182.934V372.72H184.774V374.352ZM188.154 377.4C188.149 377.821 188.216 378.189 188.354 378.504C188.493 378.813 188.693 379.053 188.954 379.224C189.221 379.389 189.541 379.472 189.914 379.472C190.314 379.472 190.664 379.387 190.962 379.216C191.266 379.045 191.477 378.765 191.594 378.376H193.698C193.608 378.963 193.373 379.464 192.994 379.88C192.621 380.296 192.168 380.613 191.634 380.832C191.101 381.051 190.546 381.16 189.97 381.16C189.154 381.16 188.434 380.989 187.81 380.648C187.192 380.301 186.709 379.813 186.362 379.184C186.016 378.555 185.842 377.813 185.842 376.96C185.842 376.133 186 375.389 186.314 374.728C186.629 374.061 187.085 373.536 187.682 373.152C188.285 372.763 189.008 372.568 189.85 372.568C190.693 372.568 191.4 372.747 191.97 373.104C192.546 373.456 192.978 373.949 193.266 374.584C193.56 375.213 193.706 375.941 193.706 376.768V377.4H188.154ZM188.146 376.008H191.522C191.522 375.677 191.461 375.373 191.338 375.096C191.216 374.819 191.029 374.6 190.778 374.44C190.533 374.28 190.224 374.2 189.85 374.2C189.488 374.2 189.178 374.288 188.922 374.464C188.672 374.635 188.48 374.859 188.346 375.136C188.213 375.413 188.146 375.704 188.146 376.008ZM198.672 381V372.728H200.96V373.896C201.211 373.533 201.547 373.221 201.968 372.96C202.395 372.699 202.931 372.568 203.576 372.568C203.859 372.568 204.147 372.619 204.44 372.72C204.733 372.821 205.008 372.971 205.264 373.168C205.525 373.36 205.736 373.603 205.896 373.896C206.163 373.517 206.512 373.203 206.944 372.952C207.381 372.696 207.867 372.568 208.4 372.568C208.709 372.568 209.021 372.619 209.336 372.72C209.656 372.821 209.949 372.987 210.216 373.216C210.483 373.445 210.696 373.752 210.856 374.136C211.021 374.515 211.104 374.984 211.104 375.544V381H208.768V375.832C208.768 375.501 208.701 375.237 208.568 375.04C208.44 374.837 208.275 374.693 208.072 374.608C207.875 374.517 207.664 374.472 207.44 374.472C207.232 374.472 207.021 374.515 206.808 374.6C206.595 374.68 206.413 374.811 206.264 374.992C206.115 375.173 206.04 375.411 206.04 375.704V381H203.712V375.624C203.712 375.373 203.645 375.163 203.512 374.992C203.379 374.821 203.211 374.693 203.008 374.608C202.811 374.517 202.608 374.472 202.4 374.472C202.187 374.472 201.973 374.517 201.76 374.608C201.547 374.693 201.368 374.829 201.224 375.016C201.08 375.197 201.008 375.427 201.008 375.704V381H198.672ZM213.991 383.64C213.426 383.64 213.026 383.592 212.791 383.496C212.562 383.405 212.447 383.36 212.447 383.36V381.872L213.263 381.904C213.62 381.925 213.908 381.907 214.127 381.848C214.346 381.795 214.511 381.723 214.623 381.632C214.74 381.541 214.823 381.445 214.871 381.344C214.919 381.248 214.954 381.171 214.975 381.112L215.127 380.656L211.911 372.728H214.223L216.207 378.12L218.215 372.728H220.495L217.143 381.048C216.855 381.752 216.551 382.291 216.231 382.664C215.911 383.037 215.564 383.293 215.191 383.432C214.823 383.571 214.423 383.64 213.991 383.64ZM227.384 381.16C226.856 381.16 226.382 381.061 225.96 380.864C225.539 380.667 225.206 380.381 224.96 380.008C224.715 379.629 224.592 379.171 224.592 378.632C224.592 377.725 224.931 377.037 225.608 376.568C226.286 376.093 227.355 375.848 228.816 375.832L229.848 375.816V375.32C229.848 374.941 229.736 374.651 229.512 374.448C229.294 374.24 228.952 374.139 228.488 374.144C228.147 374.149 227.822 374.229 227.512 374.384C227.208 374.539 227 374.808 226.888 375.192H224.944C224.976 374.595 225.15 374.104 225.464 373.72C225.779 373.331 226.206 373.043 226.744 372.856C227.288 372.664 227.904 372.568 228.592 372.568C229.44 372.568 230.12 372.675 230.632 372.888C231.144 373.096 231.515 373.397 231.744 373.792C231.974 374.181 232.088 374.645 232.088 375.184V381H230.136L229.944 379.576C229.662 380.173 229.307 380.587 228.88 380.816C228.459 381.045 227.96 381.16 227.384 381.16ZM228.168 379.624C228.382 379.624 228.587 379.587 228.784 379.512C228.987 379.432 229.166 379.328 229.32 379.2C229.48 379.067 229.608 378.917 229.704 378.752C229.8 378.587 229.848 378.416 229.848 378.24V377.016L229.008 377.032C228.619 377.037 228.256 377.085 227.92 377.176C227.584 377.261 227.312 377.403 227.104 377.6C226.902 377.797 226.8 378.064 226.8 378.4C226.8 378.784 226.934 379.085 227.2 379.304C227.467 379.517 227.79 379.624 228.168 379.624ZM237.7 372.568C238.394 372.568 238.991 372.709 239.492 372.992C239.999 373.275 240.396 373.656 240.684 374.136C240.978 374.616 241.146 375.152 241.188 375.744H239.244C239.207 375.525 239.13 375.309 239.012 375.096C238.895 374.877 238.73 374.699 238.516 374.56C238.303 374.416 238.036 374.344 237.716 374.344C237.172 374.344 236.73 374.555 236.388 374.976C236.052 375.392 235.884 376.027 235.884 376.88C235.884 377.685 236.05 378.325 236.38 378.8C236.711 379.269 237.172 379.504 237.764 379.504C238.079 379.504 238.34 379.427 238.548 379.272C238.762 379.117 238.927 378.933 239.044 378.72C239.162 378.501 239.236 378.299 239.268 378.112H241.164C241.127 378.683 240.962 379.2 240.668 379.664C240.375 380.123 239.975 380.488 239.468 380.76C238.967 381.027 238.378 381.16 237.7 381.16C236.932 381.16 236.247 380.989 235.644 380.648C235.042 380.307 234.567 379.819 234.22 379.184C233.879 378.544 233.708 377.781 233.708 376.896C233.708 376.043 233.874 375.291 234.204 374.64C234.535 373.989 234.999 373.483 235.596 373.12C236.199 372.752 236.9 372.568 237.7 372.568ZM246.341 372.568C247.034 372.568 247.632 372.709 248.133 372.992C248.64 373.275 249.037 373.656 249.325 374.136C249.618 374.616 249.786 375.152 249.829 375.744H247.885C247.848 375.525 247.77 375.309 247.653 375.096C247.536 374.877 247.37 374.699 247.157 374.56C246.944 374.416 246.677 374.344 246.357 374.344C245.813 374.344 245.37 374.555 245.029 374.976C244.693 375.392 244.525 376.027 244.525 376.88C244.525 377.685 244.69 378.325 245.021 378.8C245.352 379.269 245.813 379.504 246.405 379.504C246.72 379.504 246.981 379.427 247.189 379.272C247.402 379.117 247.568 378.933 247.685 378.72C247.802 378.501 247.877 378.299 247.909 378.112H249.805C249.768 378.683 249.602 379.2 249.309 379.664C249.016 380.123 248.616 380.488 248.109 380.76C247.608 381.027 247.018 381.16 246.341 381.16C245.573 381.16 244.888 380.989 244.285 380.648C243.682 380.307 243.208 379.819 242.861 379.184C242.52 378.544 242.349 377.781 242.349 376.896C242.349 376.043 242.514 375.291 242.845 374.64C243.176 373.989 243.64 373.483 244.237 373.12C244.84 372.752 245.541 372.568 246.341 372.568ZM254.99 381.16C254.179 381.16 253.472 380.987 252.87 380.64C252.272 380.293 251.808 379.803 251.478 379.168C251.152 378.533 250.99 377.781 250.99 376.912C250.99 376.043 251.152 375.283 251.478 374.632C251.808 373.981 252.272 373.475 252.87 373.112C253.472 372.749 254.182 372.568 254.998 372.568C255.814 372.568 256.52 372.747 257.118 373.104C257.715 373.456 258.176 373.957 258.502 374.608C258.827 375.259 258.99 376.027 258.99 376.912C258.99 377.744 258.83 378.48 258.51 379.12C258.195 379.755 257.739 380.253 257.142 380.616C256.55 380.979 255.832 381.16 254.99 381.16ZM254.998 379.424C255.408 379.424 255.739 379.304 255.99 379.064C256.24 378.824 256.422 378.509 256.534 378.12C256.651 377.725 256.71 377.296 256.71 376.832C256.71 376.395 256.656 375.981 256.55 375.592C256.448 375.203 256.272 374.888 256.022 374.648C255.771 374.408 255.43 374.288 254.998 374.288C254.587 374.288 254.254 374.403 253.998 374.632C253.747 374.856 253.563 375.163 253.446 375.552C253.328 375.936 253.27 376.363 253.27 376.832C253.27 377.264 253.323 377.68 253.43 378.08C253.536 378.475 253.715 378.797 253.966 379.048C254.216 379.299 254.56 379.424 254.998 379.424ZM263.501 381.16C263.117 381.16 262.738 381.101 262.365 380.984C261.997 380.867 261.661 380.693 261.357 380.464C261.053 380.235 260.808 379.952 260.621 379.616C260.44 379.28 260.349 378.891 260.349 378.448V372.728H262.685V378.152C262.685 378.536 262.81 378.851 263.061 379.096C263.312 379.341 263.68 379.464 264.165 379.464C264.624 379.464 264.986 379.347 265.253 379.112C265.525 378.872 265.661 378.539 265.661 378.112V372.728H267.973V381H266.213L265.941 379.36C265.845 379.845 265.664 380.219 265.397 380.48C265.136 380.736 264.834 380.912 264.493 381.008C264.157 381.109 263.826 381.16 263.501 381.16ZM269.922 381V372.728H272.218V373.896C272.346 373.693 272.511 373.499 272.714 373.312C272.922 373.12 273.183 372.963 273.498 372.84C273.813 372.717 274.186 372.656 274.618 372.656C275.125 372.656 275.597 372.755 276.034 372.952C276.477 373.149 276.834 373.461 277.106 373.888C277.378 374.309 277.514 374.861 277.514 375.544V381H275.178V375.832C275.178 375.384 275.045 375.048 274.778 374.824C274.511 374.6 274.186 374.488 273.802 374.488C273.546 374.488 273.298 374.533 273.058 374.624C272.823 374.715 272.631 374.851 272.482 375.032C272.333 375.213 272.258 375.437 272.258 375.704V381H269.922ZM284.087 374.352H282.247L282.263 378.76C282.263 378.963 282.287 379.115 282.335 379.216C282.388 379.312 282.468 379.376 282.575 379.408C282.687 379.435 282.828 379.448 282.999 379.448H284.111V380.888C284.004 380.936 283.836 380.981 283.607 381.024C283.383 381.067 283.068 381.088 282.663 381.088C281.938 381.088 281.375 380.995 280.975 380.808C280.58 380.621 280.306 380.36 280.151 380.024C279.996 379.688 279.919 379.299 279.919 378.856V374.352H278.575V372.728H279.999L280.583 370.232H282.247V372.72H284.087V374.352Z" fill="white"/>
<rect x="121.25" y="351.25" width="186.5" height="48.5" rx="2.75" stroke="#C73313" stroke-width="2.5"/>
<defs>
<filter id="filter0_d_520_2402" x="77.5" y="820.5" width="279" height="71" filterUnits="userSpaceOnUse" color-interpolation-filters="sRGB">
<feFlood flood-opacity="0" result="BackgroundImageFix"/>
<feColorMatrix in="SourceAlpha" type="matrix" values="0 0 0 0 0 0 0 0 0 0 0 0 0 0 0 0 0 0 127 0" result="hardAlpha"/>
<feOffset dx="3" dy="4"/>
<feGaussianBlur stdDeviation="3.75"/>
<feComposite in2="hardAlpha" operator="out"/>
<feColorMatrix type="matrix" values="0 0 0 0 0.529412 0 0 0 0 0.462745 0 0 0 0 0.341176 0 0 0 0.3 0"/>
<feBlend mode="normal" in2="BackgroundImageFix" result="effect1_dropShadow_520_2402"/>
<feBlend mode="normal" in="SourceGraphic" in2="effect1_dropShadow_520_2402" result="shape"/>
</filter>
<clipPath id="clip0_520_2402">
<rect width="119" height="119" fill="white" transform="translate(155 22)"/>
</clipPath>
</defs>
</svg>
