<svg width="428" height="926" viewBox="0 0 428 926" fill="none" xmlns="http://www.w3.org/2000/svg">
<rect width="428" height="926" fill="#F8F2E9"/>
<g clip-path="url(#clip0_520_2234)">
<path d="M240.646 92.0177C240.549 91.6317 240.501 91.2208 240.501 90.785C240.501 89.1542 241.237 87.7352 242.71 86.5279C244.183 85.3207 247.195 83.8385 251.746 82.0814V80.7351C251.746 79.3192 251.565 78.3047 251.205 77.6916C250.845 77.0785 250.254 76.7719 249.432 76.7719C248.762 76.7719 248.206 76.971 247.764 77.3692C247.321 77.7674 247.1 78.2636 247.1 78.8578C247.1 79.1738 247.113 79.5436 247.138 79.9671C247.163 80.3905 247.176 80.6592 247.176 80.773C247.176 81.6958 246.92 82.4384 246.408 83.001C245.896 83.5636 245.216 83.8448 244.369 83.8448C243.598 83.8448 242.979 83.6015 242.511 83.1148C242.043 82.628 241.809 81.9865 241.809 81.1902C241.809 79.4709 242.625 78.0456 244.256 76.9141C245.886 75.7827 247.985 75.217 250.551 75.217C251.992 75.217 253.297 75.4004 254.467 75.767C255.636 76.1336 256.594 76.6645 257.339 77.3598C257.946 77.9286 258.376 78.5923 258.629 79.3508C258.882 80.1092 259.008 81.2533 259.008 82.783V88.1871C259.008 89.6914 259.125 90.7597 259.359 91.3917C259.593 92.0238 259.969 92.3399 260.487 92.3399C260.601 92.3399 260.715 92.3146 260.828 92.264C260.942 92.2134 261.062 92.1377 261.189 92.0364V93.269C260.683 93.9137 260.029 94.413 259.226 94.767C258.423 95.121 257.535 95.298 256.562 95.298C255.45 95.298 254.517 95.0389 253.765 94.5205C253.013 94.0022 252.46 93.2375 252.106 92.2262C251.145 93.326 250.137 94.1445 249.081 94.6817C248.026 95.2189 246.91 95.4876 245.735 95.4876C244.18 95.4876 242.919 95.0483 241.952 94.1697C241.629 93.8766 241.36 93.5556 241.145 93.2066C240.384 93.8039 239.157 94.4941 238.538 94.767C237.736 95.121 236.848 95.298 235.874 95.298C234.762 95.298 233.829 95.0389 233.077 94.5205C232.325 94.0022 231.772 93.2375 231.418 92.2262C230.457 93.326 229.449 94.1445 228.394 94.6817C227.338 95.2189 226.223 95.4876 225.047 95.4876C223.492 95.4876 222.231 95.0483 221.264 94.1697C220.297 93.2911 219.813 92.1629 219.813 90.785C219.813 89.1542 220.55 87.7352 222.022 86.5279C223.495 85.3207 226.507 83.8385 231.058 82.0814V80.7351C231.058 79.3192 230.878 78.3047 230.517 77.6916C230.157 77.0785 229.566 76.7719 228.744 76.7719C228.075 76.7719 227.518 76.971 227.076 77.3692C226.633 77.7674 226.412 78.2636 226.412 78.8578C226.412 79.1738 226.425 79.5436 226.45 79.9671C226.475 80.3905 226.488 80.6592 226.488 80.773C226.488 81.6958 226.232 82.4384 225.72 83.001C225.208 83.5636 224.529 83.8448 223.682 83.8448C222.91 83.8448 222.291 83.6015 221.823 83.1148C221.356 82.628 221.122 81.9865 221.122 81.1902C221.122 79.4709 221.937 78.0456 223.568 76.9141C225.199 75.7827 227.297 75.217 229.863 75.217C231.304 75.217 232.61 75.4004 233.779 75.767C234.948 76.1336 235.906 76.6645 236.652 77.3598C237.258 77.9286 237.688 78.5923 237.941 79.3508C238.194 80.1092 238.32 81.2533 238.32 82.783V88.1871C238.32 89.6914 238.437 90.7597 238.671 91.3917C238.905 92.0238 239.281 92.3399 239.799 92.3399C239.913 92.3399 240.027 92.3146 240.141 92.264C240.194 92.2404 240.414 92.1343 240.646 92.0177ZM182.778 94.6723L178.246 85.6652V90.8229C178.246 91.8215 178.423 92.5327 178.777 92.9562C179.131 93.3796 179.731 93.5913 180.578 93.5913H180.692V94.6723H168.499V93.5913H168.613C169.448 93.5913 170.045 93.3796 170.405 92.9562C170.765 92.5327 170.946 91.8215 170.946 90.8229V75.2549C170.946 74.6734 170.879 74.2532 170.746 73.9941C170.614 73.7348 170.313 73.4156 169.846 73.0364L167.798 71.3678C168.683 71.1023 169.915 70.6788 171.495 70.0972C173.076 69.5158 175.326 68.6562 178.246 67.5184V84.6222C179.902 83.3454 181.15 82.1919 181.991 81.1616C182.832 80.1314 183.252 79.2371 183.252 78.4786C183.252 78.074 183.097 77.7516 182.787 77.5115C182.478 77.2713 182.051 77.1512 181.507 77.1512H181.394V76.0704H191.254V77.1512H190.932C189.63 77.1512 188.403 77.4925 187.253 78.1751C186.103 78.8578 184.921 79.9449 183.707 81.4367L189.149 90.747C189.743 91.7837 190.319 92.5043 190.875 92.9087C191.429 93.312 192.122 93.5394 192.953 93.5909C193.752 93.5796 194.326 93.3681 194.677 92.9562C195.037 92.5327 195.217 91.8215 195.217 90.8229V82.783C195.217 82.2015 195.154 81.7811 195.027 81.522C194.901 81.2629 194.604 80.95 194.136 80.5833L192.069 78.9147C193.574 78.4343 195.198 77.8718 196.943 77.227C198.687 76.5823 200.545 75.8618 202.518 75.0653V90.8229C202.518 91.7963 202.691 92.4947 203.039 92.9182C203.387 93.3416 203.965 93.5661 204.774 93.5913H204.811C205.645 93.5913 206.243 93.3796 206.603 92.9562C206.963 92.5327 207.143 91.8215 207.143 90.8229V83.6742C207.143 83.0673 207.067 82.6186 206.916 82.3279C206.764 82.0371 206.48 81.7526 206.063 81.4745L203.692 79.8059C204.931 79.376 206.36 78.7851 207.978 78.0329C209.596 77.2807 211.58 76.2916 213.932 75.0653V78.4027C214.564 77.3408 215.25 76.5445 215.989 76.0135C216.729 75.4825 217.522 75.217 218.369 75.217C219.304 75.217 220.057 75.4951 220.625 76.0514C221.194 76.6076 221.479 77.3408 221.479 78.251C221.479 79.0474 221.242 79.6858 220.768 80.1661C220.294 80.6466 219.665 80.8867 218.881 80.8867C218.173 80.8867 217.494 80.6023 216.842 80.0334C216.191 79.4645 215.777 79.1802 215.6 79.1802C215.183 79.1802 214.886 79.4583 214.709 80.0145C214.532 80.5707 214.444 81.563 214.444 82.9916V90.8229C214.444 91.8089 214.643 92.5169 215.041 92.9466C215.439 93.3765 216.093 93.5913 217.004 93.5913H217.117V94.6723H182.778ZM251.746 83.4845C250.608 83.9396 249.742 84.657 249.148 85.6367C248.554 86.6164 248.257 87.8143 248.257 89.2301C248.257 90.0392 248.418 90.6839 248.74 91.1642C249.062 91.6446 249.483 91.8848 250.001 91.8848C250.671 91.8848 251.129 91.6193 251.376 91.0883C251.622 90.5574 251.746 89.2301 251.746 87.1063V83.4845ZM231.058 83.4845C229.92 83.9396 229.054 84.657 228.46 85.6367C227.866 86.6164 227.569 87.8143 227.569 89.2301C227.569 90.0392 227.73 90.6839 228.052 91.1642C228.375 91.6446 228.795 91.8848 229.313 91.8848C229.983 91.8848 230.442 91.6193 230.688 91.0883C230.935 90.5574 231.058 89.2301 231.058 87.1063V83.4845ZM194.705 71.3298C194.705 70.268 195.075 69.3672 195.814 68.6277C196.554 67.8882 197.455 67.5184 198.517 67.5184C199.591 67.5184 200.495 67.8882 201.228 68.6277C201.961 69.3672 202.328 70.268 202.328 71.3298C202.328 72.3917 201.958 73.2923 201.219 74.0319C200.479 74.7714 199.578 75.1412 198.517 75.1412C197.455 75.1412 196.554 74.7746 195.814 74.0414C195.075 73.3082 194.705 72.4043 194.705 71.3298Z" fill="#3E3E3E"/>
</g>
<g filter="url(#filter0_d_520_2234)">
<rect x="82" y="824" width="264" height="56" rx="28" fill="#F8F2E9" shape-rendering="crispEdges"/>
<path d="M121 862V856C121 855.735 120.895 855.48 120.707 855.293C120.52 855.105 120.265 855 120 855H116C115.735 855 115.48 855.105 115.293 855.293C115.105 855.48 115 855.735 115 856V862C115 862.265 114.895 862.52 114.707 862.707C114.52 862.895 114.265 863 114 863H108C107.735 863 107.48 862.895 107.293 862.707C107.105 862.52 107 862.265 107 862V850.437C107.002 850.299 107.032 850.163 107.088 850.036C107.144 849.909 107.224 849.795 107.325 849.7L117.325 840.612C117.509 840.444 117.75 840.35 118 840.35C118.25 840.35 118.491 840.444 118.675 840.612L128.675 849.7C128.776 849.795 128.856 849.909 128.912 850.036C128.968 850.163 128.998 850.299 129 850.437V862C129 862.265 128.895 862.52 128.707 862.707C128.52 862.895 128.265 863 128 863H122C121.735 863 121.48 862.895 121.293 862.707C121.105 862.52 121 862.265 121 862Z" stroke="#4A4A4A" stroke-width="2" stroke-linecap="round" stroke-linejoin="round"/>
<path d="M178 845C178 843.939 178.421 842.922 179.172 842.172C179.922 841.421 180.939 841 182 841C183.061 841 184.078 841.421 184.828 842.172C185.579 842.922 186 843.939 186 845L168.4 858.2C168.232 858.326 168.108 858.501 168.045 858.702C167.983 858.902 167.985 859.117 168.051 859.316C168.118 859.515 168.245 859.689 168.415 859.811C168.586 859.934 168.79 860 169 860H195C195.21 860 195.414 859.934 195.585 859.811C195.755 859.689 195.882 859.515 195.949 859.316C196.015 859.117 196.017 858.902 195.955 858.702C195.892 858.501 195.768 858.326 195.6 858.2L182 848" stroke="#4A4A4A" stroke-width="2" stroke-linecap="round" stroke-linejoin="round"/>
<path d="M246 856C250.418 856 254 852.418 254 848C254 843.582 250.418 840 246 840C241.582 840 238 843.582 238 848C238 852.418 241.582 856 246 856Z" stroke="#4A4A4A" stroke-width="2" stroke-miterlimit="10"/>
<path d="M233.875 863C235.104 860.871 236.871 859.104 238.999 857.875C241.128 856.646 243.542 855.999 246 855.999C248.458 855.999 250.872 856.646 253.001 857.875C255.129 859.104 256.896 860.871 258.125 863" stroke="#4A4A4A" stroke-width="2" stroke-linecap="round" stroke-linejoin="round"/>
<path d="M305.955 841.143L306.938 838.606C307.103 838.176 307.395 837.807 307.774 837.546C308.154 837.285 308.603 837.144 309.063 837.143H310.938C311.398 837.144 311.847 837.285 312.227 837.546C312.606 837.807 312.897 838.176 313.063 838.606L314.046 841.143L317.383 843.063L320.08 842.651C320.529 842.59 320.987 842.664 321.394 842.864C321.801 843.063 322.139 843.379 322.366 843.771L323.28 845.371C323.515 845.77 323.623 846.23 323.59 846.691C323.557 847.152 323.386 847.593 323.098 847.954L321.429 850.08V853.92L323.143 856.046C323.431 856.407 323.603 856.848 323.636 857.309C323.668 857.77 323.56 858.23 323.326 858.629L322.412 860.229C322.185 860.621 321.846 860.937 321.439 861.136C321.032 861.336 320.575 861.409 320.126 861.349L317.429 860.937L314.092 862.857L313.109 865.394C312.943 865.824 312.652 866.193 312.272 866.454C311.893 866.715 311.444 866.856 310.983 866.857H309.063C308.603 866.856 308.154 866.715 307.774 866.454C307.395 866.193 307.103 865.824 306.938 865.394L305.955 862.857L302.618 860.937L299.92 861.349C299.471 861.409 299.014 861.336 298.607 861.136C298.2 860.937 297.862 860.621 297.635 860.229L296.72 858.629C296.486 858.23 296.378 857.77 296.411 857.309C296.443 856.848 296.615 856.407 296.903 856.046L298.572 853.92V850.08L296.858 847.954C296.569 847.593 296.398 847.152 296.365 846.691C296.332 846.23 296.44 845.77 296.675 845.371L297.589 843.771C297.816 843.379 298.154 843.063 298.561 842.864C298.968 842.664 299.426 842.59 299.875 842.651L302.572 843.063L305.955 841.143ZM305.429 852C305.429 852.904 305.697 853.788 306.199 854.54C306.702 855.291 307.416 855.877 308.251 856.223C309.086 856.569 310.005 856.66 310.892 856.484C311.779 856.307 312.594 855.872 313.233 855.232C313.872 854.593 314.308 853.779 314.484 852.892C314.66 852.005 314.57 851.086 314.224 850.251C313.878 849.415 313.292 848.701 312.54 848.199C311.788 847.697 310.905 847.429 310 847.429C308.788 847.429 307.625 847.91 306.768 848.767C305.911 849.625 305.429 850.788 305.429 852Z" fill="#3E3E3E"/>
</g>
<path d="M381 116H359C358.448 116 358 116.448 358 117V135C358 135.552 358.448 136 359 136H381C381.552 136 382 135.552 382 135V117C382 116.448 381.552 116 381 116Z" stroke="#3E3E3E" stroke-width="2" stroke-linecap="round" stroke-linejoin="round"/>
<path d="M375 121C375 122.326 374.473 123.598 373.536 124.536C372.598 125.473 371.326 126 370 126C368.674 126 367.402 125.473 366.464 124.536C365.527 123.598 365 122.326 365 121" stroke="#3E3E3E" stroke-width="2" stroke-linecap="round" stroke-linejoin="round"/>
<path d="M56.6188 195.238L51 189.619L56.6188 184" stroke="#3E3E3E" stroke-width="2.65192" stroke-linecap="round" stroke-linejoin="round"/>
<path d="M51 189.619H64.2596" stroke="#3E3E3E" stroke-width="2.65192" stroke-linecap="round" stroke-linejoin="round"/>
<path d="M157.63 207.54L152.64 222H149.33L144.38 207.54H147.17L150.99 218.61L154.84 207.54H157.63ZM160.599 217.5C160.593 218.027 160.676 218.487 160.849 218.88C161.023 219.267 161.273 219.567 161.599 219.78C161.933 219.987 162.333 220.09 162.799 220.09C163.299 220.09 163.736 219.983 164.109 219.77C164.489 219.557 164.753 219.207 164.899 218.72H167.529C167.416 219.453 167.123 220.08 166.649 220.6C166.183 221.12 165.616 221.517 164.949 221.79C164.283 222.063 163.589 222.2 162.869 222.2C161.849 222.2 160.949 221.987 160.169 221.56C159.396 221.127 158.793 220.517 158.359 219.73C157.926 218.943 157.709 218.017 157.709 216.95C157.709 215.917 157.906 214.987 158.299 214.16C158.693 213.327 159.263 212.67 160.009 212.19C160.763 211.703 161.666 211.46 162.719 211.46C163.773 211.46 164.656 211.683 165.369 212.13C166.089 212.57 166.629 213.187 166.989 213.98C167.356 214.767 167.539 215.677 167.539 216.71V217.5H160.599ZM160.589 215.76H164.809C164.809 215.347 164.733 214.967 164.579 214.62C164.426 214.273 164.193 214 163.879 213.8C163.573 213.6 163.186 213.5 162.719 213.5C162.266 213.5 161.879 213.61 161.559 213.83C161.246 214.043 161.006 214.323 160.839 214.67C160.673 215.017 160.589 215.38 160.589 215.76ZM169.566 222V211.66H172.376V214.11C172.543 213.583 172.776 213.123 173.076 212.73C173.383 212.33 173.753 212.02 174.186 211.8C174.62 211.573 175.11 211.46 175.656 211.46C175.75 211.46 175.836 211.467 175.916 211.48C176.003 211.487 176.066 211.5 176.106 211.52V214.3C176.046 214.273 175.973 214.257 175.886 214.25C175.806 214.243 175.733 214.237 175.666 214.23C175.093 214.183 174.603 214.2 174.196 214.28C173.79 214.36 173.46 214.497 173.206 214.69C172.953 214.883 172.77 215.12 172.656 215.4C172.543 215.68 172.486 215.993 172.486 216.34V222H169.566ZM180.631 211.66V222H177.841V211.66H180.631ZM180.661 207.55V210.18H177.821V207.55H180.661ZM189.587 211.66V213.69H187.407V222H184.487V213.69H182.577V211.66H184.487V210.17C184.487 209.337 184.731 208.69 185.217 208.23C185.711 207.77 186.407 207.54 187.307 207.54H189.677L189.687 209.48H188.327C187.954 209.48 187.697 209.573 187.557 209.76C187.424 209.94 187.357 210.24 187.357 210.66V211.66H189.587ZM193.286 225.3C192.579 225.3 192.079 225.24 191.786 225.12C191.499 225.007 191.356 224.95 191.356 224.95V223.09L192.376 223.13C192.822 223.157 193.182 223.133 193.456 223.06C193.729 222.993 193.936 222.903 194.076 222.79C194.222 222.677 194.326 222.557 194.386 222.43C194.446 222.31 194.489 222.213 194.516 222.14L194.706 221.57L190.686 211.66H193.576L196.056 218.4L198.566 211.66H201.416L197.226 222.06C196.866 222.94 196.486 223.613 196.086 224.08C195.686 224.547 195.252 224.867 194.786 225.04C194.326 225.213 193.826 225.3 193.286 225.3ZM206.327 222L211.507 207.54H214.587L219.757 222H216.847L215.667 218.65H210.467L209.257 222H206.327ZM211.117 216.1H214.967L213.057 210.36L211.117 216.1ZM225.657 211.46C226.523 211.46 227.27 211.637 227.897 211.99C228.53 212.343 229.027 212.82 229.387 213.42C229.753 214.02 229.963 214.69 230.017 215.43H227.587C227.54 215.157 227.443 214.887 227.297 214.62C227.15 214.347 226.943 214.123 226.677 213.95C226.41 213.77 226.077 213.68 225.677 213.68C224.997 213.68 224.443 213.943 224.017 214.47C223.597 214.99 223.387 215.783 223.387 216.85C223.387 217.857 223.593 218.657 224.007 219.25C224.42 219.837 224.997 220.13 225.737 220.13C226.13 220.13 226.457 220.033 226.717 219.84C226.983 219.647 227.19 219.417 227.337 219.15C227.483 218.877 227.577 218.623 227.617 218.39H229.987C229.94 219.103 229.733 219.75 229.367 220.33C229 220.903 228.5 221.36 227.867 221.7C227.24 222.033 226.503 222.2 225.657 222.2C224.697 222.2 223.84 221.987 223.087 221.56C222.333 221.133 221.74 220.523 221.307 219.73C220.88 218.93 220.667 217.977 220.667 216.87C220.667 215.803 220.873 214.863 221.287 214.05C221.7 213.237 222.28 212.603 223.027 212.15C223.78 211.69 224.657 211.46 225.657 211.46ZM236.457 211.46C237.324 211.46 238.071 211.637 238.697 211.99C239.331 212.343 239.827 212.82 240.187 213.42C240.554 214.02 240.764 214.69 240.817 215.43H238.387C238.341 215.157 238.244 214.887 238.097 214.62C237.951 214.347 237.744 214.123 237.477 213.95C237.211 213.77 236.877 213.68 236.477 213.68C235.797 213.68 235.244 213.943 234.817 214.47C234.397 214.99 234.187 215.783 234.187 216.85C234.187 217.857 234.394 218.657 234.807 219.25C235.221 219.837 235.797 220.13 236.537 220.13C236.931 220.13 237.257 220.033 237.517 219.84C237.784 219.647 237.991 219.417 238.137 219.15C238.284 218.877 238.377 218.623 238.417 218.39H240.787C240.741 219.103 240.534 219.75 240.167 220.33C239.801 220.903 239.301 221.36 238.667 221.7C238.041 222.033 237.304 222.2 236.457 222.2C235.497 222.2 234.641 221.987 233.887 221.56C233.134 221.133 232.541 220.523 232.107 219.73C231.681 218.93 231.467 217.977 231.467 216.87C231.467 215.803 231.674 214.863 232.087 214.05C232.501 213.237 233.081 212.603 233.827 212.15C234.581 211.69 235.457 211.46 236.457 211.46ZM247.268 222.2C246.255 222.2 245.371 221.983 244.618 221.55C243.871 221.117 243.291 220.503 242.878 219.71C242.471 218.917 242.268 217.977 242.268 216.89C242.268 215.803 242.471 214.853 242.878 214.04C243.291 213.227 243.871 212.593 244.618 212.14C245.371 211.687 246.258 211.46 247.278 211.46C248.298 211.46 249.181 211.683 249.928 212.13C250.675 212.57 251.251 213.197 251.658 214.01C252.065 214.823 252.268 215.783 252.268 216.89C252.268 217.93 252.068 218.85 251.668 219.65C251.275 220.443 250.705 221.067 249.958 221.52C249.218 221.973 248.321 222.2 247.268 222.2ZM247.278 220.03C247.791 220.03 248.205 219.88 248.518 219.58C248.831 219.28 249.058 218.887 249.198 218.4C249.345 217.907 249.418 217.37 249.418 216.79C249.418 216.243 249.351 215.727 249.218 215.24C249.091 214.753 248.871 214.36 248.558 214.06C248.245 213.76 247.818 213.61 247.278 213.61C246.765 213.61 246.348 213.753 246.028 214.04C245.715 214.32 245.485 214.703 245.338 215.19C245.191 215.67 245.118 216.203 245.118 216.79C245.118 217.33 245.185 217.85 245.318 218.35C245.451 218.843 245.675 219.247 245.988 219.56C246.301 219.873 246.731 220.03 247.278 220.03ZM257.908 222.2C257.428 222.2 256.954 222.127 256.488 221.98C256.028 221.833 255.608 221.617 255.228 221.33C254.848 221.043 254.541 220.69 254.308 220.27C254.081 219.85 253.968 219.363 253.968 218.81V211.66H256.888V218.44C256.888 218.92 257.044 219.313 257.358 219.62C257.671 219.927 258.131 220.08 258.738 220.08C259.311 220.08 259.764 219.933 260.098 219.64C260.438 219.34 260.608 218.923 260.608 218.39V211.66H263.498V222H261.298L260.958 219.95C260.838 220.557 260.611 221.023 260.278 221.35C259.951 221.67 259.574 221.89 259.148 222.01C258.728 222.137 258.314 222.2 257.908 222.2ZM265.934 222V211.66H268.804V213.12C268.964 212.867 269.17 212.623 269.424 212.39C269.684 212.15 270.01 211.953 270.404 211.8C270.797 211.647 271.264 211.57 271.804 211.57C272.437 211.57 273.027 211.693 273.574 211.94C274.127 212.187 274.574 212.577 274.914 213.11C275.254 213.637 275.424 214.327 275.424 215.18V222H272.504V215.54C272.504 214.98 272.337 214.56 272.004 214.28C271.67 214 271.264 213.86 270.784 213.86C270.464 213.86 270.154 213.917 269.854 214.03C269.56 214.143 269.32 214.313 269.134 214.54C268.947 214.767 268.854 215.047 268.854 215.38V222H265.934ZM283.64 213.69H281.34L281.36 219.2C281.36 219.453 281.39 219.643 281.45 219.77C281.517 219.89 281.617 219.97 281.75 220.01C281.89 220.043 282.067 220.06 282.28 220.06H283.67V221.86C283.537 221.92 283.327 221.977 283.04 222.03C282.76 222.083 282.367 222.11 281.86 222.11C280.953 222.11 280.25 221.993 279.75 221.76C279.257 221.527 278.913 221.2 278.72 220.78C278.527 220.36 278.43 219.873 278.43 219.32V213.69H276.75V211.66H278.53L279.26 208.54H281.34V211.65H283.64V213.69Z" fill="#4A4A4A"/>
<path d="M101.072 286.432L97.096 293.112V298H95.152V293.104L91.168 286.432H93.28L96.136 291.408L98.944 286.432H101.072ZM104.474 298.16C103.684 298.16 102.996 297.992 102.41 297.656C101.823 297.315 101.367 296.827 101.042 296.192C100.722 295.557 100.562 294.795 100.562 293.904C100.562 293.04 100.716 292.283 101.026 291.632C101.34 290.981 101.791 290.475 102.378 290.112C102.964 289.749 103.666 289.568 104.482 289.568C105.271 289.568 105.956 289.741 106.538 290.088C107.119 290.435 107.567 290.931 107.882 291.576C108.202 292.221 108.362 292.997 108.362 293.904C108.362 294.741 108.21 295.48 107.906 296.12C107.607 296.755 107.167 297.253 106.586 297.616C106.01 297.979 105.306 298.16 104.474 298.16ZM104.482 296.68C104.93 296.68 105.298 296.557 105.586 296.312C105.879 296.067 106.095 295.731 106.234 295.304C106.378 294.877 106.45 294.392 106.45 293.848C106.45 293.341 106.386 292.875 106.258 292.448C106.135 292.021 105.927 291.68 105.634 291.424C105.346 291.163 104.962 291.032 104.482 291.032C104.028 291.032 103.652 291.152 103.354 291.392C103.06 291.627 102.839 291.957 102.69 292.384C102.546 292.805 102.474 293.293 102.474 293.848C102.474 294.349 102.538 294.816 102.666 295.248C102.799 295.675 103.012 296.021 103.306 296.288C103.599 296.549 103.991 296.68 104.482 296.68ZM113.019 298.16C112.614 298.16 112.222 298.101 111.843 297.984C111.47 297.861 111.134 297.685 110.835 297.456C110.536 297.221 110.299 296.933 110.123 296.592C109.947 296.251 109.859 295.853 109.859 295.4V289.728H111.811V295.176C111.811 295.624 111.952 295.992 112.235 296.28C112.523 296.568 112.955 296.712 113.531 296.712C114.054 296.712 114.472 296.576 114.787 296.304C115.102 296.027 115.259 295.629 115.259 295.112V289.728H117.195V298H115.699L115.483 296.384C115.382 296.837 115.203 297.195 114.947 297.456C114.696 297.712 114.4 297.893 114.059 298C113.723 298.107 113.376 298.16 113.019 298.16ZM119.354 298V289.728H121.218V291.52C121.351 291.109 121.541 290.76 121.786 290.472C122.037 290.179 122.33 289.955 122.666 289.8C123.002 289.645 123.367 289.568 123.762 289.568C123.858 289.568 123.951 289.573 124.042 289.584C124.133 289.595 124.199 289.613 124.242 289.64V291.504C124.183 291.477 124.106 291.459 124.01 291.448C123.919 291.437 123.839 291.432 123.77 291.432C123.37 291.4 123.015 291.416 122.706 291.48C122.402 291.544 122.143 291.653 121.93 291.808C121.722 291.957 121.565 292.149 121.458 292.384C121.351 292.613 121.298 292.883 121.298 293.192V298H119.354ZM131.604 298.16C131.076 298.16 130.602 298.064 130.18 297.872C129.764 297.675 129.436 297.395 129.196 297.032C128.962 296.664 128.844 296.219 128.844 295.696C128.844 294.784 129.172 294.096 129.828 293.632C130.49 293.168 131.543 292.925 132.988 292.904L134.22 292.872V292.312C134.22 291.875 134.09 291.533 133.828 291.288C133.572 291.037 133.172 290.915 132.628 290.92C132.228 290.925 131.86 291.021 131.524 291.208C131.194 291.389 130.975 291.696 130.868 292.128H129.212C129.244 291.563 129.407 291.091 129.7 290.712C129.999 290.328 130.407 290.043 130.924 289.856C131.442 289.664 132.039 289.568 132.716 289.568C133.506 289.568 134.148 289.672 134.644 289.88C135.14 290.088 135.506 290.389 135.74 290.784C135.975 291.173 136.092 291.645 136.092 292.2V298H134.452L134.3 296.512C134.002 297.136 133.623 297.568 133.164 297.808C132.711 298.043 132.191 298.16 131.604 298.16ZM132.236 296.84C132.476 296.84 132.714 296.797 132.948 296.712C133.183 296.621 133.396 296.501 133.588 296.352C133.78 296.197 133.932 296.027 134.044 295.84C134.162 295.653 134.22 295.459 134.22 295.256V293.952L133.204 293.968C132.703 293.973 132.266 294.027 131.892 294.128C131.519 294.229 131.226 294.392 131.012 294.616C130.804 294.835 130.7 295.128 130.7 295.496C130.7 295.917 130.847 296.248 131.14 296.488C131.434 296.723 131.799 296.84 132.236 296.84ZM141.802 289.568C142.447 289.568 143.015 289.696 143.506 289.952C143.996 290.208 144.388 290.563 144.682 291.016C144.98 291.469 145.159 291.984 145.218 292.56H143.554C143.516 292.309 143.426 292.072 143.282 291.848C143.138 291.619 142.943 291.435 142.698 291.296C142.452 291.152 142.156 291.08 141.81 291.08C141.191 291.08 140.687 291.309 140.298 291.768C139.914 292.227 139.722 292.931 139.722 293.88C139.722 294.755 139.906 295.451 140.274 295.968C140.642 296.485 141.167 296.744 141.85 296.744C142.191 296.744 142.482 296.669 142.722 296.52C142.967 296.365 143.159 296.176 143.298 295.952C143.442 295.723 143.535 295.493 143.578 295.264H145.194C145.146 295.824 144.97 296.323 144.666 296.76C144.367 297.197 143.972 297.541 143.482 297.792C142.996 298.037 142.436 298.16 141.802 298.16C141.044 298.16 140.37 297.995 139.778 297.664C139.191 297.328 138.73 296.843 138.394 296.208C138.058 295.568 137.89 294.797 137.89 293.896C137.89 293.037 138.047 292.285 138.362 291.64C138.676 290.989 139.127 290.483 139.714 290.12C140.3 289.752 140.996 289.568 141.802 289.568ZM150.442 289.568C151.088 289.568 151.656 289.696 152.146 289.952C152.637 290.208 153.029 290.563 153.322 291.016C153.621 291.469 153.8 291.984 153.858 292.56H152.194C152.157 292.309 152.066 292.072 151.922 291.848C151.778 291.619 151.584 291.435 151.338 291.296C151.093 291.152 150.797 291.08 150.45 291.08C149.832 291.08 149.328 291.309 148.938 291.768C148.554 292.227 148.362 292.931 148.362 293.88C148.362 294.755 148.546 295.451 148.914 295.968C149.282 296.485 149.808 296.744 150.49 296.744C150.832 296.744 151.122 296.669 151.362 296.52C151.608 296.365 151.8 296.176 151.938 295.952C152.082 295.723 152.176 295.493 152.218 295.264H153.834C153.786 295.824 153.61 296.323 153.306 296.76C153.008 297.197 152.613 297.541 152.122 297.792C151.637 298.037 151.077 298.16 150.442 298.16C149.685 298.16 149.01 297.995 148.418 297.664C147.832 297.328 147.37 296.843 147.034 296.208C146.698 295.568 146.53 294.797 146.53 293.896C146.53 293.037 146.688 292.285 147.002 291.64C147.317 290.989 147.768 290.483 148.354 290.12C148.941 289.752 149.637 289.568 150.442 289.568ZM159.083 298.16C158.294 298.16 157.606 297.992 157.019 297.656C156.432 297.315 155.976 296.827 155.651 296.192C155.331 295.557 155.171 294.795 155.171 293.904C155.171 293.04 155.326 292.283 155.635 291.632C155.95 290.981 156.4 290.475 156.987 290.112C157.574 289.749 158.275 289.568 159.091 289.568C159.88 289.568 160.566 289.741 161.147 290.088C161.728 290.435 162.176 290.931 162.491 291.576C162.811 292.221 162.971 292.997 162.971 293.904C162.971 294.741 162.819 295.48 162.515 296.12C162.216 296.755 161.776 297.253 161.195 297.616C160.619 297.979 159.915 298.16 159.083 298.16ZM159.091 296.68C159.539 296.68 159.907 296.557 160.195 296.312C160.488 296.067 160.704 295.731 160.843 295.304C160.987 294.877 161.059 294.392 161.059 293.848C161.059 293.341 160.995 292.875 160.867 292.448C160.744 292.021 160.536 291.68 160.243 291.424C159.955 291.163 159.571 291.032 159.091 291.032C158.638 291.032 158.262 291.152 157.963 291.392C157.67 291.627 157.448 291.957 157.299 292.384C157.155 292.805 157.083 293.293 157.083 293.848C157.083 294.349 157.147 294.816 157.275 295.248C157.408 295.675 157.622 296.021 157.915 296.288C158.208 296.549 158.6 296.68 159.091 296.68ZM167.628 298.16C167.223 298.16 166.831 298.101 166.452 297.984C166.079 297.861 165.743 297.685 165.444 297.456C165.146 297.221 164.908 296.933 164.732 296.592C164.556 296.251 164.468 295.853 164.468 295.4V289.728H166.42V295.176C166.42 295.624 166.562 295.992 166.844 296.28C167.132 296.568 167.564 296.712 168.14 296.712C168.663 296.712 169.082 296.576 169.396 296.304C169.711 296.027 169.868 295.629 169.868 295.112V289.728H171.804V298H170.308L170.092 296.384C169.991 296.837 169.812 297.195 169.556 297.456C169.306 297.712 169.01 297.893 168.668 298C168.332 298.107 167.986 298.16 167.628 298.16ZM173.963 298V289.728H175.867V290.912C175.995 290.699 176.169 290.493 176.387 290.296C176.611 290.099 176.886 289.939 177.211 289.816C177.537 289.693 177.918 289.632 178.355 289.632C178.867 289.632 179.342 289.733 179.779 289.936C180.222 290.139 180.577 290.456 180.843 290.888C181.115 291.32 181.251 291.877 181.251 292.56V298H179.299V292.792C179.299 292.248 179.15 291.845 178.851 291.584C178.553 291.317 178.177 291.184 177.723 291.184C177.414 291.184 177.121 291.237 176.843 291.344C176.566 291.445 176.339 291.603 176.163 291.816C175.993 292.024 175.907 292.285 175.907 292.6V298H173.963ZM187.621 291.104H185.773L185.781 295.848C185.781 296.093 185.807 296.275 185.861 296.392C185.919 296.504 186.01 296.579 186.133 296.616C186.261 296.648 186.431 296.664 186.645 296.664H187.661V297.896C187.554 297.939 187.391 297.976 187.173 298.008C186.959 298.045 186.671 298.064 186.309 298.064C185.653 298.064 185.143 297.979 184.781 297.808C184.423 297.632 184.175 297.384 184.037 297.064C183.898 296.744 183.829 296.363 183.829 295.92V291.104H182.485V289.728H183.885L184.373 287.272H185.773V289.72H187.621V291.104ZM195.065 289.728V298H193.193V289.728H195.065ZM195.089 286.44V288.28H193.161V286.44H195.089ZM200.529 298.16C199.953 298.16 199.406 298.069 198.889 297.888C198.377 297.701 197.945 297.411 197.593 297.016C197.246 296.621 197.027 296.112 196.937 295.488H198.649C198.723 295.792 198.854 296.04 199.041 296.232C199.233 296.424 199.459 296.565 199.721 296.656C199.982 296.741 200.249 296.784 200.521 296.784C201.017 296.784 201.417 296.699 201.721 296.528C202.03 296.357 202.185 296.093 202.185 295.736C202.185 295.475 202.099 295.267 201.929 295.112C201.758 294.957 201.486 294.84 201.113 294.76L199.537 294.4C198.838 294.245 198.275 293.989 197.849 293.632C197.427 293.275 197.214 292.771 197.209 292.12C197.203 291.629 197.326 291.192 197.577 290.808C197.827 290.424 198.201 290.123 198.697 289.904C199.193 289.68 199.806 289.568 200.536 289.568C201.502 289.568 202.275 289.784 202.857 290.216C203.438 290.643 203.737 291.253 203.753 292.048H202.097C202.038 291.691 201.87 291.413 201.593 291.216C201.315 291.013 200.955 290.912 200.513 290.912C200.054 290.912 199.678 291 199.385 291.176C199.091 291.352 198.945 291.621 198.945 291.984C198.945 292.235 199.057 292.432 199.281 292.576C199.505 292.72 199.841 292.843 200.289 292.944L201.777 293.304C202.203 293.411 202.553 293.555 202.825 293.736C203.097 293.917 203.31 294.117 203.465 294.336C203.619 294.549 203.726 294.771 203.785 295C203.849 295.224 203.881 295.432 203.881 295.624C203.881 296.157 203.742 296.613 203.465 296.992C203.193 297.365 202.806 297.653 202.305 297.856C201.803 298.059 201.211 298.16 200.529 298.16ZM210.16 300.64C209.632 300.64 209.262 300.597 209.048 300.512C208.84 300.432 208.736 300.392 208.736 300.392V299.144L209.568 299.168C209.904 299.184 210.176 299.165 210.384 299.112C210.598 299.059 210.763 298.984 210.88 298.888C210.998 298.797 211.083 298.699 211.136 298.592C211.195 298.491 211.24 298.403 211.272 298.328L211.488 297.72L208.264 289.728H210.208L212.4 295.576L214.592 289.728H216.496L213.088 298.304C212.832 298.928 212.555 299.408 212.256 299.744C211.963 300.085 211.64 300.32 211.288 300.448C210.942 300.576 210.566 300.64 210.16 300.64ZM219.101 294.312C219.095 294.781 219.17 295.197 219.325 295.56C219.479 295.923 219.709 296.208 220.013 296.416C220.317 296.619 220.693 296.72 221.141 296.72C221.599 296.72 221.997 296.619 222.333 296.416C222.674 296.208 222.901 295.893 223.013 295.472H224.797C224.701 296.048 224.471 296.536 224.109 296.936C223.746 297.336 223.306 297.64 222.789 297.848C222.277 298.056 221.743 298.16 221.189 298.16C220.389 298.16 219.685 297.992 219.077 297.656C218.474 297.315 218.002 296.829 217.661 296.2C217.325 295.571 217.157 294.821 217.157 293.952C217.157 293.104 217.311 292.352 217.621 291.696C217.93 291.035 218.375 290.515 218.957 290.136C219.543 289.757 220.247 289.568 221.069 289.568C221.885 289.568 222.57 289.741 223.125 290.088C223.685 290.435 224.106 290.92 224.389 291.544C224.677 292.163 224.821 292.888 224.821 293.72V294.312H219.101ZM219.101 293.104H222.981C222.981 292.704 222.911 292.344 222.773 292.024C222.634 291.699 222.421 291.443 222.133 291.256C221.85 291.064 221.493 290.968 221.061 290.968C220.634 290.968 220.274 291.072 219.981 291.28C219.687 291.488 219.466 291.757 219.317 292.088C219.167 292.413 219.095 292.752 219.101 293.104ZM231.027 291.104H229.179L229.187 295.848C229.187 296.093 229.213 296.275 229.267 296.392C229.325 296.504 229.416 296.579 229.539 296.616C229.667 296.648 229.837 296.664 230.051 296.664H231.067V297.896C230.96 297.939 230.797 297.976 230.579 298.008C230.365 298.045 230.077 298.064 229.715 298.064C229.059 298.064 228.549 297.979 228.187 297.808C227.829 297.632 227.581 297.384 227.443 297.064C227.304 296.744 227.235 296.363 227.235 295.92V291.104H225.891V289.728H227.291L227.779 287.272H229.179V289.72H231.027V291.104ZM241.089 291.104H239.241L239.249 295.848C239.249 296.093 239.276 296.275 239.329 296.392C239.388 296.504 239.479 296.579 239.601 296.616C239.729 296.648 239.9 296.664 240.113 296.664H241.129V297.896C241.023 297.939 240.86 297.976 240.641 298.008C240.428 298.045 240.14 298.064 239.777 298.064C239.121 298.064 238.612 297.979 238.249 297.808C237.892 297.632 237.644 297.384 237.505 297.064C237.367 296.744 237.297 296.363 237.297 295.92V291.104H235.953V289.728H237.353L237.841 287.272H239.241V289.72H241.089V291.104ZM246.192 298.16C245.403 298.16 244.715 297.992 244.128 297.656C243.542 297.315 243.086 296.827 242.76 296.192C242.44 295.557 242.28 294.795 242.28 293.904C242.28 293.04 242.435 292.283 242.744 291.632C243.059 290.981 243.51 290.475 244.096 290.112C244.683 289.749 245.384 289.568 246.2 289.568C246.99 289.568 247.675 289.741 248.256 290.088C248.838 290.435 249.286 290.931 249.6 291.576C249.92 292.221 250.08 292.997 250.08 293.904C250.08 294.741 249.928 295.48 249.624 296.12C249.326 296.755 248.886 297.253 248.304 297.616C247.728 297.979 247.024 298.16 246.192 298.16ZM246.2 296.68C246.648 296.68 247.016 296.557 247.304 296.312C247.598 296.067 247.814 295.731 247.952 295.304C248.096 294.877 248.168 294.392 248.168 293.848C248.168 293.341 248.104 292.875 247.976 292.448C247.854 292.021 247.646 291.68 247.352 291.424C247.064 291.163 246.68 291.032 246.2 291.032C245.747 291.032 245.371 291.152 245.072 291.392C244.779 291.627 244.558 291.957 244.408 292.384C244.264 292.805 244.192 293.293 244.192 293.848C244.192 294.349 244.256 294.816 244.384 295.248C244.518 295.675 244.731 296.021 245.024 296.288C245.318 296.549 245.71 296.68 246.2 296.68ZM259.628 298.16C259.186 298.16 258.807 298.101 258.492 297.984C258.178 297.867 257.914 297.715 257.7 297.528C257.492 297.341 257.324 297.141 257.196 296.928C257.074 296.709 256.98 296.501 256.916 296.304L256.692 298H255.26V286.112H257.212V290.936C257.298 290.776 257.415 290.616 257.564 290.456C257.719 290.296 257.906 290.149 258.124 290.016C258.343 289.883 258.591 289.776 258.868 289.696C259.151 289.611 259.463 289.568 259.804 289.568C260.834 289.568 261.647 289.933 262.244 290.664C262.842 291.395 263.14 292.448 263.14 293.824C263.14 294.693 263.007 295.453 262.74 296.104C262.479 296.755 262.087 297.261 261.564 297.624C261.047 297.981 260.402 298.16 259.628 298.16ZM259.228 296.728C259.81 296.728 260.287 296.496 260.66 296.032C261.034 295.568 261.22 294.816 261.22 293.776C261.22 292.869 261.044 292.184 260.692 291.72C260.34 291.251 259.844 291.016 259.204 291.016C258.746 291.016 258.37 291.12 258.076 291.328C257.788 291.536 257.572 291.845 257.428 292.256C257.29 292.667 257.218 293.173 257.212 293.776C257.212 294.832 257.372 295.589 257.692 296.048C258.018 296.501 258.53 296.728 259.228 296.728ZM266.398 294.312C266.392 294.781 266.467 295.197 266.622 295.56C266.776 295.923 267.006 296.208 267.31 296.416C267.614 296.619 267.99 296.72 268.438 296.72C268.896 296.72 269.294 296.619 269.63 296.416C269.971 296.208 270.198 295.893 270.31 295.472H272.094C271.998 296.048 271.768 296.536 271.406 296.936C271.043 297.336 270.603 297.64 270.086 297.848C269.574 298.056 269.04 298.16 268.486 298.16C267.686 298.16 266.982 297.992 266.374 297.656C265.771 297.315 265.299 296.829 264.958 296.2C264.622 295.571 264.454 294.821 264.454 293.952C264.454 293.104 264.608 292.352 264.918 291.696C265.227 291.035 265.672 290.515 266.254 290.136C266.84 289.757 267.544 289.568 268.366 289.568C269.182 289.568 269.867 289.741 270.422 290.088C270.982 290.435 271.403 290.92 271.686 291.544C271.974 292.163 272.118 292.888 272.118 293.72V294.312H266.398ZM266.398 293.104H270.278C270.278 292.704 270.208 292.344 270.07 292.024C269.931 291.699 269.718 291.443 269.43 291.256C269.147 291.064 268.79 290.968 268.358 290.968C267.931 290.968 267.571 291.072 267.278 291.28C266.984 291.488 266.763 291.757 266.614 292.088C266.464 292.413 266.392 292.752 266.398 293.104ZM284.123 289.728L281.075 298H279.539L276.483 289.728H278.267L280.251 295.52H280.355L282.331 289.728H284.123ZM286.726 294.312C286.72 294.781 286.795 295.197 286.95 295.56C287.104 295.923 287.334 296.208 287.638 296.416C287.942 296.619 288.318 296.72 288.766 296.72C289.224 296.72 289.622 296.619 289.958 296.416C290.299 296.208 290.526 295.893 290.638 295.472H292.422C292.326 296.048 292.096 296.536 291.734 296.936C291.371 297.336 290.931 297.64 290.414 297.848C289.902 298.056 289.368 298.16 288.814 298.16C288.014 298.16 287.31 297.992 286.702 297.656C286.099 297.315 285.627 296.829 285.286 296.2C284.95 295.571 284.782 294.821 284.782 293.952C284.782 293.104 284.936 292.352 285.246 291.696C285.555 291.035 286 290.515 286.582 290.136C287.168 289.757 287.872 289.568 288.694 289.568C289.51 289.568 290.195 289.741 290.75 290.088C291.31 290.435 291.731 290.92 292.014 291.544C292.302 292.163 292.446 292.888 292.446 293.72V294.312H286.726ZM286.726 293.104H290.606C290.606 292.704 290.536 292.344 290.398 292.024C290.259 291.699 290.046 291.443 289.758 291.256C289.475 291.064 289.118 290.968 288.686 290.968C288.259 290.968 287.899 291.072 287.606 291.28C287.312 291.488 287.091 291.757 286.942 292.088C286.792 292.413 286.72 292.752 286.726 293.104ZM294.26 298V289.728H296.124V291.52C296.258 291.109 296.447 290.76 296.692 290.472C296.943 290.179 297.236 289.955 297.572 289.8C297.908 289.645 298.274 289.568 298.668 289.568C298.764 289.568 298.858 289.573 298.948 289.584C299.039 289.595 299.106 289.613 299.148 289.64V291.504C299.09 291.477 299.012 291.459 298.916 291.448C298.826 291.437 298.746 291.432 298.676 291.432C298.276 291.4 297.922 291.416 297.612 291.48C297.308 291.544 297.05 291.653 296.836 291.808C296.628 291.957 296.471 292.149 296.364 292.384C296.258 292.613 296.204 292.883 296.204 293.192V298H294.26ZM302.643 289.728V298H300.771V289.728H302.643ZM302.667 286.44V288.28H300.739V286.44H302.667ZM309.867 289.728V291.104H308.003V298H306.059V291.104H304.427V289.728H306.059V288.496C306.059 287.835 306.24 287.325 306.603 286.968C306.971 286.611 307.501 286.432 308.195 286.432H309.939L309.947 287.76H308.795C308.48 287.76 308.264 287.843 308.147 288.008C308.029 288.168 307.971 288.421 307.971 288.768V289.728H309.867ZM313.459 289.728V298H311.587V289.728H313.459ZM313.483 286.44V288.28H311.555V286.44H313.483ZM317.32 294.312C317.314 294.781 317.389 295.197 317.544 295.56C317.698 295.923 317.928 296.208 318.232 296.416C318.536 296.619 318.912 296.72 319.36 296.72C319.818 296.72 320.216 296.619 320.552 296.416C320.893 296.208 321.12 295.893 321.232 295.472H323.016C322.92 296.048 322.69 296.536 322.328 296.936C321.965 297.336 321.525 297.64 321.008 297.848C320.496 298.056 319.962 298.16 319.408 298.16C318.608 298.16 317.904 297.992 317.296 297.656C316.693 297.315 316.221 296.829 315.88 296.2C315.544 295.571 315.376 294.821 315.376 293.952C315.376 293.104 315.53 292.352 315.84 291.696C316.149 291.035 316.594 290.515 317.176 290.136C317.762 289.757 318.466 289.568 319.288 289.568C320.104 289.568 320.789 289.741 321.344 290.088C321.904 290.435 322.325 290.92 322.608 291.544C322.896 292.163 323.04 292.888 323.04 293.72V294.312H317.32ZM317.32 293.104H321.2C321.2 292.704 321.13 292.344 320.992 292.024C320.853 291.699 320.64 291.443 320.352 291.256C320.069 291.064 319.712 290.968 319.28 290.968C318.853 290.968 318.493 291.072 318.2 291.28C317.906 291.488 317.685 291.757 317.536 292.088C317.386 292.413 317.314 292.752 317.32 293.104ZM327.886 298.16C326.793 298.16 325.934 297.784 325.31 297.032C324.686 296.28 324.374 295.211 324.374 293.824C324.374 292.96 324.499 292.211 324.75 291.576C325.006 290.936 325.379 290.443 325.87 290.096C326.366 289.744 326.979 289.568 327.71 289.568C328.051 289.568 328.361 289.611 328.638 289.696C328.921 289.776 329.171 289.883 329.39 290.016C329.609 290.149 329.793 290.296 329.942 290.456C330.097 290.616 330.217 290.776 330.302 290.936V286.112H332.254V298H330.814L330.598 296.304C330.534 296.501 330.438 296.709 330.31 296.928C330.187 297.141 330.019 297.341 329.806 297.528C329.598 297.715 329.337 297.867 329.022 297.984C328.707 298.101 328.329 298.16 327.886 298.16ZM328.286 296.728C328.985 296.728 329.494 296.501 329.814 296.048C330.139 295.589 330.302 294.832 330.302 293.776C330.297 293.173 330.222 292.667 330.078 292.256C329.939 291.845 329.723 291.536 329.43 291.328C329.142 291.12 328.769 291.016 328.31 291.016C327.723 291.016 327.241 291.232 326.862 291.664C326.483 292.096 326.294 292.8 326.294 293.776C326.294 294.747 326.467 295.483 326.814 295.984C327.161 296.48 327.651 296.728 328.286 296.728ZM334.191 298V295.76H336.391V298H334.191Z" fill="#3E3E3E"/>
<rect x="95.25" y="351.25" width="237.5" height="48.5" rx="2.75" fill="#40923A"/>
<path d="M128.46 381H126.036L124.156 376.544H121.812V381H119.484V369.432H124.364C125.286 369.432 126.041 369.579 126.628 369.872C127.214 370.165 127.646 370.573 127.924 371.096C128.201 371.613 128.34 372.211 128.34 372.888C128.34 373.496 128.244 374.011 128.052 374.432C127.865 374.848 127.617 375.195 127.308 375.472C127.004 375.749 126.67 375.976 126.308 376.152L128.46 381ZM123.948 374.744C124.572 374.744 125.065 374.576 125.428 374.24C125.796 373.904 125.98 373.472 125.98 372.944C125.98 372.411 125.804 371.989 125.452 371.68C125.1 371.371 124.654 371.216 124.116 371.216H121.812V374.744H123.948ZM131.951 377.4C131.946 377.821 132.013 378.189 132.151 378.504C132.29 378.813 132.49 379.053 132.751 379.224C133.018 379.389 133.338 379.472 133.711 379.472C134.111 379.472 134.461 379.387 134.759 379.216C135.063 379.045 135.274 378.765 135.391 378.376H137.495C137.405 378.963 137.17 379.464 136.791 379.88C136.418 380.296 135.965 380.613 135.431 380.832C134.898 381.051 134.343 381.16 133.767 381.16C132.951 381.16 132.231 380.989 131.607 380.648C130.989 380.301 130.506 379.813 130.159 379.184C129.813 378.555 129.639 377.813 129.639 376.96C129.639 376.133 129.797 375.389 130.111 374.728C130.426 374.061 130.882 373.536 131.479 373.152C132.082 372.763 132.805 372.568 133.647 372.568C134.49 372.568 135.197 372.747 135.767 373.104C136.343 373.456 136.775 373.949 137.063 374.584C137.357 375.213 137.503 375.941 137.503 376.768V377.4H131.951ZM131.943 376.008H135.319C135.319 375.677 135.258 375.373 135.135 375.096C135.013 374.819 134.826 374.6 134.575 374.44C134.33 374.28 134.021 374.2 133.647 374.2C133.285 374.2 132.975 374.288 132.719 374.464C132.469 374.635 132.277 374.859 132.143 375.136C132.01 375.413 131.943 375.704 131.943 376.008ZM142.381 381.16C141.805 381.16 141.251 381.067 140.717 380.88C140.184 380.688 139.733 380.389 139.365 379.984C138.997 379.573 138.763 379.043 138.661 378.392H140.685C140.755 378.685 140.88 378.917 141.061 379.088C141.248 379.259 141.459 379.381 141.693 379.456C141.928 379.525 142.152 379.56 142.365 379.56C142.813 379.56 143.173 379.491 143.445 379.352C143.723 379.208 143.861 378.989 143.861 378.696C143.861 378.472 143.779 378.293 143.613 378.16C143.453 378.027 143.187 377.925 142.813 377.856L141.357 377.552C140.627 377.397 140.04 377.136 139.597 376.768C139.155 376.395 138.928 375.867 138.917 375.184C138.917 374.688 139.048 374.243 139.309 373.848C139.576 373.453 139.968 373.141 140.485 372.912C141.003 372.683 141.637 372.568 142.389 372.568C143.408 372.568 144.221 372.792 144.829 373.24C145.443 373.688 145.755 374.32 145.765 375.136H143.813C143.755 374.816 143.595 374.571 143.333 374.4C143.077 374.224 142.755 374.136 142.365 374.136C141.96 374.136 141.627 374.208 141.365 374.352C141.104 374.496 140.973 374.715 140.973 375.008C140.973 375.227 141.08 375.4 141.293 375.528C141.507 375.651 141.837 375.757 142.285 375.848L143.629 376.152C144.093 376.264 144.469 376.419 144.757 376.616C145.051 376.808 145.277 377.019 145.437 377.248C145.597 377.477 145.707 377.709 145.765 377.944C145.829 378.173 145.861 378.381 145.861 378.568C145.861 379.117 145.715 379.587 145.421 379.976C145.128 380.36 144.72 380.653 144.197 380.856C143.675 381.059 143.069 381.16 142.381 381.16ZM149.42 377.4C149.415 377.821 149.481 378.189 149.62 378.504C149.759 378.813 149.959 379.053 150.22 379.224C150.487 379.389 150.807 379.472 151.18 379.472C151.58 379.472 151.929 379.387 152.228 379.216C152.532 379.045 152.743 378.765 152.86 378.376H154.964C154.873 378.963 154.639 379.464 154.26 379.88C153.887 380.296 153.433 380.613 152.9 380.832C152.367 381.051 151.812 381.16 151.236 381.16C150.42 381.16 149.7 380.989 149.076 380.648C148.457 380.301 147.975 379.813 147.628 379.184C147.281 378.555 147.108 377.813 147.108 376.96C147.108 376.133 147.265 375.389 147.58 374.728C147.895 374.061 148.351 373.536 148.948 373.152C149.551 372.763 150.273 372.568 151.116 372.568C151.959 372.568 152.665 372.747 153.236 373.104C153.812 373.456 154.244 373.949 154.532 374.584C154.825 375.213 154.972 375.941 154.972 376.768V377.4H149.42ZM149.412 376.008H152.788C152.788 375.677 152.727 375.373 152.604 375.096C152.481 374.819 152.295 374.6 152.044 374.44C151.799 374.28 151.489 374.2 151.116 374.2C150.753 374.2 150.444 374.288 150.188 374.464C149.937 374.635 149.745 374.859 149.612 375.136C149.479 375.413 149.412 375.704 149.412 376.008ZM156.594 381V372.728H158.89V373.896C159.018 373.693 159.183 373.499 159.386 373.312C159.594 373.12 159.855 372.963 160.17 372.84C160.484 372.717 160.858 372.656 161.29 372.656C161.796 372.656 162.268 372.755 162.706 372.952C163.148 373.149 163.506 373.461 163.778 373.888C164.05 374.309 164.186 374.861 164.186 375.544V381H161.85V375.832C161.85 375.384 161.716 375.048 161.45 374.824C161.183 374.6 160.858 374.488 160.474 374.488C160.218 374.488 159.97 374.533 159.73 374.624C159.495 374.715 159.303 374.851 159.154 375.032C159.004 375.213 158.93 375.437 158.93 375.704V381H156.594ZM169.15 381.16C168.041 381.16 167.177 380.779 166.558 380.016C165.939 379.248 165.63 378.181 165.63 376.816C165.63 375.952 165.755 375.203 166.006 374.568C166.257 373.933 166.627 373.443 167.118 373.096C167.609 372.744 168.209 372.568 168.918 372.568C169.217 372.568 169.494 372.603 169.75 372.672C170.011 372.736 170.249 372.827 170.462 372.944C170.675 373.061 170.862 373.197 171.022 373.352C171.182 373.507 171.313 373.672 171.414 373.848V369.112H173.758V381H172.062L171.798 379.304C171.723 379.533 171.619 379.757 171.486 379.976C171.353 380.195 171.182 380.395 170.974 380.576C170.766 380.752 170.51 380.893 170.206 381C169.907 381.107 169.555 381.16 169.15 381.16ZM169.662 379.48C170.249 379.48 170.686 379.275 170.974 378.864C171.267 378.453 171.414 377.76 171.414 376.784C171.409 376.219 171.342 375.749 171.214 375.376C171.086 375.003 170.894 374.725 170.638 374.544C170.387 374.357 170.067 374.264 169.678 374.264C169.171 374.264 168.75 374.459 168.414 374.848C168.078 375.232 167.91 375.877 167.91 376.784C167.91 377.707 168.067 378.387 168.382 378.824C168.697 379.261 169.123 379.48 169.662 379.48ZM186.221 372.728L183.117 381H181.429L178.317 372.728H180.429L182.237 378H182.301L184.085 372.728H186.221ZM188.998 377.4C188.993 377.821 189.059 378.189 189.198 378.504C189.337 378.813 189.537 379.053 189.798 379.224C190.065 379.389 190.385 379.472 190.758 379.472C191.158 379.472 191.507 379.387 191.806 379.216C192.11 379.045 192.321 378.765 192.438 378.376H194.542C194.451 378.963 194.217 379.464 193.838 379.88C193.465 380.296 193.011 380.613 192.478 380.832C191.945 381.051 191.39 381.16 190.814 381.16C189.998 381.16 189.278 380.989 188.654 380.648C188.035 380.301 187.553 379.813 187.206 379.184C186.859 378.555 186.686 377.813 186.686 376.96C186.686 376.133 186.843 375.389 187.158 374.728C187.473 374.061 187.929 373.536 188.526 373.152C189.129 372.763 189.851 372.568 190.694 372.568C191.537 372.568 192.243 372.747 192.814 373.104C193.39 373.456 193.822 373.949 194.11 374.584C194.403 375.213 194.55 375.941 194.55 376.768V377.4H188.998ZM188.99 376.008H192.366C192.366 375.677 192.305 375.373 192.182 375.096C192.059 374.819 191.873 374.6 191.622 374.44C191.377 374.28 191.067 374.2 190.694 374.2C190.331 374.2 190.022 374.288 189.766 374.464C189.515 374.635 189.323 374.859 189.19 375.136C189.057 375.413 188.99 375.704 188.99 376.008ZM196.172 381V372.728H198.42V374.688C198.553 374.267 198.74 373.899 198.98 373.584C199.225 373.264 199.521 373.016 199.868 372.84C200.215 372.659 200.607 372.568 201.044 372.568C201.119 372.568 201.188 372.573 201.252 372.584C201.321 372.589 201.372 372.6 201.404 372.616V374.84C201.356 374.819 201.297 374.805 201.228 374.8C201.164 374.795 201.105 374.789 201.052 374.784C200.593 374.747 200.201 374.76 199.876 374.824C199.551 374.888 199.287 374.997 199.084 375.152C198.881 375.307 198.735 375.496 198.644 375.72C198.553 375.944 198.508 376.195 198.508 376.472V381H196.172ZM205.024 372.728V381H202.792V372.728H205.024ZM205.048 369.44V371.544H202.776V369.44H205.048ZM212.189 372.728V374.352H210.445V381H208.109V374.352H206.581V372.728H208.109V371.536C208.109 370.869 208.303 370.352 208.693 369.984C209.087 369.616 209.645 369.432 210.365 369.432H212.261L212.269 370.984H211.181C210.882 370.984 210.677 371.059 210.565 371.208C210.458 371.352 210.405 371.592 210.405 371.928V372.728H212.189ZM215.909 372.728V381H213.677V372.728H215.909ZM215.933 369.44V371.544H213.661V369.44H215.933ZM221.575 372.568C222.269 372.568 222.866 372.709 223.367 372.992C223.874 373.275 224.271 373.656 224.559 374.136C224.853 374.616 225.021 375.152 225.063 375.744H223.119C223.082 375.525 223.005 375.309 222.887 375.096C222.77 374.877 222.605 374.699 222.391 374.56C222.178 374.416 221.911 374.344 221.591 374.344C221.047 374.344 220.605 374.555 220.263 374.976C219.927 375.392 219.759 376.027 219.759 376.88C219.759 377.685 219.925 378.325 220.255 378.8C220.586 379.269 221.047 379.504 221.639 379.504C221.954 379.504 222.215 379.427 222.423 379.272C222.637 379.117 222.802 378.933 222.919 378.72C223.037 378.501 223.111 378.299 223.143 378.112H225.039C225.002 378.683 224.837 379.2 224.543 379.664C224.25 380.123 223.85 380.488 223.343 380.76C222.842 381.027 222.253 381.16 221.575 381.16C220.807 381.16 220.122 380.989 219.519 380.648C218.917 380.307 218.442 379.819 218.095 379.184C217.754 378.544 217.583 377.781 217.583 376.896C217.583 376.043 217.749 375.291 218.079 374.64C218.41 373.989 218.874 373.483 219.471 373.12C220.074 372.752 220.775 372.568 221.575 372.568ZM229.025 381.16C228.497 381.16 228.022 381.061 227.601 380.864C227.18 380.667 226.846 380.381 226.601 380.008C226.356 379.629 226.233 379.171 226.233 378.632C226.233 377.725 226.572 377.037 227.249 376.568C227.926 376.093 228.996 375.848 230.457 375.832L231.489 375.816V375.32C231.489 374.941 231.377 374.651 231.153 374.448C230.934 374.24 230.593 374.139 230.129 374.144C229.788 374.149 229.462 374.229 229.153 374.384C228.849 374.539 228.641 374.808 228.529 375.192H226.585C226.617 374.595 226.79 374.104 227.105 373.72C227.42 373.331 227.846 373.043 228.385 372.856C228.929 372.664 229.545 372.568 230.233 372.568C231.081 372.568 231.761 372.675 232.273 372.888C232.785 373.096 233.156 373.397 233.385 373.792C233.614 374.181 233.729 374.645 233.729 375.184V381H231.777L231.585 379.576C231.302 380.173 230.948 380.587 230.521 380.816C230.1 381.045 229.601 381.16 229.025 381.16ZM229.809 379.624C230.022 379.624 230.228 379.587 230.425 379.512C230.628 379.432 230.806 379.328 230.961 379.2C231.121 379.067 231.249 378.917 231.345 378.752C231.441 378.587 231.489 378.416 231.489 378.24V377.016L230.649 377.032C230.26 377.037 229.897 377.085 229.561 377.176C229.225 377.261 228.953 377.403 228.745 377.6C228.542 377.797 228.441 378.064 228.441 378.4C228.441 378.784 228.574 379.085 228.841 379.304C229.108 379.517 229.43 379.624 229.809 379.624ZM240.478 374.352H238.638L238.654 378.76C238.654 378.963 238.678 379.115 238.726 379.216C238.779 379.312 238.859 379.376 238.966 379.408C239.078 379.435 239.219 379.448 239.39 379.448H240.502V380.888C240.395 380.936 240.227 380.981 239.998 381.024C239.774 381.067 239.459 381.088 239.054 381.088C238.328 381.088 237.766 380.995 237.366 380.808C236.971 380.621 236.696 380.36 236.542 380.024C236.387 379.688 236.31 379.299 236.31 378.856V374.352H234.965V372.728H236.39L236.974 370.232H238.638V372.72H240.478V374.352ZM244.555 372.728V381H242.323V372.728H244.555ZM244.579 369.44V371.544H242.307V369.44H244.579ZM250.224 381.16C249.413 381.16 248.707 380.987 248.104 380.64C247.507 380.293 247.043 379.803 246.712 379.168C246.387 378.533 246.224 377.781 246.224 376.912C246.224 376.043 246.387 375.283 246.712 374.632C247.043 373.981 247.507 373.475 248.104 373.112C248.707 372.749 249.416 372.568 250.232 372.568C251.048 372.568 251.755 372.747 252.352 373.104C252.949 373.456 253.411 373.957 253.736 374.608C254.061 375.259 254.224 376.027 254.224 376.912C254.224 377.744 254.064 378.48 253.744 379.12C253.429 379.755 252.973 380.253 252.376 380.616C251.784 380.979 251.067 381.16 250.224 381.16ZM250.232 379.424C250.643 379.424 250.973 379.304 251.224 379.064C251.475 378.824 251.656 378.509 251.768 378.12C251.885 377.725 251.944 377.296 251.944 376.832C251.944 376.395 251.891 375.981 251.784 375.592C251.683 375.203 251.507 374.888 251.256 374.648C251.005 374.408 250.664 374.288 250.232 374.288C249.821 374.288 249.488 374.403 249.232 374.632C248.981 374.856 248.797 375.163 248.68 375.552C248.563 375.936 248.504 376.363 248.504 376.832C248.504 377.264 248.557 377.68 248.664 378.08C248.771 378.475 248.949 378.797 249.2 379.048C249.451 379.299 249.795 379.424 250.232 379.424ZM255.781 381V372.728H258.077V373.896C258.205 373.693 258.371 373.499 258.573 373.312C258.781 373.12 259.043 372.963 259.357 372.84C259.672 372.717 260.045 372.656 260.477 372.656C260.984 372.656 261.456 372.755 261.893 372.952C262.336 373.149 262.693 373.461 262.965 373.888C263.237 374.309 263.373 374.861 263.373 375.544V381H261.037V375.832C261.037 375.384 260.904 375.048 260.637 374.824C260.371 374.6 260.045 374.488 259.661 374.488C259.405 374.488 259.157 374.533 258.917 374.624C258.683 374.715 258.491 374.851 258.341 375.032C258.192 375.213 258.117 375.437 258.117 375.704V381H255.781ZM270.483 377.4C270.477 377.821 270.544 378.189 270.683 378.504C270.821 378.813 271.021 379.053 271.283 379.224C271.549 379.389 271.869 379.472 272.243 379.472C272.643 379.472 272.992 379.387 273.291 379.216C273.595 379.045 273.805 378.765 273.923 378.376H276.027C275.936 378.963 275.701 379.464 275.323 379.88C274.949 380.296 274.496 380.613 273.963 380.832C273.429 381.051 272.875 381.16 272.299 381.16C271.483 381.16 270.763 380.989 270.139 380.648C269.52 380.301 269.037 379.813 268.691 379.184C268.344 378.555 268.171 377.813 268.171 376.96C268.171 376.133 268.328 375.389 268.643 374.728C268.957 374.061 269.413 373.536 270.011 373.152C270.613 372.763 271.336 372.568 272.179 372.568C273.021 372.568 273.728 372.747 274.299 373.104C274.875 373.456 275.307 373.949 275.595 374.584C275.888 375.213 276.035 375.941 276.035 376.768V377.4H270.483ZM270.475 376.008H273.851C273.851 375.677 273.789 375.373 273.667 375.096C273.544 374.819 273.357 374.6 273.107 374.44C272.861 374.28 272.552 374.2 272.179 374.2C271.816 374.2 271.507 374.288 271.251 374.464C271 374.635 270.808 374.859 270.675 375.136C270.541 375.413 270.475 375.704 270.475 376.008ZM277.656 381V372.728H279.944V373.896C280.195 373.533 280.531 373.221 280.952 372.96C281.379 372.699 281.915 372.568 282.56 372.568C282.843 372.568 283.131 372.619 283.424 372.72C283.718 372.821 283.992 372.971 284.248 373.168C284.51 373.36 284.72 373.603 284.88 373.896C285.147 373.517 285.496 373.203 285.928 372.952C286.366 372.696 286.851 372.568 287.384 372.568C287.694 372.568 288.006 372.619 288.32 372.72C288.64 372.821 288.934 372.987 289.2 373.216C289.467 373.445 289.68 373.752 289.84 374.136C290.006 374.515 290.088 374.984 290.088 375.544V381H287.752V375.832C287.752 375.501 287.686 375.237 287.552 375.04C287.424 374.837 287.259 374.693 287.056 374.608C286.859 374.517 286.648 374.472 286.424 374.472C286.216 374.472 286.006 374.515 285.792 374.6C285.579 374.68 285.398 374.811 285.248 374.992C285.099 375.173 285.024 375.411 285.024 375.704V381H282.696V375.624C282.696 375.373 282.63 375.163 282.496 374.992C282.363 374.821 282.195 374.693 281.992 374.608C281.795 374.517 281.592 374.472 281.384 374.472C281.171 374.472 280.958 374.517 280.744 374.608C280.531 374.693 280.352 374.829 280.208 375.016C280.064 375.197 279.992 375.427 279.992 375.704V381H277.656ZM294.322 381.16C293.794 381.16 293.319 381.061 292.898 380.864C292.477 380.667 292.143 380.381 291.898 380.008C291.653 379.629 291.53 379.171 291.53 378.632C291.53 377.725 291.869 377.037 292.546 376.568C293.223 376.093 294.293 375.848 295.754 375.832L296.786 375.816V375.32C296.786 374.941 296.674 374.651 296.45 374.448C296.231 374.24 295.89 374.139 295.426 374.144C295.085 374.149 294.759 374.229 294.45 374.384C294.146 374.539 293.938 374.808 293.826 375.192H291.882C291.914 374.595 292.087 374.104 292.402 373.72C292.717 373.331 293.143 373.043 293.682 372.856C294.226 372.664 294.842 372.568 295.53 372.568C296.378 372.568 297.058 372.675 297.57 372.888C298.082 373.096 298.453 373.397 298.682 373.792C298.911 374.181 299.026 374.645 299.026 375.184V381H297.074L296.882 379.576C296.599 380.173 296.245 380.587 295.818 380.816C295.397 381.045 294.898 381.16 294.322 381.16ZM295.106 379.624C295.319 379.624 295.525 379.587 295.722 379.512C295.925 379.432 296.103 379.328 296.258 379.2C296.418 379.067 296.546 378.917 296.642 378.752C296.738 378.587 296.786 378.416 296.786 378.24V377.016L295.946 377.032C295.557 377.037 295.194 377.085 294.858 377.176C294.522 377.261 294.25 377.403 294.042 377.6C293.839 377.797 293.738 378.064 293.738 378.4C293.738 378.784 293.871 379.085 294.138 379.304C294.405 379.517 294.727 379.624 295.106 379.624ZM303.446 372.728V381H301.214V372.728H303.446ZM303.47 369.44V371.544H301.198V369.44H303.47ZM308.249 381.144C307.641 381.144 307.159 381.072 306.801 380.928C306.444 380.784 306.18 380.595 306.009 380.36C305.839 380.12 305.729 379.856 305.681 379.568C305.633 379.275 305.609 378.979 305.609 378.68V369.112H307.897V378.392C307.897 378.696 307.961 378.944 308.089 379.136C308.223 379.323 308.471 379.437 308.833 379.48L309.225 379.504V380.944C309.065 380.997 308.903 381.043 308.737 381.08C308.572 381.123 308.409 381.144 308.249 381.144Z" fill="white"/>
<rect x="95.25" y="351.25" width="237.5" height="48.5" rx="2.75" stroke="#21671C" stroke-width="2.5"/>
<defs>
<filter id="filter0_d_520_2234" x="77.5" y="820.5" width="279" height="71" filterUnits="userSpaceOnUse" color-interpolation-filters="sRGB">
<feFlood flood-opacity="0" result="BackgroundImageFix"/>
<feColorMatrix in="SourceAlpha" type="matrix" values="0 0 0 0 0 0 0 0 0 0 0 0 0 0 0 0 0 0 127 0" result="hardAlpha"/>
<feOffset dx="3" dy="4"/>
<feGaussianBlur stdDeviation="3.75"/>
<feComposite in2="hardAlpha" operator="out"/>
<feColorMatrix type="matrix" values="0 0 0 0 0.529412 0 0 0 0 0.462745 0 0 0 0 0.341176 0 0 0 0.3 0"/>
<feBlend mode="normal" in2="BackgroundImageFix" result="effect1_dropShadow_520_2234"/>
<feBlend mode="normal" in="SourceGraphic" in2="effect1_dropShadow_520_2234" result="shape"/>
</filter>
<clipPath id="clip0_520_2234">
<rect width="119" height="119" fill="white" transform="translate(155 22)"/>
</clipPath>
</defs>
</svg>
