<svg width="428" height="926" viewBox="0 0 428 926" fill="none" xmlns="http://www.w3.org/2000/svg">
<rect width="428" height="926" fill="#F8F2E9"/>
<path d="M50.3334 179V168.878H57.0254L57.0184 170.341H52.0484V173.176H56.4374V174.618H52.0344V177.516L57.1234 177.523V179H50.3334ZM58.756 179V171.762H60.422V172.798C60.534 172.611 60.6857 172.432 60.877 172.259C61.073 172.086 61.3134 171.946 61.598 171.839C61.8827 171.732 62.2164 171.678 62.599 171.678C63.047 171.678 63.4624 171.767 63.845 171.944C64.2324 172.121 64.5427 172.399 64.776 172.777C65.014 173.155 65.133 173.643 65.133 174.24V179H63.425V174.443C63.425 173.967 63.2944 173.615 63.033 173.386C62.7717 173.153 62.4427 173.036 62.046 173.036C61.7754 173.036 61.5187 173.083 61.276 173.176C61.0334 173.265 60.835 173.402 60.681 173.589C60.5317 173.771 60.457 174 60.457 174.275V179H58.756ZM70.706 172.966H69.089L69.096 177.117C69.096 177.332 69.1194 177.49 69.166 177.593C69.2174 177.691 69.2967 177.756 69.404 177.789C69.516 177.817 69.6654 177.831 69.852 177.831H70.741V178.909C70.6477 178.946 70.5054 178.979 70.314 179.007C70.1274 179.04 69.8754 179.056 69.558 179.056C68.984 179.056 68.5384 178.981 68.221 178.832C67.9084 178.678 67.6914 178.461 67.57 178.181C67.4487 177.901 67.388 177.567 67.388 177.18V172.966H66.212V171.762H67.437L67.864 169.613H69.089V171.755H70.706V172.966ZM73.5051 175.773C73.5005 176.184 73.5658 176.548 73.7011 176.865C73.8365 177.182 74.0371 177.432 74.3031 177.614C74.5691 177.791 74.8981 177.88 75.2901 177.88C75.6915 177.88 76.0391 177.791 76.3331 177.614C76.6318 177.432 76.8301 177.157 76.9281 176.788H78.4891C78.4051 177.292 78.2045 177.719 77.8871 178.069C77.5698 178.419 77.1848 178.685 76.7321 178.867C76.2841 179.049 75.8175 179.14 75.3321 179.14C74.6321 179.14 74.0161 178.993 73.4841 178.699C72.9568 178.4 72.5438 177.976 72.2451 177.425C71.9511 176.874 71.8041 176.219 71.8041 175.458C71.8041 174.716 71.9395 174.058 72.2101 173.484C72.4808 172.905 72.8705 172.45 73.3791 172.119C73.8925 171.788 74.5085 171.622 75.2271 171.622C75.9411 171.622 76.5408 171.774 77.0261 172.077C77.5161 172.38 77.8848 172.805 78.1321 173.351C78.3841 173.892 78.5101 174.527 78.5101 175.255V175.773H73.5051ZM73.5051 174.716H76.9001C76.9001 174.366 76.8395 174.051 76.7181 173.771C76.5968 173.486 76.4101 173.262 76.1581 173.099C75.9108 172.931 75.5981 172.847 75.2201 172.847C74.8468 172.847 74.5318 172.938 74.2751 173.12C74.0185 173.302 73.8248 173.538 73.6941 173.827C73.5635 174.112 73.5005 174.408 73.5051 174.716ZM80.0978 179V171.762H81.7288V173.33C81.8455 172.971 82.0112 172.665 82.2258 172.413C82.4452 172.156 82.7018 171.96 82.9958 171.825C83.2898 171.69 83.6095 171.622 83.9548 171.622C84.0388 171.622 84.1205 171.627 84.1998 171.636C84.2792 171.645 84.3375 171.662 84.3748 171.685V173.316C84.3235 173.293 84.2558 173.276 84.1718 173.267C84.0925 173.258 84.0225 173.253 83.9618 173.253C83.6118 173.225 83.3015 173.239 83.0308 173.295C82.7648 173.351 82.5385 173.447 82.3518 173.582C82.1698 173.713 82.0322 173.881 81.9388 174.086C81.8455 174.287 81.7988 174.522 81.7988 174.793V179H80.0978ZM88.7658 179V171.762H90.4318V172.798C90.5438 172.611 90.6955 172.432 90.8868 172.259C91.0828 172.086 91.3231 171.946 91.6078 171.839C91.8925 171.732 92.2261 171.678 92.6088 171.678C93.0568 171.678 93.4721 171.767 93.8548 171.944C94.2421 172.121 94.5525 172.399 94.7858 172.777C95.0238 173.155 95.1428 173.643 95.1428 174.24V179H93.4348V174.443C93.4348 173.967 93.3041 173.615 93.0428 173.386C92.7815 173.153 92.4525 173.036 92.0558 173.036C91.7851 173.036 91.5285 173.083 91.2858 173.176C91.0431 173.265 90.8448 173.402 90.6908 173.589C90.5415 173.771 90.4668 174 90.4668 174.275V179H88.7658ZM98.3059 175.773C98.3013 176.184 98.3666 176.548 98.5019 176.865C98.6373 177.182 98.8379 177.432 99.1039 177.614C99.3699 177.791 99.6989 177.88 100.091 177.88C100.492 177.88 100.84 177.791 101.134 177.614C101.433 177.432 101.631 177.157 101.729 176.788H103.29C103.206 177.292 103.005 177.719 102.688 178.069C102.371 178.419 101.986 178.685 101.533 178.867C101.085 179.049 100.618 179.14 100.133 179.14C99.4329 179.14 98.8169 178.993 98.2849 178.699C97.7576 178.4 97.3446 177.976 97.0459 177.425C96.7519 176.874 96.6049 176.219 96.6049 175.458C96.6049 174.716 96.7403 174.058 97.0109 173.484C97.2816 172.905 97.6713 172.45 98.1799 172.119C98.6933 171.788 99.3093 171.622 100.028 171.622C100.742 171.622 101.342 171.774 101.827 172.077C102.317 172.38 102.686 172.805 102.933 173.351C103.185 173.892 103.311 174.527 103.311 175.255V175.773H98.3059ZM98.3059 174.716H101.701C101.701 174.366 101.64 174.051 101.519 173.771C101.398 173.486 101.211 173.262 100.959 173.099C100.712 172.931 100.399 172.847 100.021 172.847C99.6476 172.847 99.3326 172.938 99.0759 173.12C98.8193 173.302 98.6256 173.538 98.4949 173.827C98.3643 174.112 98.3013 174.408 98.3059 174.716ZM114.397 171.762L112.101 179H110.631L109.147 174.177L107.698 179H106.263L103.967 171.762H105.5L107.012 176.739H107.089L108.552 171.762H109.798L111.303 176.732H111.38L112.836 171.762H114.397ZM118.694 181.254V171.762H120.395L120.409 172.903C120.502 172.744 120.621 172.588 120.766 172.434C120.915 172.28 121.085 172.142 121.277 172.021C121.473 171.9 121.69 171.804 121.928 171.734C122.166 171.659 122.427 171.622 122.712 171.622C123.267 171.622 123.759 171.755 124.189 172.021C124.618 172.282 124.954 172.686 125.197 173.232C125.444 173.778 125.568 174.469 125.568 175.304C125.568 176.158 125.442 176.87 125.19 177.439C124.938 178.008 124.585 178.435 124.133 178.72C123.68 179 123.155 179.14 122.558 179.14C122.282 179.14 122.03 179.103 121.802 179.028C121.578 178.953 121.377 178.851 121.2 178.72C121.022 178.589 120.866 178.447 120.731 178.293C120.6 178.139 120.49 177.978 120.402 177.81V181.254H118.694ZM122.18 177.866C122.693 177.866 123.118 177.663 123.454 177.257C123.79 176.846 123.958 176.205 123.958 175.332C123.958 174.576 123.799 173.981 123.482 173.547C123.169 173.108 122.735 172.889 122.18 172.889C121.582 172.889 121.134 173.12 120.836 173.582C120.537 174.039 120.388 174.623 120.388 175.332C120.388 175.789 120.453 176.212 120.584 176.599C120.719 176.982 120.917 177.29 121.179 177.523C121.445 177.752 121.778 177.866 122.18 177.866ZM129.057 179.14C128.595 179.14 128.18 179.056 127.811 178.888C127.447 178.715 127.16 178.47 126.95 178.153C126.745 177.831 126.642 177.441 126.642 176.984C126.642 176.186 126.929 175.584 127.503 175.178C128.082 174.772 129.003 174.56 130.268 174.541L131.346 174.513V174.023C131.346 173.64 131.232 173.342 131.003 173.127C130.779 172.908 130.429 172.8 129.953 172.805C129.603 172.81 129.281 172.894 128.987 173.057C128.698 173.216 128.506 173.484 128.413 173.862H126.964C126.992 173.367 127.134 172.954 127.391 172.623C127.652 172.287 128.009 172.037 128.462 171.874C128.915 171.706 129.437 171.622 130.03 171.622C130.721 171.622 131.283 171.713 131.717 171.895C132.151 172.077 132.471 172.341 132.676 172.686C132.881 173.027 132.984 173.44 132.984 173.925V179H131.549L131.416 177.698C131.155 178.244 130.823 178.622 130.422 178.832C130.025 179.037 129.57 179.14 129.057 179.14ZM129.61 177.985C129.82 177.985 130.028 177.948 130.233 177.873C130.438 177.794 130.625 177.689 130.793 177.558C130.961 177.423 131.094 177.273 131.192 177.11C131.295 176.947 131.346 176.776 131.346 176.599V175.458L130.457 175.472C130.018 175.477 129.636 175.523 129.309 175.612C128.982 175.701 128.726 175.843 128.539 176.039C128.357 176.23 128.266 176.487 128.266 176.809C128.266 177.178 128.394 177.467 128.651 177.677C128.908 177.882 129.227 177.985 129.61 177.985ZM137.604 179.14C137.1 179.14 136.622 179.061 136.169 178.902C135.721 178.739 135.343 178.484 135.035 178.139C134.732 177.794 134.54 177.348 134.461 176.802H135.959C136.024 177.068 136.139 177.285 136.302 177.453C136.47 177.621 136.668 177.745 136.897 177.824C137.126 177.899 137.359 177.936 137.597 177.936C138.031 177.936 138.381 177.861 138.647 177.712C138.918 177.563 139.053 177.332 139.053 177.019C139.053 176.79 138.978 176.608 138.829 176.473C138.68 176.338 138.442 176.235 138.115 176.165L136.736 175.85C136.125 175.715 135.632 175.491 135.259 175.178C134.89 174.865 134.704 174.424 134.699 173.855C134.694 173.426 134.802 173.043 135.021 172.707C135.24 172.371 135.567 172.107 136.001 171.916C136.435 171.72 136.972 171.622 137.611 171.622C138.456 171.622 139.132 171.811 139.641 172.189C140.15 172.562 140.411 173.097 140.425 173.792H138.976C138.925 173.479 138.778 173.237 138.535 173.064C138.292 172.887 137.977 172.798 137.59 172.798C137.189 172.798 136.86 172.875 136.603 173.029C136.346 173.183 136.218 173.419 136.218 173.736C136.218 173.955 136.316 174.128 136.512 174.254C136.708 174.38 137.002 174.487 137.394 174.576L138.696 174.891C139.069 174.984 139.375 175.11 139.613 175.269C139.851 175.428 140.038 175.603 140.173 175.794C140.308 175.981 140.402 176.174 140.453 176.375C140.509 176.571 140.537 176.753 140.537 176.921C140.537 177.388 140.416 177.787 140.173 178.118C139.935 178.445 139.597 178.697 139.158 178.874C138.719 179.051 138.201 179.14 137.604 179.14ZM144.768 179.14C144.264 179.14 143.786 179.061 143.333 178.902C142.885 178.739 142.507 178.484 142.199 178.139C141.896 177.794 141.704 177.348 141.625 176.802H143.123C143.188 177.068 143.303 177.285 143.466 177.453C143.634 177.621 143.832 177.745 144.061 177.824C144.29 177.899 144.523 177.936 144.761 177.936C145.195 177.936 145.545 177.861 145.811 177.712C146.082 177.563 146.217 177.332 146.217 177.019C146.217 176.79 146.142 176.608 145.993 176.473C145.844 176.338 145.606 176.235 145.279 176.165L143.9 175.85C143.289 175.715 142.796 175.491 142.423 175.178C142.054 174.865 141.868 174.424 141.863 173.855C141.858 173.426 141.966 173.043 142.185 172.707C142.404 172.371 142.731 172.107 143.165 171.916C143.599 171.72 144.136 171.622 144.775 171.622C145.62 171.622 146.296 171.811 146.805 172.189C147.314 172.562 147.575 173.097 147.589 173.792H146.14C146.089 173.479 145.942 173.237 145.699 173.064C145.456 172.887 145.141 172.798 144.754 172.798C144.353 172.798 144.024 172.875 143.767 173.029C143.51 173.183 143.382 173.419 143.382 173.736C143.382 173.955 143.48 174.128 143.676 174.254C143.872 174.38 144.166 174.487 144.558 174.576L145.86 174.891C146.233 174.984 146.539 175.11 146.777 175.269C147.015 175.428 147.202 175.603 147.337 175.794C147.472 175.981 147.566 176.174 147.617 176.375C147.673 176.571 147.701 176.753 147.701 176.921C147.701 177.388 147.58 177.787 147.337 178.118C147.099 178.445 146.761 178.697 146.322 178.874C145.883 179.051 145.365 179.14 144.768 179.14ZM159.036 171.762L156.74 179H155.27L153.786 174.177L152.337 179H150.902L148.606 171.762H150.139L151.651 176.739H151.728L153.191 171.762H154.437L155.942 176.732H156.019L157.475 171.762H159.036ZM163.04 179.14C162.35 179.14 161.748 178.993 161.234 178.699C160.721 178.4 160.322 177.973 160.037 177.418C159.757 176.863 159.617 176.195 159.617 175.416C159.617 174.66 159.753 173.997 160.023 173.428C160.299 172.859 160.693 172.415 161.206 172.098C161.72 171.781 162.333 171.622 163.047 171.622C163.738 171.622 164.338 171.774 164.846 172.077C165.355 172.38 165.747 172.814 166.022 173.379C166.302 173.944 166.442 174.623 166.442 175.416C166.442 176.149 166.309 176.795 166.043 177.355C165.782 177.91 165.397 178.347 164.888 178.664C164.384 178.981 163.768 179.14 163.04 179.14ZM163.047 177.845C163.439 177.845 163.761 177.738 164.013 177.523C164.27 177.308 164.459 177.014 164.58 176.641C164.706 176.268 164.769 175.843 164.769 175.367C164.769 174.924 164.713 174.515 164.601 174.142C164.494 173.769 164.312 173.47 164.055 173.246C163.803 173.017 163.467 172.903 163.047 172.903C162.651 172.903 162.322 173.008 162.06 173.218C161.804 173.423 161.61 173.713 161.479 174.086C161.353 174.455 161.29 174.882 161.29 175.367C161.29 175.806 161.346 176.214 161.458 176.592C161.575 176.965 161.762 177.269 162.018 177.502C162.275 177.731 162.618 177.845 163.047 177.845ZM167.953 179V171.762H169.584V173.33C169.701 172.971 169.867 172.665 170.081 172.413C170.301 172.156 170.557 171.96 170.851 171.825C171.145 171.69 171.465 171.622 171.81 171.622C171.894 171.622 171.976 171.627 172.055 171.636C172.135 171.645 172.193 171.662 172.23 171.685V173.316C172.179 173.293 172.111 173.276 172.027 173.267C171.948 173.258 171.878 173.253 171.817 173.253C171.467 173.225 171.157 173.239 170.886 173.295C170.62 173.351 170.394 173.447 170.207 173.582C170.025 173.713 169.888 173.881 169.794 174.086C169.701 174.287 169.654 174.522 169.654 174.793V179H167.953ZM176.102 179.14C175.146 179.14 174.394 178.811 173.848 178.153C173.302 177.495 173.029 176.559 173.029 175.346C173.029 174.59 173.139 173.934 173.358 173.379C173.582 172.819 173.909 172.387 174.338 172.084C174.772 171.776 175.309 171.622 175.948 171.622C176.247 171.622 176.518 171.659 176.76 171.734C177.008 171.804 177.227 171.897 177.418 172.014C177.61 172.131 177.771 172.259 177.901 172.399C178.037 172.539 178.142 172.679 178.216 172.819V168.598H179.924V179H178.664L178.475 177.516C178.419 177.689 178.335 177.871 178.223 178.062C178.116 178.249 177.969 178.424 177.782 178.587C177.6 178.75 177.372 178.883 177.096 178.986C176.821 179.089 176.49 179.14 176.102 179.14ZM176.452 177.887C177.064 177.887 177.509 177.689 177.789 177.292C178.074 176.891 178.216 176.228 178.216 175.304C178.212 174.777 178.146 174.333 178.02 173.974C177.899 173.615 177.71 173.344 177.453 173.162C177.201 172.98 176.875 172.889 176.473 172.889C175.96 172.889 175.538 173.078 175.206 173.456C174.875 173.834 174.709 174.45 174.709 175.304C174.709 176.153 174.861 176.797 175.164 177.236C175.468 177.67 175.897 177.887 176.452 177.887Z" fill="#4A4A4A"/>
<path d="M54.5517 322.738C55.2937 322.738 55.9517 322.89 56.5257 323.193C57.0997 323.492 57.5617 323.898 57.9117 324.411C58.2664 324.924 58.4764 325.496 58.5417 326.126H56.7427C56.6727 325.753 56.5421 325.419 56.3507 325.125C56.1641 324.831 55.9167 324.598 55.6087 324.425C55.3007 324.252 54.9321 324.166 54.5027 324.166C53.9661 324.166 53.5087 324.294 53.1307 324.551C52.7574 324.803 52.4704 325.204 52.2697 325.755C52.0737 326.306 51.9757 327.02 51.9757 327.897C51.9757 329.227 52.1951 330.195 52.6337 330.802C53.0724 331.409 53.6954 331.712 54.5027 331.712C54.9321 331.712 55.3007 331.619 55.6087 331.432C55.9167 331.241 56.1641 330.989 56.3507 330.676C56.5421 330.359 56.6727 330.013 56.7427 329.64H58.5417C58.4857 330.097 58.3691 330.536 58.1917 330.956C58.0191 331.376 57.7741 331.752 57.4567 332.083C57.1394 332.41 56.7404 332.669 56.2597 332.86C55.7837 333.047 55.2144 333.14 54.5517 333.14C53.6231 333.14 52.8251 332.928 52.1577 332.503C51.4951 332.074 50.9841 331.467 50.6247 330.683C50.2701 329.894 50.0927 328.959 50.0927 327.876C50.0927 326.798 50.2701 325.876 50.6247 325.111C50.9794 324.346 51.4881 323.76 52.1507 323.354C52.8181 322.943 53.6184 322.738 54.5517 322.738ZM63.2122 333.14C62.5215 333.14 61.9195 332.993 61.4062 332.699C60.8928 332.4 60.4938 331.973 60.2092 331.418C59.9292 330.863 59.7892 330.195 59.7892 329.416C59.7892 328.66 59.9245 327.997 60.1952 327.428C60.4705 326.859 60.8648 326.415 61.3782 326.098C61.8915 325.781 62.5052 325.622 63.2192 325.622C63.9098 325.622 64.5095 325.774 65.0182 326.077C65.5268 326.38 65.9188 326.814 66.1942 327.379C66.4742 327.944 66.6142 328.623 66.6142 329.416C66.6142 330.149 66.4812 330.795 66.2152 331.355C65.9538 331.91 65.5688 332.347 65.0602 332.664C64.5562 332.981 63.9402 333.14 63.2122 333.14ZM63.2192 331.845C63.6112 331.845 63.9332 331.738 64.1852 331.523C64.4418 331.308 64.6308 331.014 64.7522 330.641C64.8782 330.268 64.9412 329.843 64.9412 329.367C64.9412 328.924 64.8852 328.515 64.7732 328.142C64.6658 327.769 64.4838 327.47 64.2272 327.246C63.9752 327.017 63.6392 326.903 63.2192 326.903C62.8225 326.903 62.4935 327.008 62.2322 327.218C61.9755 327.423 61.7818 327.713 61.6512 328.086C61.5252 328.455 61.4622 328.882 61.4622 329.367C61.4622 329.806 61.5182 330.214 61.6302 330.592C61.7468 330.965 61.9335 331.269 62.1902 331.502C62.4468 331.731 62.7898 331.845 63.2192 331.845ZM68.1252 333V325.762H69.7912V326.798C69.9032 326.611 70.0548 326.432 70.2462 326.259C70.4422 326.086 70.6825 325.946 70.9672 325.839C71.2518 325.732 71.5855 325.678 71.9682 325.678C72.4162 325.678 72.8315 325.767 73.2142 325.944C73.6015 326.121 73.9118 326.399 74.1452 326.777C74.3832 327.155 74.5022 327.643 74.5022 328.24V333H72.7942V328.443C72.7942 327.967 72.6635 327.615 72.4022 327.386C72.1408 327.153 71.8118 327.036 71.4152 327.036C71.1445 327.036 70.8878 327.083 70.6452 327.176C70.4025 327.265 70.2042 327.402 70.0502 327.589C69.9008 327.771 69.8262 328 69.8262 328.275V333H68.1252ZM80.2222 325.762V326.966H78.5912V333H76.8902V326.966H75.4622V325.762H76.8902V324.684C76.8902 324.105 77.0488 323.66 77.3662 323.347C77.6882 323.034 78.1525 322.878 78.7592 322.878H80.2852L80.2922 324.04H79.2842C79.0088 324.04 78.8198 324.112 78.7172 324.257C78.6145 324.397 78.5632 324.619 78.5632 324.922V325.762H80.2222ZM83.3652 325.762V333H81.7272V325.762H83.3652ZM83.3862 322.885V324.495H81.6992V322.885H83.3862ZM85.4748 333V325.762H87.1058V327.33C87.2225 326.971 87.3881 326.665 87.6028 326.413C87.8221 326.156 88.0788 325.96 88.3728 325.825C88.6668 325.69 88.9865 325.622 89.3318 325.622C89.4158 325.622 89.4975 325.627 89.5768 325.636C89.6561 325.645 89.7145 325.662 89.7518 325.685V327.316C89.7005 327.293 89.6328 327.276 89.5488 327.267C89.4695 327.258 89.3995 327.253 89.3388 327.253C88.9888 327.225 88.6785 327.239 88.4078 327.295C88.1418 327.351 87.9155 327.447 87.7288 327.582C87.5468 327.713 87.4091 327.881 87.3158 328.086C87.2225 328.287 87.1758 328.522 87.1758 328.793V333H85.4748ZM91.0529 333V325.762H92.7119V326.798C92.9219 326.481 93.2066 326.205 93.5659 325.972C93.9299 325.739 94.3919 325.622 94.9519 325.622C95.2086 325.622 95.4676 325.666 95.7289 325.755C95.9949 325.844 96.2399 325.974 96.4639 326.147C96.6926 326.32 96.8746 326.534 97.0099 326.791C97.2386 326.45 97.5419 326.17 97.9199 325.951C98.3026 325.732 98.7319 325.622 99.2079 325.622C99.4692 325.622 99.7376 325.664 100.013 325.748C100.293 325.832 100.55 325.972 100.783 326.168C101.016 326.364 101.205 326.632 101.35 326.973C101.495 327.309 101.567 327.731 101.567 328.24V333H99.8659V328.443C99.8659 328.084 99.8029 327.801 99.6769 327.596C99.5509 327.391 99.3876 327.246 99.1869 327.162C98.9909 327.073 98.7809 327.029 98.5569 327.029C98.3562 327.029 98.1462 327.069 97.9269 327.148C97.7122 327.227 97.5279 327.358 97.3739 327.54C97.2246 327.722 97.1499 327.967 97.1499 328.275V333H95.4489V328.17C95.4489 327.918 95.3836 327.708 95.2529 327.54C95.1222 327.372 94.9566 327.246 94.7559 327.162C94.5599 327.073 94.3592 327.029 94.1539 327.029C93.9439 327.029 93.7292 327.073 93.5099 327.162C93.2952 327.251 93.1156 327.386 92.9709 327.568C92.8262 327.75 92.7539 327.986 92.7539 328.275V333H91.0529ZM106.488 333V325.762H108.154V326.798C108.266 326.611 108.418 326.432 108.609 326.259C108.805 326.086 109.046 325.946 109.33 325.839C109.615 325.732 109.949 325.678 110.331 325.678C110.779 325.678 111.195 325.767 111.577 325.944C111.965 326.121 112.275 326.399 112.508 326.777C112.746 327.155 112.865 327.643 112.865 328.24V333H111.157V328.443C111.157 327.967 111.027 327.615 110.765 327.386C110.504 327.153 110.175 327.036 109.778 327.036C109.508 327.036 109.251 327.083 109.008 327.176C108.766 327.265 108.567 327.402 108.413 327.589C108.264 327.771 108.189 328 108.189 328.275V333H106.488ZM116.029 329.773C116.024 330.184 116.089 330.548 116.225 330.865C116.36 331.182 116.561 331.432 116.827 331.614C117.093 331.791 117.422 331.88 117.814 331.88C118.215 331.88 118.563 331.791 118.857 331.614C119.155 331.432 119.354 331.157 119.452 330.788H121.013C120.929 331.292 120.728 331.719 120.411 332.069C120.093 332.419 119.708 332.685 119.256 332.867C118.808 333.049 118.341 333.14 117.856 333.14C117.156 333.14 116.54 332.993 116.008 332.699C115.48 332.4 115.067 331.976 114.769 331.425C114.475 330.874 114.328 330.219 114.328 329.458C114.328 328.716 114.463 328.058 114.734 327.484C115.004 326.905 115.394 326.45 115.903 326.119C116.416 325.788 117.032 325.622 117.751 325.622C118.465 325.622 119.064 325.774 119.55 326.077C120.04 326.38 120.408 326.805 120.656 327.351C120.908 327.892 121.034 328.527 121.034 329.255V329.773H116.029ZM116.029 328.716H119.424C119.424 328.366 119.363 328.051 119.242 327.771C119.12 327.486 118.934 327.262 118.682 327.099C118.434 326.931 118.122 326.847 117.744 326.847C117.37 326.847 117.055 326.938 116.799 327.12C116.542 327.302 116.348 327.538 116.218 327.827C116.087 328.112 116.024 328.408 116.029 328.716ZM132.12 325.762L129.824 333H128.354L126.87 328.177L125.421 333H123.986L121.69 325.762H123.223L124.735 330.739H124.812L126.275 325.762H127.521L129.026 330.732H129.103L130.559 325.762H132.12ZM136.416 335.254V325.762H138.117L138.131 326.903C138.225 326.744 138.344 326.588 138.488 326.434C138.638 326.28 138.808 326.142 138.999 326.021C139.195 325.9 139.412 325.804 139.65 325.734C139.888 325.659 140.15 325.622 140.434 325.622C140.99 325.622 141.482 325.755 141.911 326.021C142.341 326.282 142.677 326.686 142.919 327.232C143.167 327.778 143.29 328.469 143.29 329.304C143.29 330.158 143.164 330.87 142.912 331.439C142.66 332.008 142.308 332.435 141.855 332.72C141.403 333 140.878 333.14 140.28 333.14C140.005 333.14 139.753 333.103 139.524 333.028C139.3 332.953 139.1 332.851 138.922 332.72C138.745 332.589 138.589 332.447 138.453 332.293C138.323 332.139 138.213 331.978 138.124 331.81V335.254H136.416ZM139.902 331.866C140.416 331.866 140.84 331.663 141.176 331.257C141.512 330.846 141.68 330.205 141.68 329.332C141.68 328.576 141.522 327.981 141.204 327.547C140.892 327.108 140.458 326.889 139.902 326.889C139.305 326.889 138.857 327.12 138.558 327.582C138.26 328.039 138.11 328.623 138.11 329.332C138.11 329.789 138.176 330.212 138.306 330.599C138.442 330.982 138.64 331.29 138.901 331.523C139.167 331.752 139.501 331.866 139.902 331.866ZM146.78 333.14C146.318 333.14 145.902 333.056 145.534 332.888C145.17 332.715 144.883 332.47 144.673 332.153C144.467 331.831 144.365 331.441 144.365 330.984C144.365 330.186 144.652 329.584 145.226 329.178C145.804 328.772 146.726 328.56 147.991 328.541L149.069 328.513V328.023C149.069 327.64 148.954 327.342 148.726 327.127C148.502 326.908 148.152 326.8 147.676 326.805C147.326 326.81 147.004 326.894 146.71 327.057C146.42 327.216 146.229 327.484 146.136 327.862H144.687C144.715 327.367 144.857 326.954 145.114 326.623C145.375 326.287 145.732 326.037 146.185 325.874C146.637 325.706 147.16 325.622 147.753 325.622C148.443 325.622 149.006 325.713 149.44 325.895C149.874 326.077 150.193 326.341 150.399 326.686C150.604 327.027 150.707 327.44 150.707 327.925V333H149.272L149.139 331.698C148.877 332.244 148.546 332.622 148.145 332.832C147.748 333.037 147.293 333.14 146.78 333.14ZM147.333 331.985C147.543 331.985 147.75 331.948 147.956 331.873C148.161 331.794 148.348 331.689 148.516 331.558C148.684 331.423 148.817 331.273 148.915 331.11C149.017 330.947 149.069 330.776 149.069 330.599V329.458L148.18 329.472C147.741 329.477 147.358 329.523 147.032 329.612C146.705 329.701 146.448 329.843 146.262 330.039C146.08 330.23 145.989 330.487 145.989 330.809C145.989 331.178 146.117 331.467 146.374 331.677C146.63 331.882 146.95 331.985 147.333 331.985ZM155.327 333.14C154.823 333.14 154.344 333.061 153.892 332.902C153.444 332.739 153.066 332.484 152.758 332.139C152.454 331.794 152.263 331.348 152.184 330.802H153.682C153.747 331.068 153.861 331.285 154.025 331.453C154.193 331.621 154.391 331.745 154.62 331.824C154.848 331.899 155.082 331.936 155.32 331.936C155.754 331.936 156.104 331.861 156.37 331.712C156.64 331.563 156.776 331.332 156.776 331.019C156.776 330.79 156.701 330.608 156.552 330.473C156.402 330.338 156.164 330.235 155.838 330.165L154.459 329.85C153.847 329.715 153.355 329.491 152.982 329.178C152.613 328.865 152.426 328.424 152.422 327.855C152.417 327.426 152.524 327.043 152.744 326.707C152.963 326.371 153.29 326.107 153.724 325.916C154.158 325.72 154.694 325.622 155.334 325.622C156.178 325.622 156.855 325.811 157.364 326.189C157.872 326.562 158.134 327.097 158.148 327.792H156.699C156.647 327.479 156.5 327.237 156.258 327.064C156.015 326.887 155.7 326.798 155.313 326.798C154.911 326.798 154.582 326.875 154.326 327.029C154.069 327.183 153.941 327.419 153.941 327.736C153.941 327.955 154.039 328.128 154.235 328.254C154.431 328.38 154.725 328.487 155.117 328.576L156.419 328.891C156.792 328.984 157.098 329.11 157.336 329.269C157.574 329.428 157.76 329.603 157.896 329.794C158.031 329.981 158.124 330.174 158.176 330.375C158.232 330.571 158.26 330.753 158.26 330.921C158.26 331.388 158.138 331.787 157.896 332.118C157.658 332.445 157.319 332.697 156.881 332.874C156.442 333.051 155.924 333.14 155.327 333.14ZM162.491 333.14C161.987 333.14 161.508 333.061 161.056 332.902C160.608 332.739 160.23 332.484 159.922 332.139C159.618 331.794 159.427 331.348 159.348 330.802H160.846C160.911 331.068 161.025 331.285 161.189 331.453C161.357 331.621 161.555 331.745 161.784 331.824C162.012 331.899 162.246 331.936 162.484 331.936C162.918 331.936 163.268 331.861 163.534 331.712C163.804 331.563 163.94 331.332 163.94 331.019C163.94 330.79 163.865 330.608 163.716 330.473C163.566 330.338 163.328 330.235 163.002 330.165L161.623 329.85C161.011 329.715 160.519 329.491 160.146 329.178C159.777 328.865 159.59 328.424 159.586 327.855C159.581 327.426 159.688 327.043 159.908 326.707C160.127 326.371 160.454 326.107 160.888 325.916C161.322 325.72 161.858 325.622 162.498 325.622C163.342 325.622 164.019 325.811 164.528 326.189C165.036 326.562 165.298 327.097 165.312 327.792H163.863C163.811 327.479 163.664 327.237 163.422 327.064C163.179 326.887 162.864 326.798 162.477 326.798C162.075 326.798 161.746 326.875 161.49 327.029C161.233 327.183 161.105 327.419 161.105 327.736C161.105 327.955 161.203 328.128 161.399 328.254C161.595 328.38 161.889 328.487 162.281 328.576L163.583 328.891C163.956 328.984 164.262 329.11 164.5 329.269C164.738 329.428 164.924 329.603 165.06 329.794C165.195 329.981 165.288 330.174 165.34 330.375C165.396 330.571 165.424 330.753 165.424 330.921C165.424 331.388 165.302 331.787 165.06 332.118C164.822 332.445 164.483 332.697 164.045 332.874C163.606 333.051 163.088 333.14 162.491 333.14ZM176.759 325.762L174.463 333H172.993L171.509 328.177L170.06 333H168.625L166.329 325.762H167.862L169.374 330.739H169.451L170.914 325.762H172.16L173.665 330.732H173.742L175.198 325.762H176.759ZM180.763 333.14C180.072 333.14 179.47 332.993 178.957 332.699C178.444 332.4 178.045 331.973 177.76 331.418C177.48 330.863 177.34 330.195 177.34 329.416C177.34 328.66 177.475 327.997 177.746 327.428C178.021 326.859 178.416 326.415 178.929 326.098C179.442 325.781 180.056 325.622 180.77 325.622C181.461 325.622 182.06 325.774 182.569 326.077C183.078 326.38 183.47 326.814 183.745 327.379C184.025 327.944 184.165 328.623 184.165 329.416C184.165 330.149 184.032 330.795 183.766 331.355C183.505 331.91 183.12 332.347 182.611 332.664C182.107 332.981 181.491 333.14 180.763 333.14ZM180.77 331.845C181.162 331.845 181.484 331.738 181.736 331.523C181.993 331.308 182.182 331.014 182.303 330.641C182.429 330.268 182.492 329.843 182.492 329.367C182.492 328.924 182.436 328.515 182.324 328.142C182.217 327.769 182.035 327.47 181.778 327.246C181.526 327.017 181.19 326.903 180.77 326.903C180.373 326.903 180.044 327.008 179.783 327.218C179.526 327.423 179.333 327.713 179.202 328.086C179.076 328.455 179.013 328.882 179.013 329.367C179.013 329.806 179.069 330.214 179.181 330.592C179.298 330.965 179.484 331.269 179.741 331.502C179.998 331.731 180.341 331.845 180.77 331.845ZM185.676 333V325.762H187.307V327.33C187.424 326.971 187.589 326.665 187.804 326.413C188.023 326.156 188.28 325.96 188.574 325.825C188.868 325.69 189.188 325.622 189.533 325.622C189.617 325.622 189.699 325.627 189.778 325.636C189.857 325.645 189.916 325.662 189.953 325.685V327.316C189.902 327.293 189.834 327.276 189.75 327.267C189.671 327.258 189.601 327.253 189.54 327.253C189.19 327.225 188.88 327.239 188.609 327.295C188.343 327.351 188.117 327.447 187.93 327.582C187.748 327.713 187.61 327.881 187.517 328.086C187.424 328.287 187.377 328.522 187.377 328.793V333H185.676ZM193.825 333.14C192.868 333.14 192.117 332.811 191.571 332.153C191.025 331.495 190.752 330.559 190.752 329.346C190.752 328.59 190.862 327.934 191.081 327.379C191.305 326.819 191.632 326.387 192.061 326.084C192.495 325.776 193.032 325.622 193.671 325.622C193.97 325.622 194.24 325.659 194.483 325.734C194.73 325.804 194.95 325.897 195.141 326.014C195.332 326.131 195.493 326.259 195.624 326.399C195.759 326.539 195.864 326.679 195.939 326.819V322.598H197.647V333H196.387L196.198 331.516C196.142 331.689 196.058 331.871 195.946 332.062C195.839 332.249 195.692 332.424 195.505 332.587C195.323 332.75 195.094 332.883 194.819 332.986C194.544 333.089 194.212 333.14 193.825 333.14ZM194.175 331.887C194.786 331.887 195.232 331.689 195.512 331.292C195.797 330.891 195.939 330.228 195.939 329.304C195.934 328.777 195.869 328.333 195.743 327.974C195.622 327.615 195.433 327.344 195.176 327.162C194.924 326.98 194.597 326.889 194.196 326.889C193.683 326.889 193.26 327.078 192.929 327.456C192.598 327.834 192.432 328.45 192.432 329.304C192.432 330.153 192.584 330.797 192.887 331.236C193.19 331.67 193.62 331.887 194.175 331.887Z" fill="#4A4A4A"/>
<path d="M50.2982 291V282.324H53.4902C54.1222 282.324 54.6882 282.434 55.1882 282.654C55.6882 282.87 56.0822 283.19 56.3702 283.614C56.6622 284.038 56.8082 284.556 56.8082 285.168C56.8082 285.744 56.6802 286.236 56.4242 286.644C56.1682 287.052 55.8082 287.364 55.3442 287.58C54.8842 287.796 54.3422 287.904 53.7182 287.904H52.0622V291H50.2982ZM52.0442 286.548H53.6702C54.1102 286.548 54.4702 286.408 54.7502 286.128C55.0302 285.844 55.1702 285.494 55.1702 285.078C55.1702 284.646 55.0222 284.304 54.7262 284.052C54.4302 283.796 54.0702 283.668 53.6462 283.668H52.0442V286.548ZM59.5402 291.12C59.1442 291.12 58.7882 291.046 58.4722 290.898C58.1562 290.75 57.9062 290.536 57.7222 290.256C57.5382 289.972 57.4462 289.628 57.4462 289.224C57.4462 288.544 57.7002 288.028 58.2082 287.676C58.7162 287.32 59.5182 287.136 60.6142 287.124L61.3882 287.112V286.74C61.3882 286.456 61.3042 286.238 61.1362 286.086C60.9722 285.93 60.7162 285.854 60.3682 285.858C60.1122 285.862 59.8682 285.922 59.6362 286.038C59.4082 286.154 59.2522 286.356 59.1682 286.644H57.7102C57.7342 286.196 57.8642 285.828 58.1002 285.54C58.3362 285.248 58.6562 285.032 59.0602 284.892C59.4682 284.748 59.9302 284.676 60.4462 284.676C61.0822 284.676 61.5922 284.756 61.9762 284.916C62.3602 285.072 62.6382 285.298 62.8102 285.594C62.9822 285.886 63.0682 286.234 63.0682 286.638V291H61.6042L61.4602 289.932C61.2482 290.38 60.9822 290.69 60.6622 290.862C60.3462 291.034 59.9722 291.12 59.5402 291.12ZM60.1282 289.968C60.2882 289.968 60.4422 289.94 60.5902 289.884C60.7422 289.824 60.8762 289.746 60.9922 289.65C61.1122 289.55 61.2082 289.438 61.2802 289.314C61.3522 289.19 61.3882 289.062 61.3882 288.93V288.012L60.7582 288.024C60.4662 288.028 60.1942 288.064 59.9422 288.132C59.6902 288.196 59.4862 288.302 59.3302 288.45C59.1782 288.598 59.1022 288.798 59.1022 289.05C59.1022 289.338 59.2022 289.564 59.4022 289.728C59.6022 289.888 59.8442 289.968 60.1282 289.968ZM67.0028 291.12C66.5708 291.12 66.1548 291.05 65.7548 290.91C65.3548 290.766 65.0168 290.542 64.7408 290.238C64.4648 289.93 64.2888 289.532 64.2128 289.044H65.7308C65.7828 289.264 65.8768 289.438 66.0128 289.566C66.1528 289.694 66.3108 289.786 66.4868 289.842C66.6628 289.894 66.8308 289.92 66.9908 289.92C67.3268 289.92 67.5968 289.868 67.8008 289.764C68.0088 289.656 68.1128 289.492 68.1128 289.272C68.1128 289.104 68.0508 288.97 67.9268 288.87C67.8068 288.77 67.6068 288.694 67.3268 288.642L66.2348 288.414C65.6868 288.298 65.2468 288.102 64.9148 287.826C64.5828 287.546 64.4128 287.15 64.4048 286.638C64.4048 286.266 64.5028 285.932 64.6988 285.636C64.8988 285.34 65.1928 285.106 65.5808 284.934C65.9688 284.762 66.4448 284.676 67.0088 284.676C67.7728 284.676 68.3828 284.844 68.8388 285.18C69.2988 285.516 69.5328 285.99 69.5408 286.602H68.0768C68.0328 286.362 67.9128 286.178 67.7168 286.05C67.5248 285.918 67.2828 285.852 66.9908 285.852C66.6868 285.852 66.4368 285.906 66.2408 286.014C66.0448 286.122 65.9468 286.286 65.9468 286.506C65.9468 286.67 66.0268 286.8 66.1868 286.896C66.3468 286.988 66.5948 287.068 66.9308 287.136L67.9388 287.364C68.2868 287.448 68.5688 287.564 68.7848 287.712C69.0048 287.856 69.1748 288.014 69.2948 288.186C69.4148 288.358 69.4968 288.532 69.5408 288.708C69.5888 288.88 69.6128 289.036 69.6128 289.176C69.6128 289.588 69.5028 289.94 69.2828 290.232C69.0628 290.52 68.7568 290.74 68.3648 290.892C67.9728 291.044 67.5188 291.12 67.0028 291.12ZM73.2255 291.12C72.7935 291.12 72.3775 291.05 71.9775 290.91C71.5775 290.766 71.2395 290.542 70.9635 290.238C70.6875 289.93 70.5115 289.532 70.4355 289.044H71.9535C72.0055 289.264 72.0995 289.438 72.2355 289.566C72.3755 289.694 72.5335 289.786 72.7095 289.842C72.8855 289.894 73.0535 289.92 73.2135 289.92C73.5495 289.92 73.8195 289.868 74.0235 289.764C74.2315 289.656 74.3355 289.492 74.3355 289.272C74.3355 289.104 74.2735 288.97 74.1495 288.87C74.0295 288.77 73.8295 288.694 73.5495 288.642L72.4575 288.414C71.9095 288.298 71.4695 288.102 71.1375 287.826C70.8055 287.546 70.6355 287.15 70.6275 286.638C70.6275 286.266 70.7255 285.932 70.9215 285.636C71.1215 285.34 71.4155 285.106 71.8035 284.934C72.1915 284.762 72.6675 284.676 73.2315 284.676C73.9955 284.676 74.6055 284.844 75.0615 285.18C75.5215 285.516 75.7555 285.99 75.7635 286.602H74.2995C74.2555 286.362 74.1355 286.178 73.9395 286.05C73.7475 285.918 73.5055 285.852 73.2135 285.852C72.9095 285.852 72.6595 285.906 72.4635 286.014C72.2675 286.122 72.1695 286.286 72.1695 286.506C72.1695 286.67 72.2495 286.8 72.4095 286.896C72.5695 286.988 72.8175 287.068 73.1535 287.136L74.1615 287.364C74.5095 287.448 74.7915 287.564 75.0075 287.712C75.2275 287.856 75.3975 288.014 75.5175 288.186C75.6375 288.358 75.7195 288.532 75.7635 288.708C75.8115 288.88 75.8355 289.036 75.8355 289.176C75.8355 289.588 75.7255 289.94 75.5055 290.232C75.2855 290.52 74.9795 290.74 74.5875 290.892C74.1955 291.044 73.7415 291.12 73.2255 291.12ZM85.5736 284.796L83.5336 291H82.1416L80.9836 287.244L79.8316 291H78.4756L76.4656 284.796H78.0136L79.2016 288.642H79.2496L80.3896 284.796H81.6376L82.7896 288.642H82.8376L83.9896 284.796H85.5736ZM88.916 291.12C88.308 291.12 87.778 290.99 87.326 290.73C86.878 290.47 86.53 290.102 86.282 289.626C86.038 289.15 85.916 288.586 85.916 287.934C85.916 287.282 86.038 286.712 86.282 286.224C86.53 285.736 86.878 285.356 87.326 285.084C87.778 284.812 88.31 284.676 88.922 284.676C89.534 284.676 90.064 284.81 90.512 285.078C90.96 285.342 91.306 285.718 91.55 286.206C91.794 286.694 91.916 287.27 91.916 287.934C91.916 288.558 91.796 289.11 91.556 289.59C91.32 290.066 90.978 290.44 90.53 290.712C90.086 290.984 89.548 291.12 88.916 291.12ZM88.922 289.818C89.23 289.818 89.478 289.728 89.666 289.548C89.854 289.368 89.99 289.132 90.074 288.84C90.162 288.544 90.206 288.222 90.206 287.874C90.206 287.546 90.166 287.236 90.086 286.944C90.01 286.652 89.878 286.416 89.69 286.236C89.502 286.056 89.246 285.966 88.922 285.966C88.614 285.966 88.364 286.052 88.172 286.224C87.984 286.392 87.846 286.622 87.758 286.914C87.67 287.202 87.626 287.522 87.626 287.874C87.626 288.198 87.666 288.51 87.746 288.81C87.826 289.106 87.96 289.348 88.148 289.536C88.336 289.724 88.594 289.818 88.922 289.818ZM93.084 291V284.796H94.77V286.266C94.87 285.95 95.01 285.674 95.19 285.438C95.374 285.198 95.596 285.012 95.856 284.88C96.116 284.744 96.41 284.676 96.738 284.676C96.794 284.676 96.846 284.68 96.894 284.688C96.946 284.692 96.984 284.7 97.008 284.712V286.38C96.972 286.364 96.928 286.354 96.876 286.35C96.828 286.346 96.784 286.342 96.744 286.338C96.4 286.31 96.106 286.32 95.862 286.368C95.618 286.416 95.42 286.498 95.268 286.614C95.116 286.73 95.006 286.872 94.938 287.04C94.87 287.208 94.836 287.396 94.836 287.604V291H93.084ZM100.24 291.12C99.4075 291.12 98.7595 290.834 98.2955 290.262C97.8315 289.686 97.5995 288.886 97.5995 287.862C97.5995 287.214 97.6935 286.652 97.8815 286.176C98.0695 285.7 98.3475 285.332 98.7155 285.072C99.0835 284.808 99.5335 284.676 100.066 284.676C100.29 284.676 100.498 284.702 100.69 284.754C100.886 284.802 101.064 284.87 101.224 284.958C101.384 285.046 101.524 285.148 101.644 285.264C101.764 285.38 101.862 285.504 101.938 285.636V282.084H103.696V291H102.424L102.226 289.728C102.17 289.9 102.092 290.068 101.992 290.232C101.892 290.396 101.764 290.546 101.608 290.682C101.452 290.814 101.26 290.92 101.032 291C100.808 291.08 100.544 291.12 100.24 291.12ZM100.624 289.86C101.064 289.86 101.392 289.706 101.608 289.398C101.828 289.09 101.938 288.57 101.938 287.838C101.934 287.414 101.884 287.062 101.788 286.782C101.692 286.502 101.548 286.294 101.356 286.158C101.168 286.018 100.928 285.948 100.636 285.948C100.256 285.948 99.9395 286.094 99.6875 286.386C99.4355 286.674 99.3095 287.158 99.3095 287.838C99.3095 288.53 99.4275 289.04 99.6635 289.368C99.8995 289.696 100.22 289.86 100.624 289.86ZM111.224 291.12C110.796 291.12 110.376 291.066 109.964 290.958C109.552 290.85 109.176 290.688 108.836 290.472C108.496 290.256 108.214 289.986 107.99 289.662C107.77 289.338 107.638 288.958 107.594 288.522H109.388C109.448 288.786 109.562 289.008 109.73 289.188C109.898 289.368 110.11 289.506 110.366 289.602C110.622 289.698 110.906 289.746 111.218 289.746C111.538 289.746 111.83 289.706 112.094 289.626C112.358 289.546 112.57 289.426 112.73 289.266C112.89 289.102 112.97 288.898 112.97 288.654C112.97 288.434 112.904 288.254 112.772 288.114C112.644 287.974 112.47 287.86 112.25 287.772C112.03 287.684 111.78 287.612 111.5 287.556L110 287.25C109.344 287.126 108.824 286.866 108.44 286.47C108.056 286.07 107.858 285.538 107.846 284.874C107.842 284.33 107.986 283.86 108.278 283.464C108.574 283.064 108.974 282.756 109.478 282.54C109.986 282.324 110.554 282.216 111.182 282.216C111.93 282.216 112.558 282.334 113.066 282.57C113.578 282.802 113.966 283.118 114.23 283.518C114.498 283.914 114.636 284.356 114.644 284.844H112.886C112.854 284.54 112.762 284.298 112.61 284.118C112.458 283.938 112.262 283.808 112.022 283.728C111.786 283.648 111.516 283.608 111.212 283.608C110.98 283.608 110.768 283.634 110.576 283.686C110.388 283.738 110.228 283.812 110.096 283.908C109.964 284 109.862 284.11 109.79 284.238C109.718 284.366 109.682 284.51 109.682 284.67C109.682 284.922 109.766 285.126 109.934 285.282C110.102 285.438 110.416 285.566 110.876 285.666L112.364 285.972C112.896 286.076 113.318 286.23 113.63 286.434C113.946 286.638 114.182 286.868 114.338 287.124C114.498 287.38 114.602 287.642 114.65 287.91C114.702 288.174 114.728 288.418 114.728 288.642C114.728 289.11 114.58 289.532 114.284 289.908C113.992 290.28 113.584 290.576 113.06 290.796C112.536 291.012 111.924 291.12 111.224 291.12ZM119.669 286.014H118.289L118.301 289.32C118.301 289.472 118.319 289.586 118.355 289.662C118.395 289.734 118.455 289.782 118.535 289.806C118.619 289.826 118.725 289.836 118.853 289.836H119.687V290.916C119.607 290.952 119.481 290.986 119.309 291.018C119.141 291.05 118.905 291.066 118.601 291.066C118.057 291.066 117.635 290.996 117.335 290.856C117.039 290.716 116.833 290.52 116.717 290.268C116.601 290.016 116.543 289.724 116.543 289.392V286.014H115.535V284.796H116.603L117.041 282.924H118.289V284.79H119.669V286.014ZM120.963 291V284.796H122.649V286.266C122.749 285.95 122.889 285.674 123.069 285.438C123.253 285.198 123.475 285.012 123.735 284.88C123.995 284.744 124.289 284.676 124.617 284.676C124.673 284.676 124.725 284.68 124.773 284.688C124.825 284.692 124.863 284.7 124.887 284.712V286.38C124.851 286.364 124.807 286.354 124.755 286.35C124.707 286.346 124.663 286.342 124.623 286.338C124.279 286.31 123.985 286.32 123.741 286.368C123.497 286.416 123.299 286.498 123.147 286.614C122.995 286.73 122.885 286.872 122.817 287.04C122.749 287.208 122.715 287.396 122.715 287.604V291H120.963ZM127.254 288.3C127.25 288.616 127.3 288.892 127.404 289.128C127.508 289.36 127.658 289.54 127.854 289.668C128.054 289.792 128.294 289.854 128.574 289.854C128.874 289.854 129.136 289.79 129.36 289.662C129.588 289.534 129.746 289.324 129.834 289.032H131.412C131.344 289.472 131.168 289.848 130.884 290.16C130.604 290.472 130.264 290.71 129.864 290.874C129.464 291.038 129.048 291.12 128.616 291.12C128.004 291.12 127.464 290.992 126.996 290.736C126.532 290.476 126.17 290.11 125.91 289.638C125.65 289.166 125.52 288.61 125.52 287.97C125.52 287.35 125.638 286.792 125.874 286.296C126.11 285.796 126.452 285.402 126.9 285.114C127.352 284.822 127.894 284.676 128.526 284.676C129.158 284.676 129.688 284.81 130.116 285.078C130.548 285.342 130.872 285.712 131.088 286.188C131.308 286.66 131.418 287.206 131.418 287.826V288.3H127.254ZM127.248 287.256H129.78C129.78 287.008 129.734 286.78 129.642 286.572C129.55 286.364 129.41 286.2 129.222 286.08C129.038 285.96 128.806 285.9 128.526 285.9C128.254 285.9 128.022 285.966 127.83 286.098C127.642 286.226 127.498 286.394 127.398 286.602C127.298 286.81 127.248 287.028 127.248 287.256ZM132.635 291V284.796H134.357V285.672C134.453 285.52 134.577 285.374 134.729 285.234C134.885 285.09 135.081 284.972 135.317 284.88C135.553 284.788 135.833 284.742 136.157 284.742C136.537 284.742 136.891 284.816 137.219 284.964C137.551 285.112 137.819 285.346 138.023 285.666C138.227 285.982 138.329 286.396 138.329 286.908V291H136.577V287.124C136.577 286.788 136.477 286.536 136.277 286.368C136.077 286.2 135.833 286.116 135.545 286.116C135.353 286.116 135.167 286.15 134.987 286.218C134.811 286.286 134.667 286.388 134.555 286.524C134.443 286.66 134.387 286.828 134.387 287.028V291H132.635ZM142.622 293.052C141.518 293.052 140.678 292.912 140.102 292.632C139.53 292.352 139.244 291.984 139.244 291.528C139.244 291.316 139.3 291.138 139.412 290.994C139.524 290.85 139.654 290.736 139.802 290.652C139.954 290.564 140.092 290.498 140.216 290.454C140.344 290.406 140.422 290.374 140.45 290.358C140.386 290.322 140.294 290.27 140.174 290.202C140.054 290.13 139.942 290.034 139.838 289.914C139.738 289.79 139.688 289.63 139.688 289.434C139.688 289.214 139.792 289.01 140 288.822C140.212 288.634 140.532 288.504 140.96 288.432C140.552 288.24 140.242 287.98 140.03 287.652C139.818 287.324 139.712 286.988 139.712 286.644C139.712 286.236 139.84 285.886 140.096 285.594C140.352 285.302 140.7 285.08 141.14 284.928C141.584 284.776 142.086 284.7 142.646 284.7C143.074 284.7 143.424 284.746 143.696 284.838C143.968 284.926 144.22 285.042 144.452 285.186C144.544 285.15 144.666 285.104 144.818 285.048C144.97 284.988 145.134 284.924 145.31 284.856C145.486 284.784 145.658 284.714 145.826 284.646C145.994 284.574 146.144 284.51 146.276 284.454L146.27 285.81L145.196 285.984C145.24 286.092 145.274 286.208 145.298 286.332C145.322 286.456 145.334 286.558 145.334 286.638C145.334 286.998 145.228 287.334 145.016 287.646C144.808 287.958 144.494 288.21 144.074 288.402C143.658 288.594 143.142 288.69 142.526 288.69C142.45 288.69 142.348 288.688 142.22 288.684C142.096 288.68 141.994 288.674 141.914 288.666C141.678 288.678 141.516 288.708 141.428 288.756C141.34 288.804 141.296 288.86 141.296 288.924C141.296 289.02 141.386 289.084 141.566 289.116C141.746 289.144 142.018 289.17 142.382 289.194C142.51 289.202 142.688 289.212 142.916 289.224C143.144 289.236 143.396 289.252 143.672 289.272C144.432 289.324 144.998 289.512 145.37 289.836C145.746 290.156 145.934 290.56 145.934 291.048C145.934 291.628 145.658 292.106 145.106 292.482C144.558 292.862 143.73 293.052 142.622 293.052ZM142.904 292.074C143.392 292.074 143.74 292.014 143.948 291.894C144.156 291.774 144.26 291.602 144.26 291.378C144.26 291.19 144.18 291.038 144.02 290.922C143.86 290.802 143.626 290.732 143.318 290.712L141.896 290.616C141.712 290.608 141.548 290.636 141.404 290.7C141.264 290.764 141.154 290.852 141.074 290.964C140.998 291.076 140.96 291.196 140.96 291.324C140.96 291.584 141.118 291.774 141.434 291.894C141.75 292.014 142.24 292.074 142.904 292.074ZM142.574 287.712C142.906 287.712 143.172 287.622 143.372 287.442C143.576 287.258 143.678 287.01 143.678 286.698C143.678 286.374 143.576 286.114 143.372 285.918C143.172 285.722 142.906 285.624 142.574 285.624C142.246 285.624 141.978 285.722 141.77 285.918C141.566 286.114 141.464 286.374 141.464 286.698C141.464 287.006 141.562 287.252 141.758 287.436C141.958 287.62 142.23 287.712 142.574 287.712ZM151.298 286.014H149.918L149.93 289.32C149.93 289.472 149.948 289.586 149.984 289.662C150.024 289.734 150.084 289.782 150.164 289.806C150.248 289.826 150.354 289.836 150.482 289.836H151.316V290.916C151.236 290.952 151.11 290.986 150.938 291.018C150.77 291.05 150.534 291.066 150.23 291.066C149.686 291.066 149.264 290.996 148.964 290.856C148.668 290.716 148.462 290.52 148.346 290.268C148.23 290.016 148.172 289.724 148.172 289.392V286.014H147.164V284.796H148.232L148.67 282.924H149.918V284.79H151.298V286.014ZM152.592 291V282.084H154.332V285.69C154.432 285.546 154.558 285.404 154.71 285.264C154.862 285.12 155.052 285 155.28 284.904C155.508 284.808 155.786 284.76 156.114 284.76C156.51 284.76 156.87 284.838 157.194 284.994C157.522 285.146 157.784 285.368 157.98 285.66C158.18 285.952 158.28 286.308 158.28 286.728V291H156.522V286.986C156.522 286.706 156.42 286.492 156.216 286.344C156.016 286.192 155.772 286.116 155.484 286.116C155.296 286.116 155.114 286.15 154.938 286.218C154.762 286.286 154.618 286.39 154.506 286.53C154.398 286.666 154.344 286.836 154.344 287.04V291H152.592ZM161.469 284.946V286.824H159.549V284.946H161.469ZM161.469 289.092V290.964H159.549V289.092H161.469ZM168.867 291.12C168.447 291.12 168.037 291.068 167.637 290.964C167.237 290.856 166.873 290.698 166.545 290.49C166.221 290.278 165.951 290.016 165.735 289.704C165.519 289.388 165.387 289.02 165.339 288.6H166.851C166.915 288.892 167.041 289.138 167.229 289.338C167.417 289.538 167.651 289.69 167.931 289.794C168.215 289.898 168.525 289.95 168.861 289.95C169.221 289.95 169.545 289.902 169.833 289.806C170.125 289.71 170.355 289.57 170.523 289.386C170.695 289.202 170.781 288.976 170.781 288.708C170.781 288.472 170.719 288.272 170.595 288.108C170.471 287.944 170.297 287.81 170.073 287.706C169.853 287.598 169.595 287.512 169.299 287.448L167.703 287.1C167.059 286.968 166.549 286.712 166.173 286.332C165.797 285.952 165.605 285.446 165.597 284.814C165.593 284.29 165.731 283.834 166.011 283.446C166.295 283.054 166.681 282.752 167.169 282.54C167.657 282.324 168.209 282.216 168.825 282.216C169.545 282.216 170.151 282.334 170.643 282.57C171.139 282.802 171.513 283.114 171.765 283.506C172.021 283.898 172.151 284.328 172.155 284.796H170.679C170.643 284.452 170.539 284.178 170.367 283.974C170.199 283.77 169.983 283.624 169.719 283.536C169.455 283.448 169.163 283.404 168.843 283.404C168.603 283.404 168.379 283.432 168.171 283.488C167.963 283.544 167.781 283.626 167.625 283.734C167.469 283.842 167.347 283.974 167.259 284.13C167.175 284.282 167.133 284.456 167.133 284.652C167.133 284.932 167.225 285.16 167.409 285.336C167.597 285.508 167.947 285.654 168.459 285.774L170.019 286.122C170.503 286.218 170.893 286.362 171.189 286.554C171.485 286.746 171.711 286.966 171.867 287.214C172.023 287.458 172.127 287.708 172.179 287.964C172.231 288.22 172.257 288.464 172.257 288.696C172.257 289.148 172.117 289.558 171.837 289.926C171.561 290.294 171.169 290.586 170.661 290.802C170.157 291.014 169.559 291.12 168.867 291.12ZM177.057 285.828H175.671L175.677 289.386C175.677 289.57 175.697 289.706 175.737 289.794C175.781 289.878 175.849 289.934 175.941 289.962C176.037 289.986 176.165 289.998 176.325 289.998H177.087V290.922C177.007 290.954 176.885 290.982 176.721 291.006C176.561 291.034 176.345 291.048 176.073 291.048C175.581 291.048 175.199 290.984 174.927 290.856C174.659 290.724 174.473 290.538 174.369 290.298C174.265 290.058 174.213 289.772 174.213 289.44V285.828H173.205V284.796H174.255L174.621 282.954H175.671V284.79H177.057V285.828ZM178.486 291V284.796H179.884V286.14C179.984 285.832 180.126 285.57 180.31 285.354C180.498 285.134 180.718 284.966 180.97 284.85C181.222 284.734 181.496 284.676 181.792 284.676C181.864 284.676 181.934 284.68 182.002 284.688C182.07 284.696 182.12 284.71 182.152 284.73V286.128C182.108 286.108 182.05 286.094 181.978 286.086C181.91 286.078 181.85 286.074 181.798 286.074C181.498 286.05 181.232 286.062 181 286.11C180.772 286.158 180.578 286.24 180.418 286.356C180.262 286.468 180.144 286.612 180.064 286.788C179.984 286.96 179.944 287.162 179.944 287.394V291H178.486ZM185.771 291.12C185.179 291.12 184.663 290.994 184.223 290.742C183.783 290.486 183.441 290.12 183.197 289.644C182.957 289.168 182.837 288.596 182.837 287.928C182.837 287.28 182.953 286.712 183.185 286.224C183.421 285.736 183.759 285.356 184.199 285.084C184.639 284.812 185.165 284.676 185.777 284.676C186.369 284.676 186.883 284.806 187.319 285.066C187.755 285.326 188.091 285.698 188.327 286.182C188.567 286.666 188.687 287.248 188.687 287.928C188.687 288.556 188.573 289.11 188.345 289.59C188.121 290.066 187.791 290.44 187.355 290.712C186.923 290.984 186.395 291.12 185.771 291.12ZM185.777 290.01C186.113 290.01 186.389 289.918 186.605 289.734C186.825 289.55 186.987 289.298 187.091 288.978C187.199 288.658 187.253 288.294 187.253 287.886C187.253 287.506 187.205 287.156 187.109 286.836C187.017 286.516 186.861 286.26 186.641 286.068C186.425 285.872 186.137 285.774 185.777 285.774C185.437 285.774 185.155 285.864 184.931 286.044C184.711 286.22 184.545 286.468 184.433 286.788C184.325 287.104 184.271 287.47 184.271 287.886C184.271 288.262 184.319 288.612 184.415 288.936C184.515 289.256 184.675 289.516 184.895 289.716C185.115 289.912 185.409 290.01 185.777 290.01ZM189.982 291V284.796H191.41V285.684C191.506 285.524 191.636 285.37 191.8 285.222C191.968 285.074 192.174 284.954 192.418 284.862C192.662 284.77 192.948 284.724 193.276 284.724C193.66 284.724 194.016 284.8 194.344 284.952C194.676 285.104 194.942 285.342 195.142 285.666C195.346 285.99 195.448 286.408 195.448 286.92V291H193.984V287.094C193.984 286.686 193.872 286.384 193.648 286.188C193.424 285.988 193.142 285.888 192.802 285.888C192.57 285.888 192.35 285.928 192.142 286.008C191.934 286.084 191.764 286.202 191.632 286.362C191.504 286.518 191.44 286.714 191.44 286.95V291H189.982ZM199.768 293.052C198.724 293.052 197.922 292.912 197.362 292.632C196.802 292.352 196.522 291.968 196.522 291.48C196.522 291.26 196.576 291.076 196.684 290.928C196.792 290.78 196.92 290.658 197.068 290.562C197.216 290.466 197.352 290.392 197.476 290.34C197.6 290.288 197.68 290.25 197.716 290.226C197.648 290.186 197.558 290.134 197.446 290.07C197.334 290.006 197.232 289.918 197.14 289.806C197.052 289.694 197.008 289.548 197.008 289.368C197.008 289.16 197.106 288.968 197.302 288.792C197.502 288.616 197.8 288.49 198.196 288.414C197.808 288.226 197.51 287.972 197.302 287.652C197.094 287.332 196.99 287 196.99 286.656C196.99 286.248 197.108 285.898 197.344 285.606C197.584 285.314 197.916 285.09 198.34 284.934C198.768 284.778 199.262 284.7 199.822 284.7C200.238 284.7 200.582 284.746 200.854 284.838C201.126 284.93 201.38 285.054 201.616 285.21C201.696 285.178 201.808 285.134 201.952 285.078C202.1 285.018 202.26 284.954 202.432 284.886C202.604 284.814 202.768 284.746 202.924 284.682C203.084 284.614 203.22 284.558 203.332 284.514L203.32 285.72L202.246 285.912C202.298 286.028 202.338 286.154 202.366 286.29C202.398 286.426 202.414 286.546 202.414 286.65C202.414 287.01 202.312 287.344 202.108 287.652C201.908 287.956 201.606 288.2 201.202 288.384C200.802 288.568 200.302 288.66 199.702 288.66C199.642 288.66 199.56 288.658 199.456 288.654C199.352 288.65 199.268 288.646 199.204 288.642C198.88 288.654 198.658 288.692 198.538 288.756C198.418 288.82 198.358 288.89 198.358 288.966C198.358 289.074 198.448 289.146 198.628 289.182C198.808 289.218 199.096 289.25 199.492 289.278C199.632 289.286 199.816 289.296 200.044 289.308C200.272 289.32 200.526 289.336 200.806 289.356C201.514 289.4 202.05 289.578 202.414 289.89C202.778 290.198 202.96 290.598 202.96 291.09C202.96 291.662 202.696 292.132 202.168 292.5C201.64 292.868 200.84 293.052 199.768 293.052ZM200.014 292.194C200.538 292.194 200.926 292.122 201.178 291.978C201.43 291.834 201.556 291.622 201.556 291.342C201.556 291.126 201.47 290.95 201.298 290.814C201.126 290.678 200.87 290.598 200.53 290.574L198.964 290.478C198.792 290.466 198.628 290.498 198.472 290.574C198.32 290.646 198.196 290.748 198.1 290.88C198.004 291.008 197.956 291.15 197.956 291.306C197.956 291.598 198.124 291.818 198.46 291.966C198.796 292.118 199.314 292.194 200.014 292.194ZM199.75 287.802C200.13 287.802 200.438 287.706 200.674 287.514C200.91 287.318 201.028 287.042 201.028 286.686C201.028 286.318 200.91 286.032 200.674 285.828C200.438 285.62 200.13 285.516 199.75 285.516C199.362 285.516 199.048 285.62 198.808 285.828C198.572 286.036 198.454 286.322 198.454 286.686C198.454 287.03 198.568 287.302 198.796 287.502C199.024 287.702 199.342 287.802 199.75 287.802Z" fill="#4A4A4A"/>
<rect x="61" y="256" width="99.3506" height="8" rx="2" fill="#EA7F7F"/>
<rect x="164.325" y="256" width="99.3506" height="8" rx="2" fill="#EAB27F"/>
<rect x="267.649" y="256" width="99.3506" height="8" rx="2" fill="#A1EA7F"/>
<rect x="51" y="196" width="326" height="50" rx="6" fill="#FCFCFC" stroke="white" stroke-width="4"/>
<circle cx="73" cy="221" r="3" fill="#4A4A4A"/>
<circle cx="81" cy="221" r="3" fill="#4A4A4A"/>
<circle cx="89" cy="221" r="3" fill="#4A4A4A"/>
<circle cx="97" cy="221" r="3" fill="#4A4A4A"/>
<circle cx="105" cy="221" r="3" fill="#4A4A4A"/>
<circle cx="113" cy="221" r="3" fill="#4A4A4A"/>
<circle cx="121" cy="221" r="3" fill="#4A4A4A"/>
<circle cx="129" cy="221" r="3" fill="#4A4A4A"/>
<circle cx="137" cy="221" r="3" fill="#4A4A4A"/>
<circle cx="145" cy="221" r="3" fill="#4A4A4A"/>
<rect x="51" y="350" width="326" height="50" rx="6" fill="#FCFCFC" stroke="white" stroke-width="4"/>
<circle cx="73" cy="375" r="3" fill="#4A4A4A"/>
<circle cx="81" cy="375" r="3" fill="#4A4A4A"/>
<circle cx="89" cy="375" r="3" fill="#4A4A4A"/>
<circle cx="97" cy="375" r="3" fill="#4A4A4A"/>
<circle cx="105" cy="375" r="3" fill="#4A4A4A"/>
<circle cx="113" cy="375" r="3" fill="#4A4A4A"/>
<circle cx="121" cy="375" r="3" fill="#4A4A4A"/>
<circle cx="129" cy="375" r="3" fill="#4A4A4A"/>
<circle cx="137" cy="375" r="3" fill="#4A4A4A"/>
<circle cx="145" cy="375" r="3" fill="#4A4A4A"/>
<rect x="116.25" y="443.25" width="195.5" height="48.5" rx="2.75" fill="#616161"/>
<path d="M185.539 461.272C186.409 461.272 187.182 461.448 187.859 461.8C188.542 462.147 189.091 462.621 189.507 463.224C189.929 463.827 190.177 464.507 190.251 465.264H187.803C187.729 464.864 187.593 464.509 187.395 464.2C187.198 463.885 186.939 463.64 186.619 463.464C186.299 463.283 185.915 463.192 185.467 463.192C184.929 463.192 184.465 463.323 184.075 463.584C183.686 463.845 183.387 464.267 183.179 464.848C182.971 465.429 182.867 466.197 182.867 467.152C182.867 468.592 183.097 469.635 183.555 470.28C184.019 470.92 184.657 471.24 185.467 471.24C185.915 471.24 186.299 471.139 186.619 470.936C186.939 470.728 187.198 470.456 187.395 470.12C187.593 469.779 187.729 469.405 187.803 469H190.251C190.182 469.549 190.049 470.075 189.851 470.576C189.654 471.072 189.374 471.515 189.011 471.904C188.649 472.293 188.182 472.6 187.611 472.824C187.041 473.048 186.35 473.16 185.539 473.16C184.462 473.16 183.531 472.909 182.747 472.408C181.963 471.907 181.358 471.203 180.931 470.296C180.51 469.389 180.299 468.331 180.299 467.12C180.299 465.904 180.51 464.861 180.931 463.992C181.353 463.117 181.955 462.445 182.739 461.976C183.523 461.507 184.457 461.272 185.539 461.272ZM195.599 473.16C194.788 473.16 194.082 472.987 193.479 472.64C192.882 472.293 192.418 471.803 192.087 471.168C191.762 470.533 191.599 469.781 191.599 468.912C191.599 468.043 191.762 467.283 192.087 466.632C192.418 465.981 192.882 465.475 193.479 465.112C194.082 464.749 194.791 464.568 195.607 464.568C196.423 464.568 197.13 464.747 197.727 465.104C198.324 465.456 198.786 465.957 199.111 466.608C199.436 467.259 199.599 468.027 199.599 468.912C199.599 469.744 199.439 470.48 199.119 471.12C198.804 471.755 198.348 472.253 197.751 472.616C197.159 472.979 196.442 473.16 195.599 473.16ZM195.607 471.424C196.018 471.424 196.348 471.304 196.599 471.064C196.85 470.824 197.031 470.509 197.143 470.12C197.26 469.725 197.319 469.296 197.319 468.832C197.319 468.395 197.266 467.981 197.159 467.592C197.058 467.203 196.882 466.888 196.631 466.648C196.38 466.408 196.039 466.288 195.607 466.288C195.196 466.288 194.863 466.403 194.607 466.632C194.356 466.856 194.172 467.163 194.055 467.552C193.938 467.936 193.879 468.363 193.879 468.832C193.879 469.264 193.932 469.68 194.039 470.08C194.146 470.475 194.324 470.797 194.575 471.048C194.826 471.299 195.17 471.424 195.607 471.424ZM201.156 473V464.728H203.452V465.896C203.58 465.693 203.746 465.499 203.948 465.312C204.156 465.12 204.418 464.963 204.732 464.84C205.047 464.717 205.42 464.656 205.852 464.656C206.359 464.656 206.831 464.755 207.268 464.952C207.711 465.149 208.068 465.461 208.34 465.888C208.612 466.309 208.748 466.861 208.748 467.544V473H206.412V467.832C206.412 467.384 206.279 467.048 206.012 466.824C205.746 466.6 205.42 466.488 205.036 466.488C204.78 466.488 204.532 466.533 204.292 466.624C204.058 466.715 203.866 466.851 203.716 467.032C203.567 467.213 203.492 467.437 203.492 467.704V473H201.156ZM215.321 466.352H213.481L213.497 470.76C213.497 470.963 213.521 471.115 213.569 471.216C213.623 471.312 213.703 471.376 213.809 471.408C213.921 471.435 214.063 471.448 214.233 471.448H215.345V472.888C215.239 472.936 215.071 472.981 214.841 473.024C214.617 473.067 214.303 473.088 213.897 473.088C213.172 473.088 212.609 472.995 212.209 472.808C211.815 472.621 211.54 472.36 211.385 472.024C211.231 471.688 211.153 471.299 211.153 470.856V466.352H209.809V464.728H211.233L211.817 462.232H213.481V464.72H215.321V466.352ZM219.399 464.728V473H217.167V464.728H219.399ZM219.423 461.44V463.544H217.151V461.44H219.423ZM221.562 473V464.728H223.859V465.896C223.987 465.693 224.152 465.499 224.355 465.312C224.563 465.12 224.824 464.963 225.139 464.84C225.453 464.717 225.827 464.656 226.259 464.656C226.765 464.656 227.237 464.755 227.675 464.952C228.117 465.149 228.475 465.461 228.747 465.888C229.019 466.309 229.155 466.861 229.155 467.544V473H226.819V467.832C226.819 467.384 226.685 467.048 226.419 466.824C226.152 466.6 225.827 466.488 225.443 466.488C225.187 466.488 224.939 466.533 224.699 466.624C224.464 466.715 224.272 466.851 224.123 467.032C223.973 467.213 223.899 467.437 223.899 467.704V473H221.562ZM234.001 473.16C233.617 473.16 233.238 473.101 232.865 472.984C232.497 472.867 232.161 472.693 231.857 472.464C231.553 472.235 231.308 471.952 231.121 471.616C230.94 471.28 230.849 470.891 230.849 470.448V464.728H233.185V470.152C233.185 470.536 233.31 470.851 233.561 471.096C233.812 471.341 234.18 471.464 234.665 471.464C235.124 471.464 235.486 471.347 235.753 471.112C236.025 470.872 236.161 470.539 236.161 470.112V464.728H238.473V473H236.713L236.441 471.36C236.345 471.845 236.164 472.219 235.897 472.48C235.636 472.736 235.334 472.912 234.993 473.008C234.657 473.109 234.326 473.16 234.001 473.16ZM242.295 469.4C242.29 469.821 242.356 470.189 242.495 470.504C242.634 470.813 242.834 471.053 243.095 471.224C243.362 471.389 243.682 471.472 244.055 471.472C244.455 471.472 244.804 471.387 245.103 471.216C245.407 471.045 245.618 470.765 245.735 470.376H247.839C247.748 470.963 247.514 471.464 247.135 471.88C246.762 472.296 246.308 472.613 245.775 472.832C245.242 473.051 244.687 473.16 244.111 473.16C243.295 473.16 242.575 472.989 241.951 472.648C241.332 472.301 240.85 471.813 240.503 471.184C240.156 470.555 239.983 469.813 239.983 468.96C239.983 468.133 240.14 467.389 240.455 466.728C240.77 466.061 241.226 465.536 241.823 465.152C242.426 464.763 243.148 464.568 243.991 464.568C244.834 464.568 245.54 464.747 246.111 465.104C246.687 465.456 247.119 465.949 247.407 466.584C247.7 467.213 247.847 467.941 247.847 468.768V469.4H242.295ZM242.287 468.008H245.663C245.663 467.677 245.602 467.373 245.479 467.096C245.356 466.819 245.17 466.6 244.919 466.44C244.674 466.28 244.364 466.2 243.991 466.2C243.628 466.2 243.319 466.288 243.063 466.464C242.812 466.635 242.62 466.859 242.487 467.136C242.354 467.413 242.287 467.704 242.287 468.008Z" fill="white"/>
<rect x="116.25" y="443.25" width="195.5" height="48.5" rx="2.75" stroke="#4A4A4A" stroke-width="2.5"/>
<g clip-path="url(#clip0_108_80)">
<path d="M240.646 92.0177C240.549 91.6317 240.501 91.2208 240.501 90.785C240.501 89.1542 241.237 87.7352 242.71 86.5279C244.183 85.3207 247.194 83.8385 251.745 82.0814V80.7351C251.745 79.3192 251.565 78.3047 251.205 77.6916C250.845 77.0785 250.254 76.7719 249.432 76.7719C248.762 76.7719 248.206 76.971 247.763 77.3692C247.321 77.7674 247.1 78.2636 247.1 78.8578C247.1 79.1738 247.112 79.5436 247.138 79.9671C247.163 80.3905 247.176 80.6592 247.176 80.773C247.176 81.6958 246.919 82.4384 246.408 83.001C245.896 83.5636 245.216 83.8448 244.369 83.8448C243.598 83.8448 242.979 83.6015 242.511 83.1148C242.043 82.628 241.809 81.9865 241.809 81.1902C241.809 79.4709 242.625 78.0456 244.255 76.9141C245.886 75.7827 247.984 75.217 250.551 75.217C251.992 75.217 253.297 75.4004 254.466 75.767C255.636 76.1336 256.593 76.6645 257.339 77.3598C257.946 77.9286 258.376 78.5923 258.629 79.3508C258.881 80.1092 259.008 81.2533 259.008 82.783V88.1871C259.008 89.6914 259.125 90.7597 259.359 91.3917C259.592 92.0238 259.969 92.3399 260.487 92.3399C260.601 92.3399 260.714 92.3146 260.828 92.264C260.942 92.2134 261.062 92.1377 261.189 92.0364V93.269C260.683 93.9137 260.029 94.413 259.226 94.767C258.423 95.121 257.535 95.298 256.562 95.298C255.449 95.298 254.517 95.0389 253.765 94.5205C253.013 94.0022 252.46 93.2375 252.106 92.2262C251.145 93.326 250.137 94.1445 249.081 94.6817C248.026 95.2189 246.91 95.4876 245.734 95.4876C244.179 95.4876 242.918 95.0483 241.951 94.1697C241.629 93.8766 241.36 93.5556 241.145 93.2066C240.384 93.8039 239.157 94.4941 238.538 94.767C237.736 95.121 236.847 95.298 235.874 95.298C234.762 95.298 233.829 95.0389 233.077 94.5205C232.325 94.0022 231.772 93.2375 231.418 92.2262C230.457 93.326 229.449 94.1445 228.393 94.6817C227.338 95.2189 226.222 95.4876 225.047 95.4876C223.492 95.4876 222.231 95.0483 221.264 94.1697C220.297 93.2911 219.813 92.1629 219.813 90.785C219.813 89.1542 220.549 87.7352 222.022 86.5279C223.495 85.3207 226.507 83.8385 231.058 82.0814V80.7351C231.058 79.3192 230.878 78.3047 230.517 77.6916C230.157 77.0785 229.566 76.7719 228.744 76.7719C228.074 76.7719 227.518 76.971 227.076 77.3692C226.633 77.7674 226.412 78.2636 226.412 78.8578C226.412 79.1738 226.425 79.5436 226.45 79.9671C226.475 80.3905 226.488 80.6592 226.488 80.773C226.488 81.6958 226.232 82.4384 225.72 83.001C225.208 83.5636 224.528 83.8448 223.681 83.8448C222.91 83.8448 222.291 83.6015 221.823 83.1148C221.355 82.628 221.121 81.9865 221.121 81.1902C221.121 79.4709 221.937 78.0456 223.568 76.9141C225.198 75.7827 227.297 75.217 229.863 75.217C231.304 75.217 232.609 75.4004 233.779 75.767C234.948 76.1336 235.906 76.6645 236.652 77.3598C237.258 77.9286 237.688 78.5923 237.941 79.3508C238.194 80.1092 238.32 81.2533 238.32 82.783V88.1871C238.32 89.6914 238.437 90.7597 238.671 91.3917C238.905 92.0238 239.281 92.3399 239.799 92.3399C239.913 92.3399 240.027 92.3146 240.141 92.264C240.194 92.2404 240.414 92.1343 240.646 92.0177ZM182.778 94.6723L178.246 85.6652V90.8229C178.246 91.8215 178.423 92.5327 178.777 92.9562C179.131 93.3796 179.731 93.5913 180.578 93.5913H180.692V94.6723H168.499V93.5913H168.613C169.447 93.5913 170.045 93.3796 170.405 92.9562C170.765 92.5327 170.945 91.8215 170.945 90.8229V75.2549C170.945 74.6734 170.879 74.2532 170.746 73.9941C170.614 73.7348 170.313 73.4156 169.845 73.0364L167.798 71.3678C168.682 71.1023 169.915 70.6788 171.495 70.0972C173.075 69.5158 175.326 68.6562 178.246 67.5184V84.6222C179.902 83.3454 181.15 82.1919 181.991 81.1616C182.831 80.1314 183.252 79.2371 183.252 78.4786C183.252 78.074 183.097 77.7516 182.787 77.5115C182.477 77.2713 182.051 77.1512 181.507 77.1512H181.393V76.0704H191.254V77.1512H190.931C189.629 77.1512 188.403 77.4925 187.253 78.1751C186.102 78.8578 184.92 79.9449 183.707 81.4367L189.149 90.747C189.743 91.7837 190.318 92.5043 190.874 92.9087C191.429 93.312 192.122 93.5394 192.953 93.5909C193.751 93.5796 194.326 93.3681 194.676 92.9562C195.037 92.5327 195.217 91.8215 195.217 90.8229V82.783C195.217 82.2015 195.154 81.7811 195.027 81.522C194.901 81.2629 194.604 80.95 194.136 80.5833L192.069 78.9147C193.573 78.4343 195.198 77.8718 196.942 77.227C198.687 76.5823 200.545 75.8618 202.517 75.0653V90.8229C202.517 91.7963 202.691 92.4947 203.039 92.9182C203.386 93.3416 203.965 93.5661 204.774 93.5913H204.811C205.645 93.5913 206.242 93.3796 206.603 92.9562C206.963 92.5327 207.143 91.8215 207.143 90.8229V83.6742C207.143 83.0673 207.067 82.6186 206.916 82.3279C206.764 82.0371 206.479 81.7526 206.062 81.4745L203.692 79.8059C204.931 79.376 206.359 78.7851 207.977 78.0329C209.596 77.2807 211.58 76.2916 213.932 75.0653V78.4027C214.564 77.3408 215.249 76.5445 215.989 76.0135C216.728 75.4825 217.522 75.217 218.369 75.217C219.304 75.217 220.056 75.4951 220.625 76.0514C221.194 76.6076 221.479 77.3408 221.479 78.251C221.479 79.0474 221.241 79.6858 220.767 80.1661C220.293 80.6466 219.664 80.8867 218.881 80.8867C218.173 80.8867 217.493 80.6023 216.842 80.0334C216.191 79.4645 215.777 79.1802 215.6 79.1802C215.183 79.1802 214.886 79.4583 214.709 80.0145C214.532 80.5707 214.444 81.563 214.444 82.9916V90.8229C214.444 91.8089 214.643 92.5169 215.041 92.9466C215.439 93.3765 216.093 93.5913 217.003 93.5913H217.117V94.6723H182.778ZM251.745 83.4845C250.608 83.9396 249.742 84.657 249.148 85.6367C248.553 86.6164 248.256 87.8143 248.256 89.2301C248.256 90.0392 248.418 90.6839 248.74 91.1642C249.062 91.6446 249.483 91.8848 250.001 91.8848C250.671 91.8848 251.129 91.6193 251.376 91.0883C251.622 90.5574 251.745 89.2301 251.745 87.1063V83.4845ZM231.058 83.4845C229.92 83.9396 229.054 84.657 228.46 85.6367C227.866 86.6164 227.569 87.8143 227.569 89.2301C227.569 90.0392 227.73 90.6839 228.052 91.1642C228.374 91.6446 228.795 91.8848 229.313 91.8848C229.983 91.8848 230.441 91.6193 230.688 91.0883C230.934 90.5574 231.058 89.2301 231.058 87.1063V83.4845ZM194.705 71.3298C194.705 70.268 195.075 69.3672 195.814 68.6277C196.554 67.8882 197.454 67.5184 198.516 67.5184C199.591 67.5184 200.495 67.8882 201.228 68.6277C201.961 69.3672 202.328 70.268 202.328 71.3298C202.328 72.3917 201.958 73.2923 201.218 74.0319C200.479 74.7714 199.578 75.1412 198.516 75.1412C197.454 75.1412 196.554 74.7746 195.814 74.0414C195.075 73.3082 194.705 72.4043 194.705 71.3298Z" fill="#3E3E3E"/>
</g>
<defs>
<clipPath id="clip0_108_80">
<rect width="119" height="119" fill="white" transform="translate(155 22)"/>
</clipPath>
</defs>
</svg>
