<svg width="428" height="926" viewBox="0 0 428 926" fill="none" xmlns="http://www.w3.org/2000/svg">
<rect width="428" height="926" fill="#F8F2E9"/>
<g clip-path="url(#clip0_108_93)">
<path d="M240.646 92.0176C240.549 91.6316 240.501 91.2208 240.501 90.7849C240.501 89.1541 241.237 87.7352 242.71 86.5279C244.183 85.3207 247.194 83.8385 251.745 82.0813V80.735C251.745 79.3191 251.565 78.3046 251.205 77.6915C250.845 77.0784 250.254 76.7719 249.432 76.7719C248.762 76.7719 248.206 76.9709 247.763 77.3692C247.321 77.7674 247.1 78.2635 247.1 78.8578C247.1 79.1737 247.112 79.5435 247.138 79.967C247.163 80.3905 247.176 80.6592 247.176 80.7729C247.176 81.6957 246.919 82.4384 246.408 83.001C245.896 83.5635 245.216 83.8447 244.369 83.8447C243.598 83.8447 242.979 83.6014 242.511 83.1147C242.043 82.628 241.809 81.9864 241.809 81.1901C241.809 79.4708 242.625 78.0455 244.255 76.9141C245.886 75.7826 247.984 75.217 250.551 75.217C251.992 75.217 253.297 75.4003 254.466 75.7669C255.636 76.1336 256.593 76.6644 257.339 77.3597C257.946 77.9286 258.376 78.5923 258.629 79.3507C258.881 80.1092 259.008 81.2532 259.008 82.7829V88.1871C259.008 89.6914 259.125 90.7597 259.359 91.3916C259.592 92.0237 259.969 92.3398 260.487 92.3398C260.601 92.3398 260.714 92.3146 260.828 92.264C260.942 92.2133 261.062 92.1376 261.189 92.0363V93.2689C260.683 93.9136 260.029 94.413 259.226 94.7669C258.423 95.1209 257.535 95.2979 256.562 95.2979C255.449 95.2979 254.517 95.0388 253.765 94.5205C253.013 94.0021 252.46 93.2374 252.106 92.2261C251.145 93.3259 250.137 94.1444 249.081 94.6816C248.026 95.2188 246.91 95.4875 245.734 95.4875C244.179 95.4875 242.918 95.0482 241.951 94.1697C241.629 93.8765 241.36 93.5555 241.145 93.2066C240.384 93.8039 239.157 94.494 238.538 94.7669C237.736 95.1209 236.847 95.2979 235.874 95.2979C234.762 95.2979 233.829 95.0388 233.077 94.5205C232.325 94.0021 231.772 93.2374 231.418 92.2261C230.457 93.3259 229.449 94.1444 228.393 94.6816C227.338 95.2188 226.222 95.4875 225.047 95.4875C223.492 95.4875 222.231 95.0482 221.264 94.1697C220.297 93.2911 219.813 92.1628 219.813 90.7849C219.813 89.1541 220.549 87.7352 222.022 86.5279C223.495 85.3207 226.507 83.8385 231.058 82.0813V80.735C231.058 79.3191 230.878 78.3046 230.517 77.6915C230.157 77.0784 229.566 76.7719 228.744 76.7719C228.074 76.7719 227.518 76.9709 227.076 77.3692C226.633 77.7674 226.412 78.2635 226.412 78.8578C226.412 79.1737 226.425 79.5435 226.45 79.967C226.475 80.3905 226.488 80.6592 226.488 80.7729C226.488 81.6957 226.232 82.4384 225.72 83.001C225.208 83.5635 224.528 83.8447 223.681 83.8447C222.91 83.8447 222.291 83.6014 221.823 83.1147C221.355 82.628 221.121 81.9864 221.121 81.1901C221.121 79.4708 221.937 78.0455 223.568 76.9141C225.198 75.7826 227.297 75.217 229.863 75.217C231.304 75.217 232.609 75.4003 233.779 75.7669C234.948 76.1336 235.906 76.6644 236.652 77.3597C237.258 77.9286 237.688 78.5923 237.941 79.3507C238.194 80.1092 238.32 81.2532 238.32 82.7829V88.1871C238.32 89.6914 238.437 90.7597 238.671 91.3916C238.905 92.0237 239.281 92.3398 239.799 92.3398C239.913 92.3398 240.027 92.3146 240.141 92.264C240.194 92.2403 240.414 92.1343 240.646 92.0176ZM182.778 94.6722L178.246 85.6651V90.8228C178.246 91.8215 178.423 92.5326 178.777 92.9561C179.131 93.3796 179.731 93.5913 180.578 93.5913H180.692V94.6722H168.499V93.5913H168.613C169.447 93.5913 170.045 93.3796 170.405 92.9561C170.765 92.5326 170.945 91.8215 170.945 90.8228V75.2548C170.945 74.6734 170.879 74.2531 170.746 73.994C170.614 73.7348 170.313 73.4156 169.845 73.0364L167.798 71.3677C168.682 71.1022 169.915 70.6788 171.495 70.0972C173.075 69.5157 175.326 68.6561 178.246 67.5183V84.6222C179.902 83.3454 181.15 82.1919 181.991 81.1616C182.831 80.1314 183.252 79.237 183.252 78.4785C183.252 78.0739 183.097 77.7516 182.787 77.5115C182.477 77.2712 182.051 77.1511 181.507 77.1511H181.393V76.0703H191.254V77.1511H190.931C189.629 77.1511 188.403 77.4925 187.253 78.175C186.102 78.8578 184.92 79.9448 183.707 81.4366L189.149 90.7469C189.743 91.7836 190.318 92.5042 190.874 92.9087C191.429 93.3119 192.122 93.5393 192.953 93.5909C193.751 93.5796 194.326 93.368 194.676 92.9561C195.037 92.5326 195.217 91.8215 195.217 90.8228V82.7829C195.217 82.2014 195.154 81.781 195.027 81.5219C194.901 81.2628 194.604 80.9499 194.136 80.5833L192.069 78.9146C193.573 78.4343 195.198 77.8717 196.942 77.227C198.687 76.5823 200.545 75.8617 202.517 75.0652V90.8228C202.517 91.7962 202.691 92.4946 203.039 92.9181C203.386 93.3416 203.965 93.566 204.774 93.5913H204.811C205.645 93.5913 206.242 93.3796 206.603 92.9561C206.963 92.5326 207.143 91.8215 207.143 90.8228V83.6741C207.143 83.0673 207.067 82.6185 206.916 82.3278C206.764 82.0371 206.479 81.7526 206.062 81.4745L203.692 79.8058C204.931 79.376 206.359 78.7851 207.977 78.0329C209.596 77.2807 211.58 76.2915 213.932 75.0652V78.4027C214.564 77.3407 215.249 76.5444 215.989 76.0134C216.728 75.4825 217.522 75.217 218.369 75.217C219.304 75.217 220.056 75.4951 220.625 76.0513C221.194 76.6075 221.479 77.3407 221.479 78.2509C221.479 79.0474 221.241 79.6857 220.767 80.1661C220.293 80.6465 219.664 80.8866 218.881 80.8866C218.173 80.8866 217.493 80.6023 216.842 80.0333C216.191 79.4645 215.777 79.1801 215.6 79.1801C215.183 79.1801 214.886 79.4582 214.709 80.0144C214.532 80.5707 214.444 81.563 214.444 82.9915V90.8228C214.444 91.8089 214.643 92.5168 215.041 92.9465C215.439 93.3764 216.093 93.5913 217.003 93.5913H217.117V94.6722H182.778ZM251.745 83.4845C250.608 83.9396 249.742 84.657 249.148 85.6367C248.553 86.6164 248.256 87.8142 248.256 89.23C248.256 90.0391 248.418 90.6838 248.74 91.1642C249.062 91.6445 249.483 91.8847 250.001 91.8847C250.671 91.8847 251.129 91.6192 251.376 91.0883C251.622 90.5573 251.745 89.23 251.745 87.1063V83.4845ZM231.058 83.4845C229.92 83.9396 229.054 84.657 228.46 85.6367C227.866 86.6164 227.569 87.8142 227.569 89.23C227.569 90.0391 227.73 90.6838 228.052 91.1642C228.374 91.6445 228.795 91.8847 229.313 91.8847C229.983 91.8847 230.441 91.6192 230.688 91.0883C230.934 90.5573 231.058 89.23 231.058 87.1063V83.4845ZM194.705 71.3297C194.705 70.2679 195.075 69.3671 195.814 68.6277C196.554 67.8881 197.454 67.5183 198.516 67.5183C199.591 67.5183 200.495 67.8881 201.228 68.6277C201.961 69.3671 202.328 70.2679 202.328 71.3297C202.328 72.3917 201.958 73.2923 201.218 74.0319C200.479 74.7713 199.578 75.1411 198.516 75.1411C197.454 75.1411 196.554 74.7745 195.814 74.0413C195.075 73.3081 194.705 72.4043 194.705 71.3297Z" fill="#3E3E3E"/>
</g>
<rect x="116.25" y="443.25" width="195.5" height="48.5" rx="2.75" fill="#616161"/>
<path d="M153.406 461.272C154.276 461.272 155.049 461.448 155.726 461.8C156.409 462.147 156.958 462.621 157.374 463.224C157.796 463.827 158.044 464.507 158.118 465.264H155.67C155.596 464.864 155.46 464.509 155.262 464.2C155.065 463.885 154.806 463.64 154.486 463.464C154.166 463.283 153.782 463.192 153.334 463.192C152.796 463.192 152.332 463.323 151.942 463.584C151.553 463.845 151.254 464.267 151.046 464.848C150.838 465.429 150.734 466.197 150.734 467.152C150.734 468.592 150.964 469.635 151.422 470.28C151.886 470.92 152.524 471.24 153.334 471.24C153.782 471.24 154.166 471.139 154.486 470.936C154.806 470.728 155.065 470.456 155.262 470.12C155.46 469.779 155.596 469.405 155.67 469H158.118C158.049 469.549 157.916 470.075 157.718 470.576C157.521 471.072 157.241 471.515 156.878 471.904C156.516 472.293 156.049 472.6 155.478 472.824C154.908 473.048 154.217 473.16 153.406 473.16C152.329 473.16 151.398 472.909 150.614 472.408C149.83 471.907 149.225 471.203 148.798 470.296C148.377 469.389 148.166 468.331 148.166 467.12C148.166 465.904 148.377 464.861 148.798 463.992C149.22 463.117 149.822 462.445 150.606 461.976C151.39 461.507 152.324 461.272 153.406 461.272ZM163.466 473.16C162.655 473.16 161.949 472.987 161.346 472.64C160.749 472.293 160.285 471.803 159.954 471.168C159.629 470.533 159.466 469.781 159.466 468.912C159.466 468.043 159.629 467.283 159.954 466.632C160.285 465.981 160.749 465.475 161.346 465.112C161.949 464.749 162.658 464.568 163.474 464.568C164.29 464.568 164.997 464.747 165.594 465.104C166.191 465.456 166.653 465.957 166.978 466.608C167.303 467.259 167.466 468.027 167.466 468.912C167.466 469.744 167.306 470.48 166.986 471.12C166.671 471.755 166.215 472.253 165.618 472.616C165.026 472.979 164.309 473.16 163.466 473.16ZM163.474 471.424C163.885 471.424 164.215 471.304 164.466 471.064C164.717 470.824 164.898 470.509 165.01 470.12C165.127 469.725 165.186 469.296 165.186 468.832C165.186 468.395 165.133 467.981 165.026 467.592C164.925 467.203 164.749 466.888 164.498 466.648C164.247 466.408 163.906 466.288 163.474 466.288C163.063 466.288 162.73 466.403 162.474 466.632C162.223 466.856 162.039 467.163 161.922 467.552C161.805 467.936 161.746 468.363 161.746 468.832C161.746 469.264 161.799 469.68 161.906 470.08C162.013 470.475 162.191 470.797 162.442 471.048C162.693 471.299 163.037 471.424 163.474 471.424ZM169.023 473V464.728H171.319V465.896C171.447 465.693 171.613 465.499 171.815 465.312C172.023 465.12 172.285 464.963 172.599 464.84C172.914 464.717 173.287 464.656 173.719 464.656C174.226 464.656 174.698 464.755 175.135 464.952C175.578 465.149 175.935 465.461 176.207 465.888C176.479 466.309 176.615 466.861 176.615 467.544V473H174.279V467.832C174.279 467.384 174.146 467.048 173.879 466.824C173.613 466.6 173.287 466.488 172.903 466.488C172.647 466.488 172.399 466.533 172.159 466.624C171.925 466.715 171.733 466.851 171.583 467.032C171.434 467.213 171.359 467.437 171.359 467.704V473H169.023ZM183.188 466.352H181.348L181.364 470.76C181.364 470.963 181.388 471.115 181.436 471.216C181.49 471.312 181.57 471.376 181.676 471.408C181.788 471.435 181.93 471.448 182.1 471.448H183.212V472.888C183.106 472.936 182.938 472.981 182.708 473.024C182.484 473.067 182.17 473.088 181.764 473.088C181.039 473.088 180.476 472.995 180.076 472.808C179.682 472.621 179.407 472.36 179.252 472.024C179.098 471.688 179.02 471.299 179.02 470.856V466.352H177.676V464.728H179.1L179.684 462.232H181.348V464.72H183.188V466.352ZM187.266 464.728V473H185.034V464.728H187.266ZM187.29 461.44V463.544H185.018V461.44H187.29ZM189.43 473V464.728H191.726V465.896C191.854 465.693 192.019 465.499 192.222 465.312C192.43 465.12 192.691 464.963 193.006 464.84C193.32 464.717 193.694 464.656 194.126 464.656C194.632 464.656 195.104 464.755 195.542 464.952C195.984 465.149 196.342 465.461 196.614 465.888C196.886 466.309 197.022 466.861 197.022 467.544V473H194.686V467.832C194.686 467.384 194.552 467.048 194.286 466.824C194.019 466.6 193.694 466.488 193.31 466.488C193.054 466.488 192.806 466.533 192.566 466.624C192.331 466.715 192.139 466.851 191.99 467.032C191.84 467.213 191.766 467.437 191.766 467.704V473H189.43ZM201.868 473.16C201.484 473.16 201.106 473.101 200.732 472.984C200.364 472.867 200.028 472.693 199.724 472.464C199.42 472.235 199.175 471.952 198.988 471.616C198.807 471.28 198.716 470.891 198.716 470.448V464.728H201.052V470.152C201.052 470.536 201.178 470.851 201.428 471.096C201.679 471.341 202.047 471.464 202.532 471.464C202.991 471.464 203.354 471.347 203.62 471.112C203.892 470.872 204.028 470.539 204.028 470.112V464.728H206.34V473H204.58L204.308 471.36C204.212 471.845 204.031 472.219 203.764 472.48C203.503 472.736 203.202 472.912 202.86 473.008C202.524 473.109 202.194 473.16 201.868 473.16ZM210.162 469.4C210.157 469.821 210.224 470.189 210.362 470.504C210.501 470.813 210.701 471.053 210.962 471.224C211.229 471.389 211.549 471.472 211.922 471.472C212.322 471.472 212.672 471.387 212.97 471.216C213.274 471.045 213.485 470.765 213.602 470.376H215.706C215.616 470.963 215.381 471.464 215.002 471.88C214.629 472.296 214.176 472.613 213.642 472.832C213.109 473.051 212.554 473.16 211.978 473.16C211.162 473.16 210.442 472.989 209.818 472.648C209.2 472.301 208.717 471.813 208.37 471.184C208.024 470.555 207.85 469.813 207.85 468.96C207.85 468.133 208.008 467.389 208.322 466.728C208.637 466.061 209.093 465.536 209.69 465.152C210.293 464.763 211.016 464.568 211.858 464.568C212.701 464.568 213.408 464.747 213.978 465.104C214.554 465.456 214.986 465.949 215.274 466.584C215.568 467.213 215.714 467.941 215.714 468.768V469.4H210.162ZM210.154 468.008H213.53C213.53 467.677 213.469 467.373 213.346 467.096C213.224 466.819 213.037 466.6 212.786 466.44C212.541 466.28 212.232 466.2 211.858 466.2C211.496 466.2 211.186 466.288 210.93 466.464C210.68 466.635 210.488 466.859 210.354 467.136C210.221 467.413 210.154 467.704 210.154 468.008ZM225.673 466.352H223.833L223.849 470.76C223.849 470.963 223.873 471.115 223.921 471.216C223.974 471.312 224.054 471.376 224.161 471.408C224.273 471.435 224.414 471.448 224.585 471.448H225.697V472.888C225.59 472.936 225.422 472.981 225.193 473.024C224.969 473.067 224.654 473.088 224.249 473.088C223.523 473.088 222.961 472.995 222.561 472.808C222.166 472.621 221.891 472.36 221.737 472.024C221.582 471.688 221.505 471.299 221.505 470.856V466.352H220.161V464.728H221.585L222.169 462.232H223.833V464.72H225.673V466.352ZM230.685 473.16C229.874 473.16 229.167 472.987 228.565 472.64C227.967 472.293 227.503 471.803 227.173 471.168C226.847 470.533 226.685 469.781 226.685 468.912C226.685 468.043 226.847 467.283 227.173 466.632C227.503 465.981 227.967 465.475 228.565 465.112C229.167 464.749 229.877 464.568 230.693 464.568C231.509 464.568 232.215 464.747 232.813 465.104C233.41 465.456 233.871 465.957 234.197 466.608C234.522 467.259 234.685 468.027 234.685 468.912C234.685 469.744 234.525 470.48 234.205 471.12C233.89 471.755 233.434 472.253 232.837 472.616C232.245 472.979 231.527 473.16 230.685 473.16ZM230.693 471.424C231.103 471.424 231.434 471.304 231.685 471.064C231.935 470.824 232.117 470.509 232.229 470.12C232.346 469.725 232.405 469.296 232.405 468.832C232.405 468.395 232.351 467.981 232.245 467.592C232.143 467.203 231.967 466.888 231.717 466.648C231.466 466.408 231.125 466.288 230.693 466.288C230.282 466.288 229.949 466.403 229.693 466.632C229.442 466.856 229.258 467.163 229.141 467.552C229.023 467.936 228.965 468.363 228.965 468.832C228.965 469.264 229.018 469.68 229.125 470.08C229.231 470.475 229.41 470.797 229.661 471.048C229.911 471.299 230.255 471.424 230.693 471.424ZM239.586 473V461.112H241.906V465.92C242.039 465.728 242.207 465.539 242.41 465.352C242.613 465.16 242.866 465 243.17 464.872C243.474 464.744 243.845 464.68 244.282 464.68C244.81 464.68 245.29 464.784 245.722 464.992C246.159 465.195 246.509 465.491 246.77 465.88C247.037 466.269 247.17 466.744 247.17 467.304V473H244.826V467.648C244.826 467.275 244.69 466.989 244.418 466.792C244.151 466.589 243.826 466.488 243.442 466.488C243.191 466.488 242.949 466.533 242.714 466.624C242.479 466.715 242.287 466.853 242.138 467.04C241.994 467.221 241.922 467.448 241.922 467.72V473H239.586ZM252.622 473.16C251.812 473.16 251.105 472.987 250.502 472.64C249.905 472.293 249.441 471.803 249.11 471.168C248.785 470.533 248.622 469.781 248.622 468.912C248.622 468.043 248.785 467.283 249.11 466.632C249.441 465.981 249.905 465.475 250.502 465.112C251.105 464.749 251.814 464.568 252.63 464.568C253.446 464.568 254.153 464.747 254.75 465.104C255.348 465.456 255.809 465.957 256.134 466.608C256.46 467.259 256.622 468.027 256.622 468.912C256.622 469.744 256.462 470.48 256.142 471.12C255.828 471.755 255.372 472.253 254.774 472.616C254.182 472.979 253.465 473.16 252.622 473.16ZM252.63 471.424C253.041 471.424 253.372 471.304 253.622 471.064C253.873 470.824 254.054 470.509 254.166 470.12C254.284 469.725 254.342 469.296 254.342 468.832C254.342 468.395 254.289 467.981 254.182 467.592C254.081 467.203 253.905 466.888 253.654 466.648C253.404 466.408 253.062 466.288 252.63 466.288C252.22 466.288 251.886 466.403 251.63 466.632C251.38 466.856 251.196 467.163 251.078 467.552C250.961 467.936 250.902 468.363 250.902 468.832C250.902 469.264 250.956 469.68 251.062 470.08C251.169 470.475 251.348 470.797 251.598 471.048C251.849 471.299 252.193 471.424 252.63 471.424ZM258.18 473V464.728H260.468V465.896C260.718 465.533 261.054 465.221 261.476 464.96C261.902 464.699 262.438 464.568 263.084 464.568C263.366 464.568 263.654 464.619 263.948 464.72C264.241 464.821 264.516 464.971 264.772 465.168C265.033 465.36 265.244 465.603 265.404 465.896C265.67 465.517 266.02 465.203 266.452 464.952C266.889 464.696 267.374 464.568 267.908 464.568C268.217 464.568 268.529 464.619 268.844 464.72C269.164 464.821 269.457 464.987 269.724 465.216C269.99 465.445 270.204 465.752 270.364 466.136C270.529 466.515 270.612 466.984 270.612 467.544V473H268.276V467.832C268.276 467.501 268.209 467.237 268.076 467.04C267.948 466.837 267.782 466.693 267.58 466.608C267.382 466.517 267.172 466.472 266.948 466.472C266.74 466.472 266.529 466.515 266.316 466.6C266.102 466.68 265.921 466.811 265.772 466.992C265.622 467.173 265.548 467.411 265.548 467.704V473H263.22V467.624C263.22 467.373 263.153 467.163 263.02 466.992C262.886 466.821 262.718 466.693 262.516 466.608C262.318 466.517 262.116 466.472 261.908 466.472C261.694 466.472 261.481 466.517 261.268 466.608C261.054 466.693 260.876 466.829 260.732 467.016C260.588 467.197 260.516 467.427 260.516 467.704V473H258.18ZM274.428 469.4C274.422 469.821 274.489 470.189 274.628 470.504C274.766 470.813 274.966 471.053 275.228 471.224C275.494 471.389 275.814 471.472 276.188 471.472C276.588 471.472 276.937 471.387 277.236 471.216C277.54 471.045 277.75 470.765 277.868 470.376H279.972C279.881 470.963 279.646 471.464 279.268 471.88C278.894 472.296 278.441 472.613 277.908 472.832C277.374 473.051 276.82 473.16 276.244 473.16C275.428 473.16 274.708 472.989 274.084 472.648C273.465 472.301 272.982 471.813 272.636 471.184C272.289 470.555 272.116 469.813 272.116 468.96C272.116 468.133 272.273 467.389 272.588 466.728C272.902 466.061 273.358 465.536 273.956 465.152C274.558 464.763 275.281 464.568 276.124 464.568C276.966 464.568 277.673 464.747 278.244 465.104C278.82 465.456 279.252 465.949 279.54 466.584C279.833 467.213 279.98 467.941 279.98 468.768V469.4H274.428ZM274.42 468.008H277.796C277.796 467.677 277.734 467.373 277.612 467.096C277.489 466.819 277.302 466.6 277.052 466.44C276.806 466.28 276.497 466.2 276.124 466.2C275.761 466.2 275.452 466.288 275.196 466.464C274.945 466.635 274.753 466.859 274.62 467.136C274.486 467.413 274.42 467.704 274.42 468.008Z" fill="white"/>
<rect x="116.25" y="443.25" width="195.5" height="48.5" rx="2.75" stroke="#4A4A4A" stroke-width="2.5"/>
<path d="M155.327 393V381.432H159.583C160.426 381.432 161.181 381.579 161.847 381.872C162.514 382.16 163.039 382.587 163.423 383.152C163.813 383.717 164.007 384.408 164.007 385.224C164.007 385.992 163.837 386.648 163.495 387.192C163.154 387.736 162.674 388.152 162.055 388.44C161.442 388.728 160.719 388.872 159.887 388.872H157.679V393H155.327ZM157.655 387.064H159.823C160.41 387.064 160.89 386.877 161.263 386.504C161.637 386.125 161.823 385.659 161.823 385.104C161.823 384.528 161.626 384.072 161.231 383.736C160.837 383.395 160.357 383.224 159.791 383.224H157.655V387.064ZM167.65 393.16C167.122 393.16 166.647 393.061 166.226 392.864C165.805 392.667 165.471 392.381 165.226 392.008C164.981 391.629 164.858 391.171 164.858 390.632C164.858 389.725 165.197 389.037 165.874 388.568C166.551 388.093 167.621 387.848 169.082 387.832L170.114 387.816V387.32C170.114 386.941 170.002 386.651 169.778 386.448C169.559 386.24 169.218 386.139 168.754 386.144C168.413 386.149 168.087 386.229 167.778 386.384C167.474 386.539 167.266 386.808 167.154 387.192H165.21C165.242 386.595 165.415 386.104 165.73 385.72C166.045 385.331 166.471 385.043 167.01 384.856C167.554 384.664 168.17 384.568 168.858 384.568C169.706 384.568 170.386 384.675 170.898 384.888C171.41 385.096 171.781 385.397 172.01 385.792C172.239 386.181 172.354 386.645 172.354 387.184V393H170.402L170.21 391.576C169.927 392.173 169.573 392.587 169.146 392.816C168.725 393.045 168.226 393.16 167.65 393.16ZM168.434 391.624C168.647 391.624 168.853 391.587 169.05 391.512C169.253 391.432 169.431 391.328 169.586 391.2C169.746 391.067 169.874 390.917 169.97 390.752C170.066 390.587 170.114 390.416 170.114 390.24V389.016L169.274 389.032C168.885 389.037 168.522 389.085 168.186 389.176C167.85 389.261 167.578 389.403 167.37 389.6C167.167 389.797 167.066 390.064 167.066 390.4C167.066 390.784 167.199 391.085 167.466 391.304C167.733 391.517 168.055 391.624 168.434 391.624ZM177.6 393.16C177.024 393.16 176.469 393.067 175.936 392.88C175.403 392.688 174.952 392.389 174.584 391.984C174.216 391.573 173.981 391.043 173.88 390.392H175.904C175.973 390.685 176.099 390.917 176.28 391.088C176.467 391.259 176.677 391.381 176.912 391.456C177.147 391.525 177.371 391.56 177.584 391.56C178.032 391.56 178.392 391.491 178.664 391.352C178.941 391.208 179.08 390.989 179.08 390.696C179.08 390.472 178.997 390.293 178.832 390.16C178.672 390.027 178.405 389.925 178.032 389.856L176.576 389.552C175.845 389.397 175.259 389.136 174.816 388.768C174.373 388.395 174.147 387.867 174.136 387.184C174.136 386.688 174.267 386.243 174.528 385.848C174.795 385.453 175.187 385.141 175.704 384.912C176.221 384.683 176.856 384.568 177.608 384.568C178.627 384.568 179.44 384.792 180.048 385.24C180.661 385.688 180.973 386.32 180.984 387.136H179.032C178.973 386.816 178.813 386.571 178.552 386.4C178.296 386.224 177.973 386.136 177.584 386.136C177.179 386.136 176.845 386.208 176.584 386.352C176.323 386.496 176.192 386.715 176.192 387.008C176.192 387.227 176.299 387.4 176.512 387.528C176.725 387.651 177.056 387.757 177.504 387.848L178.848 388.152C179.312 388.264 179.688 388.419 179.976 388.616C180.269 388.808 180.496 389.019 180.656 389.248C180.816 389.477 180.925 389.709 180.984 389.944C181.048 390.173 181.08 390.381 181.08 390.568C181.08 391.117 180.933 391.587 180.64 391.976C180.347 392.36 179.939 392.653 179.416 392.856C178.893 393.059 178.288 393.16 177.6 393.16ZM185.897 393.16C185.321 393.16 184.766 393.067 184.233 392.88C183.7 392.688 183.249 392.389 182.881 391.984C182.513 391.573 182.278 391.043 182.177 390.392H184.201C184.27 390.685 184.396 390.917 184.577 391.088C184.764 391.259 184.974 391.381 185.209 391.456C185.444 391.525 185.668 391.56 185.881 391.56C186.329 391.56 186.689 391.491 186.961 391.352C187.238 391.208 187.377 390.989 187.377 390.696C187.377 390.472 187.294 390.293 187.129 390.16C186.969 390.027 186.702 389.925 186.329 389.856L184.873 389.552C184.142 389.397 183.556 389.136 183.113 388.768C182.67 388.395 182.444 387.867 182.433 387.184C182.433 386.688 182.564 386.243 182.825 385.848C183.092 385.453 183.484 385.141 184.001 384.912C184.518 384.683 185.153 384.568 185.905 384.568C186.924 384.568 187.737 384.792 188.345 385.24C188.958 385.688 189.27 386.32 189.281 387.136H187.329C187.27 386.816 187.11 386.571 186.849 386.4C186.593 386.224 186.27 386.136 185.881 386.136C185.476 386.136 185.142 386.208 184.881 386.352C184.62 386.496 184.489 386.715 184.489 387.008C184.489 387.227 184.596 387.4 184.809 387.528C185.022 387.651 185.353 387.757 185.801 387.848L187.145 388.152C187.609 388.264 187.985 388.419 188.273 388.616C188.566 388.808 188.793 389.019 188.953 389.248C189.113 389.477 189.222 389.709 189.281 389.944C189.345 390.173 189.377 390.381 189.377 390.568C189.377 391.117 189.23 391.587 188.937 391.976C188.644 392.36 188.236 392.653 187.713 392.856C187.19 393.059 186.585 393.16 185.897 393.16ZM202.361 384.728L199.641 393H197.785L196.241 387.992L194.705 393H192.897L190.217 384.728H192.281L193.865 389.856H193.929L195.449 384.728H197.113L198.649 389.856H198.713L200.249 384.728H202.361ZM206.818 393.16C206.007 393.16 205.3 392.987 204.698 392.64C204.1 392.293 203.636 391.803 203.306 391.168C202.98 390.533 202.818 389.781 202.818 388.912C202.818 388.043 202.98 387.283 203.306 386.632C203.636 385.981 204.1 385.475 204.698 385.112C205.3 384.749 206.01 384.568 206.826 384.568C207.642 384.568 208.348 384.747 208.946 385.104C209.543 385.456 210.004 385.957 210.33 386.608C210.655 387.259 210.818 388.027 210.818 388.912C210.818 389.744 210.658 390.48 210.338 391.12C210.023 391.755 209.567 392.253 208.97 392.616C208.378 392.979 207.66 393.16 206.818 393.16ZM206.826 391.424C207.236 391.424 207.567 391.304 207.818 391.064C208.068 390.824 208.25 390.509 208.362 390.12C208.479 389.725 208.538 389.296 208.538 388.832C208.538 388.395 208.484 387.981 208.378 387.592C208.276 387.203 208.1 386.888 207.85 386.648C207.599 386.408 207.258 386.288 206.826 386.288C206.415 386.288 206.082 386.403 205.826 386.632C205.575 386.856 205.391 387.163 205.274 387.552C205.156 387.936 205.098 388.363 205.098 388.832C205.098 389.264 205.151 389.68 205.258 390.08C205.364 390.475 205.543 390.797 205.794 391.048C206.044 391.299 206.388 391.424 206.826 391.424ZM212.375 393V384.728H214.623V386.688C214.756 386.267 214.943 385.899 215.183 385.584C215.428 385.264 215.724 385.016 216.071 384.84C216.418 384.659 216.81 384.568 217.247 384.568C217.322 384.568 217.391 384.573 217.455 384.584C217.524 384.589 217.575 384.6 217.607 384.616V386.84C217.559 386.819 217.5 386.805 217.431 386.8C217.367 386.795 217.308 386.789 217.255 386.784C216.796 386.747 216.404 386.76 216.079 386.824C215.754 386.888 215.49 386.997 215.287 387.152C215.084 387.307 214.938 387.496 214.847 387.72C214.756 387.944 214.711 388.195 214.711 388.472V393H212.375ZM221.916 393.16C220.806 393.16 219.942 392.779 219.324 392.016C218.705 391.248 218.396 390.181 218.396 388.816C218.396 387.952 218.521 387.203 218.772 386.568C219.022 385.933 219.393 385.443 219.884 385.096C220.374 384.744 220.974 384.568 221.684 384.568C221.982 384.568 222.26 384.603 222.516 384.672C222.777 384.736 223.014 384.827 223.228 384.944C223.441 385.061 223.628 385.197 223.788 385.352C223.948 385.507 224.078 385.672 224.18 385.848V381.112H226.524V393H224.828L224.564 391.304C224.489 391.533 224.385 391.757 224.252 391.976C224.118 392.195 223.948 392.395 223.74 392.576C223.532 392.752 223.276 392.893 222.972 393C222.673 393.107 222.321 393.16 221.916 393.16ZM222.428 391.48C223.014 391.48 223.452 391.275 223.74 390.864C224.033 390.453 224.18 389.76 224.18 388.784C224.174 388.219 224.108 387.749 223.98 387.376C223.852 387.003 223.66 386.725 223.404 386.544C223.153 386.357 222.833 386.264 222.444 386.264C221.937 386.264 221.516 386.459 221.18 386.848C220.844 387.232 220.676 387.877 220.676 388.784C220.676 389.707 220.833 390.387 221.148 390.824C221.462 391.261 221.889 391.48 222.428 391.48ZM231.922 393V384.728H234.17V386.688C234.303 386.267 234.49 385.899 234.73 385.584C234.975 385.264 235.271 385.016 235.618 384.84C235.965 384.659 236.357 384.568 236.794 384.568C236.869 384.568 236.938 384.573 237.002 384.584C237.071 384.589 237.122 384.6 237.154 384.616V386.84C237.106 386.819 237.047 386.805 236.978 386.8C236.914 386.795 236.855 386.789 236.802 386.784C236.343 386.747 235.951 386.76 235.626 386.824C235.301 386.888 235.037 386.997 234.834 387.152C234.631 387.307 234.485 387.496 234.394 387.72C234.303 387.944 234.258 388.195 234.258 388.472V393H231.922ZM240.311 389.4C240.305 389.821 240.372 390.189 240.511 390.504C240.649 390.813 240.849 391.053 241.111 391.224C241.377 391.389 241.697 391.472 242.071 391.472C242.471 391.472 242.82 391.387 243.119 391.216C243.423 391.045 243.633 390.765 243.751 390.376H245.855C245.764 390.963 245.529 391.464 245.151 391.88C244.777 392.296 244.324 392.613 243.791 392.832C243.257 393.051 242.703 393.16 242.127 393.16C241.311 393.16 240.591 392.989 239.967 392.648C239.348 392.301 238.865 391.813 238.519 391.184C238.172 390.555 237.999 389.813 237.999 388.96C237.999 388.133 238.156 387.389 238.471 386.728C238.785 386.061 239.241 385.536 239.839 385.152C240.441 384.763 241.164 384.568 242.007 384.568C242.849 384.568 243.556 384.747 244.127 385.104C244.703 385.456 245.135 385.949 245.423 386.584C245.716 387.213 245.863 387.941 245.863 388.768V389.4H240.311ZM240.303 388.008H243.679C243.679 387.677 243.617 387.373 243.495 387.096C243.372 386.819 243.185 386.6 242.935 386.44C242.689 386.28 242.38 386.2 242.007 386.2C241.644 386.2 241.335 386.288 241.079 386.464C240.828 386.635 240.636 386.859 240.503 387.136C240.369 387.413 240.303 387.704 240.303 388.008ZM250.741 393.16C250.165 393.16 249.61 393.067 249.077 392.88C248.543 392.688 248.093 392.389 247.725 391.984C247.357 391.573 247.122 391.043 247.021 390.392H249.045C249.114 390.685 249.239 390.917 249.421 391.088C249.607 391.259 249.818 391.381 250.053 391.456C250.287 391.525 250.511 391.56 250.725 391.56C251.173 391.56 251.533 391.491 251.805 391.352C252.082 391.208 252.221 390.989 252.221 390.696C252.221 390.472 252.138 390.293 251.973 390.16C251.813 390.027 251.546 389.925 251.173 389.856L249.717 389.552C248.986 389.397 248.399 389.136 247.957 388.768C247.514 388.395 247.287 387.867 247.277 387.184C247.277 386.688 247.407 386.243 247.669 385.848C247.935 385.453 248.327 385.141 248.845 384.912C249.362 384.683 249.997 384.568 250.749 384.568C251.767 384.568 252.581 384.792 253.189 385.24C253.802 385.688 254.114 386.32 254.125 387.136H252.173C252.114 386.816 251.954 386.571 251.693 386.4C251.437 386.224 251.114 386.136 250.725 386.136C250.319 386.136 249.986 386.208 249.725 386.352C249.463 386.496 249.333 386.715 249.333 387.008C249.333 387.227 249.439 387.4 249.653 387.528C249.866 387.651 250.197 387.757 250.645 387.848L251.989 388.152C252.453 388.264 252.829 388.419 253.117 388.616C253.41 388.808 253.637 389.019 253.797 389.248C253.957 389.477 254.066 389.709 254.125 389.944C254.189 390.173 254.221 390.381 254.221 390.568C254.221 391.117 254.074 391.587 253.781 391.976C253.487 392.36 253.079 392.653 252.557 392.856C252.034 393.059 251.429 393.16 250.741 393.16ZM257.779 389.4C257.774 389.821 257.841 390.189 257.979 390.504C258.118 390.813 258.318 391.053 258.579 391.224C258.846 391.389 259.166 391.472 259.539 391.472C259.939 391.472 260.289 391.387 260.587 391.216C260.891 391.045 261.102 390.765 261.219 390.376H263.323C263.233 390.963 262.998 391.464 262.619 391.88C262.246 392.296 261.793 392.613 261.259 392.832C260.726 393.051 260.171 393.16 259.595 393.16C258.779 393.16 258.059 392.989 257.435 392.648C256.817 392.301 256.334 391.813 255.987 391.184C255.641 390.555 255.467 389.813 255.467 388.96C255.467 388.133 255.625 387.389 255.939 386.728C256.254 386.061 256.71 385.536 257.307 385.152C257.91 384.763 258.633 384.568 259.475 384.568C260.318 384.568 261.025 384.747 261.595 385.104C262.171 385.456 262.603 385.949 262.891 386.584C263.185 387.213 263.331 387.941 263.331 388.768V389.4H257.779ZM257.771 388.008H261.147C261.147 387.677 261.086 387.373 260.963 387.096C260.841 386.819 260.654 386.6 260.403 386.44C260.158 386.28 259.849 386.2 259.475 386.2C259.113 386.2 258.803 386.288 258.547 386.464C258.297 386.635 258.105 386.859 257.971 387.136C257.838 387.413 257.771 387.704 257.771 388.008ZM269.728 386.352H267.888L267.904 390.76C267.904 390.963 267.928 391.115 267.976 391.216C268.029 391.312 268.109 391.376 268.216 391.408C268.328 391.435 268.469 391.448 268.64 391.448H269.752V392.888C269.645 392.936 269.477 392.981 269.248 393.024C269.024 393.067 268.709 393.088 268.304 393.088C267.578 393.088 267.016 392.995 266.616 392.808C266.221 392.621 265.946 392.36 265.792 392.024C265.637 391.688 265.56 391.299 265.56 390.856V386.352H264.215V384.728H265.64L266.224 382.232H267.888V384.72H269.728V386.352ZM273.901 390.504V393H271.349V390.504H273.901ZM273.997 381.432L273.381 389.432H271.917L271.261 381.432H273.997Z" fill="#3E3E3E"/>
<defs>
<clipPath id="clip0_108_93">
<rect width="119" height="119" fill="white" transform="translate(155 22)"/>
</clipPath>
</defs>
</svg>
