<svg width="428" height="926" viewBox="0 0 428 926" fill="none" xmlns="http://www.w3.org/2000/svg">
<rect width="428" height="926" fill="#F8F2E9"/>
<rect x="51" y="196" width="326" height="50" rx="6" fill="#FCFCFC" stroke="white" stroke-width="4"/>
<path d="M50.134 179V168.878H57.085L57.078 170.6H52.185V173.057H56.434V174.744H52.171V177.257L57.155 177.264V179H50.134ZM58.6797 179V171.762H60.6817V172.784C60.901 172.467 61.195 172.194 61.5637 171.965C61.937 171.736 62.406 171.622 62.9707 171.622C63.218 171.622 63.47 171.666 63.7267 171.755C63.9834 171.844 64.2237 171.974 64.4477 172.147C64.6764 172.315 64.8607 172.527 65.0007 172.784C65.234 172.453 65.5397 172.177 65.9177 171.958C66.3004 171.734 66.725 171.622 67.1917 171.622C67.4624 171.622 67.7354 171.666 68.0107 171.755C68.2907 171.844 68.5474 171.988 68.7807 172.189C69.014 172.39 69.2007 172.658 69.3407 172.994C69.4854 173.325 69.5577 173.736 69.5577 174.226V179H67.5137V174.478C67.5137 174.189 67.4554 173.958 67.3387 173.785C67.2267 173.608 67.082 173.482 66.9047 173.407C66.732 173.328 66.5477 173.288 66.3517 173.288C66.1697 173.288 65.9854 173.325 65.7987 173.4C65.612 173.47 65.4534 173.584 65.3227 173.743C65.192 173.902 65.1267 174.109 65.1267 174.366V179H63.0897V174.296C63.0897 174.077 63.0314 173.892 62.9147 173.743C62.798 173.594 62.651 173.482 62.4737 173.407C62.301 173.328 62.1237 173.288 61.9417 173.288C61.755 173.288 61.5684 173.328 61.3817 173.407C61.195 173.482 61.0387 173.601 60.9127 173.764C60.7867 173.923 60.7237 174.123 60.7237 174.366V179H58.6797ZM73.2621 179.14C72.8001 179.14 72.3848 179.054 72.0161 178.881C71.6474 178.708 71.3558 178.459 71.1411 178.132C70.9264 177.801 70.8191 177.399 70.8191 176.928C70.8191 176.135 71.1154 175.533 71.7081 175.122C72.3008 174.707 73.2364 174.492 74.5151 174.478L75.4181 174.464V174.03C75.4181 173.699 75.3201 173.444 75.1241 173.267C74.9328 173.085 74.6341 172.996 74.2281 173.001C73.9294 173.006 73.6448 173.076 73.3741 173.211C73.1081 173.346 72.9261 173.582 72.8281 173.918H71.1271C71.1551 173.395 71.3068 172.966 71.5821 172.63C71.8574 172.289 72.2308 172.037 72.7021 171.874C73.1781 171.706 73.7171 171.622 74.3191 171.622C75.0611 171.622 75.6561 171.715 76.1041 171.902C76.5521 172.084 76.8764 172.348 77.0771 172.693C77.2778 173.034 77.3781 173.44 77.3781 173.911V179H75.6701L75.5021 177.754C75.2548 178.277 74.9444 178.638 74.5711 178.839C74.2024 179.04 73.7661 179.14 73.2621 179.14ZM73.9481 177.796C74.1348 177.796 74.3144 177.763 74.4871 177.698C74.6644 177.628 74.8208 177.537 74.9561 177.425C75.0961 177.308 75.2081 177.178 75.2921 177.033C75.3761 176.888 75.4181 176.739 75.4181 176.585V175.514L74.6831 175.528C74.3424 175.533 74.0251 175.575 73.7311 175.654C73.4371 175.729 73.1991 175.852 73.0171 176.025C72.8398 176.198 72.7511 176.431 72.7511 176.725C72.7511 177.061 72.8678 177.325 73.1011 177.516C73.3344 177.703 73.6168 177.796 73.9481 177.796ZM81.2455 171.762V179H79.2925V171.762H81.2455ZM81.2665 168.885V170.726H79.2785V168.885H81.2665ZM85.4487 179.126C84.9167 179.126 84.4943 179.063 84.1817 178.937C83.869 178.811 83.638 178.645 83.4887 178.44C83.3393 178.23 83.2437 177.999 83.2017 177.747C83.1597 177.49 83.1387 177.231 83.1387 176.97V168.598H85.1407V176.718C85.1407 176.984 85.1967 177.201 85.3087 177.369C85.4253 177.532 85.6423 177.633 85.9597 177.67L86.3027 177.691V178.951C86.1627 178.998 86.0203 179.037 85.8757 179.07C85.731 179.107 85.5887 179.126 85.4487 179.126Z" fill="#3E3E3E"/>
<rect x="51" y="302" width="326" height="50" rx="6" fill="#FCFCFC" stroke="white" stroke-width="4"/>
<path d="M50.134 285V274.878H53.858C54.5953 274.878 55.2557 275.006 55.839 275.263C56.4223 275.515 56.882 275.888 57.218 276.383C57.5587 276.878 57.729 277.482 57.729 278.196C57.729 278.868 57.5797 279.442 57.281 279.918C56.9823 280.394 56.5623 280.758 56.021 281.01C55.4843 281.262 54.852 281.388 54.124 281.388H52.192V285H50.134ZM52.171 279.806H54.068C54.5813 279.806 55.0013 279.643 55.328 279.316C55.6547 278.985 55.818 278.576 55.818 278.091C55.818 277.587 55.6453 277.188 55.3 276.894C54.9547 276.595 54.5347 276.446 54.04 276.446H52.171V279.806ZM60.9164 285.14C60.4544 285.14 60.0391 285.054 59.6704 284.881C59.3017 284.708 59.0101 284.459 58.7954 284.132C58.5807 283.801 58.4734 283.399 58.4734 282.928C58.4734 282.135 58.7697 281.533 59.3624 281.122C59.9551 280.707 60.8907 280.492 62.1694 280.478L63.0724 280.464V280.03C63.0724 279.699 62.9744 279.444 62.7784 279.267C62.5871 279.085 62.2884 278.996 61.8824 279.001C61.5837 279.006 61.2991 279.076 61.0284 279.211C60.7624 279.346 60.5804 279.582 60.4824 279.918H58.7814C58.8094 279.395 58.9611 278.966 59.2364 278.63C59.5117 278.289 59.8851 278.037 60.3564 277.874C60.8324 277.706 61.3714 277.622 61.9734 277.622C62.7154 277.622 63.3104 277.715 63.7584 277.902C64.2064 278.084 64.5307 278.348 64.7314 278.693C64.9321 279.034 65.0324 279.44 65.0324 279.911V285H63.3244L63.1564 283.754C62.9091 284.277 62.5987 284.638 62.2254 284.839C61.8567 285.04 61.4204 285.14 60.9164 285.14ZM61.6024 283.796C61.7891 283.796 61.9687 283.763 62.1414 283.698C62.3187 283.628 62.4751 283.537 62.6104 283.425C62.7504 283.308 62.8624 283.178 62.9464 283.033C63.0304 282.888 63.0724 282.739 63.0724 282.585V281.514L62.3374 281.528C61.9967 281.533 61.6794 281.575 61.3854 281.654C61.0914 281.729 60.8534 281.852 60.6714 282.025C60.4941 282.198 60.4054 282.431 60.4054 282.725C60.4054 283.061 60.5221 283.325 60.7554 283.516C60.9887 283.703 61.2711 283.796 61.6024 283.796ZM69.6228 285.14C69.1188 285.14 68.6334 285.058 68.1668 284.895C67.7001 284.727 67.3058 284.466 66.9838 284.111C66.6618 283.752 66.4564 283.287 66.3678 282.718H68.1388C68.1994 282.975 68.3091 283.178 68.4678 283.327C68.6311 283.476 68.8154 283.584 69.0208 283.649C69.2261 283.71 69.4221 283.74 69.6088 283.74C70.0008 283.74 70.3158 283.679 70.5538 283.558C70.7964 283.432 70.9178 283.241 70.9178 282.984C70.9178 282.788 70.8454 282.632 70.7008 282.515C70.5608 282.398 70.3274 282.31 70.0008 282.249L68.7268 281.983C68.0874 281.848 67.5741 281.619 67.1868 281.297C66.7994 280.97 66.6011 280.508 66.5918 279.911C66.5918 279.477 66.7061 279.087 66.9348 278.742C67.1681 278.397 67.5111 278.124 67.9638 277.923C68.4164 277.722 68.9718 277.622 69.6298 277.622C70.5211 277.622 71.2328 277.818 71.7648 278.21C72.3014 278.602 72.5744 279.155 72.5838 279.869H70.8758C70.8244 279.589 70.6844 279.374 70.4558 279.225C70.2318 279.071 69.9494 278.994 69.6088 278.994C69.2541 278.994 68.9624 279.057 68.7338 279.183C68.5051 279.309 68.3908 279.5 68.3908 279.757C68.3908 279.948 68.4841 280.1 68.6708 280.212C68.8574 280.319 69.1468 280.413 69.5388 280.492L70.7148 280.758C71.1208 280.856 71.4498 280.991 71.7018 281.164C71.9584 281.332 72.1568 281.516 72.2968 281.717C72.4368 281.918 72.5324 282.121 72.5838 282.326C72.6398 282.527 72.6678 282.709 72.6678 282.872C72.6678 283.353 72.5394 283.763 72.2828 284.104C72.0261 284.44 71.6691 284.697 71.2118 284.874C70.7544 285.051 70.2248 285.14 69.6228 285.14ZM76.8825 285.14C76.3785 285.14 75.8932 285.058 75.4265 284.895C74.9599 284.727 74.5655 284.466 74.2435 284.111C73.9215 283.752 73.7162 283.287 73.6275 282.718H75.3985C75.4592 282.975 75.5689 283.178 75.7275 283.327C75.8909 283.476 76.0752 283.584 76.2805 283.649C76.4859 283.71 76.6819 283.74 76.8685 283.74C77.2605 283.74 77.5755 283.679 77.8135 283.558C78.0562 283.432 78.1775 283.241 78.1775 282.984C78.1775 282.788 78.1052 282.632 77.9605 282.515C77.8205 282.398 77.5872 282.31 77.2605 282.249L75.9865 281.983C75.3472 281.848 74.8339 281.619 74.4465 281.297C74.0592 280.97 73.8609 280.508 73.8515 279.911C73.8515 279.477 73.9659 279.087 74.1945 278.742C74.4279 278.397 74.7709 278.124 75.2235 277.923C75.6762 277.722 76.2315 277.622 76.8895 277.622C77.7809 277.622 78.4925 277.818 79.0245 278.21C79.5612 278.602 79.8342 279.155 79.8435 279.869H78.1355C78.0842 279.589 77.9442 279.374 77.7155 279.225C77.4915 279.071 77.2092 278.994 76.8685 278.994C76.5139 278.994 76.2222 279.057 75.9935 279.183C75.7649 279.309 75.6505 279.5 75.6505 279.757C75.6505 279.948 75.7439 280.1 75.9305 280.212C76.1172 280.319 76.4065 280.413 76.7985 280.492L77.9745 280.758C78.3805 280.856 78.7095 280.991 78.9615 281.164C79.2182 281.332 79.4165 281.516 79.5565 281.717C79.6965 281.918 79.7922 282.121 79.8435 282.326C79.8995 282.527 79.9275 282.709 79.9275 282.872C79.9275 283.353 79.7992 283.763 79.5425 284.104C79.2859 284.44 78.9289 284.697 78.4715 284.874C78.0142 285.051 77.4845 285.14 76.8825 285.14ZM91.2886 277.762L88.9086 285H87.2846L85.9336 280.618L84.5896 285H83.0076L80.6626 277.762H82.4686L83.8546 282.249H83.9106L85.2406 277.762H86.6966L88.0406 282.249H88.0966L89.4406 277.762H91.2886ZM95.1881 285.14C94.4787 285.14 93.8604 284.988 93.3331 284.685C92.8104 284.382 92.4044 283.952 92.1151 283.397C91.8304 282.842 91.6881 282.184 91.6881 281.423C91.6881 280.662 91.8304 279.997 92.1151 279.428C92.4044 278.859 92.8104 278.415 93.3331 278.098C93.8604 277.781 94.4811 277.622 95.1951 277.622C95.9091 277.622 96.5274 277.778 97.0501 278.091C97.5727 278.399 97.9764 278.838 98.2611 279.407C98.5457 279.976 98.6881 280.648 98.6881 281.423C98.6881 282.151 98.5481 282.795 98.2681 283.355C97.9927 283.91 97.5937 284.347 97.0711 284.664C96.5531 284.981 95.9254 285.14 95.1881 285.14ZM95.1951 283.621C95.5544 283.621 95.8437 283.516 96.0631 283.306C96.2824 283.096 96.4411 282.821 96.5391 282.48C96.6417 282.135 96.6931 281.759 96.6931 281.353C96.6931 280.97 96.6464 280.609 96.5531 280.268C96.4644 279.927 96.3104 279.652 96.0911 279.442C95.8717 279.232 95.5731 279.127 95.1951 279.127C94.8357 279.127 94.5441 279.227 94.3201 279.428C94.1007 279.624 93.9397 279.892 93.8371 280.233C93.7344 280.569 93.6831 280.942 93.6831 281.353C93.6831 281.731 93.7297 282.095 93.8231 282.445C93.9164 282.79 94.0727 283.073 94.2921 283.292C94.5114 283.511 94.8124 283.621 95.1951 283.621ZM100.051 285V277.762H102.018V279.477C102.134 279.108 102.298 278.786 102.508 278.511C102.722 278.231 102.981 278.014 103.285 277.86C103.588 277.701 103.931 277.622 104.314 277.622C104.379 277.622 104.44 277.627 104.496 277.636C104.556 277.641 104.601 277.65 104.629 277.664V279.61C104.587 279.591 104.535 279.58 104.475 279.575C104.419 279.57 104.367 279.566 104.321 279.561C103.919 279.528 103.576 279.54 103.292 279.596C103.007 279.652 102.776 279.748 102.599 279.883C102.421 280.018 102.293 280.184 102.214 280.38C102.134 280.576 102.095 280.795 102.095 281.038V285H100.051ZM108.399 285.14C107.428 285.14 106.672 284.806 106.131 284.139C105.59 283.467 105.319 282.534 105.319 281.339C105.319 280.583 105.429 279.927 105.648 279.372C105.867 278.817 106.192 278.387 106.621 278.084C107.05 277.776 107.575 277.622 108.196 277.622C108.457 277.622 108.7 277.652 108.924 277.713C109.153 277.769 109.36 277.848 109.547 277.951C109.734 278.054 109.897 278.173 110.037 278.308C110.177 278.443 110.291 278.588 110.38 278.742V274.598H112.431V285H110.947L110.716 283.516C110.651 283.717 110.56 283.913 110.443 284.104C110.326 284.295 110.177 284.47 109.995 284.629C109.813 284.783 109.589 284.907 109.323 285C109.062 285.093 108.754 285.14 108.399 285.14ZM108.847 283.67C109.36 283.67 109.743 283.49 109.995 283.131C110.252 282.772 110.38 282.165 110.38 281.311C110.375 280.816 110.317 280.406 110.205 280.079C110.093 279.752 109.925 279.51 109.701 279.351C109.482 279.188 109.202 279.106 108.861 279.106C108.418 279.106 108.049 279.276 107.755 279.617C107.461 279.953 107.314 280.518 107.314 281.311C107.314 282.118 107.452 282.713 107.727 283.096C108.002 283.479 108.376 283.67 108.847 283.67Z" fill="#3E3E3E"/>
<rect x="51" y="454" width="326" height="50" rx="6" fill="#FCFCFC" stroke="white" stroke-width="4"/>
<path d="M54.257 426.738C55.0177 426.738 55.6943 426.892 56.287 427.2C56.8843 427.503 57.365 427.919 57.729 428.446C58.0977 428.973 58.3147 429.568 58.38 430.231H56.238C56.1727 429.881 56.0537 429.571 55.881 429.3C55.7083 429.025 55.482 428.81 55.202 428.656C54.922 428.497 54.586 428.418 54.194 428.418C53.7227 428.418 53.3167 428.532 52.976 428.761C52.6353 428.99 52.374 429.358 52.192 429.867C52.01 430.376 51.919 431.048 51.919 431.883C51.919 433.143 52.1197 434.055 52.521 434.62C52.927 435.18 53.4847 435.46 54.194 435.46C54.586 435.46 54.922 435.371 55.202 435.194C55.482 435.012 55.7083 434.774 55.881 434.48C56.0537 434.181 56.1727 433.855 56.238 433.5H58.38C58.3193 433.981 58.2027 434.44 58.03 434.879C57.8573 435.313 57.6123 435.7 57.295 436.041C56.9777 436.382 56.5693 436.65 56.07 436.846C55.5707 437.042 54.9663 437.14 54.257 437.14C53.3143 437.14 52.5 436.921 51.814 436.482C51.128 436.043 50.5983 435.427 50.225 434.634C49.8563 433.841 49.672 432.914 49.672 431.855C49.672 430.791 49.8563 429.879 50.225 429.118C50.5937 428.353 51.121 427.765 51.807 427.354C52.493 426.943 53.3097 426.738 54.257 426.738ZM63.0592 437.14C62.3498 437.14 61.7315 436.988 61.2042 436.685C60.6815 436.382 60.2755 435.952 59.9862 435.397C59.7015 434.842 59.5592 434.184 59.5592 433.423C59.5592 432.662 59.7015 431.997 59.9862 431.428C60.2755 430.859 60.6815 430.415 61.2042 430.098C61.7315 429.781 62.3522 429.622 63.0662 429.622C63.7802 429.622 64.3985 429.778 64.9212 430.091C65.4438 430.399 65.8475 430.838 66.1322 431.407C66.4168 431.976 66.5592 432.648 66.5592 433.423C66.5592 434.151 66.4192 434.795 66.1392 435.355C65.8638 435.91 65.4648 436.347 64.9422 436.664C64.4242 436.981 63.7965 437.14 63.0592 437.14ZM63.0662 435.621C63.4255 435.621 63.7148 435.516 63.9342 435.306C64.1535 435.096 64.3122 434.821 64.4102 434.48C64.5128 434.135 64.5642 433.759 64.5642 433.353C64.5642 432.97 64.5175 432.609 64.4242 432.268C64.3355 431.927 64.1815 431.652 63.9622 431.442C63.7428 431.232 63.4442 431.127 63.0662 431.127C62.7068 431.127 62.4152 431.227 62.1912 431.428C61.9718 431.624 61.8108 431.892 61.7082 432.233C61.6055 432.569 61.5542 432.942 61.5542 433.353C61.5542 433.731 61.6008 434.095 61.6942 434.445C61.7875 434.79 61.9438 435.073 62.1632 435.292C62.3825 435.511 62.6835 435.621 63.0662 435.621ZM67.9219 437V429.762H69.9309V430.784C70.0429 430.607 70.1875 430.436 70.3649 430.273C70.5469 430.105 70.7755 429.967 71.0509 429.86C71.3262 429.753 71.6529 429.699 72.0309 429.699C72.4742 429.699 72.8872 429.785 73.2699 429.958C73.6572 430.131 73.9699 430.404 74.2079 430.777C74.4459 431.146 74.5649 431.629 74.5649 432.226V437H72.5209V432.478C72.5209 432.086 72.4042 431.792 72.1709 431.596C71.9375 431.4 71.6529 431.302 71.3169 431.302C71.0929 431.302 70.8759 431.342 70.6659 431.421C70.4605 431.5 70.2925 431.619 70.1619 431.778C70.0312 431.937 69.9659 432.133 69.9659 432.366V437H67.9219ZM80.3233 429.762V431.183H78.7973V437H76.7533V431.183H75.4163V429.762H76.7533V428.719C76.7533 428.136 76.9236 427.683 77.2643 427.361C77.6096 427.039 78.0973 426.878 78.7272 426.878H80.3863L80.3933 428.236H79.4413C79.1799 428.236 79.0003 428.301 78.9023 428.432C78.8089 428.558 78.7623 428.768 78.7623 429.062V429.762H80.3233ZM83.5783 429.762V437H81.6253V429.762H83.5783ZM83.5993 426.885V428.726H81.6113V426.885H83.5993ZM85.4766 437V429.762H87.4436V431.477C87.5602 431.108 87.7236 430.786 87.9336 430.511C88.1482 430.231 88.4072 430.014 88.7106 429.86C89.0139 429.701 89.3569 429.622 89.7396 429.622C89.8049 429.622 89.8656 429.627 89.9216 429.636C89.9822 429.641 90.0266 429.65 90.0546 429.664V431.61C90.0126 431.591 89.9612 431.58 89.9006 431.575C89.8446 431.57 89.7932 431.566 89.7466 431.561C89.3452 431.528 89.0022 431.54 88.7176 431.596C88.4329 431.652 88.2019 431.748 88.0246 431.883C87.8472 432.018 87.7189 432.184 87.6396 432.38C87.5602 432.576 87.5206 432.795 87.5206 433.038V437H85.4766ZM91.1641 437V429.762H93.1661V430.784C93.3854 430.467 93.6794 430.194 94.0481 429.965C94.4214 429.736 94.8904 429.622 95.4551 429.622C95.7024 429.622 95.9544 429.666 96.2111 429.755C96.4677 429.844 96.7081 429.974 96.9321 430.147C97.1607 430.315 97.3451 430.527 97.4851 430.784C97.7184 430.453 98.0241 430.177 98.4021 429.958C98.7847 429.734 99.2094 429.622 99.6761 429.622C99.9467 429.622 100.22 429.666 100.495 429.755C100.775 429.844 101.032 429.988 101.265 430.189C101.498 430.39 101.685 430.658 101.825 430.994C101.97 431.325 102.042 431.736 102.042 432.226V437H99.9981V432.478C99.9981 432.189 99.9397 431.958 99.8231 431.785C99.7111 431.608 99.5664 431.482 99.3891 431.407C99.2164 431.328 99.0321 431.288 98.8361 431.288C98.6541 431.288 98.4697 431.325 98.2831 431.4C98.0964 431.47 97.9377 431.584 97.8071 431.743C97.6764 431.902 97.6111 432.109 97.6111 432.366V437H95.5741V432.296C95.5741 432.077 95.5157 431.892 95.3991 431.743C95.2824 431.594 95.1354 431.482 94.9581 431.407C94.7854 431.328 94.6081 431.288 94.4261 431.288C94.2394 431.288 94.0527 431.328 93.8661 431.407C93.6794 431.482 93.5231 431.601 93.3971 431.764C93.2711 431.923 93.2081 432.123 93.2081 432.366V437H91.1641ZM106.668 439.254V429.762H108.719L108.726 430.805C108.833 430.632 108.964 430.476 109.118 430.336C109.277 430.191 109.452 430.065 109.643 429.958C109.834 429.851 110.042 429.769 110.266 429.713C110.49 429.652 110.726 429.622 110.973 429.622C111.51 429.622 111.988 429.755 112.408 430.021C112.828 430.282 113.157 430.688 113.395 431.239C113.638 431.785 113.759 432.48 113.759 433.325C113.759 434.202 113.628 434.923 113.367 435.488C113.11 436.048 112.756 436.463 112.303 436.734C111.85 437.005 111.339 437.14 110.77 437.14C110.537 437.14 110.317 437.107 110.112 437.042C109.907 436.981 109.715 436.895 109.538 436.783C109.365 436.671 109.209 436.543 109.069 436.398C108.934 436.249 108.815 436.088 108.712 435.915V439.254H106.668ZM110.28 435.642C110.723 435.642 111.094 435.458 111.393 435.089C111.696 434.72 111.848 434.137 111.848 433.339C111.848 432.639 111.703 432.093 111.414 431.701C111.129 431.304 110.751 431.106 110.28 431.106C109.753 431.106 109.358 431.321 109.097 431.75C108.84 432.175 108.712 432.704 108.712 433.339C108.712 433.745 108.768 434.123 108.88 434.473C108.997 434.823 109.169 435.105 109.398 435.32C109.631 435.535 109.925 435.642 110.28 435.642ZM117.176 437.14C116.714 437.14 116.299 437.054 115.93 436.881C115.562 436.708 115.27 436.459 115.055 436.132C114.841 435.801 114.733 435.399 114.733 434.928C114.733 434.135 115.03 433.533 115.622 433.122C116.215 432.707 117.151 432.492 118.429 432.478L119.332 432.464V432.03C119.332 431.699 119.234 431.444 119.038 431.267C118.847 431.085 118.548 430.996 118.142 431.001C117.844 431.006 117.559 431.076 117.288 431.211C117.022 431.346 116.84 431.582 116.742 431.918H115.041C115.069 431.395 115.221 430.966 115.496 430.63C115.772 430.289 116.145 430.037 116.616 429.874C117.092 429.706 117.631 429.622 118.233 429.622C118.975 429.622 119.57 429.715 120.018 429.902C120.466 430.084 120.791 430.348 120.991 430.693C121.192 431.034 121.292 431.44 121.292 431.911V437H119.584L119.416 435.754C119.169 436.277 118.859 436.638 118.485 436.839C118.117 437.04 117.68 437.14 117.176 437.14ZM117.862 435.796C118.049 435.796 118.229 435.763 118.401 435.698C118.579 435.628 118.735 435.537 118.87 435.425C119.01 435.308 119.122 435.178 119.206 435.033C119.29 434.888 119.332 434.739 119.332 434.585V433.514L118.597 433.528C118.257 433.533 117.939 433.575 117.645 433.654C117.351 433.729 117.113 433.852 116.931 434.025C116.754 434.198 116.665 434.431 116.665 434.725C116.665 435.061 116.782 435.325 117.015 435.516C117.249 435.703 117.531 435.796 117.862 435.796ZM125.883 437.14C125.379 437.14 124.893 437.058 124.427 436.895C123.96 436.727 123.566 436.466 123.244 436.111C122.922 435.752 122.716 435.287 122.628 434.718H124.399C124.459 434.975 124.569 435.178 124.728 435.327C124.891 435.476 125.075 435.584 125.281 435.649C125.486 435.71 125.682 435.74 125.869 435.74C126.261 435.74 126.576 435.679 126.814 435.558C127.056 435.432 127.178 435.241 127.178 434.984C127.178 434.788 127.105 434.632 126.961 434.515C126.821 434.398 126.587 434.31 126.261 434.249L124.987 433.983C124.347 433.848 123.834 433.619 123.447 433.297C123.059 432.97 122.861 432.508 122.852 431.911C122.852 431.477 122.966 431.087 123.195 430.742C123.428 430.397 123.771 430.124 124.224 429.923C124.676 429.722 125.232 429.622 125.89 429.622C126.781 429.622 127.493 429.818 128.025 430.21C128.561 430.602 128.834 431.155 128.844 431.869H127.136C127.084 431.589 126.944 431.374 126.716 431.225C126.492 431.071 126.209 430.994 125.869 430.994C125.514 430.994 125.222 431.057 124.994 431.183C124.765 431.309 124.651 431.5 124.651 431.757C124.651 431.948 124.744 432.1 124.931 432.212C125.117 432.319 125.407 432.413 125.799 432.492L126.975 432.758C127.381 432.856 127.71 432.991 127.962 433.164C128.218 433.332 128.417 433.516 128.557 433.717C128.697 433.918 128.792 434.121 128.844 434.326C128.9 434.527 128.928 434.709 128.928 434.872C128.928 435.353 128.799 435.763 128.543 436.104C128.286 436.44 127.929 436.697 127.472 436.874C127.014 437.051 126.485 437.14 125.883 437.14ZM133.142 437.14C132.638 437.14 132.153 437.058 131.686 436.895C131.22 436.727 130.825 436.466 130.503 436.111C130.181 435.752 129.976 435.287 129.887 434.718H131.658C131.719 434.975 131.829 435.178 131.987 435.327C132.151 435.476 132.335 435.584 132.54 435.649C132.746 435.71 132.942 435.74 133.128 435.74C133.52 435.74 133.835 435.679 134.073 435.558C134.316 435.432 134.437 435.241 134.437 434.984C134.437 434.788 134.365 434.632 134.22 434.515C134.08 434.398 133.847 434.31 133.52 434.249L132.246 433.983C131.607 433.848 131.094 433.619 130.706 433.297C130.319 432.97 130.121 432.508 130.111 431.911C130.111 431.477 130.226 431.087 130.454 430.742C130.688 430.397 131.031 430.124 131.483 429.923C131.936 429.722 132.491 429.622 133.149 429.622C134.041 429.622 134.752 429.818 135.284 430.21C135.821 430.602 136.094 431.155 136.103 431.869H134.395C134.344 431.589 134.204 431.374 133.975 431.225C133.751 431.071 133.469 430.994 133.128 430.994C132.774 430.994 132.482 431.057 132.253 431.183C132.025 431.309 131.91 431.5 131.91 431.757C131.91 431.948 132.004 432.1 132.19 432.212C132.377 432.319 132.666 432.413 133.058 432.492L134.234 432.758C134.64 432.856 134.969 432.991 135.221 433.164C135.478 433.332 135.676 433.516 135.816 433.717C135.956 433.918 136.052 434.121 136.103 434.326C136.159 434.527 136.187 434.709 136.187 434.872C136.187 435.353 136.059 435.763 135.802 436.104C135.546 436.44 135.189 436.697 134.731 436.874C134.274 437.051 133.744 437.14 133.142 437.14ZM147.548 429.762L145.168 437H143.544L142.193 432.618L140.849 437H139.267L136.922 429.762H138.728L140.114 434.249H140.17L141.5 429.762H142.956L144.3 434.249H144.356L145.7 429.762H147.548ZM151.448 437.14C150.739 437.14 150.12 436.988 149.593 436.685C149.07 436.382 148.664 435.952 148.375 435.397C148.09 434.842 147.948 434.184 147.948 433.423C147.948 432.662 148.09 431.997 148.375 431.428C148.664 430.859 149.07 430.415 149.593 430.098C150.12 429.781 150.741 429.622 151.455 429.622C152.169 429.622 152.787 429.778 153.31 430.091C153.833 430.399 154.236 430.838 154.521 431.407C154.806 431.976 154.948 432.648 154.948 433.423C154.948 434.151 154.808 434.795 154.528 435.355C154.253 435.91 153.854 436.347 153.331 436.664C152.813 436.981 152.185 437.14 151.448 437.14ZM151.455 435.621C151.814 435.621 152.104 435.516 152.323 435.306C152.542 435.096 152.701 434.821 152.799 434.48C152.902 434.135 152.953 433.759 152.953 433.353C152.953 432.97 152.906 432.609 152.813 432.268C152.724 431.927 152.57 431.652 152.351 431.442C152.132 431.232 151.833 431.127 151.455 431.127C151.096 431.127 150.804 431.227 150.58 431.428C150.361 431.624 150.2 431.892 150.097 432.233C149.994 432.569 149.943 432.942 149.943 433.353C149.943 433.731 149.99 434.095 150.083 434.445C150.176 434.79 150.333 435.073 150.552 435.292C150.771 435.511 151.072 435.621 151.455 435.621ZM156.311 437V429.762H158.278V431.477C158.394 431.108 158.558 430.786 158.768 430.511C158.982 430.231 159.241 430.014 159.545 429.86C159.848 429.701 160.191 429.622 160.574 429.622C160.639 429.622 160.7 429.627 160.756 429.636C160.816 429.641 160.861 429.65 160.889 429.664V431.61C160.847 431.591 160.795 431.58 160.735 431.575C160.679 431.57 160.627 431.566 160.581 431.561C160.179 431.528 159.836 431.54 159.552 431.596C159.267 431.652 159.036 431.748 158.859 431.883C158.681 432.018 158.553 432.184 158.474 432.38C158.394 432.576 158.355 432.795 158.355 433.038V437H156.311ZM164.659 437.14C163.688 437.14 162.932 436.806 162.391 436.139C161.849 435.467 161.579 434.534 161.579 433.339C161.579 432.583 161.688 431.927 161.908 431.372C162.127 430.817 162.451 430.387 162.881 430.084C163.31 429.776 163.835 429.622 164.456 429.622C164.717 429.622 164.96 429.652 165.184 429.713C165.412 429.769 165.62 429.848 165.807 429.951C165.993 430.054 166.157 430.173 166.297 430.308C166.437 430.443 166.551 430.588 166.64 430.742V426.598H168.691V437H167.207L166.976 435.516C166.91 435.717 166.819 435.913 166.703 436.104C166.586 436.295 166.437 436.47 166.255 436.629C166.073 436.783 165.849 436.907 165.583 437C165.321 437.093 165.013 437.14 164.659 437.14ZM165.107 435.67C165.62 435.67 166.003 435.49 166.255 435.131C166.511 434.772 166.64 434.165 166.64 433.311C166.635 432.816 166.577 432.406 166.465 432.079C166.353 431.752 166.185 431.51 165.961 431.351C165.741 431.188 165.461 431.106 165.121 431.106C164.677 431.106 164.309 431.276 164.015 431.617C163.721 431.953 163.574 432.518 163.574 433.311C163.574 434.118 163.711 434.713 163.987 435.096C164.262 435.479 164.635 435.67 165.107 435.67Z" fill="#3E3E3E"/>
<path d="M50.2982 397V388.324H53.4902C54.1222 388.324 54.6882 388.434 55.1882 388.654C55.6882 388.87 56.0822 389.19 56.3702 389.614C56.6622 390.038 56.8082 390.556 56.8082 391.168C56.8082 391.744 56.6802 392.236 56.4242 392.644C56.1682 393.052 55.8082 393.364 55.3442 393.58C54.8842 393.796 54.3422 393.904 53.7182 393.904H52.0622V397H50.2982ZM52.0442 392.548H53.6702C54.1102 392.548 54.4702 392.408 54.7502 392.128C55.0302 391.844 55.1702 391.494 55.1702 391.078C55.1702 390.646 55.0222 390.304 54.7262 390.052C54.4302 389.796 54.0702 389.668 53.6462 389.668H52.0442V392.548ZM59.5402 397.12C59.1442 397.12 58.7882 397.046 58.4722 396.898C58.1562 396.75 57.9062 396.536 57.7222 396.256C57.5382 395.972 57.4462 395.628 57.4462 395.224C57.4462 394.544 57.7002 394.028 58.2082 393.676C58.7162 393.32 59.5182 393.136 60.6142 393.124L61.3882 393.112V392.74C61.3882 392.456 61.3042 392.238 61.1362 392.086C60.9722 391.93 60.7162 391.854 60.3682 391.858C60.1122 391.862 59.8682 391.922 59.6362 392.038C59.4082 392.154 59.2522 392.356 59.1682 392.644H57.7102C57.7342 392.196 57.8642 391.828 58.1002 391.54C58.3362 391.248 58.6562 391.032 59.0602 390.892C59.4682 390.748 59.9302 390.676 60.4462 390.676C61.0822 390.676 61.5922 390.756 61.9762 390.916C62.3602 391.072 62.6382 391.298 62.8102 391.594C62.9822 391.886 63.0682 392.234 63.0682 392.638V397H61.6042L61.4602 395.932C61.2482 396.38 60.9822 396.69 60.6622 396.862C60.3462 397.034 59.9722 397.12 59.5402 397.12ZM60.1282 395.968C60.2882 395.968 60.4422 395.94 60.5902 395.884C60.7422 395.824 60.8762 395.746 60.9922 395.65C61.1122 395.55 61.2082 395.438 61.2802 395.314C61.3522 395.19 61.3882 395.062 61.3882 394.93V394.012L60.7582 394.024C60.4662 394.028 60.1942 394.064 59.9422 394.132C59.6902 394.196 59.4862 394.302 59.3302 394.45C59.1782 394.598 59.1022 394.798 59.1022 395.05C59.1022 395.338 59.2022 395.564 59.4022 395.728C59.6022 395.888 59.8442 395.968 60.1282 395.968ZM67.0028 397.12C66.5708 397.12 66.1548 397.05 65.7548 396.91C65.3548 396.766 65.0168 396.542 64.7408 396.238C64.4648 395.93 64.2888 395.532 64.2128 395.044H65.7308C65.7828 395.264 65.8768 395.438 66.0128 395.566C66.1528 395.694 66.3108 395.786 66.4868 395.842C66.6628 395.894 66.8308 395.92 66.9908 395.92C67.3268 395.92 67.5968 395.868 67.8008 395.764C68.0088 395.656 68.1128 395.492 68.1128 395.272C68.1128 395.104 68.0508 394.97 67.9268 394.87C67.8068 394.77 67.6068 394.694 67.3268 394.642L66.2348 394.414C65.6868 394.298 65.2468 394.102 64.9148 393.826C64.5828 393.546 64.4128 393.15 64.4048 392.638C64.4048 392.266 64.5028 391.932 64.6988 391.636C64.8988 391.34 65.1928 391.106 65.5808 390.934C65.9688 390.762 66.4448 390.676 67.0088 390.676C67.7728 390.676 68.3828 390.844 68.8388 391.18C69.2988 391.516 69.5328 391.99 69.5408 392.602H68.0768C68.0328 392.362 67.9128 392.178 67.7168 392.05C67.5248 391.918 67.2828 391.852 66.9908 391.852C66.6868 391.852 66.4368 391.906 66.2408 392.014C66.0448 392.122 65.9468 392.286 65.9468 392.506C65.9468 392.67 66.0268 392.8 66.1868 392.896C66.3468 392.988 66.5948 393.068 66.9308 393.136L67.9388 393.364C68.2868 393.448 68.5688 393.564 68.7848 393.712C69.0048 393.856 69.1748 394.014 69.2948 394.186C69.4148 394.358 69.4968 394.532 69.5408 394.708C69.5888 394.88 69.6128 395.036 69.6128 395.176C69.6128 395.588 69.5028 395.94 69.2828 396.232C69.0628 396.52 68.7568 396.74 68.3648 396.892C67.9728 397.044 67.5188 397.12 67.0028 397.12ZM73.2255 397.12C72.7935 397.12 72.3775 397.05 71.9775 396.91C71.5775 396.766 71.2395 396.542 70.9635 396.238C70.6875 395.93 70.5115 395.532 70.4355 395.044H71.9535C72.0055 395.264 72.0995 395.438 72.2355 395.566C72.3755 395.694 72.5335 395.786 72.7095 395.842C72.8855 395.894 73.0535 395.92 73.2135 395.92C73.5495 395.92 73.8195 395.868 74.0235 395.764C74.2315 395.656 74.3355 395.492 74.3355 395.272C74.3355 395.104 74.2735 394.97 74.1495 394.87C74.0295 394.77 73.8295 394.694 73.5495 394.642L72.4575 394.414C71.9095 394.298 71.4695 394.102 71.1375 393.826C70.8055 393.546 70.6355 393.15 70.6275 392.638C70.6275 392.266 70.7255 391.932 70.9215 391.636C71.1215 391.34 71.4155 391.106 71.8035 390.934C72.1915 390.762 72.6675 390.676 73.2315 390.676C73.9955 390.676 74.6055 390.844 75.0615 391.18C75.5215 391.516 75.7555 391.99 75.7635 392.602H74.2995C74.2555 392.362 74.1355 392.178 73.9395 392.05C73.7475 391.918 73.5055 391.852 73.2135 391.852C72.9095 391.852 72.6595 391.906 72.4635 392.014C72.2675 392.122 72.1695 392.286 72.1695 392.506C72.1695 392.67 72.2495 392.8 72.4095 392.896C72.5695 392.988 72.8175 393.068 73.1535 393.136L74.1615 393.364C74.5095 393.448 74.7915 393.564 75.0075 393.712C75.2275 393.856 75.3975 394.014 75.5175 394.186C75.6375 394.358 75.7195 394.532 75.7635 394.708C75.8115 394.88 75.8355 395.036 75.8355 395.176C75.8355 395.588 75.7255 395.94 75.5055 396.232C75.2855 396.52 74.9795 396.74 74.5875 396.892C74.1955 397.044 73.7415 397.12 73.2255 397.12ZM85.5736 390.796L83.5336 397H82.1416L80.9836 393.244L79.8316 397H78.4756L76.4656 390.796H78.0136L79.2016 394.642H79.2496L80.3896 390.796H81.6376L82.7896 394.642H82.8376L83.9896 390.796H85.5736ZM88.916 397.12C88.308 397.12 87.778 396.99 87.326 396.73C86.878 396.47 86.53 396.102 86.282 395.626C86.038 395.15 85.916 394.586 85.916 393.934C85.916 393.282 86.038 392.712 86.282 392.224C86.53 391.736 86.878 391.356 87.326 391.084C87.778 390.812 88.31 390.676 88.922 390.676C89.534 390.676 90.064 390.81 90.512 391.078C90.96 391.342 91.306 391.718 91.55 392.206C91.794 392.694 91.916 393.27 91.916 393.934C91.916 394.558 91.796 395.11 91.556 395.59C91.32 396.066 90.978 396.44 90.53 396.712C90.086 396.984 89.548 397.12 88.916 397.12ZM88.922 395.818C89.23 395.818 89.478 395.728 89.666 395.548C89.854 395.368 89.99 395.132 90.074 394.84C90.162 394.544 90.206 394.222 90.206 393.874C90.206 393.546 90.166 393.236 90.086 392.944C90.01 392.652 89.878 392.416 89.69 392.236C89.502 392.056 89.246 391.966 88.922 391.966C88.614 391.966 88.364 392.052 88.172 392.224C87.984 392.392 87.846 392.622 87.758 392.914C87.67 393.202 87.626 393.522 87.626 393.874C87.626 394.198 87.666 394.51 87.746 394.81C87.826 395.106 87.96 395.348 88.148 395.536C88.336 395.724 88.594 395.818 88.922 395.818ZM93.084 397V390.796H94.77V392.266C94.87 391.95 95.01 391.674 95.19 391.438C95.374 391.198 95.596 391.012 95.856 390.88C96.116 390.744 96.41 390.676 96.738 390.676C96.794 390.676 96.846 390.68 96.894 390.688C96.946 390.692 96.984 390.7 97.008 390.712V392.38C96.972 392.364 96.928 392.354 96.876 392.35C96.828 392.346 96.784 392.342 96.744 392.338C96.4 392.31 96.106 392.32 95.862 392.368C95.618 392.416 95.42 392.498 95.268 392.614C95.116 392.73 95.006 392.872 94.938 393.04C94.87 393.208 94.836 393.396 94.836 393.604V397H93.084ZM100.24 397.12C99.4075 397.12 98.7595 396.834 98.2955 396.262C97.8315 395.686 97.5995 394.886 97.5995 393.862C97.5995 393.214 97.6935 392.652 97.8815 392.176C98.0695 391.7 98.3475 391.332 98.7155 391.072C99.0835 390.808 99.5335 390.676 100.066 390.676C100.29 390.676 100.498 390.702 100.69 390.754C100.886 390.802 101.064 390.87 101.224 390.958C101.384 391.046 101.524 391.148 101.644 391.264C101.764 391.38 101.862 391.504 101.938 391.636V388.084H103.696V397H102.424L102.226 395.728C102.17 395.9 102.092 396.068 101.992 396.232C101.892 396.396 101.764 396.546 101.608 396.682C101.452 396.814 101.26 396.92 101.032 397C100.808 397.08 100.544 397.12 100.24 397.12ZM100.624 395.86C101.064 395.86 101.392 395.706 101.608 395.398C101.828 395.09 101.938 394.57 101.938 393.838C101.934 393.414 101.884 393.062 101.788 392.782C101.692 392.502 101.548 392.294 101.356 392.158C101.168 392.018 100.928 391.948 100.636 391.948C100.256 391.948 99.9395 392.094 99.6875 392.386C99.4355 392.674 99.3095 393.158 99.3095 393.838C99.3095 394.53 99.4275 395.04 99.6635 395.368C99.8995 395.696 100.22 395.86 100.624 395.86ZM111.224 397.12C110.796 397.12 110.376 397.066 109.964 396.958C109.552 396.85 109.176 396.688 108.836 396.472C108.496 396.256 108.214 395.986 107.99 395.662C107.77 395.338 107.638 394.958 107.594 394.522H109.388C109.448 394.786 109.562 395.008 109.73 395.188C109.898 395.368 110.11 395.506 110.366 395.602C110.622 395.698 110.906 395.746 111.218 395.746C111.538 395.746 111.83 395.706 112.094 395.626C112.358 395.546 112.57 395.426 112.73 395.266C112.89 395.102 112.97 394.898 112.97 394.654C112.97 394.434 112.904 394.254 112.772 394.114C112.644 393.974 112.47 393.86 112.25 393.772C112.03 393.684 111.78 393.612 111.5 393.556L110 393.25C109.344 393.126 108.824 392.866 108.44 392.47C108.056 392.07 107.858 391.538 107.846 390.874C107.842 390.33 107.986 389.86 108.278 389.464C108.574 389.064 108.974 388.756 109.478 388.54C109.986 388.324 110.554 388.216 111.182 388.216C111.93 388.216 112.558 388.334 113.066 388.57C113.578 388.802 113.966 389.118 114.23 389.518C114.498 389.914 114.636 390.356 114.644 390.844H112.886C112.854 390.54 112.762 390.298 112.61 390.118C112.458 389.938 112.262 389.808 112.022 389.728C111.786 389.648 111.516 389.608 111.212 389.608C110.98 389.608 110.768 389.634 110.576 389.686C110.388 389.738 110.228 389.812 110.096 389.908C109.964 390 109.862 390.11 109.79 390.238C109.718 390.366 109.682 390.51 109.682 390.67C109.682 390.922 109.766 391.126 109.934 391.282C110.102 391.438 110.416 391.566 110.876 391.666L112.364 391.972C112.896 392.076 113.318 392.23 113.63 392.434C113.946 392.638 114.182 392.868 114.338 393.124C114.498 393.38 114.602 393.642 114.65 393.91C114.702 394.174 114.728 394.418 114.728 394.642C114.728 395.11 114.58 395.532 114.284 395.908C113.992 396.28 113.584 396.576 113.06 396.796C112.536 397.012 111.924 397.12 111.224 397.12ZM119.669 392.014H118.289L118.301 395.32C118.301 395.472 118.319 395.586 118.355 395.662C118.395 395.734 118.455 395.782 118.535 395.806C118.619 395.826 118.725 395.836 118.853 395.836H119.687V396.916C119.607 396.952 119.481 396.986 119.309 397.018C119.141 397.05 118.905 397.066 118.601 397.066C118.057 397.066 117.635 396.996 117.335 396.856C117.039 396.716 116.833 396.52 116.717 396.268C116.601 396.016 116.543 395.724 116.543 395.392V392.014H115.535V390.796H116.603L117.041 388.924H118.289V390.79H119.669V392.014ZM120.963 397V390.796H122.649V392.266C122.749 391.95 122.889 391.674 123.069 391.438C123.253 391.198 123.475 391.012 123.735 390.88C123.995 390.744 124.289 390.676 124.617 390.676C124.673 390.676 124.725 390.68 124.773 390.688C124.825 390.692 124.863 390.7 124.887 390.712V392.38C124.851 392.364 124.807 392.354 124.755 392.35C124.707 392.346 124.663 392.342 124.623 392.338C124.279 392.31 123.985 392.32 123.741 392.368C123.497 392.416 123.299 392.498 123.147 392.614C122.995 392.73 122.885 392.872 122.817 393.04C122.749 393.208 122.715 393.396 122.715 393.604V397H120.963ZM127.254 394.3C127.25 394.616 127.3 394.892 127.404 395.128C127.508 395.36 127.658 395.54 127.854 395.668C128.054 395.792 128.294 395.854 128.574 395.854C128.874 395.854 129.136 395.79 129.36 395.662C129.588 395.534 129.746 395.324 129.834 395.032H131.412C131.344 395.472 131.168 395.848 130.884 396.16C130.604 396.472 130.264 396.71 129.864 396.874C129.464 397.038 129.048 397.12 128.616 397.12C128.004 397.12 127.464 396.992 126.996 396.736C126.532 396.476 126.17 396.11 125.91 395.638C125.65 395.166 125.52 394.61 125.52 393.97C125.52 393.35 125.638 392.792 125.874 392.296C126.11 391.796 126.452 391.402 126.9 391.114C127.352 390.822 127.894 390.676 128.526 390.676C129.158 390.676 129.688 390.81 130.116 391.078C130.548 391.342 130.872 391.712 131.088 392.188C131.308 392.66 131.418 393.206 131.418 393.826V394.3H127.254ZM127.248 393.256H129.78C129.78 393.008 129.734 392.78 129.642 392.572C129.55 392.364 129.41 392.2 129.222 392.08C129.038 391.96 128.806 391.9 128.526 391.9C128.254 391.9 128.022 391.966 127.83 392.098C127.642 392.226 127.498 392.394 127.398 392.602C127.298 392.81 127.248 393.028 127.248 393.256ZM132.635 397V390.796H134.357V391.672C134.453 391.52 134.577 391.374 134.729 391.234C134.885 391.09 135.081 390.972 135.317 390.88C135.553 390.788 135.833 390.742 136.157 390.742C136.537 390.742 136.891 390.816 137.219 390.964C137.551 391.112 137.819 391.346 138.023 391.666C138.227 391.982 138.329 392.396 138.329 392.908V397H136.577V393.124C136.577 392.788 136.477 392.536 136.277 392.368C136.077 392.2 135.833 392.116 135.545 392.116C135.353 392.116 135.167 392.15 134.987 392.218C134.811 392.286 134.667 392.388 134.555 392.524C134.443 392.66 134.387 392.828 134.387 393.028V397H132.635ZM142.622 399.052C141.518 399.052 140.678 398.912 140.102 398.632C139.53 398.352 139.244 397.984 139.244 397.528C139.244 397.316 139.3 397.138 139.412 396.994C139.524 396.85 139.654 396.736 139.802 396.652C139.954 396.564 140.092 396.498 140.216 396.454C140.344 396.406 140.422 396.374 140.45 396.358C140.386 396.322 140.294 396.27 140.174 396.202C140.054 396.13 139.942 396.034 139.838 395.914C139.738 395.79 139.688 395.63 139.688 395.434C139.688 395.214 139.792 395.01 140 394.822C140.212 394.634 140.532 394.504 140.96 394.432C140.552 394.24 140.242 393.98 140.03 393.652C139.818 393.324 139.712 392.988 139.712 392.644C139.712 392.236 139.84 391.886 140.096 391.594C140.352 391.302 140.7 391.08 141.14 390.928C141.584 390.776 142.086 390.7 142.646 390.7C143.074 390.7 143.424 390.746 143.696 390.838C143.968 390.926 144.22 391.042 144.452 391.186C144.544 391.15 144.666 391.104 144.818 391.048C144.97 390.988 145.134 390.924 145.31 390.856C145.486 390.784 145.658 390.714 145.826 390.646C145.994 390.574 146.144 390.51 146.276 390.454L146.27 391.81L145.196 391.984C145.24 392.092 145.274 392.208 145.298 392.332C145.322 392.456 145.334 392.558 145.334 392.638C145.334 392.998 145.228 393.334 145.016 393.646C144.808 393.958 144.494 394.21 144.074 394.402C143.658 394.594 143.142 394.69 142.526 394.69C142.45 394.69 142.348 394.688 142.22 394.684C142.096 394.68 141.994 394.674 141.914 394.666C141.678 394.678 141.516 394.708 141.428 394.756C141.34 394.804 141.296 394.86 141.296 394.924C141.296 395.02 141.386 395.084 141.566 395.116C141.746 395.144 142.018 395.17 142.382 395.194C142.51 395.202 142.688 395.212 142.916 395.224C143.144 395.236 143.396 395.252 143.672 395.272C144.432 395.324 144.998 395.512 145.37 395.836C145.746 396.156 145.934 396.56 145.934 397.048C145.934 397.628 145.658 398.106 145.106 398.482C144.558 398.862 143.73 399.052 142.622 399.052ZM142.904 398.074C143.392 398.074 143.74 398.014 143.948 397.894C144.156 397.774 144.26 397.602 144.26 397.378C144.26 397.19 144.18 397.038 144.02 396.922C143.86 396.802 143.626 396.732 143.318 396.712L141.896 396.616C141.712 396.608 141.548 396.636 141.404 396.7C141.264 396.764 141.154 396.852 141.074 396.964C140.998 397.076 140.96 397.196 140.96 397.324C140.96 397.584 141.118 397.774 141.434 397.894C141.75 398.014 142.24 398.074 142.904 398.074ZM142.574 393.712C142.906 393.712 143.172 393.622 143.372 393.442C143.576 393.258 143.678 393.01 143.678 392.698C143.678 392.374 143.576 392.114 143.372 391.918C143.172 391.722 142.906 391.624 142.574 391.624C142.246 391.624 141.978 391.722 141.77 391.918C141.566 392.114 141.464 392.374 141.464 392.698C141.464 393.006 141.562 393.252 141.758 393.436C141.958 393.62 142.23 393.712 142.574 393.712ZM151.298 392.014H149.918L149.93 395.32C149.93 395.472 149.948 395.586 149.984 395.662C150.024 395.734 150.084 395.782 150.164 395.806C150.248 395.826 150.354 395.836 150.482 395.836H151.316V396.916C151.236 396.952 151.11 396.986 150.938 397.018C150.77 397.05 150.534 397.066 150.23 397.066C149.686 397.066 149.264 396.996 148.964 396.856C148.668 396.716 148.462 396.52 148.346 396.268C148.23 396.016 148.172 395.724 148.172 395.392V392.014H147.164V390.796H148.232L148.67 388.924H149.918V390.79H151.298V392.014ZM152.592 397V388.084H154.332V391.69C154.432 391.546 154.558 391.404 154.71 391.264C154.862 391.12 155.052 391 155.28 390.904C155.508 390.808 155.786 390.76 156.114 390.76C156.51 390.76 156.87 390.838 157.194 390.994C157.522 391.146 157.784 391.368 157.98 391.66C158.18 391.952 158.28 392.308 158.28 392.728V397H156.522V392.986C156.522 392.706 156.42 392.492 156.216 392.344C156.016 392.192 155.772 392.116 155.484 392.116C155.296 392.116 155.114 392.15 154.938 392.218C154.762 392.286 154.618 392.39 154.506 392.53C154.398 392.666 154.344 392.836 154.344 393.04V397H152.592ZM161.469 390.946V392.824H159.549V390.946H161.469ZM161.469 395.092V396.964H159.549V395.092H161.469ZM168.867 397.12C168.447 397.12 168.037 397.068 167.637 396.964C167.237 396.856 166.873 396.698 166.545 396.49C166.221 396.278 165.951 396.016 165.735 395.704C165.519 395.388 165.387 395.02 165.339 394.6H166.851C166.915 394.892 167.041 395.138 167.229 395.338C167.417 395.538 167.651 395.69 167.931 395.794C168.215 395.898 168.525 395.95 168.861 395.95C169.221 395.95 169.545 395.902 169.833 395.806C170.125 395.71 170.355 395.57 170.523 395.386C170.695 395.202 170.781 394.976 170.781 394.708C170.781 394.472 170.719 394.272 170.595 394.108C170.471 393.944 170.297 393.81 170.073 393.706C169.853 393.598 169.595 393.512 169.299 393.448L167.703 393.1C167.059 392.968 166.549 392.712 166.173 392.332C165.797 391.952 165.605 391.446 165.597 390.814C165.593 390.29 165.731 389.834 166.011 389.446C166.295 389.054 166.681 388.752 167.169 388.54C167.657 388.324 168.209 388.216 168.825 388.216C169.545 388.216 170.151 388.334 170.643 388.57C171.139 388.802 171.513 389.114 171.765 389.506C172.021 389.898 172.151 390.328 172.155 390.796H170.679C170.643 390.452 170.539 390.178 170.367 389.974C170.199 389.77 169.983 389.624 169.719 389.536C169.455 389.448 169.163 389.404 168.843 389.404C168.603 389.404 168.379 389.432 168.171 389.488C167.963 389.544 167.781 389.626 167.625 389.734C167.469 389.842 167.347 389.974 167.259 390.13C167.175 390.282 167.133 390.456 167.133 390.652C167.133 390.932 167.225 391.16 167.409 391.336C167.597 391.508 167.947 391.654 168.459 391.774L170.019 392.122C170.503 392.218 170.893 392.362 171.189 392.554C171.485 392.746 171.711 392.966 171.867 393.214C172.023 393.458 172.127 393.708 172.179 393.964C172.231 394.22 172.257 394.464 172.257 394.696C172.257 395.148 172.117 395.558 171.837 395.926C171.561 396.294 171.169 396.586 170.661 396.802C170.157 397.014 169.559 397.12 168.867 397.12ZM177.057 391.828H175.671L175.677 395.386C175.677 395.57 175.697 395.706 175.737 395.794C175.781 395.878 175.849 395.934 175.941 395.962C176.037 395.986 176.165 395.998 176.325 395.998H177.087V396.922C177.007 396.954 176.885 396.982 176.721 397.006C176.561 397.034 176.345 397.048 176.073 397.048C175.581 397.048 175.199 396.984 174.927 396.856C174.659 396.724 174.473 396.538 174.369 396.298C174.265 396.058 174.213 395.772 174.213 395.44V391.828H173.205V390.796H174.255L174.621 388.954H175.671V390.79H177.057V391.828ZM178.486 397V390.796H179.884V392.14C179.984 391.832 180.126 391.57 180.31 391.354C180.498 391.134 180.718 390.966 180.97 390.85C181.222 390.734 181.496 390.676 181.792 390.676C181.864 390.676 181.934 390.68 182.002 390.688C182.07 390.696 182.12 390.71 182.152 390.73V392.128C182.108 392.108 182.05 392.094 181.978 392.086C181.91 392.078 181.85 392.074 181.798 392.074C181.498 392.05 181.232 392.062 181 392.11C180.772 392.158 180.578 392.24 180.418 392.356C180.262 392.468 180.144 392.612 180.064 392.788C179.984 392.96 179.944 393.162 179.944 393.394V397H178.486ZM185.771 397.12C185.179 397.12 184.663 396.994 184.223 396.742C183.783 396.486 183.441 396.12 183.197 395.644C182.957 395.168 182.837 394.596 182.837 393.928C182.837 393.28 182.953 392.712 183.185 392.224C183.421 391.736 183.759 391.356 184.199 391.084C184.639 390.812 185.165 390.676 185.777 390.676C186.369 390.676 186.883 390.806 187.319 391.066C187.755 391.326 188.091 391.698 188.327 392.182C188.567 392.666 188.687 393.248 188.687 393.928C188.687 394.556 188.573 395.11 188.345 395.59C188.121 396.066 187.791 396.44 187.355 396.712C186.923 396.984 186.395 397.12 185.771 397.12ZM185.777 396.01C186.113 396.01 186.389 395.918 186.605 395.734C186.825 395.55 186.987 395.298 187.091 394.978C187.199 394.658 187.253 394.294 187.253 393.886C187.253 393.506 187.205 393.156 187.109 392.836C187.017 392.516 186.861 392.26 186.641 392.068C186.425 391.872 186.137 391.774 185.777 391.774C185.437 391.774 185.155 391.864 184.931 392.044C184.711 392.22 184.545 392.468 184.433 392.788C184.325 393.104 184.271 393.47 184.271 393.886C184.271 394.262 184.319 394.612 184.415 394.936C184.515 395.256 184.675 395.516 184.895 395.716C185.115 395.912 185.409 396.01 185.777 396.01ZM189.982 397V390.796H191.41V391.684C191.506 391.524 191.636 391.37 191.8 391.222C191.968 391.074 192.174 390.954 192.418 390.862C192.662 390.77 192.948 390.724 193.276 390.724C193.66 390.724 194.016 390.8 194.344 390.952C194.676 391.104 194.942 391.342 195.142 391.666C195.346 391.99 195.448 392.408 195.448 392.92V397H193.984V393.094C193.984 392.686 193.872 392.384 193.648 392.188C193.424 391.988 193.142 391.888 192.802 391.888C192.57 391.888 192.35 391.928 192.142 392.008C191.934 392.084 191.764 392.202 191.632 392.362C191.504 392.518 191.44 392.714 191.44 392.95V397H189.982ZM199.768 399.052C198.724 399.052 197.922 398.912 197.362 398.632C196.802 398.352 196.522 397.968 196.522 397.48C196.522 397.26 196.576 397.076 196.684 396.928C196.792 396.78 196.92 396.658 197.068 396.562C197.216 396.466 197.352 396.392 197.476 396.34C197.6 396.288 197.68 396.25 197.716 396.226C197.648 396.186 197.558 396.134 197.446 396.07C197.334 396.006 197.232 395.918 197.14 395.806C197.052 395.694 197.008 395.548 197.008 395.368C197.008 395.16 197.106 394.968 197.302 394.792C197.502 394.616 197.8 394.49 198.196 394.414C197.808 394.226 197.51 393.972 197.302 393.652C197.094 393.332 196.99 393 196.99 392.656C196.99 392.248 197.108 391.898 197.344 391.606C197.584 391.314 197.916 391.09 198.34 390.934C198.768 390.778 199.262 390.7 199.822 390.7C200.238 390.7 200.582 390.746 200.854 390.838C201.126 390.93 201.38 391.054 201.616 391.21C201.696 391.178 201.808 391.134 201.952 391.078C202.1 391.018 202.26 390.954 202.432 390.886C202.604 390.814 202.768 390.746 202.924 390.682C203.084 390.614 203.22 390.558 203.332 390.514L203.32 391.72L202.246 391.912C202.298 392.028 202.338 392.154 202.366 392.29C202.398 392.426 202.414 392.546 202.414 392.65C202.414 393.01 202.312 393.344 202.108 393.652C201.908 393.956 201.606 394.2 201.202 394.384C200.802 394.568 200.302 394.66 199.702 394.66C199.642 394.66 199.56 394.658 199.456 394.654C199.352 394.65 199.268 394.646 199.204 394.642C198.88 394.654 198.658 394.692 198.538 394.756C198.418 394.82 198.358 394.89 198.358 394.966C198.358 395.074 198.448 395.146 198.628 395.182C198.808 395.218 199.096 395.25 199.492 395.278C199.632 395.286 199.816 395.296 200.044 395.308C200.272 395.32 200.526 395.336 200.806 395.356C201.514 395.4 202.05 395.578 202.414 395.89C202.778 396.198 202.96 396.598 202.96 397.09C202.96 397.662 202.696 398.132 202.168 398.5C201.64 398.868 200.84 399.052 199.768 399.052ZM200.014 398.194C200.538 398.194 200.926 398.122 201.178 397.978C201.43 397.834 201.556 397.622 201.556 397.342C201.556 397.126 201.47 396.95 201.298 396.814C201.126 396.678 200.87 396.598 200.53 396.574L198.964 396.478C198.792 396.466 198.628 396.498 198.472 396.574C198.32 396.646 198.196 396.748 198.1 396.88C198.004 397.008 197.956 397.15 197.956 397.306C197.956 397.598 198.124 397.818 198.46 397.966C198.796 398.118 199.314 398.194 200.014 398.194ZM199.75 393.802C200.13 393.802 200.438 393.706 200.674 393.514C200.91 393.318 201.028 393.042 201.028 392.686C201.028 392.318 200.91 392.032 200.674 391.828C200.438 391.62 200.13 391.516 199.75 391.516C199.362 391.516 199.048 391.62 198.808 391.828C198.572 392.036 198.454 392.322 198.454 392.686C198.454 393.03 198.568 393.302 198.796 393.502C199.024 393.702 199.342 393.802 199.75 393.802Z" fill="#4A4A4A"/>
<rect x="61" y="362" width="99.3506" height="8" rx="2" fill="#EA7F7F"/>
<rect x="164.325" y="362" width="99.3506" height="8" rx="2" fill="#EAB27F"/>
<rect x="267.649" y="362" width="99.3506" height="8" rx="2" fill="#A1EA7F"/>
<g clip-path="url(#clip0_134_120)">
<path d="M240.646 92.0177C240.549 91.6317 240.501 91.2208 240.501 90.785C240.501 89.1542 241.237 87.7352 242.71 86.5279C244.183 85.3207 247.194 83.8385 251.745 82.0814V80.7351C251.745 79.3192 251.565 78.3047 251.205 77.6916C250.845 77.0785 250.254 76.7719 249.432 76.7719C248.762 76.7719 248.206 76.971 247.763 77.3692C247.321 77.7674 247.1 78.2636 247.1 78.8578C247.1 79.1738 247.112 79.5436 247.138 79.9671C247.163 80.3905 247.176 80.6592 247.176 80.773C247.176 81.6958 246.92 82.4384 246.408 83.001C245.896 83.5636 245.216 83.8448 244.369 83.8448C243.598 83.8448 242.979 83.6015 242.511 83.1148C242.043 82.628 241.809 81.9865 241.809 81.1902C241.809 79.4709 242.625 78.0456 244.255 76.9141C245.886 75.7827 247.985 75.217 250.551 75.217C251.992 75.217 253.297 75.4004 254.466 75.767C255.636 76.1336 256.593 76.6645 257.339 77.3598C257.946 77.9286 258.376 78.5923 258.629 79.3508C258.881 80.1092 259.008 81.2533 259.008 82.783V88.1871C259.008 89.6914 259.125 90.7597 259.359 91.3917C259.593 92.0238 259.969 92.3399 260.487 92.3399C260.601 92.3399 260.715 92.3146 260.828 92.264C260.942 92.2134 261.062 92.1377 261.189 92.0364V93.269C260.683 93.9137 260.029 94.413 259.226 94.767C258.423 95.121 257.535 95.298 256.562 95.298C255.449 95.298 254.517 95.0389 253.765 94.5205C253.013 94.0022 252.46 93.2375 252.106 92.2262C251.145 93.326 250.137 94.1445 249.081 94.6817C248.026 95.2189 246.91 95.4876 245.734 95.4876C244.179 95.4876 242.918 95.0483 241.951 94.1697C241.629 93.8766 241.36 93.5556 241.145 93.2066C240.384 93.8039 239.157 94.4941 238.538 94.767C237.736 95.121 236.847 95.298 235.874 95.298C234.762 95.298 233.829 95.0389 233.077 94.5205C232.325 94.0022 231.772 93.2375 231.418 92.2262C230.457 93.326 229.449 94.1445 228.393 94.6817C227.338 95.2189 226.222 95.4876 225.047 95.4876C223.492 95.4876 222.231 95.0483 221.264 94.1697C220.297 93.2911 219.813 92.1629 219.813 90.785C219.813 89.1542 220.549 87.7352 222.022 86.5279C223.495 85.3207 226.507 83.8385 231.058 82.0814V80.7351C231.058 79.3192 230.878 78.3047 230.517 77.6916C230.157 77.0785 229.566 76.7719 228.744 76.7719C228.074 76.7719 227.518 76.971 227.076 77.3692C226.633 77.7674 226.412 78.2636 226.412 78.8578C226.412 79.1738 226.425 79.5436 226.45 79.9671C226.475 80.3905 226.488 80.6592 226.488 80.773C226.488 81.6958 226.232 82.4384 225.72 83.001C225.208 83.5636 224.528 83.8448 223.681 83.8448C222.91 83.8448 222.291 83.6015 221.823 83.1148C221.355 82.628 221.121 81.9865 221.121 81.1902C221.121 79.4709 221.937 78.0456 223.568 76.9141C225.198 75.7827 227.297 75.217 229.863 75.217C231.304 75.217 232.609 75.4004 233.779 75.767C234.948 76.1336 235.906 76.6645 236.652 77.3598C237.258 77.9286 237.688 78.5923 237.941 79.3508C238.194 80.1092 238.32 81.2533 238.32 82.783V88.1871C238.32 89.6914 238.437 90.7597 238.671 91.3917C238.905 92.0238 239.281 92.3399 239.799 92.3399C239.913 92.3399 240.027 92.3146 240.141 92.264C240.194 92.2404 240.414 92.1343 240.646 92.0177ZM182.778 94.6723L178.246 85.6652V90.8229C178.246 91.8215 178.423 92.5327 178.777 92.9562C179.131 93.3796 179.731 93.5913 180.578 93.5913H180.692V94.6723H168.499V93.5913H168.613C169.447 93.5913 170.045 93.3796 170.405 92.9562C170.765 92.5327 170.945 91.8215 170.945 90.8229V75.2549C170.945 74.6734 170.879 74.2532 170.746 73.9941C170.614 73.7348 170.313 73.4156 169.846 73.0364L167.798 71.3678C168.682 71.1023 169.915 70.6788 171.495 70.0972C173.075 69.5158 175.326 68.6562 178.246 67.5184V84.6222C179.902 83.3454 181.15 82.1919 181.991 81.1616C182.831 80.1314 183.252 79.2371 183.252 78.4786C183.252 78.074 183.097 77.7516 182.787 77.5115C182.477 77.2713 182.051 77.1512 181.507 77.1512H181.393V76.0704H191.254V77.1512H190.931C189.629 77.1512 188.403 77.4925 187.253 78.1751C186.102 78.8578 184.92 79.9449 183.707 81.4367L189.149 90.747C189.743 91.7837 190.318 92.5043 190.875 92.9087C191.429 93.312 192.122 93.5394 192.953 93.5909C193.751 93.5796 194.326 93.3681 194.676 92.9562C195.037 92.5327 195.217 91.8215 195.217 90.8229V82.783C195.217 82.2015 195.154 81.7811 195.027 81.522C194.901 81.2629 194.604 80.95 194.136 80.5833L192.069 78.9147C193.573 78.4343 195.198 77.8718 196.942 77.227C198.687 76.5823 200.545 75.8618 202.517 75.0653V90.8229C202.517 91.7963 202.691 92.4947 203.039 92.9182C203.386 93.3416 203.965 93.5661 204.774 93.5913H204.811C205.645 93.5913 206.242 93.3796 206.603 92.9562C206.963 92.5327 207.143 91.8215 207.143 90.8229V83.6742C207.143 83.0673 207.067 82.6186 206.916 82.3279C206.764 82.0371 206.479 81.7526 206.062 81.4745L203.692 79.8059C204.931 79.376 206.359 78.7851 207.977 78.0329C209.596 77.2807 211.58 76.2916 213.932 75.0653V78.4027C214.564 77.3408 215.249 76.5445 215.989 76.0135C216.728 75.4825 217.522 75.217 218.369 75.217C219.304 75.217 220.056 75.4951 220.625 76.0514C221.194 76.6076 221.479 77.3408 221.479 78.251C221.479 79.0474 221.241 79.6858 220.767 80.1661C220.293 80.6466 219.664 80.8867 218.881 80.8867C218.173 80.8867 217.493 80.6023 216.842 80.0334C216.191 79.4645 215.777 79.1802 215.6 79.1802C215.183 79.1802 214.886 79.4583 214.709 80.0145C214.532 80.5707 214.444 81.563 214.444 82.9916V90.8229C214.444 91.8089 214.643 92.5169 215.041 92.9466C215.439 93.3765 216.093 93.5913 217.003 93.5913H217.117V94.6723H182.778ZM251.745 83.4845C250.608 83.9396 249.742 84.657 249.148 85.6367C248.553 86.6164 248.256 87.8143 248.256 89.2301C248.256 90.0392 248.418 90.6839 248.74 91.1642C249.062 91.6446 249.483 91.8848 250.001 91.8848C250.671 91.8848 251.129 91.6193 251.376 91.0883C251.622 90.5574 251.745 89.2301 251.745 87.1063V83.4845ZM231.058 83.4845C229.92 83.9396 229.054 84.657 228.46 85.6367C227.866 86.6164 227.569 87.8143 227.569 89.2301C227.569 90.0392 227.73 90.6839 228.052 91.1642C228.374 91.6446 228.795 91.8848 229.313 91.8848C229.983 91.8848 230.441 91.6193 230.688 91.0883C230.934 90.5574 231.058 89.2301 231.058 87.1063V83.4845ZM194.705 71.3298C194.705 70.268 195.075 69.3672 195.814 68.6277C196.554 67.8882 197.454 67.5184 198.516 67.5184C199.591 67.5184 200.495 67.8882 201.228 68.6277C201.961 69.3672 202.328 70.268 202.328 71.3298C202.328 72.3917 201.958 73.2923 201.218 74.0319C200.479 74.7714 199.578 75.1412 198.516 75.1412C197.454 75.1412 196.554 74.7746 195.814 74.0414C195.075 73.3082 194.705 72.4043 194.705 71.3298Z" fill="#3E3E3E"/>
</g>
<path d="M50.134 538.878H52.171V549H50.134V538.878ZM59.2484 549.14C58.7864 549.14 58.3711 549.054 58.0024 548.881C57.6338 548.708 57.3421 548.459 57.1274 548.132C56.9128 547.801 56.8054 547.399 56.8054 546.928C56.8054 546.135 57.1018 545.533 57.6944 545.122C58.2871 544.707 59.2228 544.492 60.5014 544.478L61.4044 544.464V544.03C61.4044 543.699 61.3064 543.444 61.1104 543.267C60.9191 543.085 60.6204 542.996 60.2144 543.001C59.9158 543.006 59.6311 543.076 59.3604 543.211C59.0944 543.346 58.9124 543.582 58.8144 543.918H57.1134C57.1414 543.395 57.2931 542.966 57.5684 542.63C57.8438 542.289 58.2171 542.037 58.6884 541.874C59.1644 541.706 59.7034 541.622 60.3054 541.622C61.0474 541.622 61.6424 541.715 62.0904 541.902C62.5384 542.084 62.8628 542.348 63.0634 542.693C63.2641 543.034 63.3644 543.44 63.3644 543.911V549H61.6564L61.4884 547.754C61.2411 548.277 60.9308 548.638 60.5574 548.839C60.1888 549.04 59.7524 549.14 59.2484 549.14ZM59.9344 547.796C60.1211 547.796 60.3008 547.763 60.4734 547.698C60.6508 547.628 60.8071 547.537 60.9424 547.425C61.0824 547.308 61.1944 547.178 61.2784 547.033C61.3624 546.888 61.4044 546.739 61.4044 546.585V545.514L60.6694 545.528C60.3288 545.533 60.0114 545.575 59.7174 545.654C59.4234 545.729 59.1854 545.852 59.0034 546.025C58.8261 546.198 58.7374 546.431 58.7374 546.725C58.7374 547.061 58.8541 547.325 59.0874 547.516C59.3208 547.703 59.6031 547.796 59.9344 547.796ZM65.1738 549V541.762H67.1758V542.784C67.3952 542.467 67.6892 542.194 68.0578 541.965C68.4312 541.736 68.9002 541.622 69.4648 541.622C69.7122 541.622 69.9642 541.666 70.2208 541.755C70.4775 541.844 70.7178 541.974 70.9418 542.147C71.1705 542.315 71.3548 542.527 71.4948 542.784C71.7282 542.453 72.0338 542.177 72.4118 541.958C72.7945 541.734 73.2192 541.622 73.6858 541.622C73.9565 541.622 74.2295 541.666 74.5048 541.755C74.7848 541.844 75.0415 541.988 75.2748 542.189C75.5082 542.39 75.6948 542.658 75.8348 542.994C75.9795 543.325 76.0518 543.736 76.0518 544.226V549H74.0078V544.478C74.0078 544.189 73.9495 543.958 73.8328 543.785C73.7208 543.608 73.5762 543.482 73.3988 543.407C73.2262 543.328 73.0418 543.288 72.8458 543.288C72.6638 543.288 72.4795 543.325 72.2928 543.4C72.1062 543.47 71.9475 543.584 71.8168 543.743C71.6862 543.902 71.6208 544.109 71.6208 544.366V549H69.5838V544.296C69.5838 544.077 69.5255 543.892 69.4088 543.743C69.2922 543.594 69.1452 543.482 68.9678 543.407C68.7952 543.328 68.6178 543.288 68.4358 543.288C68.2492 543.288 68.0625 543.328 67.8758 543.407C67.6892 543.482 67.5328 543.601 67.4068 543.764C67.2808 543.923 67.2178 544.123 67.2178 544.366V549H65.1738ZM82.7777 549.14C82.3157 549.14 81.9004 549.054 81.5317 548.881C81.1631 548.708 80.8714 548.459 80.6567 548.132C80.4421 547.801 80.3347 547.399 80.3347 546.928C80.3347 546.135 80.6311 545.533 81.2237 545.122C81.8164 544.707 82.7521 544.492 84.0307 544.478L84.9337 544.464V544.03C84.9337 543.699 84.8357 543.444 84.6397 543.267C84.4484 543.085 84.1497 542.996 83.7437 543.001C83.4451 543.006 83.1604 543.076 82.8897 543.211C82.6237 543.346 82.4417 543.582 82.3437 543.918H80.6427C80.6707 543.395 80.8224 542.966 81.0977 542.63C81.3731 542.289 81.7464 542.037 82.2177 541.874C82.6937 541.706 83.2327 541.622 83.8347 541.622C84.5767 541.622 85.1717 541.715 85.6197 541.902C86.0677 542.084 86.3921 542.348 86.5927 542.693C86.7934 543.034 86.8937 543.44 86.8937 543.911V549H85.1857L85.0177 547.754C84.7704 548.277 84.4601 548.638 84.0867 548.839C83.7181 549.04 83.2817 549.14 82.7777 549.14ZM83.4637 547.796C83.6504 547.796 83.8301 547.763 84.0027 547.698C84.1801 547.628 84.3364 547.537 84.4717 547.425C84.6117 547.308 84.7237 547.178 84.8077 547.033C84.8917 546.888 84.9337 546.739 84.9337 546.585V545.514L84.1987 545.528C83.8581 545.533 83.5407 545.575 83.2467 545.654C82.9527 545.729 82.7147 545.852 82.5327 546.025C82.3554 546.198 82.2667 546.431 82.2667 546.725C82.2667 547.061 82.3834 547.325 82.6167 547.516C82.8501 547.703 83.1324 547.796 83.4637 547.796ZM88.7031 549V541.762H90.7121V542.784C90.8241 542.607 90.9688 542.436 91.1461 542.273C91.3281 542.105 91.5568 541.967 91.8321 541.86C92.1075 541.753 92.4341 541.699 92.8121 541.699C93.2555 541.699 93.6685 541.785 94.0511 541.958C94.4385 542.131 94.7511 542.404 94.9891 542.777C95.2271 543.146 95.3461 543.629 95.3461 544.226V549H93.3021V544.478C93.3021 544.086 93.1855 543.792 92.9521 543.596C92.7188 543.4 92.4341 543.302 92.0981 543.302C91.8741 543.302 91.6571 543.342 91.4471 543.421C91.2418 543.5 91.0738 543.619 90.9431 543.778C90.8125 543.937 90.7471 544.133 90.7471 544.366V549H88.7031ZM102.027 541.762V549H100.074V541.762H102.027ZM102.048 538.885V540.726H100.06V538.885H102.048ZM103.92 549V541.762H105.929V542.784C106.041 542.607 106.186 542.436 106.363 542.273C106.545 542.105 106.774 541.967 107.049 541.86C107.324 541.753 107.651 541.699 108.029 541.699C108.472 541.699 108.885 541.785 109.268 541.958C109.655 542.131 109.968 542.404 110.206 542.777C110.444 543.146 110.563 543.629 110.563 544.226V549H108.519V544.478C108.519 544.086 108.402 543.792 108.169 543.596C107.936 543.4 107.651 543.302 107.315 543.302C107.091 543.302 106.874 543.342 106.664 543.421C106.459 543.5 106.291 543.619 106.16 543.778C106.029 543.937 105.964 544.133 105.964 544.366V549H103.92ZM114.907 549.14C113.936 549.14 113.18 548.806 112.639 548.139C112.097 547.467 111.827 546.534 111.827 545.339C111.827 544.583 111.936 543.927 112.156 543.372C112.375 542.817 112.699 542.387 113.129 542.084C113.558 541.776 114.083 541.622 114.704 541.622C114.965 541.622 115.208 541.652 115.432 541.713C115.66 541.769 115.868 541.848 116.055 541.951C116.241 542.054 116.405 542.173 116.545 542.308C116.685 542.443 116.799 542.588 116.888 542.742V538.598H118.939V549H117.455L117.224 547.516C117.158 547.717 117.067 547.913 116.951 548.104C116.834 548.295 116.685 548.47 116.503 548.629C116.321 548.783 116.097 548.907 115.831 549C115.569 549.093 115.261 549.14 114.907 549.14ZM115.355 547.67C115.868 547.67 116.251 547.49 116.503 547.131C116.759 546.772 116.888 546.165 116.888 545.311C116.883 544.816 116.825 544.406 116.713 544.079C116.601 543.752 116.433 543.51 116.209 543.351C115.989 543.188 115.709 543.106 115.369 543.106C114.925 543.106 114.557 543.276 114.263 543.617C113.969 543.953 113.822 544.518 113.822 545.311C113.822 546.118 113.959 546.713 114.235 547.096C114.51 547.479 114.883 547.67 115.355 547.67ZM122.794 541.762V549H120.841V541.762H122.794ZM122.815 538.885V540.726H120.827V538.885H122.815ZM130.869 541.762L128.153 549H126.676L123.953 541.762H125.801L127.383 546.375H127.439L129 541.762H130.869ZM133.978 541.762V549H132.025V541.762H133.978ZM133.999 538.885V540.726H132.011V538.885H133.999ZM138.518 549.14C137.547 549.14 136.791 548.806 136.25 548.139C135.709 547.467 135.438 546.534 135.438 545.339C135.438 544.583 135.548 543.927 135.767 543.372C135.986 542.817 136.311 542.387 136.74 542.084C137.169 541.776 137.694 541.622 138.315 541.622C138.576 541.622 138.819 541.652 139.043 541.713C139.272 541.769 139.479 541.848 139.666 541.951C139.853 542.054 140.016 542.173 140.156 542.308C140.296 542.443 140.41 542.588 140.499 542.742V538.598H142.55V549H141.066L140.835 547.516C140.77 547.717 140.679 547.913 140.562 548.104C140.445 548.295 140.296 548.47 140.114 548.629C139.932 548.783 139.708 548.907 139.442 549C139.181 549.093 138.873 549.14 138.518 549.14ZM138.966 547.67C139.479 547.67 139.862 547.49 140.114 547.131C140.371 546.772 140.499 546.165 140.499 545.311C140.494 544.816 140.436 544.406 140.324 544.079C140.212 543.752 140.044 543.51 139.82 543.351C139.601 543.188 139.321 543.106 138.98 543.106C138.537 543.106 138.168 543.276 137.874 543.617C137.58 543.953 137.433 544.518 137.433 545.311C137.433 546.118 137.571 546.713 137.846 547.096C138.121 547.479 138.495 547.67 138.966 547.67ZM146.974 549.14C146.638 549.14 146.306 549.089 145.98 548.986C145.658 548.883 145.364 548.732 145.098 548.531C144.832 548.33 144.617 548.083 144.454 547.789C144.295 547.495 144.216 547.154 144.216 546.767V541.762H146.26V546.508C146.26 546.844 146.369 547.119 146.589 547.334C146.808 547.549 147.13 547.656 147.555 547.656C147.956 547.656 148.273 547.553 148.507 547.348C148.745 547.138 148.864 546.846 148.864 546.473V541.762H150.887V549H149.347L149.109 547.565C149.025 547.99 148.866 548.316 148.633 548.545C148.404 548.769 148.14 548.923 147.842 549.007C147.548 549.096 147.258 549.14 146.974 549.14ZM154.651 549.14C154.189 549.14 153.773 549.054 153.405 548.881C153.036 548.708 152.744 548.459 152.53 548.132C152.315 547.801 152.208 547.399 152.208 546.928C152.208 546.135 152.504 545.533 153.097 545.122C153.689 544.707 154.625 544.492 155.904 544.478L156.807 544.464V544.03C156.807 543.699 156.709 543.444 156.513 543.267C156.321 543.085 156.023 542.996 155.617 543.001C155.318 543.006 155.033 543.076 154.763 543.211C154.497 543.346 154.315 543.582 154.217 543.918H152.516C152.544 543.395 152.695 542.966 152.971 542.63C153.246 542.289 153.619 542.037 154.091 541.874C154.567 541.706 155.106 541.622 155.708 541.622C156.45 541.622 157.045 541.715 157.493 541.902C157.941 542.084 158.265 542.348 158.466 542.693C158.666 543.034 158.767 543.44 158.767 543.911V549H157.059L156.891 547.754C156.643 548.277 156.333 548.638 155.96 548.839C155.591 549.04 155.155 549.14 154.651 549.14ZM155.337 547.796C155.523 547.796 155.703 547.763 155.876 547.698C156.053 547.628 156.209 547.537 156.345 547.425C156.485 547.308 156.597 547.178 156.681 547.033C156.765 546.888 156.807 546.739 156.807 546.585V545.514L156.072 545.528C155.731 545.533 155.414 545.575 155.12 545.654C154.826 545.729 154.588 545.852 154.406 546.025C154.228 546.198 154.14 546.431 154.14 546.725C154.14 547.061 154.256 547.325 154.49 547.516C154.723 547.703 155.005 547.796 155.337 547.796ZM162.886 549.126C162.354 549.126 161.932 549.063 161.619 548.937C161.307 548.811 161.076 548.645 160.926 548.44C160.777 548.23 160.681 547.999 160.639 547.747C160.597 547.49 160.576 547.231 160.576 546.97V538.598H162.578V546.718C162.578 546.984 162.634 547.201 162.746 547.369C162.863 547.532 163.08 547.633 163.397 547.67L163.74 547.691V548.951C163.6 548.998 163.458 549.037 163.313 549.07C163.169 549.107 163.026 549.126 162.886 549.126Z" fill="#3E3E3E"/>
<path d="M50.134 570.878H52.171V581H50.134V570.878ZM59.2484 581.14C58.7864 581.14 58.3711 581.054 58.0024 580.881C57.6338 580.708 57.3421 580.459 57.1274 580.132C56.9128 579.801 56.8054 579.399 56.8054 578.928C56.8054 578.135 57.1018 577.533 57.6944 577.122C58.2871 576.707 59.2228 576.492 60.5014 576.478L61.4044 576.464V576.03C61.4044 575.699 61.3064 575.444 61.1104 575.267C60.9191 575.085 60.6204 574.996 60.2144 575.001C59.9158 575.006 59.6311 575.076 59.3604 575.211C59.0944 575.346 58.9124 575.582 58.8144 575.918H57.1134C57.1414 575.395 57.2931 574.966 57.5684 574.63C57.8438 574.289 58.2171 574.037 58.6884 573.874C59.1644 573.706 59.7034 573.622 60.3054 573.622C61.0474 573.622 61.6424 573.715 62.0904 573.902C62.5384 574.084 62.8628 574.348 63.0634 574.693C63.2641 575.034 63.3644 575.44 63.3644 575.911V581H61.6564L61.4884 579.754C61.2411 580.277 60.9308 580.638 60.5574 580.839C60.1888 581.04 59.7524 581.14 59.2484 581.14ZM59.9344 579.796C60.1211 579.796 60.3008 579.763 60.4734 579.698C60.6508 579.628 60.8071 579.537 60.9424 579.425C61.0824 579.308 61.1944 579.178 61.2784 579.033C61.3624 578.888 61.4044 578.739 61.4044 578.585V577.514L60.6694 577.528C60.3288 577.533 60.0114 577.575 59.7174 577.654C59.4234 577.729 59.1854 577.852 59.0034 578.025C58.8261 578.198 58.7374 578.431 58.7374 578.725C58.7374 579.061 58.8541 579.325 59.0874 579.516C59.3208 579.703 59.6031 579.796 59.9344 579.796ZM65.1738 581V573.762H67.1758V574.784C67.3952 574.467 67.6892 574.194 68.0578 573.965C68.4312 573.736 68.9002 573.622 69.4648 573.622C69.7122 573.622 69.9642 573.666 70.2208 573.755C70.4775 573.844 70.7178 573.974 70.9418 574.147C71.1705 574.315 71.3548 574.527 71.4948 574.784C71.7282 574.453 72.0338 574.177 72.4118 573.958C72.7945 573.734 73.2192 573.622 73.6858 573.622C73.9565 573.622 74.2295 573.666 74.5048 573.755C74.7848 573.844 75.0415 573.988 75.2748 574.189C75.5082 574.39 75.6948 574.658 75.8348 574.994C75.9795 575.325 76.0518 575.736 76.0518 576.226V581H74.0078V576.478C74.0078 576.189 73.9495 575.958 73.8328 575.785C73.7208 575.608 73.5762 575.482 73.3988 575.407C73.2262 575.328 73.0418 575.288 72.8458 575.288C72.6638 575.288 72.4795 575.325 72.2928 575.4C72.1062 575.47 71.9475 575.584 71.8168 575.743C71.6862 575.902 71.6208 576.109 71.6208 576.366V581H69.5838V576.296C69.5838 576.077 69.5255 575.892 69.4088 575.743C69.2922 575.594 69.1452 575.482 68.9678 575.407C68.7952 575.328 68.6178 575.288 68.4358 575.288C68.2492 575.288 68.0625 575.328 67.8758 575.407C67.6892 575.482 67.5328 575.601 67.4068 575.764C67.2808 575.923 67.2178 576.123 67.2178 576.366V581H65.1738ZM82.7777 581.14C82.3157 581.14 81.9004 581.054 81.5317 580.881C81.1631 580.708 80.8714 580.459 80.6567 580.132C80.4421 579.801 80.3347 579.399 80.3347 578.928C80.3347 578.135 80.6311 577.533 81.2237 577.122C81.8164 576.707 82.7521 576.492 84.0307 576.478L84.9337 576.464V576.03C84.9337 575.699 84.8357 575.444 84.6397 575.267C84.4484 575.085 84.1497 574.996 83.7437 575.001C83.4451 575.006 83.1604 575.076 82.8897 575.211C82.6237 575.346 82.4417 575.582 82.3437 575.918H80.6427C80.6707 575.395 80.8224 574.966 81.0977 574.63C81.3731 574.289 81.7464 574.037 82.2177 573.874C82.6937 573.706 83.2327 573.622 83.8347 573.622C84.5767 573.622 85.1717 573.715 85.6197 573.902C86.0677 574.084 86.3921 574.348 86.5927 574.693C86.7934 575.034 86.8937 575.44 86.8937 575.911V581H85.1857L85.0177 579.754C84.7704 580.277 84.4601 580.638 84.0867 580.839C83.7181 581.04 83.2817 581.14 82.7777 581.14ZM83.4637 579.796C83.6504 579.796 83.8301 579.763 84.0027 579.698C84.1801 579.628 84.3364 579.537 84.4717 579.425C84.6117 579.308 84.7237 579.178 84.8077 579.033C84.8917 578.888 84.9337 578.739 84.9337 578.585V577.514L84.1987 577.528C83.8581 577.533 83.5407 577.575 83.2467 577.654C82.9527 577.729 82.7147 577.852 82.5327 578.025C82.3554 578.198 82.2667 578.431 82.2667 578.725C82.2667 579.061 82.3834 579.325 82.6167 579.516C82.8501 579.703 83.1324 579.796 83.4637 579.796ZM95.7019 581.14C95.3426 581.14 95.0323 581.093 94.7709 581C94.5096 580.907 94.2879 580.783 94.1059 580.629C93.9239 580.47 93.7746 580.295 93.6579 580.104C93.5413 579.913 93.4503 579.717 93.3849 579.516L93.1539 581H91.6699V570.598H93.7209V574.742C93.8096 574.588 93.9239 574.443 94.0639 574.308C94.2039 574.173 94.3673 574.054 94.5539 573.951C94.7406 573.848 94.9459 573.769 95.1699 573.713C95.3986 573.652 95.6413 573.622 95.8979 573.622C96.7986 573.622 97.5033 573.946 98.0119 574.595C98.5253 575.244 98.7819 576.158 98.7819 577.339C98.7819 578.104 98.6653 578.772 98.4319 579.341C98.1986 579.91 97.8533 580.354 97.3959 580.671C96.9386 580.984 96.3739 581.14 95.7019 581.14ZM95.2539 579.67C95.6926 579.67 96.0566 579.49 96.3459 579.131C96.6399 578.767 96.7869 578.16 96.7869 577.311C96.7869 576.56 96.6469 576.004 96.3669 575.645C96.0916 575.286 95.7159 575.106 95.2399 575.106C94.8993 575.106 94.6169 575.188 94.3929 575.351C94.1689 575.51 94.0009 575.752 93.8889 576.079C93.7816 576.406 93.7256 576.816 93.7209 577.311C93.7209 578.165 93.8469 578.772 94.0989 579.131C94.3556 579.49 94.7406 579.67 95.2539 579.67ZM102.731 581.14C102.395 581.14 102.064 581.089 101.737 580.986C101.415 580.883 101.121 580.732 100.855 580.531C100.589 580.33 100.375 580.083 100.211 579.789C100.053 579.495 99.9735 579.154 99.9735 578.767V573.762H102.017V578.508C102.017 578.844 102.127 579.119 102.346 579.334C102.566 579.549 102.888 579.656 103.312 579.656C103.714 579.656 104.031 579.553 104.264 579.348C104.502 579.138 104.621 578.846 104.621 578.473V573.762H106.644V581H105.104L104.866 579.565C104.782 579.99 104.624 580.316 104.39 580.545C104.162 580.769 103.898 580.923 103.599 581.007C103.305 581.096 103.016 581.14 102.731 581.14ZM111.172 581.14C110.668 581.14 110.182 581.058 109.716 580.895C109.249 580.727 108.855 580.466 108.533 580.111C108.211 579.752 108.005 579.287 107.917 578.718H109.688C109.748 578.975 109.858 579.178 110.017 579.327C110.18 579.476 110.364 579.584 110.57 579.649C110.775 579.71 110.971 579.74 111.158 579.74C111.55 579.74 111.865 579.679 112.103 579.558C112.345 579.432 112.467 579.241 112.467 578.984C112.467 578.788 112.394 578.632 112.25 578.515C112.11 578.398 111.876 578.31 111.55 578.249L110.276 577.983C109.636 577.848 109.123 577.619 108.736 577.297C108.348 576.97 108.15 576.508 108.141 575.911C108.141 575.477 108.255 575.087 108.484 574.742C108.717 574.397 109.06 574.124 109.513 573.923C109.965 573.722 110.521 573.622 111.179 573.622C112.07 573.622 112.782 573.818 113.314 574.21C113.85 574.602 114.123 575.155 114.133 575.869H112.425C112.373 575.589 112.233 575.374 112.005 575.225C111.781 575.071 111.498 574.994 111.158 574.994C110.803 574.994 110.511 575.057 110.283 575.183C110.054 575.309 109.94 575.5 109.94 575.757C109.94 575.948 110.033 576.1 110.22 576.212C110.406 576.319 110.696 576.413 111.088 576.492L112.264 576.758C112.67 576.856 112.999 576.991 113.251 577.164C113.507 577.332 113.706 577.516 113.846 577.717C113.986 577.918 114.081 578.121 114.133 578.326C114.189 578.527 114.217 578.709 114.217 578.872C114.217 579.353 114.088 579.763 113.832 580.104C113.575 580.44 113.218 580.697 112.761 580.874C112.303 581.051 111.774 581.14 111.172 581.14ZM117.708 573.762V581H115.755V573.762H117.708ZM117.729 570.885V572.726H115.741V570.885H117.729ZM119.602 581V573.762H121.611V574.784C121.723 574.607 121.867 574.436 122.045 574.273C122.227 574.105 122.455 573.967 122.731 573.86C123.006 573.753 123.333 573.699 123.711 573.699C124.154 573.699 124.567 573.785 124.95 573.958C125.337 574.131 125.65 574.404 125.888 574.777C126.126 575.146 126.245 575.629 126.245 576.226V581H124.201V576.478C124.201 576.086 124.084 575.792 123.851 575.596C123.617 575.4 123.333 575.302 122.997 575.302C122.773 575.302 122.556 575.342 122.346 575.421C122.14 575.5 121.972 575.619 121.842 575.778C121.711 575.937 121.646 576.133 121.646 576.366V581H119.602ZM129.58 577.85C129.576 578.219 129.634 578.541 129.755 578.816C129.877 579.087 130.052 579.297 130.28 579.446C130.514 579.591 130.794 579.663 131.12 579.663C131.47 579.663 131.776 579.588 132.037 579.439C132.303 579.29 132.488 579.045 132.59 578.704H134.431C134.352 579.217 134.147 579.656 133.815 580.02C133.489 580.384 133.092 580.662 132.625 580.853C132.159 581.044 131.673 581.14 131.169 581.14C130.455 581.14 129.825 580.991 129.279 580.692C128.738 580.389 128.316 579.962 128.012 579.411C127.709 578.86 127.557 578.212 127.557 577.465C127.557 576.742 127.695 576.091 127.97 575.512C128.246 574.929 128.645 574.469 129.167 574.133C129.695 573.792 130.327 573.622 131.064 573.622C131.802 573.622 132.42 573.778 132.919 574.091C133.423 574.399 133.801 574.831 134.053 575.386C134.31 575.937 134.438 576.574 134.438 577.297V577.85H129.58ZM129.573 576.632H132.527C132.527 576.343 132.474 576.077 132.366 575.834C132.259 575.591 132.096 575.4 131.876 575.26C131.662 575.12 131.391 575.05 131.064 575.05C130.747 575.05 130.476 575.127 130.252 575.281C130.033 575.43 129.865 575.626 129.748 575.869C129.632 576.112 129.573 576.366 129.573 576.632ZM138.707 581.14C138.203 581.14 137.717 581.058 137.251 580.895C136.784 580.727 136.39 580.466 136.068 580.111C135.746 579.752 135.54 579.287 135.452 578.718H137.223C137.283 578.975 137.393 579.178 137.552 579.327C137.715 579.476 137.899 579.584 138.105 579.649C138.31 579.71 138.506 579.74 138.693 579.74C139.085 579.74 139.4 579.679 139.638 579.558C139.88 579.432 140.002 579.241 140.002 578.984C140.002 578.788 139.929 578.632 139.785 578.515C139.645 578.398 139.411 578.31 139.085 578.249L137.811 577.983C137.171 577.848 136.658 577.619 136.271 577.297C135.883 576.97 135.685 576.508 135.676 575.911C135.676 575.477 135.79 575.087 136.019 574.742C136.252 574.397 136.595 574.124 137.048 573.923C137.5 573.722 138.056 573.622 138.714 573.622C139.605 573.622 140.317 573.818 140.849 574.21C141.385 574.602 141.658 575.155 141.668 575.869H139.96C139.908 575.589 139.768 575.374 139.54 575.225C139.316 575.071 139.033 574.994 138.693 574.994C138.338 574.994 138.046 575.057 137.818 575.183C137.589 575.309 137.475 575.5 137.475 575.757C137.475 575.948 137.568 576.1 137.755 576.212C137.941 576.319 138.231 576.413 138.623 576.492L139.799 576.758C140.205 576.856 140.534 576.991 140.786 577.164C141.042 577.332 141.241 577.516 141.381 577.717C141.521 577.918 141.616 578.121 141.668 578.326C141.724 578.527 141.752 578.709 141.752 578.872C141.752 579.353 141.623 579.763 141.367 580.104C141.11 580.44 140.753 580.697 140.296 580.874C139.838 581.051 139.309 581.14 138.707 581.14ZM145.967 581.14C145.463 581.14 144.977 581.058 144.511 580.895C144.044 580.727 143.65 580.466 143.328 580.111C143.006 579.752 142.8 579.287 142.712 578.718H144.483C144.543 578.975 144.653 579.178 144.812 579.327C144.975 579.476 145.159 579.584 145.365 579.649C145.57 579.71 145.766 579.74 145.953 579.74C146.345 579.74 146.66 579.679 146.898 579.558C147.14 579.432 147.262 579.241 147.262 578.984C147.262 578.788 147.189 578.632 147.045 578.515C146.905 578.398 146.671 578.31 146.345 578.249L145.071 577.983C144.431 577.848 143.918 577.619 143.531 577.297C143.143 576.97 142.945 576.508 142.936 575.911C142.936 575.477 143.05 575.087 143.279 574.742C143.512 574.397 143.855 574.124 144.308 573.923C144.76 573.722 145.316 573.622 145.974 573.622C146.865 573.622 147.577 573.818 148.109 574.21C148.645 574.602 148.918 575.155 148.928 575.869H147.22C147.168 575.589 147.028 575.374 146.8 575.225C146.576 575.071 146.293 574.994 145.953 574.994C145.598 574.994 145.306 575.057 145.078 575.183C144.849 575.309 144.735 575.5 144.735 575.757C144.735 575.948 144.828 576.1 145.015 576.212C145.201 576.319 145.491 576.413 145.883 576.492L147.059 576.758C147.465 576.856 147.794 576.991 148.046 577.164C148.302 577.332 148.501 577.516 148.641 577.717C148.781 577.918 148.876 578.121 148.928 578.326C148.984 578.527 149.012 578.709 149.012 578.872C149.012 579.353 148.883 579.763 148.627 580.104C148.37 580.44 148.013 580.697 147.556 580.874C147.098 581.051 146.569 581.14 145.967 581.14Z" fill="#3E3E3E"/>
<rect x="116.25" y="617.25" width="195.5" height="48.5" rx="2.75" fill="#616161"/>
<path d="M204.482 635.432H206.818V647H204.714L199.218 639.04V647H196.89V635.432H199.202L204.482 643.088V635.432ZM210.811 643.4C210.805 643.821 210.872 644.189 211.011 644.504C211.149 644.813 211.349 645.053 211.611 645.224C211.877 645.389 212.197 645.472 212.571 645.472C212.971 645.472 213.32 645.387 213.619 645.216C213.923 645.045 214.133 644.765 214.251 644.376H216.355C216.264 644.963 216.029 645.464 215.651 645.88C215.277 646.296 214.824 646.613 214.291 646.832C213.757 647.051 213.203 647.16 212.627 647.16C211.811 647.16 211.091 646.989 210.467 646.648C209.848 646.301 209.365 645.813 209.019 645.184C208.672 644.555 208.499 643.813 208.499 642.96C208.499 642.133 208.656 641.389 208.971 640.728C209.285 640.061 209.741 639.536 210.339 639.152C210.941 638.763 211.664 638.568 212.507 638.568C213.349 638.568 214.056 638.747 214.627 639.104C215.203 639.456 215.635 639.949 215.923 640.584C216.216 641.213 216.363 641.941 216.363 642.768V643.4H210.811ZM210.803 642.008H214.179C214.179 641.677 214.117 641.373 213.995 641.096C213.872 640.819 213.685 640.6 213.435 640.44C213.189 640.28 212.88 640.2 212.507 640.2C212.144 640.2 211.835 640.288 211.579 640.464C211.328 640.635 211.136 640.859 211.003 641.136C210.869 641.413 210.803 641.704 210.803 642.008ZM225.448 647H223.008L221.032 644.304L219.048 647H216.6L219.784 642.688L216.88 638.728H219.32L221.04 641.048L222.752 638.728H225.2L222.272 642.688L225.448 647ZM231.681 640.352H229.841L229.857 644.76C229.857 644.963 229.881 645.115 229.929 645.216C229.982 645.312 230.062 645.376 230.169 645.408C230.281 645.435 230.422 645.448 230.593 645.448H231.705V646.888C231.598 646.936 231.43 646.981 231.201 647.024C230.977 647.067 230.662 647.088 230.257 647.088C229.531 647.088 228.969 646.995 228.569 646.808C228.174 646.621 227.899 646.36 227.745 646.024C227.59 645.688 227.513 645.299 227.513 644.856V640.352H226.169V638.728H227.593L228.177 636.232H229.841V638.72H231.681V640.352Z" fill="white"/>
<rect x="116.25" y="617.25" width="195.5" height="48.5" rx="2.75" stroke="#4A4A4A" stroke-width="2.5"/>
<path d="M224.75 534.375H207.25C206.767 534.375 206.375 534.767 206.375 535.25V552.75C206.375 553.233 206.767 553.625 207.25 553.625H224.75C225.233 553.625 225.625 553.233 225.625 552.75V535.25C225.625 534.767 225.233 534.375 224.75 534.375Z" fill="#3E3E3E" stroke="#3E3E3E" stroke-width="1.75" stroke-linecap="round" stroke-linejoin="round"/>
<path d="M220.812 541.375L214.392 547.5L211.188 544.438" stroke="#F8F2E9" stroke-width="1.75" stroke-linecap="round" stroke-linejoin="round"/>
<path d="M224.75 566.375H207.25C206.767 566.375 206.375 566.767 206.375 567.25V584.75C206.375 585.233 206.767 585.625 207.25 585.625H224.75C225.233 585.625 225.625 585.233 225.625 584.75V567.25C225.625 566.767 225.233 566.375 224.75 566.375Z" stroke="#3E3E3E" stroke-width="1.75" stroke-linecap="round" stroke-linejoin="round"/>
<defs>
<clipPath id="clip0_134_120">
<rect width="119" height="119" fill="white" transform="translate(155 22)"/>
</clipPath>
</defs>
</svg>
