<svg width="428" height="926" viewBox="0 0 428 926" fill="none" xmlns="http://www.w3.org/2000/svg">
<rect width="428" height="926" fill="#F8F2E9"/>
<path d="M43.304 649.512V647.432H52.56V649.512H49.144V659H46.8V649.512H43.304ZM55.275 659.16C54.747 659.16 54.2723 659.061 53.851 658.864C53.4297 658.667 53.0963 658.381 52.851 658.008C52.6057 657.629 52.483 657.171 52.483 656.632C52.483 655.725 52.8217 655.037 53.499 654.568C54.1763 654.093 55.2457 653.848 56.707 653.832L57.739 653.816V653.32C57.739 652.941 57.627 652.651 57.403 652.448C57.1843 652.24 56.843 652.139 56.379 652.144C56.0377 652.149 55.7123 652.229 55.403 652.384C55.099 652.539 54.891 652.808 54.779 653.192H52.835C52.867 652.595 53.0403 652.104 53.355 651.72C53.6697 651.331 54.0963 651.043 54.635 650.856C55.179 650.664 55.795 650.568 56.483 650.568C57.331 650.568 58.011 650.675 58.523 650.888C59.035 651.096 59.4057 651.397 59.635 651.792C59.8643 652.181 59.979 652.645 59.979 653.184V659H58.027L57.835 657.576C57.5523 658.173 57.1977 658.587 56.771 658.816C56.3497 659.045 55.851 659.16 55.275 659.16ZM56.059 657.624C56.2723 657.624 56.4777 657.587 56.675 657.512C56.8777 657.432 57.0563 657.328 57.211 657.2C57.371 657.067 57.499 656.917 57.595 656.752C57.691 656.587 57.739 656.416 57.739 656.24V655.016L56.899 655.032C56.5097 655.037 56.147 655.085 55.811 655.176C55.475 655.261 55.203 655.403 54.995 655.6C54.7923 655.797 54.691 656.064 54.691 656.4C54.691 656.784 54.8243 657.085 55.091 657.304C55.3577 657.517 55.6803 657.624 56.059 657.624ZM70.0389 659H67.7109L65.4789 655.432L64.3829 656.6V659H62.0469V647.112H64.3829V654.16L67.4229 650.728H69.9349L66.9269 654.024L70.0389 659ZM72.8419 655.4C72.8365 655.821 72.9032 656.189 73.0419 656.504C73.1805 656.813 73.3805 657.053 73.6419 657.224C73.9085 657.389 74.2285 657.472 74.6019 657.472C75.0019 657.472 75.3512 657.387 75.6499 657.216C75.9539 657.045 76.1645 656.765 76.2819 656.376H78.3859C78.2952 656.963 78.0605 657.464 77.6819 657.88C77.3085 658.296 76.8552 658.613 76.3219 658.832C75.7885 659.051 75.2339 659.16 74.6579 659.16C73.8419 659.16 73.1219 658.989 72.4979 658.648C71.8792 658.301 71.3965 657.813 71.0499 657.184C70.7032 656.555 70.5299 655.813 70.5299 654.96C70.5299 654.133 70.6872 653.389 71.0019 652.728C71.3165 652.061 71.7725 651.536 72.3699 651.152C72.9725 650.763 73.6952 650.568 74.5379 650.568C75.3805 650.568 76.0872 650.747 76.6579 651.104C77.2339 651.456 77.6659 651.949 77.9539 652.584C78.2472 653.213 78.3939 653.941 78.3939 654.768V655.4H72.8419ZM72.8339 654.008H76.2099C76.2099 653.677 76.1485 653.373 76.0259 653.096C75.9032 652.819 75.7165 652.6 75.4659 652.44C75.2205 652.28 74.9112 652.2 74.5379 652.2C74.1752 652.2 73.8659 652.288 73.6099 652.464C73.3592 652.635 73.1672 652.859 73.0339 653.136C72.9005 653.413 72.8339 653.704 72.8339 654.008ZM85.7594 659.16C85.2314 659.16 84.7567 659.061 84.3354 658.864C83.914 658.667 83.5807 658.381 83.3354 658.008C83.09 657.629 82.9674 657.171 82.9674 656.632C82.9674 655.725 83.306 655.037 83.9834 654.568C84.6607 654.093 85.73 653.848 87.1914 653.832L88.2234 653.816V653.32C88.2234 652.941 88.1114 652.651 87.8874 652.448C87.6687 652.24 87.3274 652.139 86.8634 652.144C86.522 652.149 86.1967 652.229 85.8874 652.384C85.5834 652.539 85.3754 652.808 85.2634 653.192H83.3194C83.3514 652.595 83.5247 652.104 83.8394 651.72C84.154 651.331 84.5807 651.043 85.1194 650.856C85.6634 650.664 86.2794 650.568 86.9674 650.568C87.8154 650.568 88.4954 650.675 89.0074 650.888C89.5194 651.096 89.89 651.397 90.1194 651.792C90.3487 652.181 90.4634 652.645 90.4634 653.184V659H88.5114L88.3194 657.576C88.0367 658.173 87.682 658.587 87.2554 658.816C86.834 659.045 86.3354 659.16 85.7594 659.16ZM86.5434 657.624C86.7567 657.624 86.962 657.587 87.1594 657.512C87.362 657.432 87.5407 657.328 87.6954 657.2C87.8554 657.067 87.9834 656.917 88.0794 656.752C88.1754 656.587 88.2234 656.416 88.2234 656.24V655.016L87.3834 655.032C86.994 655.037 86.6314 655.085 86.2954 655.176C85.9594 655.261 85.6874 655.403 85.4794 655.6C85.2767 655.797 85.1754 656.064 85.1754 656.4C85.1754 656.784 85.3087 657.085 85.5754 657.304C85.842 657.517 86.1647 657.624 86.5434 657.624ZM99.1939 659.16C98.6179 659.16 98.0632 659.067 97.5299 658.88C96.9965 658.688 96.5459 658.389 96.1779 657.984C95.8099 657.573 95.5752 657.043 95.4739 656.392H97.4979C97.5672 656.685 97.6925 656.917 97.8739 657.088C98.0605 657.259 98.2712 657.381 98.5059 657.456C98.7405 657.525 98.9645 657.56 99.1779 657.56C99.6259 657.56 99.9859 657.491 100.258 657.352C100.535 657.208 100.674 656.989 100.674 656.696C100.674 656.472 100.591 656.293 100.426 656.16C100.266 656.027 99.9992 655.925 99.6259 655.856L98.1699 655.552C97.4392 655.397 96.8525 655.136 96.4099 654.768C95.9672 654.395 95.7405 653.867 95.7299 653.184C95.7299 652.688 95.8605 652.243 96.1219 651.848C96.3885 651.453 96.7805 651.141 97.2979 650.912C97.8152 650.683 98.4499 650.568 99.2019 650.568C100.221 650.568 101.034 650.792 101.642 651.24C102.255 651.688 102.567 652.32 102.578 653.136H100.626C100.567 652.816 100.407 652.571 100.146 652.4C99.8899 652.224 99.5672 652.136 99.1779 652.136C98.7725 652.136 98.4392 652.208 98.1779 652.352C97.9165 652.496 97.7859 652.715 97.7859 653.008C97.7859 653.227 97.8925 653.4 98.1059 653.528C98.3192 653.651 98.6499 653.757 99.0979 653.848L100.442 654.152C100.906 654.264 101.282 654.419 101.57 654.616C101.863 654.808 102.09 655.019 102.25 655.248C102.41 655.477 102.519 655.709 102.578 655.944C102.642 656.173 102.674 656.381 102.674 656.568C102.674 657.117 102.527 657.587 102.234 657.976C101.941 658.36 101.533 658.653 101.01 658.856C100.487 659.059 99.8819 659.16 99.1939 659.16ZM106.233 655.4C106.227 655.821 106.294 656.189 106.433 656.504C106.571 656.813 106.771 657.053 107.033 657.224C107.299 657.389 107.619 657.472 107.993 657.472C108.393 657.472 108.742 657.387 109.041 657.216C109.345 657.045 109.555 656.765 109.673 656.376H111.777C111.686 656.963 111.451 657.464 111.073 657.88C110.699 658.296 110.246 658.613 109.713 658.832C109.179 659.051 108.625 659.16 108.049 659.16C107.233 659.16 106.513 658.989 105.889 658.648C105.27 658.301 104.787 657.813 104.441 657.184C104.094 656.555 103.921 655.813 103.921 654.96C103.921 654.133 104.078 653.389 104.393 652.728C104.707 652.061 105.163 651.536 105.761 651.152C106.363 650.763 107.086 650.568 107.929 650.568C108.771 650.568 109.478 650.747 110.049 651.104C110.625 651.456 111.057 651.949 111.345 652.584C111.638 653.213 111.785 653.941 111.785 654.768V655.4H106.233ZM106.225 654.008H109.601C109.601 653.677 109.539 653.373 109.417 653.096C109.294 652.819 109.107 652.6 108.857 652.44C108.611 652.28 108.302 652.2 107.929 652.2C107.566 652.2 107.257 652.288 107.001 652.464C106.75 652.635 106.558 652.859 106.425 653.136C106.291 653.413 106.225 653.704 106.225 654.008ZM116.046 659.144C115.438 659.144 114.956 659.072 114.598 658.928C114.241 658.784 113.977 658.595 113.806 658.36C113.636 658.12 113.526 657.856 113.478 657.568C113.43 657.275 113.406 656.979 113.406 656.68V647.112H115.694V656.392C115.694 656.696 115.758 656.944 115.886 657.136C116.02 657.323 116.268 657.437 116.63 657.48L117.022 657.504V658.944C116.862 658.997 116.7 659.043 116.534 659.08C116.369 659.123 116.206 659.144 116.046 659.144ZM123.189 650.728V652.352H121.445V659H119.109V652.352H117.581V650.728H119.109V649.536C119.109 648.869 119.303 648.352 119.693 647.984C120.087 647.616 120.645 647.432 121.365 647.432H123.261L123.269 648.984H122.181C121.882 648.984 121.677 649.059 121.565 649.208C121.458 649.352 121.405 649.592 121.405 649.928V650.728H123.189ZM126.909 650.728V659H124.677V650.728H126.909ZM126.933 647.44V649.544H124.661V647.44H126.933ZM130.951 655.4C130.946 655.821 131.013 656.189 131.151 656.504C131.29 656.813 131.49 657.053 131.751 657.224C132.018 657.389 132.338 657.472 132.711 657.472C133.111 657.472 133.461 657.387 133.759 657.216C134.063 657.045 134.274 656.765 134.391 656.376H136.495C136.405 656.963 136.17 657.464 135.791 657.88C135.418 658.296 134.965 658.613 134.431 658.832C133.898 659.051 133.343 659.16 132.767 659.16C131.951 659.16 131.231 658.989 130.607 658.648C129.989 658.301 129.506 657.813 129.159 657.184C128.813 656.555 128.639 655.813 128.639 654.96C128.639 654.133 128.797 653.389 129.111 652.728C129.426 652.061 129.882 651.536 130.479 651.152C131.082 650.763 131.805 650.568 132.647 650.568C133.49 650.568 134.197 650.747 134.767 651.104C135.343 651.456 135.775 651.949 136.063 652.584C136.357 653.213 136.503 653.941 136.503 654.768V655.4H130.951ZM130.943 654.008H134.319C134.319 653.677 134.258 653.373 134.135 653.096C134.013 652.819 133.826 652.6 133.575 652.44C133.33 652.28 133.021 652.2 132.647 652.2C132.285 652.2 131.975 652.288 131.719 652.464C131.469 652.635 131.277 652.859 131.143 653.136C131.01 653.413 130.943 653.704 130.943 654.008ZM146.517 650.728V652.352H144.773V659H142.437V652.352H140.909V650.728H142.437V649.536C142.437 648.869 142.631 648.352 143.021 647.984C143.415 647.616 143.973 647.432 144.693 647.432H146.589L146.597 648.984H145.509C145.21 648.984 145.005 649.059 144.893 649.208C144.786 649.352 144.733 649.592 144.733 649.928V650.728H146.517ZM151.396 659.16C150.585 659.16 149.878 658.987 149.276 658.64C148.678 658.293 148.214 657.803 147.884 657.168C147.558 656.533 147.396 655.781 147.396 654.912C147.396 654.043 147.558 653.283 147.884 652.632C148.214 651.981 148.678 651.475 149.276 651.112C149.878 650.749 150.588 650.568 151.404 650.568C152.22 650.568 152.926 650.747 153.524 651.104C154.121 651.456 154.582 651.957 154.908 652.608C155.233 653.259 155.396 654.027 155.396 654.912C155.396 655.744 155.236 656.48 154.916 657.12C154.601 657.755 154.145 658.253 153.548 658.616C152.956 658.979 152.238 659.16 151.396 659.16ZM151.404 657.424C151.814 657.424 152.145 657.304 152.396 657.064C152.646 656.824 152.828 656.509 152.94 656.12C153.057 655.725 153.116 655.296 153.116 654.832C153.116 654.395 153.062 653.981 152.956 653.592C152.854 653.203 152.678 652.888 152.428 652.648C152.177 652.408 151.836 652.288 151.404 652.288C150.993 652.288 150.66 652.403 150.404 652.632C150.153 652.856 149.969 653.163 149.852 653.552C149.734 653.936 149.676 654.363 149.676 654.832C149.676 655.264 149.729 655.68 149.836 656.08C149.942 656.475 150.121 656.797 150.372 657.048C150.622 657.299 150.966 657.424 151.404 657.424ZM156.953 659V650.728H159.201V652.688C159.334 652.267 159.521 651.899 159.761 651.584C160.006 651.264 160.302 651.016 160.649 650.84C160.996 650.659 161.388 650.568 161.825 650.568C161.9 650.568 161.969 650.573 162.033 650.584C162.102 650.589 162.153 650.6 162.185 650.616V652.84C162.137 652.819 162.078 652.805 162.009 652.8C161.945 652.795 161.886 652.789 161.833 652.784C161.374 652.747 160.982 652.76 160.657 652.824C160.332 652.888 160.068 652.997 159.865 653.152C159.662 653.307 159.516 653.496 159.425 653.72C159.334 653.944 159.289 654.195 159.289 654.472V659H156.953ZM169.892 659.16C169.508 659.16 169.129 659.101 168.756 658.984C168.388 658.867 168.052 658.693 167.748 658.464C167.444 658.235 167.198 657.952 167.012 657.616C166.83 657.28 166.74 656.891 166.74 656.448V650.728H169.076V656.152C169.076 656.536 169.201 656.851 169.452 657.096C169.702 657.341 170.07 657.464 170.556 657.464C171.014 657.464 171.377 657.347 171.644 657.112C171.916 656.872 172.052 656.539 172.052 656.112V650.728H174.364V659H172.604L172.332 657.36C172.236 657.845 172.054 658.219 171.788 658.48C171.526 658.736 171.225 658.912 170.884 659.008C170.548 659.109 170.217 659.16 169.892 659.16ZM179.538 659.16C178.962 659.16 178.407 659.067 177.874 658.88C177.34 658.688 176.89 658.389 176.522 657.984C176.154 657.573 175.919 657.043 175.818 656.392H177.842C177.911 656.685 178.036 656.917 178.218 657.088C178.404 657.259 178.615 657.381 178.85 657.456C179.084 657.525 179.308 657.56 179.522 657.56C179.97 657.56 180.33 657.491 180.602 657.352C180.879 657.208 181.018 656.989 181.018 656.696C181.018 656.472 180.935 656.293 180.77 656.16C180.61 656.027 180.343 655.925 179.97 655.856L178.514 655.552C177.783 655.397 177.196 655.136 176.754 654.768C176.311 654.395 176.084 653.867 176.074 653.184C176.074 652.688 176.204 652.243 176.466 651.848C176.732 651.453 177.124 651.141 177.642 650.912C178.159 650.683 178.794 650.568 179.546 650.568C180.564 650.568 181.378 650.792 181.986 651.24C182.599 651.688 182.911 652.32 182.922 653.136H180.97C180.911 652.816 180.751 652.571 180.49 652.4C180.234 652.224 179.911 652.136 179.522 652.136C179.116 652.136 178.783 652.208 178.522 652.352C178.26 652.496 178.13 652.715 178.13 653.008C178.13 653.227 178.236 653.4 178.45 653.528C178.663 653.651 178.994 653.757 179.442 653.848L180.786 654.152C181.25 654.264 181.626 654.419 181.914 654.616C182.207 654.808 182.434 655.019 182.594 655.248C182.754 655.477 182.863 655.709 182.922 655.944C182.986 656.173 183.018 656.381 183.018 656.568C183.018 657.117 182.871 657.587 182.578 657.976C182.284 658.36 181.876 658.653 181.354 658.856C180.831 659.059 180.226 659.16 179.538 659.16ZM192.931 652.352H191.091L191.107 656.76C191.107 656.963 191.131 657.115 191.179 657.216C191.232 657.312 191.312 657.376 191.419 657.408C191.531 657.435 191.672 657.448 191.843 657.448H192.955V658.888C192.848 658.936 192.68 658.981 192.451 659.024C192.227 659.067 191.912 659.088 191.507 659.088C190.781 659.088 190.219 658.995 189.819 658.808C189.424 658.621 189.149 658.36 188.995 658.024C188.84 657.688 188.763 657.299 188.763 656.856V652.352H187.419V650.728H188.843L189.427 648.232H191.091V650.72H192.931V652.352ZM197.943 659.16C197.132 659.16 196.425 658.987 195.823 658.64C195.225 658.293 194.761 657.803 194.431 657.168C194.105 656.533 193.943 655.781 193.943 654.912C193.943 654.043 194.105 653.283 194.431 652.632C194.761 651.981 195.225 651.475 195.823 651.112C196.425 650.749 197.135 650.568 197.951 650.568C198.767 650.568 199.473 650.747 200.071 651.104C200.668 651.456 201.129 651.957 201.455 652.608C201.78 653.259 201.943 654.027 201.943 654.912C201.943 655.744 201.783 656.48 201.463 657.12C201.148 657.755 200.692 658.253 200.095 658.616C199.503 658.979 198.785 659.16 197.943 659.16ZM197.951 657.424C198.361 657.424 198.692 657.304 198.943 657.064C199.193 656.824 199.375 656.509 199.487 656.12C199.604 655.725 199.663 655.296 199.663 654.832C199.663 654.395 199.609 653.981 199.503 653.592C199.401 653.203 199.225 652.888 198.975 652.648C198.724 652.408 198.383 652.288 197.951 652.288C197.54 652.288 197.207 652.403 196.951 652.632C196.7 652.856 196.516 653.163 196.399 653.552C196.281 653.936 196.223 654.363 196.223 654.832C196.223 655.264 196.276 655.68 196.383 656.08C196.489 656.475 196.668 656.797 196.919 657.048C197.169 657.299 197.513 657.424 197.951 657.424ZM211.845 650.728V652.352H210.101V659H207.765V652.352H206.237V650.728H207.765V649.536C207.765 648.869 207.96 648.352 208.349 647.984C208.744 647.616 209.301 647.432 210.021 647.432H211.917L211.925 648.984H210.837C210.538 648.984 210.333 649.059 210.221 649.208C210.114 649.352 210.061 649.592 210.061 649.928V650.728H211.845ZM215.565 650.728V659H213.333V650.728H215.565ZM215.589 647.44V649.544H213.317V647.44H215.589ZM217.734 659V650.728H220.03V651.896C220.158 651.693 220.324 651.499 220.526 651.312C220.734 651.12 220.996 650.963 221.31 650.84C221.625 650.717 221.998 650.656 222.43 650.656C222.937 650.656 223.409 650.755 223.846 650.952C224.289 651.149 224.646 651.461 224.918 651.888C225.19 652.309 225.326 652.861 225.326 653.544V659H222.99V653.832C222.99 653.384 222.857 653.048 222.59 652.824C222.324 652.6 221.998 652.488 221.614 652.488C221.358 652.488 221.11 652.533 220.87 652.624C220.636 652.715 220.444 652.851 220.294 653.032C220.145 653.213 220.07 653.437 220.07 653.704V659H217.734ZM229.571 650.728V659H227.339V650.728H229.571ZM229.595 647.44V649.544H227.323V647.44H229.595ZM234.96 659.16C234.384 659.16 233.829 659.067 233.296 658.88C232.762 658.688 232.312 658.389 231.944 657.984C231.576 657.573 231.341 657.043 231.24 656.392H233.264C233.333 656.685 233.458 656.917 233.64 657.088C233.826 657.259 234.037 657.381 234.272 657.456C234.506 657.525 234.73 657.56 234.944 657.56C235.392 657.56 235.752 657.491 236.024 657.352C236.301 657.208 236.44 656.989 236.44 656.696C236.44 656.472 236.357 656.293 236.192 656.16C236.032 656.027 235.765 655.925 235.391 655.856L233.936 655.552C233.205 655.397 232.618 655.136 232.176 654.768C231.733 654.395 231.506 653.867 231.496 653.184C231.496 652.688 231.626 652.243 231.888 651.848C232.154 651.453 232.546 651.141 233.064 650.912C233.581 650.683 234.216 650.568 234.968 650.568C235.986 650.568 236.8 650.792 237.408 651.24C238.021 651.688 238.333 652.32 238.344 653.136H236.392C236.333 652.816 236.173 652.571 235.912 652.4C235.656 652.224 235.333 652.136 234.944 652.136C234.538 652.136 234.205 652.208 233.944 652.352C233.682 652.496 233.552 652.715 233.552 653.008C233.552 653.227 233.658 653.4 233.872 653.528C234.085 653.651 234.416 653.757 234.864 653.848L236.208 654.152C236.672 654.264 237.048 654.419 237.336 654.616C237.629 654.808 237.856 655.019 238.016 655.248C238.176 655.477 238.285 655.709 238.344 655.944C238.408 656.173 238.44 656.381 238.44 656.568C238.44 657.117 238.293 657.587 238 657.976C237.706 658.36 237.298 658.653 236.776 658.856C236.253 659.059 235.648 659.16 234.96 659.16ZM240.078 659V647.112H242.398V651.92C242.531 651.728 242.699 651.539 242.902 651.352C243.105 651.16 243.358 651 243.662 650.872C243.966 650.744 244.337 650.68 244.774 650.68C245.302 650.68 245.782 650.784 246.214 650.992C246.651 651.195 247.001 651.491 247.262 651.88C247.529 652.269 247.662 652.744 247.662 653.304V659H245.318V653.648C245.318 653.275 245.182 652.989 244.91 652.792C244.643 652.589 244.318 652.488 243.934 652.488C243.683 652.488 243.441 652.533 243.206 652.624C242.971 652.715 242.779 652.853 242.63 653.04C242.486 653.221 242.414 653.448 242.414 653.72V659H240.078ZM260.018 650.728L256.914 659H255.226L252.114 650.728H254.226L256.034 656H256.098L257.882 650.728H260.018ZM262.795 655.4C262.79 655.821 262.856 656.189 262.995 656.504C263.134 656.813 263.334 657.053 263.595 657.224C263.862 657.389 264.182 657.472 264.555 657.472C264.955 657.472 265.304 657.387 265.603 657.216C265.907 657.045 266.118 656.765 266.235 656.376H268.339C268.248 656.963 268.014 657.464 267.635 657.88C267.262 658.296 266.808 658.613 266.275 658.832C265.742 659.051 265.187 659.16 264.611 659.16C263.795 659.16 263.075 658.989 262.451 658.648C261.832 658.301 261.35 657.813 261.003 657.184C260.656 656.555 260.483 655.813 260.483 654.96C260.483 654.133 260.64 653.389 260.955 652.728C261.27 652.061 261.726 651.536 262.323 651.152C262.926 650.763 263.648 650.568 264.491 650.568C265.334 650.568 266.04 650.747 266.611 651.104C267.187 651.456 267.619 651.949 267.907 652.584C268.2 653.213 268.347 653.941 268.347 654.768V655.4H262.795ZM262.787 654.008H266.163C266.163 653.677 266.102 653.373 265.979 653.096C265.856 652.819 265.67 652.6 265.419 652.44C265.174 652.28 264.864 652.2 264.491 652.2C264.128 652.2 263.819 652.288 263.563 652.464C263.312 652.635 263.12 652.859 262.987 653.136C262.854 653.413 262.787 653.704 262.787 654.008ZM269.969 659V650.728H272.217V652.688C272.35 652.267 272.537 651.899 272.777 651.584C273.022 651.264 273.318 651.016 273.665 650.84C274.011 650.659 274.403 650.568 274.841 650.568C274.915 650.568 274.985 650.573 275.049 650.584C275.118 650.589 275.169 650.6 275.201 650.616V652.84C275.153 652.819 275.094 652.805 275.025 652.8C274.961 652.795 274.902 652.789 274.849 652.784C274.39 652.747 273.998 652.76 273.673 652.824C273.347 652.888 273.083 652.997 272.881 653.152C272.678 653.307 272.531 653.496 272.441 653.72C272.35 653.944 272.305 654.195 272.305 654.472V659H269.969ZM278.821 650.728V659H276.589V650.728H278.821ZM278.845 647.44V649.544H276.573V647.44H278.845ZM285.986 650.728V652.352H284.242V659H281.906V652.352H280.378V650.728H281.906V649.536C281.906 648.869 282.1 648.352 282.49 647.984C282.884 647.616 283.442 647.432 284.161 647.432H286.058L286.066 648.984H284.978C284.679 648.984 284.474 649.059 284.362 649.208C284.255 649.352 284.202 649.592 284.202 649.928V650.728H285.986ZM288.944 661.64C288.379 661.64 287.979 661.592 287.744 661.496C287.515 661.405 287.4 661.36 287.4 661.36V659.872L288.216 659.904C288.574 659.925 288.862 659.907 289.08 659.848C289.299 659.795 289.464 659.723 289.576 659.632C289.694 659.541 289.776 659.445 289.824 659.344C289.872 659.248 289.907 659.171 289.928 659.112L290.08 658.656L286.864 650.728H289.176L291.16 656.12L293.168 650.728H295.448L292.096 659.048C291.808 659.752 291.504 660.291 291.184 660.664C290.864 661.037 290.518 661.293 290.144 661.432C289.776 661.571 289.376 661.64 288.944 661.64ZM299.008 650.728V659H296.776V650.728H299.008ZM299.032 647.44V649.544H296.76V647.44H299.032ZM301.172 659V650.728H303.468V651.896C303.596 651.693 303.761 651.499 303.964 651.312C304.172 651.12 304.433 650.963 304.748 650.84C305.063 650.717 305.436 650.656 305.868 650.656C306.375 650.656 306.847 650.755 307.284 650.952C307.727 651.149 308.084 651.461 308.356 651.888C308.628 652.309 308.764 652.861 308.764 653.544V659H306.428V653.832C306.428 653.384 306.295 653.048 306.028 652.824C305.761 652.6 305.436 652.488 305.052 652.488C304.796 652.488 304.548 652.533 304.308 652.624C304.073 652.715 303.881 652.851 303.732 653.032C303.583 653.213 303.508 653.437 303.508 653.704V659H301.172ZM314.488 661.736C313.016 661.736 311.896 661.549 311.128 661.176C310.366 660.803 309.984 660.312 309.984 659.704C309.984 659.421 310.059 659.184 310.208 658.992C310.358 658.8 310.531 658.648 310.728 658.536C310.931 658.419 311.115 658.331 311.28 658.272C311.451 658.208 311.555 658.165 311.592 658.144C311.507 658.096 311.384 658.027 311.224 657.936C311.064 657.84 310.915 657.712 310.776 657.552C310.643 657.387 310.576 657.173 310.576 656.912C310.576 656.619 310.715 656.347 310.992 656.096C311.275 655.845 311.702 655.672 312.272 655.576C311.728 655.32 311.315 654.973 311.032 654.536C310.75 654.099 310.608 653.651 310.608 653.192C310.608 652.648 310.779 652.181 311.12 651.792C311.462 651.403 311.926 651.107 312.512 650.904C313.104 650.701 313.774 650.6 314.52 650.6C315.091 650.6 315.558 650.661 315.92 650.784C316.283 650.901 316.619 651.056 316.928 651.248C317.051 651.2 317.214 651.139 317.416 651.064C317.619 650.984 317.838 650.899 318.072 650.808C318.307 650.712 318.536 650.619 318.76 650.528C318.984 650.432 319.184 650.347 319.36 650.272L319.352 652.08L317.92 652.312C317.979 652.456 318.024 652.611 318.056 652.776C318.088 652.941 318.104 653.077 318.104 653.184C318.104 653.664 317.963 654.112 317.68 654.528C317.403 654.944 316.984 655.28 316.424 655.536C315.87 655.792 315.182 655.92 314.36 655.92C314.259 655.92 314.123 655.917 313.952 655.912C313.787 655.907 313.651 655.899 313.544 655.888C313.23 655.904 313.014 655.944 312.896 656.008C312.779 656.072 312.72 656.147 312.72 656.232C312.72 656.36 312.84 656.445 313.08 656.488C313.32 656.525 313.683 656.56 314.168 656.592C314.339 656.603 314.576 656.616 314.88 656.632C315.184 656.648 315.52 656.669 315.888 656.696C316.902 656.765 317.656 657.016 318.152 657.448C318.654 657.875 318.904 658.413 318.904 659.064C318.904 659.837 318.536 660.475 317.8 660.976C317.07 661.483 315.966 661.736 314.488 661.736ZM314.864 660.432C315.515 660.432 315.979 660.352 316.256 660.192C316.534 660.032 316.672 659.803 316.672 659.504C316.672 659.253 316.566 659.051 316.352 658.896C316.139 658.736 315.827 658.643 315.416 658.616L313.52 658.488C313.275 658.477 313.056 658.515 312.864 658.6C312.678 658.685 312.531 658.803 312.424 658.952C312.323 659.101 312.272 659.261 312.272 659.432C312.272 659.779 312.483 660.032 312.904 660.192C313.326 660.352 313.979 660.432 314.864 660.432ZM314.424 654.616C314.867 654.616 315.222 654.496 315.488 654.256C315.76 654.011 315.896 653.68 315.896 653.264C315.896 652.832 315.76 652.485 315.488 652.224C315.222 651.963 314.867 651.832 314.424 651.832C313.987 651.832 313.63 651.963 313.352 652.224C313.08 652.485 312.944 652.832 312.944 653.264C312.944 653.675 313.075 654.003 313.336 654.248C313.603 654.493 313.966 654.616 314.424 654.616ZM325.335 661.64C324.77 661.64 324.37 661.592 324.135 661.496C323.906 661.405 323.791 661.36 323.791 661.36V659.872L324.607 659.904C324.964 659.925 325.252 659.907 325.471 659.848C325.69 659.795 325.855 659.723 325.967 659.632C326.084 659.541 326.167 659.445 326.215 659.344C326.263 659.248 326.298 659.171 326.319 659.112L326.471 658.656L323.255 650.728H325.567L327.551 656.12L329.559 650.728H331.839L328.487 659.048C328.199 659.752 327.895 660.291 327.575 660.664C327.255 661.037 326.908 661.293 326.535 661.432C326.167 661.571 325.767 661.64 325.335 661.64ZM336.255 659.16C335.444 659.16 334.738 658.987 334.135 658.64C333.538 658.293 333.074 657.803 332.743 657.168C332.418 656.533 332.255 655.781 332.255 654.912C332.255 654.043 332.418 653.283 332.743 652.632C333.074 651.981 333.538 651.475 334.135 651.112C334.738 650.749 335.447 650.568 336.263 650.568C337.079 650.568 337.786 650.747 338.383 651.104C338.98 651.456 339.442 651.957 339.767 652.608C340.092 653.259 340.255 654.027 340.255 654.912C340.255 655.744 340.095 656.48 339.775 657.12C339.46 657.755 339.004 658.253 338.407 658.616C337.815 658.979 337.098 659.16 336.255 659.16ZM336.263 657.424C336.674 657.424 337.004 657.304 337.255 657.064C337.506 656.824 337.687 656.509 337.799 656.12C337.916 655.725 337.975 655.296 337.975 654.832C337.975 654.395 337.922 653.981 337.815 653.592C337.714 653.203 337.538 652.888 337.287 652.648C337.036 652.408 336.695 652.288 336.263 652.288C335.852 652.288 335.519 652.403 335.263 652.632C335.012 652.856 334.828 653.163 334.711 653.552C334.594 653.936 334.535 654.363 334.535 654.832C334.535 655.264 334.588 655.68 334.695 656.08C334.802 656.475 334.98 656.797 335.231 657.048C335.482 657.299 335.826 657.424 336.263 657.424ZM344.767 659.16C344.383 659.16 344.004 659.101 343.631 658.984C343.263 658.867 342.927 658.693 342.623 658.464C342.319 658.235 342.073 657.952 341.887 657.616C341.705 657.28 341.615 656.891 341.615 656.448V650.728H343.951V656.152C343.951 656.536 344.076 656.851 344.327 657.096C344.577 657.341 344.945 657.464 345.431 657.464C345.889 657.464 346.252 657.347 346.519 657.112C346.791 656.872 346.927 656.539 346.927 656.112V650.728H349.239V659H347.479L347.207 657.36C347.111 657.845 346.929 658.219 346.663 658.48C346.401 658.736 346.1 658.912 345.759 659.008C345.423 659.109 345.092 659.16 344.767 659.16ZM351.188 659V650.728H353.436V652.688C353.569 652.267 353.756 651.899 353.996 651.584C354.241 651.264 354.537 651.016 354.884 650.84C355.23 650.659 355.622 650.568 356.06 650.568C356.134 650.568 356.204 650.573 356.268 650.584C356.337 650.589 356.388 650.6 356.42 650.616V652.84C356.372 652.819 356.313 652.805 356.244 652.8C356.18 652.795 356.121 652.789 356.068 652.784C355.609 652.747 355.217 652.76 354.891 652.824C354.566 652.888 354.302 652.997 354.1 653.152C353.897 653.307 353.75 653.496 353.66 653.72C353.569 653.944 353.524 654.195 353.524 654.472V659H351.188ZM361.374 647.432H363.702V659H361.374V647.432ZM366.296 647.432C366.355 647.432 366.517 647.432 366.784 647.432C367.056 647.432 367.373 647.432 367.736 647.432C368.104 647.432 368.469 647.435 368.832 647.44C369.2 647.44 369.507 647.443 369.752 647.448C371.155 647.48 372.299 647.731 373.184 648.2C374.069 648.669 374.717 649.325 375.128 650.168C375.544 651.011 375.752 652.008 375.752 653.16C375.752 654.36 375.533 655.397 375.096 656.272C374.659 657.141 373.989 657.813 373.088 658.288C372.192 658.763 371.053 659 369.672 659H366.296V647.432ZM368.648 649.32V657.112H369.72C370.381 657.112 370.981 656.984 371.52 656.728C372.064 656.472 372.499 656.053 372.824 655.472C373.149 654.891 373.312 654.115 373.312 653.144C373.312 652.243 373.168 651.512 372.88 650.952C372.592 650.387 372.181 649.973 371.648 649.712C371.115 649.451 370.483 649.32 369.752 649.32H368.648ZM376.87 659V656.456H379.43V659H376.87Z" fill="#3E3E3E"/>
<rect x="116.25" y="762.25" width="195.5" height="48.5" rx="2.75" fill="#616161"/>
<path d="M204.482 780.432H206.818V792H204.714L199.218 784.04V792H196.89V780.432H199.202L204.482 788.088V780.432ZM210.811 788.4C210.805 788.821 210.872 789.189 211.011 789.504C211.149 789.813 211.349 790.053 211.611 790.224C211.877 790.389 212.197 790.472 212.571 790.472C212.971 790.472 213.32 790.387 213.619 790.216C213.923 790.045 214.133 789.765 214.251 789.376H216.355C216.264 789.963 216.029 790.464 215.651 790.88C215.277 791.296 214.824 791.613 214.291 791.832C213.757 792.051 213.203 792.16 212.627 792.16C211.811 792.16 211.091 791.989 210.467 791.648C209.848 791.301 209.365 790.813 209.019 790.184C208.672 789.555 208.499 788.813 208.499 787.96C208.499 787.133 208.656 786.389 208.971 785.728C209.285 785.061 209.741 784.536 210.339 784.152C210.941 783.763 211.664 783.568 212.507 783.568C213.349 783.568 214.056 783.747 214.627 784.104C215.203 784.456 215.635 784.949 215.923 785.584C216.216 786.213 216.363 786.941 216.363 787.768V788.4H210.811ZM210.803 787.008H214.179C214.179 786.677 214.117 786.373 213.995 786.096C213.872 785.819 213.685 785.6 213.435 785.44C213.189 785.28 212.88 785.2 212.507 785.2C212.144 785.2 211.835 785.288 211.579 785.464C211.328 785.635 211.136 785.859 211.003 786.136C210.869 786.413 210.803 786.704 210.803 787.008ZM225.448 792H223.008L221.032 789.304L219.048 792H216.6L219.784 787.688L216.88 783.728H219.32L221.04 786.048L222.752 783.728H225.2L222.272 787.688L225.448 792ZM231.681 785.352H229.841L229.857 789.76C229.857 789.963 229.881 790.115 229.929 790.216C229.982 790.312 230.062 790.376 230.169 790.408C230.281 790.435 230.422 790.448 230.593 790.448H231.705V791.888C231.598 791.936 231.43 791.981 231.201 792.024C230.977 792.067 230.662 792.088 230.257 792.088C229.531 792.088 228.969 791.995 228.569 791.808C228.174 791.621 227.899 791.36 227.745 791.024C227.59 790.688 227.513 790.299 227.513 789.856V785.352H226.169V783.728H227.593L228.177 781.232H229.841V783.72H231.681V785.352Z" fill="white"/>
<rect x="116.25" y="762.25" width="195.5" height="48.5" rx="2.75" stroke="#4A4A4A" stroke-width="2.5"/>
<path d="M103 241H37V287" stroke="#3E3E3E" stroke-width="7"/>
<path d="M326 555H392V509" stroke="#3E3E3E" stroke-width="7"/>
<path d="M103 555H37V509" stroke="#3E3E3E" stroke-width="7"/>
<path d="M326 238H392V284" stroke="#3E3E3E" stroke-width="7"/>
<path d="M214.5 445.875C254.679 445.875 287.25 413.304 287.25 373.125C287.25 332.946 254.679 300.375 214.5 300.375C174.321 300.375 141.75 332.946 141.75 373.125C141.75 413.304 174.321 445.875 214.5 445.875Z" stroke="#3E3E3E" stroke-width="18.1875" stroke-miterlimit="10"/>
<path d="M104.238 509.531C115.411 490.175 131.484 474.1 150.839 462.924C170.194 451.749 192.15 445.865 214.5 445.865C236.85 445.865 258.806 451.749 278.161 462.924C297.516 474.1 313.589 490.175 324.762 509.531" stroke="#3E3E3E" stroke-width="18.1875" stroke-linecap="round" stroke-linejoin="round"/>
<g clip-path="url(#clip0_138_125)">
<path d="M240.646 92.0177C240.549 91.6317 240.501 91.2208 240.501 90.785C240.501 89.1542 241.237 87.7352 242.71 86.5279C244.183 85.3207 247.194 83.8385 251.745 82.0814V80.7351C251.745 79.3192 251.565 78.3047 251.205 77.6916C250.845 77.0785 250.254 76.7719 249.432 76.7719C248.762 76.7719 248.206 76.971 247.763 77.3692C247.321 77.7674 247.1 78.2636 247.1 78.8578C247.1 79.1738 247.112 79.5436 247.138 79.9671C247.163 80.3905 247.176 80.6592 247.176 80.773C247.176 81.6958 246.919 82.4384 246.408 83.001C245.896 83.5636 245.216 83.8448 244.369 83.8448C243.598 83.8448 242.979 83.6015 242.511 83.1148C242.043 82.628 241.809 81.9865 241.809 81.1902C241.809 79.4709 242.625 78.0456 244.255 76.9141C245.886 75.7827 247.984 75.217 250.551 75.217C251.992 75.217 253.297 75.4004 254.466 75.767C255.636 76.1336 256.593 76.6645 257.339 77.3598C257.946 77.9286 258.376 78.5923 258.629 79.3508C258.881 80.1092 259.008 81.2533 259.008 82.783V88.1871C259.008 89.6914 259.125 90.7597 259.359 91.3917C259.592 92.0238 259.969 92.3399 260.487 92.3399C260.601 92.3399 260.714 92.3146 260.828 92.264C260.942 92.2134 261.062 92.1377 261.189 92.0364V93.269C260.683 93.9137 260.029 94.413 259.226 94.767C258.423 95.121 257.535 95.298 256.562 95.298C255.449 95.298 254.517 95.0389 253.765 94.5205C253.013 94.0022 252.46 93.2375 252.106 92.2262C251.145 93.326 250.137 94.1445 249.081 94.6817C248.026 95.2189 246.91 95.4876 245.734 95.4876C244.179 95.4876 242.918 95.0483 241.951 94.1697C241.629 93.8766 241.36 93.5556 241.145 93.2066C240.384 93.8039 239.157 94.4941 238.538 94.767C237.736 95.121 236.847 95.298 235.874 95.298C234.762 95.298 233.829 95.0389 233.077 94.5205C232.325 94.0022 231.772 93.2375 231.418 92.2262C230.457 93.326 229.449 94.1445 228.393 94.6817C227.338 95.2189 226.222 95.4876 225.047 95.4876C223.492 95.4876 222.231 95.0483 221.264 94.1697C220.297 93.2911 219.813 92.1629 219.813 90.785C219.813 89.1542 220.549 87.7352 222.022 86.5279C223.495 85.3207 226.507 83.8385 231.058 82.0814V80.7351C231.058 79.3192 230.878 78.3047 230.517 77.6916C230.157 77.0785 229.566 76.7719 228.744 76.7719C228.074 76.7719 227.518 76.971 227.076 77.3692C226.633 77.7674 226.412 78.2636 226.412 78.8578C226.412 79.1738 226.425 79.5436 226.45 79.9671C226.475 80.3905 226.488 80.6592 226.488 80.773C226.488 81.6958 226.232 82.4384 225.72 83.001C225.208 83.5636 224.528 83.8448 223.681 83.8448C222.91 83.8448 222.291 83.6015 221.823 83.1148C221.355 82.628 221.121 81.9865 221.121 81.1902C221.121 79.4709 221.937 78.0456 223.568 76.9141C225.198 75.7827 227.297 75.217 229.863 75.217C231.304 75.217 232.609 75.4004 233.779 75.767C234.948 76.1336 235.906 76.6645 236.652 77.3598C237.258 77.9286 237.688 78.5923 237.941 79.3508C238.194 80.1092 238.32 81.2533 238.32 82.783V88.1871C238.32 89.6914 238.437 90.7597 238.671 91.3917C238.905 92.0238 239.281 92.3399 239.799 92.3399C239.913 92.3399 240.027 92.3146 240.141 92.264C240.194 92.2404 240.414 92.1343 240.646 92.0177ZM182.778 94.6723L178.246 85.6652V90.8229C178.246 91.8215 178.423 92.5327 178.777 92.9562C179.131 93.3796 179.731 93.5913 180.578 93.5913H180.692V94.6723H168.499V93.5913H168.613C169.447 93.5913 170.045 93.3796 170.405 92.9562C170.765 92.5327 170.945 91.8215 170.945 90.8229V75.2549C170.945 74.6734 170.879 74.2532 170.746 73.9941C170.614 73.7348 170.313 73.4156 169.845 73.0364L167.798 71.3678C168.682 71.1023 169.915 70.6788 171.495 70.0972C173.075 69.5158 175.326 68.6562 178.246 67.5184V84.6222C179.902 83.3454 181.15 82.1919 181.991 81.1616C182.831 80.1314 183.252 79.2371 183.252 78.4786C183.252 78.074 183.097 77.7516 182.787 77.5115C182.477 77.2713 182.051 77.1512 181.507 77.1512H181.393V76.0704H191.254V77.1512H190.931C189.629 77.1512 188.403 77.4925 187.253 78.1751C186.102 78.8578 184.92 79.9449 183.707 81.4367L189.149 90.747C189.743 91.7837 190.318 92.5043 190.874 92.9087C191.429 93.312 192.122 93.5394 192.953 93.5909C193.751 93.5796 194.326 93.3681 194.676 92.9562C195.037 92.5327 195.217 91.8215 195.217 90.8229V82.783C195.217 82.2015 195.154 81.7811 195.027 81.522C194.901 81.2629 194.604 80.95 194.136 80.5833L192.069 78.9147C193.573 78.4343 195.198 77.8718 196.942 77.227C198.687 76.5823 200.545 75.8618 202.517 75.0653V90.8229C202.517 91.7963 202.691 92.4947 203.039 92.9182C203.386 93.3416 203.965 93.5661 204.774 93.5913H204.811C205.645 93.5913 206.242 93.3796 206.603 92.9562C206.963 92.5327 207.143 91.8215 207.143 90.8229V83.6742C207.143 83.0673 207.067 82.6186 206.916 82.3279C206.764 82.0371 206.479 81.7526 206.062 81.4745L203.692 79.8059C204.931 79.376 206.359 78.7851 207.977 78.0329C209.596 77.2807 211.58 76.2916 213.932 75.0653V78.4027C214.564 77.3408 215.249 76.5445 215.989 76.0135C216.728 75.4825 217.522 75.217 218.369 75.217C219.304 75.217 220.056 75.4951 220.625 76.0514C221.194 76.6076 221.478 77.3408 221.478 78.251C221.478 79.0474 221.241 79.6858 220.767 80.1661C220.293 80.6466 219.664 80.8867 218.881 80.8867C218.173 80.8867 217.493 80.6023 216.842 80.0334C216.191 79.4645 215.777 79.1802 215.6 79.1802C215.183 79.1802 214.886 79.4583 214.709 80.0145C214.532 80.5707 214.444 81.563 214.444 82.9916V90.8229C214.444 91.8089 214.643 92.5169 215.041 92.9466C215.439 93.3765 216.093 93.5913 217.003 93.5913H217.117V94.6723H182.778ZM251.745 83.4845C250.608 83.9396 249.742 84.657 249.148 85.6367C248.553 86.6164 248.256 87.8143 248.256 89.2301C248.256 90.0392 248.418 90.6839 248.74 91.1642C249.062 91.6446 249.483 91.8848 250.001 91.8848C250.671 91.8848 251.129 91.6193 251.376 91.0883C251.622 90.5574 251.745 89.2301 251.745 87.1063V83.4845ZM231.058 83.4845C229.92 83.9396 229.054 84.657 228.46 85.6367C227.866 86.6164 227.569 87.8143 227.569 89.2301C227.569 90.0392 227.73 90.6839 228.052 91.1642C228.374 91.6446 228.795 91.8848 229.313 91.8848C229.983 91.8848 230.441 91.6193 230.688 91.0883C230.934 90.5574 231.058 89.2301 231.058 87.1063V83.4845ZM194.705 71.3298C194.705 70.268 195.075 69.3672 195.814 68.6277C196.554 67.8882 197.454 67.5184 198.516 67.5184C199.591 67.5184 200.495 67.8882 201.228 68.6277C201.961 69.3672 202.328 70.268 202.328 71.3298C202.328 72.3917 201.958 73.2923 201.218 74.0319C200.479 74.7714 199.578 75.1412 198.516 75.1412C197.454 75.1412 196.554 74.7746 195.814 74.0414C195.075 73.3082 194.705 72.4043 194.705 71.3298Z" fill="#3E3E3E"/>
</g>
<defs>
<clipPath id="clip0_138_125">
<rect width="119" height="119" fill="white" transform="translate(155 22)"/>
</clipPath>
</defs>
</svg>
