<svg width="1197" height="1027" viewBox="0 0 1197 1027" fill="none" xmlns="http://www.w3.org/2000/svg">
<path fill-rule="evenodd" clip-rule="evenodd" d="M598.442 855.242C787.305 855.242 940.408 702.139 940.408 513.276C940.408 324.413 787.305 171.31 598.442 171.31C409.579 171.31 256.476 324.413 256.476 513.276C256.476 702.139 409.579 855.242 598.442 855.242ZM598.442 1026.23C881.736 1026.23 1111.39 796.57 1111.39 513.276C1111.39 229.982 881.736 0.326416 598.442 0.326416C315.148 0.326416 85.4924 229.982 85.4924 513.276C85.4924 796.57 315.148 1026.23 598.442 1026.23Z" fill="#00B7BC"/>
<rect x="-6.10352e-05" y="413.536" width="1196.88" height="227.978" fill="#25358A"/>
<path d="M501.675 514.137C501.675 506.443 503.48 500.102 507.089 495.115C510.699 490.081 515.591 486.352 521.766 483.93C527.987 481.508 534.922 480.297 542.568 480.297C550.5 480.297 557.601 481.27 563.87 483.218C570.14 485.165 575.079 488.229 578.689 492.408C582.346 496.54 584.174 501.883 584.174 508.438C584.174 513.472 582.75 517.889 579.9 521.689C577.098 525.489 572.372 528.505 565.722 530.737C569.237 531.687 572.562 533.183 575.696 535.225C578.831 537.267 581.396 539.927 583.391 543.204C585.433 546.482 586.454 550.471 586.454 555.173C586.454 560.398 585.267 564.957 582.892 568.852C580.565 572.746 577.335 576 573.203 578.612C569.118 581.177 564.393 583.1 559.026 584.383C553.706 585.665 548.054 586.306 542.07 586.306C533.283 586.306 525.874 584.929 519.842 582.174C513.858 579.42 509.298 575.477 506.163 570.348C503.029 565.218 501.438 559.044 501.39 551.825H524.473C525.518 557.477 527.655 561.419 530.885 563.651C534.162 565.883 537.938 567 542.212 567C546.059 567 549.36 566.453 552.115 565.361C554.87 564.269 556.96 562.772 558.384 560.873C559.857 558.973 560.593 556.764 560.593 554.247C560.593 551.872 559.881 549.782 558.456 547.978C557.078 546.125 555.107 544.677 552.542 543.632C549.978 542.587 546.986 541.993 543.566 541.851L533.521 541.352V522.401L542.426 521.831C545.751 521.641 548.6 521.024 550.975 519.979C553.397 518.934 555.25 517.533 556.532 515.776C557.814 514.018 558.456 511.929 558.456 509.506C558.456 507.227 557.696 505.279 556.176 503.665C554.704 502.05 552.732 500.839 550.263 500.031C547.793 499.176 545.038 498.749 541.999 498.749C538.911 498.749 536.109 499.224 533.592 500.174C531.122 501.124 529.104 502.715 527.536 504.947C525.969 507.179 525.019 510.243 524.686 514.137H501.675ZM602.935 481.722C603.6 481.722 605.286 481.722 607.993 481.722C610.748 481.722 613.93 481.722 617.539 481.722C621.197 481.674 624.782 481.674 628.297 481.722C631.812 481.722 634.685 481.769 636.918 481.864C649.361 482.244 659.502 484.595 667.338 488.917C675.223 493.192 680.993 499.081 684.65 506.585C688.355 514.042 690.207 522.781 690.207 532.803C690.207 543.157 688.26 552.228 684.365 560.018C680.518 567.807 674.629 573.886 666.697 578.256C658.765 582.578 648.673 584.739 636.419 584.739H602.935V481.722ZM627.3 501.029V565.432H637.131C641.833 565.432 646.298 564.364 650.525 562.226C654.752 560.089 658.195 556.622 660.855 551.825C663.562 547.028 664.916 540.592 664.916 532.518C664.916 525.346 663.776 519.433 661.496 514.778C659.217 510.124 656.011 506.68 651.879 504.448C647.746 502.168 642.878 501.029 637.274 501.029H627.3Z" fill="white"/>
</svg>
