<svg width="1197" height="1027" viewBox="0 0 1197 1027" fill="none" xmlns="http://www.w3.org/2000/svg">
<path fill-rule="evenodd" clip-rule="evenodd" d="M598.442 855.537C787.305 855.537 940.408 702.433 940.408 513.571C940.408 324.708 787.305 171.604 598.442 171.604C409.579 171.604 256.475 324.708 256.475 513.571C256.475 702.433 409.579 855.537 598.442 855.537ZM598.442 1026.52C881.736 1026.52 1111.39 796.865 1111.39 513.571C1111.39 230.276 881.736 0.621094 598.442 0.621094C315.148 0.621094 85.4923 230.276 85.4923 513.571C85.4923 796.865 315.148 1026.52 598.442 1026.52Z" fill="#6564B2"/>
<rect x="0.000244141" y="413.831" width="1196.88" height="227.978" fill="#25358A"/>
<path d="M497.328 585.034L533.947 482.017H559.095L595.785 585.034H571.705L564.082 563.091H529.316L521.55 585.034H497.328ZM534.588 542.217H558.525L546.628 505.313L534.588 542.217ZM692.092 585.034H667.156L651.269 547.418H633.601V585.034H609.307V482.017H654.404C663.001 482.017 669.959 483.418 675.278 486.22C680.598 488.975 684.492 492.774 686.962 497.619C689.432 502.416 690.667 507.878 690.667 514.005C690.667 519.372 689.907 523.931 688.387 527.683C686.867 531.388 684.801 534.523 682.189 537.087C679.624 539.605 676.727 541.742 673.497 543.499L692.092 585.034ZM651.056 529.108C655.615 529.108 659.272 527.66 662.027 524.762C664.829 521.865 666.23 518.422 666.23 514.432C666.23 510.252 664.805 506.833 661.956 504.173C659.106 501.513 655.71 500.183 651.768 500.183H633.601V529.108H651.056Z" fill="white"/>
</svg>
