<svg width="1197" height="1027" viewBox="0 0 1197 1027" fill="none" xmlns="http://www.w3.org/2000/svg">
<path fill-rule="evenodd" clip-rule="evenodd" d="M598.442 855.833C787.304 855.833 940.408 702.729 940.408 513.866C940.408 325.004 787.304 171.9 598.442 171.9C409.579 171.9 256.475 325.004 256.475 513.866C256.475 702.729 409.579 855.833 598.442 855.833ZM598.442 1026.82C881.736 1026.82 1111.39 797.161 1111.39 513.866C1111.39 230.572 881.736 0.916992 598.442 0.916992C315.147 0.916992 85.4921 230.572 85.4921 513.866C85.4921 797.161 315.147 1026.82 598.442 1026.82Z" fill="#E6A0BA"/>
<rect x="-0.00012207" y="414.127" width="1196.88" height="227.978" fill="#25358A"/>
<path d="M205.873 585.33V482.312H245.128C259.092 482.312 269.351 484.64 275.905 489.294C282.459 493.949 285.737 500.669 285.737 509.456C285.737 514.348 284.478 518.67 281.961 522.422C279.491 526.127 275.003 529.475 268.496 532.467C272.865 533.655 276.356 535.222 278.968 537.169C281.628 539.117 283.599 541.23 284.882 543.51C286.211 545.79 287.09 548.117 287.518 550.492C287.945 552.867 288.159 555.146 288.159 557.331C288.159 566.878 284.953 573.931 278.541 578.49C272.129 583.05 261.656 585.33 247.123 585.33H205.873ZM230.167 566.878H247.907C253.036 566.878 256.907 565.714 259.519 563.387C262.179 561.012 263.509 558.091 263.509 554.624C263.509 552.154 262.868 550.041 261.585 548.283C260.35 546.479 258.617 545.101 256.384 544.151C254.2 543.154 251.659 542.655 248.761 542.655H230.167V566.878ZM230.167 523.705H248.761C250.709 523.705 252.49 523.467 254.105 522.992C255.719 522.517 257.144 521.805 258.379 520.855C259.614 519.905 260.588 518.741 261.3 517.364C262.013 515.939 262.369 514.324 262.369 512.519C262.369 508.767 260.968 505.87 258.165 503.828C255.363 501.785 251.849 500.764 247.622 500.764H230.167V523.705ZM389.539 585.33H364.604L348.716 547.713H331.048V585.33H306.754V482.312H351.851C360.448 482.312 367.406 483.713 372.725 486.516C378.045 489.27 381.939 493.07 384.409 497.915C386.879 502.712 388.114 508.174 388.114 514.3C388.114 519.667 387.354 524.227 385.834 527.979C384.314 531.684 382.248 534.818 379.636 537.383C377.071 539.9 374.174 542.038 370.944 543.795L389.539 585.33ZM348.503 529.404C353.062 529.404 356.719 527.955 359.474 525.058C362.276 522.161 363.677 518.718 363.677 514.728C363.677 510.548 362.253 507.129 359.403 504.469C356.553 501.809 353.157 500.479 349.215 500.479H331.048V529.404H348.503ZM400.851 585.33L437.47 482.312H462.618L499.309 585.33H475.228L467.605 563.387H432.839L425.073 585.33H400.851ZM438.111 542.513H462.048L450.151 505.609L438.111 542.513ZM580.725 482.312H604.947V585.33H583.076L537.124 519.216V585.33H512.83V482.312H537.124L580.725 545.149V482.312ZM626.095 482.312C626.76 482.312 628.446 482.312 631.154 482.312C633.908 482.312 637.091 482.312 640.7 482.312C644.357 482.265 647.943 482.265 651.458 482.312C654.973 482.312 657.846 482.36 660.078 482.455C672.522 482.835 682.662 485.186 690.499 489.508C698.383 493.782 704.154 499.672 707.811 507.176C711.516 514.633 713.368 523.372 713.368 533.394C713.368 543.748 711.421 552.819 707.526 560.608C703.679 568.398 697.79 574.477 689.858 578.847C681.926 583.169 671.833 585.33 659.58 585.33H626.095V482.312ZM650.46 501.619V566.023H660.292C664.994 566.023 669.459 564.954 673.686 562.817C677.913 560.68 681.356 557.212 684.016 552.415C686.723 547.618 688.077 541.183 688.077 533.109C688.077 525.937 686.937 520.024 684.657 515.369C682.377 510.715 679.171 507.271 675.039 505.039C670.907 502.759 666.039 501.619 660.434 501.619H650.46ZM730.455 482.312H754.749V585.33H730.455V482.312ZM843.712 482.312H867.934V585.33H846.063L800.111 519.216V585.33H775.817V482.312H800.111L843.712 545.149V482.312ZM932.54 586.755C922.946 586.755 914.563 584.57 907.392 580.2C900.267 575.831 894.734 569.704 890.792 561.82C886.897 553.935 884.95 544.721 884.95 534.177C884.95 523.348 887.016 513.944 891.148 505.965C895.28 497.986 901.027 491.811 908.389 487.442C915.751 483.072 924.276 480.888 933.965 480.888C940.472 480.888 946.361 481.909 951.633 483.951C956.953 485.946 961.512 488.677 965.312 492.144C969.159 495.611 972.128 499.553 974.217 503.97C976.307 508.34 977.423 512.876 977.566 517.578H952.132C951.467 514.538 950.327 511.783 948.712 509.313C947.145 506.796 945.055 504.801 942.443 503.329C939.878 501.857 936.862 501.121 933.395 501.121C929.406 501.121 925.748 502.165 922.424 504.255C919.099 506.345 916.439 509.765 914.445 514.514C912.45 519.216 911.452 525.533 911.452 533.465C911.452 540.019 912.117 545.386 913.447 549.566C914.825 553.745 916.629 556.999 918.862 559.326C921.094 561.653 923.564 563.292 926.271 564.242C928.978 565.144 931.685 565.595 934.393 565.595C936.91 565.595 939.166 565.192 941.161 564.384C943.203 563.577 944.96 562.532 946.433 561.25C947.953 559.967 949.187 558.566 950.137 557.046C951.087 555.526 951.705 554.007 951.99 552.487L953.058 547.5H933.395V530.971L978.563 531.185V585.33H962.32V572.933C960.61 574.976 958.497 577.066 955.979 579.203C953.51 581.34 950.399 583.145 946.646 584.617C942.894 586.042 938.192 586.755 932.54 586.755Z" fill="white"/>
</svg>
