<svg width="80" height="80" viewBox="0 0 80 80" fill="none" xmlns="http://www.w3.org/2000/svg">
<path d="M53.75 11.25H26.25C17.9657 11.25 11.25 17.9657 11.25 26.25V53.75C11.25 62.0343 17.9657 68.75 26.25 68.75H53.75C62.0343 68.75 68.75 62.0343 68.75 53.75V26.25C68.75 17.9657 62.0343 11.25 53.75 11.25Z" fill="#2F3556" stroke="#2F3556" stroke-width="5" stroke-linecap="round" stroke-linejoin="round"/>
<path d="M40 52.5C46.9036 52.5 52.5 46.9036 52.5 40C52.5 33.0964 46.9036 27.5 40 27.5C33.0964 27.5 27.5 33.0964 27.5 40C27.5 46.9036 33.0964 52.5 40 52.5Z" stroke="#2F3556" stroke-width="5" stroke-miterlimit="10"/>
<path d="M40 52.5C46.9036 52.5 52.5 46.9036 52.5 40C52.5 33.0964 46.9036 27.5 40 27.5C33.0964 27.5 27.5 33.0964 27.5 40C27.5 46.9036 33.0964 52.5 40 52.5Z" stroke="white" stroke-width="5" stroke-miterlimit="10"/>
<path d="M56.25 27.5C58.3211 27.5 60 25.8211 60 23.75C60 21.6789 58.3211 20 56.25 20C54.1789 20 52.5 21.6789 52.5 23.75C52.5 25.8211 54.1789 27.5 56.25 27.5Z" fill="white"/>
</svg>
