<svg width="2504" height="2504" viewBox="0 0 2504 2504" fill="none" xmlns="http://www.w3.org/2000/svg">
<rect x="12" y="12" width="2480" height="2480" rx="181.957" fill="#FAFAFF" stroke="#CECEE2" stroke-width="23"/>
<path d="M2291.87 1264.16V1339.34C2291.87 1358.87 2293.58 1372.47 2295.7 1380.95V1383.08C2269.79 1391.56 2229.88 1398.36 2200.57 1398.36C2089.71 1398.36 2017.96 1333.79 2017.96 1234.86C2017.96 1135.93 2085.91 1069.65 2190.81 1069.65C2222.66 1069.65 2254.93 1075.58 2275.34 1084.93V1150.34H2273.21C2252.83 1131.22 2222.66 1120.19 2189.97 1120.19C2123.72 1120.19 2085.08 1160.97 2085.08 1232.73C2085.08 1304.49 2127.11 1348.27 2200.16 1348.27C2209.93 1348.27 2219.69 1347.43 2229.04 1345.3V1266.74C2200.16 1266.74 2184.01 1268.87 2169.15 1271.83H2167.02V1211.52H2169.15C2184.42 1214.48 2201.41 1216.61 2232.42 1216.61H2297V1218.74C2293.61 1227.22 2291.9 1244.66 2291.9 1264.19L2291.87 1264.16ZM1860.2 1346.56H1824.09V1254.39H1860.2C1894.17 1254.39 1912.44 1256.52 1929.43 1260.33H1931.56V1198.3H1929.43C1912.44 1202.14 1894.17 1204.23 1860.2 1204.23H1824.09V1121.42H1861.03C1900.1 1121.42 1929.41 1125.67 1947.68 1135.02H1949.4V1074.71H1746.37V1076.84C1754.01 1089.99 1759.1 1116.75 1759.1 1144.37V1323.6C1759.1 1351.2 1754.01 1377.95 1746.37 1391.14V1393.27H1960.42V1328.7H1958.29C1934.08 1341.01 1900.94 1346.52 1860.2 1346.52V1346.56ZM1591.96 1208.1C1550.76 1191.95 1527.84 1183.89 1527.84 1156.72C1527.84 1132.09 1545.67 1118.91 1577.1 1118.91C1603.44 1118.91 1625.94 1128.25 1649.72 1147.79H1651.85V1083.22C1631.03 1074.29 1605.14 1069.62 1579.23 1069.62C1507.02 1069.62 1462.85 1106.56 1462.85 1166.87C1462.85 1227.19 1504.05 1242.89 1549.09 1260.29C1590.28 1276.44 1613.2 1284.5 1613.2 1311.68C1613.2 1336.3 1594.93 1349.04 1561.82 1349.04C1528.71 1349.04 1501.92 1337.56 1471.36 1309.97H1469.24V1379.63C1494.74 1391.53 1527.84 1398.33 1559.27 1398.33C1632.74 1398.33 1678.19 1361.38 1678.19 1301.49C1678.19 1241.6 1636.99 1225.48 1591.96 1208.07V1208.1ZM1302.12 1346.56H1273.24V1144.4C1273.24 1116.81 1278.33 1090.05 1285.97 1076.87V1074.74H1195.52V1076.87C1203.16 1090.02 1208.25 1116.78 1208.25 1144.4V1323.64C1208.25 1351.23 1203.16 1377.99 1195.52 1391.17V1393.3H1402.35V1328.31H1400.22C1375.59 1340.62 1342.87 1346.59 1302.12 1346.59V1346.56ZM302.194 1450.68V1451.13C305.579 1451 308.996 1451 312.38 1451.13C321.858 1451.45 328.305 1446.04 328.305 1436.72C328.305 1428.82 323.244 1423.41 314.734 1422.99C310.543 1422.79 306.352 1422.76 302.162 1422.92V1423.37C302.967 1424.57 303.419 1426.6 303.419 1428.89V1445.17C303.419 1447.42 302.967 1449.49 302.162 1450.74L302.194 1450.68ZM308.963 1427.37C310.801 1427.37 312.638 1427.44 314.476 1427.53C319.505 1427.76 322.696 1431.5 322.696 1436.85C322.696 1443.07 318.795 1446.78 312.864 1446.55C311.575 1446.52 310.285 1446.49 308.996 1446.46V1427.37H308.963ZM346.067 1427.34V1426.89C343.392 1426.37 340.716 1425.89 338.04 1425.47V1425.92C338.846 1427.28 339.298 1429.4 339.298 1431.66V1447.94C339.298 1450.2 338.846 1452.16 338.04 1453.26V1453.71C340.716 1454.13 343.392 1454.61 346.067 1455.13V1454.68C345.261 1453.29 344.81 1451.16 344.81 1448.91V1432.63C344.81 1430.37 345.261 1428.4 346.067 1427.34ZM371.47 1436.85C373.952 1437.56 376.272 1439.17 378.11 1441.52L378.529 1441.46V1435.66C376.885 1434.11 375.015 1433.08 372.533 1432.37C363.12 1429.66 355.738 1435.27 355.738 1444.75C355.738 1452.9 360.058 1458.54 367.987 1460.74C371.921 1461.83 376.047 1461.7 378.497 1460.29V1454.97L378.11 1454.84C375.692 1456.55 372.05 1457.09 368.954 1456.26C364.313 1454.93 361.379 1450.78 361.379 1445.42C361.379 1438.65 365.473 1435.14 371.405 1436.85H371.47ZM401.158 1445.26C404.285 1446.1 406.091 1447 407.67 1448.36H408.057V1442.52C400.192 1440.46 392.358 1438.3 384.492 1436.17V1442.01L384.879 1442.23C386.427 1441.69 388.264 1441.78 391.391 1442.62L393.55 1443.2V1460.9C393.55 1463.15 393.1 1465.09 392.294 1466.09V1466.54C394.969 1467.28 397.644 1467.99 400.321 1468.73V1468.28C399.515 1466.83 399.063 1464.67 399.063 1462.41V1444.72L401.223 1445.3L401.158 1445.26ZM423.659 1446.84V1446.39C420.984 1445.78 418.308 1445.13 415.632 1444.46V1444.91C416.438 1446.33 416.89 1448.49 416.89 1450.74V1463.9C416.89 1470.31 420.307 1474.7 426.626 1476.11C434.812 1477.95 440.423 1473.86 440.423 1466.47V1455.84C440.423 1453.58 440.874 1451.61 441.679 1450.52C441.679 1450.36 441.679 1450.23 441.679 1450.07C439.132 1449.62 436.586 1449.13 434.039 1448.62V1449.07C434.845 1450.45 435.297 1452.58 435.297 1454.87V1466.06C435.297 1470.54 432.815 1472.34 427.818 1471.25C424.175 1470.44 422.402 1468.05 422.402 1464.19V1452.07C422.402 1449.81 422.853 1447.87 423.659 1446.81V1446.84ZM451.899 1479.47V1479.92C454.445 1480.24 456.992 1480.53 459.538 1480.79V1480.34C458.732 1479.05 458.281 1476.95 458.281 1474.7V1461.25C460.796 1465.06 463.309 1468.8 465.824 1472.47C465.922 1472.6 466.114 1472.6 466.212 1472.47C468.725 1469.09 471.24 1465.64 473.754 1462.15V1475.57C473.754 1477.82 473.302 1479.89 472.498 1481.08V1481.53C475.173 1481.59 477.848 1481.53 480.524 1481.46V1481.01C479.718 1479.82 479.267 1477.79 479.267 1475.5V1459.22C479.267 1456.96 479.718 1454.9 480.524 1453.64V1453.19C478.332 1453.26 476.14 1453.29 473.948 1453.29C471.466 1456.84 468.984 1460.35 466.469 1463.8C463.987 1460.09 461.505 1456.32 458.99 1452.48C456.637 1452.26 454.251 1452 451.899 1451.68V1452.13C452.705 1453.45 453.155 1455.55 453.155 1457.84V1474.12C453.155 1476.37 452.705 1478.37 451.899 1479.5V1479.47ZM749.534 1471.47C756.561 1471.25 760.494 1467.47 760.494 1461.64C760.494 1455.51 756.626 1452.97 749.566 1453.19C745.698 1453.29 741.83 1453.26 737.929 1453.06V1453.52C738.735 1454.77 739.186 1456.84 739.186 1459.09V1475.37C739.186 1477.63 738.735 1479.66 737.929 1480.85V1481.3C740.605 1481.43 743.28 1481.5 745.955 1481.46V1481.01C745.149 1479.79 744.699 1477.76 744.699 1475.47V1471.5C746.31 1471.5 747.922 1471.5 749.534 1471.44V1471.47ZM744.699 1457.84C746.245 1457.84 747.826 1457.83 749.373 1457.77C752.822 1457.67 754.821 1459.32 754.821 1462.38C754.821 1465.19 753.08 1466.83 749.759 1466.93C748.052 1466.99 746.375 1466.99 744.666 1466.99V1457.84H744.699ZM782.963 1477.56C786.026 1476.98 789.055 1476.34 792.118 1475.69V1475.24C790.86 1474.34 789.604 1472.41 788.218 1469.83C784.704 1463.25 781.221 1456.58 777.709 1449.87C777.225 1449.97 776.742 1450.03 776.257 1450.13C773.002 1458 769.747 1465.77 766.49 1473.5C765.232 1476.5 764.008 1478.85 762.815 1480.14V1480.59C765.555 1480.3 768.295 1479.98 771.036 1479.6V1479.18C770.263 1478.05 770.23 1475.76 771.197 1473.44C775.001 1472.89 778.836 1472.24 782.64 1471.54C783.672 1473.5 783.704 1475.82 782.995 1477.18V1477.6L782.963 1477.56ZM773.066 1468.67L776.644 1459.8L780.513 1467.41C778.03 1467.86 775.548 1468.28 773.099 1468.64L773.066 1468.67ZM808.687 1447.58C811.782 1446.71 815.424 1447.29 817.842 1448.97L818.229 1448.84V1443.52C815.812 1442.14 811.685 1441.98 807.752 1443.07C799.984 1445.26 795.503 1451.16 795.503 1459.51C795.503 1468.89 802.788 1474.21 812.298 1471.44C814.78 1470.7 816.649 1469.7 818.229 1468.15V1462.35L817.809 1462.28C815.94 1464.64 813.651 1466.25 811.169 1466.99C805.303 1468.7 801.144 1464.96 801.144 1458.06C801.144 1452.81 803.981 1448.94 808.72 1447.58H808.687ZM840.826 1439.4C843.954 1438.56 845.759 1438.49 847.338 1439.04L847.725 1438.85V1433.01C839.86 1435.05 832.026 1437.2 824.161 1439.36V1445.2H824.547C826.095 1443.81 827.932 1442.91 831.059 1442.07L833.22 1441.49V1459.19C833.22 1461.45 832.768 1463.61 831.962 1465.06V1465.51C834.637 1464.77 837.312 1464.06 839.989 1463.35V1462.9C839.183 1461.9 838.731 1459.96 838.731 1457.71V1440.01L840.89 1439.43L840.826 1439.4ZM870.033 1456.77C876.384 1455.45 880.091 1451 880.091 1444.43V1431.79C880.091 1429.53 880.542 1427.4 881.348 1426.05V1425.6C878.8 1426.02 876.254 1426.5 873.707 1426.99V1427.44C874.513 1428.5 874.965 1430.47 874.965 1432.72V1445.1C874.965 1448.94 873.321 1451 869.742 1451.77C864.777 1452.81 862.102 1451 862.102 1446.49V1435.5C862.102 1433.24 862.554 1431.08 863.36 1429.66V1429.21C860.683 1429.82 858.008 1430.47 855.333 1431.11V1431.56C856.139 1432.59 856.591 1434.53 856.591 1436.79V1447.94C856.591 1455.1 861.974 1458.51 870.033 1456.8V1456.77ZM891.567 1451.9V1452.36C894.113 1452.03 896.66 1451.77 899.206 1451.58V1451.13C898.4 1449.97 897.949 1447.97 897.949 1445.71V1432.27C900.464 1435.59 902.977 1438.94 905.492 1442.39C905.621 1442.39 905.749 1442.39 905.88 1442.39C908.393 1438.75 910.908 1435.17 913.422 1431.66V1445.07C913.422 1447.33 912.972 1449.39 912.166 1450.61V1451.07C914.841 1451.07 917.516 1451.1 920.192 1451.23V1450.78C919.386 1449.52 918.935 1447.46 918.935 1445.2V1428.92C918.935 1426.66 919.386 1424.63 920.192 1423.44V1422.99C918 1422.89 915.808 1422.83 913.616 1422.83C911.134 1426.41 908.652 1430.02 906.137 1433.72C903.655 1430.24 901.172 1426.82 898.659 1423.47C896.305 1423.66 893.919 1423.92 891.567 1424.21V1424.66C892.373 1425.79 892.823 1427.79 892.823 1430.05V1446.33C892.823 1448.58 892.373 1450.68 891.567 1452V1451.9ZM560.115 1484.49C557.633 1480.47 555.151 1476.44 552.669 1472.34C550.122 1471.83 547.607 1471.28 545.093 1470.7V1471.15C545.899 1472.57 546.35 1474.7 546.35 1476.98V1493.26C546.35 1495.52 545.899 1497.49 545.093 1498.52V1498.97C547.64 1499.55 550.153 1500.1 552.7 1500.61V1500.16C551.894 1498.78 551.444 1496.65 551.444 1494.36V1480.92C553.957 1484.98 556.472 1489.01 558.986 1493.01L559.373 1493.07C561.888 1490.01 564.402 1486.88 566.917 1483.75V1497.16C566.917 1499.42 566.465 1501.42 565.659 1502.52V1502.97C568.335 1503.39 571.042 1503.77 573.719 1504.13V1503.68C572.913 1502.35 572.461 1500.23 572.461 1497.97V1481.69C572.461 1479.43 572.913 1477.43 573.719 1476.31V1475.86C571.687 1475.6 569.656 1475.31 567.626 1475.02C565.111 1478.21 562.629 1481.4 560.146 1484.53L560.115 1484.49ZM595.091 1501.58C593.738 1501.51 592.352 1501.42 590.997 1501.32V1493.59C592.222 1493.68 593.415 1493.75 594.639 1493.81C597.445 1493.97 599.024 1494.2 600.443 1494.68L600.861 1494.58V1488.94L600.443 1488.81C599.056 1489.17 597.476 1489.3 594.639 1489.14C593.415 1489.07 592.222 1488.98 590.997 1488.91V1482.01C592.352 1482.11 593.738 1482.21 595.091 1482.27C598.25 1482.43 600.474 1482.88 602.054 1483.75L602.44 1483.66V1478.11C596.348 1477.92 590.255 1477.56 584.195 1476.98V1477.43C585.034 1478.72 585.485 1480.82 585.485 1483.08V1499.36C585.485 1501.61 585.034 1503.61 584.195 1504.77V1505.22C590.61 1505.8 597.026 1506.19 603.441 1506.38V1500.45L603.02 1500.32C600.958 1501.42 598.412 1501.77 595.124 1501.58H595.091ZM613.336 1496.74C613.336 1503.26 617.818 1507.25 625.167 1506.9C632.388 1506.54 637.095 1501.74 637.095 1495.1V1483.11C637.095 1480.85 637.546 1478.76 638.384 1477.47V1477.02C635.806 1477.24 633.226 1477.47 630.647 1477.63V1478.08C631.486 1479.24 631.938 1481.27 631.938 1483.53V1495.68C631.938 1499.58 629.81 1501.61 625.426 1501.84C621.137 1502.03 618.881 1500.03 618.881 1496.1V1484.17C618.881 1481.92 619.332 1479.85 620.171 1478.6V1478.14C617.463 1478.24 614.755 1478.27 612.047 1478.27V1478.72C612.885 1479.95 613.336 1481.98 613.336 1484.27V1496.78V1496.74ZM656.372 1502.55C655.566 1501.45 655.114 1499.48 655.114 1497.2V1483.75C657.629 1486.91 660.143 1490.04 662.658 1493.13L663.045 1493.07C665.559 1489.07 668.074 1485.08 670.587 1481.01V1494.42C670.587 1496.68 670.136 1498.84 669.33 1500.23V1500.68C672.006 1500.13 674.65 1499.55 677.325 1498.94V1498.49C676.519 1497.45 676.068 1495.52 676.068 1493.23V1476.95C676.068 1474.7 676.519 1472.53 677.325 1471.12V1470.67C675.036 1471.18 672.748 1471.7 670.459 1472.18C667.977 1476.27 665.495 1480.34 663.012 1484.37C660.53 1481.24 658.015 1478.08 655.533 1474.89C653.277 1475.24 651.02 1475.57 648.732 1475.86V1476.31C649.57 1477.43 649.989 1479.4 649.989 1481.69V1497.97C649.989 1500.23 649.538 1502.35 648.732 1503.68V1504.13C651.31 1503.8 653.857 1503.42 656.436 1503.03V1502.58L656.372 1502.55ZM921.674 1411.8C928.09 1412.06 932.377 1412.64 938.792 1413.87V1464.73C866.294 1451.16 793.794 1504.06 721.295 1490.49V1439.62C765.878 1447.97 810.139 1431.27 854.72 1420.25C854.623 1419.18 854.656 1416.44 854.785 1415.03C813.62 1425.21 772.422 1440.27 731.257 1435.85V1431.05C731.257 1425.63 724.583 1421.38 707.53 1426.12C694.829 1429.63 683.193 1436.4 683.193 1446.26V1452.74C635.934 1464.73 586.42 1464.73 539.162 1452.74V1446.26C539.162 1436.4 527.524 1429.63 514.823 1426.12C497.77 1421.38 491.098 1425.6 491.098 1431.05V1435.85C449.931 1440.27 408.735 1425.18 367.568 1415.03C367.697 1416.48 367.73 1419.18 367.633 1420.25C412.216 1431.27 456.476 1447.97 501.058 1439.62V1490.49C428.559 1504.06 356.061 1451.16 283.561 1464.73V1413.87C289.976 1412.67 294.264 1412.06 300.679 1411.8C299.196 1409.96 298.132 1408.13 297.423 1406.77C290.395 1407.22 285.431 1408.1 278.404 1409.74V1470.99C354.352 1453.39 430.268 1512.19 506.216 1494.58V1486.98C511.019 1487.23 515.693 1488.56 520.722 1491.46V1508.7C579.489 1527.79 642.801 1527.79 701.567 1508.7V1491.46C706.595 1488.59 711.302 1487.23 716.072 1486.98V1494.62C792.022 1512.22 867.937 1453.42 943.885 1471.02V1409.77C936.859 1408.13 931.894 1407.26 924.867 1406.81C924.156 1408.16 923.093 1410 921.61 1411.83L921.674 1411.8ZM696.571 1505.13C640.899 1522.11 581.456 1522.11 525.783 1505.13V1454.19C581.456 1471.18 640.899 1471.18 696.571 1454.19V1505.13ZM908.78 1014.75C905.847 1011.59 902.687 1008.63 899.335 1005.92L892.663 1012.88C890.566 1011.08 888.31 1009.37 885.925 1007.76L890.825 999.535C886.279 996.44 879.059 992.153 874.223 989.639L869.323 997.859C866.777 996.537 864.197 995.377 861.619 994.377L864.585 985.19C859.202 982.966 853.593 981.193 847.887 980L844.534 1007.85C856.686 1008.85 877.383 1019.65 880.348 1021.2C892.533 1020.88 897.014 1020.49 908.813 1014.78L908.78 1014.75ZM753.016 1260.87C751.63 1258.71 747.051 1257.87 745.182 1259.13C737.22 1264.48 750.727 1276.02 760.945 1271.87C754.692 1267.45 754.079 1262.48 753.016 1260.84V1260.87ZM737.284 1312.84C739.089 1314.74 742.893 1310.07 743.699 1307.23C744.343 1304.91 741.83 1303.65 741.83 1303.65C738.445 1301.46 735.318 1300.68 732.577 1300.68C725.389 1300.68 720.844 1306.16 720.844 1306.16C725.647 1305.49 732.127 1307.49 737.253 1312.87L737.284 1312.84ZM738.347 1338.01C739.186 1338.3 739.573 1337.98 739.573 1337.6C739.799 1334.69 739.089 1329.05 736.188 1328.89C729.45 1328.5 723.649 1333.95 721.069 1339.63C725.325 1337.89 733.706 1336.47 738.347 1338.01ZM762.203 1291.88C763.525 1290.21 761.526 1288.11 761.526 1288.11C757.755 1283.89 753.918 1282.6 750.598 1282.6C745.311 1282.6 741.443 1285.92 741.443 1285.92C741.443 1285.92 750.372 1288.08 754.079 1295.72C754.305 1296.2 755.111 1296.14 755.627 1296.01C759.238 1295.01 760.848 1293.56 762.203 1291.92V1291.88ZM858.46 1418.6C861.941 1414.03 869.292 1406.06 873.417 1404.84C877.254 1403.74 878.64 1388.88 872.806 1390.66C857.492 1395.36 858.46 1418.6 858.46 1418.6ZM873.579 1417.38C876.222 1415.28 879.382 1414.74 883.862 1413.67C894.403 1410.84 893.21 1398.71 882.54 1401.97C876.9 1403.68 874.062 1411.54 873.579 1417.38ZM864.617 1392.04C867.583 1390.69 867.002 1378.5 862.457 1380.6C850.595 1386.18 852.98 1405.55 852.98 1405.55C857.331 1397.75 863.037 1392.72 864.585 1392.01L864.617 1392.04ZM792.698 1236.25C800.048 1242.47 796.792 1249.69 798.824 1244.21C799.017 1243.69 802.401 1230.02 797.566 1226.38C791.376 1221.67 787.766 1231.02 792.731 1236.25H792.698ZM758.109 1259.46C764.459 1266.16 772.55 1265.03 776.934 1262.23C776.934 1262.23 769.134 1260.16 764.975 1253.75C763.073 1250.82 760.43 1250.49 758.786 1251.52C756.207 1253.17 757.206 1258.62 758.109 1259.46ZM815.457 1044.25C798.018 1048.18 796.373 1036.54 796.373 1036.54C796.373 1036.54 789.99 1051.02 803.401 1053.98C812.331 1055.95 821.13 1046.83 837.152 1053.18C837.152 1053.18 832.897 1040.31 815.457 1044.25ZM755.24 1259.78C755.24 1259.78 755.24 1259.65 755.24 1259.29C751.726 1249.11 762.332 1244.59 767.264 1252.75C767.264 1252.75 770.391 1249.33 769.94 1246.3C769.617 1244.01 767.715 1242.08 767.715 1242.08C767.845 1236.15 764.942 1235.76 767.296 1232.7C767.296 1232.7 771.003 1231.38 771.487 1231.22C772.938 1230.8 778.836 1229.6 782.317 1232.51C785.155 1234.86 786.96 1235.92 788.701 1234.54C785.929 1228.02 790.346 1221 796.276 1222.93C796.47 1221.45 795.954 1219 790.731 1218.03C790.731 1218.03 781.609 1216.97 780.255 1217C780.255 1217 800.724 1199.37 804.11 1196.27C804.11 1196.27 801.24 1210.52 809.944 1219.03C809.944 1219.03 819.357 1207.52 821.743 1201.3C824.096 1195.05 823.355 1193.98 823.355 1193.98C824.967 1195.56 843.277 1200.72 848.338 1180.41C851.239 1185.92 846.791 1202.4 826.836 1200.95C826.836 1200.95 823.871 1208.55 822.065 1210.55C835.379 1219.61 852.238 1235.21 853.624 1239.44C853.624 1239.44 852.302 1254.26 826.223 1258.94C820.614 1259.94 809.203 1262.97 802.885 1269.8C793.278 1280.21 792.053 1304.07 783.123 1307.78C783.382 1307.78 789.119 1309.39 797.179 1303.1L801.24 1317.64C801.24 1317.64 786.542 1316.42 769.391 1325.18C769.391 1325.18 766.78 1318.64 769.166 1313.16C771.68 1307.36 774.098 1291.5 764.942 1291.56C764.234 1294.91 757.141 1299.65 753.532 1298.4C753.08 1299.01 751.468 1301.91 755.658 1307.81C755.658 1307.81 750.437 1303.94 746.117 1305.75C746.73 1309.71 741.345 1317 737.156 1315.67C736.93 1315.61 736.768 1315.67 736.671 1315.8C736.575 1315.93 733.093 1320.48 738.187 1327.02C739.219 1327.57 740.315 1328.57 740.927 1330.28C741.797 1332.7 742.571 1337.21 741.635 1339.01C741.701 1340.01 744.473 1342.72 749.857 1341.04C749.857 1341.04 749.018 1344.82 744.376 1345.62C744.376 1345.62 749.792 1361.51 767.167 1351.58C767.167 1351.58 765.878 1357.36 760.527 1360.03C760.527 1360.03 773.969 1370.41 786.767 1358.26C786.767 1358.26 785.025 1363.61 780.803 1367.32C780.803 1367.32 803.658 1368.41 808.365 1355C808.365 1355 809.848 1358.58 808.237 1361.87C808.237 1361.87 813.071 1359.9 815.489 1353.52C817.907 1347.14 821.389 1344.27 826.095 1343.72C831.285 1343.14 834.218 1335.66 833.38 1331.34C832.348 1325.99 830.446 1299.94 830.382 1294.14C830.317 1288.37 848.208 1289.53 864.746 1285.05C864.746 1285.05 870.033 1276.25 871.354 1267.87C872.675 1259.52 866.294 1250.36 866.294 1250.36C880.768 1261.58 875.706 1273.7 869.872 1287.76C867.68 1293.01 864.875 1300.62 866.905 1304.62C868.937 1308.62 876.834 1321.61 872.74 1343.78C872.74 1343.78 879.38 1345.56 885.345 1339.75C887.473 1344.11 892.953 1354.97 898.077 1361.51C899.239 1373.15 891.985 1386.59 888.214 1384.76C883.281 1382.37 873.676 1374.41 867.131 1380.02C868.904 1382.53 869.13 1386.85 868.517 1389.82C869.742 1389.2 872.031 1388.11 873.643 1388.11C879.22 1388.11 879.929 1395.75 878.479 1401.26C880.671 1399.68 883.54 1398.97 885.861 1398.97C893.5 1398.97 897.078 1408.09 889.052 1413.93C890.921 1415.54 893.823 1417.54 896.208 1417.89C902.72 1418.86 910.295 1405.29 911.101 1401.58C911.101 1401.58 911.617 1405.36 911.391 1415.25C911.391 1415.25 927.316 1410.06 922.867 1384.59C922.867 1384.59 929.379 1385.66 929.089 1399.42C929.089 1399.42 934.472 1394.01 934.891 1383.08C935.214 1374.28 932.925 1372.51 934.182 1367.74C934.182 1367.74 939.082 1374.92 938.405 1383.6C938.405 1383.6 943.499 1377.18 941.919 1369.67C940.34 1362.16 937.083 1359.71 934.215 1356.84C928.831 1351.52 928.219 1341.37 931.217 1335.31C931.217 1335.31 927.123 1336.37 922.706 1333.95C919.289 1332.08 912.326 1321.35 912.874 1316.25C913.357 1311.48 917.646 1302.94 916.807 1296.98C925.768 1316.9 937.116 1329.34 954.427 1329.34C971.737 1329.34 982.472 1310.45 982.472 1294.62C982.472 1271.58 967.16 1250.36 967.16 1235.05C967.16 1227.99 972.35 1217.32 978.732 1217.32C985.116 1217.32 976.573 1231.64 977.379 1239.79C977.895 1244.82 980.216 1249.14 982.634 1252.36C983.149 1249.11 984.987 1245.75 986.985 1244.14C986.599 1257.36 995.109 1264.9 993.884 1279.34C1001.62 1272.19 1006.68 1266.39 1004.3 1252.62C1006.49 1253.36 1009.42 1254.1 1011.77 1253.49C1007.94 1248.98 1008.42 1233.5 1005.68 1227.03C1008.58 1226.67 1012.74 1225.09 1014.29 1221.06C1001.07 1218.35 1002.81 1205.14 984.761 1205.14C964.645 1205.14 954.329 1218.1 954.329 1237.08C954.329 1256.07 968.965 1271.58 968.965 1291.98C968.965 1307.97 962.486 1314.68 955.071 1314.68C945.142 1314.68 935.633 1304.78 927.896 1277.7C924.512 1264.9 920.128 1247.72 912.551 1236.02C910.714 1235.73 903.107 1235.63 895.209 1228.64C895.209 1228.64 893.695 1235.6 887.698 1240.05C887.698 1240.05 866.905 1234.15 871.322 1212.87C871.322 1212.87 872.385 1229.64 887.247 1234.41C887.247 1234.41 891.793 1227.51 893.179 1220.22C893.179 1220.22 901.365 1231.15 914.035 1232.38C914.035 1232.38 918 1227.61 918.065 1217.29C918.065 1217.29 927.09 1223.22 939.115 1220.87C939.115 1220.87 943.466 1213.29 939.824 1198.34C949.881 1201.37 962.356 1197.27 966.966 1191.89C965.194 1189.34 956.103 1179.15 950.3 1175.8C950.3 1175.8 983.761 1186.25 994.657 1161.39C994.657 1161.39 978.797 1159.94 964.581 1151.56C964.581 1151.56 996.623 1148.79 1009.9 1112.88C1009.9 1112.88 994.077 1117.29 976.347 1114.33C976.347 1114.33 1012.16 1107.17 1010.97 1075.06C1010.97 1075.06 1005.49 1081.96 987.018 1083.99C987.018 1083.99 1017.38 1050.66 1002.62 1023.87C1002.62 1023.87 1001.43 1039.48 983.085 1054.11C983.085 1054.11 1002.49 1010.66 979.281 981.999C979.861 999.309 969.738 1017.01 961.422 1029.19C961.422 1029.19 964.162 999.019 949.237 991.154C949.237 991.154 951.106 1027.55 920.868 1075.64C907.523 1096.86 899.851 1107.98 910.167 1127.8C915.485 1138.02 903.01 1159.1 882.927 1159.3C848.886 1159.65 888.02 1098.05 888.02 1098.05C888.02 1098.05 890.148 1104.04 894.629 1107.24C894.629 1107.24 899.883 1098.76 898.207 1084.51C897.401 1077.84 896.757 1076.84 895.274 1072.71C895.274 1072.71 899.658 1073.65 902.72 1071.26C902.72 1071.26 900.818 1057.27 896.563 1050.34C893.695 1045.63 891.793 1044.18 890.857 1043.76C894.242 1044.73 909.876 1048.57 916.936 1039.96C919.063 1037.35 919.354 1033.09 919.161 1033.09C919.128 1033.09 916.163 1035.54 907.782 1035.51C907.782 1035.51 930.217 1030.42 924.898 1004.76C923.19 1007.43 918.419 1013.56 908.845 1017.88C896.95 1023.26 893.564 1023.71 879.639 1024.07C873.707 1020.88 854.656 1011.04 842.792 1010.62C841.955 1010.62 834.154 1010.69 832.124 1017.01C832.124 1017.01 818.294 1013.17 811.943 1023.65C807.269 1031.35 810.847 1039.51 810.847 1039.51C811.653 1034.06 822.485 1029.48 827.899 1036.19C836.249 1048.34 840.826 1043.89 848.144 1049.6C851.594 1052.27 854.043 1055.72 854.559 1057.01C847.081 1054.34 832.542 1061.62 826.449 1059.49C825.74 1059.24 823.065 1058.66 819.808 1055.59C819.808 1055.59 818.035 1065.91 827.416 1070.74C829.221 1071.68 835.636 1073 841.536 1070.87C843.534 1070.13 845.726 1069.65 846.501 1069.29C855.945 1073.39 866.004 1074.84 871.419 1066.78C874.739 1061.82 873.353 1056.4 872.708 1055.37C872.708 1055.37 877.221 1059.91 874.449 1068.97C872.773 1074.45 865.165 1079.13 854.656 1076.64C850.659 1075.71 846.275 1073.87 846.275 1073.87C837.861 1085.51 822.419 1083.64 808.106 1085.93C808.106 1085.93 801.435 1079.67 794.181 1076.64C773.551 1067.97 769.585 1051.4 750.372 1046.89C743.183 1045.21 742.957 1045.05 740.572 1043.34C736.285 1040.25 731.643 1037.22 726.711 1040.28C725.551 1040.99 725.487 1040.96 724.293 1042.47C728.935 1042.83 732.997 1047.37 731.514 1053.24C731.321 1054.05 731.095 1055.17 731.095 1055.17C737.703 1054.4 743.989 1063.17 736.35 1069.91C737.058 1070.81 738.445 1072.26 740.637 1072.84C745.408 1074.16 749.083 1067.42 755.047 1068.84C755.884 1069.04 757.206 1069.81 757.529 1070.71C757.819 1071.45 760.914 1078.71 757.174 1083.64C755.208 1086.22 755.24 1087.89 755.434 1088.7C763.492 1086.67 767.489 1090.18 767.94 1095.6C769.585 1095.08 770.391 1092.47 770.487 1090.83C770.584 1089.18 770.874 1082.8 770.874 1081C772.647 1083.16 779.417 1091.41 785.348 1098.5C783.769 1100.69 782.35 1103.24 781.126 1106.2C784.027 1104.82 786.96 1103.92 789.442 1103.34C789.958 1103.95 790.441 1104.53 790.926 1105.08C760.398 1124.42 765.943 1152.53 765.943 1152.53C765.943 1152.53 767.522 1143.28 778.418 1140.12C778.418 1140.12 766.587 1155.04 774.357 1176.12C774.357 1176.12 781.126 1166.68 796.76 1167.94C796.76 1167.94 784.349 1180.35 777.999 1193.21C771.649 1206.07 760.332 1214.26 758.27 1216.42C756.207 1218.58 747.536 1226.83 745.762 1232.15C742.151 1243.01 743.087 1242.69 739.251 1246.95C737.639 1248.75 733.19 1253.72 736.381 1260.04C736.381 1260.04 737.477 1262.42 740.315 1264.19C739.766 1259.52 744.086 1254.85 750.275 1256.65C751.276 1256.94 753.37 1257.58 755.208 1259.94L755.24 1259.78ZM859.523 1029.93C849.789 1043.12 840.666 1028.61 840.666 1028.61L840.569 1028.45C844.792 1029.39 844.92 1028 848.273 1026.97C846.886 1029.16 848.467 1031.93 850.981 1031.93C853.688 1031.93 855.205 1028.68 853.334 1026.61C855.559 1027.03 856.525 1027.9 859.523 1030V1029.93ZM716.718 1063.78C720.748 1057.27 725.615 1056.3 727.194 1055.14C728.452 1054.21 728.613 1053.37 729 1051.63C729.902 1047.6 727.194 1045.08 724.519 1045.08C719.265 1045.08 712.624 1055.3 716.718 1063.78ZM759.752 1090.54C754.949 1090.86 752.146 1094.73 748.502 1098.69C768.23 1101.47 766.264 1090.15 759.752 1090.54ZM733.996 1066.68C735.221 1066.26 736.607 1065.17 736.607 1062.46C736.64 1057.59 730.967 1058.08 730.967 1058.08C724.003 1058.08 718.33 1071.42 725.131 1081.03C725.196 1074.48 727.743 1068.91 733.996 1066.68ZM342.038 1021.2C345.003 1019.62 365.699 1008.82 377.851 1007.85L374.499 980C368.793 981.193 363.217 982.966 357.801 985.19L360.766 994.377C358.188 995.377 355.609 996.537 353.063 997.859L348.163 989.639C343.327 992.153 336.106 996.44 331.561 999.535L336.461 1007.76C334.075 1009.37 331.819 1011.08 329.724 1012.88L323.051 1005.92C319.698 1008.66 316.539 1011.62 313.605 1014.75C325.404 1020.49 329.917 1020.84 342.07 1021.17L342.038 1021.2ZM461.376 1271.93C471.595 1276.06 485.134 1264.55 477.139 1259.2C475.237 1257.94 470.66 1258.78 469.305 1260.94C468.242 1262.55 467.598 1267.51 461.376 1271.96V1271.93ZM501.478 1306.2C501.478 1306.2 496.932 1300.72 489.743 1300.72C487.003 1300.72 483.908 1301.52 480.492 1303.68C480.492 1303.68 477.978 1304.94 478.622 1307.26C479.428 1310.13 483.232 1314.8 485.037 1312.87C490.163 1307.49 496.642 1305.49 501.445 1306.16L501.478 1306.2ZM501.252 1339.66C498.673 1333.95 492.902 1328.5 486.133 1328.92C483.232 1329.08 482.555 1334.76 482.748 1337.63C482.748 1338.01 483.102 1338.34 483.973 1338.05C488.615 1336.5 496.965 1337.92 501.252 1339.66ZM466.695 1296.01C467.211 1296.14 468.016 1296.24 468.242 1295.72C471.949 1288.08 480.879 1285.92 480.879 1285.92C480.879 1285.92 476.978 1282.6 471.723 1282.6C468.435 1282.6 464.567 1283.89 460.796 1288.11C460.796 1288.11 458.797 1290.24 460.118 1291.88C461.44 1293.53 463.084 1294.98 466.695 1295.98V1296.01ZM349.516 1390.72C343.682 1388.95 345.1 1403.81 348.904 1404.9C353.03 1406.1 360.381 1414.09 363.862 1418.67C363.862 1418.67 364.829 1395.43 349.516 1390.72ZM339.813 1402C329.143 1398.75 327.983 1410.87 338.492 1413.7C342.973 1414.77 346.132 1415.32 348.775 1417.41C348.324 1411.54 345.455 1403.71 339.813 1402ZM369.342 1405.58C369.342 1405.58 371.727 1386.21 359.865 1380.63C355.35 1378.5 354.739 1390.72 357.704 1392.07C359.252 1392.78 364.958 1397.78 369.309 1405.61L369.342 1405.58ZM424.788 1226.38C419.919 1230.02 423.338 1243.69 423.531 1244.21C425.561 1249.69 422.306 1242.47 429.655 1236.25C434.62 1231.02 430.977 1221.67 424.819 1226.38H424.788ZM463.535 1251.52C461.892 1250.46 459.215 1250.82 457.346 1253.75C453.188 1260.16 445.387 1262.23 445.387 1262.23C449.771 1265.03 457.862 1266.16 464.212 1259.46C465.147 1258.62 466.114 1253.17 463.535 1251.52ZM385.169 1053.18C401.191 1046.83 409.991 1055.95 418.921 1053.98C432.33 1051.05 425.948 1036.54 425.948 1036.54C425.948 1036.54 424.304 1048.18 406.864 1044.25C389.425 1040.31 385.169 1053.18 385.169 1053.18ZM368.987 1026.55C367.117 1028.61 368.633 1031.87 371.341 1031.87C373.823 1031.87 375.402 1029.1 374.047 1026.9C377.401 1027.94 377.53 1029.32 381.753 1028.39L381.655 1028.55C381.655 1028.55 372.533 1043.05 362.798 1029.87C365.828 1027.81 366.795 1026.9 368.987 1026.48V1026.55ZM497.77 1045.05C495.094 1045.05 492.386 1047.57 493.29 1051.6C493.677 1053.34 493.837 1054.18 495.094 1055.11C496.642 1056.27 501.542 1057.24 505.572 1063.75C509.666 1055.27 503.025 1045.05 497.77 1045.05ZM473.787 1098.69C470.111 1094.73 467.339 1090.86 462.536 1090.54C456.024 1090.15 454.058 1101.47 473.787 1098.69ZM497.189 1081.03C503.991 1071.42 498.318 1058.08 491.355 1058.08C491.355 1058.08 485.682 1057.56 485.715 1062.46C485.715 1065.17 487.101 1066.26 488.325 1066.68C494.611 1068.87 497.158 1074.48 497.189 1081.03ZM733.19 1341.59C724.745 1340.14 714.462 1346.27 714.462 1346.27C718.749 1327.7 730.321 1325.8 732.287 1325.02C732.287 1325.02 731.16 1321.12 731.417 1319.03C731.675 1316.93 732.707 1314.39 732.707 1314.39C724.26 1306.68 712.85 1309.94 712.85 1309.94C712.85 1309.94 722.294 1296.78 731.45 1296.78C740.605 1296.78 743.796 1300.33 745.795 1301.46C746.376 1301.78 747.051 1301.17 747.729 1301.1C748.212 1299.27 748.663 1297.46 749.083 1295.62C743.796 1288.63 734.286 1287.5 734.286 1287.5C734.286 1287.5 742.346 1278.54 750.598 1278.41C751.21 1278.41 751.856 1278.44 752.564 1278.54C752.662 1277.93 752.79 1277.28 752.886 1276.67C747.826 1275.73 743.119 1272.83 740.572 1269.12L738.123 1267.61C734.609 1265.42 732.997 1262.45 732.674 1261.74C730.772 1257.97 730.611 1253.94 732.158 1250.07C733.352 1247.14 735.254 1245.01 736.157 1243.98C737.66 1242.31 738.875 1239.97 739.799 1236.99C740.282 1235.37 740.895 1233.38 741.83 1230.64C743.442 1225.77 748.696 1220 754.143 1214.48C754.628 1214 755.272 1213.32 755.272 1213.32C755.658 1212.91 756.207 1212.42 756.916 1211.81C756.916 1211.65 756.916 1103.21 756.916 1103.21C756.078 1103.27 755.175 1103.3 754.208 1103.34C750.598 1103.43 741.54 1101.4 741.54 1101.4C741.54 1101.4 746.343 1094.86 746.794 1094.34C748.18 1092.79 749.664 1091.12 751.404 1089.73V1089.67C750.92 1087.83 750.953 1084.83 753.853 1081.03C755.658 1078.64 754.531 1074.61 753.886 1072.81C753.725 1072.81 753.563 1072.78 753.402 1072.78C752.177 1072.78 750.76 1073.61 749.243 1074.52C747.181 1075.74 744.828 1077.13 741.894 1077.13C741.088 1077.13 740.282 1077.03 739.509 1076.81C736.994 1076.13 734.738 1074.58 733.029 1072.42L732.772 1072.07C731.997 1072.68 731.352 1073.42 730.837 1074.32C727.033 1079.71 729 1089.47 729 1089.47C726.678 1088.31 717.234 1079.77 717.91 1069.87L716.267 1072.55C716.267 1072.55 710.303 1063.1 711.302 1056.85H510.988C511.987 1063.1 506.023 1072.55 506.023 1072.55L504.379 1069.87C505.056 1079.8 495.61 1088.35 493.29 1089.47C493.29 1089.47 495.256 1079.71 491.452 1074.32C490.936 1073.42 490.292 1072.68 489.517 1072.07L489.26 1072.42C487.551 1074.61 485.294 1076.13 482.781 1076.81C482.006 1077.03 481.2 1077.13 480.394 1077.13C477.462 1077.13 475.109 1075.74 473.045 1074.52C471.53 1073.61 470.111 1072.78 468.887 1072.78C468.725 1072.78 468.564 1072.78 468.404 1072.81C467.758 1074.61 466.63 1078.64 468.435 1081.03C471.336 1084.83 471.369 1087.83 470.886 1089.67V1089.73C472.594 1091.12 474.077 1092.79 475.463 1094.34C475.915 1094.86 480.717 1101.4 480.717 1101.4C480.717 1101.4 471.659 1103.43 468.048 1103.34C467.082 1103.34 466.179 1103.3 465.341 1103.21C465.341 1103.21 465.341 1211.65 465.341 1211.81C466.05 1212.42 466.597 1212.91 466.985 1213.32C466.985 1213.32 467.662 1214.03 468.114 1214.48C473.561 1220 478.815 1225.77 480.427 1230.64C481.33 1233.38 481.942 1235.37 482.458 1236.99C483.382 1239.95 484.597 1242.28 486.1 1243.98C487.003 1245.01 488.905 1247.11 490.099 1250.07C491.645 1253.94 491.485 1257.97 489.583 1261.74C489.227 1262.45 487.648 1265.39 484.134 1267.61L481.685 1269.12C479.138 1272.86 474.431 1275.73 469.37 1276.67C469.467 1277.28 469.564 1277.93 469.693 1278.54C470.401 1278.44 471.046 1278.41 471.659 1278.41C479.911 1278.57 487.971 1287.5 487.971 1287.5C487.971 1287.5 478.461 1288.63 473.174 1295.62C473.594 1297.43 474.044 1299.27 474.528 1301.1C475.204 1301.17 475.882 1301.78 476.462 1301.46C478.461 1300.36 481.233 1296.78 490.807 1296.78C500.382 1296.78 509.407 1309.94 509.407 1309.94C509.407 1309.94 497.995 1306.68 489.55 1314.39C489.55 1314.39 490.582 1316.93 490.839 1319.03C491.098 1321.12 489.969 1325.02 489.969 1325.02C491.935 1325.8 503.508 1327.7 507.795 1346.27C507.795 1346.27 497.512 1340.14 489.067 1341.59C508.924 1383.37 545.158 1422.57 611.113 1437.46C677.035 1422.6 713.269 1383.37 733.159 1341.59H733.19ZM472.013 1256.49C478.202 1254.72 482.522 1259.36 481.975 1264.03C484.811 1262.26 485.907 1259.87 485.907 1259.87C489.131 1253.52 484.65 1248.59 483.038 1246.79C479.203 1242.53 480.137 1242.85 476.526 1231.99C474.754 1226.67 466.082 1218.42 464.02 1216.26C461.988 1214.13 450.641 1205.91 444.291 1193.05C437.94 1180.19 425.53 1167.78 425.53 1167.78C441.164 1166.52 447.933 1175.96 447.933 1175.96C455.734 1154.88 443.871 1139.96 443.871 1139.96C454.767 1143.12 456.347 1152.37 456.347 1152.37C456.347 1152.37 461.859 1124.29 431.364 1104.91C431.847 1104.37 432.33 1103.79 432.846 1103.17C435.328 1103.75 438.262 1104.66 441.164 1106.04C439.938 1103.05 438.521 1100.5 436.94 1098.34C442.905 1091.25 449.674 1082.99 451.414 1080.83C451.414 1082.64 451.705 1089.02 451.802 1090.67C451.899 1092.31 452.705 1094.92 454.348 1095.44C454.8 1090.02 458.797 1086.51 466.856 1088.54C467.049 1087.73 467.082 1086.06 465.116 1083.48C461.376 1078.55 464.47 1071.29 464.76 1070.55C465.116 1069.68 466.405 1068.87 467.242 1068.68C473.207 1067.26 476.881 1074 481.652 1072.68C483.844 1072.07 485.199 1070.65 485.939 1069.75C478.332 1063.01 484.619 1054.24 491.195 1055.01C491.195 1055.01 490.969 1053.89 490.775 1053.08C489.293 1047.21 493.354 1042.67 497.995 1042.31C496.803 1040.83 496.706 1040.86 495.577 1040.12C490.679 1037.06 486.005 1040.12 481.716 1043.18C479.331 1044.89 479.105 1045.05 471.916 1046.73C452.736 1051.21 448.739 1067.81 428.108 1076.48C420.855 1079.51 414.182 1085.77 414.182 1085.77C399.902 1083.45 384.428 1085.32 376.015 1073.71C376.015 1073.71 371.631 1075.55 367.633 1076.48C357.124 1078.96 349.516 1074.29 347.84 1068.81C345.068 1059.75 349.581 1055.21 349.581 1055.21C348.968 1056.24 347.55 1061.65 350.87 1066.62C356.286 1074.71 366.311 1073.26 375.789 1069.13C376.562 1069.49 378.755 1069.97 380.754 1070.71C386.62 1072.87 393.067 1071.52 394.872 1070.58C404.253 1065.72 402.48 1055.43 402.48 1055.43C399.256 1058.49 396.548 1059.08 395.84 1059.33C389.748 1061.46 375.209 1054.18 367.73 1056.85C368.246 1055.56 370.695 1052.11 374.145 1049.44C381.462 1043.73 386.04 1048.18 394.389 1036.03C399.805 1029.35 410.668 1033.9 411.441 1039.35C411.441 1039.35 415.019 1031.19 410.345 1023.49C403.995 1013.01 390.166 1016.85 390.166 1016.85C388.103 1010.53 380.334 1010.43 379.496 1010.46C367.633 1010.88 348.614 1020.71 342.65 1023.91C328.724 1023.55 325.339 1023.07 313.444 1017.72C303.87 1013.4 299.099 1007.27 297.391 1004.6C292.072 1030.26 314.476 1035.35 314.508 1035.35C306.127 1035.38 303.161 1032.93 303.129 1032.93C302.935 1032.93 303.225 1037.19 305.353 1039.8C312.413 1048.4 328.047 1044.6 331.432 1043.6C330.497 1044.05 328.595 1045.47 325.726 1050.18C321.471 1057.11 319.569 1071.1 319.569 1071.1C322.632 1073.45 327.016 1072.55 327.016 1072.55C325.533 1076.68 324.856 1077.68 324.082 1084.35C322.374 1098.6 327.66 1107.07 327.66 1107.07C332.141 1103.92 334.269 1097.89 334.269 1097.89C334.269 1097.89 373.403 1159.52 339.362 1159.14C319.279 1158.91 306.804 1137.86 312.123 1127.64C322.438 1107.82 314.734 1096.69 301.42 1075.48C271.183 1027.39 273.052 990.993 273.052 990.993C258.127 998.858 260.867 1029.03 260.867 1029.03C252.55 1016.88 242.428 999.148 243.008 981.837C219.798 1010.53 239.205 1053.95 239.205 1053.95C220.894 1039.31 219.669 1023.71 219.669 1023.71C204.938 1050.5 235.272 1083.83 235.272 1083.83C216.8 1081.8 211.32 1074.9 211.32 1074.9C210.128 1107.04 245.942 1114.17 245.942 1114.17C228.212 1117.13 212.384 1112.72 212.384 1112.72C225.698 1148.66 257.708 1151.4 257.708 1151.4C243.46 1159.78 227.632 1161.23 227.632 1161.23C238.495 1186.12 271.989 1175.64 271.989 1175.64C266.218 1178.99 257.096 1189.18 255.323 1191.73C259.932 1197.11 272.376 1201.2 282.465 1198.17C278.823 1213.16 283.175 1220.71 283.175 1220.71C295.166 1223.06 304.225 1217.13 304.225 1217.13C304.289 1227.44 308.254 1232.22 308.254 1232.22C320.923 1230.99 329.111 1220.06 329.111 1220.06C330.497 1227.35 335.042 1234.25 335.042 1234.25C349.903 1229.47 350.968 1212.71 350.968 1212.71C355.416 1233.96 334.591 1239.89 334.591 1239.89C328.595 1235.41 327.08 1228.48 327.08 1228.48C319.182 1235.47 311.575 1235.57 309.737 1235.86C302.162 1247.56 297.778 1264.71 294.393 1277.54C286.624 1304.62 277.146 1314.51 267.218 1314.51C259.771 1314.51 253.324 1307.81 253.324 1291.82C253.324 1271.38 267.959 1255.88 267.959 1236.92C267.959 1217.97 257.644 1204.98 237.528 1204.98C219.476 1204.98 221.185 1218.19 208 1220.9C209.547 1224.93 213.706 1226.51 216.607 1226.86C213.899 1233.34 214.351 1248.82 210.514 1253.33C212.868 1253.94 215.801 1253.2 217.993 1252.46C215.608 1266.22 220.669 1272.03 228.405 1279.18C227.18 1264.74 235.691 1257.23 235.304 1243.98C237.303 1245.59 239.14 1248.95 239.656 1252.2C242.074 1248.98 244.395 1244.66 244.91 1239.63C245.716 1231.47 237.206 1217.16 243.556 1217.16C249.907 1217.16 255.129 1227.8 255.129 1234.89C255.129 1250.2 239.817 1271.41 239.817 1294.46C239.817 1310.29 249.875 1329.18 267.862 1329.18C285.85 1329.18 296.52 1316.74 305.482 1296.82C304.644 1302.78 308.931 1311.32 309.415 1316.09C309.931 1321.19 303 1331.92 299.583 1333.79C295.166 1336.21 291.072 1335.14 291.072 1335.14C294.07 1341.2 293.49 1351.36 288.074 1356.68C285.205 1359.52 281.95 1361.97 280.37 1369.51C278.79 1377.05 283.884 1383.43 283.884 1383.43C283.207 1374.76 288.107 1367.57 288.107 1367.57C289.364 1372.35 287.075 1374.15 287.397 1382.92C287.817 1393.85 293.2 1399.26 293.2 1399.26C292.91 1385.5 299.422 1384.43 299.422 1384.43C294.973 1409.9 310.898 1415.09 310.898 1415.09C310.672 1405.19 311.188 1401.42 311.188 1401.42C311.994 1405.13 319.569 1418.7 326.081 1417.73C328.434 1417.38 331.368 1415.38 333.237 1413.77C325.21 1407.93 328.789 1398.81 336.429 1398.81C338.75 1398.81 341.619 1399.52 343.811 1401.1C342.392 1395.62 343.101 1387.95 348.646 1387.95C350.258 1387.95 352.578 1389.04 353.771 1389.66C353.127 1386.69 353.384 1382.37 355.158 1379.86C348.614 1374.25 339.007 1382.18 334.075 1384.59C330.304 1386.43 323.051 1372.99 324.211 1361.35C329.369 1354.84 334.849 1343.98 336.944 1339.59C342.908 1345.4 349.549 1343.62 349.549 1343.62C345.455 1321.44 353.353 1308.45 355.383 1304.46C357.414 1300.46 354.577 1292.85 352.418 1287.6C346.583 1273.54 341.522 1261.42 355.996 1250.2C355.996 1250.2 349.645 1259.36 350.935 1267.71C352.257 1276.09 357.543 1284.89 357.543 1284.89C374.08 1289.37 391.94 1288.18 391.907 1293.98C391.843 1299.75 389.941 1325.8 388.909 1331.18C388.07 1335.47 391.037 1342.95 396.194 1343.56C400.901 1344.11 404.382 1347.01 406.8 1353.36C409.218 1359.71 414.053 1361.71 414.053 1361.71C412.442 1358.42 413.923 1354.84 413.923 1354.84C418.631 1368.25 441.486 1367.16 441.486 1367.16C437.263 1363.48 435.523 1358.1 435.523 1358.1C448.321 1370.25 461.763 1359.87 461.763 1359.87C456.412 1357.19 455.121 1351.42 455.121 1351.42C472.498 1361.35 477.912 1345.46 477.912 1345.46C473.271 1344.65 472.432 1340.88 472.432 1340.88C477.817 1342.56 480.589 1339.85 480.653 1338.85C479.718 1337.05 480.492 1332.57 481.362 1330.12C481.975 1328.41 483.038 1327.41 484.103 1326.86C489.196 1320.35 485.715 1315.8 485.617 1315.64C485.52 1315.48 485.327 1315.45 485.134 1315.51C480.943 1316.8 475.527 1309.52 476.172 1305.58C471.852 1303.78 466.63 1307.65 466.63 1307.65C470.82 1301.78 469.21 1298.85 468.758 1298.23C465.147 1299.49 458.055 1294.79 457.346 1291.4C448.191 1291.34 450.609 1307.16 453.124 1313C455.509 1318.48 452.898 1325.02 452.898 1325.02C435.748 1316.22 421.048 1317.48 421.048 1317.48L425.11 1302.94C433.169 1309.2 438.939 1307.61 439.165 1307.61C430.268 1303.91 429.042 1280.05 419.404 1269.64C413.086 1262.81 401.674 1259.78 396.065 1258.78C370.019 1254.1 368.664 1239.27 368.664 1239.27C370.051 1235.05 386.91 1219.45 400.224 1210.39C398.419 1208.39 395.452 1200.78 395.452 1200.78C375.499 1202.24 371.051 1185.73 373.952 1180.25C379.045 1200.56 397.323 1195.43 398.935 1193.82C398.935 1193.82 398.193 1194.89 400.547 1201.14C402.932 1207.36 412.344 1218.87 412.344 1218.87C421.016 1210.36 418.179 1196.11 418.179 1196.11C421.564 1199.21 442.035 1216.84 442.035 1216.84C440.713 1216.84 431.557 1217.87 431.557 1217.87C426.336 1218.87 425.82 1221.32 426.013 1222.77C431.944 1220.84 436.36 1227.86 433.588 1234.37C435.328 1235.76 437.135 1234.7 439.971 1232.34C443.452 1229.44 449.351 1230.64 450.803 1231.06C451.286 1231.18 454.993 1232.54 454.993 1232.54C457.346 1235.6 454.445 1235.99 454.574 1241.92C454.574 1241.92 452.672 1243.85 452.349 1246.14C451.899 1249.17 454.993 1252.59 455.025 1252.59C459.957 1244.43 470.563 1248.95 467.049 1259.13C467.049 1259.52 467.049 1259.62 467.049 1259.62C468.887 1257.23 470.982 1256.62 471.982 1256.33L472.013 1256.49ZM588.322 1223.54C588.386 1221.26 590.481 1215.84 597.09 1217.61C595.124 1225.28 591.384 1220.87 588.322 1223.54ZM542.191 1215.26C549.187 1215.19 549.928 1221.13 549.445 1223.38C547.286 1220.8 542.578 1224.67 542.191 1215.26ZM573.912 1224.38C573.073 1222.38 573.912 1221.9 573.912 1221.9C573.912 1221.9 576.265 1223.32 577.716 1222.87C581.391 1221.74 585.065 1223 585.065 1223C585.162 1223.61 584.711 1223.87 584.711 1223.87C582.422 1223.83 580.552 1224.93 580.005 1225.83C578.973 1228.22 578.619 1227.73 577.747 1227.83C577.039 1227.93 576.748 1228.25 576.748 1229.86C576.748 1231.83 576.168 1232.96 575.041 1232.96C575.041 1232.96 574.718 1226.38 573.879 1224.38H573.912ZM618.334 1192.6H604.021V1181.93C604.021 1178.12 606.534 1173.8 611.177 1173.8C615.819 1173.8 618.334 1178.09 618.334 1181.93V1192.6ZM589.159 1128.83L591.513 1139.05C594.478 1138.57 597.54 1138.22 600.668 1138.02V1127.61C606.599 1127.25 615.721 1127.25 621.686 1127.61V1138.02C624.813 1138.22 627.875 1138.57 630.842 1139.05L633.194 1128.83C639.48 1129.74 645.702 1131.22 651.665 1133.28L644.508 1155.62L637.578 1163.17C619.977 1157.14 602.345 1157.14 584.744 1163.17L577.813 1155.62L570.657 1133.28C576.62 1131.22 582.842 1129.74 589.128 1128.83H589.159ZM541.289 1212.13C543.03 1211.75 546.608 1212.94 550.379 1215.81C551.314 1214.61 551.378 1213.65 551.508 1212.65C551.863 1209.52 546.704 1206.94 546.704 1206.94C549.38 1204.88 553.893 1204.33 557.761 1208.07C559.34 1204.23 553.056 1199.69 551.54 1199.69C551.54 1199.69 557.117 1195.4 562.307 1199.01C563.855 1200.11 565.498 1202.69 565.498 1202.69C564.756 1198.53 567.207 1194.14 571.527 1192.76C571.527 1192.76 570.495 1196.88 573.106 1200.37C575.105 1203.01 576.394 1204.2 576.394 1204.2C576.394 1204.2 577.554 1198.5 581.165 1198.24C584.518 1198.01 586.194 1199.24 586.194 1199.24C586.194 1199.24 582.293 1203.91 585.388 1210.33C585.388 1210.33 587.935 1204.49 595.51 1205.97C594.511 1207.81 592.609 1210.55 591.996 1214.84C595.348 1214.19 598.572 1214.58 600.152 1215.81C600.055 1216.84 599.088 1221.61 597.928 1222.9C594.447 1226.67 590.32 1224.54 589.644 1227.44C589.644 1227.44 589.514 1230.8 588.353 1232.86C587.193 1234.92 581.261 1233.47 581.261 1233.47C581.035 1234.34 581.197 1235.08 581.713 1235.73C583.808 1236.37 585.065 1236.99 585.678 1238.18C585.807 1238.4 585.84 1238.82 585.84 1239.47C585.84 1242.27 581.81 1244.56 580.069 1244.56C576.071 1244.53 572.623 1242.95 572.59 1240.47C572.557 1237.99 577.942 1239.47 577.361 1236.73C577.103 1235.44 575.588 1235.47 575.588 1235.47C574.331 1238.37 565.401 1237.73 565.531 1235.73C565.562 1235.05 565.852 1224.9 567.239 1221.19C567.239 1221.19 565.467 1221.93 564.466 1222.51C563.209 1223.25 555.505 1221.06 554.442 1223.09C554.442 1223.09 560.115 1224.03 560.792 1227.54C560.921 1228.25 562.564 1227.93 562.854 1228.19C563.016 1228.31 564.499 1230.15 563.144 1235.76C562.048 1240.53 567.723 1237.76 567.723 1240.44C567.723 1243.08 562.178 1244.63 560.212 1244.63C555.667 1244.63 551.282 1237.73 558.536 1235.79C559.05 1235.15 559.212 1234.41 558.986 1233.54C558.986 1233.54 553.056 1235.02 551.894 1232.92C550.734 1230.86 550.864 1229.12 550.282 1227.96C549.702 1226.8 545.931 1226.41 544.255 1224.9C538.066 1219.35 540.805 1213.2 541.385 1212.16L541.289 1212.13ZM570.108 1255.17C573.363 1255.17 577.619 1249.33 577.136 1245.95C577.136 1245.95 578.489 1246.75 579.939 1246.66C574.685 1260.78 565.531 1260.91 560.244 1246.66C561.727 1246.79 563.049 1245.95 563.049 1245.95C562.564 1249.3 566.787 1255.17 570.075 1255.17H570.108ZM570.108 1245.63C577.523 1245.63 572.849 1252.04 570.141 1252.04C567.271 1252.04 562.854 1245.63 570.108 1245.63ZM540.225 1228.73C542.127 1227.93 545.125 1228.67 546.382 1229.86C547.64 1231.06 547.35 1234.66 550.476 1236.41C550.476 1236.41 550.282 1242.95 554.892 1245.95C559.406 1250.43 562.661 1260.62 570.075 1260.62C577.49 1260.62 580.778 1251.49 584.614 1246.3C590.352 1243.88 589.514 1236.41 589.514 1236.41C592.093 1234.66 592.19 1231.54 592.609 1230.09C592.609 1230.09 595.51 1228.86 596.284 1228.6C597.057 1228.35 597.573 1228.96 597.992 1229.44C598.669 1230.22 600.443 1231.7 602.473 1232.92C601.28 1234.86 598.443 1234.99 595.414 1234.25C595.994 1238.63 598.636 1247.91 601.796 1251.07C600.797 1251.88 598.218 1251.88 595.284 1250.72C600.828 1254.23 599.83 1268.22 594.608 1274.7C594.768 1270.03 593.738 1262.87 588.353 1260.55C595.22 1269.96 587.612 1284.99 577.587 1286.89C579.133 1284.24 583.453 1275.41 576.458 1266.58C586.194 1283.57 563.725 1285.6 569.463 1298.78C566.401 1297.72 564.466 1296.46 564.371 1296.43C559.889 1282.89 567.174 1268.77 567.174 1268.77C567.174 1268.77 556.408 1280.6 561.082 1294.01C553.667 1287.37 554.861 1276.48 559.761 1270.25C554.216 1271.99 552.346 1278.96 552.54 1285.47C540.548 1270.9 550.153 1261.23 554.345 1257.33C549.992 1257.78 545.479 1263.71 543.126 1268.42C537.84 1259.32 540.063 1251.62 545.769 1247.27C541.965 1248.75 538.517 1248.56 537.453 1247.43C544.223 1239.21 544.222 1235.34 544.545 1233.21C541.45 1233.54 539.773 1231.44 538.774 1229.38C539.419 1229.09 539.548 1228.96 540.225 1228.67V1228.73ZM533.649 1233.02C533.777 1234.83 532.585 1237.12 530.651 1237.12C529.909 1237.12 530.006 1237.05 529.845 1236.57C529.297 1234.73 524.913 1232.8 523.268 1232.6C526.977 1230.31 531.489 1231.02 533.617 1233.02H533.649ZM527.847 1239.5C526.782 1240.6 525.525 1240.85 524.01 1240.6C522.721 1238.21 519.336 1236.66 515.983 1237.76C520.755 1231.54 530.683 1236.57 527.847 1239.5ZM513.083 1245.82C514.243 1240.69 519.369 1240.56 523.108 1242.72C523.979 1243.76 523.784 1245.08 522.978 1245.85C522.495 1246.33 520.496 1246.62 519.046 1245.92C517.305 1244.5 514.694 1244.11 513.083 1245.82ZM529.909 1272.12C531.135 1272.64 532.327 1272.54 533.52 1272.12C529.072 1269.19 527.008 1259.49 526.009 1255.39C525.01 1251.4 522.367 1252.88 520.046 1248.59C524.462 1249.2 526.654 1246.11 525.816 1243.08C527.75 1242.85 529.909 1241.69 530.555 1239.53C533.423 1239.6 535.486 1237.21 535.969 1234.37C536.841 1236.15 538.161 1239.15 537.84 1239.69C536.035 1242.6 533.746 1245.82 532.134 1247.69C532.134 1247.69 533.843 1250.78 537.355 1250.78C534.359 1256.75 535.486 1268.03 542.546 1274.09C543.191 1278.57 545.512 1284.95 552.088 1289.6C552.733 1290.05 553.41 1290.21 552.797 1291.27C549.896 1296.36 546.028 1288.69 540.676 1285.82C538.13 1284.47 536.582 1283.47 534.359 1280.34C536.066 1280.86 537.098 1280.7 539 1279.86C536.066 1279.86 531.618 1275.7 529.878 1272.12H529.909ZM540.193 1324.35C540.063 1324.99 540.032 1326.57 540.096 1327.51C539.387 1329.99 538.936 1332.31 540.096 1334.44C537.968 1334.05 533.81 1329.79 535.389 1325.35C536.97 1320.9 540.322 1323.73 540.193 1324.38V1324.35ZM547.51 1329.18C546.865 1331.28 546.608 1333.73 547.414 1335.82C542.191 1334.44 540.032 1322.44 545.286 1322.09C546.35 1322.02 547.478 1322.99 548.09 1323.89C547.446 1325.51 547.317 1327.67 547.51 1329.15V1329.18ZM552.604 1334.02C548.832 1331.53 548.736 1323.12 552.507 1323.12C555.828 1323.12 556.794 1326.25 555.795 1327.92C552.41 1331.31 552.443 1333.57 552.571 1333.98L552.604 1334.02ZM594.478 1325.41C594.092 1325.09 591.996 1320.67 592.352 1318.87C592.737 1316.8 596.767 1313.23 597.799 1316.71C594.834 1318.35 593.35 1321.51 594.511 1325.41H594.478ZM599.798 1326.8C599.637 1327.44 599.475 1328.47 599.475 1329.12C599.024 1328.86 598.508 1328.38 598.153 1327.86C593.479 1320.67 599.314 1318.12 600.474 1318.12C601.118 1318.25 601.603 1318.77 601.893 1319.58C600.248 1320.93 599.152 1323.7 599.798 1326.8ZM598.862 1314.13C599.604 1310.94 603.924 1313.39 607.083 1317.67C608.018 1320.03 607.405 1317.7 603.988 1318.54C603.279 1316.8 601.667 1315.61 599.927 1315.9C599.701 1315.22 599.347 1314.61 598.862 1314.13ZM608.436 1325.47C608.341 1325.25 604.794 1329.34 605.31 1331.66C604.537 1331.31 599.927 1326.18 602.892 1321.9C604.085 1320.22 606.599 1320.54 607.47 1321.38C608.115 1321.96 609.339 1323.7 608.469 1325.47H608.436ZM646.056 1313.29C640.834 1316.09 635.837 1319.54 630.937 1322.93C628.617 1324.54 626.424 1329.54 621.717 1329.25C617.012 1328.96 613.917 1328.25 609.017 1329.47L610.533 1326.47C611.757 1324.06 610.823 1321.19 608.921 1319.54C616.689 1320.12 620.816 1316.64 628.198 1311.23C631.002 1309.03 632.259 1307.32 632.452 1306.36C633.129 1303.17 629.325 1302.75 626.327 1290.37C631.776 1289.31 635.934 1288.79 643.284 1289.79C646.217 1292.17 645.219 1291.27 647.765 1293.72C647.958 1294.59 648.119 1295.53 648.312 1296.46C649.215 1300.85 653.471 1303.2 653.697 1305.62C654.308 1311.97 650.699 1310.52 649.506 1310.9C648.507 1311.23 647.185 1312.64 646.089 1313.23L646.056 1313.29ZM652.535 1316.71C653.148 1316 654.213 1315.87 655.083 1316.93C656.855 1319.03 655.953 1317.51 654.018 1319.22C652.375 1320.67 651.505 1322.51 651.085 1324.35C650.763 1323.96 648.635 1321.28 652.504 1316.74L652.535 1316.71ZM653.697 1331.99C653.697 1331.99 651.343 1324.67 655.566 1320.93C657.209 1319.48 659.047 1321.38 659.531 1323.51C658.112 1324.41 656.695 1326.09 656.113 1328.18C655.114 1329.25 655.309 1329.02 653.664 1331.99H653.697ZM659.917 1334.31L659.531 1335.5C659.531 1335.5 656.017 1329.86 660.047 1326.02C662.658 1323.54 665.107 1325.86 665.204 1327.05C665.495 1331.31 661.175 1331.73 659.95 1334.27L659.917 1334.31ZM695.539 1313.42C694.539 1311.23 692.09 1308.36 689.833 1308.58C695.152 1314.97 692.703 1324.57 688.414 1327.44C688.478 1324.99 688.093 1322.02 687.157 1319.93C688.093 1324.76 684.643 1333.28 677.325 1333.28C661.852 1333.28 664.237 1333.4 665.043 1332.76C667.461 1330.66 667.558 1327.99 667.461 1326.92C667.332 1324.93 665.14 1322.64 662.432 1322.64C661.303 1322.64 661.981 1323.06 661.303 1321.54C660.723 1320.25 659.821 1319.25 658.821 1318.67C658.661 1317.64 657.919 1316.67 656.888 1315.48C656.598 1312.87 661.691 1313.84 667.397 1319.67C668.718 1321.03 673.521 1320.32 675.682 1320.32C677.841 1320.32 677.905 1317.83 678.711 1313.32C679.324 1309.97 678.873 1308.2 677.035 1301.91C675.197 1295.62 659.886 1301.2 653.761 1294.88C651.826 1292.88 647.378 1288.4 644.638 1286.57C633.162 1284.89 628.552 1286.57 618.817 1288.37C603.15 1292.43 591.546 1295.14 591.48 1295.08C591.48 1295.08 591.416 1300.2 588.063 1302.81C588.063 1299.59 585.968 1298.07 585.968 1298.07C586.613 1306.84 582.454 1314.35 578.103 1316.87C578.973 1315.55 580.488 1313.61 579.038 1311.32C578.876 1312.77 564.402 1326.05 561.758 1327.28C560.888 1331.95 557.02 1331.34 556.085 1331.15C556.601 1330.47 557.084 1329.99 557.633 1329.44C561.082 1323.54 553.442 1318.61 549.412 1321.99C546.865 1319.06 543.32 1319.29 541.225 1322.09C538.872 1319.77 535.776 1319.93 533.907 1323.12C533.81 1319.09 535.229 1316.64 540.935 1317.19C545.351 1313.81 550.798 1314.84 553.603 1315.9C557.826 1313.35 562.694 1303.43 564.821 1300.97C564.821 1300.97 570.721 1303.26 574.073 1302.71C571.848 1296.2 571.753 1293.4 573.912 1290.53C580.65 1291.75 587.644 1286.79 590.417 1282.83C600.248 1277.44 603.601 1266.71 601.893 1257.42C604.922 1257.26 609.404 1260.1 617.623 1260.97C625.876 1261.81 648.442 1259.29 657.725 1263.55C667.042 1267.58 685.385 1267.87 685.385 1253.65C685.385 1248.11 680.195 1244.17 674.489 1244.17C672.458 1244.17 659.917 1245.3 660.402 1252.14C657.532 1251.52 656.372 1248.62 656.405 1246.53C648.635 1248.33 641.22 1250.56 630.196 1250.56C620.59 1250.56 612.435 1246.08 612.435 1237.41C612.435 1228.73 618.817 1224.06 629.1 1224.06C637.159 1224.06 643.027 1227.19 648.797 1227.19C659.37 1227.19 654.599 1216.16 651.859 1215.13C660.53 1210.62 665.72 1221.74 663.561 1225.03C676.938 1215.42 692.025 1229.86 691.186 1237.12C687.705 1233.99 682.322 1232.76 679.679 1232.76C673.49 1232.76 670.556 1239.95 656.049 1232.86C656.855 1236.54 662.109 1238.18 662.109 1238.18C647.088 1241.76 647.927 1231.99 630.39 1232.31C624.071 1232.44 622.363 1234.28 622.363 1237.53C622.363 1243.01 632.808 1244.92 644.315 1240.15C650.73 1243.05 662.045 1244.08 669.33 1239.18C669.33 1239.18 673.328 1239.82 677.002 1236.54C690.155 1237.73 695.571 1245.82 694.443 1255.3C693.314 1264.77 686.576 1272.83 673.328 1272.77C668.01 1272.77 664.076 1272.38 659.563 1270.96C667.494 1273.93 668.3 1287.21 680.71 1287.21C693.121 1287.21 694.089 1294.88 694.733 1299.65C693.54 1297.98 689.413 1296.43 687.061 1296.56C693.186 1299.98 695.796 1306.91 695.475 1313.58L695.539 1313.42ZM640.221 1237.47C636.127 1238.86 633.742 1238.86 631.034 1238.86C628.519 1238.86 626.263 1237.95 626.263 1237.12C626.263 1235.37 635.837 1235.86 640.221 1237.47ZM586.226 1167.2C602.828 1161.84 619.461 1161.81 636.063 1167.2L644.541 1222.71C640.028 1221.74 635.321 1220.16 629.164 1220.16C616.527 1220.16 608.662 1226.74 608.662 1237.34C608.662 1247.95 617.333 1254.36 630.26 1254.36C637.772 1254.36 643.671 1253.39 649.054 1252.2L649.893 1257.75C638.738 1256.49 623.845 1257.84 617.753 1257.1C611.532 1256.36 608.115 1254.59 604.537 1253.85L607.535 1251.43C604.568 1248.4 602.57 1247.37 600.248 1238.4C604.665 1237.73 605.728 1235.05 607.856 1231.67C603.988 1229.31 604.182 1229.41 603.086 1228.83C601.216 1227.83 601.732 1227.44 600.152 1226.12C603.053 1223.29 603.795 1218.64 604.149 1214.13C602.376 1212.71 601.023 1211.29 597.25 1210.84C597.928 1209.46 596.864 1211.62 601.377 1203.24C596.703 1202.33 592.963 1201.14 588.612 1202.72C588.998 1201.85 588.933 1202.01 591.803 1198.53C588.482 1196.17 586.806 1194.47 582.1 1194.4L586.258 1167.23L586.226 1167.2Z" fill="#001EFF"/>
</svg>
