<svg width="1197" height="1026" viewBox="0 0 1197 1026" fill="none" xmlns="http://www.w3.org/2000/svg">
<path fill-rule="evenodd" clip-rule="evenodd" d="M598.442 854.947C787.304 854.947 940.408 701.843 940.408 512.98C940.408 324.118 787.304 171.014 598.442 171.014C409.579 171.014 256.475 324.118 256.475 512.98C256.475 701.843 409.579 854.947 598.442 854.947ZM598.442 1025.93C881.736 1025.93 1111.39 796.275 1111.39 512.98C1111.39 229.686 881.736 0.0310059 598.442 0.0310059C315.147 0.0310059 85.4921 229.686 85.4921 512.98C85.4921 796.275 315.147 1025.93 598.442 1025.93Z" fill="#F86807"/>
<rect y="413.241" width="1196.88" height="227.978" fill="#25358A"/>
<path d="M581.79 543.479C581.79 552.028 580.413 559.485 577.658 565.849C574.903 572.166 570.391 577.082 564.122 580.597C557.853 584.111 549.446 585.869 538.902 585.869C528.358 585.869 519.951 584.111 513.682 580.597C507.46 577.082 502.972 572.143 500.217 565.778C497.462 559.366 496.085 551.838 496.085 543.194V481.427H520.735V544.548C520.735 551.957 522.492 557.3 526.007 560.577C529.522 563.807 533.82 565.422 538.902 565.422C542.322 565.422 545.409 564.71 548.163 563.285C550.966 561.86 553.174 559.628 554.789 556.588C556.404 553.501 557.211 549.487 557.211 544.548V481.427H581.79V543.479ZM691.269 584.444H661.062L639.975 549.677L619.314 584.444H593.382L627.293 532.294L594.308 481.427H624.301L642.611 512.061L660.706 481.427H686.282L655.007 528.946L691.269 584.444Z" fill="white"/>
</svg>
