<svg width="245" height="211" viewBox="0 0 245 211" fill="none" xmlns="http://www.w3.org/2000/svg">
<path d="M188.621 105.066C188.621 141.817 158.828 171.61 122.077 171.61C85.3259 171.61 55.5331 141.817 55.5331 105.066C55.5331 68.3148 85.3259 38.522 122.077 38.522C158.828 38.522 188.621 68.3148 188.621 105.066ZM122.077 208.632C179.275 208.632 225.643 162.264 225.643 105.066C225.643 47.8681 179.275 1.5 122.077 1.5C64.8792 1.5 18.5111 47.8681 18.5111 105.066C18.5111 162.264 64.8792 208.632 122.077 208.632Z" fill="#F86807" stroke="#9C4B14" stroke-width="3"/>
<rect x="1.5" y="83.72" width="241.154" height="48.3627" fill="#25358A" stroke="#1F212F" stroke-width="3"/>
<path d="M118.971 111.272C118.971 112.974 118.696 114.457 118.148 115.724C117.6 116.981 116.702 117.959 115.455 118.658C114.207 119.357 112.535 119.707 110.437 119.707C108.339 119.707 106.666 119.357 105.418 118.658C104.18 117.959 103.287 116.976 102.739 115.71C102.191 114.434 101.917 112.936 101.917 111.216V98.9253H106.822V111.485C106.822 112.959 107.172 114.023 107.871 114.675C108.57 115.317 109.425 115.639 110.437 115.639C111.117 115.639 111.731 115.497 112.28 115.213C112.837 114.93 113.277 114.486 113.598 113.881C113.919 113.267 114.08 112.468 114.08 111.485V98.9253H118.971V111.272ZM140.755 119.424H134.744L130.548 112.506L126.437 119.424H121.277L128.025 109.047L121.461 98.9253H127.429L131.072 105.021L134.673 98.9253H139.762L133.539 108.381L140.755 119.424Z" fill="white"/>
<path d="M118.148 115.724L119.065 116.123L119.066 116.121L118.148 115.724ZM115.455 118.658L115.944 119.53L115.455 118.658ZM105.418 118.658L104.927 119.529L104.929 119.53L105.418 118.658ZM102.739 115.71L101.82 116.104L101.821 116.107L102.739 115.71ZM101.917 98.9253V97.9253H100.917V98.9253H101.917ZM106.822 98.9253H107.822V97.9253H106.822V98.9253ZM107.871 114.675L107.189 115.406L107.194 115.411L107.871 114.675ZM112.28 115.213L111.826 114.322L111.82 114.325L112.28 115.213ZM113.598 113.881L114.481 114.35L114.484 114.344L113.598 113.881ZM114.08 98.9253V97.9253H113.08V98.9253H114.08ZM118.971 98.9253H119.971V97.9253H118.971V98.9253ZM117.971 111.272C117.971 112.868 117.713 114.211 117.231 115.326L119.066 116.121C119.68 114.704 119.971 113.079 119.971 111.272H117.971ZM117.232 115.324C116.775 116.372 116.032 117.188 114.966 117.786L115.944 119.53C117.373 118.729 118.426 117.589 119.065 116.123L117.232 115.324ZM114.966 117.786C113.922 118.371 112.438 118.707 110.437 118.707V120.707C112.631 120.707 114.493 120.344 115.944 119.53L114.966 117.786ZM110.437 118.707C108.435 118.707 106.952 118.371 105.907 117.786L104.929 119.53C106.38 120.344 108.242 120.707 110.437 120.707V118.707ZM105.91 117.787C104.856 117.192 104.116 116.372 103.657 115.312L101.821 116.107C102.459 117.58 103.505 118.726 104.927 119.529L105.91 117.787ZM103.658 115.315C103.175 114.19 102.917 112.831 102.917 111.216H100.917C100.917 113.04 101.208 114.678 101.82 116.104L103.658 115.315ZM102.917 111.216V98.9253H100.917V111.216H102.917ZM101.917 99.9253H106.822V97.9253H101.917V99.9253ZM105.822 98.9253V111.485H107.822V98.9253H105.822ZM105.822 111.485C105.822 113.088 106.199 114.483 107.189 115.406L108.553 113.943C108.144 113.562 107.822 112.831 107.822 111.485H105.822ZM107.194 115.411C108.091 116.235 109.193 116.639 110.437 116.639V114.639C109.658 114.639 109.05 114.4 108.547 113.938L107.194 115.411ZM110.437 116.639C111.26 116.639 112.035 116.466 112.739 116.102L111.82 114.325C111.428 114.528 110.974 114.639 110.437 114.639V116.639ZM112.733 116.105C113.491 115.719 114.073 115.118 114.481 114.35L112.715 113.412C112.48 113.853 112.183 114.141 111.826 114.322L112.733 116.105ZM114.484 114.344C114.905 113.54 115.08 112.566 115.08 111.485H113.08C113.08 112.37 112.934 112.993 112.712 113.417L114.484 114.344ZM115.08 111.485V98.9253H113.08V111.485H115.08ZM114.08 99.9253H118.971V97.9253H114.08V99.9253ZM117.971 98.9253V111.272H119.971V98.9253H117.971ZM140.755 119.424V120.424H142.603L141.592 118.877L140.755 119.424ZM134.744 119.424L133.889 119.942L134.181 120.424H134.744V119.424ZM130.548 112.506L131.403 111.987L130.539 110.563L129.688 111.995L130.548 112.506ZM126.437 119.424V120.424H127.006L127.297 119.934L126.437 119.424ZM121.277 119.424L120.439 118.878L119.434 120.424H121.277V119.424ZM128.025 109.047L128.863 109.592L129.217 109.048L128.864 108.503L128.025 109.047ZM121.461 98.9253V97.9253H119.621L120.622 99.4694L121.461 98.9253ZM127.429 98.9253L128.288 98.4123L127.997 97.9253H127.429V98.9253ZM131.072 105.021L130.214 105.534L131.078 106.979L131.933 105.53L131.072 105.021ZM134.673 98.9253V97.9253H134.102L133.812 98.4167L134.673 98.9253ZM139.762 98.9253L140.598 99.4751L141.618 97.9253H139.762V98.9253ZM133.539 108.381L132.704 107.831L132.343 108.379L132.702 108.928L133.539 108.381ZM140.755 118.424H134.744V120.424H140.755V118.424ZM135.599 118.905L131.403 111.987L129.693 113.024L133.889 119.942L135.599 118.905ZM129.688 111.995L125.577 118.913L127.297 119.934L131.408 113.017L129.688 111.995ZM126.437 118.424H121.277V120.424H126.437V118.424ZM122.115 119.969L128.863 109.592L127.186 108.502L120.439 118.878L122.115 119.969ZM128.864 108.503L122.3 98.3812L120.622 99.4694L127.186 109.591L128.864 108.503ZM121.461 99.9253H127.429V97.9253H121.461V99.9253ZM126.571 99.4383L130.214 105.534L131.931 104.508L128.288 98.4123L126.571 99.4383ZM131.933 105.53L135.534 99.4339L133.812 98.4167L130.211 104.512L131.933 105.53ZM134.673 99.9253H139.762V97.9253H134.673V99.9253ZM138.927 98.3755L132.704 107.831L134.374 108.93L140.598 99.4751L138.927 98.3755ZM132.702 108.928L139.917 119.971L141.592 118.877L134.376 107.834L132.702 108.928Z" fill="#464646"/>
</svg>
