<svg width="2504" height="2504" viewBox="0 0 2504 2504" fill="none" xmlns="http://www.w3.org/2000/svg">
<rect x="12" y="12" width="2480" height="2480" rx="181.957" fill="#FFFCFC" stroke="#C9B4B4" stroke-width="23"/>
<g clip-path="url(#clip0_158_1406)">
<path d="M1258.73 1217.96C1258.73 1089.51 1152.92 985.587 1022.94 985.587C892.956 985.587 787.141 1089.51 787.141 1217.96C787.141 1346.42 892.956 1450.34 1022.94 1450.34C1057.56 1450.34 1089.56 1443.24 1119.61 1430.33L1147.04 1465.19C1147.04 1465.19 1183.62 1511.02 1238.48 1449.05L1186.88 1384.5C1231.3 1342.54 1258.73 1283.16 1258.73 1217.96V1217.96ZM1022.94 1366.43C943.25 1366.43 879.239 1299.94 879.239 1217.32C879.239 1134.7 943.903 1068.21 1022.94 1068.21C1102.62 1068.21 1166.64 1134.7 1166.64 1217.32C1166.64 1254.76 1153.57 1288.97 1131.36 1315.43L1073.88 1243.78C1068.66 1243.78 1062.78 1244.43 1055.6 1245.72C1048.41 1247.01 1041.88 1248.95 1036 1252.17C1030.12 1255.4 1024.9 1259.28 1020.32 1265.08C1016.41 1270.25 1013.79 1277.35 1013.79 1285.74C1013.79 1291.55 1015.75 1298 1020.32 1304.46L1034.04 1323.82L1063.43 1361.26C1051.68 1364.49 1037.31 1366.43 1022.94 1366.43V1366.43ZM598.374 990.106C580.738 979.778 564.409 979.132 553.305 980.423C553.305 980.423 528.484 984.296 511.502 992.688C471.658 1075.96 326 1438.08 326 1438.08H417.444C466.433 1296.07 560.49 1085.64 560.49 1085.64C564.409 1088.87 595.108 1165.68 626.46 1246.37H512.155C497.132 1327.05 555.917 1327.05 555.917 1327.05L657.16 1326.41C681.327 1388.37 700.269 1438.72 700.269 1438.72H798.245C664.344 1085.64 619.275 1012.05 619.275 1012.05C619.275 1012.05 612.09 997.852 598.374 990.106V990.106ZM1729.02 1438.08C1595.12 1084.99 1550.05 1011.41 1550.05 1011.41C1550.05 1011.41 1542.86 997.852 1529.15 989.46C1511.51 979.132 1495.18 978.487 1484.08 979.778C1484.08 979.778 1459.26 983.651 1442.28 992.042C1401.78 1075.31 1256.12 1437.43 1256.12 1437.43H1347.57C1396.55 1295.42 1490.61 1084.99 1490.61 1084.99C1494.53 1088.22 1525.23 1165.03 1556.58 1245.72H1442.28C1427.25 1326.41 1486.04 1326.41 1486.04 1326.41L1587.28 1325.76C1611.45 1387.73 1630.39 1438.08 1630.39 1438.08H1729.02V1438.08Z" fill="#412878"/>
<path d="M1853.13 840.993C1817.2 840.993 1788.46 871.331 1788.46 908.124V1176C1801.52 1149.54 1823.08 1104.35 1845.94 1063.69C1928.89 896.505 2037.97 913.933 2111.13 895.859C2142.48 888.113 2166.65 853.257 2174.49 840.347H1853.13V840.993ZM2145.09 1013.98C2131.38 1048.84 2103.29 1100.48 2036.01 1134.05C2000.09 1152.12 1947.84 1151.47 1904.07 1146.95C1854.43 1143.73 1821.77 1147.6 1801.52 1199.89C1795.65 1216.67 1788.46 1244.42 1788.46 1244.42H2112.44C2148.36 1244.42 2177.1 1214.09 2177.1 1177.29L2177.75 840.993C2176.45 866.812 2172.53 945.562 2145.09 1013.98V1013.98Z" fill="#C8194B"/>
</g>
<defs>
<clipPath id="clip0_158_1406">
<rect width="1851.75" height="823" fill="white" transform="translate(326 841)"/>
</clipPath>
</defs>
</svg>
