<svg width="2504" height="2504" viewBox="0 0 2504 2504" fill="none" xmlns="http://www.w3.org/2000/svg">
<rect x="12" y="12" width="2480" height="2480" rx="181.957" fill="white" stroke="#DEDEDE" stroke-width="23"/>
<g clip-path="url(#clip0_158_1409)">
<path d="M704.239 1424.3H618.978V1413.64H576.346V1445.62H640.292L704.239 1509.57V1584.17L640.292 1648.12H555.03L491.083 1584.17V1552.2H576.346V1562.85H618.978V1530.88H555.03L491.083 1466.93V1392.33L555.03 1328.38H640.292L704.239 1392.33V1424.3Z" fill="#F00053"/>
<path d="M725.554 1392.33L789.501 1328.38H874.765L938.712 1392.33V1584.17L874.765 1648.12H789.501L725.554 1584.17V1392.33ZM810.816 1413.64V1562.85H853.448V1413.64H810.816Z" fill="#F00053"/>
<path d="M1173.18 1434.96H1087.92V1413.64H1045.29V1562.85H1087.92V1541.54H1173.18V1584.17L1109.24 1648.12H1023.97L960.027 1584.17V1392.33L1023.97 1328.38H1109.24L1173.18 1392.33V1434.96Z" fill="#F00053"/>
<path d="M1279.76 1648.12H1194.5V1328.38H1279.76V1648.12Z" fill="#F00053"/>
<path d="M1386.34 1445.62H1471.61V1530.88H1386.34V1562.85H1492.92V1648.12H1301.08V1328.38H1492.92V1413.64H1386.34V1445.62Z" fill="#F00053"/>
<path d="M1663.45 1413.64V1648.12H1578.19V1413.64H1514.24V1328.38H1727.4V1413.64H1663.45Z" fill="#F00053"/>
<path d="M1812.66 1530.88L1748.71 1466.93V1328.38H1833.97V1445.62H1876.6V1328.38H1961.87V1466.93L1897.92 1530.88V1648.12H1812.66V1530.88Z" fill="#F00053"/>
<path fill-rule="evenodd" clip-rule="evenodd" d="M712.968 1433.04H610.243V1422.38H585.071V1436.89H643.905L712.968 1505.95V1587.79L643.905 1656.85H551.409L482.347 1587.79V1543.47H585.071V1554.13H610.243V1539.61H551.409L482.347 1470.55V1388.71L551.409 1319.65H643.905L712.968 1388.71V1433.04ZM618.973 1530.88V1562.86H576.341V1552.2H491.078V1584.17L555.025 1648.12H640.288L704.235 1584.17V1509.57L640.288 1445.62H576.341V1413.64H618.973V1424.31H704.235V1392.33L640.288 1328.38H555.025L491.078 1392.33V1466.93L555.025 1530.88H618.973ZM716.822 1388.71L785.881 1319.65H878.377L947.44 1388.71V1587.79L878.377 1656.85H785.881L716.822 1587.79V1388.71ZM810.813 1562.86V1413.64H853.445V1562.86H810.813ZM844.715 1554.13V1422.38H819.546V1554.13H844.715ZM1181.91 1443.69H1079.19V1422.38H1054.02V1554.13H1079.19V1532.81H1181.91V1587.79L1112.85 1656.85H1020.36L951.294 1587.79V1388.71L1020.36 1319.65H1112.85L1181.91 1388.71V1443.69ZM1087.92 1562.86H1045.29V1413.64H1087.92V1434.96H1173.18V1392.33L1109.23 1328.38H1023.97L960.024 1392.33V1584.17L1023.97 1648.12H1109.23L1173.18 1584.17V1541.54H1087.92V1562.86ZM1288.49 1656.85H1185.77V1319.65H1288.49V1656.85ZM1480.33 1436.89V1539.61H1395.07V1554.13H1501.65V1656.85H1292.35V1319.65H1501.65V1422.38H1395.07V1436.89H1480.33ZM1386.34 1413.64H1492.92V1328.38H1301.08V1648.12H1492.92V1562.86H1386.34V1530.88H1471.6V1445.62H1386.34V1413.64ZM1672.18 1656.85H1569.45V1422.38H1505.5V1319.65H1736.12V1422.38H1672.18V1656.85ZM1578.18 1413.64V1648.12H1663.45V1413.64H1727.39V1328.38H1514.24V1413.64H1578.18ZM1739.98 1470.55V1319.65H1842.7V1436.89H1867.87V1319.65H1970.6V1470.55L1906.65 1534.5V1656.85H1803.92V1534.5L1739.98 1470.55ZM1812.66 1530.88L1748.71 1466.93V1328.38H1833.97V1445.62H1876.6V1328.38H1961.86V1466.93L1897.92 1530.88V1648.12H1812.66V1530.88ZM789.499 1328.38L725.552 1392.33V1584.17L789.499 1648.12H874.763L938.709 1584.17V1392.33L874.763 1328.38H789.499ZM1279.76 1648.12V1328.38H1194.5V1648.12H1279.76Z" fill="#0B0B13"/>
<path d="M704.239 1389.38H618.978V1378.72H576.345V1410.7H640.292L704.239 1474.64V1549.25L640.292 1613.2H555.03L491.083 1549.25V1517.28H576.345V1527.93H618.978V1495.96H555.03L491.083 1432.01V1357.41L555.03 1293.46H640.292L704.239 1357.41V1389.38Z" fill="#FFE666"/>
<path d="M725.554 1357.41L789.501 1293.46H874.765L938.712 1357.41V1549.25L874.765 1613.2H789.501L725.554 1549.25V1357.41ZM810.816 1378.72V1527.93H853.448V1378.72H810.816Z" fill="#FFE666"/>
<path d="M1173.18 1400.04H1087.92V1378.72H1045.29V1527.93H1087.92V1506.62H1173.18V1549.25L1109.24 1613.2H1023.98L960.027 1549.25V1357.41L1023.98 1293.46H1109.24L1173.18 1357.41V1400.04Z" fill="#FFE666"/>
<path d="M1279.76 1613.2H1194.5V1293.46H1279.76V1613.2Z" fill="#FFE666"/>
<path d="M1386.34 1410.7H1471.61V1495.96H1386.34V1527.93H1492.92V1613.2H1301.08V1293.46H1492.92V1378.72H1386.34V1410.7Z" fill="#FFE666"/>
<path d="M1663.45 1378.72V1613.2H1578.19V1378.72H1514.24V1293.46H1727.4V1378.72H1663.45Z" fill="#FFE666"/>
<path d="M1812.66 1495.96L1748.71 1432.01V1293.46H1833.97V1410.7H1876.6V1293.46H1961.87V1432.01L1897.92 1495.96V1613.2H1812.66V1495.96Z" fill="#FFE666"/>
<path fill-rule="evenodd" clip-rule="evenodd" d="M712.968 1398.11H610.243V1387.45H585.071V1401.97H643.905L712.968 1471.03V1552.86L643.905 1621.93H551.409L482.347 1552.86V1508.54H585.071V1519.2H610.243V1504.69H551.409L482.347 1435.63V1353.79L551.409 1284.73H643.905L712.968 1353.79V1398.11ZM618.973 1495.96V1527.93H576.341V1517.27H491.078V1549.25L555.025 1613.2H640.288L704.235 1549.25V1474.64L640.288 1410.7H576.341V1378.72H618.973V1389.38H704.235V1357.41L640.288 1293.46H555.025L491.078 1357.41V1432.01L555.025 1495.96H618.973ZM716.822 1353.79L785.881 1284.73H878.377L947.44 1353.79V1552.86L878.377 1621.93H785.881L716.822 1552.86V1353.79ZM810.816 1527.93V1378.72H853.445V1527.93H810.816ZM844.715 1519.2V1387.45H819.546V1519.2H844.715ZM1181.91 1408.77H1079.19V1387.45H1054.02V1519.2H1079.19V1497.89H1181.91V1552.86L1112.85 1621.93H1020.36L951.294 1552.86V1353.79L1020.36 1284.73H1112.85L1181.91 1353.79V1408.77ZM1087.92 1527.93H1045.29V1378.72H1087.92V1400.04H1173.18V1357.41L1109.23 1293.46H1023.97L960.024 1357.41V1549.25L1023.97 1613.2H1109.23L1173.18 1549.25V1506.62H1087.92V1527.93ZM1288.49 1621.93H1185.77V1284.73H1288.49V1621.93ZM1480.33 1401.97V1504.69H1395.07V1519.2H1501.65V1621.93H1292.35V1284.73H1501.65V1387.45H1395.07V1401.97H1480.33ZM1386.34 1378.72H1492.92V1293.46H1301.08V1613.2H1492.92V1527.93H1386.34V1495.96H1471.6V1410.7H1386.34V1378.72ZM1672.18 1621.93H1569.45V1387.45H1505.5V1284.73H1736.12V1387.45H1672.18V1621.93ZM1578.18 1378.72V1613.2H1663.45V1378.72H1727.39V1293.46H1514.24V1378.72H1578.18ZM1739.98 1435.63V1284.73H1842.7V1401.97H1867.87V1284.73H1970.6V1435.63L1906.65 1499.57V1621.93H1803.92V1499.57L1739.98 1435.63ZM1812.66 1495.96L1748.71 1432.01V1293.46H1833.97V1410.7H1876.6V1293.46H1961.87V1432.01L1897.92 1495.96V1613.2H1812.66V1495.96ZM789.499 1293.46L725.552 1357.41V1549.25L789.499 1613.2H874.763L938.709 1549.25V1357.41L874.763 1293.46H789.499ZM1279.76 1613.2V1293.46H1194.5V1613.2H1279.76Z" fill="#0B0B13"/>
<path d="M2229.63 927.849H2175.06V933.306H2229.63V927.849Z" fill="#F7FEFF"/>
<path d="M2175.06 895.109H2164.15V900.566H2169.61V927.851H2175.06V895.109Z" fill="#F7FEFF"/>
<path d="M2229.63 895.109V927.851H2235.08V900.566H2240.54V895.109H2229.63Z" fill="#F7FEFF"/>
<path d="M2224.18 889.652H2218.72V895.109H2224.18V889.652Z" fill="#25BAA6"/>
<path d="M2185.97 889.652H2180.52V895.109H2185.97V889.652Z" fill="#25BAA6"/>
<path d="M2246 884.195H2240.54V895.109H2246V884.195Z" fill="#F7FEFF"/>
<path d="M2240.55 884.195H2235.09V889.652H2224.18V922.393H2180.52V889.652H2169.61V884.195H2164.15V895.109H2175.06V927.85H2229.63V895.109H2240.55V884.195Z" fill="#231E2B"/>
<path d="M2235.08 884.195H2229.63V889.652H2235.08V884.195Z" fill="#9AF7EA"/>
<path d="M2224.17 884.197V878.741H2218.71V873.284H2213.26V867.827H2207.8V862.37H2196.89V867.827H2191.43V873.284H2185.97V878.741H2180.52V884.197H2175.06V889.654H2185.97V895.111H2180.52V922.395H2224.17V895.111H2218.71V889.654H2229.63V884.197H2224.17Z" fill="#5FDFCE"/>
<path d="M2175.06 884.195H2169.6V889.652H2175.06V884.195Z" fill="#9AF7EA"/>
<path d="M2164.15 884.195H2158.69V895.109H2164.15V884.195Z" fill="#F7FEFF"/>
<path d="M2240.54 878.74H2235.09V884.197H2240.54V878.74Z" fill="#F7FEFF"/>
<path d="M2235.08 878.74H2229.63V884.197H2235.08V878.74Z" fill="#231E2B"/>
<path d="M2229.63 878.74H2224.17V884.197H2229.63V878.74Z" fill="#9AF7EA"/>
<path d="M2180.52 878.74H2175.06V884.197H2180.52V878.74Z" fill="#9AF7EA"/>
<path d="M2175.06 878.74H2169.6V884.197H2175.06V878.74Z" fill="#231E2B"/>
<path d="M2169.61 878.74H2164.15V884.197H2169.61V878.74Z" fill="#F7FEFF"/>
<path d="M2235.08 873.283H2229.63V878.74H2235.08V873.283Z" fill="#F7FEFF"/>
<path d="M2229.63 873.283H2224.17V878.74H2229.63V873.283Z" fill="#231E2B"/>
<path d="M2224.18 873.283H2218.72V878.74H2224.18V873.283Z" fill="#9AF7EA"/>
<path d="M2185.97 873.283H2180.52V878.74H2185.97V873.283Z" fill="#9AF7EA"/>
<path d="M2180.52 873.283H2175.06V878.74H2180.52V873.283Z" fill="#231E2B"/>
<path d="M2175.06 873.283H2169.6V878.74H2175.06V873.283Z" fill="#F7FEFF"/>
<path d="M2229.63 867.826H2224.17V873.283H2229.63V867.826Z" fill="#F7FEFF"/>
<path d="M2224.18 867.826H2218.72V873.283H2224.18V867.826Z" fill="#231E2B"/>
<path d="M2218.72 867.826H2213.26V873.283H2218.72V867.826Z" fill="#9AF7EA"/>
<path d="M2191.43 867.826H2185.97V873.283H2191.43V867.826Z" fill="#9AF7EA"/>
<path d="M2185.97 867.826H2180.52V873.283H2185.97V867.826Z" fill="#231E2B"/>
<path d="M2180.52 867.826H2175.06V873.283H2180.52V867.826Z" fill="#F7FEFF"/>
<path d="M2224.18 862.37H2218.72V867.827H2224.18V862.37Z" fill="#F7FEFF"/>
<path d="M2218.72 862.37H2213.26V867.827H2218.72V862.37Z" fill="#231E2B"/>
<path d="M2213.26 862.37H2207.81V867.827H2213.26V862.37Z" fill="#9AF7EA"/>
<path d="M2196.89 862.37H2191.43V867.827H2196.89V862.37Z" fill="#9AF7EA"/>
<path d="M2191.43 862.37H2185.97V867.827H2191.43V862.37Z" fill="#231E2B"/>
<path d="M2185.97 862.37H2180.52V867.827H2185.97V862.37Z" fill="#F7FEFF"/>
<path d="M2218.72 856.914H2213.26V862.371H2218.72V856.914Z" fill="#F7FEFF"/>
<path d="M2213.26 856.914H2207.81V862.371H2213.26V856.914Z" fill="#231E2B"/>
<path d="M2207.81 856.914H2196.89V862.371H2207.81V856.914Z" fill="#9AF7EA"/>
<path d="M2196.89 856.914H2191.43V862.371H2196.89V856.914Z" fill="#231E2B"/>
<path d="M2191.43 856.914H2185.97V862.371H2191.43V856.914Z" fill="#F7FEFF"/>
<path d="M2213.26 851.457H2207.81V856.914H2213.26V851.457Z" fill="#F7FEFF"/>
<path d="M2207.81 851.457H2196.89V856.914H2207.81V851.457Z" fill="#231E2B"/>
<path d="M2196.89 851.457H2191.43V856.914H2196.89V851.457Z" fill="#F7FEFF"/>
<path d="M2207.81 846H2196.89V851.457H2207.81V846Z" fill="#F7FEFF"/>
<path d="M342.657 1249.81V930.071H427.92V1164.54H534.499V1249.81H342.657Z" fill="#8543FF"/>
<path d="M641.075 1047.31H726.339V1132.57H641.075V1164.54H747.654V1249.81H555.812V930.071H747.654V1015.33H641.075V1047.31Z" fill="#8543FF"/>
<path d="M768.972 930.071H854.236V1164.54H896.868V930.071H982.129V1164.54L918.183 1249.81H832.921L768.972 1164.54V930.071Z" fill="#8543FF"/>
<path d="M1088.71 1047.31H1173.97V1132.57H1088.71V1164.54H1195.29V1249.81H1003.45V930.071H1195.29V1015.33H1088.71V1047.31Z" fill="#8543FF"/>
<path d="M1216.6 1249.81V930.071H1301.87V1164.54H1408.44V1249.81H1216.6Z" fill="#8543FF"/>
<path d="M1642.92 1132.57H1429.76V1047.31H1642.92V1132.57Z" fill="#8543FF"/>
<path d="M1664.23 930.071H1749.49V1164.54H1792.13V930.071H1877.39V1185.86L1813.44 1249.81H1728.18L1664.23 1185.86V930.071Z" fill="#8543FF"/>
<path d="M2047.91 930.071L2111.86 994.019V1068.62L2047.91 1132.57H1983.97V1249.81H1898.7V930.071H2047.91ZM2026.6 1015.33H1983.97V1047.31H2026.6V1015.33Z" fill="#8543FF"/>
<path fill-rule="evenodd" clip-rule="evenodd" d="M333.925 1258.54V921.339H436.65V1155.81H543.229V1258.54H333.925ZM427.919 1164.54V930.07H342.656V1249.81H534.498V1164.54H427.919ZM735.071 1038.58V1141.3H649.807V1155.81H756.386V1258.54H547.083V921.339H756.386V1024.06H649.807V1038.58H735.071ZM641.077 1015.33H747.656V930.07H555.814V1249.81H747.656V1164.54H641.077V1132.57H726.341V1047.31H641.077V1015.33ZM760.24 921.339H862.965V1155.81H888.136V921.339H990.861V1167.45L922.548 1258.54H828.553L760.24 1167.45V921.339ZM896.866 1164.54H854.234V930.07H768.97V1164.54L832.92 1249.81H918.181L982.128 1164.54V930.07H896.866V1164.54ZM1182.7 1038.58V1141.3H1097.44V1155.81H1204.02V1258.54H994.715V921.339H1204.02V1024.06H1097.44V1038.58H1182.7ZM1088.71 1015.33H1195.29V930.07H1003.45V1249.81H1195.29V1164.54H1088.71V1132.57H1173.97V1047.31H1088.71V1015.33ZM1207.87 1258.54V921.339H1310.6V1155.81H1417.18V1258.54H1207.87ZM1301.87 1164.54V930.07H1216.6V1249.81H1408.45V1164.54H1301.87ZM1651.65 1141.3H1421.03V1038.58H1651.65V1141.3ZM1655.5 921.339H1758.23V1155.81H1783.4V921.339H1886.12V1189.48L1817.06 1258.54H1724.56L1655.5 1189.48V921.339ZM1792.13 1164.54H1749.5V930.07H1664.24V1185.86L1728.18 1249.81H1813.44L1877.39 1185.86V930.07H1792.13V1164.54ZM2051.54 921.339L2120.59 990.4V1072.24L2051.54 1141.3H1992.7V1258.54H1889.98V921.339H2051.54ZM1983.97 1132.57H2047.92L2111.86 1068.62V994.017L2047.92 930.07H1898.71V1249.81H1983.97V1132.57ZM1983.97 1015.33H2026.6V1047.31H1983.97V1015.33ZM1992.7 1038.58H2017.87V1024.06H1992.7V1038.58ZM1642.92 1132.57V1047.31H1429.76V1132.57H1642.92Z" fill="#0B0B13"/>
<path d="M342.657 1214.88V895.144H427.92V1129.62H534.499V1214.88H342.657Z" fill="#5FDFCE"/>
<path d="M641.075 1012.38H726.339V1097.64H641.075V1129.62H747.654V1214.88H555.812V895.144H747.654V980.407H641.075V1012.38Z" fill="#5FDFCE"/>
<path d="M768.972 895.144H854.236V1129.62H896.868V895.144H982.129V1129.62L918.183 1214.88H832.921L768.972 1129.62V895.144Z" fill="#5FDFCE"/>
<path d="M1088.71 1012.38H1173.97V1097.64H1088.71V1129.62H1195.29V1214.88H1003.45V895.144H1195.29V980.407H1088.71V1012.38Z" fill="#5FDFCE"/>
<path d="M1216.6 1214.88V895.144H1301.87V1129.62H1408.44V1214.88H1216.6Z" fill="#5FDFCE"/>
<path d="M1642.92 1097.64H1429.76V1012.38H1642.92V1097.64Z" fill="#5FDFCE"/>
<path d="M1664.23 895.144H1749.49V1129.62H1792.13V895.144H1877.39V1150.93L1813.44 1214.88H1728.18L1664.23 1150.93V895.144Z" fill="#5FDFCE"/>
<path d="M2047.91 895.144L2111.86 959.091V1033.7L2047.91 1097.64H1983.97V1214.88H1898.7V895.144H2047.91ZM2026.6 980.407H1983.97V1012.38H2026.6V980.407Z" fill="#5FDFCE"/>
<path fill-rule="evenodd" clip-rule="evenodd" d="M333.925 1223.62V886.419H436.65V1120.89H543.229V1223.62H333.925ZM427.919 1129.62V895.15H342.656V1214.89H534.498V1129.62H427.919ZM735.071 1003.66V1106.38H649.807V1120.89H756.386V1223.62H547.083V886.419H756.386V989.144H649.807V1003.66H735.071ZM641.077 980.413H747.656V895.15H555.814V1214.89H747.656V1129.62H641.077V1097.65H726.341V1012.39H641.077V980.413ZM760.24 886.419H862.965V1120.89H888.136V886.419H990.861V1132.53L922.548 1223.62H828.553L760.24 1132.53V886.419ZM896.866 1129.62H854.234V895.15H768.97V1129.62L832.92 1214.89H918.181L982.128 1129.62V895.15H896.866V1129.62ZM1182.7 1003.66V1106.38H1097.44V1120.89H1204.02V1223.62H994.715V886.419H1204.02V989.144H1097.44V1003.66H1182.7ZM1088.71 980.413H1195.29V895.15H1003.45V1214.89H1195.29V1129.62H1088.71V1097.65H1173.97V1012.39H1088.71V980.413ZM1207.87 1223.62V886.419H1310.6V1120.89H1417.18V1223.62H1207.87ZM1301.87 1129.62V895.15H1216.6V1214.89H1408.45V1129.62H1301.87ZM1651.65 1106.38H1421.03V1003.66H1651.65V1106.38ZM1655.5 886.419H1758.23V1120.89H1783.4V886.419H1886.12V1154.55L1817.06 1223.62H1724.56L1655.5 1154.55V886.419ZM1792.13 1129.62H1749.5V895.15H1664.24V1150.94L1728.18 1214.89H1813.44L1877.39 1150.94V895.15H1792.13V1129.62ZM2051.54 886.419L2120.59 955.481V1037.32L2051.54 1106.38H1992.7V1223.62H1889.98V886.419H2051.54ZM1983.97 1097.65H2047.92L2111.86 1033.7V959.097L2047.92 895.15H1898.71V1214.89H1983.97V1097.65ZM1983.97 980.413H2026.6V1012.39H1983.97V980.413ZM1992.7 1003.66H2017.87V989.144H1992.7V1003.66ZM1642.92 1097.65V1012.39H1429.76V1097.65H1642.92Z" fill="#0B0B13"/>
</g>
<defs>
<clipPath id="clip0_158_1409">
<rect width="1987" height="812.182" fill="white" transform="translate(259 846)"/>
</clipPath>
</defs>
</svg>
