<svg width="2504" height="2504" viewBox="0 0 2504 2504" fill="none" xmlns="http://www.w3.org/2000/svg">
<rect x="12" y="12" width="2480" height="2480" rx="181.957" fill="white" stroke="#DEDEDE" stroke-width="23"/>
<path d="M835.381 548.856C822.21 548.856 809.991 546.714 798.724 542.429C787.615 538.145 777.935 532.114 769.683 524.338C761.59 516.563 755.242 507.438 750.64 496.964C746.196 486.49 743.975 475.065 743.975 462.686C743.975 450.308 746.196 438.883 750.64 428.409C755.242 417.935 761.669 408.81 769.921 401.035C778.173 393.259 787.853 387.228 798.962 382.944C810.07 378.659 822.131 376.517 835.143 376.517C848.315 376.517 860.376 378.659 871.325 382.944C882.434 387.228 892.035 393.259 900.128 401.035C908.38 408.81 914.807 417.935 919.409 428.409C924.011 438.724 926.312 450.15 926.312 462.686C926.312 475.065 924.011 486.57 919.409 497.202C914.807 507.676 908.38 516.801 900.128 524.577C892.035 532.194 882.434 538.145 871.325 542.429C860.376 546.714 848.394 548.856 835.381 548.856ZM835.143 516.007C842.602 516.007 849.426 514.738 855.615 512.199C861.962 509.659 867.517 506.01 872.277 501.249C877.038 496.488 880.688 490.854 883.227 484.348C885.925 477.842 887.274 470.621 887.274 462.686C887.274 454.752 885.925 447.531 883.227 441.025C880.688 434.519 877.038 428.885 872.277 424.124C867.675 419.363 862.2 415.714 855.853 413.174C849.505 410.635 842.602 409.366 835.143 409.366C827.685 409.366 820.782 410.635 814.434 413.174C808.245 415.714 802.77 419.363 798.009 424.124C793.249 428.885 789.519 434.519 786.822 441.025C784.283 447.531 783.013 454.752 783.013 462.686C783.013 470.462 784.283 477.683 786.822 484.348C789.519 490.854 793.169 496.488 797.771 501.249C802.532 506.01 808.086 509.659 814.434 512.199C820.782 514.738 827.685 516.007 835.143 516.007ZM955.293 546V379.373H1027.42C1042.34 379.373 1055.19 381.833 1065.98 386.752C1076.77 391.513 1085.1 398.416 1090.98 407.462C1096.85 416.507 1099.78 427.298 1099.78 439.835C1099.78 452.213 1096.85 462.925 1090.98 471.97C1085.1 480.857 1076.77 487.681 1065.98 492.441C1055.19 497.202 1042.34 499.582 1027.42 499.582H976.717L993.856 482.682V546H955.293ZM1061.22 546L1019.56 485.538H1060.74L1102.88 546H1061.22ZM993.856 486.966L976.717 468.876H1025.28C1037.18 468.876 1046.07 466.336 1051.94 461.258C1057.81 456.021 1060.74 448.88 1060.74 439.835C1060.74 430.631 1057.81 423.489 1051.94 418.411C1046.07 413.333 1037.18 410.794 1025.28 410.794H976.717L993.856 392.465V486.966ZM1108.44 546L1182.7 379.373H1220.79L1295.3 546H1254.83L1193.89 398.892H1209.13L1147.95 546H1108.44ZM1145.57 510.294L1155.81 481.015H1241.5L1251.97 510.294H1145.57ZM1390 548.856C1377.15 548.856 1365.17 546.793 1354.06 542.667C1343.11 538.383 1333.59 532.352 1325.49 524.577C1317.4 516.801 1311.05 507.676 1306.45 497.202C1302.01 486.728 1299.79 475.223 1299.79 462.686C1299.79 450.15 1302.01 438.645 1306.45 428.171C1311.05 417.697 1317.4 408.572 1325.49 400.796C1333.75 393.021 1343.35 387.07 1354.3 382.944C1365.25 378.659 1377.23 376.517 1390.24 376.517C1404.68 376.517 1417.69 379.056 1429.28 384.134C1441.02 389.053 1450.86 396.353 1458.8 406.033L1434.04 428.885C1428.33 422.379 1421.98 417.539 1415 414.365C1408.01 411.032 1400.4 409.366 1392.14 409.366C1384.37 409.366 1377.23 410.635 1370.72 413.174C1364.21 415.714 1358.58 419.363 1353.82 424.124C1349.06 428.885 1345.33 434.519 1342.63 441.025C1340.09 447.531 1338.82 454.752 1338.82 462.686C1338.82 470.621 1340.09 477.842 1342.63 484.348C1345.33 490.854 1349.06 496.488 1353.82 501.249C1358.58 506.01 1364.21 509.659 1370.72 512.199C1377.23 514.738 1384.37 516.007 1392.14 516.007C1400.4 516.007 1408.01 514.42 1415 511.246C1421.98 507.914 1428.33 502.915 1434.04 496.25L1458.8 519.102C1450.86 528.782 1441.02 536.161 1429.28 541.239C1417.69 546.317 1404.6 548.856 1390 548.856ZM1484.84 546V379.373H1523.4V514.579H1606.95V546H1484.84ZM1663.96 446.5H1744.18V476.493H1663.96V446.5ZM1666.82 515.055H1757.51V546H1628.5V379.373H1754.42V410.318H1666.82V515.055Z" fill="#3F3F3F"/>
<path d="M1596 959V959C1596 837.497 1497.5 739 1376 739H1088C893.596 739 736 896.596 736 1091V2213V2213C926.671 2213 1081.24 2058.43 1081.24 1867.76V1617" stroke="#3F3F3F" stroke-width="45"/>
<path d="M1321.82 1094.3L1355.15 1111.55C1501.29 1187.22 1635.25 1284.38 1752.55 1399.8L1768 1415" stroke="#3F3F3F" stroke-width="45"/>
<path d="M1030 1491L1049.02 1449.16C1152.35 1221.84 1339.29 1043.07 1571 950V950" stroke="#3F3F3F" stroke-width="45"/>
<rect x="1031.5" y="910.5" width="737" height="887" rx="368.5" stroke="#3F3F3F" stroke-width="45"/>
</svg>
