<svg width="80" height="80" viewBox="0 0 80 80" fill="none" xmlns="http://www.w3.org/2000/svg">
<path d="M40 52.5C46.9036 52.5 52.5 46.9036 52.5 40C52.5 33.0964 46.9036 27.5 40 27.5C33.0964 27.5 27.5 33.0964 27.5 40C27.5 46.9036 33.0964 52.5 40 52.5Z" stroke="url(#paint0_linear_147_338)" stroke-width="5" stroke-miterlimit="10"/>
<path d="M53.75 11.25H26.25C17.9657 11.25 11.25 17.9657 11.25 26.25V53.75C11.25 62.0343 17.9657 68.75 26.25 68.75H53.75C62.0343 68.75 68.75 62.0343 68.75 53.75V26.25C68.75 17.9657 62.0343 11.25 53.75 11.25Z" stroke="url(#paint1_linear_147_338)" stroke-width="5" stroke-linecap="round" stroke-linejoin="round"/>
<path d="M56.25 27.5C58.3211 27.5 60 25.8211 60 23.75C60 21.6789 58.3211 20 56.25 20C54.1789 20 52.5 21.6789 52.5 23.75C52.5 25.8211 54.1789 27.5 56.25 27.5Z" fill="url(#paint2_linear_147_338)"/>
<defs>
<linearGradient id="paint0_linear_147_338" x1="40" y1="27.5" x2="40" y2="52.5" gradientUnits="userSpaceOnUse">
<stop stop-color="#FEDA75"/>
<stop offset="0.322917" stop-color="#FA7E1E"/>
<stop offset="0.59375" stop-color="#D62976" stop-opacity="0.859375"/>
<stop offset="0.8125" stop-color="#962FBF" stop-opacity="0.8"/>
<stop offset="1" stop-color="#4F5BD5" stop-opacity="0.75"/>
</linearGradient>
<linearGradient id="paint1_linear_147_338" x1="40" y1="11.25" x2="40" y2="68.75" gradientUnits="userSpaceOnUse">
<stop stop-color="#FEDA75"/>
<stop offset="0.322917" stop-color="#FA7E1E"/>
<stop offset="0.59375" stop-color="#D62976" stop-opacity="0.85"/>
<stop offset="0.8125" stop-color="#962FBF" stop-opacity="0.8"/>
<stop offset="1" stop-color="#4F5BD5" stop-opacity="0.75"/>
<stop offset="1" stop-color="#4F5BD5" stop-opacity="0.75"/>
</linearGradient>
<linearGradient id="paint2_linear_147_338" x1="56.25" y1="20" x2="56.25" y2="27.5" gradientUnits="userSpaceOnUse">
<stop stop-color="#FEDA75"/>
<stop offset="0.395833" stop-color="#FA7E1E"/>
<stop offset="0.635417" stop-color="#D62976" stop-opacity="0.85"/>
<stop offset="1" stop-color="#962FBF" stop-opacity="0.8"/>
</linearGradient>
</defs>
</svg>
