<svg width="2504" height="2504" viewBox="0 0 2504 2504" fill="none" xmlns="http://www.w3.org/2000/svg">
<rect x="12" y="12" width="2480" height="2480" rx="181.957" fill="#FFF8FD" stroke="#FFD9F4" stroke-width="23"/>
<path d="M373.178 1343.73H280V1551H776.314L886.606 1440.71V1250.55L793.428 1157.37H886.606V952H388.39L280 1060.39V1250.55L373.178 1343.73Z" fill="#EA33BE"/>
<path d="M1245.97 1217.76C1245.5 1211.83 1243.27 1207.2 1239.3 1203.88C1235.39 1200.56 1229.43 1198.9 1221.42 1198.9C1216.32 1198.9 1212.14 1199.53 1208.88 1200.77C1205.68 1201.96 1203.31 1203.59 1201.76 1205.66C1200.22 1207.74 1199.42 1210.11 1199.36 1212.78C1199.24 1214.97 1199.63 1216.96 1200.52 1218.74C1201.47 1220.46 1202.95 1222.03 1204.97 1223.45C1206.98 1224.82 1209.56 1226.06 1212.7 1227.19C1215.85 1228.31 1219.58 1229.32 1223.91 1230.21L1238.85 1233.41C1248.93 1235.55 1257.56 1238.37 1264.74 1241.86C1271.91 1245.36 1277.78 1249.48 1282.35 1254.23C1286.91 1258.91 1290.26 1264.19 1292.4 1270.06C1294.59 1275.93 1295.72 1282.33 1295.78 1289.27C1295.72 1301.25 1292.73 1311.39 1286.8 1319.69C1280.87 1327.99 1272.39 1334.31 1261.36 1338.64C1250.39 1342.96 1237.19 1345.13 1221.78 1345.13C1205.94 1345.13 1192.13 1342.79 1180.33 1338.1C1168.59 1333.42 1159.46 1326.21 1152.93 1316.49C1146.47 1306.7 1143.21 1294.19 1143.15 1278.95H1190.11C1190.41 1284.53 1191.8 1289.21 1194.29 1293.01C1196.78 1296.8 1200.28 1299.68 1204.79 1301.63C1209.35 1303.59 1214.78 1304.57 1221.06 1304.57C1226.34 1304.57 1230.76 1303.92 1234.32 1302.61C1237.88 1301.31 1240.57 1299.5 1242.41 1297.19C1244.25 1294.87 1245.2 1292.24 1245.26 1289.27C1245.2 1286.48 1244.28 1284.05 1242.5 1281.98C1240.78 1279.84 1237.93 1277.95 1233.96 1276.29C1229.99 1274.57 1224.62 1272.96 1217.86 1271.48L1199.72 1267.57C1183.59 1264.07 1170.87 1258.23 1161.56 1250.05C1152.31 1241.8 1147.71 1230.57 1147.77 1216.34C1147.71 1204.77 1150.8 1194.66 1157.02 1186.01C1163.31 1177.29 1172 1170.5 1183.09 1165.64C1194.23 1160.78 1207.01 1158.34 1221.42 1158.34C1236.13 1158.34 1248.85 1160.8 1259.58 1165.73C1270.31 1170.65 1278.58 1177.59 1284.39 1186.54C1290.26 1195.43 1293.23 1205.84 1293.29 1217.76H1245.97ZM1314.59 1342.99V1160.83H1364.04V1231.99H1429.51V1160.83H1478.96V1342.99H1429.51V1271.84H1364.04V1342.99H1314.59ZM1678.91 1251.91C1678.91 1272.19 1674.97 1289.3 1667.08 1303.24C1659.19 1317.11 1648.55 1327.64 1635.15 1334.81C1621.75 1341.93 1606.81 1345.48 1590.32 1345.48C1573.72 1345.48 1558.72 1341.9 1545.31 1334.72C1531.97 1327.49 1521.36 1316.93 1513.47 1303.06C1505.65 1289.12 1501.73 1272.08 1501.73 1251.91C1501.73 1231.63 1505.65 1214.56 1513.47 1200.68C1521.36 1186.75 1531.97 1176.22 1545.31 1169.11C1558.72 1161.93 1573.72 1158.34 1590.32 1158.34C1606.81 1158.34 1621.75 1161.93 1635.15 1169.11C1648.55 1176.22 1659.19 1186.75 1667.08 1200.68C1674.97 1214.56 1678.91 1231.63 1678.91 1251.91ZM1628.03 1251.91C1628.03 1241 1626.58 1231.81 1623.68 1224.34C1620.83 1216.81 1616.59 1211.12 1610.96 1207.26C1605.38 1203.35 1598.5 1201.39 1590.32 1201.39C1582.14 1201.39 1575.23 1203.35 1569.6 1207.26C1564.02 1211.12 1559.78 1216.81 1556.88 1224.34C1554.03 1231.81 1552.61 1241 1552.61 1251.91C1552.61 1262.83 1554.03 1272.05 1556.88 1279.58C1559.78 1287.05 1564.02 1292.74 1569.6 1296.65C1575.23 1300.51 1582.14 1302.44 1590.32 1302.44C1598.5 1302.44 1605.38 1300.51 1610.96 1296.65C1616.59 1292.74 1620.83 1287.05 1623.68 1279.58C1626.58 1272.05 1628.03 1262.83 1628.03 1251.91ZM1878.26 1251.91C1878.26 1272.19 1874.32 1289.3 1866.43 1303.24C1858.54 1317.11 1847.9 1327.64 1834.5 1334.81C1821.1 1341.93 1806.15 1345.48 1789.67 1345.48C1773.07 1345.48 1758.06 1341.9 1744.66 1334.72C1731.32 1327.49 1720.71 1316.93 1712.82 1303.06C1704.99 1289.12 1701.08 1272.08 1701.08 1251.91C1701.08 1231.63 1704.99 1214.56 1712.82 1200.68C1720.71 1186.75 1731.32 1176.22 1744.66 1169.11C1758.06 1161.93 1773.07 1158.34 1789.67 1158.34C1806.15 1158.34 1821.1 1161.93 1834.5 1169.11C1847.9 1176.22 1858.54 1186.75 1866.43 1200.68C1874.32 1214.56 1878.26 1231.63 1878.26 1251.91ZM1827.38 1251.91C1827.38 1241 1825.93 1231.81 1823.02 1224.34C1820.18 1216.81 1815.94 1211.12 1810.3 1207.26C1804.73 1203.35 1797.85 1201.39 1789.67 1201.39C1781.49 1201.39 1774.58 1203.35 1768.95 1207.26C1763.37 1211.12 1759.13 1216.81 1756.23 1224.34C1753.38 1231.81 1751.96 1241 1751.96 1251.91C1751.96 1262.83 1753.38 1272.05 1756.23 1279.58C1759.13 1287.05 1763.37 1292.74 1768.95 1296.65C1774.58 1300.51 1781.49 1302.44 1789.67 1302.44C1797.85 1302.44 1804.73 1300.51 1810.3 1296.65C1815.94 1292.74 1820.18 1287.05 1823.02 1279.58C1825.93 1272.05 1827.38 1262.83 1827.38 1251.91ZM1901.14 1342.99V1160.83H1980.12C1994 1160.83 2005.65 1162.7 2015.08 1166.44C2024.57 1170.17 2031.71 1175.45 2036.51 1182.27C2041.38 1189.09 2043.81 1197.12 2043.81 1206.37C2043.81 1213.07 2042.33 1219.18 2039.36 1224.7C2036.46 1230.21 2032.36 1234.84 2027.09 1238.57C2021.81 1242.25 2015.64 1244.8 2008.59 1246.22V1248C2016.41 1248.3 2023.53 1250.28 2029.93 1253.96C2036.34 1257.58 2041.44 1262.59 2045.23 1268.99C2049.03 1275.34 2050.92 1282.81 2050.92 1291.41C2050.92 1301.37 2048.31 1310.23 2043.1 1318C2037.94 1325.77 2030.58 1331.88 2021.04 1336.32C2011.49 1340.77 2000.11 1342.99 1986.88 1342.99H1901.14ZM1950.59 1303.5H1973.72C1982.02 1303.5 1988.25 1301.96 1992.4 1298.88C1996.55 1295.73 1998.62 1291.11 1998.62 1285C1998.62 1280.73 1997.65 1277.12 1995.69 1274.15C1993.73 1271.19 1990.94 1268.93 1987.33 1267.39C1983.77 1265.85 1979.47 1265.08 1974.43 1265.08H1950.59V1303.5ZM1950.59 1234.48H1970.87C1975.2 1234.48 1979.03 1233.8 1982.35 1232.44C1985.67 1231.07 1988.25 1229.11 1990.09 1226.57C1991.98 1223.96 1992.93 1220.78 1992.93 1217.05C1992.93 1211.41 1990.92 1207.12 1986.88 1204.15C1982.85 1201.13 1977.75 1199.61 1971.58 1199.61H1950.59V1234.48ZM2166.64 1217.76C2166.17 1211.83 2163.94 1207.2 2159.97 1203.88C2156.06 1200.56 2150.1 1198.9 2142.09 1198.9C2136.99 1198.9 2132.81 1199.53 2129.55 1200.77C2126.35 1201.96 2123.98 1203.59 2122.44 1205.66C2120.89 1207.74 2120.09 1210.11 2120.03 1212.78C2119.92 1214.97 2120.3 1216.96 2121.19 1218.74C2122.14 1220.46 2123.62 1222.03 2125.64 1223.45C2127.65 1224.82 2130.23 1226.06 2133.38 1227.19C2136.52 1228.31 2140.25 1229.32 2144.58 1230.21L2159.53 1233.41C2169.61 1235.55 2178.23 1238.37 2185.41 1241.86C2192.58 1245.36 2198.45 1249.48 2203.02 1254.23C2207.59 1258.91 2210.94 1264.19 2213.07 1270.06C2215.26 1275.93 2216.39 1282.33 2216.45 1289.27C2216.39 1301.25 2213.4 1311.39 2207.47 1319.69C2201.54 1327.99 2193.06 1334.31 2182.03 1338.64C2171.06 1342.96 2157.87 1345.13 2142.45 1345.13C2126.62 1345.13 2112.8 1342.79 2101 1338.1C2089.26 1333.42 2080.13 1326.21 2073.6 1316.49C2067.14 1306.7 2063.88 1294.19 2063.82 1278.95H2110.78C2111.08 1284.53 2112.47 1289.21 2114.96 1293.01C2117.45 1296.8 2120.95 1299.68 2125.46 1301.63C2130.03 1303.59 2135.45 1304.57 2141.74 1304.57C2147.01 1304.57 2151.43 1303.92 2154.99 1302.61C2158.55 1301.31 2161.25 1299.5 2163.08 1297.19C2164.92 1294.87 2165.87 1292.24 2165.93 1289.27C2165.87 1286.48 2164.95 1284.05 2163.17 1281.98C2161.45 1279.84 2158.61 1277.95 2154.63 1276.29C2150.66 1274.57 2145.29 1272.96 2138.53 1271.48L2120.39 1267.57C2104.26 1264.07 2091.54 1258.23 2082.23 1250.05C2072.98 1241.8 2068.39 1230.57 2068.45 1216.34C2068.39 1204.77 2071.47 1194.66 2077.7 1186.01C2083.98 1177.29 2092.67 1170.5 2103.76 1165.64C2114.9 1160.78 2127.68 1158.34 2142.09 1158.34C2156.8 1158.34 2169.52 1160.8 2180.25 1165.73C2190.98 1170.65 2199.25 1177.59 2205.07 1186.54C2210.94 1195.43 2213.9 1205.84 2213.96 1217.76H2166.64Z" fill="black"/>
</svg>
