<svg width="2503" height="2504" viewBox="0 0 2503 2504" fill="none" xmlns="http://www.w3.org/2000/svg">
<rect x="11.5" y="12.4902" width="2480" height="2480" rx="181.957" fill="#1C4230" stroke="#12281E" stroke-width="23"/>
<path d="M2000.03 906.022C2001.1 903.154 2001.08 888.167 2000 872.714L1998.02 844.621H499.58L502.102 909.131L1250.1 910.184C1846.27 911.02 1998.49 910.175 2000.03 906.022Z" fill="white"/>
<path d="M1104.76 1137.8C1113.71 1129.19 1125.41 1067.18 1120.45 1054.73C1118.24 1049.17 1100.44 1045.56 1100.44 1050.67C1100.44 1051.82 1097.47 1071.81 1093.84 1095.09C1086.58 1141.65 1089.38 1152.62 1104.76 1137.8Z" fill="white"/>
<path fill-rule="evenodd" clip-rule="evenodd" d="M2003.42 1398.18L2001.19 950.75L499.869 948.644L502.102 1396.08L2003.42 1398.18ZM752.134 1041.27C753.343 1037.26 755.642 1025.09 757.237 1014.22L760.131 994.45H911.335L908.441 1014.22C903.495 1047.98 903.058 1048.56 882.525 1048.56C865.632 1048.56 863.711 1049.61 861.719 1060C860.513 1066.29 850.162 1131.84 838.718 1205.67L817.913 1339.89H782.05C762.325 1339.89 746.19 1338.38 746.19 1336.54C746.19 1334.7 755.91 1271.03 767.79 1195.05C779.671 1119.07 789.391 1055.03 789.391 1052.73C789.391 1050.44 780.512 1048.56 769.661 1048.56C752.908 1048.56 750.259 1047.46 752.134 1041.27ZM1026.95 1050.92C1031.73 1022.23 1035.64 997.784 1035.64 996.602C1035.64 992.532 1154.46 994.504 1170.68 998.841C1195.37 1005.45 1201.6 1017.82 1198.16 1053.45C1196.59 1069.7 1192.35 1097.26 1188.73 1114.68C1183.12 1141.71 1179.84 1148.46 1166.4 1160.66C1157.1 1169.11 1152.79 1175.66 1155.88 1176.65C1158.75 1177.57 1163.95 1183.62 1167.42 1190.1C1173.82 1202.02 1172.51 1218.81 1157.53 1317L1154.36 1337.81L1118.76 1339.02C1101.38 1339.61 1091.56 1341.02 1086.91 1336.95C1080.24 1331.14 1084.14 1314.11 1091.58 1267.41C1096.21 1238.36 1098.88 1211.78 1097.51 1208.35C1096.12 1204.88 1091 1202.67 1085.97 1203.37C1078.01 1204.48 1076.05 1209.84 1069.63 1248.33C1065.62 1272.36 1061.04 1302.8 1059.48 1315.96L1056.62 1339.89H1020.21C988.009 1339.89 983.797 1339.02 983.797 1332.39C983.797 1328.26 989.676 1287.53 996.856 1241.87C1004.04 1196.2 1011.8 1146.3 1014.09 1130.97C1016.39 1115.63 1022.17 1079.61 1026.95 1050.92ZM1316.36 1158.85C1329.33 1068.19 1339.03 1004.32 1340.54 999.482C1341.79 995.528 1351.65 994.429 1377.94 995.32C1410.67 996.431 1413.58 997.226 1412.83 1004.86C1412.38 1009.43 1403.97 1064.68 1394.14 1127.63C1384.31 1190.58 1373 1263.62 1369 1289.95L1361.73 1337.81L1326.12 1339.02C1297.19 1340 1290.53 1339.09 1290.53 1334.14C1290.53 1330.79 1295.27 1297.47 1301.06 1260.09C1306.85 1222.72 1313.74 1177.16 1316.36 1158.85ZM1510.61 1247.47C1533.24 1104.65 1549.73 998.866 1549.73 996.631C1549.73 995.433 1570.45 994.45 1595.78 994.45H1641.83L1639.1 1081.85C1637.61 1129.92 1637.79 1169.25 1639.5 1169.24C1641.21 1169.23 1653.01 1134.12 1665.72 1091.2C1678.42 1048.29 1690.5 1008.97 1692.58 1003.81C1696.14 994.954 1698.71 994.45 1740.29 994.45H1784.23L1781.62 1016.3C1780.2 1028.32 1773.15 1075.61 1765.98 1121.39C1758.8 1167.17 1749.01 1229.91 1744.22 1260.81C1735.68 1315.85 1734.53 1333 1725.79 1338.1C1720.53 1341.18 1712.5 1339.89 1698.44 1339.89C1673.25 1339.89 1666.38 1338.59 1666.38 1333.83C1666.38 1327 1691.28 1168.16 1694.63 1153.64C1695.81 1148.49 1695.27 1144.28 1693.41 1144.28C1691.56 1144.28 1684.92 1162.54 1678.67 1184.86C1672.42 1207.18 1659.94 1251.19 1650.95 1282.66L1634.61 1339.89H1591.57L1594.52 1241.78C1596.21 1185.3 1595.84 1144.63 1593.65 1145.94C1591.55 1147.18 1588.52 1160.9 1586.91 1176.42C1583.69 1207.42 1568.08 1315.64 1564.67 1330.53C1562.68 1339.22 1560.21 1339.89 1530.21 1339.89C1504.8 1339.89 1497.89 1338.6 1497.89 1333.83C1497.89 1330.5 1503.62 1291.63 1510.61 1247.47Z" fill="white"/>
<path fill-rule="evenodd" clip-rule="evenodd" d="M1456.08 1472.49C1456.79 1448.58 1455.97 1446.03 1446.05 1441.1C1437.44 1436.82 1340.63 1435.73 967.596 1435.68L499.942 1435.61V1502.2H918.273C1148.36 1502.2 1337.55 1503.11 1338.7 1504.22C1339.86 1505.33 1336.35 1533.89 1330.92 1567.69C1325.48 1601.49 1320.97 1636.17 1320.9 1644.75L1320.77 1660.36H1359.79C1410.68 1660.36 1426.8 1654.19 1432.35 1632.58C1439.79 1603.65 1455.3 1498.98 1456.08 1472.49ZM1383.56 1550.07C1389.31 1513.44 1394.05 1481.14 1394.11 1478.27C1394.16 1475.41 1397.12 1473.07 1400.69 1473.07C1404.25 1473.07 1407.11 1476.35 1407.04 1480.35C1406.74 1497.19 1387.34 1612.96 1383.96 1618.06C1374.17 1632.84 1374.04 1610.77 1383.56 1550.07Z" fill="white"/>
<path d="M1523.36 1504.29C1528.34 1472.24 1532.42 1443.68 1532.43 1440.82C1532.44 1437.29 1524.9 1435.61 1509.03 1435.61C1499.91 1435.61 1494.23 1434.76 1490.22 1436.86C1482.23 1441.05 1480.87 1456.96 1472.05 1514.69C1467.33 1545.59 1460.52 1589.44 1456.92 1612.13C1453.32 1634.82 1450.37 1655.05 1450.37 1657.08C1450.37 1659.11 1461.51 1660.21 1475.13 1659.53L1499.89 1658.28L1507.11 1610.41C1511.08 1584.09 1518.39 1536.33 1523.36 1504.29Z" fill="white"/>
<path fill-rule="evenodd" clip-rule="evenodd" d="M1657.49 1489.8C1662.37 1455.39 1662.21 1450.62 1655.94 1444.58C1650.55 1439.39 1637.91 1437.46 1601.48 1436.26C1575.4 1435.4 1554.05 1435.98 1554.05 1437.55C1554.05 1439.13 1547.35 1482.88 1539.16 1534.78C1530.96 1586.68 1523.67 1635.7 1522.96 1643.71L1521.65 1658.28L1544.38 1659.54C1554.82 1660.12 1560.9 1660.81 1564.9 1658.36C1571.03 1654.59 1572.22 1643.37 1576.7 1612.82C1580.29 1588.26 1584.19 1575.04 1588.2 1573.76C1593.15 1572.19 1593.72 1575.97 1591.27 1594.25C1589.62 1606.57 1587.1 1626.49 1585.68 1638.51L1583.09 1660.36H1605.03C1617.11 1660.36 1628.29 1658.33 1629.88 1655.85C1631.47 1653.37 1635.51 1632.49 1638.84 1609.45C1644.06 1573.53 1644.06 1566.28 1638.88 1558.66C1633.48 1550.73 1633.87 1548.6 1642.43 1539.01C1649.56 1531.03 1653.44 1518.36 1657.49 1489.8ZM1590.14 1515.73C1591.36 1509.44 1593.54 1497.26 1595 1488.68C1596.7 1478.63 1599.98 1473.07 1604.2 1473.07C1609.55 1473.07 1610.2 1476.69 1607.77 1492.84C1606.13 1503.72 1603.03 1515.89 1600.87 1519.89C1594.74 1531.29 1587.66 1528.55 1590.14 1515.73Z" fill="white"/>
<path d="M1757.1 1467.35C1757.1 1464.2 1758.31 1455.77 1759.8 1448.62L1762.5 1435.61H1684.05L1681.67 1449.14C1676.08 1481.06 1653.71 1630.41 1652.54 1643.71L1651.26 1658.28L1688.51 1659.47C1724.16 1660.62 1725.88 1660.26 1728.41 1651.15C1734.4 1629.63 1731.97 1622.9 1718.22 1622.9C1712.99 1622.9 1709.64 1623 1707.77 1621.45C1704.36 1618.6 1705.93 1610.19 1710.18 1585.43C1714.94 1557.64 1715.5 1556.71 1728.4 1555.49C1739.88 1554.4 1742.23 1552.06 1745.57 1538.4C1749.91 1520.58 1749.47 1519.58 1736.43 1517.67C1722.56 1515.63 1721.21 1512.74 1724.44 1491.99C1727.28 1473.76 1727.93 1473.07 1742.24 1473.07C1751.97 1473.07 1757.1 1471.09 1757.1 1467.35Z" fill="white"/>
<path d="M1884.96 1475.7C1887.57 1451.18 1887.05 1448.8 1877.63 1442.45C1864.5 1433.59 1807.6 1433.26 1790.98 1441.95C1778.17 1448.66 1777.53 1451.32 1759.34 1572.37C1748.93 1641.62 1749.92 1653.38 1766.49 1657.65C1783.78 1662.11 1832.21 1660.47 1843.32 1655.06C1855.31 1649.21 1863.07 1628.23 1867.64 1589.28L1870.54 1564.63H1822.75L1819.83 1588.84C1816.58 1615.89 1811.46 1627.2 1805.41 1620.79C1803.07 1618.31 1805.6 1589.99 1811.72 1550.07C1823 1476.43 1823.84 1473.07 1830.8 1473.07C1833.9 1473.07 1835.11 1480.12 1834.17 1492.67L1832.7 1512.27L1855.19 1512.81C1866.23 1513.07 1872.53 1513.23 1876.45 1510.36C1881.69 1506.52 1882.67 1497.29 1884.96 1475.7Z" fill="white"/>
<path d="M1999.09 1463.71C1999.12 1458.55 2000.32 1450.13 2001.75 1444.98C2004.34 1435.66 2004.08 1435.61 1954.67 1435.61C1906.8 1435.61 1904.9 1435.96 1902.38 1444.98C1896.78 1465.12 1899.07 1473.07 1910.46 1473.07C1917.32 1473.07 1921.26 1475.42 1921.26 1479.5C1921.26 1483.03 1915.43 1523.52 1908.3 1569.48C1901.18 1615.43 1895.34 1654.77 1895.34 1656.9C1895.34 1659.03 1906.5 1660.21 1920.14 1659.53L1944.94 1658.28L1948.12 1635.39C1953.69 1595.27 1969.35 1492.15 1971.35 1482.44C1972.83 1475.24 1976.24 1473.07 1986.15 1473.07C1996.61 1473.07 1999.04 1471.31 1999.09 1463.71Z" fill="white"/>
</svg>
