<svg width="177" height="177" viewBox="0 0 177 177" fill="none" xmlns="http://www.w3.org/2000/svg">
<rect x="23.4082" y="93.6328" width="27.5391" height="49.5703" fill="#F6BE4F"/>
<rect x="122.549" y="93.6328" width="33.0469" height="49.5703" fill="#F6BE4F"/>
<path d="M155.251 93.6328H133.22C130.299 93.6328 127.497 94.7933 125.431 96.8592C123.365 98.925 122.205 101.727 122.205 104.648V132.187C122.205 135.109 123.365 137.911 125.431 139.977C127.497 142.042 130.299 143.203 133.22 143.203H144.236C147.157 143.203 149.959 142.042 152.025 139.977C154.091 137.911 155.251 135.109 155.251 132.187V93.6328ZM155.251 93.6328C155.252 84.9067 153.524 76.2669 150.168 68.2119C146.812 60.1569 141.895 52.8462 135.699 46.7016C129.503 40.557 122.152 35.7001 114.069 32.4111C105.987 29.1222 97.3327 27.4663 88.6069 27.539C79.8869 27.4754 71.2405 29.1381 63.1659 32.4311C55.0914 35.7241 47.7482 40.5825 41.5597 46.7262C35.3712 52.8699 30.4597 60.1775 27.108 68.228C23.7564 76.2784 22.031 84.9125 22.0313 93.6328V132.187C22.0313 135.109 23.1918 137.911 25.2577 139.977C27.3235 142.042 30.1253 143.203 33.0469 143.203H44.0625C46.984 143.203 49.7859 142.042 51.8517 139.977C53.9176 137.911 55.0781 135.109 55.0781 132.187V104.648C55.0781 101.727 53.9176 98.925 51.8517 96.8592C49.7859 94.7933 46.984 93.6328 44.0625 93.6328H22.0313" stroke="#F69F4F" stroke-width="11.0156" stroke-linecap="round" stroke-linejoin="round"/>
</svg>
